<?xml version="1.0" encoding="utf-8"?>
<!-- Generator: Adobe Illustrator 16.2.0, SVG Export Plug-In . SVG Version: 6.00 Build 0)  -->
<!DOCTYPE svg PUBLIC "-//W3C//DTD SVG 1.1//EN" "http://www.w3.org/Graphics/SVG/1.1/DTD/svg11.dtd">
<svg version="1.1" id="Слой_1" xmlns="http://www.w3.org/2000/svg" xmlns:xlink="http://www.w3.org/1999/xlink" x="0px" y="0px"
	 width="243.313px" height="108.232px" viewBox="0 0 243.313 108.232" enable-background="new 0 0 243.313 108.232"
	 xml:space="preserve">
<g id="Слой_2">
</g>
<g>
	<polygon fill="#F91B24" points="36.599,67.927 41.429,66.671 41.521,66.004 38.631,66.774 35.153,66.962 32.441,66.672 
		30.222,65.806 29.161,66.961 29.554,67.826 33.513,68.216 	"/>
	<path fill="#F91B24" d="M60.77,100.465l-0.654-5.511l-1.747-22.005l-2.075-10.07l-4.19,0.464l-7.072-0.538l0.182-1.029l6.316-0.866
		l6.58-2.313l-0.235-0.884l-3.354,0.31l-0.801-4.373l27.474-8.995l-4.564-13.799l0.106-0.063l0.013,0.022l0.051-0.06l0.03-0.019
		l0.02-0.013l1.296-1.501v-2.445l-1.381-1.833l-1.883,0.617l-0.022-0.05L66.418,0L0,21.747l1.769,5.347l-0.513,0.002l-0.645,0.373
		l0.645,3.021l1.7,2.31l0.729,0.09L14.771,66.4l19.099-6.253l0.714,1.159l3.203,0.862l0.635,2.904l5.905-0.57l-2.948,3.734
		l-3.064,0.843l-3.946,0.145l-0.019,0.746l3.592,0.158l-0.104,0.458l-3.862,0.064l-3.25,0.703l-3.931,1.203l-0.003,0.008l-0.1,0.445
		l-0.11,0.506l1.316,0.947l2.069-1.331l2.856-1.327l2.866-0.197l-1.877,1.402l-7.7,4.941l-0.724,3.903l-2.585,5.644l-2.479,10.048
		l2.494,0.115l-1.472,1.654l-3.197,3.23l-4.267,2.514l0.188,2.498l5.233,0.029l5.135-2.271l1.451-2.778l2.859-0.377l0.48-3.593
		l4.229-0.496l1.724-6.617l1.836-1.572l-0.657-1.67l4.619-11.981c0.372-0.963,1.529-3.166,2.461-3.336l4.497,11.217l-0.367,1.871
		l3.305,11.068l0.069,1.691l2.178,0.004l-0.028,0.678l-1.152,1.322l0.804,4.216l5.494,0.335l5.579,2.936h4.854l0.035-3.002
		l-2.644-0.628L60.77,100.465z M79.706,43.902l-26.202,8.579l-0.589-3.218l7.207-6.366l1.527,0.156l1.822-1.756l0.152-0.962
		l1.29-0.424l1.228-1.287v-0.543l5.472-5.73l3.394-0.541l0.581-0.342L79.706,43.902z M72.516,22.167l1.233,3.727l-0.2,0.073
		l-1.192-0.706l0.377-1.704L72.516,22.167z M1.486,22.57C22.884,15.581,44.278,8.521,65.672,1.516l6.662,20.118l-0.407-0.25
		l-1.762,4.346l-0.64,2.964l-3.539,1.812l-5.348,3.361l-1.807,1.869l-0.6-0.292l-0.023,0.018l-0.236-0.115l-1.633,1.149
		l-0.282,0.875l-4.167,2.409l-2.543,0.038l-2.945,1.019l-0.995-1.154l-2.351-0.32l0.02-1.857l3.396-1.372l-0.033-0.859l-0.771-1.161
		l-0.259-1.179l0.706-0.832l-0.253-0.521l-0.07-0.033L45.79,31.54l-2.135-1.005l-0.354-0.64l0.037-1.354l-1.12-0.961l-1.815-1.56
		l-1.222-0.39l-0.252-0.42l-0.222-0.371L36.9,24.886l-0.952,1.352l-3.267,1.619l-1.364,4.048l0.909,0.576l0.235,1.892l3.286,2.635
		l0.175,1.875l-2.645,0.104l-0.099,0.249h-0.023l-0.693,0.988l-1.743-0.55l-3.482-1.026l-3.761-0.261l-0.382-1.099l-1.719-1.252
		l-0.792,0.062l-0.412,0.051l-2.685-2.03l-3.022-1.66l-4.73-3.608l-0.633-1.555l-1.038-1.399L6.5,22.36l-0.966,0.039l-0.251,1.809
		l0.508,1.329l-0.599,1.535l-2.04-0.006c0.017,0.083,0.03,0.226,0.045,0.306l-0.17-0.139H3.005C2.497,26.233,1.993,24.1,1.486,22.57
		z M15.517,64.919C12.004,54.295,8.491,43.67,4.975,33.047l0.32,0.04l-0.002-0.122c0.042,0.031,0.084,0.063,0.127,0.1l1.29-0.06
		l4.432,4.753v0.598l1.258,1.057l3.067,2.473l1.804,0.486l0.229,1.136l1.999,1.194l1.901-0.278l3.628,1.914l5,5.692l1.648,4.554
		l1.56,2.534L15.517,64.919z"/>
</g>
<circle fill="none" stroke="#F91B24" stroke-width="0.4" stroke-miterlimit="10" cx="239.296" cy="61.456" r="3.645"/>
<path fill="#F91B24" d="M238.236,59.511h0.986c0.87,0,1.145,0.434,1.145,0.826c0,0.444-0.547,0.817-1.327,0.817h-0.804V59.511z
	 M237.69,59.153v4.383h0.546v-2.021h0.729c0.541,0,0.688,0.193,0.813,0.399l0.956,1.621h0.604l-1.006-1.702
	c-0.116-0.193-0.23-0.435-0.628-0.472v-0.012c0.721-0.058,1.251-0.488,1.251-1.021c0-0.473-0.282-1.18-1.774-1.18h-1.491V59.153z"/>
<path fill="#F91B24" d="M133.731,72.517h2.224l-0.858-10.662l-0.179-0.104L133.731,72.517z M131.358,57.813h8.448l3.403,24.404
	h-6.105l-0.705-6.005h-3.334l-1.008,6.005h-5.183L131.358,57.813z M115.791,82.22h-6.15V57.813h6.15v9.047h3.26v-9.047h6.153v24.404
	h-6.153V70.636h-3.26V82.22z M98.007,82.22h-6.15V57.813h6.15v11.068h0.073l3.893-11.068h5.854l-4.108,10.766l4.141,13.642h-6.069
	l-3.706-12.384H98.01L98.007,82.22L98.007,82.22z M80.218,63.163v13.714c0,1.271,0.545,1.913,1.633,1.913
	c1.084,0,1.628-0.642,1.628-1.913V63.163c0-1.285-0.544-1.929-1.628-1.929C80.762,61.235,80.218,61.878,80.218,63.163z
	 M89.63,64.459v11.107c0,4.754-2.592,7.133-7.779,7.133s-7.783-2.379-7.783-7.133V64.459c0-1.766,0.353-3.176,1.052-4.233
	c0.695-1.063,1.625-1.812,2.777-2.246c1.161-0.433,2.478-0.647,3.954-0.647c1.481,0,2.804,0.217,3.953,0.647
	c1.151,0.437,2.079,1.185,2.775,2.246C89.281,61.283,89.63,62.694,89.63,64.459z"/>
<path fill="#F91B24" d="M226.204,72.491h2.221l-0.859-10.664l-0.177-0.103L226.204,72.491z M223.829,57.79h8.45l3.401,24.403h-6.105
	l-0.702-6.006h-3.339l-1.007,6.006h-5.182L223.829,57.79z M207.964,61.485h-4.3V57.79h14.763v3.694h-4.313v20.709h-6.148
	L207.964,61.485L207.964,61.485z M196.144,72.69h6.114v3.226c0,4.507-2.606,6.759-7.816,6.759c-5.165,0-7.746-2.377-7.746-7.132
	V64.435c0-4.754,2.581-7.129,7.746-7.129c2.5,0,4.434,0.467,5.785,1.408c1.354,0.942,2.031,2.646,2.031,5.104v2.677h-6.151v-3.36
	c0-0.583-0.104-1.026-0.314-1.342c-0.214-0.315-0.628-0.477-1.24-0.477c-1.135,0-1.704,0.605-1.704,1.816v13.713
	c0,1.213,0.529,1.817,1.595,1.817c1.109,0,1.665-0.604,1.665-1.817L196.144,72.69z M175.06,63.138v13.713
	c0,1.276,0.541,1.914,1.629,1.914c1.085,0,1.631-0.638,1.631-1.914V63.138c0-1.285-0.546-1.926-1.631-1.926
	C175.601,61.212,175.06,61.853,175.06,63.138z M184.472,64.435v11.107c0,4.755-2.593,7.132-7.783,7.132
	c-5.188,0-7.779-2.377-7.779-7.132V64.435c0-1.766,0.353-3.177,1.051-4.232c0.695-1.063,1.623-1.813,2.777-2.245
	c1.161-0.435,2.478-0.65,3.951-0.65c1.481,0,2.805,0.217,3.953,0.65c1.155,0.436,2.08,1.182,2.78,2.245
	C184.12,61.258,184.472,62.669,184.472,64.435z M157.452,61.286v7.981h0.958c0.716,0,1.229-0.125,1.55-0.383
	c0.32-0.252,0.526-0.646,0.62-1.184c0.09-0.531,0.133-1.339,0.133-2.406c0-1.074-0.042-1.879-0.133-2.423
	c-0.094-0.543-0.298-0.94-0.62-1.199c-0.327-0.259-0.84-0.389-1.55-0.389L157.452,61.286L157.452,61.286z M157.452,82.194h-6.148
	V57.79h7.521c2.662,0,4.669,0.377,6.021,1.131c1.344,0.76,2.021,2.124,2.021,4.106v4.457c0,1.728-0.699,3.033-2.089,3.933
	c-1.392,0.896-3.076,1.35-5.063,1.35h-2.262L157.452,82.194L157.452,82.194z"/>
<g>
	<polygon fill="#888888" points="79.069,96.554 79.069,89.642 74.174,89.642 74.174,96.554 75.225,96.554 75.225,90.582 
		78.021,90.582 78.021,96.554 	"/>
	<path fill="#888888" d="M86.767,91.737c0,0.707-0.475,1.154-1.23,1.154h-1.508V90.58h1.508
		C86.293,90.582,86.767,91.019,86.767,91.737 M87.815,91.737c0-1.243-0.901-2.098-2.212-2.098h-2.62v6.912h1.045v-2.719h1.575
		C86.914,93.834,87.815,92.979,87.815,91.737z"/>
	<path fill="#888888" d="M94.866,93.028c0,1.176,0,1.785-0.409,2.216c-0.263,0.28-0.623,0.427-1.027,0.427
		c-0.4,0-0.75-0.146-1.029-0.427c-0.447-0.446-0.399-1.312-0.399-2.195c0-0.949-0.009-1.67,0.399-2.098
		c0.269-0.281,0.641-0.429,1.029-0.429c0.396,0,0.755,0.146,1.027,0.429C94.846,91.358,94.866,91.979,94.866,93.028 M95.922,93.097
		v-0.484c0-0.979-0.135-1.75-0.668-2.293c-0.477-0.475-1.106-0.736-1.825-0.736c-0.711,0-1.342,0.263-1.818,0.736
		c-0.583,0.584-0.67,1.322-0.67,2.457v0.369c0,1.067-0.009,2.039,0.67,2.729c0.478,0.484,1.1,0.736,1.818,0.736
		c0.728,0,1.35-0.252,1.825-0.736C95.931,95.175,95.922,94.28,95.922,93.097z"/>
	<polygon fill="#888888" points="104.68,96.554 104.68,89.642 103.716,89.642 100.631,94.649 100.631,89.642 99.583,89.642 
		99.583,96.554 100.532,96.554 103.632,91.533 103.632,96.554 	"/>
	<path fill="#888888" d="M112.748,94.603c0-0.807-0.39-1.352-1.058-1.621c0.61-0.291,0.95-0.814,0.95-1.524
		c0-1.146-0.961-1.874-2.204-1.874c-0.874,0-1.581,0.226-2.234,0.797l0.653,0.671c0.444-0.398,0.94-0.545,1.542-0.545
		c0.683,0,1.194,0.368,1.194,1.02c0,0.67-0.408,1.061-1.104,1.061h-0.848v0.873h0.827c0.756,0,1.224,0.39,1.224,1.118
		c0,0.688-0.586,1.097-1.302,1.097c-0.71,0-1.215-0.186-1.739-0.67l-0.689,0.699c0.729,0.708,1.446,0.91,2.449,0.91
		C111.728,96.61,112.748,95.824,112.748,94.603"/>
	<path fill="#888888" d="M120.243,94.554c0,0.65-0.438,1.059-1.137,1.059h-1.644v-2.105h1.644
		C119.806,93.505,120.243,93.912,120.243,94.554 M120.147,91.571c0,0.621-0.429,0.99-1.127,0.99h-1.556v-1.979h1.556
		C119.719,90.582,120.147,90.95,120.147,91.571z M121.303,94.612c0-0.785-0.361-1.281-1.04-1.604
		c0.61-0.301,0.933-0.805,0.933-1.504c0-1.127-0.827-1.864-2.088-1.864h-2.688v6.912h2.792
		C120.505,96.554,121.303,95.806,121.303,94.612z"/>
	<path fill="#888888" d="M128.63,93.028c0,1.176,0,1.785-0.408,2.216c-0.263,0.28-0.623,0.427-1.028,0.427
		c-0.399,0-0.75-0.146-1.03-0.427c-0.445-0.446-0.396-1.312-0.396-2.195c0-0.949-0.009-1.67,0.396-2.098
		c0.272-0.281,0.644-0.429,1.03-0.429c0.396,0,0.759,0.146,1.028,0.429C128.611,91.358,128.63,91.979,128.63,93.028 M129.687,93.097
		v-0.484c0-0.979-0.136-1.75-0.668-2.293c-0.477-0.475-1.109-0.736-1.826-0.736c-0.71,0-1.341,0.263-1.816,0.736
		c-0.581,0.584-0.671,1.322-0.671,2.457v0.369c0,1.067-0.009,2.039,0.671,2.729c0.477,0.484,1.1,0.736,1.816,0.736
		c0.728,0,1.351-0.252,1.826-0.736C129.698,95.175,129.687,94.28,129.687,93.097z"/>
	<path fill="#888888" d="M137.104,95.61h-2.609c0.484-1.291,0.747-2.301,0.747-4.688v-0.339h1.862V95.61z M138.969,98.204V95.61
		h-0.813v-5.97h-3.922v0.418c0,2.846-0.227,4.116-0.816,5.553h-0.688v2.595h1.018v-1.65h4.195v1.65L138.969,98.204L138.969,98.204z"
		/>
	<polygon fill="#888888" points="147.406,96.554 147.406,89.642 146.445,89.642 143.356,94.649 143.356,89.642 142.308,89.642 
		142.308,96.554 143.261,96.554 146.357,91.533 146.357,96.554 	"/>
	<polygon fill="#888888" points="157.417,96.554 157.417,89.642 156.367,89.642 154.377,93.94 152.357,89.642 151.32,89.642 
		151.32,96.554 152.368,96.554 152.368,91.933 153.988,95.302 154.766,95.302 156.358,91.933 156.358,96.554 	"/>
	<polygon fill="#888888" points="168.551,96.554 168.551,89.642 167.494,89.642 167.494,92.603 164.699,92.603 164.699,89.642 
		163.651,89.642 163.651,96.554 164.699,96.554 164.699,93.534 167.494,93.534 167.494,96.554 	"/>
	<path fill="#888888" d="M175.669,94.271h-2.146l1.087-3.065L175.669,94.271z M177.534,96.554l-2.525-6.912h-0.848l-2.533,6.912
		h1.106l0.485-1.388h2.729l0.484,1.388H177.534z"/>
	<path fill="#888888" d="M187.126,95.796l-0.702-0.709c-0.405,0.397-0.708,0.583-1.22,0.583c-0.42,0-0.771-0.136-1.031-0.418
		c-0.33-0.35-0.408-0.758-0.408-1.942v-0.309c0-0.896,0.008-1.633,0.408-2.062c0.263-0.271,0.623-0.418,1.031-0.418
		c0.513,0,0.813,0.187,1.22,0.584l0.702-0.709c-0.354-0.32-0.575-0.484-0.895-0.621c-0.301-0.127-0.631-0.194-1.027-0.194
		c-0.723,0-1.354,0.264-1.829,0.737c-0.571,0.582-0.667,1.226-0.667,2.494c-0.013,0.039-0.013,0.233,0,0.281
		c0,1.139-0.021,2.09,0.667,2.778c0.478,0.484,1.106,0.736,1.837,0.736c0.39,0,0.72-0.066,1.021-0.193
		C186.551,96.281,186.774,96.117,187.126,95.796"/>
	<path fill="#888888" d="M194.309,93.028c0,1.176,0,1.785-0.409,2.216c-0.262,0.28-0.62,0.427-1.027,0.427
		c-0.396,0-0.747-0.146-1.029-0.427c-0.444-0.446-0.399-1.312-0.399-2.195c0-0.949-0.008-1.67,0.399-2.098
		c0.273-0.281,0.641-0.429,1.029-0.429c0.396,0,0.758,0.146,1.027,0.429C194.289,91.358,194.309,91.979,194.309,93.028
		 M195.369,93.097v-0.484c0-0.979-0.139-1.75-0.671-2.293c-0.477-0.475-1.107-0.736-1.826-0.736c-0.708,0-1.342,0.263-1.814,0.736
		c-0.583,0.584-0.672,1.322-0.672,2.457v0.369c0,1.067-0.011,2.039,0.672,2.729c0.475,0.484,1.096,0.736,1.814,0.736
		c0.728,0,1.351-0.252,1.826-0.736C195.377,95.175,195.369,94.28,195.369,93.097z"/>
	<path fill="#888888" d="M202.853,94.554c0,0.65-0.438,1.059-1.136,1.059h-1.64v-2.105h1.64
		C202.416,93.505,202.853,93.912,202.853,94.554 M202.757,91.571c0,0.621-0.428,0.99-1.127,0.99h-1.553v-1.979h1.553
		C202.329,90.582,202.757,90.95,202.757,91.571z M203.91,94.612c0-0.785-0.358-1.281-1.037-1.604
		c0.61-0.301,0.934-0.805,0.934-1.504c0-1.127-0.826-1.864-2.089-1.864h-2.69v6.912h2.799
		C203.115,96.554,203.91,95.806,203.91,94.612z"/>
	<polygon fill="#888888" points="212,96.554 212,95.61 208.621,95.61 208.621,93.534 211.492,93.534 211.492,92.603 208.621,92.603 
		208.621,90.582 212,90.582 212,89.642 207.57,89.642 207.57,96.554 	"/>
	<path fill="#888888" d="M219.698,95.796l-0.699-0.709c-0.409,0.397-0.71,0.583-1.224,0.583c-0.42,0-0.767-0.136-1.03-0.418
		c-0.33-0.35-0.406-0.758-0.406-1.942v-0.309c0-0.896,0.009-1.633,0.406-2.062c0.265-0.271,0.623-0.418,1.03-0.418
		c0.514,0,0.813,0.187,1.224,0.584l0.699-0.709c-0.351-0.32-0.572-0.484-0.894-0.621c-0.303-0.127-0.629-0.194-1.029-0.194
		c-0.721,0-1.354,0.264-1.825,0.737c-0.572,0.582-0.672,1.226-0.672,2.494c-0.008,0.039-0.008,0.233,0,0.281
		c0,1.139-0.018,2.09,0.672,2.778c0.473,0.484,1.104,0.736,1.834,0.736c0.392,0,0.718-0.066,1.021-0.193
		C219.126,96.281,219.348,96.117,219.698,95.796"/>
	<polygon fill="#888888" points="227.456,90.582 227.456,89.642 222.6,89.642 222.6,90.582 224.502,90.582 224.502,96.554 
		225.551,96.554 225.551,90.582 	"/>
	<path fill="#888888" d="M234.542,94.455c0,0.72-0.457,1.154-1.224,1.154h-1.517V93.3h1.517
		C234.086,93.301,234.542,93.748,234.542,94.455 M235.602,94.455c0-1.241-0.876-2.098-2.194-2.098h-1.604V89.64h-1.048v6.912h2.651
		C234.717,96.554,235.602,95.699,235.602,94.455z"/>
</g>
<g id="Слой_2_1_">
</g>
</svg>
