<svg xmlns="http://www.w3.org/2000/svg" fill="#F91B24" viewBox="0 0 512 512"><path d="M233.6 321.3l22.9-5.9.4-3.2-13.7 3.7-16.4.9-12.8-1.4-10.5-4.1-5.1 5.5 1.9 4.1 18.7 1.8"/><path d="M348 475.3l-3.1-26.1-8.3-104.1-9.8-47.6-19.8 2.2-33.5-2.5.9-4.9 29.9-4.1 31.1-10.9-1.1-4.2-15.9 1.5-3.8-20.7 130-42.6L423 146l.5-.3.1.1.2-.3.1-.1.1-.1 6.1-7.1v-11.6l-6.5-8.7-8.9 2.9-.1-.2L374.7 0 60.5 102.9l8.4 25.3h-2.4l-3.1 1.8 3.1 14.3 8 10.9 3.4.4 52.4 158.5 90.4-29.6 3.4 5.5 15.2 4.1 3 13.7 27.9-2.7-13.9 17.7-14.5 4-18.7.7-.1 3.5 17 .7-.5 2.2-18.3.3-15.4 3.3-18.6 5.7-.5 2.1-.5 2.4 6.2 4.5 9.8-6.3 13.5-6.3 13.6-.9-8.9 6.6-36.4 23.4-3.4 18.5-12.2 26.7-11.7 47.5 11.8.5-7 7.8-15.1 15.3-20.2 12 .9 11.8 24.8.1 24.3-10.7 6.9-13.1 13.5-1.8 2.3-17 20-2.3 8.2-31.3 8.7-7.4-3.1-7.9 21.9-56.7c1.8-4.6 7.2-15 11.6-15.8l21.3 53.1-1.7 8.9 15.6 52.4.3 8H312l-.1 3.2-5.5 6.3 3.8 19.9 26 1.6 26.4 13.9h23l.2-14.2-12.5-3-25.3-19.7zm89.5-267.6l-123.9 40.6-2.8-15.2 34.1-30.1 7.2.7 8.6-8.3.7-4.6 6.1-2 5.8-6.1v-2.6l25.9-27.1 16.1-2.6 2.7-1.6 19.5 58.9zm-34-102.8l5.8 17.6-.9.3-5.6-3.3 1.8-8.1-1.1-6.5zm-336 1.9C168.7 73.7 269.9 40.3 371.2 7.2l31.5 95.2-1.9-1.2-8.3 20.6-3 14-16.7 8.6-25.3 15.9-8.5 8.8-2.8-1.4-.1.1-1.1-.5-7.7 5.4-1.3 4.1-20 11.4-12 .2-13.9 4.8-4.7-5.5-11.1-1.5.1-8.8 16.1-6.5-.2-4.1-3.6-5.5-1.2-5.6 3.3-3.9-1.2-2.5-.3-.2-10.1-4.8-1.7-3 .2-6.4-5.3-4.5-8.6-7.4-5.8-1.8-1.2-2-1-1.8-8.6.2-4.5 6.4-15.5 7.7-6.5 19.1 4.3 2.7 1.1 8.9 15.5 12.5.8 8.9-12.5.5-.5 1.2h-.1l-3.3 4.7-8.2-2.6-16.5-4.9-17.8-1.2-1.8-5.2-8.1-5.9-3.7.3-1.9.2-12.7-9.6-14.3-7.9-22.4-17.1-3-7.4-4.9-6.6-7.4-16.7-4.6.2-1.2 8.6 2.4 6.3-2.8 7.3h-9.6c.1.4.1 1.1.2 1.4l-.8-.7h-.1c-2.5-4.6-4.9-14.7-7.3-21.9zm66.4 200.3c-16.6-50.3-33.2-100.5-49.9-150.8l1.5.2v-.6c.2.1.4.3.6.5l6.1-.3 21 22.5v2.8l5.9 5 14.5 11.7 8.5 2.3 1.1 5.4 9.5 5.7 9-1.3 17.2 9.1 23.7 26.9 7.8 21.5 7.4 12-83.9 27.4z"/></svg>
