<?xml version="1.0" encoding="utf-8"?>
<!-- Generator: Adobe Illustrator 16.2.0, SVG Export Plug-In . SVG Version: 6.00 Build 0)  -->
<!DOCTYPE svg PUBLIC "-//W3C//DTD SVG 1.1//EN" "http://www.w3.org/Graphics/SVG/1.1/DTD/svg11.dtd">
<svg version="1.1" id="Слой_1" xmlns="http://www.w3.org/2000/svg" xmlns:xlink="http://www.w3.org/1999/xlink" x="0px" y="0px"
	 width="512px" height="512px" viewBox="-215.403 -201.884 512 512" enable-background="new -215.403 -201.884 512 512"
	 xml:space="preserve">
<g>
	<polygon fill="#F91B24" points="19.684,119.452 42.533,113.507 42.967,110.351 29.298,113.997 12.842,114.884 0.013,113.511
		-10.483,109.419 -15.5,114.879 -13.642,118.971 5.086,120.815"/>
	<path fill="#F91B24" d="M134.026,273.371l-3.091-26.068l-8.265-104.096l-9.816-47.639l-19.823,2.199l-33.451-2.545l0.859-4.87
		l29.875-4.098l31.127-10.938l-1.108-4.186l-15.869,1.469l-3.788-20.687L230.642,9.361l-21.588-65.276l0.499-0.3l0.064,0.106
		l0.24-0.287l0.144-0.088l0.093-0.06l6.13-7.1v-11.568l-6.532-8.671l-8.906,2.92l-0.106-0.236l-39.933-120.685L-153.448-99.008
		l8.366,25.297l-2.425,0.009l-3.054,1.765l3.054,14.289l8.043,10.926l3.446,0.43l52.442,158.52l90.352-29.58l3.377,5.483
		l15.152,4.074l3.003,13.739l27.935-2.697l-13.947,17.665l-14.497,3.987l-18.664,0.688l-0.092,3.53l16.991,0.743l-0.49,2.167
		l-18.271,0.305l-15.375,3.326l-18.594,5.691l-0.014,0.037l-0.476,2.106l-0.518,2.394l6.223,4.476l9.789-6.296l13.512-6.273
		l13.554-0.934l-8.879,6.629l-36.426,23.376l-3.423,18.465l-12.228,26.697l-11.725,47.532l11.794,0.545l-6.962,7.826l-15.125,15.276
		l-20.183,11.896l0.887,11.816l24.757,0.135l24.291-10.741l6.865-13.143l13.526-1.783l2.269-16.996l20.008-2.347l8.154-31.303
		l8.685-7.438l-3.109-7.899l21.851-56.674c1.76-4.556,7.234-14.978,11.642-15.781l21.274,53.062l-1.737,8.852l15.638,52.354
		l0.324,8.002l10.306,0.019l-0.134,3.206l-5.451,6.255l3.807,19.943l25.99,1.584l26.388,13.892h22.965l0.166-14.201l-12.51-2.971
		L134.026,273.371z M223.606,5.799L99.656,46.383L96.87,31.161l34.093-30.116l7.221,0.739l8.62-8.311l0.721-4.55l6.103-2.005
		l5.807-6.089v-2.569l25.885-27.104l16.058-2.559l2.749-1.617L223.606,5.799z M189.591-97.022l5.835,17.633l-0.947,0.342
		l-5.641-3.335l1.783-8.061L189.591-97.022z M-146.422-95.114c101.227-33.063,202.43-66.458,303.639-99.596l31.515,95.166
		l-1.926-1.183l-8.334,20.563l-3.03,14.021l-16.742,8.569l-25.297,15.901l-8.547,8.842l-2.841-1.381l-0.106,0.083l-1.118-0.541
		l-7.724,5.433l-1.335,4.139L92.019-13.701l-12.029,0.18L66.056-8.702l-4.703-5.456l-11.124-1.515l0.097-8.787l16.063-6.486
		l-0.157-4.065l-3.645-5.493l-1.225-5.576l3.34-3.936l-1.201-2.467l-0.328-0.157l-0.009-0.042l-10.103-4.754l-1.672-3.026
		l0.175-6.407l-5.299-4.546l-8.588-7.377l-5.779-1.848l-1.192-1.986l-1.048-1.755l-8.551,0.226l-4.5,6.394L1.15-70.103
		l-6.454,19.148l4.301,2.726L0.11-39.28l15.545,12.464l0.827,8.87L3.968-17.452l-0.466,1.178H3.39l-3.275,4.675l-8.246-2.605
		l-16.474-4.851l-17.79-1.233l-1.807-5.202l-8.13-5.922l-3.747,0.295l-1.95,0.24l-12.704-9.604l-14.293-7.854L-107.404-65.4
		l-2.994-7.359l-4.911-6.616l-7.392-16.732l-4.569,0.185l-1.188,8.556l2.402,6.287l-2.836,7.262l-9.65-0.028
		c0.083,0.393,0.143,1.067,0.212,1.446l-0.804-0.656h-0.102C-141.635-77.785-144.019-87.875-146.422-95.114z M-80.046,105.219
		c-16.617-50.257-33.234-100.52-49.87-150.772l1.515,0.189l-0.009-0.577c0.199,0.147,0.397,0.3,0.601,0.476l6.103-0.286
		l20.964,22.484v2.832l5.95,4.999l14.51,11.702l8.533,2.296l1.085,5.373l9.457,5.65l8.99-1.317l17.162,9.055l23.653,26.928
		l7.798,21.542l7.377,11.988L-80.046,105.219z"/>
</g>
</svg>
