<svg version="1" xmlns="http://www.w3.org/2000/svg" width="933.333" height="933.333" viewBox="0 0 700.000000 700.000000"><path d="M512.5.5c-4 1.2-137.2 44.9-183 60C315.8 65 289 73.8 270 79.9c-50.9 16.6-111.8 36.5-170.3 55.8-7.5 2.5-13.9 4.8-14.1 5.2-.2.3.5 3.1 1.4 6.1 7.5 23.2 8.7 27.5 7.6 27.8-4.8 1.4-5.6 2.5-5.1 6.6 2 13.7 8.6 26.4 16.1 30.8 3.3 2 3.6 2.8 34.5 96.1 31.8 96.4 39.7 119.8 40.3 120.4.3.4 13.7-3.8 54.6-17.2 73.3-24.1 67.4-22.6 71.5-18.3 2.5 2.5 5.6 4.1 12.5 6.3 5 1.6 9.4 3.4 9.8 4 .4.5 1.6 4.6 2.7 9 2.4 9.5-1 8.7 26 6 2.8-.3 6.7-.8 8.8-1.1 2.1-.3 3.7-.2 3.7.4 0 1.5-15.7 20.9-18.3 22.7-3.9 2.5-20.2 6.2-28.6 6.4-16.4.5-15.6.4-15.6 3 0 2.8.6 2.9 12.1 3.2 8.3.2 11.7 1 9.5 2.4-.7.3-5.3.9-10.4 1.1-13.2.7-22.8 2.1-34.5 5-14.5 3.7-25.3 7.6-26.5 9.6-1.5 2.2.5 5.9 4.4 8.2l3 1.8 7.2-4.4c4-2.3 7.6-4.5 8.2-4.7.5-.2 3.6-1.6 6.7-3.1 6.5-3.2 12.6-4.7 21.6-5.4 7.4-.6 7.3-.4-3.8 7.1-6.7 4.5-12.3 8.2-38 24.8-3.6 2.3-7.9 5-9.7 6-3.9 2.3-3.8 2.2-5.8 13.4-1.9 10.9-3.5 15.7-11.8 34.6-5.6 12.9-10.6 27.1-12.1 34.9-.3 1.1-2.7 11.2-5.5 22.3-2.8 11.2-5.1 21.2-5.1 22.3 0 1.7.7 2 4.3 2.1 5.7.1 8.6.5 9.3 1.1 1.7 1.8-33.3 35.8-36.9 35.8-.7 0-10.2 6.1-15 9.6-3.6 2.7-3.7 2.9-3.6 9 .1 3.4.5 6.8 1 7.5.5.9 4.7 1.3 15.5 1.5 16.6.1 19.4-.3 29-4.7 24.2-10.9 21.9-9.3 26.3-17.9 2.2-4.2 4.7-8.2 5.4-8.8.8-.7 4.9-1.7 9.3-2.3 4.3-.6 8.2-1.4 8.6-1.7.4-.4.9-2.8 1.2-5.2 1-9.2 1.8-14.5 2.7-16.1.5-1.1 2.8-1.9 6.6-2.3 3.2-.4 7.6-.9 9.8-1.1 10.6-1.2 10.1-.9 12.3-8.3 1.1-3.7 3.4-12.3 5.2-19.2 3.9-15.1 4.5-16.4 10.8-22.1l5-4.5-1.4-4c-2.1-5.7-1.9-9.3.4-14.9 1.2-2.8 7.1-17.9 13.2-33.7 6-15.8 12.4-32 14.2-36 4.8-11.1 12.5-21.7 14.7-20.4 1.4.9 1.4 1 17 39.7l12.7 31.5-.9 7-1 6.9 8.8 29c10.6 35.5 12.5 42.6 12.5 48.2v4.3l5.9-.1c5.8-.2 8.1.4 8.1 2 0 .5-1.6 3.2-3.6 6.1-3.7 5.5-3.7 5.5-1.9 14.5.4 1.6.8 3.9 1 5 .2 1.1.8 4.4 1.5 7.3l1.2 5.2 5.1.1c2.9.1 6.3.2 7.7.4 1.4.1 6.8.5 12 .9 8.9.6 10.2 1 20.5 6.1 6.1 3 14.3 7.2 18.2 9.3l7.3 3.9 16 .2 16 .2v-19.8l-6.2-1.3c-9-1.7-12.7-3.8-28.3-16-7.7-6.1-14.3-11-14.7-11-1 0-2.7-6-3.3-11.5-.5-5.9-1.5-15-2-18.5-.4-3.2-1.4-12.8-2-20.5-1.2-15.2-1.5-18.4-2-24.8-.3-3.7-.7-9.7-1-13.5-1-12.2-1.5-17.6-2-23.7-.3-3.3-.7-9.2-1-13-.3-3.9-.8-9.7-1-13-.9-10.3-1.4-16.7-2-25-.3-4.4-.8-9.4-1-11-.3-1.7-.7-5-1-7.5-.3-2.5-1.9-11-3.6-19-1.6-8-3.2-15.6-3.5-17-.2-1.4-1.6-7.8-2.9-14.4-1.4-6.5-2.5-12-2.5-12.2 0-.2-3.7 0-8.2.4-15.7 1.4-54 .3-61.7-1.8-5.7-1.5-2.1-6.5 5.4-7.5 2.8-.4 6.2-.8 7.8-1 1.5-.2 6.4-.9 11-1.5 10.9-1.5 17.2-3.2 35.7-9.5 19-6.5 21-7.4 21-9.5 0-1.7-2.3-4.4-3.1-3.6-.2.2-4.7.7-10 1.1l-9.5.6-1.3-6.8c-1.5-8.2-3.1-16.2-3.7-18.5-.4-1.3.5-2.2 3.3-3.3 4.9-2.1 41.6-14.3 100.3-33.5 25.6-8.3 47.4-15.5 48.5-16 1.1-.5 7.1-2.5 13.3-4.5 6.1-2 11.2-4.2 11.2-4.8 0-1.2-17-53.7-24.1-74.6-2.2-6.2-3.9-11.7-3.9-12.2 0-.4 2.1-3.4 4.6-6.5l4.6-5.6-.4-8.2c-.3-7.4-.6-8.5-3.7-12.8-1.9-2.6-4.1-5-5-5.3-.9-.2-3.7.2-6.3.9-3.6 1.1-4.9 1.2-5.6.3-.8-1-26.1-76.5-49.9-148.7-4.6-13.9-5.1-15-6.8-14.5zm-2.8 12.2c5.4 13.1 42.4 125.6 41.4 126.3-2.6 1.7-12.3 25.7-14.7 36.5-2 9.3-3.6 11.2-14 16.4-3.8 1.9-10.2 5.4-14.2 7.8-4.1 2.4-7.7 4.3-8.2 4.3-.5 0-1 .3-1.2.8-.1.4-2.8 2.3-5.8 4.2-8.1 5.1-19 13.2-23.3 17.5-3.3 3.2-4.3 3.7-7.2 3.2-4-.7-9.2 2.6-14.2 8.9-1.9 2.4-7.7 6.7-14.9 11-11.5 6.9-12.2 7.2-19.9 7.8-10.9.8-13.7 1.4-21.9 4.3-7.7 2.8-7.4 2.9-11.1-3-1-1.7-3.5-2.4-12.2-3.4l-5.2-.6.2-6 .3-6.1 8.4-3.6c14.6-6.1 15.1-6.8 10.6-14.7-3.6-6.2-4.1-9.9-2-13.8.9-1.8 1.4-4 1.1-4.9-.3-.8-3.6-3-7.2-4.7-7.6-3.6-9.5-5.9-9.5-11.5 0-2.5-.7-4.8-1.7-6-3.9-4.2-15.7-13.6-20.1-15.8-2.6-1.3-5.7-3.5-6.9-4.8-2.1-2.2-2.8-2.3-7.8-1.8-4.2.5-5.9 1.2-7.1 2.8-3 4.3-5.9 6.4-15.5 11.2l-9.6 4.9-4.5 12.8-4.5 12.8 2.9 2.5c2.3 2 3 3.6 3.5 7.8.6 5 1 5.7 7.1 11 16.2 14.3 15.3 13.1 15.5 19.2l.2 5.5-5 .1c-2.7.1-6 .2-7.3.3-1.3.1-3.9 1.7-5.9 3.6-2 1.9-4.3 3.5-5.2 3.5-.9 0-7.9-1.8-15.6-4.1-13.7-3.9-21.8-5.4-34.3-6.3-3.5-.2-6.4-.6-6.5-.8-3-5.9-4.6-7.9-8.9-11.1-3.2-2.3-6.2-3.7-7.8-3.6-4.8.3-5.7-.1-14.1-6.2-4.6-3.3-12.7-8.6-17.9-11.6-10.4-6.1-34.9-24.1-39.2-28.8-1.6-1.6-2.8-3.4-2.8-4.1 0-.6-2.4-5.1-5.4-10-3-4.9-7.3-13.1-9.6-18.2-3.9-8.4-4.5-9.2-7.1-9.2-1.9 0-3 .6-3.4 1.9-1.3 4-1.2 9.4 0 14.2 1.2 4.6 1.2 5.5-.5 9.5l-1.9 4.4h-7c-4.3 0-7.3-.5-7.7-1.2-.4-.6-2.7-7.2-5-14.5L94.2 146l52.1-17.2c28.7-9.5 52.4-17.2 52.7-17.3 1.2-.2 57.8-18.7 60.5-19.8 1.7-.6 3.2-1.2 3.5-1.2.6-.1 25.4-8.2 73.5-24 20.4-6.7 55-18.1 77-25.3 22-7.2 52.2-17.2 67-22.1 14.9-5 27.2-9 27.5-9 .3-.1 1 1.1 1.7 2.6zm48.4 144.1c2.9 8.1 3.2 10.2 1.6 10.2-2.8 0-6.6-3.9-6.1-6.3.3-1.2.5-4.6.6-7.6.1-6 .7-5.4 3.9 3.7zm15.9 48.4c0 .2 5.2 15.8 11.5 34.8 6.4 19 12.2 36.6 13 39.2l1.4 4.7-50.7 16.7c-27.9 9.1-55.2 18.1-60.7 19.9-5.5 1.8-20.5 6.7-33.2 10.9-12.8 4.3-23.7 7.5-24.2 7.2-.7-.5-3.5-15.2-3.6-19.3 0-.6 4.7-5.3 10.5-10.4 5.8-5 12.8-11.3 15.6-13.8 19.1-17.3 18.9-17.1 25-17.1 5.3 0 5.7-.2 10.5-5.1 2.7-2.8 5.6-6.6 6.4-8.5.8-2 2.5-3.8 4.1-4.4 4.6-1.8 10.1-6.8 13.1-11.9 1.5-2.8 10.1-12.6 19-21.9l16.2-16.9 7.8-1.3c11.2-1.8 12.7-2.1 13.2-2.6.5-.4 5.1-.6 5.1-.2zM126 214c3.1 0 27.5 25.5 30.6 31.8.9 1.9 6.7 7.6 14.2 13.7 9.9 8.2 13.9 10.9 18.2 12.2 6.8 2.1 8 2.9 8 5.7 0 1.3 1 3.2 2.3 4.4 3.5 3.2 12.1 7.2 14.8 6.7 7.6-1.2 9.3-.8 22.1 5.7 8.6 4.4 10.7 6 17.5 13.7 11 12.2 19.6 22.1 22.6 25.7 1.4 1.6 4.4 8.2 6.7 14.5 2.3 6.3 6.9 16.5 10.1 22.7L299 382l-2.7 1.1c-4.6 1.7-57 19.1-84.3 27.9-14 4.6-25.8 8.4-26.2 8.6-.3.2-15.8-45.3-34.3-101.1-18.4-55.9-33.8-102.2-34.1-102.9-.6-1.5 2.8-2.7 5.4-2 .8.2 2.2.4 3.2.4z"/><path d="M276.5 429.6c-3 3.9-2.9 7.9.3 8.8 6.3 1.8 29.5 2.5 40.3 1.2 6.2-.8 31-7.1 33.9-8.6 2.5-1.3 2.7-4.3.3-3.6-13.4 3.9-21.4 5-36.9 4.9-14-.1-22-1.3-28.7-4.4-5.6-2.5-6.1-2.4-9.2 1.7z"/></svg>