<svg version="1" xmlns="http://www.w3.org/2000/svg" width="933.333" height="933.333" viewBox="0 0 700 700"><path d="M494.5 6.4c-10.4 3.5-39.2 12.9-64 21C375.2 45.5 339.2 57.3 328 61c-4.7 1.6-30.8 10.1-58 19s-54 17.6-59.5 19.4c-21 7-99.6 32.7-112 36.7-7.1 2.3-13.2 4.3-13.3 4.5-.3.2 8.4 27.6 10.5 33 .3.9-.1 1.4-1.3 1.4-1.1 0-2.8.7-3.8 1.5-1.9 1.4-1.9 1.7-.2 9.5 1 4.5 1.9 8.7 2 9.4.1.7 2.6 4.7 5.6 8.9 3.7 5.1 6.3 7.8 8.1 8.2 1.7.4 2.9 1.6 3.6 3.8.6 1.8 16.3 49.1 34.8 105.2C180.3 430.2 179.9 429 180.9 429c.6 0 41.4-13.3 94.1-30.6 25.4-8.4 28.6-9.2 29.5-7.8 3 4.9 5.3 6.3 14.4 8.8 5.2 1.4 9.7 3 10.1 3.7.5.6 1.1 3 1.5 5.3.5 2.2.9 4.3 1 4.6.1.3.5 2.2 1 4.3.7 3.7.8 3.8 4.4 3.3 2-.3 6.1-.8 9.1-1.1 3-.2 8.2-.7 11.5-1 3.3-.3 7.8-.8 9.9-1.1 3.2-.4 3.8-.3 3 .8-18.2 23.5-17.3 22.7-24.4 24.7-12.4 3.7-14.6 4-26.7 4.3l-12.3.3v2.6c0 2.6 0 2.6 8.8 2.9 13.4.3 13.7.4 13.7 2 0 1.2-2.2 1.5-12.5 1.7-7.8.2-16.2 1.1-22.5 2.4-13.1 2.7-35.7 9.6-36.7 11.2-1.7 2.6-.7 5.5 2.6 8.1 1.9 1.4 4 2.6 4.6 2.6.6 0 4.2-2 8-4.5s7.1-4.5 7.4-4.5c.2 0 3.9-1.6 8.2-3.6 4.2-2 9.1-3.8 10.8-4 1.7-.2 6-.5 9.5-.8l6.3-.5-2.3 2c-2.1 1.9-18.2 12.7-33.4 22.4-2.7 1.8-8.9 5.8-13.7 8.9-4.8 3.1-9.4 5.9-10.3 6.2-1.5.6-2.1 2-2.9 6.4-3 17.9-4 21-12.1 38.6-7.4 16.2-8.8 20.4-13.5 39-5.2 21-5.7 22.9-6.4 26.1-.2 1-1.3 5.3-2.4 9.6-1.1 4.2-1.7 7.9-1.3 8.2.4.2 3.8.5 7.4.7 3.8.1 6.7.7 6.7 1.3 0 .6-6.3 7.5-13.9 15.5-13 13.4-14.9 15-28.3 23.1-7.9 4.7-14.2 9.2-14 9.8.1.7.3 3.9.3 7.1.1 3.3.6 6.3 1.3 6.8.6.5 8.2.9 17 .9 16.7.1 15.9.3 28.6-5.4 2.5-1.2 7.9-3.5 12-5.3 4.1-1.8 8-3.7 8.7-4.4.6-.6 3-4.8 5.2-9.2 4.6-9.1 2.9-8.2 17.9-10 5-.6 5.2-.8 5.4-3.8 0-1.7.2-3.6.3-4.1.1-.6.5-3.7.9-7 1.2-9.5.9-9.2 8.4-9.9 6.6-.7 15.3-1.7 18.1-2.1 2.2-.3 2.7-1.5 8.2-22.9 5.6-21.9 4.2-19.3 15.1-28.7 1.8-1.6 1.8-1.8-.2-6.9-2.1-5.2-2-6.7.5-12.5.8-1.7 5-12.7 9.5-24.5 14-36.7 19.1-49.3 21.7-54 3.5-6.2 9.2-13 10.7-13 1.6 0 1.5-.2 17.4 39.7l12.9 32.2-1.1 6.3-1.1 6.3 9.3 31c12 39.8 12.2 40.7 12.2 46.5v4.9l6.8-.2c6.3-.2 6.7 0 7 2.1.2 1.4-1 3.8-3.6 6.8-3.6 4.2-3.9 5-3.1 7.8.5 1.7 1.2 4.6 1.5 6.5.3 1.8.8 4.3 1 5.5.3 1.1.8 4 1.3 6.4.5 2.4 1 4.5 1.2 4.6.4.4 6.3.8 27.3 2.1 4.4.3 9.1 1.1 10.5 1.9 1.4.7 8.9 4.6 16.6 8.6 7.7 4 14.4 7.7 15 8.1.5.5 8.2.9 17.2.9H529v-19.7l-8.4-1.7c-7.2-1.6-9.1-2.5-14.9-6.9-15.3-12.1-25.3-19.8-26.4-20.5-1.3-.8-2-3.5-2.8-11.2-.3-3-1-9.3-1.6-14-1.5-13.2-1.8-16-2.4-24-.3-4.1-.7-9.8-1-12.5-.2-2.8-.7-8.6-1-13-.3-4.4-.8-10.3-1-13-.3-2.8-.7-8.2-1-12-.3-3.9-.7-9.3-1-12-.3-2.8-.7-8.8-1-13.5-.3-4.7-.8-10.5-1-13-.3-2.5-.7-7.9-1-12-.3-4.1-.8-10-1-13-.3-3-.7-8.2-1-11.5-.3-3.3-2.1-13.7-4-23-4.2-20.1-4.4-20.8-4.9-23.8-.2-1.2-1.4-6.7-2.5-12.1-1.2-5.5-2.1-10.1-2.1-10.3 0-.4-7.6.1-18.5 1.3-8.7 1-15.3.8-37.5-1.1-3-.3-7.9-.7-10.8-.9-2.9-.2-5.5-.6-5.8-.9-.3-.3-.2-1.8.3-3.4 1-2.9 1.5-3.1 15-4.8 22.3-2.8 27.1-3.8 45.1-10.1 23.5-8.1 23.2-8 23.2-10.1 0-2.8-1.3-4-4-3.7-1.4.1-6.1.5-10.5.9l-8.1.7-1.3-6.8c-1.1-6.2-2.3-12.6-3.7-19.1-.5-2.4-8.7.5 103.6-36.3 25.6-8.4 52.7-17.3 60.2-19.8 7.6-2.4 13.6-4.7 13.4-5.1-.2-.3-5.8-17.5-12.6-38.1-6.7-20.6-12.5-38.4-13-39.5-1.4-3.3-3-8.7-3-10 0-.6 2-3.3 4.5-6.1l4.4-4.9.1-8.3c0-8.1-.1-8.4-4-13.7-2.2-3-4.6-5.5-5.4-5.5-.7 0-3.4.7-6 1.6-4.1 1.4-5 1.4-5.7.3-.7-1.2-44.6-133.2-52.1-156.6-1.3-4-2.5-7.2-2.8-7.2-.3 0-9 2.8-19.5 6.3zm35.9 66.8c11.5 34.8 21.1 63.9 21.3 64.5.3.7-.1 1.3-.8 1.3-1.2 0-11.9 24.5-12.5 28.5-.1.5-.6 2.8-1.2 5s-1.3 5.2-1.6 6.8c-1.1 6.1-1.7 6.7-12.8 12.3-18.2 9.1-45.3 26.7-51.8 33.5-5.4 5.7-5.8 5.9-8.7 4.8-2.8-.9-3.6-.7-8.1 2.6-2.8 2-5.5 4.8-6 6.4-.8 2.2-3.9 4.5-14.1 10.4l-13.1 7.6-9.2.5c-7.1.4-11.5 1.2-18.2 3.6l-8.8 3.2-2.4-2.8c-1.3-1.6-2.3-3.2-2.4-3.6 0-.4-2.1-1-4.7-1.4-2.7-.5-5.1-.9-5.5-1-.5-.1-2.1-.2-3.7-.3l-3-.1.2-6.2.2-6.2 7-2.9c14.8-5.9 14.5-5.8 14.5-8.9 0-1.7-1-4.3-2.1-6-1.2-1.6-2.7-4.9-3.4-7.1-1.1-3.9-1-4.4 1.3-7.5 3.1-4.1 2.2-5.4-6.3-9.2-8.4-3.8-9.5-5.1-9.5-11.3 0-5-.2-5.4-4.7-9.2-2.6-2.2-7-5.9-9.7-8.3-2.8-2.3-6.7-4.7-8.8-5.3-2.2-.5-4.3-1.9-4.9-3.2-1.7-3.1-2.1-3.2-8.2-2.9-5.2.4-5.7.6-8.6 4.7-2.5 3.4-5.1 5.3-13.5 9.4l-10.5 5.1-2.2 6.8c-1.2 3.7-3.2 9.5-4.5 12.9l-2.2 6.2 3.2 2.4c2.5 2 3.2 3.2 3.4 6.8.1 2.4.5 5.1.8 6 .2.9 5.2 5.4 10.9 9.9 7 5.5 10.5 9 10.6 10.4.1 1.2.2 3.9.3 6.1l.1 3.9-8 .3c-6.9.3-8.2.6-9.5 2.5-4.4 6.4-2.8 6.3-21 .8-12-3.6-18.9-5.2-25.5-5.6-10.2-.8-14.7-1.1-15.7-1.3-.3 0-.9-1.5-1.3-3.1-.5-2.1-2.5-4.4-6.7-7.6-5.3-4.2-6.3-4.6-9.8-4-3.5.5-4.4.1-12.6-6.2-4.9-3.8-13.3-9.2-18.6-12.1-5.3-2.8-14.1-8.6-19.7-12.9-5.5-4.2-12.4-9.5-15.3-11.8-4.1-3.1-5.9-5.3-7.3-9-1-2.7-3.5-7.2-5.5-9.9-2.1-2.8-5.7-9.5-8-15-5.2-12.1-5.4-12.3-8.5-11.7-3.1.6-3.1.6-3.9 6.6-.5 3.4-.2 6.3.9 9.5 1.6 4.4 1.6 4.8-.4 9.3l-2 4.8h-6.6c-3.6 0-6.8 0-7.2.1-.9.1-2.3-3.9-6.7-18.3L94.2 146l47.7-15.6c26.2-8.6 57.5-18.9 69.6-22.9 12.1-4 39.6-13 61-20 21.5-7 47.6-15.6 58-19 10.5-3.4 40.6-13.3 67-22 26.4-8.6 62-20.3 79-26 17.1-5.7 31.5-10.4 32-10.4.6-.1 10.5 28.4 21.9 63.1zm30.8 94.1c-.2.4-2.1-.3-4.3-1.5-3.9-2.2-4-2.3-3.2-6.3.4-2.2.8-6.3.7-9-.1-4.9-.1-4.8 3.5 5.5 2.1 5.8 3.5 10.8 3.3 11.3zm25.3 75.4c7 21.4 13 39.3 13.2 39.9.6 1.5 5.2-.1-112.7 38.4-27.2 8.8-50.5 16.5-51.8 17.1-3.1 1.2-4.9 1.1-4.9-.4 0-.6-.8-5.2-1.7-10.1-1-4.9-1.4-9.2-.9-9.6.4-.4 7.6-6.7 15.8-14 8.3-7.3 18.1-16 21.9-19.4 7.9-7 8.9-7.5 13.2-6.6 1.8.4 4 .3 5-.3 4.1-2.3 11.3-10.4 12.1-13.7.8-2.9 1.5-3.7 4.6-4.4 4.1-1.1 11.5-8 12.2-11.6.4-2.2 2.9-4.9 25.8-28.6l9.8-10.1 10.7-1.8c5.9-.9 11.4-2.1 12.2-2.6.8-.5 1.8-.9 2.1-.9.4 0 6.4 17.4 13.4 38.7zm-449.2-19.4c5.1 5.5 11.6 12.4 14.4 15.5 2.9 3.2 5.3 6.6 5.3 7.7 0 1.3 3.6 4.9 10.8 10.7 5.9 4.7 11.9 9.7 13.4 11 2.4 2 4.9 3 14.1 5.5 1.1.3 1.7 1.4 1.7 3.3 0 3.5 1.4 4.9 8.5 9 5.5 3.1 6.5 3.2 15.1 1.6 1.2-.3 7.1 2.2 14 5.8l11.9 6.2 16.2 18.4 16.1 18.4 5.3 14.5c3.1 8.7 7.2 17.8 10.1 22.4 2.6 4.3 4.8 8.2 4.8 8.6 0 .4-13.6 5.1-30.2 10.6-16.7 5.4-38.4 12.5-48.3 15.8-9.9 3.3-21.9 7.2-26.7 8.7l-8.8 2.8-33-100.2c-18.2-55-33.5-101.1-34-102.4-1.3-3.1-1.4-3 2.3-3.4 7.2-.8 7.6-.6 17 9.5z"/><path d="M276.3 429.8c-2.9 3.5-3 4-1.7 6.5 1.1 1.9 2.3 2.7 4.2 2.7 1.5 0 5.2.4 8.2.8 6.9.9 22.7.9 30.1-.1 3.1-.3 9.2-1.6 13.5-2.8 4.3-1.2 8.3-2.2 8.9-2.4 10.3-2.2 13.5-3.5 13.5-5.6 0-1.5-.5-1.9-1.7-1.5-15.4 4.4-19.2 4.9-33.3 5-14.7 0-21.9-.5-25.5-1.9-8.4-3.3-11.7-4.5-12.4-4.5-.4 0-2.1 1.7-3.8 3.8z"/></svg>
