<svg xmlns="http://www.w3.org/2000/svg" viewBox="0 0 150 66"><path fill="#fff" d="M22.48 41.68l3-.75.05-.4-1.8.45-2.15.1-1.66-.21-1.35-.55-.64.7.25.55 2.45.25zm14.86 19.89l-.4-3.38-1.1-13.48-1.3-6.17-2.6.3-4.36-.35.1-.65 3.91-.55 4.06-1.4-.16-.55-2.05.2-.5-2.74L50 27.3 47.26 19l.8-.94v-1.45l-.85-1.14-1 .35L41 0 0 13.33l1.2 3.57H.75l-.4.25.4 1.85 1.05 1.4h.6l6.71 20.23 11.67-3.78.45.75 2 .55.4 1.8 3.65-.35-1.8 2.29-1.9.5-2.45.1v.45l2.2.1-.05.3h-2.4l-2 .45-2.4.74-.05.25-.05.3.8.6 1.3-.8 1.75-.8 1.75-.1-1.15.85L16 47.9l-.45 2.39L14 53.72l-1.55 6.17H14l-.9 1-2 2-2.65 1.57.1 1.54h3.22l3.15-1.4.9-1.69 1.75-.25.3-2.19 2.6-.3 1.05-4 1.16-.94-.35-1.09 2.85-7.37c.25-.6 1-1.94 1.5-2l2.75 6.86-.25 1.14 2.05 6.76.05 1h1.35v.4l-.7.8.5 2.59h3.4l3.47 1.58h3v-1.64L40.65 64l-3.3-2.39zm9.31-42.12l2.45 7.41-16.21 5.31-.35-1.93 4.31-3.78.85.1.1-.1h.1l1.1-1.09.1-.55.6-.2.1-.1h.16l.75-.8v-.1L44.06 20l2.1-.35c0 .1.51-.25.51-.25zM9.56 39.74C7.46 33.32 5.31 27 3.2 20.54h1.05l2.85 2.93v.16l.65.65 1.8 1.49h.26l.85.25.1.65 1.25.75H12l.16.1 1.15-.16 2.05 1.09L18.49 32l1 2.79 1 1.54c-.11-.07-10.93 3.41-10.93 3.41zm16.88-15.47v-1.09l2.05-.85v-.16h.05v-.55l-.5-.7-.16-.6.35-.45-.05-.1.1-.1-.16-.3-1.3-.65-.2-.4v-.85l-.7-.6-1.1-.9-.75-.25-.3-.5h-1.1l-.61.85-2 1-.85 2.49.16.1h-.05l.5.3.16 1h.05v.16l2 1.54.1 1.09h-1.75l-.55.85-1.1-.3-2.2-.65-2.2-.16-.2-.55L14 23l-1.05-.8h-.75L10.46 21l-1.9-1-1.5-1.14L5.91 18l-.4-.94-.66-.84L3.91 14H3.3l-.16 1.09.3.8-.35.94H2L.9 13.78C14.07 9.5 27.29 5.17 40.45.9l5.06 15.17-.29.1-.75-.45.25-1-.21-1.15-.3-.2-1.1 2.63-.4 1.85-2.1 1v-.09l-3.22 2-.16.2-1 1-.5-.25-1 .7-.05.1-.1.1-.16.45L32 24.52h-1.61l-1.85.65-.6-.7zm121.31 12.11a2.24 2.24 0 1 0 2.25 2.24 2.25 2.25 0 0 0-2.25-2.24zm0 4.23a2 2 0 1 1 2-2 2 2 0 0 1-2 2zm.25-2.09c.45 0 .75-.3.75-.65s-.16-.7-1.1-.7h-.9v2.69h.35v-1.24h.44c.35 0 .4.1.5.25l.6 1h.36l-.6-1c-.1-.15-.15-.3-.4-.35zm-.4-.1h-.5v-1h.6c.55 0 .7.25.7.5s-.4.5-.8.5z"/><path fill="#fff" d="M53.12 37.26a7.24 7.24 0 0 0-2.45-.4 7.68 7.68 0 0 0-2.45.4 3.33 3.33 0 0 0-1.7 1.4 4.41 4.41 0 0 0-.65 2.59v6.81c0 2.93 1.6 4.38 4.81 4.38s4.81-1.44 4.81-4.38v-6.82a4.42 4.42 0 0 0-.65-2.59 3.28 3.28 0 0 0-1.7-1.4zM51.67 48.8c0 .8-.35 1.19-1 1.19s-1-.4-1-1.19v-8.36c0-.8.35-1.19 1-1.19s1 .4 1 1.19zM81.2 37.16l-2.75 14.92h3.2l.6-3.68h2.05l.45 3.68h3.76l-2.1-14.92zm1.46 9l.75-6.61h.1l.55 6.52a13.62 13.62 0 0 1-1.4.09zm-9.06-3.48h-2v-5.52h-3.81v14.92h3.81V45h2v7.11h3.8v-14.9h-3.8zm-6.91-5.52h-3.6l-2.41 6.76h-.05v-6.76h-3.8v14.92h3.81v-7.56h.05L63 52.08h3.76l-2.55-8.36zm35.15.65a8 8 0 0 0-3.7-.7h-4.67v15h3.81v-5.79h1.41a5.67 5.67 0 0 0 3.1-.85 2.69 2.69 0 0 0 1.3-2.39v-2.73a2.68 2.68 0 0 0-1.25-2.54zm-2.6 5.37a1.21 1.21 0 0 1-.4.75 1.56 1.56 0 0 1-1 .25h-.6V39.3h.6a1.56 1.56 0 0 1 1 .25 1.35 1.35 0 0 1 .4.75 10.45 10.45 0 0 1 .1 1.49c-.06.59-.06 1.09-.11 1.39zm12.36-6a7.24 7.24 0 0 0-2.45-.4 7.68 7.68 0 0 0-2.45.4 3.33 3.33 0 0 0-1.7 1.4 4.41 4.41 0 0 0-.65 2.59V48c0 2.93 1.6 4.38 4.81 4.38s4.81-1.44 4.81-4.38v-6.81a4.42 4.42 0 0 0-.65-2.59 3.85 3.85 0 0 0-1.7-1.4zm-1.45 11.62c0 .8-.35 1.19-1 1.19s-1-.4-1-1.19v-8.41c0-.8.35-1.19 1-1.19s1 .4 1 1.19zm13.52-11.09a6.06 6.06 0 0 0-3.55-.85c-3.2 0-4.76 1.44-4.76 4.38v6.81c0 2.93 1.6 4.38 4.76 4.38s4.81-1.4 4.81-4.13v-2h-3.76v2.54c0 .75-.35 1.09-1.05 1.09s-1-.35-1-1.09V40.4c0-.75.35-1.09 1.05-1.09q.6 0 .75.3a1.29 1.29 0 0 1 .2.85v2h3.81v-1.62a3.56 3.56 0 0 0-1.25-3.13zm19.73-.6h-5.21l-2.75 15h3.2l.6-3.68h2l.45 3.68h3.76l-2.1-15zm-3.7 9l.75-6.61h.1l.55 6.52h-1.41zm-13.94-6.71h2.66v12.68h3.81V39.4h2.66v-2.29h-9.12z"/></svg>
