<svg xmlns="http://www.w3.org/2000/svg" viewBox="0 0 339.1461 53.7044"><defs><style>.cls-1{fill:#004987}</style></defs><path class="cls-1" d="M114.297 27.1665c-1.292 0-2.193.212-17.064.212-14.546 0-13.406-.136-14.86-.136-.97 0-1.131.212-1.131.496v1.111c0 .355.161.637 1.131.637l1.159-.075c4.04 0 4.24.709 4.24 3.261V41.22c0 3.685-1.302 5.953-4.696 6.662a77.2417 77.2417 0 0 1-18.146 1.714c-10.99 0-16.996-1.356-24.587-4.773-8.736-3.933-14.322-11.47-14.322-19.834 0-6.379 5.084-12.794 12.519-16.692a42.1175 42.1175 0 0 1 12.689-4.425 58.2057 58.2057 0 0 1 5.946-.762l.02-.002c5.704-.442 14.731-.424 23.535 2.59a25.87 25.87 0 0 1 8.722 5.14l.002.005c.142.16.491.489.322.691L78.775 13.63c-.005-.01-.009-.021-.013-.031l-14.716 2.805c-.096-.513-.49-.724-.28-.954l.029-.032c.387-.345.225-.02.709.155.232.084.398-.259.662-.559.133-.153.254.164.378-.112.158-.357.366-.709.494-1.07a1.44 1.44 0 0 0-.751-1.654 1.58 1.58 0 0 0-1.545-.022 2.0411 2.0411 0 0 0-.922 1.588c-.076.855-1.237.138-2.57.061l-.234-.012c-1.167-.068-2.027.797-2.795 1.143a3.3137 3.3137 0 0 1-.576.211c-.457.242-.966.409-1.182.731a2.1392 2.1392 0 0 0 .499.995c.363.249.759.55 1.207.841l-15.745 3.001-.022.052-.051.009-.398.926 15.967-2.948-.032.016a2.26 2.26 0 0 0-1.295 1.934c.067.161.135.313.204.461-.744-.335-.134.656-.717.915l-4.395-.668c-2.403-.234-4.324 1.275-6.528 1.848-2.471.272-4.353 2.921-6.998 2.255-1.352-.352-3.6137-1.2684-4.603-1.412a5.0593 5.0593 0 0 0-3.569 1.147 3.7627 3.7627 0 0 1 3.142.814c.967.728 1.8941 2.4409 3.477 2.755 2.2449.4455 5.952.336 6.995-2.925a4.2345 4.2345 0 0 1 .766-1.223c.082-.099.197-.039.248.038a6.22 6.22 0 0 0 .535 3.768c.047.079.098.159.154.236.708 1.529 2.254 2.102 3.305 3.357 1.313.822-.307 2.057-.463 3.098a.9049.9049 0 0 0 .727.431c.769.176-.117 1.179.569 1.493a11.5988 11.5988 0 0 1 4.033 4.768c.172.232.564.156.825.232.577.317-.296.866-.069 1.276a2.5038 2.5038 0 0 0 2.308.039 2.6762 2.6762 0 0 0-.487-1.215c-1.352-1.097-2.278-2.588-3.517-3.728-.208-.509-.61-1-.537-1.549l1.397.704c.147.492.666.669 1.122.845-.014.196-.222.314-.334.472a1.0961 1.0961 0 0 0 .489 1.214c.2342.1937.7794.3645.9243.1907.5718-.6859-.1579-2-.43-2.93a.6765.6765 0 0 0-.4322-.4323 21.914 21.914 0 0 1-3.1133-1.81l.077-.941c-.438-1.511 1.171-2.433 1.646-3.73a12.5422 12.5422 0 0 0 4.636 1.845c.793.785 2.48.157 3.146 1.08a22.0122 22.0122 0 0 0 2.936 3.905c-.715.863-2.182.333-2.965.47-.648-.648-1.448.471-2.098-.178l.228-.47c-.015-.1181-.496-.22-.6464-.2436a2.05 2.05 0 0 0-1.8966.9516c-.1034.1249-.27.351-.08.469a23.6439 23.6439 0 0 0 2.472.334c.346.198.728.5995 1.158.373 1.7054-.8982 3.847.548 5.282-1.078.387-.55-.13-.98-.214-1.471a14.1386 14.1386 0 0 1-.312-2.63 46.5178 46.5178 0 0 1 4.723.234.999.999 0 0 1 .247.649 11.973 11.973 0 0 1-2.087 2.98c-.344.414.288.905-.452 1.179-.284.059-.34-.236-.619-.196-.911.392-.736 1.472-.883 2.217.054.178.27.136.44.136.446-.529 1.228-.784 1.398-1.412 1.924-1.275 1.921-3.375 3.588-4.749a1.7277 1.7277 0 0 0-.289-1.882 8.7289 8.7289 0 0 1-3.029-1.513l.478-.469c.433-.88 1.164-1.641 1.517-2.551a2.86 2.86 0 0 0 .2-.983l1.204-1.373c.485-.608.87-1.299 1.411-1.882a.3759.3759 0 0 1 .078-.131c.167-.19.324-.377.476-.577a.3983.3983 0 0 1 .031-.027l.004-.007c-.014-.26.437-.503.688-.671.508.726 1.64.511 2.374.903l-.036.029a1.6013 1.6013 0 0 1 .959.466.2674.2674 0 0 1 .068.14 1.6265 1.6265 0 0 1 .386.679c.244.43.722-.156.972.237.63.391.838-.472 1.307-.745a3.7172 3.7172 0 0 0 .137-1.807 35.9086 35.9086 0 0 1-2.128-3.304l-.535-.916-.1374-1.3052a2.7541 2.7541 0 0 0-.0906-1.2458c-.221.192-.745 1.04-1.323 1.179-.401.06-1.203-.399-2.171-.139a6.3244 6.3244 0 0 1-3.786.119.5429.5429 0 0 0 .324.66 2.4393 2.4393 0 0 1-2.013.284.7716.7716 0 0 0 .275.665 6.7619 6.7619 0 0 1-1.538.107 1.61 1.61 0 0 0-1.022.339 4.6538 4.6538 0 0 1-1.3-.422c-.284-.289-.5-.253-.26-.777.062-.144.143-.316.221-.488l15.399-2.843-.004-.011 24.23-4.474c1.2-.054.639.442 2.427-.287.342-.141 1.896-1.013 1.896-1.013s-1.303-.258-2.11-.32c-1.93-.147-1.287.178-2.684.738-.042.018.012.009-.387.085l-.048-.022a137.45 137.45 0 0 0-17.106-5.88A110.4368 110.4368 0 0 0 59.061.5075l-.015.001C41.618.46 29.818 3.0855 18.749 7.34 6.951 11.8065 0 18.6815 0 25.1315c0 8.576 5.01 14.6 14.87 19.49 11.151 5.743 30.061 8.217 46.87 8.217a151.6039 151.6039 0 0 0 18.935-1.137c2.258-.277 2.601-.401 6.327-.857 8.157-.999 9.534-.999 15.678-.401a35.2132 35.2132 0 0 1 7.525 1.609s.043-6.297.043-7.289v-12.801c0-2.054.185-2.551 3.095-2.551h1.278c.97 0 1.132-.142 1.132-.566v-1.111c0-.356-.162-.568-1.456-.568M335.4941 5.9716a1.7818 1.7818 0 0 1 .1462-.7232 1.8056 1.8056 0 0 1 .9737-.9591 1.8574 1.8574 0 0 1 1.41 0 1.8444 1.8444 0 0 1 .582.38 1.8153 1.8153 0 0 1 .3944.57 1.7345 1.7345 0 0 1 .1462.7132 1.7834 1.7834 0 0 1-.1466.7228 1.8425 1.8425 0 0 1-2.386.9591 1.8475 1.8475 0 0 1-.5793-.38 1.8153 1.8153 0 0 1-.3944-.57 1.7345 1.7345 0 0 1-.1462-.7128zm.2924 0a1.5282 1.5282 0 0 0 .1193.6062 1.5055 1.5055 0 0 0 .3284.4868 1.5625 1.5625 0 0 0 .4868.3261 1.5637 1.5637 0 0 0 1.1982 0 1.5456 1.5456 0 0 0 .4868-.3284 1.5246 1.5246 0 0 0 .3284-.4946 1.5737 1.5737 0 0 0 .1193-.6157 1.5426 1.5426 0 0 0-.1193-.6084 1.4979 1.4979 0 0 0-.3284-.49 1.5237 1.5237 0 0 0-1.0862-.44 1.5068 1.5068 0 0 0-.5989.1189 1.5716 1.5716 0 0 0-.4868.3265 1.4935 1.4935 0 0 0-.3284.4919 1.5873 1.5873 0 0 0-.1192.6207zm.8566-1.047h.77a.8936.8936 0 0 1 .56.1435.5544.5544 0 0 1 .18.46.5051.5051 0 0 1-.1608.414.7287.7287 0 0 1-.3944.1558l.6039.925h-.3165l-.5747-.9008h-.3748v.9008h-.2924zm.2924.935h.36c.0715 0 .1412-.0027.2095-.0073a.5747.5747 0 0 0 .1826-.0414.2845.2845 0 0 0 .1266-.1025.3466.3466 0 0 0 .046-.1945.3192.3192 0 0 0-.0414-.1731.2682.2682 0 0 0-.1093-.1.4526.4526 0 0 0-.1535-.0437 1.5111 1.5111 0 0 0-.1681-.01h-.4527zM259.248 39.7724l4.106-.876v-.461q0-2.4915-1.153-3.368a6.7553 6.7553 0 0 0-3.968-.877h-11.579q-2.9055 0-4.013.946t-1.108 3.668v2.168q0 2.7225 1.108 3.667 1.107.9465 4.013.946h12.64V50.06h-14.347v-2.307l-4.244.785v.553q0 2.7225 1.084 3.668t4.037.945h12.686q2.952 0 4.014-.945t1.061-3.668v-2.676q0-2.721-1.061-3.667t-4.014-.946h-12.686v-4.105h13.424zm-26.599 0l4.105-.876v-.461q0-2.4915-1.153-3.368a6.7516 6.7516 0 0 0-3.967-.877h-11.579q-2.907 0-4.014.946t-1.107 3.668v2.168q0 2.7225 1.107 3.667 1.107.9465 4.014.946h12.64V50.06h-14.347v-2.307l-4.244.785v.553q0 2.7225 1.084 3.668t4.036.945h12.687q2.95 0 4.013-.945 1.0605-.945 1.061-3.668v-2.676q0-2.721-1.061-3.667t-4.013-.946h-12.687v-4.105h13.425zm-44.176 13.932l2.445-4.29h12.917l2.445 4.29h5.351L199.867 34.19H195.3l-11.579 19.514zm8.857-15.961l4.567 8.119h-8.949zm-15.762 15.961V50.06h-15.316V34.19h-4.798v19.514zM151.342 36.82l5.397-.969v-.553q0-3.1365-1.291-4.268-1.293-1.13-4.613-1.13h-16.423q-3.4155 0-4.66 1.153-1.245 1.155-1.245 4.475v12.548q0 3.3225 1.245 4.475 1.2465 1.1535 4.66 1.153h16.423q3.4125 0 4.659-1.153 1.245-1.152 1.245-4.475v-8.211H142.3v4.059h9.042v5.306h-17.3V34.1444h17.3zM314.555 23.804V10.657l16.515 13.147h3.275V4.29h-4.29v12.964L313.494 4.29h-3.276v19.514zm-29.88 0l2.445-4.29h12.917l2.445 4.29h5.351L296.07 4.29h-4.567l-11.58 19.514zm8.857-15.961l4.568 8.119h-8.95zM278.028 4.29h-4.752v19.514h4.752zm-29.173 3.507h8.396q6.7815 0 6.781 5.951 0 3.6435-2.26 5.12-2.031 1.293-6.781 1.292h-6.136zm7.15 16.007q12.9165 0 12.917-9.826a8.8516 8.8516 0 0 0-2.998-7.15q-3-2.5365-8.719-2.538h-13.148v19.514zm-21.22-14.577v2.26q0 1.569-2.168 1.569h-10.841V7.658h10.841q2.1675 0 2.168 1.569m-13.009 14.577v-7.381h4.475l8.165 7.381h6.828l-9.273-7.381h2.676q4.566 0 4.567-3.736V8.073q0-3.7815-4.567-3.783H217.07v19.514zm-30.249 0l2.445-4.29h12.917l2.445 4.29h5.351L202.922 4.29h-4.567l-11.579 19.514zm8.858-15.961l4.567 8.119h-8.95zM161.389 4.29v14.901q0 2.7225 1.061 3.668t4.014.945h12.917q2.952 0 4.036-.945t1.085-3.668V4.29h-4.798v15.87h-13.517V4.29zm-10.047 2.63l5.397-.969v-.553q0-3.1365-1.291-4.268Q154.155 0 150.835 0h-16.423q-3.4155 0-4.66 1.153-1.245 1.155-1.245 4.475v12.548q0 3.3225 1.245 4.475 1.2465 1.1535 4.66 1.153h16.423q3.4125 0 4.659-1.153 1.245-1.152 1.245-4.475V9.965H142.3v4.059h9.042v5.306h-17.3V4.244h17.3z"/></svg>