<svg data-name="Слой 1" xmlns="http://www.w3.org/2000/svg" viewBox="0 0 568.5 198"><path fill="#821013" fill-rule="evenodd" d="M0 0h568.5v198H0V0z"/><path d="M153.49 150.13l-25-47.48a65.29 65.29 0 0 0 14.25-6.15 53.59 53.59 0 0 0 11.15-8.7 39.36 39.36 0 0 0 7.32-10.32 27.41 27.41 0 0 0 2.74-11.15 23.52 23.52 0 0 0-1.45-8.89 19.73 19.73 0 0 0-4.58-7 19.08 19.08 0 0 0-7.32-4.39 23.53 23.53 0 0 0-9.68-1 25.82 25.82 0 0 0-6.84 1.48 20.72 20.72 0 0 0-4.81 2.6 15 15 0 0 0-3 3 9.36 9.36 0 0 0-1.45 2.55c-.21.74-.24 1.22 0 1.43a13.1 13.1 0 0 1 2.22 3.5 30.69 30.69 0 0 1 2.17 6.24 26.4 26.4 0 0 1 .71 7.58 17.63 17.63 0 0 1-2.1 7.58 16.52 16.52 0 0 1-6.29 6.27l-14.87-37.9a1.36 1.36 0 0 0-.24-.43.88.88 0 0 0-.76-.43H69.39a.85.85 0 0 0-.74.26.62.62 0 0 0-.14.48 1.48 1.48 0 0 0 0 .26l23.17 46.19a66.35 66.35 0 0 0-14.23 6 59.68 59.68 0 0 0-11.58 8.51A42.12 42.12 0 0 0 58 120.29a26.33 26.33 0 0 0-3.29 11 23.07 23.07 0 0 0 1.19 8.87 20.75 20.75 0 0 0 4.24 7.22 20.12 20.12 0 0 0 6.72 4.86 21.43 21.43 0 0 0 15.76.55 21.38 21.38 0 0 0 5.62-3 22.72 22.72 0 0 0 4-3.77 15.29 15.29 0 0 0 2.19-3.46c.43-1 .52-1.72.31-2.12a14.22 14.22 0 0 1-2-3.07 23.38 23.38 0 0 1-1.91-5.22 20.66 20.66 0 0 1-.57-6.48 16.4 16.4 0 0 1 2-6.89 19.49 19.49 0 0 1 5.89-6.36l15.45 37.75a1.63 1.63 0 0 0 .17.36.77.77 0 0 0 .69.36h38.61c.4 0 .57-.14.55-.36s-.07-.33-.12-.36zm92-29.17c.19-1.43.43-3.27.76-5.46s.67-4.62 1-7.27.79-5.36 1.22-8.13.81-5.43 1.19-8 .74-4.86 1-6.91.57-3.67.74-4.86.29-1.81.29-1.84a.8.8 0 0 0-.21-.57.72.72 0 0 0-.21-.14H222.7a2.33 2.33 0 0 0-.43.17.81.81 0 0 0-.43.69s-.14.93-.38 2.67-.55 4.15-.91 7.2a26 26 0 0 0-4.41-7.08 19.27 19.27 0 0 0-6.48-4.77 21.15 21.15 0 0 0-8.7-1.74 27.87 27.87 0 0 0-10.44 2 29.58 29.58 0 0 0-8.72 5.41 38 38 0 0 0-6.86 8.15 47.82 47.82 0 0 0-4.82 10.13 56.29 56.29 0 0 0-2.62 11.37 57.23 57.23 0 0 0-.26 11.61 49.77 49.77 0 0 0 2.17 11 34.06 34.06 0 0 0 4.62 9.32 21.86 21.86 0 0 0 7.08 6.41 19.27 19.27 0 0 0 9.56 2.41 22.7 22.7 0 0 0 9.49-2.12 30.81 30.81 0 0 0 8.3-5.72 45 45 0 0 0 6.82-8.32 18.59 18.59 0 0 0 2.57 8.75 15.12 15.12 0 0 0 6.1 5.58 19.11 19.11 0 0 0 8.77 2 20.62 20.62 0 0 0 6-1 26 26 0 0 0 5.51-2.41 22.71 22.71 0 0 0 4.36-3.29 11.45 11.45 0 0 0 2.6-3.5c.29-.62.31-1.07 0-1.38a5.27 5.27 0 0 0-1.29-.93 8.15 8.15 0 0 1-1.9-1.49 8.72 8.72 0 0 1-1.86-3.07 19.11 19.11 0 0 1-1.07-5.65 50 50 0 0 1 .38-9.22zm-40.19 12a7 7 0 0 1-4.43-1.5 9.56 9.56 0 0 1-2.81-4.12 20.93 20.93 0 0 1-1.29-6.15 39 39 0 0 1 .24-7.53 42.31 42.31 0 0 1 1.6-7.56 26.49 26.49 0 0 1 2.76-6.2 14.17 14.17 0 0 1 3.84-4.17 8.48 8.48 0 0 1 4.81-1.53 7 7 0 0 1 4.46 1.53 10.27 10.27 0 0 1 2.88 4.17 22 22 0 0 1 1.31 6.2 38.82 38.82 0 0 1-.21 7.56 39.67 39.67 0 0 1-1.62 7.53 26.16 26.16 0 0 1-2.81 6.15 14.1 14.1 0 0 1-3.88 4.13 8.79 8.79 0 0 1-4.84 1.5zm138.29-53.34a.61.61 0 0 0-.17-.45.5.5 0 0 0-.26-.12h.14a156.93 156.93 0 0 0-32.06-3.34 144.25 144.25 0 0 0-30.15 3.34.63.63 0 0 0-.33.14.72.72 0 0 0-.24.57s-.07.62-.21 1.76-.36 2.67-.64 4.62-.62 4.1-1 6.51-.86 4.91-1.38 7.46-1.1 5-1.72 7.41a62.64 62.64 0 0 1-2 6.41 69.37 69.37 0 0 1-4.91 10.18 43.17 43.17 0 0 1-4.62 6.48 32.23 32.23 0 0 1-3.91 3.84l-2.74 2.22a2.71 2.71 0 0 0-1.12 1.6 8.59 8.59 0 0 0 .26 2.79 19.54 19.54 0 0 0 1.5 4.05 18 18 0 0 0 3 4.22 15.32 15.32 0 0 0 4.79 3.31 16.78 16.78 0 0 0 6.86 1.36 20.44 20.44 0 0 0 10.32-2.56 22.34 22.34 0 0 0 8-8 49 49 0 0 0 5.53-14 164.43 164.43 0 0 0 3.43-17.85c.86-6.22 1.43-12.68 1.72-19.33h11.58c-.38 3.05-.76 6.34-1.22 9.87s-.88 7.15-1.33 10.87-.91 7.37-1.33 10.94-.88 7-1.26 10.11-.74 5.94-1 8.37-.55 4.29-.71 5.67-.26 2.07-.26 2.1c0 .33.12.55.29.62s.26.12.29.09h27.6s.12 0 .29-.09.26-.29.29-.62c0 0 .09-.81.29-2.31s.43-3.58.76-6.2.69-5.65 1.12-9 .86-7 1.33-10.77.93-7.6 1.41-11.44.93-7.51 1.36-11 .83-6.67 1.19-9.51.62-5.15.86-6.94.36-2.88.41-3.29zm37.61 15.87l.71-2.86a85.06 85.06 0 0 0 21-4.77 43.85 43.85 0 0 0 13.5-7.86 25.18 25.18 0 0 0 6.94-9.51 18.4 18.4 0 0 0-2.57-18.38 20.76 20.76 0 0 0-7.82-6.06A25.19 25.19 0 0 0 401.9 44a39.27 39.27 0 0 0-15.47 3.57 46.62 46.62 0 0 0-12.87 8.89 65.2 65.2 0 0 0-10.15 12.85A86.18 86.18 0 0 0 356 84.7a96.8 96.8 0 0 0-4.5 16.47 91.6 91.6 0 0 0-1.5 16.21 44.4 44.4 0 0 0 2.17 14 34 34 0 0 0 6.39 11.44 29.53 29.53 0 0 0 10.44 7.74 34.7 34.7 0 0 0 14.33 2.86 45.23 45.23 0 0 0 12.7-1.81 39.72 39.72 0 0 0 11-5.22 35.2 35.2 0 0 0 8.53-8.18 33.21 33.21 0 0 0 5.27-10.75 37 37 0 0 0 1.24-12.94 22.32 22.32 0 0 0-3.29-10.32 21.05 21.05 0 0 0-7.08-6.74 29.89 29.89 0 0 0-9.53-3.53 40.62 40.62 0 0 0-10.63-.55 42.62 42.62 0 0 0-10.37 2.12zm15.59-32.75a4.63 4.63 0 0 1 2.55.57 2.35 2.35 0 0 1 1 1.45 5.82 5.82 0 0 1 .07 1.83 11.38 11.38 0 0 1-2 4.93 23.61 23.61 0 0 1-3.86 4.17 38.18 38.18 0 0 1-4.36 3.22c-1.43.91-2.62 1.6-3.58 2.1s-1.43.74-1.48.74c.29-1 .69-2.34 1.19-3.91s1.1-3.22 1.79-5a38.92 38.92 0 0 1 2.38-4.91 15 15 0 0 1 2.93-3.74 5.1 5.1 0 0 1 3.43-1.5zm-.57 58.64a16.64 16.64 0 0 1-.5 3.24 31 31 0 0 1-1.33 4.15 22.75 22.75 0 0 1-2.22 4.1A11.38 11.38 0 0 1 389 136a7.12 7.12 0 0 1-4 1.26 5.49 5.49 0 0 1-4.15-1.72 10.25 10.25 0 0 1-2.34-4.41 28.8 28.8 0 0 1-.93-6 59.78 59.78 0 0 1 0-6.56c.14-2.17.33-4.17.57-6s.48-3.26.67-4.34c0 0 .48-.14 1.34-.36a24.35 24.35 0 0 1 3.17-.53 14.38 14.38 0 0 1 3.79 0 11.18 11.18 0 0 1 5.6 2.48 9.54 9.54 0 0 1 2.86 4.77 20.81 20.81 0 0 1 .55 6.77zm111.36-.38c.19-1.43.43-3.27.76-5.46s.67-4.62 1-7.27.79-5.36 1.22-8.13.81-5.43 1.19-8 .74-4.86 1-6.91.57-3.67.74-4.86.29-1.81.29-1.84a.8.8 0 0 0-.21-.57.72.72 0 0 0-.21-.14h-28.6a2.34 2.34 0 0 0-.43.17.82.82 0 0 0-.43.69s-.14.93-.38 2.67-.55 4.15-.91 7.2a26 26 0 0 0-4.41-7.08 19.27 19.27 0 0 0-6.48-4.77 21.15 21.15 0 0 0-8.7-1.74 27.87 27.87 0 0 0-10.44 2 29.58 29.58 0 0 0-8.72 5.41 38 38 0 0 0-6.86 8.15 47.82 47.82 0 0 0-4.82 10.13 56.29 56.29 0 0 0-2.62 11.37 57.23 57.23 0 0 0-.26 11.61 49.78 49.78 0 0 0 2.17 11 34.06 34.06 0 0 0 4.62 9.32 21.86 21.86 0 0 0 7.08 6.41 19.27 19.27 0 0 0 9.56 2.41 22.7 22.7 0 0 0 9.49-2.12 30.81 30.81 0 0 0 8.3-5.72 45.06 45.06 0 0 0 6.82-8.32 18.58 18.58 0 0 0 2.57 8.75 15.12 15.12 0 0 0 6.1 5.58 19.11 19.11 0 0 0 8.77 2 20.62 20.62 0 0 0 6-1 26 26 0 0 0 5.51-2.41 22.7 22.7 0 0 0 4.36-3.29 11.44 11.44 0 0 0 2.6-3.5c.29-.62.31-1.07 0-1.38a5.25 5.25 0 0 0-1.29-.93 8.15 8.15 0 0 1-1.91-1.48 8.72 8.72 0 0 1-1.86-3.07 19.11 19.11 0 0 1-1.07-5.65 50 50 0 0 1 .38-9.22zm-40.19 12a7 7 0 0 1-4.43-1.5 9.56 9.56 0 0 1-2.81-4.12 20.94 20.94 0 0 1-1.29-6.15 39 39 0 0 1 .24-7.53 42.29 42.29 0 0 1 1.6-7.56 26.47 26.47 0 0 1 2.76-6.2 14.17 14.17 0 0 1 3.84-4.17 8.48 8.48 0 0 1 4.81-1.53 7 7 0 0 1 4.46 1.53 10.26 10.26 0 0 1 2.88 4.17 22 22 0 0 1 1.31 6.2 38.82 38.82 0 0 1-.21 7.56 39.66 39.66 0 0 1-1.62 7.53 26.16 26.16 0 0 1-2.81 6.15 14.1 14.1 0 0 1-3.88 4.13 8.79 8.79 0 0 1-4.84 1.5z" fill="#fff"/></svg>