<svg xmlns="http://www.w3.org/2000/svg" width="294.658" height="71.864" viewBox="0 0 294.658 71.864"><path fill="red" d="M82.902 55.968c.607-.173 87.078-13.888 210.189-7.123 1.166.063 1.54.63 1.562 1.246.019.644.054 1.142-1.771 1.06-132.754-6.246-207.896 5.946-209.663 6.23-1.793.286-2.335-.838-.317-1.413"/><path fill="#0052A5" d="M137.238 19.894C137.238 8.189 146.063 0 157.825 0c11.765 0 20.531 8.19 20.531 19.894 0 11.71-8.767 19.896-20.531 19.896-11.762 0-20.587-8.186-20.587-19.896m31.025 0c0-6.285-4.097-11.131-10.438-11.131-6.4 0-10.498 4.846-10.498 11.131 0 6.231 4.098 11.13 10.498 11.13 6.341-.001 10.438-4.899 10.438-11.13M202.17 37.771l-9.2-13.146-2.597 3.23v10.151l-9.816.487L180.46.371h9.913v16.065L202.198.371h12.224l-14.934 18.254 14.492 18.799zM242.285 37.506V23.115h-15.971v14.19h-9.922V.37h9.922v13.827h15.971V.37h9.918v37.286zM282.884 38.862l-1.837-5.3h-15.162l-1.477 4.443-11.061-.328L267.207.37h12.457L294.3 39.606l-11.416-.744zm-9.449-28.424l-4.898 14.476h9.8l-4.902-14.476z"/><path fill="red" d="M123.242 13.863c-3.698-1.652-6.953.124-5.419 1.283 8.141 6.152 4.487 24.033-3.836 24.646-3.583.265-6.036-3.566-4.075-12.763 11.638-9.927-.667-19.6-6.262-1.852-1.086 3.442-4.202 5.656-7.579 8.005.9-3.679 2.551-16.493-6.534-15.331-4.243.538-8.036 5.803-9.961 9.537-.427.838-.716 1.171-.46-.387.256-1.582.536-3.558.729-5.347.149-1.405-.699-1.399-1.65-1.109-3.298 1.017-4.975 1.654-5.136 2.863-.255 1.897-.689 4.249-1.209 7.163-.76 4.259-5.046 11.724-9.932 9.963.349-6.938-6.115-8.258-8.044-4.049-1.577 3.445 1.575 6.557 4.318 6.93-1.373 9.788-13.742 15.776-12.466-1.68 5.909-9.133 19.191-22.892 21.27-32.434C68.292 3.367 65-1.516 57.027 1.77c-15.98 6.584-17.248 38.785-17.796 42.586-3.536 4.558-11.773 15.32-19.904 16.738C9.738 62.77 6.004 57.191 7.623 49.582c2.538-11.944 14.492-14.246 18.241-14.681 2.498-.288 2.897-2.657 2.906-4.328.005-1.206-.849-1.83-2.828-1.156-1.512.517-2.205.699-5.347 1.104-6.212.794-9.668-4.54-7.592-12.199C15.195 10.249 20.82 5.6 25.665 4.785c6.106-1.024 5.626 7.415 2.923 12.567-1.428 2.721.407 4.489 4.034.857 2.032-2.028 3.479-4.453 3.993-7.364.828-4.686-1.479-9.086-6.688-9.151-8.721-.104-19.174 5.081-22.876 15.227-2.528 6.938-.12 15.557 8.433 16.901-7.23 4.024-12.005 9.254-14.119 14.756-4.088 10.644 1.086 22.102 14.413 19.735 9.202-1.632 17.632-11.596 23.955-19.836 2.051 12.87 17.064 13.035 21.845-5.084 4.275-.143 6.795-1.692 7.986-2.931.394-.411.611-.181.53.262-1.077 6.067-2.344 12.583-3.394 18.586-.392 2.246 5.872 2.065 6.317-.5 2.067-11.988 2.887-19.195 6.315-25.629 2.033-3.806 8.833-13.81 11.455-6.389.551 1.559.579 5.35-.287 8.133-4.312 2.018-7.995 3.712-10.038 6.523-1.937 2.666-.833 6.825 4.258 5.651 4.155-.959 7.398-3.992 10.271-10.101 5.091-2.738 5.816-3.816 8.19-5.34.144 9.222 5.718 11.369 10.835 10.891 6.975-.661 14.389-6.854 14.999-16.454.468-7.426-3.743-11.325-5.773-12.232m-69.849-2.632c3.619-7.601 8.076-9.802 7.258-2.333-.876 8.034-10.167 20.865-14.68 27.076 1.521-9.516 3.653-16.823 7.422-24.743m31.328 32.832c-1.392.438-2.784-.099-.801-2.383.574-.665 3.12-2.253 5.493-3.016-.909 3.017-3.132 4.91-4.692 5.399"/><path fill="#0052A5" d="M81.18 70.452v-7.046h1.973v2.536h2.396v-2.536h1.973v7.046h-1.973v-2.818h-2.396v2.818zM88.49 70.452l2.507-7.046h2.396l2.506 7.046h-2.113l-.393-1.215h-2.396l-.394 1.215H88.49zm3.705-5.364l-.806 2.596H93l-.805-2.596zM102.063 68.129v2.004c-.51.348-1.144.523-1.903.523-1.062 0-1.928-.342-2.599-1.026-.671-.688-1.007-1.584-1.007-2.699 0-1.136.348-2.039 1.039-2.712.69-.677 1.535-1.013 2.536-1.013.732 0 1.376.187 1.934.563v2.043c-.485-.563-1.041-.847-1.673-.847-.536 0-.971.192-1.304.576-.333.382-.499.863-.499 1.449 0 .551.165 1.004.49 1.363.325.359.763.536 1.313.536.617.002 1.175-.249 1.673-.76M104.438 70.452V65.1h-1.55v-1.694h5.074V65.1h-1.551v5.352zM114.221 70.341c-.495.21-1.053.315-1.678.315-.624 0-1.183-.105-1.675-.315-.495-.208-.889-.486-1.188-.844-.299-.354-.527-.751-.687-1.188-.156-.435-.234-.894-.234-1.378 0-.485.078-.944.234-1.383.16-.433.388-.828.687-1.188.299-.354.693-.637 1.188-.845.492-.208 1.051-.311 1.675-.311.625 0 1.183.103 1.678.311.492.208.889.491 1.187.845.299.359.526.755.684 1.188.159.438.238.897.238 1.383 0 .484-.079.943-.238 1.378-.158.438-.385.834-.684 1.188-.299.357-.696.636-1.187.844m-2.922-1.907c.341.354.755.529 1.244.529.491 0 .905-.176 1.243-.529.341-.361.509-.86.509-1.503 0-.645-.168-1.145-.509-1.502-.338-.354-.752-.531-1.243-.531-.489 0-.903.178-1.244.531-.336.357-.506.857-.506 1.502-.001.642.169 1.141.506 1.503M117.196 70.452l1.901-2.645c-.477-.081-.866-.304-1.168-.667-.301-.36-.454-.825-.454-1.39 0-.368.053-.694.159-.977.102-.279.245-.501.427-.663.181-.163.363-.293.545-.397.18-.105.381-.177.602-.215.221-.042.384-.066.49-.078.102-.011.207-.015.315-.015h2.891v7.046h-1.974v-2.395h-.182l-1.44 2.395h-2.112zm3.735-3.805v-1.691h-.544c-.671 0-1.006.283-1.006.847s.335.845 1.006.845h.544zM124.574 70.452v-7.046h1.976v5.357h1.689v-5.357h1.976v5.357h1.693v-5.357h1.971v5.357h.844v3.101h-1.689v-1.412zM135.832 63.406h1.901v4.228l2.731-4.228h1.934v7.046h-1.904v-4.227l-2.729 4.227h-1.933zM144.068 70.452v-7.046h4.229V65.1h-2.256v.984h2.045v1.55h-2.045v1.129h2.256v1.689zM152.505 70.452v-7.046h4.229V65.1h-2.255v.984h2.044v1.55h-2.044v1.129h2.255v1.689zM158.193 63.406h3.413c.364 0 .68.045.953.136.271.091.477.2.617.333.141.13.257.283.344.463.086.178.14.331.158.463.023.131.034.265.034.397 0 .354-.106.661-.317.922-.214.255-.473.44-.782.548v.02c.147.034.295.085.438.151.146.067.301.168.474.296.173.131.311.314.417.549.107.238.162.503.162.807 0 .545-.193 1.008-.579 1.393-.387.382-.963.569-1.727.569h-3.605v-7.047zm1.974 2.777h.828c.602 0 .902-.219.902-.661 0-.208-.07-.378-.214-.511-.144-.13-.375-.194-.688-.194h-.828v1.366zm0 2.863h.903c.706 0 1.061-.249 1.061-.746 0-.469-.354-.703-1.061-.703h-.903v1.449zM165.423 70.452v-7.046h2.97c.382 0 .726.053 1.031.155.307.104.553.236.742.393.187.157.344.344.469.562.121.212.209.424.255.627.047.205.07.409.07.62 0 .267-.043.531-.125.79-.084.259-.218.509-.403.757-.185.245-.451.441-.806.593-.353.149-.765.227-1.233.227h-.996v2.323h-1.974zm1.973-5.496v1.623h.563c.645 0 .966-.273.966-.816 0-.535-.321-.807-.966-.807h-.563zM177.431 70.341c-.495.21-1.056.315-1.678.315-.624 0-1.182-.105-1.677-.315-.494-.208-.891-.486-1.188-.844-.3-.354-.527-.751-.685-1.188-.158-.435-.235-.894-.235-1.378 0-.485.077-.944.235-1.383.157-.433.385-.828.685-1.188.297-.354.693-.637 1.188-.845.495-.208 1.053-.311 1.677-.311.622 0 1.183.103 1.678.311.491.208.889.491 1.188.845.297.359.525.755.684 1.188.159.438.235.897.235 1.383 0 .484-.076.943-.235 1.378-.158.438-.387.834-.684 1.188-.3.357-.697.636-1.188.844m-2.92-1.907c.338.354.752.529 1.242.529s.905-.176 1.244-.529c.339-.361.51-.86.51-1.503 0-.645-.171-1.145-.51-1.502-.339-.354-.754-.531-1.244-.531s-.904.178-1.242.531c-.338.357-.509.857-.509 1.502 0 .642.171 1.141.509 1.503M186.049 70.341c-.491.21-1.054.315-1.676.315-.624 0-1.184-.105-1.678-.315-.494-.208-.889-.486-1.188-.844-.301-.354-.527-.751-.686-1.188-.157-.435-.235-.894-.235-1.378 0-.485.078-.944.235-1.383.158-.433.385-.828.686-1.188.299-.354.693-.637 1.188-.845s1.054-.311 1.678-.311c.622 0 1.185.103 1.676.311.494.208.891.491 1.188.845.3.359.526.755.684 1.188.158.438.236.897.236 1.383 0 .484-.078.943-.236 1.378-.157.438-.384.834-.684 1.188-.298.357-.694.636-1.188.844m-2.918-1.907c.337.354.751.529 1.242.529.488 0 .904-.176 1.24-.529.342-.361.51-.86.51-1.503 0-.645-.168-1.145-.51-1.502-.336-.354-.752-.531-1.24-.531-.491 0-.905.178-1.242.531-.34.357-.51.857-.51 1.502 0 .642.17 1.141.51 1.503M189.516 70.452v-7.046h1.976v2.96l2.121-2.96h2.318l-2.678 3.411 2.748 3.635h-2.467l-2.042-3.029v3.029zM196.97 70.452v-7.046h1.971v2.536h2.397v-2.536h1.973v7.046h-1.973v-2.818h-2.397v2.818zM204.278 70.452l2.506-7.046h2.396l2.51 7.046h-2.115l-.395-1.215h-2.396l-.393 1.215h-2.113zm3.703-5.364l-.807 2.596h1.613l-.806-2.596zM216.39 70.452V65.1h-1.55v-1.694h5.072V65.1h-1.547v5.352zM226.171 70.341c-.495.21-1.051.315-1.677.315s-1.182-.105-1.678-.315c-.49-.208-.889-.486-1.186-.844-.301-.354-.527-.751-.688-1.188-.155-.435-.233-.894-.233-1.378 0-.485.078-.944.233-1.383.16-.433.387-.828.688-1.188.297-.354.695-.637 1.186-.845.496-.208 1.052-.311 1.678-.311s1.182.103 1.677.311.89.491 1.188.845c.299.359.528.755.686 1.188.155.438.236.897.236 1.383 0 .484-.081.943-.236 1.378-.157.438-.387.834-.686 1.188-.298.357-.693.636-1.188.844m-2.919-1.907c.337.354.753.529 1.242.529.49 0 .904-.176 1.242-.529.34-.361.51-.86.51-1.503 0-.645-.17-1.145-.51-1.502-.338-.354-.752-.531-1.242-.531-.489 0-.905.178-1.242.531-.34.357-.511.857-.511 1.502 0 .642.171 1.141.511 1.503M230.414 63.406h5.356v7.046h-1.972V65.1h-1.41v2.774c0 .263-.008.489-.024.677-.019.189-.076.419-.17.691-.101.27-.232.49-.399.66-.166.176-.419.325-.758.449-.334.129-.737.191-1.207.191-.313 0-.588-.028-.824-.091v-1.689c.176.049.319.071.432.071.403 0 .667-.12.79-.358.127-.236.187-.634.187-1.182v-3.887zM237.441 70.452v-7.046h1.975v2.748h1.037c1.845 0 2.768.717 2.768 2.146 0 1.437-.923 2.152-2.768 2.152h-3.012zm1.975-1.406h.847c.321 0 .565-.057.735-.172.166-.115.251-.308.251-.574 0-.269-.083-.458-.247-.567-.165-.113-.41-.168-.739-.168h-.847v1.481zM244.542 70.452v-7.046h1.971v2.96l2.124-2.96h2.317l-2.679 3.411 2.748 3.635h-2.467l-2.043-3.029v3.029zM257.143 70.341c-.493.21-1.053.315-1.677.315-.626 0-1.184-.105-1.68-.315-.491-.208-.887-.486-1.186-.844a3.8449 3.8449 0 0 1-.686-1.188c-.157-.435-.236-.894-.236-1.378 0-.485.079-.944.236-1.383.156-.433.387-.828.686-1.188.299-.354.694-.637 1.186-.845.496-.208 1.054-.311 1.68-.311.624 0 1.184.103 1.677.311s.888.491 1.188.845c.297.359.526.755.684 1.188.158.438.235.897.235 1.383 0 .484-.077.943-.235 1.378-.157.438-.387.834-.684 1.188-.301.357-.695.636-1.188.844m-2.92-1.907c.336.354.75.529 1.243.529.488 0 .904-.176 1.242-.529.337-.361.51-.86.51-1.503 0-.645-.173-1.145-.51-1.502-.338-.354-.754-.531-1.242-.531-.493 0-.907.178-1.243.531-.339.357-.512.857-.512 1.502 0 .642.173 1.141.512 1.503M262.726 63.406h2.324l1.38 2.96 1.125-2.96h2.146l-3.169 7.046h-2.118l.958-1.943zM273.417 70.452v-7.046h1.976v2.536h2.396v-2.536h1.969v7.046h-1.969v-2.818h-2.396v2.818zM280.728 70.452l2.508-7.046h2.396l2.506 7.046h-2.113l-.393-1.215h-2.396l-.395 1.215h-2.113zm3.705-5.364l-.805 2.596h1.609l-.804-2.596zM294.3 68.129v2.004c-.513.348-1.146.523-1.905.523-1.058 0-1.924-.342-2.595-1.026-.673-.688-1.008-1.584-1.008-2.699 0-1.136.345-2.039 1.038-2.712.689-.677 1.535-1.013 2.535-1.013.732 0 1.376.187 1.935.563v2.043c-.483-.563-1.039-.847-1.671-.847-.538 0-.972.192-1.309.576-.329.382-.495.863-.495 1.449 0 .551.163 1.004.486 1.363.327.359.765.536 1.317.536.618.002 1.175-.249 1.672-.76"/></svg>