<svg xmlns="http://www.w3.org/2000/svg" width="64" height="70" fill="none">
  <path fill="#0068B5" d="M0 32.04L32.04 0 64 32.04l-2.98 2.98L64 38.01 32.04 69.97 0 38.01l2.98-2.99L0 32.04z"/>
  <path fill="#0068B5" d="M1.9072 38.0109L31.9734 7.9447 62.0396 38.011 31.9734 68.0771 1.9072 38.0109z"/>
  <path fill="#fff" d="M32 68.51L1.46 38 32 7.5 62.47 38 32 68.51zM2.33 38L32 67.64 61.6 38 32 8.37 2.33 38z"/>
  <path fill="#0068B5" d="M1.9057 32.0395L31.972 1.9733l30.0662 30.0662-30.0662 30.0661L1.9057 32.0395z"/>
  <path fill="#fff" d="M32 62.54L1.46 32 32 1.53 62.47 32 32 62.54zM2.33 32L32 61.67 61.6 32 32 2.4 2.33 32z"/>
  <path fill="#0068B5" d="M7.7513 32.1261L31.9485 7.9289l24.2467 24.2467L31.998 56.3728 7.7513 32.1261z"/>
  <path fill="#fff" d="M32 56.79L7.28 32.11 32 7.43l24.65 24.68L32 56.79zM8.15 32.11L32 55.92l23.77-23.81L32 8.37 8.15 32.11z"/>
  <path fill="#fff" d="M10.12 24.76h43.76v14.27H10.12V24.76z"/>
  <path fill="#0068B5" d="M18.06 38.08l3.64-12.23h-3.86s-1.24 5.24-1.38 6.26c-.15-1-1.24-6.26-1.24-6.26h-3.79l3.06 12.23h3.57zM23.08 38.08h6.7v-2.91h-3.06v-1.9h2.26v-2.91h-2.26v-1.67h3.06v-2.92h-6.7v12.31zM41.79 38.08l-3.2-6.41 2.84-5.9h-3.79l-1.96 4.37h-.08.08v-4.37h-3.57v12.31h3.57v-4.81l2.25 4.81h3.86zM46.74 33.42l.51-2.4c.15-.8.22-1.53.36-2.33.07.73.15 1.53.29 2.33l.36 2.4h-1.52zm5.9 4.66L49.8 25.85h-4.37l-3.2 12.23h3.71l.29-1.6h2.4l.29 1.6h3.72z"/>
</svg>
