<svg xmlns="http://www.w3.org/2000/svg" width="1000.046" height="323.653"><path fill="#00579f" d="M433.3523 318.9838h-81.0108l50.67-313.3047h81.0063zM727.0234 13.3385C711.0445 6.9992 685.7007-.0001 654.3631-.0001c-80.0007 0-136.3365 42.6605-136.682 103.6523-.6645 44.9995 40.3348 69.9934 70.999 84.9977 31.342 15.332 41.996 25.3394 41.996 39.0058-.319 20.9892-25.326 30.6642-48.6498 30.6642-32.3432 0-49.6732-4.9881-76.0093-16.6655l-10.6674-5.0059-11.3363 70.3301c19.0002 8.6562 54.0057 16.3377 90.3491 16.6744 85.0022 0 140.3413-42.0005 140.9969-106.997.3234-35.6655-21.3258-62.994-68-85.3254-28.334-14.3354-45.6861-24.0016-45.6861-38.6692.3322-13.3342 14.6764-26.9917 46.6608-26.9917 26.336-.669 45.6862 5.6615 60.345 11.9963l7.327 3.3269 11.0174-67.6544zM834.6936 207.991c6.6716-17.9989 32.3432-87.66 32.3432-87.66-.3367.6689 6.6582-18.3312 10.6585-29.9953l5.6615 26.9962s15.341 74.9948 18.6723 90.6592h-67.3355zM934.6912 5.6792h-62.6618c-19.3235 0-34.0044 5.6615-42.3416 25.995L709.3567 318.9794h85.0021s13.9943-38.6692 17.0022-46.9975h104.0111c2.3258 10.9996 9.6662 46.9975 9.6662 46.9975h75.0082L934.6912 5.679zm-650.0129-.0001L205.342 219.3229l-8.6695-43.3294C182.005 125.9969 136.0043 71.6767 84.67 44.6672l72.6691 273.9844h85.6666L370.3405 5.679h-85.6622z"/><path d="M131.6718 5.6791H1.3334L0 12.0095c101.672 25.9995 169.0075 88.6702 196.6726 163.9972l-28.334-143.9915c-4.6648-20.0101-19.0001-25.676-36.6668-26.3361z" fill="#faa61a"/></svg>