<svg xmlns="http://www.w3.org/2000/svg" width="60" height="60" viewBox="0 0 60 60"><path fill="none" d="M30 2C14.6 2 2 14.6 2 30s12.6 28 28 28h1V30h27C58 14.5 45.4 2 30 2zm1 29c0 .6-.4 1-1 1H14c-.6 0-1-.4-1-1s.4-1 1-1h15V7c0-.6.4-1 1-1s1 .4 1 1v24z"/><path d="M30.8 8.9c0-.5-.3-.8-.8-.8s-.8.3-.8.8v21.4h-19c-.5 0-.8.3-.8.8s.3.8.8.8H30c.5 0 .8-.3.8-.8V8.9zM35.5 42.5h1.3V41c0-2.4 1.1-3.8 3.1-3.8 2.1 0 3.1 1.3 3.1 4 0 3.3-1.9 5.3-3.7 7.3-1.9 2.1-3.8 4.1-3.8 7.5v1.4h8.8v-1.7H37v-.3c0-2.6 1.7-4.4 3.5-6.4 2-2.2 4-4.4 4-7.8 0-3.4-1.5-5.1-4.5-5.1s-4.5 1.7-4.5 5.1v1.3zM57.5 51.8h-1.6V36.4H54l-6.7 15V53h7.1v4.5h1.4V53h1.7v-1.2zm-3.1-.1h-5.6l5.6-13v13z"/><path d="M30 .2C13.6.2.3 13.6.3 30c0 16 12.5 29 28.4 29.7v-1.5C13.5 57.5 1.8 45.1 1.8 30 1.8 14.4 14.4 1.7 30 1.7c15.5 0 28.1 12.5 28.2 28h1.5C59.6 13.5 46.3.2 30 .2z"/></svg>