<svg xmlns="http://www.w3.org/2000/svg" width="512" height="512" viewBox="0 0 512 512"><path d="M352.4 272.9c23.8-17.2 38-45 38.1-74.4v-134c0-2.6-1.5-4.9-3.9-6l-128-56c-.8-.4-1.7-.5-2.6-.5s-1.8.2-2.6.5l-128 56c-2.4 1-3.9 3.4-3.9 6v134c0 29.4 14.3 57.2 38.1 74.4l88.5 63.8c4.8 3.5 11.2 3.5 16 0l88.3-63.8zm-185.3-10.6c-20.4-14.8-32.6-38.6-32.7-63.8V68.8l121.5-53.2 121.5 53.2v129.7c0 25.2-12.2 49-32.7 63.8l-88.8 64.1-88.8-64.1z"/><path d="M155.5 86.9v111.7c0 18.4 9 35.9 23.9 46.7l72.7 52.4c2.3 1.6 5.4 1.6 7.6 0l72.7-52.4c14.9-10.8 23.9-28.3 23.9-46.7V86.9c0-2.6-1.5-4.9-3.9-6l-93.9-41.1c-1.7-.7-3.6-.7-5.2 0l-93.9 41.1c-2.4 1-3.9 3.4-3.9 6zm13.1 4.2l87.3-38.2 87.3 38.2v107.4c0 14.3-6.9 27.8-18.5 36.1l-68.8 49.7-68.8-49.7c-11.6-8.4-18.5-21.9-18.5-36.1V91.1zM119.4 510h93.9c8.3 0 15.1-6.8 15.1-15.1v-68.3c0-8.3-6.8-15.1-15.1-15.1h-2v-17.9c.3-19.7-6.2-39.1-18.3-54.7-7-9.3-16.6-16.2-27.5-20.1h-.1c-18.2-7.7-34.8-18.3-49.4-31.7-12.7-10.4-30.5-11.4-44.2-2.3l-2 1.3L50.3 241c-3.6-8.2-11.4-13.9-20.3-14.9-.9-.1-1.8-.1-2.7-.1-8 0-15.6 3.8-20.4 10.3-5.3 7.2-6.3 16.8-2.7 25.1l33.4 73.5c4.4 9.8 10.5 18.6 18.1 26.2l54 54-1.3 1.4c-2.6 2.8-4.1 6.4-4.1 10.2V495c0 8.2 6.8 15 15.1 15zm95.8-85.3V497h-97.9v-72.3h97.9zM65 351.8c-6.5-6.5-11.7-14-15.5-22.3l-33.4-73.6c-1.7-3.8-1.4-8.1.8-11.6s6.1-5.6 10.2-5.6c4.9 0 9.2 2.9 11.2 7.4l19.1 44.5c5 11.7 12.1 22.2 21.1 31.2l39 39c1.7 1.7 4.1 2.4 6.4 1.8 2.3-.6 4.1-2.4 4.7-4.7.6-2.3-.1-4.7-1.8-6.4l-39-39c-4-4-7.6-8.4-10.8-13.1l-1-1.6 1.5-1.1c9-6.9 21.4-6.7 30.1.5l.1.1c15.8 14.5 33.9 26 53.8 34.1 8.5 3.1 15.9 8.6 21.4 15.8 10.2 13.3 15.6 29.8 15.4 46.5v17.8h-73.4L65 351.8z"/><path d="M187.6 454.3h-8.5c-3.6 0-6.5 2.9-6.5 6.5s2.9 6.5 6.5 6.5h8.5c3.6 0 6.5-2.9 6.5-6.5s-2.9-6.5-6.5-6.5zM474.2 334.9l33.4-73.6c3.8-8.3 2.9-18-2.5-25.3-5.3-7.4-14.2-11.3-23.3-10.3-9 1-16.8 6.9-20.4 15.2L442 286.1l-2-1.3c-13.8-9.1-31.6-8.1-44.3 2.4-14.6 13.4-31.2 24-49.4 31.7h-.1c-11 3.9-20.5 10.8-27.5 20.1-12.1 15.6-18.6 35-18.3 54.7v17.9h-2c-8.3 0-15.1 6.8-15.1 15.1V495c0 8.3 6.8 15.1 15.1 15.1h93.9c8.3 0 15.1-6.8 15.1-15.1v-68.3c0-3.8-1.5-7.5-4.1-10.2l-1.3-1.4 54-54c7.7-7.6 13.7-16.4 18.2-26.2zm-79.8 162h-97.9v-72.3h97.9v72.3zm52.4-145.1L387 411.6h-73.4v-17.9c-.3-16.7 5.2-33.2 15.4-46.4 5.4-7.3 12.8-12.8 21.4-15.9 19.8-8.1 38-19.5 53.8-34.1 8.8-7.3 21.2-7.6 30.3-.7l1.5 1.1-1 1.6c-3.2 4.7-6.8 9.2-10.8 13.2l-39 39c-2.4 2.5-2.4 6.6.1 9.1s6.6 2.5 9.2.1l39-39c9-9 16.1-19.5 21.1-31.2l19.1-44.5c1.9-4.5 6.3-7.4 11.2-7.4 4.1 0 8 2.1 10.2 5.6 2.2 3.5 2.6 7.8.8 11.6l-33.4 73.6c-4 8.4-9.2 15.9-15.7 22.4z"/><path d="M332.7 454.3h-8.5c-3.6 0-6.5 2.9-6.5 6.5s2.9 6.5 6.5 6.5h8.5c3.6 0 6.5-2.9 6.5-6.5s-2.9-6.5-6.5-6.5zM244.3 217l68.3-102.4c1.3-1.9 1.5-4.4.4-6.5-1-2.1-3.1-3.5-5.4-3.6-2.3-.1-4.6 1-5.9 2.9L237.2 204l-28.6-21.5c-1.2-.9-2.5-1.3-3.9-1.3-2 0-4 .9-5.2 2.6-1 1.4-1.5 3.1-1.2 4.8.2 1.7 1.2 3.3 2.5 4.3l34.1 25.6c1.4 1.1 3.2 1.5 5 1.2 1.8-.2 3.4-1.3 4.4-2.7z"/></svg>