<svg xmlns="http://www.w3.org/2000/svg" width="210" height="71" viewBox="0 0 210 71"><path fill="#fff" stroke="#000" d="M.7112-.0012h48.7894v48.7908H.7112z" transform="matrix(.7101 -.7041 .71238 .7018 .207 36.5004)"/><path fill="#040405" d="M210 12H11v48h199V12z"/><path fill="#fff" d="M153.955 51v-3.2278h-9.58V51h-2.512v-5.5467h1.504a5.1082 5.1082 0 0 0 1.038-3.43l.908-17.7923h9.412v21.2214h1.776v5.5467L153.955 51zm-7-9.0116c-.101 1.681-.336 2.6902-1.07 3.4631h6.196V26.6214h-4.354l-.772 15.367zM160.252 29.918c0-3.5982 1.776-5.918 5.36-5.918 3.618 0 5.392 2.3198 5.392 5.918v12.1722c0 3.5642-1.775 5.918-5.392 5.918-3.584 0-5.36-2.3538-5.36-5.918V29.918zm2.579 12.3064c0 2.1525.905 3.3996 2.781 3.3996 1.909 0 2.78-1.2444 2.78-3.3996V29.7829c0-2.1185-.871-3.3996-2.78-3.3996-1.873 0-2.781 1.2775-2.781 3.3996v12.4415zM183.8 47.7389h-2.512l-3.886-18.729v18.763h-2.277V24.2317h3.651l3.852 18.7961 3.721-18.7961H190v23.5376h-2.483V28.8417L183.8 47.7389zM31 29.9157C31 26.3189 32.7755 24 36.3594 24c3.6178 0 5.3923 2.3189 5.3923 5.9157v12.1686c0 3.5628-1.7754 5.9157-5.3923 5.9157C32.7755 48 31 45.6471 31 42.0843V29.9157zm2.5789 12.3018c0 2.1517.9042 3.3983 2.7805 3.3983 1.9092 0 2.7804-1.2439 2.7804-3.3983V29.7807c0-2.1177-.8712-3.3983-2.7804-3.3983-1.8727 0-2.7805 1.277-2.7805 3.3983v12.4368zM56.2559 29.9157v2.1177h-2.479v-2.2527c0-2.1177-.8374-3.3983-2.7466-3.3983-1.8727 0-2.7466 1.277-2.7466 3.3983v12.4368c0 2.1177.8713 3.3983 2.7466 3.3983 1.9092 0 2.7466-1.277 2.7466-3.3983v-3.0584h2.479v2.9252c0 3.5628-1.6747 5.9157-5.2925 5.9157-3.5839 0-5.2613-2.3529-5.2613-5.9157V29.9157c0-3.5628 1.6747-5.9157 5.2613-5.9157 3.6178 0 5.2925 2.352 5.2925 5.9157zM63.8928 47.7639V26.6212h-4.3214v-2.386H70.826v2.386h-4.3204v21.1427h-2.6128zM82.7843 34.6546v2.3528h-5.7276v8.3697h7.034v2.3868h-9.6468V24.2352h9.6468v2.386h-7.034v8.0334h5.7276zM92.1637 37.5458l-1.3733 2.3198v7.8992h-2.6128V24.2352h2.6128v11.3575l6.2297-11.3575h2.6458l-5.9283 10.7225 6.1298 12.8062h-2.6752l-5.0285-10.2181zM108.543 26.6212l-.535 15.2923c-.134 3.731-1.139 5.8486-4.726 5.8826h-.435v-2.385c2.177 0 2.546-1.109 2.613-3.3608l.636-17.8142h9.546v23.5287h-2.613V26.6212h-4.486zM126.295 36.8393l-3.483 10.9246h-2.713V24.2352h2.312v17.5459l2.407-7.4288 3.417-10.1171h2.914v23.5287h-2.345V29.0411l-2.509 7.7982z"/></svg>