<svg xmlns="http://www.w3.org/2000/svg" width="489" height="489" viewBox="0 0 489 489"><path d="M282.2 148.8V75.7c0-39-31.8-70.8-70.8-70.8h-15.7c-39 0-70.8 31.8-70.8 70.8v73.1c0 10.9 4.7 21.3 13 28.5l1.7 1.5v66.8l-2.7 1.4c-16.9 8.6-60.5 32.1-101.3 65.5-9.3 7.6-14.7 19-14.7 31.1v50.1c0 2.7 2.2 4.9 4.9 4.9s4.9-2.2 4.9-4.9v-50.1c0-9.2 4.1-17.8 11.1-23.6 44.8-36.9 93.7-61.5 103.1-66.1 2.8-1.4 4.6-4.2 4.6-7.3v-70.5c0-1.6-.8-3.1-2.2-4-7.8-5.2-12.5-13.9-12.5-23.4v-73c0-33.6 27.4-61 61-61h15.6c33.6 0 61 27.4 61 61v73.1c0 9.4-4.7 18.1-12.5 23.4-1.4.9-2.2 2.4-2.2 4v70.5c0 2.7 2.2 4.9 4.9 4.9s4.9-2.2 4.9-4.9v-67.9l1.7-1.5c8.3-7.2 13-17.6 13-28.5z" class="st0"/><path d="M231.3 457.4l-7.7-169.3 1.4-1.5c5-5.4 7.7-12.4 7.7-19.6 0-2.7-2.2-4.9-4.9-4.9s-4.9 2.2-4.9 4.9c0 5.3-2.3 10.5-6.2 14.2l-.6.5c-.3.2-.7.5-.9.8l-.2.1-.7.5c-3.3 2.1-6.9 3.2-10.7 3.2-10.6 0-19.3-8.7-19.3-19.3 0-2.7-2.2-4.9-4.9-4.9s-4.9 2.2-4.9 4.9c0 6.7 2.2 13 6.4 18.2l1.2 1.5v.8l-7.3 170.4c0 1.4.6 2.9 1.7 3.9l23.2 21c.9.8 2.1 1.3 3.2 1.3 1.2 0 2.3-.4 3.2-1.2l23.7-21.4c1-1.2 1.5-2.6 1.5-4.1zm-28.5 15L184.6 456v-.9l6.9-160.8 5.8 1.3c2.1.4 4.2.7 6.2.7 1.5 0 3.1-.1 5-.4l5.5-.9 7.3 160.9-18.5 16.5zM440 273.2c-18-18-42-27.9-67.6-27.9-25.5 0-49.5 9.9-67.6 27.9-33.9 33.9-37.4 88.1-8.1 125.9l2 2.6-1.5 2.9c-3.9 7.3-8.6 12.4-13.9 15.1-3.4 1.7-5.2 5.2-4.6 8.9.6 3.6 3.4 6.5 7.1 7.1 2.1.3 4.3.5 6.7.5 10.8 0 22.2-3.5 32.1-9.7l2.4-1.5 2.5 1.3c13.3 6.7 28.2 10.2 43.1 10.2 25.5 0 49.5-9.9 67.6-27.9 18-18 27.9-42 27.9-67.6-.2-25.7-10.2-49.8-28.1-67.8zm-7 128.2c-16.2 16.2-37.7 25.1-60.6 25.1-15.3 0-30.3-4.1-43.4-11.8-1.9-1-3.9-.9-5.5.3-4.8 3.8-10.3 6.7-16.3 8.7l-14.8 4.9 9.1-12.6c2.8-3.8 5.2-8.3 7.3-13.2.8-1.8.4-3.8-.8-5.2-29.9-33.8-28.3-85.4 3.6-117.5 16.2-16.2 37.7-25.1 60.6-25.1 22.8 0 44.4 8.9 60.6 25.1 16.2 16.1 25.1 37.6 25.1 60.6.2 23-8.7 44.5-24.9 60.7z" class="st0"/><circle cx="372.4" cy="340.8" r="6" class="st0"/><circle cx="410.8" cy="340.8" r="6" class="st0"/><circle cx="333.9" cy="340.8" r="6" class="st0"/></svg>