<svg xmlns="http://www.w3.org/2000/svg" width="338" height="358.6" viewBox="0 0 338 358.6"><path d="M208.4 306.6c30.9-6.5 53.3-34.1 53.4-65.6 0-14.4.1-29.8 0-50 0-10.2-8.4-18.7-18.7-18.9-4.1-.1-7.9 1.1-12.1 3.6l-1.4.9-.1-1.6c-.6-8.5-4.5-14.4-11.7-17.5-7-3.1-13.9-2.1-20.6 3l-1 .8-.5-1.2c-2.7-6.2-6.9-10-12.8-11.6-5.8-1.7-11.4-.7-17 3l-1.5 1v-14.3-27.6c0-2.1-.3-4-.7-5.7-2.6-9.2-11.5-15-21.1-13.8-9.5 1.2-16.7 9.4-16.7 19.1v74.1l-1.6-1.4c-.9-.7-1.7-1.5-2.5-2.2-1.6-1.4-3.2-2.7-4.7-4-6.6-5.3-13.9-10.6-23-12.3-5.1-1-10.5.7-14 4.2-3.4 3.5-4.6 8.2-3.5 13.4 1.3 6.1 3.9 11.9 8.4 19 3.1 4.9 6.4 9.9 9.6 14.7 3.3 5 6.7 10.1 9.9 15.2 3.7 5.9 7.3 11.9 10.9 17.7 4.6 7.5 9.3 15.3 14.1 22.8 11.6 18 27 29.6 45.9 34.5 2.6.7 5.4 1.2 8 1.6 1.2.2 2.5.4 3.7.7h13.5c.8-.2 1.7-.3 2.5-.5 1.6-.4 3.5-.7 5.3-1.1zm-15.6-4.6c-1 0-2 0-3-.1-17.3-.8-33.7-8.6-45-21.3-4.4-5-8.4-10.2-11.8-15.4-13.7-21.2-27.2-42.8-39.9-62.9-2.5-3.9-4.7-8.1-6.8-12.1-.5-.9-1-1.9-1.5-2.8-.8-1.4-1.3-3-1.7-4.7-.9-3.2-1.5-6.8 1.4-9.8 2.8-2.8 6.6-3.5 10.5-1.9 4.1 1.7 8.8 3.6 12.5 6.6 5.9 4.8 11.6 10.1 17.2 15.2 2.2 2 4.3 4 6.5 5.9.3.2.5.5.8.8v-23.3-64.9c0-7 3.8-12.2 9.8-13.8 4-1 8.2-.2 11.3 2.2 3.2 2.5 5.1 6.4 5.2 10.8.1 6.1.1 12.3 0 18.3v65.5h6.1v-1.7-7.6-17.7c.1-6.9 4.5-12.1 11.4-13.3 5.8-1 12.1 2.9 14 8.7.5 1.6.8 3.4.8 5.5.1 4.3.1 8.6.1 12.9v5.1h6.1v-2.8-8.4c.2-6.5 4.5-11.5 11-12.8 5.6-1.1 11.7 2.1 14 7.5 1 2.4 1.2 4.8 1.3 6.5.1 4.6.1 9.2.1 13.7v4.4h6c0-.3 0-.6.1-1 .1-1.4.1-2.9.4-4.4 1.3-6.6 7.2-11.2 13.6-10.7 7 .5 12.3 6 12.3 12.8 0 4.1 0 8.1.1 12.2.1 14.4.2 29.3-.7 43.9-.9 13.9-7.6 26.9-20 38.4-11.4 10.7-26.3 16.5-42.2 16.5zM93.4593 76.3731l3.8998-4.8199 23.7885 19.2474-3.8998 4.82z"/><path d="M113.3 124.8l-1.5-6.1-29.7 6.9 1.4 6.1zM178.4 118.7l-1.3 6.1 29.7 6.9 1.4-6.1zM196.8 76.4l-3.9-4.9-23.7 19.3 3.9 4.8zM142.2 50.5h5.9v30.1h-5.9z"/></svg>