<svg xmlns="http://www.w3.org/2000/svg" width="512" height="512" viewBox="0 0 512 512"><path d="M504.5 500h-26.1V394.7l.5-.4c4.8-4.2 7.5-10.2 7.5-16.5 0-12.1-9.9-22-22-22h-50.5l-7.7-122.6c-.2-3.2-2.8-5.6-6-5.6h-32.1c-3.2 0-5.8 2.5-6 5.6l-7.7 122.6h-20.8l-7.7-122.6c-.2-3.2-2.8-5.6-6-5.6h-32.1c-3.2 0-5.8 2.5-6 5.6l-7.7 122.6h-20.8L246 233.1c-.2-3.2-2.8-5.6-6-5.6h-32.1c-3.2 0-5.8 2.5-6 5.6l-7.7 122.6h-23.8v-1.5l-4.6-209.1c-.1-3.2-2.8-5.9-6-5.9h-48.1c-3.2 0-5.9 2.6-6 5.9l-5.4 242.6H39.6c-12.1 0-22 9.9-22 22 0 6.3 2.7 12.3 7.5 16.5l.5.4V500h-18c-3.3 0-6 2.7-6 6s2.7 6 6 6h497c3.3 0 6-2.7 6-6s-2.8-6-6.1-6zM99.6 419.8h-28c-3.3 0-6 2.7-6 6s2.7 6 6 6h27.7L97.8 500H37.5v-68.2h2c3.3 0 6-2.7 6-6s-2.7-6-6-6c-5.5 0-10-4.5-10-10s4.5-10 10-10H100l-.4 20zm274.3-180.3h20.8l7.3 116.3h-35.3l7.2-116.3zm-80.2 0h20.8l7.3 116.3h-35.3l7.2-116.3zm-80.2 0h20.8l7.3 116.3h-35.3l7.2-116.3zM129.8 500h-19.9v-1.5l7.7-347.2H154v1.5l4.5 203h-14.7c-12.1 0-22 9.9-22 22 0 6.3 2.7 12.4 7.5 16.5l.5.4V500zm334.6-112.2h-16c-3.3 0-6 2.7-6 6s2.7 6 6 6h18V500H141.8V399.7h274.6c3.3 0 6-2.7 6-6s-2.7-6-6-6H143.8c-5.5 0-10-4.5-10-10s4.5-10 10-10h320.6c5.5 0 10 4.5 10 10 .1 5.6-4.4 10.1-10 10.1zM335.2 147.3l1.1-.4.6 1c17.4 27.2 47.1 43.4 79.3 43.4 51.9 0 94.2-42.2 94.2-94.2 0-51.9-42.2-94.2-94.2-94.2-22 0-43.5 7.8-60.4 22l-.9.8-1-.7c-12.2-9.2-26.7-14-42-14-18.5 0-35.9 7.2-49.1 20.1l-.7.7-.9-.4c-6.7-2.9-14.1-4.4-21.4-4.4-21.5 0-40.9 12.7-49.5 32.4l-.5 1.2-1.3-.4c-2.9-.8-5.8-1.2-8.8-1.2-14.6 0-27.5 9.3-32.2 23.2l-.4 1.1-1.2-.1c-.8-.1-1.6-.1-2.3-.1-12.1 0-22 9.9-22 22 0 3.3 2.7 6 6 6s6-2.7 6-6c0-5.5 4.5-10 10-10 1.8 0 3.5.5 5.1 1.5 1.8 1.1 4 1.1 5.9.2 1.8-1 3.1-2.9 3.2-4.9.7-11.6 10.3-20.7 21.9-20.7 3.7 0 7.3 1 10.7 2.9 1.6.9 3.6 1 5.3.3 1.7-.7 3-2.2 3.5-4 5-18.5 21.7-31.4 40.8-31.4 7.2 0 14.4 1.9 20.7 5.5 2.5 1.4 5.6.9 7.5-1.3 11.1-12.8 27.1-20.2 44-20.2 14.4 0 28.3 5.4 39 15.2 2.3 2.1 5.9 2.1 8.2-.1 15.4-14.9 35.7-23 57-23 45.3 0 82.2 36.9 82.2 82.2s-36.9 82.2-82.2 82.2c-30.1 0-57.7-16.4-72.2-42.9-1.5-2.8-4.9-3.9-7.8-2.6-7.7 3.6-15.9 5.4-24.3 5.4-16.9 0-32.9-7.4-44-20.2-1.9-2.2-5-2.7-7.5-1.3-6.3 3.6-13.5 5.5-20.7 5.5-13.1 0-25.3-6-33.4-16.5-1.1-1.5-2.9-2.3-4.7-2.3-1.9 0-3.6.8-4.8 2.3-4.3 5.4-10.6 8.5-17.3 8.5-3.3 0-6 2.7-6 6s2.7 6 6 6c7.6 0 14.8-2.5 20.7-7.2l1-.8.9.9c10.1 9.7 23.4 15.1 37.4 15.1 7.3 0 14.7-1.5 21.4-4.4l.9-.4.7.7c13.2 13 30.7 20.1 49.1 20.1 8.2-.1 16-1.5 23.4-4.1z"/><path d="M191.9 419.8c-3.3 0-6 2.7-6 6v16c0 3.3 2.7 6 6 6s6-2.7 6-6v-16c0-3.3-2.7-6-6-6zM223.9 419.8c-3.3 0-6 2.7-6 6v16c0 3.3 2.7 6 6 6s6-2.7 6-6v-16c0-3.3-2.7-6-6-6zM262 425.8c0-3.3-2.7-6-6-6s-6 2.7-6 6v16c0 3.3 2.7 6 6 6s6-2.7 6-6v-16zM288.1 419.8c-3.3 0-6 2.7-6 6v16c0 3.3 2.7 6 6 6s6-2.7 6-6v-16c0-3.3-2.7-6-6-6zM320.1 419.8c-3.3 0-6 2.7-6 6v16c0 3.3 2.7 6 6 6s6-2.7 6-6v-16c0-3.3-2.7-6-6-6zM352.2 419.8c-3.3 0-6 2.7-6 6v16c0 3.3 2.7 6 6 6s6-2.7 6-6v-16c0-3.3-2.7-6-6-6zM384.3 419.8c-3.3 0-6 2.7-6 6v16c0 3.3 2.7 6 6 6s6-2.7 6-6v-16c0-3.3-2.7-6-6-6zM416.3 419.8c-3.3 0-6 2.7-6 6v16c0 3.3 2.7 6 6 6s6-2.7 6-6v-16c0-3.3-2.7-6-6-6z"/></svg>