<svg xmlns="http://www.w3.org/2000/svg" width="480" height="480" viewBox="0 0 480 480"><path d="M472 2.5H8C5 2.5 2.5 5 2.5 8v157.5h11v-152h453v181h-280v11H472c1.4 0 2.7-.5 3.9-1.6 1.1-.9 1.6-2.3 1.6-3.9V8c0-3-2.5-5.5-5.5-5.5z" class="st0"/><path d="M266.5 42.5h155v11h-155zM290.5 90.5h155v11h-155zM258.5 138.5h155v11h-155zM202.8 374.5l-3.1-1.6 2.5-2.4c7.2-7 11.2-16.3 11.3-26.3.1-10-3.7-19.5-10.7-26.7-8.9-9.1-21.7-13.1-34.3-10.6l-3 .6V139.3l75-38.9c5.8-2.4 10.2-6.9 12.6-12.6 2.4-5.8 2.4-12.1-.1-17.9-2.4-5.8-6.9-10.2-12.6-12.6-5.8-2.4-12.1-2.4-17.9.1h-.1c-.1 0-.3.1-.5.2l-71.3 37 3.3-6.8c2.4-5 3.7-10.6 3.7-15.9 0-20.7-16.8-37.5-37.5-37.5S82.5 51.3 82.5 72c0 8 2.7 16 7.7 22.5l3.1 4h-5.4c-21.4.1-40.9 13.7-48.7 33.8L17.9 206c-2.2 5.8-2.1 12.1.4 17.7s7 9.9 12.9 12.2c5.5 2.1 11.5 2.1 16.8-.1 6.3-2.6 11.1-7.6 13.3-13.9l13.2-42.1V317l-4-3.1c-6.4-5-14.4-7.7-22.5-7.7-10 0-19.4 3.9-26.5 10.9-7.1 7.1-11 16.5-11 26.5s4.1 19.8 11.3 26.9l2.5 2.4-3.1 1.6C9.8 380.3 2.6 392 2.5 405v67c0 1.4.5 2.7 1.6 3.9 1 1 2.4 1.6 3.9 1.6h80c3 0 5.5-2.5 5.5-5.5v-67c0-10.7-4.8-20.5-13.3-27l-5.8-4.5h75.2l-5.8 4.5c-8.4 6.5-13.3 16.3-13.3 27v67c0 1.4.5 2.7 1.6 3.9 1 1 2.4 1.6 3.9 1.6h80c1.4 0 2.7-.5 3.9-1.6 1-1 1.6-2.5 1.6-3.9v-67c0-12.9-7.2-24.6-18.7-30.5zM48 317.2c14.6 0 26.5 11.9 26.5 26.5S62.6 370.2 48 370.2s-26.5-11.9-26.5-26.5 11.9-26.5 26.5-26.5zM82.5 405v61.5h-69V405c0-12.9 10.5-23.4 23.5-23.5h22c13 0 23.5 10.5 23.5 23.5zM120 45.5c14.6 0 26.5 11.9 26.5 26.5S134.6 98.5 120 98.5 93.5 86.6 93.5 72s11.9-26.5 26.5-26.5zm45 336h22c13 0 23.5 10.5 23.5 23.5v61.5h-69V405c0-12.9 10.5-23.4 23.5-23.5zm11-11.3c-14.6 0-26.5-11.9-26.5-26.5s11.9-26.5 26.5-26.5 26.5 11.9 26.5 26.5-11.9 26.5-26.5 26.5zM154.5 136v177.2l-1 .7c-14 10.3-18.9 29.2-11.6 45l1.6 3.6h-17.9v-136h-11v136H80.5l1.6-3.5c2.2-4.8 3.3-9.8 3.3-15V144c0-1.4-.5-2.7-1.6-3.9-1-1-2.5-1.6-3.9-1.6-2.4 0-4.5 1.6-5.3 3.9l-23.9 76c-1.1 3.2-3.3 5.7-6.3 7-2.9 1.4-6.1 1.5-9.2.4-.2-.1-.5-.2-.7-.3-.2-.1-.5-.2-.6-.3-5.7-2.9-8.2-9.8-5.7-15.7l21.4-73.7c6.2-15.9 21.1-26.2 38.2-26.3h56.7c.8 0 1.6-.2 2.6-.6l79.7-41.4c5.9-2.5 12.8.1 15.8 5.8 1.5 3.1 1.7 6.7.5 9.9-1.3 3.4-4 6-7.3 7.3L157.5 131c-1.9 1.1-3 2.9-3 5zM330.8 374.5l-3.1-1.6 2.5-2.4c7.2-7 11.2-16.4 11.3-26.4.1-10.2-3.7-19.6-10.7-26.6-7-7.2-16.4-11.2-26.4-11.3h-.5c-9.8 0-19.1 3.8-26.2 10.7-7.2 7-11.2 16.4-11.3 26.4-.1 10.2 3.7 19.6 10.7 26.6l3.2 3.1-3.1 1.6c-11.5 5.8-18.6 17.5-18.7 30.5v67c0 1.4.5 2.7 1.6 3.9.9 1.1 2.3 1.6 3.9 1.6h80c1.4 0 2.7-.5 3.9-1.6 1.1-.9 1.6-2.3 1.6-3.9v-67c0-13-7.2-24.7-18.7-30.6zm-26.8-4.3c-14.6 0-26.5-11.9-26.5-26.5s11.9-26.5 26.5-26.5 26.5 11.9 26.5 26.5-11.9 26.5-26.5 26.5zm34.5 34.8v61.5h-69V405c0-12.9 10.5-23.4 23.5-23.5h22c12.9 0 23.4 10.5 23.5 23.5zM458.8 374.5l-3.1-1.6 2.5-2.4c7.2-7 11.2-16.4 11.3-26.4.1-10.2-3.7-19.6-10.7-26.6-7-7.2-16.4-11.2-26.4-11.3h-.5c-9.8 0-19.1 3.8-26.2 10.7-7.2 7-11.2 16.4-11.3 26.4-.1 10.2 3.7 19.6 10.7 26.6l3.2 3.1-3.1 1.6c-11.5 5.8-18.6 17.5-18.7 30.5v67c0 1.4.5 2.7 1.6 3.9.9 1.1 2.3 1.6 3.9 1.6h80c1.4 0 2.7-.5 3.9-1.6 1.1-.9 1.6-2.3 1.6-3.9v-67c0-13-7.2-24.7-18.7-30.6zm-26.8-4.3c-14.6 0-26.5-11.9-26.5-26.5s11.9-26.5 26.5-26.5 26.5 11.9 26.5 26.5-11.9 26.5-26.5 26.5zm34.5 34.8v61.5h-69V405c0-12.9 10.5-23.4 23.5-23.5h22c12.9 0 23.4 10.5 23.5 23.5z" class="st0"/></svg>