<svg id="Слой_1" data-name="Слой 1" xmlns="http://www.w3.org/2000/svg" width="86px" height="86px" viewBox="0 0 99 99"><defs><style>.cls-1{fill:none;stroke:#989898;}.cls-1,.cls-2,.cls-3{stroke-miterlimit:10;}.cls-2{fill:#a3a3a3;stroke:#a3a3a3;}.cls-2,.cls-3{stroke-width:2px;}.cls-3{fill:#ff1a44;stroke:#ff1a44;}</style></defs><title>icon-colors-plastic</title><rect class="cls-1" x="0.5" y="0.5" width="98" height="98"/><path class="cls-2" d="M49.5,34.53a15,15,0,1,0,15,15A15,15,0,0,0,49.5,34.53Zm0,29.34A14.34,14.34,0,1,1,63.85,49.53,14.35,14.35,0,0,1,49.5,63.87Z"/><path class="cls-3" d="M27.81,49.23H19.92a.3.3,0,1,0,0,.6h7.89A.3.3,0,1,0,27.81,49.23Z"/><path class="cls-3" d="M79.08,48.93H71.14a.3.3,0,1,0,0,.6H79C79.5,49.53,79.5,48.93,79.08,48.93Z"/><path class="cls-3" d="M64.68,34.17l5.62-5.62a.3.3,0,1,0-.42-.42l-5.56,5.56C64,34,64.38,34.47,64.68,34.17Z"/><path class="cls-3" d="M33.79,64.41,28.23,70a.3.3,0,1,0,.42.42l5.62-5.62C34.5,64.53,34.09,64.11,33.79,64.41Z"/><path class="cls-3" d="M33.73,34.71a.3.3,0,1,0,.42-.42l-5.56-5.56a.3.3,0,1,0-.42.42Z"/><path class="cls-3" d="M64.8,64.89a.3.3,0,1,0-.42.42L70,70.92a.3.3,0,1,0,.42-.42Z"/><path class="cls-3" d="M49.21,71.16v7.89a.3.3,0,1,0,.6,0V71.16A.3.3,0,1,0,49.21,71.16Z"/><path class="cls-3" d="M49.8,27.9V19.95a.3.3,0,1,0-.6,0v7.89C49.21,28.26,49.8,28.32,49.8,27.9Z"/></svg>
