<svg id="Слой_1" data-name="Слой 1" xmlns="http://www.w3.org/2000/svg" width="86px" height="86px" viewBox="0 0 99 99"><defs><style>.cls-1{fill:none;stroke:#989898;stroke-miterlimit:10;}.cls-2{fill:#a3a3a3;}.cls-3{fill:#ff1a44;}</style></defs><title>icon-ecology-plastic</title><rect class="cls-1" x="0.5" y="0.5" width="98" height="98"/><path class="cls-2" d="M49.5,20.68C41,20.68,32.65,24,28.36,27.54a1.3,1.3,0,0,0-.45.82L24.64,50.62a1.16,1.16,0,0,0,0,.18c0,9.8,3.95,15,8.92,18.33S44.33,74.3,48.64,78a1.31,1.31,0,0,0,1.72,0c4.31-3.7,10.13-5.51,15.1-8.86s8.92-8.53,8.92-18.33a1.45,1.45,0,0,0,0-.18L71.09,28.35a1.31,1.31,0,0,0-.45-.82c-3.36-2.8-9.19-5.4-15.68-6.43a1.32,1.32,0,1,0-.41,2.6,32.62,32.62,0,0,1,14,5.59L71.76,50.8v0C71.75,59.95,68.5,63.93,64,67c-4.27,2.88-9.8,4.72-14.49,8.41C44.81,71.69,39.28,69.84,35,67c-4.51-3-7.77-7-7.78-16.12v0L30.41,29.3c3.71-2.91,11.46-6,19.09-6a1.31,1.31,0,1,0,0-2.62Z"/><path class="cls-3" d="M57.64,30.24a1.32,1.32,0,0,0-2.19.49c-1.1,3.24-5.36,6-9.66,9a32.23,32.23,0,0,0-5.91,4.93,10.24,10.24,0,0,0-2.82,6.79,11,11,0,0,0,2.07,6.73,10.14,10.14,0,0,0-3.34,5.4,1.31,1.31,0,0,0,2.48.85,1.2,1.2,0,0,0,.06-.26A7.38,7.38,0,0,1,41,60c2.3,1.72,5.42,2.56,9.17,2.56a12.07,12.07,0,0,0,9.52-5,17.71,17.71,0,0,0,3.58-10.68C63.25,41.3,61.75,34.5,57.64,30.24ZM57.6,56a9.38,9.38,0,0,1-7.45,4,13.44,13.44,0,0,1-6.87-1.56c.87-.54,1.8-1.08,2.78-1.66,3.81-2.24,8.19-5.18,9.95-11.5a1.32,1.32,0,1,0-2.54-.72c-1.52,5.47-5,7.76-8.72,9.95-1.19.7-2.39,1.39-3.54,2.15a8.17,8.17,0,0,1-1.54-5.18,7.5,7.5,0,0,1,2.17-5.07,30.61,30.61,0,0,1,5.44-4.5c3.54-2.45,7.44-4.87,9.56-8.31,2.53,3.59,3.79,8.85,3.79,13.3A15.24,15.24,0,0,1,57.6,56Z"/></svg>
