<svg id="Слой_1" data-name="Слой 1" xmlns="http://www.w3.org/2000/svg" width="86px" height="86px" viewBox="0 0 99 99"><defs><style>.cls-1{fill:none;stroke:#989898;stroke-miterlimit:10;}.cls-2{fill:#ff1a44;}.cls-3{fill:#a3a3a3;}</style></defs><title>icon-safe-plastic</title><rect class="cls-1" x="0.5" y="0.5" width="98" height="98"/><path class="cls-2" d="M41.34,57.66a10,10,0,1,1,10-10A9.94,9.94,0,0,1,41.34,57.66Zm0-18.13a8.16,8.16,0,1,0,8.16,8.16A8.13,8.13,0,0,0,41.34,39.53Z"/><path class="cls-2" d="M41.34,52.22a4.53,4.53,0,1,1,4.53-4.53A4.49,4.49,0,0,1,41.34,52.22Zm0-7.25a2.72,2.72,0,1,0,2.72,2.72A2.67,2.67,0,0,0,41.34,45Z"/><rect class="cls-2" x="32.28" y="46.78" width="2.72" height="1.81"/><rect class="cls-2" x="47.69" y="46.78" width="2.72" height="1.81"/><rect class="cls-2" x="40.43" y="38.62" width="1.81" height="2.72"/><rect class="cls-2" x="40.43" y="54.03" width="1.81" height="2.72"/><rect class="cls-2" x="34.99" y="40.89" width="1.81" height="2.72" transform="translate(-19.36 37.75) rotate(-45)"/><rect class="cls-2" x="45.88" y="51.76" width="1.81" height="2.72" transform="translate(-23.86 48.64) rotate(-45)"/><rect class="cls-2" x="45.42" y="41.33" width="2.72" height="1.81" transform="translate(-16.17 45.45) rotate(-45)"/><rect class="cls-2" x="34.55" y="52.23" width="2.72" height="1.81" transform="translate(-27.06 40.95) rotate(-45)"/><path class="cls-3" d="M77.6,71.26H21.4a3.64,3.64,0,0,1-3.63-3.63V27.74a3.64,3.64,0,0,1,3.63-3.63H77.6a3.64,3.64,0,0,1,3.63,3.63V67.63A3.64,3.64,0,0,1,77.6,71.26ZM21.4,25.93a1.82,1.82,0,0,0-1.81,1.81V67.63a1.82,1.82,0,0,0,1.81,1.81H77.6a1.82,1.82,0,0,0,1.81-1.81V27.74a1.82,1.82,0,0,0-1.81-1.81Z"/><path class="cls-3" d="M73.07,65.82H25.93a2.67,2.67,0,0,1-2.72-2.72V32.28a2.67,2.67,0,0,1,2.72-2.72H73.07a2.67,2.67,0,0,1,2.72,2.72v5.44H74V32.28a.86.86,0,0,0-.91-.91H25.93a.86.86,0,0,0-.91.91V63.1a.86.86,0,0,0,.91.91H73.07A.86.86,0,0,0,74,63.1V58.57h1.81V63.1A2.67,2.67,0,0,1,73.07,65.82Z"/><path class="cls-3" d="M77.6,44.06H72.16V36.81H77.6ZM74,42.25h1.81V38.62H74Z"/><path class="cls-3" d="M77.6,58.57H72.16V51.31H77.6ZM74,56.75h1.81V53.13H74Z"/><rect class="cls-3" x="73.98" y="43.15" width="1.81" height="9.07"/><path class="cls-3" d="M28.65,74.88A3.64,3.64,0,0,1,25,71.26V69.44h7.25v1.81A3.64,3.64,0,0,1,28.65,74.88Zm-1.81-3.63a1.81,1.81,0,1,0,3.63,0Z"/><path class="cls-3" d="M70.35,74.88a3.64,3.64,0,0,1-3.63-3.63V69.44H74v1.81A3.64,3.64,0,0,1,70.35,74.88Zm-1.81-3.63a1.81,1.81,0,1,0,3.63,0Z"/></svg>
