<svg id="Слой_1" data-name="Слой 1" xmlns="http://www.w3.org/2000/svg" width="86px" height="86px" viewBox="0 0 99 99"><defs><style>.cls-1{fill:none;stroke:#989898;}.cls-1,.cls-2,.cls-5{stroke-miterlimit:10;}.cls-2,.cls-4{fill:#a3a3a3;}.cls-2{stroke:#fff;}.cls-3{fill:#fff;}.cls-5{fill:#ff1a44;stroke:#ff1a44;}</style></defs><title>icon-warm-plastic</title><rect class="cls-1" x="0.5" y="0.5" width="98" height="98"/><path class="cls-2" d="M15.49,49.39a1.68,1.68,0,0,0,1.66,1.69l6.61.06-3.35,5.69a1.68,1.68,0,1,0,2.89,1.7l4.34-7.36,15.15.13L35.1,64.36l-8.54-.08a1.68,1.68,0,1,0,0,3.36l6.6.06-3.35,5.69a1.68,1.68,0,1,0,2.89,1.7L36,69.41l3.25,5.75A1.68,1.68,0,0,0,42.2,73.5L38,66.06,45.68,53,53.14,66.2,48.8,73.56a1.68,1.68,0,0,0,2.89,1.71L55,69.57l3.25,5.75a1.68,1.68,0,1,0,2.92-1.65L58,67.92l6.6.06a1.68,1.68,0,0,0,0-3.36l-8.54-.08L48.6,51.36l15.15.13L68,58.93a1.68,1.68,0,0,0,2.92-1.65l-3.25-5.75,6.6.06a1.68,1.68,0,0,0,0-3.36l-6.6-.06L71,42.48a1.68,1.68,0,1,0-2.89-1.7l-4.34,7.36L48.63,48,56.33,35l8.54.08a1.68,1.68,0,1,0,0-3.36l-6.6-.06,3.35-5.69a1.68,1.68,0,1,0-2.89-1.7L55.4,29.91l-3.25-5.75a1.68,1.68,0,1,0-2.92,1.65l4.21,7.44L45.74,46.3,38.28,33.11l4.34-7.36A1.68,1.68,0,0,0,39.73,24l-3.35,5.69L33.12,24a1.68,1.68,0,0,0-2.92,1.65l3.25,5.75-6.6-.06a1.68,1.68,0,1,0,0,3.36l8.54.08L42.82,48l-15.15-.13-4.21-7.44A1.68,1.68,0,0,0,20.54,42l3.25,5.75-6.61-.06A1.68,1.68,0,0,0,15.49,49.39Z"/><rect class="cls-3" x="54.03" y="22.24" width="29.48" height="49.05"/><circle class="cls-3" cx="58.6" cy="66.18" r="13.36"/><rect class="cls-4" x="69.65" y="27.89" width="9.63" height="1.62"/><rect class="cls-4" x="69.65" y="33.17" width="4.79" height="1.62"/><rect class="cls-4" x="69.65" y="38.45" width="9.63" height="1.62"/><rect class="cls-4" x="69.65" y="43.73" width="4.79" height="1.62"/><rect class="cls-4" x="69.65" y="49" width="9.63" height="1.62"/><path class="cls-5" d="M58.6,56.66a7.73,7.73,0,1,0,7.73,7.73A7.74,7.74,0,0,0,58.6,56.66Zm0,13.75a6,6,0,1,1,6-6A6,6,0,0,1,58.6,70.4Z"/><path class="cls-5" d="M63.75,52.59v-28a5.15,5.15,0,0,0-10.31,0v28a12.89,12.89,0,1,0,10.31,0Zm-5.15,23A11.18,11.18,0,0,1,47.43,64.39c0-8.35,7.73-10.63,7.73-10.63V24.61a3.44,3.44,0,0,1,6.87,0V53.75s7.73,2.38,7.73,10.63A11.18,11.18,0,0,1,58.6,75.55Z"/><path class="cls-5" d="M59.36,57.47a.9.9,0,0,1-.76,1h0a.9.9,0,0,1-.76-1V32.08a.9.9,0,0,1,.76-1h0a.9.9,0,0,1,.76,1Z"/></svg>
