<svg xmlns="http://www.w3.org/2000/svg" width="682.6667" height="682.6667" version="1" viewBox="0 0 512 512">
  <path d="M193.7 40.6c-.1.1-4.2.4-9.2.7-4.9.3-10.3.9-12 1.3-1.6.3-4.1.7-5.5.8-1.4 0-2.7.4-3 .8-.3.3-2.1.9-4 1.1-1.9.3-3.5.6-3.5.7 0 .1-1.6.6-4.7 1.3-.7.1-1.8.5-2.3.9-.6.3-2.7.9-4.8 1.3-2 .4-3.7 1.1-3.7 1.6s-.3.8-.7.8c-.5-.1-1 0-1.3.1-.3.1-1.2.3-2 .5-.8.1-4.3 1.6-7.7 3.3-4.6 2.2-6.4 2.7-7.3 1.8-.8-.8-1-.7-.5.6.4 1.1 0 1.8-1.2 2.2-1.1.3-5 2.7-8.9 5.2-3.8 2.5-7.3 4.6-7.8 4.7-.5.1-1.8 1.1-3.1 2.2-7 6.4-11.7 10-12.8 9.7-.6-.2-.9 0-.5.4 1.1 1-1.2 3.5-2.5 2.7-.6-.3-.7-.1-.3.5.4.6-.2 1.7-1.4 2.4-1.1.7-2 1.6-2 2.1 0 .4-1.2 2-2.8 3.6-1.5 1.5-3.5 4-4.6 5.4-1 1.5-2.3 2.4-2.9 2-.5-.3-.7-.1-.4.4.4.6-.2 2.1-1.3 3.3-1.1 1.3-2 2.7-2 3.1 0 1.6-4.8 7.8-5.5 7.1-.4-.4-.6 0-.4.8.3 2.1-3.8 10.7-5.5 11.3-.8.3-1.2 1.6-1.1 3.1.2 1.4-.1 2.6-.5 2.6-.9 0-3.6 7-3.2 8.4.2.5-.5.5-1.5.2-1.4-.6-1.5-.4-.6.5 1.2 1.2.6 3.9-1.1 5.1-.8.5-.7.8.1.8.6 0 .9.9.6 2-.3 1.1-.9 1.8-1.3 1.5-.5-.3-1.2 0-1.6.6-.4.8-.3.9.5.5 1.5-1 1.2 11.2-.3 13.3-.8 1.1-.8 1.3.2.7.6-.4 1.2-.3 1.2.1 0 .5-.6 1.5-1.2 2.2-1 1.1-1 1.3-.1.7.7-.4 1.3-.4 1.4.1 0 .4.2 1.8.3 3 .2 1.3-.2 2-.8 1.6-.6-.4-.4.2.5 1.3 1.5 1.8 1.8 3.1 2 7.6 0 1 .4 1.8 1 1.8 1.4 0 1.1 3.7-.3 4.4-.7.3-.2.3 1.2 0 1.4-.4 2.2-.3 1.8.1-.4.4 0 2.1 1 3.7 1.5 2.5 1.5 3 .2 3.9-1.3.9-1.2 1 .2.6 2.1-.7 6.9 5.3 7.7 9.8.1.5 1.1 1.9 2.2 3.1 1 1.1 1.6 2.4 1.2 2.7-.3.4-.1.7.5.7 1.9 0 1.4-2.4-.9-3.8-1.2-.7-1.9-1.6-1.6-1.8.8-.8 4.7 2.9 4.7 4.4 0 .7.4 1 1 .7.6-.3.7.1.4 1-.5 1.1-.2 1.4 1.2.8 1.2-.4 1.5-.3 1 .5-.4.7-.2 1.2.4 1.2.6 0 .9.4.6.9-.3.5.3 2 1.5 3.2l2 2.4-1.6-2.7c-1.1-1.7-1.3-2.8-.6-3.3.6-.3 1.1.1 1.1 1s.3 1.4.8 1.1c.4-.2 1.5.2 2.5.9 1.2.8 1.4 1.5.8 2-.6.3-1.1.1-1.1-.6s-.2-1-.5-.7c-.3.3-.3 1.2.1 2.1.5 1.5.7 1.5 2.2.1 1.4-1.5 1.7-1.5 2.7 0 .7.9 1.5 1.3 1.8.9.4-.3.7.2.7 1.3-.1 1.7-.2 1.7-2-.5-1.1-1.3-2-1.8-2-1.1s.8 1.9 1.8 2.6c1.4 1 2 1 3.4-.3 1.5-1.3 1.6-1.3 1.2.4-.3 1.1.2 2.5 1.2 3.4 1.6 1.3 1.6 1.2.5-.9-1-1.8-.9-2.2.3-2.2.8 0 1.8.5 2.1 1 .4.6 1.1.7 1.7.4.7-.4.8-.2.4.5-.6.9-1.2.9-2.4-.1-1.5-1.1-1.5-1.1-.5.3.7.9 1 1.9.7 2.2-.4.3.7.1 2.5-.6 3.9-1.5 6.2.2 4 2.9-1.1 1.4-1.1 1.6-.1 1 1-.6 1.3-.3 1 1-.1 1-2.9 3.2-6.1 4.9-3.2 1.8-6.6 3.8-7.5 4.6-.9.8-3.5 2.5-5.7 3.9-2.2 1.3-4.9 3.3-6 4.3-3.4 3.2-7.2 5.7-7.9 5.2-.3-.3-.4-.2-.2.1.3.3-.9 1.8-2.5 3.2-1.7 1.5-5 4.6-7.3 6.9-2.4 2.3-4.7 3.9-5.1 3.5-.5-.4-.5-.2-.1.5.3.6-.2 1.8-1.2 2.5s-2.4 2.3-3.1 3.6c-.7 1.2-1.7 2-2.3 1.6-.6-.4-.8-.3-.4.4.6 1.1-1 2.6-2.9 2.7-.5 0-.9.8-.7 1.8.2.9-.4 2-1.2 2.3-.9.3-1.3 1-1 1.5.3.5.1.9-.3.9-.5 0-1.7 1.4-2.7 3-.9 1.7-2.2 2.8-2.7 2.4-.5-.3-.8-.2-.7.3.4 1.4-1.3 5.3-2.3 5.3-.5 0-.9.5-.9 1 0 .6-1.2 2.9-2.7 5.3-1.4 2.3-2.6 4.8-2.6 5.4 0 .7-.4 1.3-.9 1.3-.4 0-.8.7-.8 1.5s-.4 1.5-.9 1.5c-.4 0-1.4 2-2.1 4.5-.7 2.5-1.7 4.8-2.1 5.1-.5.3-.9 1.6-.9 2.9 0 1.3-.5 2.7-1 3-.6.4-.8 1-.5 1.5.3.5 0 2.1-.6 3.7-.7 1.5-1.1 3.6-1 4.7.2 1-.2 1.6-.7 1.2-.5-.3-.7.6-.4 2 .3 1.6-.1 3-.9 3.5-.9.6-1 1.2-.4 1.6 1.2 1 1.8 3.3.7 3.3-.8 0-.7 13.9.2 20.2.4 2.6.1 4.7-.7 5.6-.9 1.2-.9 1.4 0 .9 1.4-.8 3.4 5.1 2.4 6.8-1 1.7-1 3.5 0 2.9.5-.3.6-1.1.3-1.7-.4-.7-.1-.7.7.1 1.2 1.1 1.1 1.6-.6 2.9-1.6 1.2-1.6 1.4-.3 1 2-.7 3.4 1 2.9 3.7-.1 1.1.2 1.6.8 1.2.6-.4 1.1 0 1.1.9 0 1.1-.5 1.5-1.5 1.1-.8-.3-1.5-.3-1.5 0 0 .2 1.1.9 2.5 1.4 1.4.5 2.5 1.7 2.5 2.5 0 .9-.4 1.4-.8 1.1-.5-.3-.9.1-.9.9 0 1.1.4 1.2 1.4.3 1-.8 1.7-.7 2.7.8.8 1 1.1 2.3.8 2.9-1 1.6-1.1 3.6-.1 2.9.5-.3.6-1.1.3-1.7-.4-.7.5-.1 1.9 1.2 1.5 1.4 2.7 3 2.7 3.7 0 .7.9 1.6 2.1 1.9 1.5.5 1.7 1 .9 2-.8.9-.6 1.4.6 1.9.9.3 1.9.5 2.2.3.4-.2 1.8.8 3.2 2.2l2.5 2.5-2.8-1.7c-1.5-1-2.7-1.3-2.7-.8 0 .9 3.4 2.5 5.5 2.6 2 .1 5 3.1 5.2 5.3.2 1.5-.1 2.1-.9 1.6-.7-.4-.8-.3-.4.4 1 1.6 1.4 1.5 2.7-.9.9-1.7.8-2-.2-1.4-.8.5-1 .4-.5-.4s1.5-.7 3.6.6c2.1 1.2 2.6 2 1.9 2.9-.7.8-.6 1.5.2 2 .8.4.9.3.5-.4s-.3-1.2.3-1.2c.5 0 1.6-.3 2.5-.6.9-.3 1.6-.1 1.6.6 0 .6-.5.8-1.1.5-.6-.4-.5.2.3 1.4.7 1.2 1.8 1.9 2.5 1.7.7-.3 1.7.3 2.3 1.2 1.1 1.5 1.1 1.5.6-.2-.5-1.3-.2-1.7.9-1.2.8.3 1.5 0 1.5-.7 0-.8.2-.9.8-.1.4.6 1.5 1 2.5.8 1-.1 2.8.8 3.9 2.1 2.3 2.6 4 2.5 3.2-.3-.4-1-.3-1.3.3-.6.4.6 2.1 1 3.6.9 1.5-.1 3 .3 3.4.8.4.6.1.7-.7.2-.9-.6-1.1-.4-.5.5.6 1 1.1.9 2.1-.4.8-1.1 1.4-1.3 1.9-.7.3.6 1.1 1.1 1.6 1.1.6 0 .7-.5.3-1.1-.4-.8-.1-.8 1.3-.1 1.3.7 2.5.7 3.8-.1 1.8-1 1.9-.9.6.7-.8.9-2 1.5-2.7 1.2-1.3-.5-1.3 1.9.1 3.1.4.4.5.3.2-.3-.4-.7 0-1.5.9-1.8 1.9-.7 3.7.2 2.9 1.4-.3.5-.1 1.1.4 1.4 1.1.7.9-1.3-.2-3.2-1-1.5.5-1.6 2.1 0 .7.7 1.2.8 1.2.4 0-.5.6-.4 1.3.2 1 .8 1.3.6 1.4-1.1.1-1.2-.1-1.7-.5-1.2-1 1.4-3.2 1.7-3.2.5 0-.6.7-1.1 1.5-1.1.8-.1 2.1-.2 2.8-.3.6-.1 2.2.9 3.5 2.2 1.2 1.4 2.2 2.1 2.2 1.6 0-.6-.5-1.5-1.1-2.1-1.3-1.3-.3-3.6 1.2-2.7.5.3.7.9.5 1.3-.3.4-.1 1.3.5 2.1.5 1 .9 1.1.9.3 0-.7.7-1 1.7-.7 1.5.5 1.5.4.3-.4-.8-.6-1.8-.8-2.2-.6-.4.3-.5-.2-.1-1.1.4-1.2.8-1.3 1.3-.5.6.9.9.9 1.3-.1s.6-1 .6-.2c.1.7.6 1.3 1.2 1.3.5 0 .7-.5.3-1.2-.4-.6-.3-.8.4-.4.6.3 1.3.2 1.6-.3.3-.5 2.2-.7 4.2-.4 2.5.3 3.4.1 3-.6-.7-1 1.4-1.6 3.9-1.1 2.7.5 6.2-.1 8.3-1.3.6-.5 1.6-.5 2.2-.2.5.3.7 0 .4-.9-.6-1.5-3.4-1.1-3.4.4 0 .5-.8.7-1.7.6-1-.2-2.2.2-2.6.8-.6.7-.7.7-.5-.2.2-.8.7-1.3 1.1-1.3.4.1 2.1-.6 3.7-1.4 1.7-.9 3-1.3 3-1 0 .3 1.1-.2 2.5-1.1 1.4-.9 2.5-1.3 2.5-.9 0 .5.8.1 1.8-.8 1.4-1.3 2.1-1.4 3-.5 1.7 1.7 4.2 1.8 4.9.2.3-.8 1-1.1 1.6-.7.6.4.7.1.2-.7-.7-1.1-1-1-1.9.1-1.5 1.9-3.3 2.1-4 .4-.3-.9 0-1.2 1-.8.7.3 1.4.1 1.4-.4 0-1.2 3.8-1.4 4.5-.2.4.5 1.1.9 1.7.9.5 0 0-.9-1.3-2-1.3-1-1.9-1.9-1.2-2 .6 0 1.5.4 1.8 1 1 1.6 2.5 1.2 2.5-.8 0-1.5-.2-1.5-1.1-.2-.9 1.3-1 1.3-.7 0 .5-1.6 5.9-5 7.1-4.3.4.2.7-.1.7-.7s.5-.8 1.1-.4c.8.4.8.9 0 1.7-1.4 1.4-1.4 2.7 0 2.7.5 0 .8-.4.4-.9-.3-.5-.1-1.2.5-1.6.6-.4.8-1.1.5-1.6-.4-.5 0-.9.7-.9.9 0 .9-.3-.2-1.1-1.2-.8-1.1-.9.5-.7 1.1.2 1.9-.2 1.8-.9-.2-.8.4-1 1.4-.6 1.1.4 1.3.8.5 1.1-.7.2-1.7 1.3-2.3 2.5-1.1 2.2-1.1 2.2 1-.1 1.2-1.2 2.7-2.2 3.4-2.2.7 0 .4-.5-.6-1.1-.9-.6-1.5-1.5-1.2-2 .4-.5 1-.7 1.5-.4.5.3 1.1.1 1.5-.5.4-.6 1.1-.8 1.6-.5.5.4.9-.1.9-.9 0-.9.4-1.6.8-1.6.5 0 2.7-1.6 5-3.6 2.3-1.9 4.2-3.2 4.2-2.8 0 .4 1.1-.5 2.5-2 1.9-2 3.1-2.6 4.8-2.1 1.9.6 2 .5.7-.6-.8-.8-1.3-1.3-1.1-1.2.2.2 1.4-.9 2.7-2.2 1.3-1.4 2.6-2.5 3-2.5.4 0-.2 1-1.4 2.3-1.6 1.7-1.8 2.6-1.1 3.7.9 1.3 1 1.3.6-.1-.3-.9.4-2.4 1.5-3.3 1.1-1 1.7-2.4 1.4-3.2-.3-.8.1-1.4 1-1.4s1.2-.5.8-1.3c-.5-.9-.4-.9.6 0 .7.6 1.9.9 2.8.6 1.1-.5 1.3-.3.7.7-.5.9-.4 1.1.4.6 1.6-1 .2-2.9-1.6-2.1-1.4.5-1.4.3 0-1.7.8-1.3 2.3-2.2 3.2-2 1.1.2 1.4-.1 1-.8-.8-1.2 2.7-5 4.5-5 .6 0 .8-.5.5-1-.3-.6.1-1 .9-1s1.7-.9 2.1-2c.3-1.1 1.9-2.9 3.6-4 2.6-1.9 2.8-2 2.3-.3-.5 1.4-.4 1.5.4.4.6-.8.8-2 .5-2.8-.3-.7.2-1.3 1.2-1.3.9 0 1.4-.3 1.2-.7-.3-.5.9-2.4 2.5-4.3 1.7-1.9 2.8-2.8 2.5-1.9-.3.9 0 1.6.7 1.6s1.2-1 1-2.3c-.1-1.5.9-3.3 3.2-5.3 3.3-3.1 5.1-4 3.9-2.1-.3.5-.1 1 .4 1 1.4 0 1.4-1.7 0-2.6-.8-.4-.5-1.1.9-1.8 1.1-.6 2.1-1.6 2.2-2.1.1-.6.6-.9 1.1-.7.5.1 1-.2 1-.8.1-.5.2-1.4.3-2 0-.5.7-1.5 1.5-2.2 1-.9 1.2-1 .7-.1-.4.7-.3 2 .2 2.9.7 1.2.9.9 1-1.5 0-1.7.9-4.2 2-5.6 1.1-1.3 1.8-3.6 1.7-5-.2-1.4.2-2.5.8-2.5.7 0 .5-.5-.3-1-1.2-.8-1-1 1-1.1 1.7-.1 2-.3.7-.6-1.2-.3-1.7-1.3-1.5-3.4.3-3.4.6-3.5 2.5-1.2 1.2 1.6 1.2 1.5.2-.9-.7-1.5-1.6-2.5-2.2-2.1-.6.3-.7.1-.3-.5.4-.7.9-2.1 1.2-3.2.2-1.1.6-3 1-4.2 2.3-9.5 2.4-10.7.8-10.1-.8.3-1.4.9-1.4 1.4 0 .4-1.8 2.6-4.1 4.9-2.2 2.2-3.8 4-3.5 4 .3 0-1.1 1.8-3.2 4-2 2.1-5.4 6-7.6 8.5-2.1 2.4-4.3 4.2-4.9 3.8-.5-.3-.7-.1-.4.4.8 1.2-5.1 8-6.5 7.5-.4-.1-.7.2-.6.7.4 1.4-20.3 21.1-21.5 20.4-.5-.3-.8-.2-.5.3.3.5 0 1.5-.8 2.2-.8.7-1.4.9-1.5.5 0-.4-.5.3-1 1.6-.6 1.5-1.4 2.1-2.5 1.7-.8-.3-1.3-.2-1 .3.6.9-2.2 2.6-3.6 2.3-.5-.1-.7.3-.5.9.1.6-.7 1.6-1.8 2.2-1.1.7-2.5 1.9-3.2 2.7-.7.8-1.3 1.2-1.3.8 0-.4-1.2.4-2.6 1.7-1.5 1.4-3 2.2-3.4 2-.4-.3-1.1.2-1.4 1.1-.4.9-.9 1.4-1.2 1.1-.3-.3-1.4.3-2.5 1.4-2.1 2.1-4.5 2.6-3.3.7.4-.7.3-.8-.5-.4-.6.4-.9 1.1-.6 1.5.2.5-1.3 1.7-3.5 2.7-2.2 1-4 2.3-4 2.8s-.8.2-1.7-.5c-1.1-1-1.4-1-.9-.1.6 1-1.1 2.2-5.4 3.7-.3.1-1.3.5-2.2.9-.9.4-2.2.8-3 1-.7.1-1.7.4-2.3.7-.9.6-5 1.6-14 3.5-1.6.4-9.1.7-16.5.7-12 0-15.7-.3-21-1.7-.8-.2-3-.7-4.7-1.1-1.9-.4-3-1.2-2.6-1.8.3-.6.1-.7-.5-.3-2.4 1.4-15.8-7.6-14.5-9.7.3-.6.2-.7-.4-.4-1.9 1.2-9.3-9.1-9.3-13 0-.7-.6-1.3-1.2-1.3-1 0-.9-.3.1-.9.9-.6 1-1 .2-1.2-.7-.3-1.3-1.1-1.4-1.9-.2-.8-.5-2-.8-2.5-.3-.6-.5-2.9-.5-5.2.1-2.2-.2-3.9-.6-3.6-.5.2-.8-.1-.8-.6 0-.6.5-1.1 1.2-1.1.9 0 .9-.3 0-1.2-.9-.9-.7-1.5.6-2.5.9-.8 1.1-1.2.5-.8-.8.4-1.3-.1-1.4-1.2 0-1-.2-2.8-.3-4.1-.2-1.6.2-2.1 1.1-1.8.7.3 1.3.1 1.3-.4 0-.6-.4-1-.8-1-.5 0-.9-.7-.9-1.5s.4-1.5.9-1.5c.4 0 .8.5.8 1.2 0 .6.3.8.7.4.5-.4.1-1.3-.8-1.9-1.3-1.1-1.3-1.8-.1-6 .9-3.2 1.7-4.5 2.5-4 .7.4.5-.2-.3-1.2-1.4-1.7-1.3-1.8.5-1.1 1.6.6 1.7.5.8-.5-.8-.7-.9-1.8-.4-2.8.5-.9 1-1.9 1-2.3.4-2 1.4-3.8 2.3-3.8.5 0 .6.6.2 1.2-.4.7-.3.9.1.5 1.3-1.1 1.5-3.8.3-3.1-.6.4-.8.1-.6-.7.3-.8 1-1.3 1.6-1.2.5.1 1.3-.4 1.6-1.3.3-.8.2-1.2-.4-.9-.6.3-1 .1-1-.4 0-.6.5-1.1 1-1.1.6 0 .9-.3.9-.8-.4-2.1.3-3.4 1.5-2.9.8.3 1.3-.1 1.3-1.1 0-3.3.3-4 1.9-4.6 1.3-.5 1.4-.4.6.7-.7.8-.8 1.8-.4 2.2.4.5.1.5-.7 0-1-.6-1.2-.4-.7.4.9 1.3 2.1.6 2.1-1.2.1-.7.6-1.1 1.1-1 .6.1 1.1-.4 1.1-1.2 0-.8-.3-1.4-.6-1.3-1.8.2-2.1-.4-.9-1.6.7-.8 2.2-2.6 3.3-4.2 1.1-1.5 4.1-5 6.8-7.7 4.2-4.5 5.2-5 4.8-2.4-.1.5.3.6.8.3s.7-1.6.4-2.9c-.5-2.2-.4-2.2 1.7.3 1.9 2.2 2 2.2 1.1.3-.6-1.2-1.1-2.6-1.1-3.1 0-1 3-.9 4.7.1.8.5 1 0 .7-1.7-.4-2.4 1.7-5.6 3.7-5.6.6 0 .7-.5.3-1.1-.5-.8-.1-.8 1.3 0 1.1.6 2.4.7 2.8.3.3-.4 1.2-.7 1.8-.7.7 0 1.1-1 .9-2.2-.2-1.2.2-2.5.9-2.9.8-.5.9-.3.4.6-.5.8-.3 1.1.6.8.8-.3 1.3-1.1 1.1-1.7-.1-.7.2-1 .7-.7.5.3 1.1-.1 1.5-.9.4-1.1 1.1-1.3 2.9-.6 1.7.7 2.4.6 2.4-.4 0-.7-.7-1.1-1.6-.8-1.3.4-1.3.3-.2-.5.8-.6 2.1-.8 2.9-.4 1.1.4 1.3.1.7-.8-.5-.9-.4-1.1.3-.6.7.4 1.2.2 1.2-.5s.3-.9.7-.6c.3.4-.2 1.6-1.2 2.7s-1.4 2-.9 2c.5 0 1.8-1.3 2.7-3 2.6-4.4 8.3-6.5 8.1-2.9-.1.9.5 1.6 1.2 1.6.9 0 1-.5.3-1.8-1.3-2.4-1.1-2.9.6-2.3.8.4 1.2 1 .9 1.5-.3.5 0 .9.5.9 1.5 0 1.4-1.3-.1-2.9-1.1-1.1-1-1.3.4-.8.9.3 2.2-.1 2.9-.9.6-.8 1.4-1.2 1.7-1 .2.3 1.4.1 2.5-.5 1.4-.8 1.8-.8 1.3 0-.4.6-.3 1.1.2 1.1.6 0 1.3-.7 1.6-1.6.3-.9 1.3-1.4 2.1-1 .8.3 1.7.1 2.1-.5.3-.6 1.2-.8 2-.5.7.3 1.6.1 1.9-.4.4-.6 1.2-1 1.8-1 .7 0 .6.4-.3 1-1.2.8-.9 1 1.3 1 1.6 0 2.6-.4 2.3-.8-.3-.5.2-.9 1-.9s1.3.6 1 1.3c-.4 1 .1 1.1 1.7.5 1.5-.6 2.5-.4 3.4.8 1.2 1.4 1.2 1.4.6-.3-.4-1.3-.3-1.7.5-1.2.6.3 1.3.2 1.6-.3.3-.5-1-.7-2.9-.5-1.9.1-3.5-.1-3.5-.6s.9-.7 2-.5c1.1.2 2.2-.1 2.6-.6.4-.6 1.3-.4 2.4.6 1.4 1.2 2 1.3 2.6.4.5-.8.3-1-.6-.4-.9.6-1.1.4-.6-.4.9-1.3 2.1-.6 2.1 1.2 0 .5.9 1.1 2.1 1.2 1.4.1 2-.4 2-1.9-.1-1.1.4-2.1 1.1-2.1.6 0 1.5-.3 1.8-.7.4-.4 1.6-.3 2.6.2 1.2.7 2 .6 2.5-.2.4-.6.3-.8-.4-.4-.6.3-1.3.2-1.7-.4-.5-.9.7-1.4 2.7-1.1.4 0 .5-.6.2-1.3-.4-1.1 0-1.3 1.8-.9 1.6.3 1.9.2.9-.5-1-.8-1.1-1.4-.1-3.2.8-1.5 1.4-1.9 1.9-1.1.6.9 1.1.8 2.1-.4 1.1-1.3 1-1.5-.4-.9-1.1.4-1.6.1-1.6-1 0-.9.5-1.6 1.1-1.6.8 0 .8-.4 0-1.4-.9-1.1-.9-1.6-.1-2.1.7-.4 1-2 .8-3.6-.3-1.6-.2-2.9.1-2.9.3 0 .6-1.3.6-2.9 0-1.6-.2-2.8-.4-2.6-.1.2-1.3-.7-2.5-2-1.1-1.4-3.4-2.6-5.1-2.8-3.3-.4-15.3 2-17.2 3.5-.7.6-1.4.5-1.8-.3-.6-.8-.9-.8-1.5 0-.4.7-1.8 1.3-3.1 1.5-1.4.1-3 .5-3.6.9-1.4.9-11.6 1.8-24.3 2.3-9.9.3-17.3-1.3-24-5.2-2.4-1.5-2.7-2-1.7-3.3 1-1.4 1-1.4-.5-.3-1.5 1.2-2.3.8-6.4-3.4-2.7-2.9-4.7-5.8-4.6-7.1 0-1.2-.4-2-.8-1.8-1.2.7-3.7-4.7-3.5-7.3.1-1.1-.2-1.9-.7-1.6-.4.3-.8-.1-.8-.8 0-.7-.3-2.4-.7-3.7-.5-1.9-.3-2.2.8-1.7.8.4.6.1-.3-.7-1.8-1.4-2.5-3.3-1-2.3.4.2.8-.4.8-1.4 0-1-.3-1.7-.7-1.4-.4.2-.6-.7-.6-2.1 0-1.6.4-2.2 1.1-1.8.8.5.8.3.1-.8-.6-.8-1.2-2.6-1.4-4.1-.2-2.3.1-2.7 1.6-2.2 1.7.5 1.7.5 0-.6-2.1-1.4-1.3-3.1 1.1-2.4.9.3.6-.2-.8-1s-1.9-1.5-1.3-1.6c.7 0 1.2-.3 1.2-.8-.1-.4-.1-2.2 0-4 .1-2.3.6-3.2 1.9-3.2 1 0 1.3-.3.7-.8-.6-.4-1-1.3-.9-2 .1-.6.2-1.7.3-2.3 0-.5.5-.8.9-.5.5.3.9-.1.9-.9s-.4-1.2-.9-.9c-.4.3-.7-.5-.5-1.7.2-1.3.9-2.5 1.5-2.7.6-.2.8-1 .5-1.8-.3-.8 0-1.4.6-1.4s1.1-.5 1.1-1.1c0-.5-.5-.7-1.1-.4-1.2.8 1.1-3.7 2.5-4.6.5-.4.5-1.2.2-1.8-.4-.6-.3-1.1.2-1.1.6 0 .9-.8.8-1.8 0-1 .6-1.7 1.6-1.6 1 .1 1.4-.4 1.1-1.2-.3-.8-.9-1.1-1.5-.8-.5.3-.4-.4.4-1.5.8-1.3 2-2 3.1-1.7.9.2 1.5 0 1.2-.4-.3-.5-.2-1 .2-1.3.5-.2.2-.2-.4-.1-.7.2-1.3-.1-1.3-.6 0-.6.5-1 1.1-1 .5 0 .8-.4.5-.8-.5-.9 3.6-6.2 4.8-6.2.4 0 .4.4.1 1-.3.6.1.7 1 .4 1.4-.6 1.4-.8-.1-1.9-1.6-1.1-1.6-1.2 0-1.8 1-.4 1.5-1.1 1.2-1.5-.9-1.5 4.2-5.5 7-5.5 1.6 0 2.2-.2 1.3-.7-.6-.5-1.9-.6-2.7-.3-.8.4-.5-.5.9-2 1.2-1.5 2.7-2.7 3.3-2.7.5 0 .2.6-.8 1.3-1.7 1.3-1.8 1.4-.2 2 .9.4 1.4.3 1.1-.2-.3-.5 0-1.3.6-1.6.5-.4.8-1.4.4-2.3-.3-.9-.3-1.3.1-1 .3.4 1.7-.6 3.1-2.3 1.4-1.6 3.1-2.9 3.8-2.9.7 0 1.9-1 2.7-2.2 1.1-1.7 1.6-1.9 2.3-.8.5.9.4 1.1-.3.6-.8-.5-1-.1-.5 1 .4 1.1.2 1.5-.4 1.1-.6-.4-1.6 0-2.3.8-.7.8-1.6 1.3-2 1-.8-.5-4 3.7-4 5.2 0 .4.9-.6 2-2.2 1.1-1.7 2-2.6 2-2.1s.9.1 2-.9c1.5-1.4 2-1.5 2-.4.1.8.8.2 1.6-1.4.8-1.5 1.9-2.7 2.4-2.7.6 0 1-.9 1-1.9 0-1.1.5-2.3 1.2-2.7.7-.5.9-.2.6.8-.4.8-.2 2.1.4 2.9.8 1.1.9 1 .4-.5-.5-1.3-.2-1.7.9-1.2.9.3 1.9-.3 2.5-1.4 1.4-2.6 1.3-3.3-.4-1.8-.8.7-1.1 1.7-.8 2.2.3.5 0 .6-.7.2-.9-.6-.8-1.3.5-2.7.9-1 2-1.6 2.4-1.4.4.2 1.5-.4 2.5-1.5.9-1 2.3-1.6 3.1-1.3.8.3 1.4 0 1.4-.7s.8-.9 2-.5c1.1.4 2 .3 1.9-.2-.3-2 .2-2.5 1.6-1.3 1.2 1 1.5.9 1.5-.4 0-1 .4-1.5.9-1.1.5.3 1.2.1 1.6-.5.4-.6 1-.8 1.5-.5.5.3 1.1.1 1.4-.4.3-.5 1.6-.7 2.8-.3 1.3.3 1.9.1 1.5-.5-.7-1.1-.3-1.2 6.6-1.6 2.6-.2 4.7 0 4.7.4s-1.8.6-4 .4c-2.6-.2-3.8.1-3.3.7.3.7.1.8-.6.4-1.4-.9-4.3 1.2-3.5 2.5.3.5 1 .7 1.5.3.5-.3.6-1 .3-1.6-.5-.7-.2-.9.8-.5.9.3 2.1 0 2.7-.6.8-.8 1.4-.8 2.3.1.7.7 1.7.8 2.9.1 1.4-.7 2.1-.5 2.8 1 .6 1 .7 2.2.3 2.6-.4.5-.1.5.6.1.9-.5.9-1.2.2-2.7-.8-1.3-.7-1.9 0-1.9.6 0 .8-.5.4-1.2s-.3-.8.4-.4c.6.4.8 1.4.5 2.4-.6 1.4-.4 1.5.8.5 1.9-1.5 4.9-1.1 6.4 1 .7.9 1.6 1.3 2 .9.4-.4.2.4-.5 1.8-1.2 2.3-1.2 2.4.4 1.1 1.8-1.5 2.6-1.2 3.1 1.6.1 1 .8 1.7 1.6 1.5.9-.2.9.1-.2 1.4-.8 1-.9 1.5-.2 1.1.6-.4 1.5-.2 1.9.4.4.8.3.9-.4.5s-1.2-.2-1.2.3c0 .6.4 1.1.9 1.1s1.1 1.4 1.5 3c.3 1.7.6 3.2.7 3.5.1.2.5 2.5.9 5 .5 3.4.4 4.5-.7 4.5-.7 0-1.3.5-1.3 1.1 0 .5.5.7 1 .4.6-.3 1 .3 1 1.5s-.4 1.9-.8 1.6c-.5-.3-.9.1-.9.9s.5 1.2 1 .8c.5-.3.6.4.1 1.8-.4 1.3-.7 3.6-.7 5.1-.1 1.6-.5 2.8-.9 2.8-.5 0-.7.4-.4.9.9 1.5-.5 4.2-1.8 3.4-.7-.5-.7-.2.1.8 1 1.2.9 2-.4 3.9-.9 1.3-1.2 2-.6 1.7 1.2-.8-1.8 7.7-3.1 9-.5.5-.6.2-.1-.6.5-1 .4-1.2-.4-.7-.6.4-.9 1.2-.5 1.7.3.5-.6 3.2-2 5.8-1.4 2.7-2.2 5.1-1.9 5.5.4.3.2.6-.3.6s-1.1 1.2-1.2 2.6c-.1 1.5-.8 3.4-1.5 4.2-1 1.3-.9 1.4.1.8.9-.5 1.5-.1 1.9 1.3.3 1.1 1.4 2.3 2.4 2.6 1 .4 1.9 1.3 1.9 2.1s.3 1.4.8 1.5c3.4.5 6.1.5 5.7.1-.2-.3.3-1.1 1.3-1.9 1.5-1.2 1.4-1.3-.8-.2-1.4.7-3.1 1.4-3.7 1.5-1.6.3-2.6-1.3-1.4-2 .5-.4 1.3-.2 1.6.4.5.8 1.1.8 2 0 1.6-1.3 5-2.2 9.2-2.4 1.7 0 3.1-.3 3.1-.6-.1-1.9.4-2.3 1.3-1 .8 1.2.9 1.1.7-.5-.2-1.4.2-2 1.6-1.8 1.2.1 1.5-.2.8-.9s-2.3-.2-4.9 1.7l-3.8 2.7 3.5-3.1c1.9-1.7 4.6-3.1 6-3.2 2.2 0 2.2-.1.6-.8-2.3-.9-1-1.8 2.1-1.5 1.2 0 2.1-.2 1.8-.6-.6-.9 5-6.2 5.7-5.5.3.3.8-.1 1.1-1 1-2.3 0-1.8-4.8 2.6-2.5 2.3-4.5 3.9-4.5 3.6 0-1.4 10-10.7 11.2-10.4.7.2 1 .2.6 0-.5-.3-.8-1.1-.8-1.8 0-1.7 3.4-3.7 4.5-2.7.3.4.5.2.3-.5-.2-.6.6-1.9 1.7-2.7 1.6-1.3 1.7-1.5.3-1-1.9.6-2.2-.3-1.2-3 .3-.9 1.1-1.3 1.7-.9.7.4.8 0 .4-1.1-.5-1.4-.3-1.7.8-1.2.8.3 1.5.1 1.5-.3 0-.5-.5-1.1-1.1-1.3-.9-.3-.8-1.1.2-2.8.7-1.4 1.2-2.9 1.1-3.3-.1-.4.4-1 1.2-1.3.9-.3 1.2-1.2.9-2.1-.5-1.2-.3-1.4.8-.8 1.1.7 1.2.6.2-.6s-.8-2.2.8-4.8c1.1-1.8 1.4-2.9.8-2.5-.9.5-1 .2-.4-1.2.4-1 .8-3.1.8-4.6 0-1.5.4-2.5.9-2.2.7.4.5-1.9-.7-7.8-.1-.9.2-1.9.9-2.2.7-.3.7-.5-.2-.5-.7-.1-1-.6-.7-1.1.3-.6.1-1-.4-1-.6 0-1-.3-.9-.8.5-1.2-2.5-9.2-3.4-9.2-.4 0-.8-.6-.8-1.3 0-.7-.9-2.3-2-3.5-1.1-1.2-2-2.5-2-3s-1.1-1.5-2.5-2.2c-1.5-.8-2.3-2-2-2.7.2-.8 0-1.1-.5-.8-.5.3-1.8-.3-3-1.5-1.1-1.1-2-1.8-2-1.5 0 .3-1.9-.5-4.2-1.8-5.3-3-12.4-4.7-20.6-5-3.4-.2-6.4-.2-6.5-.1zM138 76.4c0 .3-.4.8-1 1.1-.5.3-1 .1-1-.4 0-.6.5-1.1 1-1.1.6 0 1 .2 1 .4zm96 45c0 .2-.7.9-1.5 1.6-1.3 1.1-1.4 1-.9-.4.5-1.4 2.4-2.3 2.4-1.2zM100.7 232.3c-.3.8.1 1.4.8 1.4.7 0 1.2-.5 1.1-1.1-.2-.6-.1-.8.1-.3.3.4.9.5 1.4.1.5-.3.9-.1.9.4 0 1.5-4.8 3.3-5.3 1.9-.4-1.3.2-3.7 1-3.7.3 0 .3.6 0 1.3zm74.4 9c-1 .9-1.1.8-.5-.6.3-1 .9-1.5 1.2-1.2.3.3 0 1.1-.7 1.8zm-66.7 21.4c.4 1 .4 1.4 0 1-.4-.4-1.2-.2-1.9.3-.8.7-1.2.5-1.2-.5 0-.8.4-1.2.9-.9.4.3.8 0 .8-.5 0-1.6.7-1.3 1.4.6zm-11.1 7.6c.3.8-.1 1.4-.9 1.4-1.5 0-1.8-.9-.7-2 .9-.9 1-.9 1.6.6zm-37.4 166c1.3-.4 1.3-.3.2.5s-2.4.9-4.9.3c-.2-.1 0-.6.4-1.2.4-.7 1-.7 1.6-.1.6.6 1.8.8 2.7.5zm11.5 4.3c.3.8.2 1.2-.4.9-.6-.3-1-1-1-1.6 0-1.4.7-1.1 1.4.7z"/>
  <path d="M165.5 62.9c-.3.6.4 1.5 1.5 2.1 2 1.1 2.1 1 1-.9-1.2-2.3-1.6-2.5-2.5-1.2zM187 63.5c-1.1 1.3-1 1.4.4.9.9-.3 1.6-1 1.6-1.5 0-1.3-.6-1.1-2 .6zM190.2 62.5c.4.4.4 1.3-.2 1.9-.6.8-.2 1.2 1.3 1.3 1.2 0 1.6-.1.9-.4-.6-.3-1-.9-.7-1.3.3-.5 0-1.2-.7-1.6-.7-.4-1-.4-.6.1zM162.2 64.2c-1.7 1.7-1.5 2.4.8 2.5 1.1.1 2-.3 2-.8 0-.6-.5-.7-1.2-.3-.8.5-.9.2-.5-.9.8-2 .5-2.1-1.1-.5zM154 68c0 .5.5 1 1.1 1 .5 0 .7-.5.4-1-.3-.6-.8-1-1.1-1-.2 0-.4.4-.4 1zM157 68c0 .5.5 1 1 1 .6 0 1-.5 1-1 0-.6-.4-1-1-1-.5 0-1 .4-1 1zM195 68c0 .5.5 1 1.1 1 .5 0 .7-.5.4-1-.3-.6-.8-1-1.1-1-.2 0-.4.4-.4 1zM148.4 70.3c-1.4 1.6-1.5 1.8-.2.9 1.4-1.1 1.7-1 2.1.5.4 1.7.5 1.7.6 0 0-.9.5-1.7 1-1.7s1.2.8 1.4 1.7c.4 1.7.5 1.7.6.1 0-1-.7-2.2-1.8-2.7-1.4-.8-2.3-.6-3.7 1.2zM195.6 73.8c-.3.5.1.9.9.9s1.2-.4.9-.9c-.3-.4-.7-.8-.9-.8-.2 0-.6.4-.9.8zM197.6 77.7c-.6 1.4-.5 1.5.5.6.7-.7 1-1.5.7-1.8-.3-.3-.9.2-1.2 1.2zM139 80.4c.7.7 1.3.7 2 0 .6-.6.3-1-1-1s-1.6.4-1 1zM129.5 85.9c-.3.5-.2 1.2.3 1.5.5.3.9-.1.9-.9 0-1.7-.3-1.9-1.2-.6zM125 90.1c0 .5.5.7 1 .4.6-.3 1-.8 1-1.1 0-.2-.4-.4-1-.4-.5 0-1 .5-1 1.1zM115.3 96.4c-.3.5-.1.6.5.2.5-.3 1.3 0 1.5.6.4 1 .6 1 .6 0 .1-.7.6-1 1.1-.7.6.3 1 .2 1-.4 0-1.2-3.9-1-4.7.3zM113 98.4c0 .2.7.9 1.5 1.6 1.3 1.1 1.4 1 .9-.4-.5-1.4-2.4-2.3-2.4-1.2zM242.9 99.7c-1.3 1.6-1.2 1.7.4.4.9-.7 1.7-1.5 1.7-1.7 0-.8-.8-.3-2.1 1.3zM107.5 107.3c-1.3 1-1.5 1.6-.6 2.1.7.5 1.5.5 1.8.2.4-.3 0-.6-.7-.6-.9 0-.7-.5.6-1.5 1-.8 1.6-1.5 1.3-1.5-.3 0-1.3.6-2.4 1.3zM197.6 108.7c-.6 1.4-.5 1.5.5.6.7-.7 1-1.5.7-1.8-.3-.3-.9.2-1.2 1.2zM239 110.2c-1.2 2.2-1.2 2.2.6.6 1-1 1.5-2 1.2-2.4-.4-.3-1.2.5-1.8 1.8zM102.5 114.9c-.3.5-.2 1.2.3 1.5.5.3.9-.1.9-.9 0-1.7-.3-1.9-1.2-.6zM101 122.1c0 .5.5.7 1 .4.6-.3 1-.8 1-1.1 0-.2-.4-.4-1-.4-.5 0-1 .5-1 1.1zM98.6 127.7c-.6 1.4-.5 1.5.5.6.7-.7 1-1.5.7-1.8-.3-.3-.9.2-1.2 1.2zM94.6 136.2c.3.5 1 .6 1.5.3 1.3-.9 1.1-1.2-.6-1.2-.8 0-1.2.4-.9.9zM202.4 153c-1.2 2.5-1.3 4-.3 3.4.5-.3.7-.9.4-1.4-.7-1.1 3-3.2 3.9-2.3.3.3.6.1.6-.5 0-1.6-3.8-1-4.6.8zM208.6 151.8c-.3.5.1.9.9.9s1.2-.4.9-.9c-.3-.4-.7-.8-.9-.8-.2 0-.6.4-.9.8zM90.6 162.2c.3.5 1 .6 1.5.3 1.3-.9 1.1-1.2-.6-1.2-.8 0-1.2.4-.9.9zM51.3 192.8c0 1.2.5 2.2.9 2.2 1.1 0 1-1.2-.2-3-.7-1.2-.9-1-.7.8zM55.3 200.9c0 1.1.4 1.8.8 1.5.4-.2 1.5.3 2.3 1.2.9.8 1.6 1.1 1.6.5 0-.6-.9-1.5-2-2.1-1.1-.6-1.8-1.5-1.5-2.1.4-.5.2-.9-.4-.9-.5 0-.9.9-.8 1.9zM57 205.2c0 .2.9 1.1 2 2.1 1.1.9 2 1.3 2 .7 0-.5-.9-1.4-2-2-1.1-.6-2-.9-2-.8zM69.4 219c0 1.3.4 1.6 1 1 .7-.7.7-1.3 0-2-.6-.6-1-.3-1 1zM193.5 222c-.3.5-.1 1 .4 1 .6 0 1.1-.5 1.1-1 0-.6-.2-1-.4-1-.3 0-.8.4-1.1 1zM384.9 224.4c-.2.2-6.2.6-13.4.9-18.9.7-33.8 4.3-47.7 11.3-2.7 1.3-4.8 2.2-4.8 1.9 0-.3-1 .3-2.2 1.5-1.2 1.1-2.6 2-3.1 2-.6 0-2.5 1.1-4.3 2.5-1.8 1.4-3.7 2.5-4.3 2.5-.6 0-1.5.9-2.1 2.1-.7 1.1-1.4 1.8-1.7 1.5-.3-.2-1.6.7-2.9 2.1-1.3 1.4-2.4 2.3-2.4 2 0-.3-1.3.8-3 2.5-1.6 1.6-3 3.4-3 3.9 0 .6-.4.7-1 .4-.5-.3-1-.1-1 .5s-.5.8-1.2.4c-.6-.4-.8-.3-.5.3.7 1.2-3 5.9-4.4 5.6-.4-.2-.6.4-.3 1.2.4.8.1 1.5-.5 1.5s-1.6 1.2-2.1 2.6c-.6 1.4-1.5 2.2-2 1.9-.6-.4-1-.3-.9.2.4 1.4-1.3 4.3-2.2 3.8-.4-.3-.6.3-.4 1.4.2 1.1-.3 2.2-1.1 2.5-.9.3-1.2 1.1-.8 1.8.5.8.2.9-.9.5s-1.4-.2-1 .9c.3.8-.1 2.2-.8 3.1-.8.9-1.4 1.9-1.4 2.2 0 .3-.3.5-.6.4-.4-.1-.6.6-.6 1.5.1.9-.9 3.9-2.2 6.6-1.2 2.7-2.4 5.6-2.6 6.5-1 4.7-2.5 7-4.4 6.6-1.1-.2-2.3 0-2.6.4-.2.5.9.7 2.6.6 2.4-.2 2.9 0 2.4 1.4-.4.9-.9 2.7-1.1 4.1-.3 1.3-1.1 3.1-1.7 3.9-.9 1.2-.9 1.3 0 .7 1-.5 1.1-.1.4 1.7-.6 1.4-.7 2.8-.4 3.1 1.2 1.2-1.3.6-2.6-.7-1.1-1-1.1-.8 0 1 .7 1.2 1.6 2 1.9 1.8.3-.2.6.5.6 1.6 0 1-.6 1.9-1.3 1.9-1.9 0-2.4 1.7-1 3.2.8.7 1.3 2.1 1.1 3.1-.1.9.3 1.7.9 1.7.7.1.1.8-1.3 1.6-1.4.8-1.7 1.3-.7 1 2.1-.7 2.2.1.2 2.1-1.1 1.1-1.3 1.9-.5 2.7.5.7.6 1.7.2 2.1-.4.5-.1.5.7 0 1-.6 1.1-.2.6 1.5-.6 1.7-.4 2.1.6 1.4 1.1-.6 1.2-.5.3.7-.6.8-1 2.1-.9 2.9 1.7 8.7 1.7 8.4 0 7-1.3-1.1-1.4-1-.9.5.6 1.4.4 1.6-.6 1-.9-.5-1.1-.4-.6.4.4.6 1.2.8 1.8.5 1.9-1.2 2.8 1.9 1 3.3-1.3 1-1.3 1.3-.3 1.1.8-.2 1.6.6 1.8 1.7.3 1.4.1 1.6-.5.7-.7-1-1.2-.9-2.3.4-.9 1.1-.9 1.5-.2 1 .7-.4 2.1-.2 3 .3 1 .6 1.5 1.1 1.1 1.1-.4 0-.3 1.2.2 2.6.8 1.9.7 2.4-.3 1.9-.6-.4-.4 0 .6.8 1.4 1.1 1.5 1.6.5 2-1 .4-1 .6 0 .6.6.1 1.2.6 1.2 1.2s-1 .8-2.2.5c-1.9-.5-1.8-.3.3.7 2.1.9 2.6 1.8 2.3 4-.2 2.3 0 2.6 1.1 1.7 1.2-1 1.3-.8 1 .9-.2 1.2 0 2.1.4 2.1.5 0 1.1 1.3 1.4 2.9.3 1.6 1.4 3.6 2.3 4.5.9 1 1.7 2.8 1.7 4.1 0 1.4.3 2.2.8 1.9.5-.3.9.1.9 1 0 .8-.6 1.7-1.2 2-.7.3-.4.4.8.1 1.7-.4 2.4.3 3.9 3.5 1 2.2 2.4 4 3.2 4 .7 0 1.3.4 1.3.9s-1 .7-2.2.5c-1.6-.4-1.4-.1.7.9 3.1 1.5 5.9 5.2 5 6.6-.2.5.3.8 1.3.7 1.2-.1 1.6.5 1.4 2.3-.2 2.1 0 2.2 1.5 1 .9-.8 1.5-1 1.2-.4-.3.5.5 2 1.8 3.2 1.3 1.2 2.3 2.1 2.3 1.9 0-.2 1.4.9 3 2.4 2.7 2.6 4.3 5.9 2.1 4.5-.5-.3-1.2-.1-1.5.4-.7 1 1.9.9 3-.1.8-.9 10.1 5.3 10.9 7.1.4 1.1 0 1-1.4-.3-1.1-1-2.1-1.3-2.5-.7-.4.5-.2 1.2.4 1.6.5.3 1 .3 1-.1s.9.1 1.9 1c1.4 1.3 2.1 1.4 2.7.5.5-.8.3-1-.6-.4-.9.5-1.1.4-.6-.3 1.1-1.8 1.6-1.5 2.7 1.7.6 1.6 1.9 3.1 2.9 3.4 1.3.3 1.7 0 1.3-.9-.3-.7-1-1.2-1.5-1.1-.6.1-1.3-.5-1.5-1.3-.4-1.2-.3-1.2.5-.2.5.8 1.3 1.4 1.8 1.4 2.9.2 5.6 3.9 3.7 5.1-.5.2-.2.2.6 0s2.2.4 3.2 1.3c1.1 1 1.9 1.4 1.9 1.1 0-.3-1-1.5-2.2-2.7-1.2-1.1-1.8-2.3-1.5-2.7.4-.3.7-.1.7.5 0 .7.7 1.2 1.5 1.2s1.5.4 1.5.9c0 .6.9.8 2 .6 1.2-.2 2.3.2 2.7 1.1.3.9 1.2 1.3 2.1.9 1.3-.5 1.3-.3.1 1.2-.8.9-.9 1.4-.2 1 .6-.4 1.4-.3 1.8.3.3.5.1 1-.6 1s-.9.3-.6.6c.4.4 1.3.1 2.2-.6 1.4-1.1 1.9-.7 1.6 1.2-.2 1.5 1.7.8 2.3-.8.3-.8.2-1.2-.3-.9-.5.3-1.2.1-1.6-.5-.4-.6-1.1-.8-1.6-.5-.5.4-.9.1-.9-.4 0-1.4 1.7-1.4 2.5-.1.4.6 1.1.8 1.6.4.5-.3 1.9.5 3 1.8s1.8 1.7 1.4 1c-.4-.7 0-1.2.9-1.2 1 0 1.3.6.9 1.8-.6 1.6-.5 1.6 1.4-.1 1.1-.9 2.3-1.4 2.7-1 .3.4-.4 1.6-1.7 2.7-1.2 1.2-1.8 1.7-1.1 1.3.7-.5 1.4-.2 1.7.5.4.8.6.7.6-.5.1-.9.8-1.7 1.7-1.7.8 0 1.3-.4 1-.8-.3-.5.1-.9.9-.9s1.1.5.8 1c-.4.6.2.8 1.4.5 1.2-.3 2 0 2 .8 0 .7-.3 1.1-.7.9-.4-.2-.7.2-.7 1 0 2.3 1.3 1.8 2.5-1 1.2-2.6 2.6-3.2 3.6-1.6.3.5 2.2.7 4.1.5 1.9-.1 3.6 0 3.9.4.6 1-7.1.9-8-.1-1.2-1.2-2-.8-2.1 1.3-.1 1.1.3 2 .8 2 .6 0 .7-.5.4-1.1-.9-1.3 2.7-.8 3.7.6.5.6.8.6.8-.2 0-.6 1.1-1 2.5-.8 1.5.1 2.9-.4 3.5-1.4.7-1.2.9-1.2 1-.2 0 1 .3 1.1 1.4.2 1.6-1.4 2.3-.5 2.1 2.6-.2 1.5.2 2 1.2 1.6 1-.4 1.1-.8.3-1.3-.6-.3-.8-1.5-.4-2.4.6-1.7.8-1.6 2 .5.7 1.3 1 2.8.6 3.4-.3.5.2.4 1.1-.4 1.8-1.4 2.3-2.6.8-1.7-.5.3-1.1-.1-1.5-.9-.3-.8 0-1.7.6-2.1.7-.4.8-.3.4.4s-.3 1.2.3 1.2c.5 0 1.2-.4 1.5-.9.7-1.1 4.2-.7 3.9.5-.1.5-.4 1.8-.8 2.9-.3 1.1.2.5 1.1-1.2l1.8-3.3 1.8 2.8c1 1.5 1.8 2.2 1.8 1.5 0-.7 1-1 2.5-.7 1.4.2 2.5 0 2.5-.5 0-1.4-1.8-2.3-2.4-1.2-.7 1.1-3.6.8-3.9-.5-.1-.5 1.6-1 3.8-1 2.2-.1 4.1-.3 4.3-.4.1-.1 1.1-.4 2.2-.5 1.1-.1 2.1-.3 2.3-.5.1-.1 1.7-.3 3.5-.4 3.3-.3 3.9.3 2.2 2-.7.7-.6 1.1.4 1.1.8 0 1.3-.4 1-.9-.3-.4-.1-.8.5-.8.5 0 1.2.6 1.5 1.2.4.9.5.8.5-.2-.1-.8-.1-2.4 0-3.5.1-1.6.3-1.7 1-.5.6.8.7 1.8.4 2.4-.4.5-.1.6.6.2.7-.5 1-1.4.7-2.1-.3-.8.2-1.1 1.5-.8 1.1.3 1.9 0 1.9-.6 0-.7.5-.9 1.3-.4.6.4 2.1.9 3.2 1 1.6.2 1.7.1.5-.6-.8-.5-1.8-.7-2.4-.4-.5.3-.6.1-.2-.6.4-.7 1.3-1 1.9-.8.6.2 1.9-.4 2.9-1.2 1-.9 2.4-1.6 3.1-1.7.6 0 2-.2 3-.2 1-.1 1.6-.5 1.4-.9-.3-.5.6-.9 1.9-.9 1.3-.1 2.1.2 1.8.7-.9 1.5.6 1 2.4-.8 1.6-1.6 1.6-1.6 0-1-1 .3-2 .2-2.3-.3-.4-.6.6-1 2-1 1.7 0 2.4-.4 1.9-1.2-.5-.7-.3-.8.5-.4.7.5 1.8.1 2.5-1 .9-1.2 1.5-1.4 2-.5.5.7 1.3.8 2.4.2.9-.5 2.2-.8 2.7-.8.6.1 1.1-.9 1.2-2.3l.2-2.5-.8 2.5c-.5 1.4-.9 2.1-1 1.7-.1-.4-1.1-.3-2.2.4-1.7.9-2 .8-1.6-.3.2-.7.9-1.2 1.5-1.1.6.2 1.6-.6 2.2-1.8 1-1.7 1.4-1.8 2.8-.7 1.3 1.1 1.5 1.1 1-.2-.7-1.8 1.6-4.2 2.8-3 .5.5 1.5.5 2.4-.1 1.3-.9 1.3-1-.1-.6-.9.3-1.6 0-1.6-.7 0-.8 1.3-1.1 3.4-.9 1.8.1 3.3-.2 3.3-.7 0-.5-1.2-.7-2.7-.4l-2.8.5 2.2-1.6c1.8-1.3 2.7-1.4 4.5-.5 2.1 1 2.1 1-.2-.9-2.4-2-2.4-2-.3-1.6 1.6.3 2 0 1.6-1.1-.3-.8 0-1.4.6-1.4 1 0 1.5 1.4 1.2 3.3-.1.5.3.6.9.2.7-.4.7-1.2 0-2.6-1.5-2.7-.3-4.2 2.9-3.5 2.5.6 2.5.6.5-.6-2.1-1.3-2.1-1.3.7-4.3 1.6-1.7 2.9-3.4 2.9-3.9 0-.4.7-.6 1.4-.3 1.1.4 1.3.1.9-1.1-.6-1.5-.5-1.6 1.2-.2 1.7 1.4 1.8 1.4.6-.9-1.3-2.3-1.2-2.3 1.5-1.8 1.6.4 2.3.4 1.6.1-.6-.3-.9-1.1-.6-1.6.4-.7.2-.8-.4-.4-.7.4-1.2.2-1.2-.3 0-.6.5-1.1 1.1-1.1.5 0 .8-.4.4-.9-.3-.5.3-1.6 1.3-2.3 1.9-1.3 2.2-1.8 2.2-3.9 0-.5.5-.7 1.2-.3.8.5.9.2.5-1-.4-1.1-.3-1.5.4-1.1.6.4 1 .1.8-.6-.4-3.2.1-5 1.3-4.3.8.5.9.2.5-1-.5-1.3-.3-1.7.6-1.3 1 .4 1.3-.2.9-1.9-.2-1.4 0-2.4.7-2.4s.9.5.5 1.2c-.4.6-.3.8.3.5.5-.3.8-2 .5-3.8-.3-2.1-.1-3 .6-2.5.7.4 1-.3.9-2.1-.1-1.8.3-2.7 1.1-2.5.6.1 1.2-.2 1.2-.6 0-.4-.6-1.4-1.2-2.1-1-1.1-1-1.3 0-.7.8.5 1.2-.2 1.2-2.6.1-1.8.7-5 1.4-7.1 1-2.6 1-3.7.2-3.7-.7 0-.8-.3 0-.8.5-.4 1-2.2.9-4 0-1.7.2-3.2.5-3.2s.5-4.3.4-9.5c0-5.2.3-9.2.7-8.9.4.2 1.1 0 1.4-.6.4-.6.1-.9-.6-.8-1.7.4-2.4-6.9-.8-8.8.7-.8.8-1.4.3-1.3-2.1.4-2.6-.2-1.4-1.6.9-1.1.9-1.9.2-2.8-.6-.7-1.3-2.8-1.4-4.6-.1-1.8-.6-3.5-1.1-3.8-.4-.2-.2-1.2.5-2.1.8-.9.8-1.3.1-.9-.7.5-1.5-1.1-2.4-4.6-.6-2.8-1.8-6.7-2.6-8.5-.7-1.7-1.1-3.2-.8-3.2.2 0-.9-2.5-2.6-5.5-1.6-3-2.7-5.5-2.3-5.5.4 0-.1-.7-1.2-1.6-1-.8-1.3-1.2-.6-.9.8.4 0-1.2-1.7-3.6-1.8-2.4-2.9-4.9-2.7-5.5.3-.8-.1-1.1-1-.7-.9.3-1.4-.2-1.4-1.5 0-1.1-.7-2.3-1.6-2.6-.9-.3-1.4-1.3-1.1-2.1.4-1 .1-1.2-1.1-.8-.9.3-1.4.3-1-.2.4-.4-.1-1.6-1.3-2.5-1.1-1-1.8-2.4-1.7-3.1.2-.7-.2-1.3-.9-1.4-1.5 0-2.8-1.4-2.8-2.8 0-.7-.5-1.2-1.2-1.2-.6 0-2.5-1.3-4.1-2.8-7.3-6.9-8.3-7.7-9.1-7.7-.5 0-2.2-1.2-3.9-2.8-1.7-1.5-3.6-2.8-4.4-3-.7-.2-1.5-.7-1.8-1.1-.3-.4-2-1.4-3.7-2.2-1.8-.8-3.3-1.8-3.3-2.2 0-.5-.4-.6-.9-.2-.5.3-1.7-.2-2.5-1.1-.9-.8-1.6-1.3-1.6-.9 0 .3-1 0-2.2-.7-1.3-.7-2.5-1.3-2.8-1.3-3-.6-8.9-2.9-8.6-3.4.2-.3-.6-.7-1.7-.7-4-.3-7.7-1.1-8.4-1.7-.3-.4-1.7-.7-3-.7-1.4 0-3.4-.5-4.5-1.1-1.6-.9-1.9-.8-1.3.2.6.9.3 1-1.1.4-1-.4-4.3-.9-7.1-1.1-2.9-.1-5.7-.5-6.1-.8-.5-.3-1.1-.4-1.3-.2zm-3.4 56.6c-.3.5-1.3.7-2.3.5-1.1-.2-1.8.3-1.8 1.4 0 1 .6 1.8 1.2 1.8.7 0 1-.6.7-1.3-.5-1.3 1.4-1.4 3.3-.1.7.4 1.1.1 1-.6 0-.6.4-1.2.9-1.2.6 0 .9.9.7 2-.2 1.6 0 1.7.8.5.8-1.3 1.3-1.3 3.2-.2l2.3 1.3-2.2-2c-2.5-2.1-3.2-4.1-.8-2.1.8.6 2 .8 2.6.4.8-.4.9-.3.5.4s-.2 1.2.3 1.2c.6 0 1.1.7 1.1 1.5s.5 1.5 1 1.5c.7 0 .7-.6 0-2s-.7-2 0-2c.5 0 1 .4 1 1 0 .5.5 1 1.1 1 .5 0 .7-.5.4-1-.4-.6.5-.5 1.9.2 1.4.6 2.6 1.6 2.6 2.1s-.5.5-1.3-.1c-.8-.7-1.8-.7-2.7-.2-1.2.8-1.2 1-.1 1 1.1 0 1.1.3 0 1.7-1.1 1.5-1 1.4.9-.1 1.2-1.1 2.2-1.5 2.2-1s.8 0 1.7-1.1c1.5-2 1.5-2 1 .4-.4 1.6-.3 2.1.4 1.4 1.2-1.2 4.9-.5 4.9.9 0 .5-1 .4-2.2-.2-2.1-1-2.1-1-.6.3 1 .8 1.4 1.8 1 2.3-.4.5.4 0 1.7-1.1 1.4-1.1 2.1-1.4 1.6-.6-.6 1-.2 1.2 1.6.6 1.9-.5 2.1-.4.9.4-1.3.9-1.2 1.1.5 1.2 1.1.1 2.3.1 2.7 0 .5 0 .7.2.5.7-.1.4.3.8.8 1 .6.2 1.4 1 1.8 1.8.5.8 1.2 1.2 1.7.9.4-.3 1.1.2 1.4 1.1.6 1.5.4 1.5-1.9 0-1.4-.9-2.5-1.3-2.5-.8 0 1.2 4.9 3.4 6.1 2.6.5-.3.8-.2.7.3-.2.4.9 2 2.2 3.5 4.7 4.9 5.5 6.2 5.2 8.1-.2 1.2.1 1.7.7 1.3.6-.4 1.1 0 1.1.9 0 1 .5 1.4 1.3.9.9-.5.9-.4 0 .6-1 1.1-1.5 1.1-3-.1-1.6-1.3-1.7-1.2-.4.4.9 1.1 2.1 1.5 3.4 1.1 1.2-.4 1.7-.2 1.3.4-.3.6.1 2.5 1.1 4.4 2.8 5.7 3 6.2 2.6 8.6-.1 1.3.1 2.1.5 1.8.4-.2.9.4.9 1.5.1 1.2-.3 1.7-1 1.3-.9-.5-.8-.3 0 .6 1 1.1.9 1.8-.5 3.4-1.5 1.8-1.5 1.9 0 .8 1.1-.9 1.8-1 2.3-.2.3.5.1 1-.5 1s-.8.5-.4 1.1c1.1 1.8.5 22.4-.6 22.7-.7.3-.6 1 .2 2 1.1 1.3 1 1.5-1.2.9-2.3-.5-2.3-.5-.7.7 1.6 1.3 1.6 2.1 0 6.3-.3 1-.7 2.1-.7 2.5-.1.4-1 1.4-2.1 2.3-1.5 1.2-1.6 1.4-.3.9 1.6-.5 1.6-.4.2 2.5-.9 1.7-1.9 3.1-2.4 3.1s-.7.7-.4 1.5c.4.8.1 1.5-.5 1.5s-1.1.7-1.1 1.6c0 .8-.4 1.2-1 .9-.5-.3-1 .1-1 1 0 1-.5 1.3-1.2.9-.6-.4-.8-.3-.4.4.9 1.4-5.8 8.7-7.3 7.8-.7-.4-.9-.1-.5.8.7 1.7-3.1 4.1-4.8 3-.7-.5-.8-.3-.3.5.4.8-.2 1.9-1.6 2.9-1.3.9-2.5 1.6-2.6 1.4-.2-.1-1.9.7-3.9 1.8-1.9 1.1-3.9 1.8-4.4 1.5-.4-.3-1.1.2-1.4 1-.3.8-.9 1.4-1.3 1.3-.4-.1-2.1.1-3.8.5-10.3 2.4-17.5 3-17.5 1.4 0-.8-.4-.7-.9.2-.8 1.3-1.2 1.3-2.7 0-1.4-1.1-1.6-1.1-1 0 .7 1 .3 1.1-1.5.5-1.3-.4-3-.7-3.6-.7-.7 0-1.3-.4-1.3-.8 0-.5-.7-.6-1.5-.3-1.8.7-8.5-1.4-8.5-2.7 0-.6-.4-.8-.9-.4-1.3.7-8.1-2.6-7.5-3.7.3-.5.2-.8-.3-.7-2 .3-3.4-.3-5.7-2.6-1.4-1.4-2.9-2.5-3.3-2.5-.5 0-2.6-2-4.8-4.5-2.2-2.5-4.8-5.5-5.8-6.6-1-1.1-1.9-2.9-2-3.9-.1-1-.4-1.7-.8-1.5-.6.4-2.2-2.5-4-7.3-.5-1.2-1.3-3.2-1.8-4.5-1.9-4.5-2-5.7-.8-5.7.7 0 .4-.5-.6-1.1-1.5-.9-1.6-1.3-.5-2.7 1-1.2 1-1.4.1-.8-2 1.1-1.6-1.3.5-3.2.9-1 1.3-1.4.8-1-1.9 1.5-2.8.8-2.4-1.7.3-1.4.1-2.5-.5-2.5s-.2-.6.9-1.4c1-.8 1.6-1.8 1.1-2.2-.4-.4-.7-.2-.7.4 0 .7-.4 1.2-.8 1.2-1.5 0-.8-4 .8-4.1 1 0 .9-.3-.5-.9-1.1-.5-1.5-.9-.9-.9 1.4-.1 1.3-3.3-.1-4.4-.6-.5 0-.7 1.3-.4 1.2.3 2 .1 1.6-.4-.3-.5-1.1-.9-1.8-.9-1 0-1.1-1.2-.6-4.5.4-2.5 1-4.8 1.3-5.2.4-.3.2-1.2-.4-1.9-.8-1-.5-1.1 1.3-.7 1.7.3 1.9.2.9-.5-1.4-1-.7-5.2 1-5.2.5 0 .9-.5.9-1.1 0-.5-.5-.7-1.1-.3-.7.4-1 .1-.7-.6.6-1.9 2.5-2.4 3.1-.8.2.7.3.5.1-.5-.2-1.4.2-1.8 1.7-1.4 1.1.3 1.6.1 1.3-.5-.3-.5-1.5-.8-2.5-.5-1.1.3-1.9.1-1.9-.4s.5-.9 1.2-.9c.6 0 .8-.3.5-.6-1-1.1 1.3-4.6 2.7-4.1.7.3 1.3-.1 1.3-.9 0-.7-.5-1.1-1.1-.8-.6.3-.2-.1.8-1 1-.8 2.2-1.3 2.6-1.1.4.2.6-.6.6-1.8-.3-3.1 1.3-5 2.9-3.7 1 .8 1.5.8 2.1-.1.4-.8.3-.9-.4-.5s-1.2.1-1.2-.9c0-.8.7-1.8 1.5-2.1.8-.4 1.2-1 .9-1.5-.3-.5-.2-.9.3-.8 1.8.3 3.6-.1 3-.7-.8-.9 6.5-6.4 7.5-5.8.5.3.8 0 .8-.6s.4-.9.9-.5c.6.3 1.3-.1 1.8-.8.8-1.3 4.3-3.1 4.3-2.2 0 1.1-7.4 5.3-8.3 4.8-.6-.4-.7-.1-.2.7.5.8.4 1.1-.1.7-.6-.3-1.6-.1-2.4.4-2.2 1.4 1.9.6 4.6-.9 1.6-.8 2.4-.8 3.4.1 1 .8 1 .6 0-.7-1.4-1.8-1.3-1.9.3-1.3 1 .4 1.6.3 1.2-.3-.3-.5.4-1.4 1.5-2 1.1-.6 1.8-1.6 1.4-2.1-.3-.6.8-.3 2.5.5 2.6 1.4 3 1.4 2.5.1-.3-.8-1-1.3-1.4-1-.5.3-1.1.2-1.4-.3-.5-.8.1-1 4.2-1.3.9-.1 2.2-.5 2.7-.9 2.1-1.5 4.6-2 3.9-.8-.5.8-.2.9 1.2.3 1-.4 3.3-.8 5.1-.9 1.8-.1 3.5-.5 3.9-.8.9-1 2.6.1 1.9 1.2zM330 305.4c0 .3-.4.8-1 1.1-.5.3-1 .1-1-.4 0-.6.5-1.1 1-1.1.6 0 1 .2 1 .4zM256 337c0 .5-.2 1-.4 1-.3 0-.8-.5-1.1-1-.3-.6-.1-1 .4-1 .6 0 1.1.4 1.1 1zm0 12.6c0 .8-.5 1.2-1 .9-.6-.4-.8-1.1-.5-1.6.9-1.4 1.5-1.1 1.5.7z"/>
  <path d="M373.1 282.6c0 1.1.3 1.4.6.6.3-.7.2-1.6-.1-1.9-.3-.4-.6.2-.5 1.3zM375 282c0 .5.5 1 1.1 1 .5 0 .7-.5.4-1-.3-.6-.8-1-1.1-1-.2 0-.4.4-.4 1zM365.2 283.3c-.5.7-1.2 1.9-1.6 2.7-.7 1.3-.6 1.3.6 0 1.7-2 6.3-2.7 5.2-.8-.6 1-.4 1 .9-.1.9-.7 1.7-1.6 1.7-1.9 0-.3-.3-.3-.6.1-.3.3-1.6.2-2.9-.3-1.6-.6-2.6-.5-3.3.3zM357 288.1c0 .5.5.7 1 .4.6-.3 1-.8 1-1.1 0-.2-.4-.4-1-.4-.5 0-1 .5-1 1.1zM408 291.4c0 .2.7.7 1.6 1 .8.3 1.2.2.9-.4-.6-1-2.5-1.4-2.5-.6zM413.6 293.5c.4.8 1.1 1.5 1.6 1.5.6 0 .5-.6-.2-1.5-.7-.8-1.4-1.5-1.6-1.5-.2 0-.1.7.2 1.5zM341.6 295.5c.4.8.8 1.5 1 1.5.2 0 .4-.7.4-1.5s-.4-1.5-1-1.5c-.5 0-.7.7-.4 1.5zM345.3 295.5c0 .8.4 1.2.9.9.5-.3.6-1 .3-1.5-.9-1.3-1.2-1.1-1.2.6zM339 297.9c0 .6.4 1.2.8 1.5.5.3.9-.1.9-.9s-.4-1.5-.9-1.5c-.4 0-.8.4-.8.9zM418.5 300c1 1.1 2 2 2.3 2 .3 0-.3-.9-1.3-2s-2-2-2.3-2c-.3 0 .3.9 1.3 2zM336.2 299.7c1.1.3 1.5 1.1 1.2 2.1-.5 1.4-.4 1.4.4.2 1.3-1.8.6-3-1.6-2.9-1.6.1-1.6.2 0 .6zM425.3 304c-.1 1.1.3 2.2.8 2.5.5.4.7.9.5 1.3-.2.4.8.8 2.2.9 2.7.1 2.7.1.4-1.1-1.2-.7-1.9-1.6-1.5-2.1.5-.4.2-.5-.6 0-1.1.6-1.3.4-.8-.8.3-.9.3-1.8-.1-2.1-.4-.3-.8.4-.9 1.4zM331.5 304c.3.5.8 1 1.1 1 .2 0 .4-.5.4-1 0-.6-.5-1-1.1-1-.5 0-.7.4-.4 1zM324.5 314c-.3.5-.1 1 .4 1 .6 0 1.1-.5 1.1-1 0-.6-.2-1-.4-1-.3 0-.8.4-1.1 1zM435.2 322.4c.7.8 1.5 1.2 1.7 1.1.5-.6-1-2.5-2-2.5-.5 0-.4.6.3 1.4zM435.5 326c.3.5.8 1 1.1 1 .2 0 .4-.5.4-1 0-.6-.5-1-1.1-1-.5 0-.7.4-.4 1zM318.7 333.3c-.3.8.1 1.4.8 1.4.7 0 1.1-.6.8-1.4-.3-.7-.6-1.3-.8-1.3-.2 0-.5.6-.8 1.3zM83.8 229.7c.7.3 1.6.2 1.9-.1.4-.3-.2-.6-1.3-.5-1.1 0-1.4.3-.6.6zM95.3 232.7c0 .9.4 1 1.4.2.7-.6 1.3-1.2 1.3-1.4 0-.1-.6-.2-1.3-.2-.8 0-1.4.6-1.4 1.4zM189 231.5c0 .7 3 1.3 3.4.7.3-.4-.4-.9-1.5-.9-1-.1-1.9 0-1.9.2zM93 233.5c0 .5.5 1.7 1 2.5s1 1 1 .5c0-.6-.5-1.7-1-2.5s-1-1.1-1-.5zM180.5 239.1c-.4.5-.4 1.3-.1 1.6.3.4.6 0 .6-.8 0-1.1.2-1.1 1 .1.6.9 1 1 1 .3 0-1.7-1.7-2.5-2.5-1.2zM150.5 244c-.3.5-1.2.7-2 .3-.8-.3-1.5 0-1.5.5 0 1.9 1.8 2.3 3.4.7.8-.8 1.7-1.1 2-.6.3.5 1.5.7 2.7.4 1.5-.4 1.7-.8.8-1.4-.8-.5-1.7-.3-2.1.4-.6.9-.8.9-.8-.1 0-1.4-1.6-1.6-2.5-.2zM170 244c0 .5.7.7 1.5.4.8-.4 1.5-.8 1.5-1 0-.2-.7-.4-1.5-.4s-1.5.4-1.5 1zM158.8 245.7c.6.2 1.8.2 2.5 0 .6-.3.1-.5-1.3-.5-1.4 0-1.9.2-1.2.5zM163.6 246.2c.3.5 1 .6 1.5.3 1.3-.9 1.1-1.2-.6-1.2-.8 0-1.2.4-.9.9zM139.1 247.4c-.7.8-.8 1.7-.3 2 .6.3 1.5-.1 2.1-.8.7-.8.8-1.7.3-2-.6-.3-1.5.1-2.1.8zM129.6 251.2c.3.5 1 .6 1.5.3 1.3-.9 1.1-1.2-.6-1.2-.8 0-1.2.4-.9.9zM126.6 251.8c-.3.6.2 1.6 1.3 2.2 1.5.7 2.2.7 2.7-.2.4-.7.4-1-.1-.6-.4.4-1.3 0-2-.9-.8-1.1-1.4-1.2-1.9-.5zM124.6 255.8c-.3.5.1.9.9.9s1.5-.4 1.5-.9c0-.4-.4-.8-.9-.8-.6 0-1.2.4-1.5.8zM115.2 259c0 1.4.2 1.9.5 1.2.2-.6.2-1.8 0-2.5-.3-.6-.5-.1-.5 1.3zM117.3 259.5c0 .8.4 1.2.9.9.5-.3.6-1 .3-1.5-.9-1.3-1.2-1.1-1.2.6zM101.6 267.9c.9.9 3.4.9 3.4.1 0-.5-.9-.8-2-.7-1 .1-1.7.3-1.4.6zM99.5 270c.3.5.8 1 1.1 1 .2 0 .4-.5.4-1 0-.6-.5-1-1.1-1-.5 0-.7.4-.4 1zM86.5 279.9c-.6 1.1.9 2.3 1.9 1.4.9-.9.7-2.3-.3-2.3-.6 0-1.2.4-1.6.9zM83.6 283.5c-1.6 1.2-1.7 1.5-.4 1.5.9 0 1.8-.7 2.2-1.5.7-1.8.6-1.8-1.8 0zM80.5 287c-.3.6.1.7.9.4 1.8-.7 2.1-1.4.7-1.4-.6 0-1.3.4-1.6 1zM78.2 290.2c-1.5 1.5-1.5 2.8-.1 2.8.5 0 .8-.4.4-.9-.3-.6.3-1.4 1.2-2 1-.6 1.3-1.1.8-1.1-.6 0-1.6.5-2.3 1.2zM69.5 304c.3.5.8 1 1.1 1 .2 0 .4-.5.4-1 0-.6-.5-1-1.1-1-.5 0-.7.4-.4 1zM69.5 308.9c-.3.5-.2 1.2.3 1.5.5.3.9-.1.9-.9 0-1.7-.3-1.9-1.2-.6zM63 315.5c0 .7 3 1.3 3.4.7.3-.4-.4-.9-1.5-.9-1-.1-1.9 0-1.9.2zM62.5 319c-.3.6.1.7.9.4 1.8-.7 2.1-1.4.7-1.4-.6 0-1.3.4-1.6 1zM256.1 319.9c-.8.5-.9 1.1-.3 1.5.5.3 1.2-.1 1.6-.9.6-1.7.6-1.8-1.3-.6zM252.7 324.1c.7.7 1.5 1 1.8.7.3-.3-.2-.9-1.2-1.2-1.4-.6-1.5-.5-.6.5zM59.5 329.9c-.3.5-.2 1.2.3 1.5.5.3.9-.1.9-.9 0-1.7-.3-1.9-1.2-.6zM251.5 330.9c-.3.5-.2 1.2.3 1.5.5.3.9-.1.9-.9 0-1.7-.3-1.9-1.2-.6zM248.6 337.8c-.3.5.1.9.9.9s1.5-.4 1.5-.9c0-.4-.4-.8-.9-.8-.6 0-1.2.4-1.5.8zM232.5 356c-1.3 1.4-1.2 1.6.4 1.6 1.3 0 1.7-.5 1.3-1.6-.5-1.2-.3-1.3.9-.3 1.3 1 1.6 1 1.6 0 0-1.9-2.4-1.7-4.2.3zM232.5 360c.3.5.8 1 1.1 1 .2 0 .4-.5.4-1 0-.6-.5-1-1.1-1-.5 0-.7.4-.4 1zM225.4 364.1c-1.6 1.8-1.6 1.9-.1 1.3.9-.3 1.7-1 1.7-1.5 0-.6.9-.5 2 .1s2 .8 2 .6c0-.3-.8-1-1.9-1.5-1.4-.8-2.3-.6-3.7 1zM7.6 366.7c-.6 1.4-.5 1.5.5.6.7-.7 1-1.5.7-1.8-.3-.3-.9.2-1.2 1.2zM6 369.4c0 .2.8 1 1.8 1.7 1.5 1.3 1.6 1.2.3-.4S6 368.6 6 369.4zM221.6 372.7c-.6 1.4-.5 1.5.5.6.7-.7 1-1.5.7-1.8-.3-.3-.9.2-1.2 1.2zM216 374.2c-1 2.1-1 2.1.3.6.8-1 1.8-1.4 2.2-1 .5.4.5.1.1-.6-1-1.7-1.4-1.5-2.6 1zM7.7 374.7c-.4.3-.7 1.1-.7 1.7 0 .6.5.5 1.2-.2.6-.6.9-1.4.7-1.7-.3-.3-.9-.2-1.2.2zM215 378.1c0 .5.5.7 1 .4.6-.3 1-.8 1-1.1 0-.2-.4-.4-1-.4-.5 0-1 .5-1 1.1zM255.9 379.2c-.5 1.8-.6 3.8-.1 3.4.7-.8 1.2-3.6.6-3.6-.2 0-.4.1-.5.2zM208.2 381.9c-1 .6-1 1 .3 2.1s1.4 1 .9-.5c-.6-1.4-.4-1.6.6-1 .9.5 1.1.4.6-.3-.8-1.4-.7-1.4-2.4-.3zM9.5 386c.3.5.8 1 1.1 1 .2 0 .4-.5.4-1 0-.6-.5-1-1.1-1-.5 0-.7.4-.4 1zM203.8 386.7c.7.3 1.6.2 1.9-.1.4-.3-.2-.6-1.3-.5-1.1 0-1.4.3-.6.6zM497 396.1c0 .5.5.7 1 .4.6-.3 1-.8 1-1.1 0-.2-.4-.4-1-.4-.5 0-1 .5-1 1.1zM261.3 399.1c-.2 2.3.3 2.5 1 .4.4-.8.3-1.6-.1-1.9-.4-.3-.9.4-.9 1.5zM189 400c0 .5.5 1 1.1 1 .5 0 .7-.5.4-1-.3-.6-.8-1-1.1-1-.2 0-.4.4-.4 1zM186.7 402.4c-.4 1-.1 1.3.8.9.8-.3 1.2-.9.9-1.4-.7-1.2-1.1-1.1-1.7.5zM263 402.4c0 .2.8 1 1.8 1.7 1.5 1.3 1.6 1.2.3-.4s-2.1-2.1-2.1-1.3zM182 404.5c-.7.9-1 1.8-.7 2.1.3.3 1-.4 1.7-1.5 1.3-2.5.8-2.7-1-.6zM190.5 404c-.3.6.1.7.9.4 1.8-.7 2.1-1.4.7-1.4-.6 0-1.3.4-1.6 1zM183.6 406.5c-.9 2.6-.7 3.2.5 1.2.6-1 .9-2.1.6-2.3-.2-.3-.7.2-1.1 1.1zM491.3 407c.1 2.1 1 1.8 1.3-.5.1-.8-.2-1.5-.6-1.5-.5 0-.8.9-.7 2zM267.1 407.6c0 1.1.3 1.4.6.6.3-.7.2-1.6-.1-1.9-.3-.4-.6.2-.5 1.3zM19.5 408c.3.5.8 1 1.1 1 .2 0 .4-.5.4-1 0-.6-.5-1-1.1-1-.5 0-.7.4-.4 1zM179.4 409.5c0 1.3.3 2.2.7 1.9.8-.4.6-3-.2-3.8-.3-.3-.5.5-.5 1.9zM176 409.5c-.7.9-.8 1.5-.2 1.5.5 0 1.2-.7 1.6-1.5.3-.8.4-1.5.2-1.5s-.9.7-1.6 1.5zM171.6 412.9c-.3.5.1 1.1.9 1.4.9.4 1.2.1.8-.9-.6-1.6-1-1.7-1.7-.5zM23 413.8c0 .5.7.9 1.5.9s1.2-.4.9-.9c-.3-.4-.9-.8-1.5-.8-.5 0-.9.4-.9.8zM271.3 416.3c0 .8.6 1.4 1.3 1.4.7 0 1-.6.7-1.4-.3-.7-.8-1.3-1.2-1.3-.4 0-.8.6-.8 1.3zM484.5 416c-.3.5-.1 1 .4 1 .6 0 1.1-.5 1.1-1 0-.6-.2-1-.4-1-.3 0-.8.4-1.1 1zM272.6 419.8c-.3.5.1.9.9.9s1.2-.4.9-.9c-.3-.4-.7-.8-.9-.8-.2 0-.6.4-.9.8zM158.9 420.2c-.5 1.9-.8 5-.4 4.6.7-.7 1.5-4.8.9-4.8-.2 0-.4.1-.5.2zM165 421.4c0 .2.7.7 1.6 1 .8.3 1.2.2.9-.4-.6-1-2.5-1.4-2.5-.6zM155.5 423c.3.5.8 1 1.1 1 .2 0 .4-.5.4-1 0-.6-.5-1-1.1-1-.5 0-.7.4-.4 1zM28.6 424.2c.3.5 1 .6 1.5.3 1.3-.9 1.1-1.2-.6-1.2-.8 0-1.2.4-.9.9zM278 426.1c0 .5.5.7 1 .4.6-.3 1-.8 1-1.1 0-.2-.4-.4-1-.4-.5 0-1 .5-1 1.1zM33.6 427.3c.3 1 .9 1.5 1.2 1.2.3-.3 0-1.1-.7-1.8-1-.9-1.1-.8-.5.6zM39.3 429.3c0 1.2.1 1.6.4.8.5-1.1.7-1.1 1.4 0 .5.8.9.9.9.3 0-.6-.6-1.6-1.3-2.2-1-.8-1.3-.6-1.4 1.1zM279.6 427.8c-.3.5.1.9.9.9s1.2-.4.9-.9c-.3-.4-.7-.8-.9-.8-.2 0-.6.4-.9.8zM477 428c0 .5.5 1 1 1 .6 0 1-.5 1-1 0-.6-.4-1-1-1-.5 0-1 .4-1 1zM141 430.5c-.7.8-1.7 1.2-2.4.8-.6-.4-.5.1.3 1 1.6 2 2.2 2.2 1.9.6-.2-.6.3-1.4 1.1-1.7.8-.2 1.1 0 .8.5-.3.5 0 1 .8 1 1.2 0 1.2-.3.3-1.6-.7-.9-1.3-1.7-1.4-1.9-.1-.1-.7.4-1.4 1.3zM474.9 429.2c0 .2-.2 1.1-.4 2.1-.3 1.5-.1 1.6 1.1.6.7-.6 1.1-1.5.8-2-.5-.9-1.3-1.2-1.5-.7zM283.5 432.1c-.4.6-.5 1.2-.2 1.5.2.3.7-.2 1-1.1.7-1.7.1-2-.8-.4zM46.5 433.1c-1 1.5.3 2.5 1.6 1.2.7-.7.7-1.3.1-1.7-.6-.3-1.4-.1-1.7.5zM135.5 433c-.4.6-.3 1 .2.9 2.2-.4 2.4.3.7 2.3l-1.9 2.3 2.2-1.9c1.8-1.5 2-2.2 1.2-3.3-1.4-1.6-1.6-1.6-2.4-.3zM470.7 436.1c.7.7 1.5 1 1.8.7.3-.3-.2-.9-1.2-1.2-1.4-.6-1.5-.5-.6.5zM51.5 438c-.3.5-.1 1 .4 1 .6 0 1.1-.5 1.1-1 0-.6-.2-1-.4-1-.3 0-.8.4-1.1 1zM121.5 438c-.8 1.3.9 2 2.4 1.1 1-.6.9-1-.3-1.4-.8-.3-1.8-.2-2.1.3zM289 438.9c0 .6.4 1.3 1 1.6.6.3.7-.1.4-.9-.7-1.8-1.4-2.1-1.4-.7zM61.3 440.3c-.3.5 0 1.4.6 2 .9.9 1.1.7.5-.8-.5-1.6-.4-1.8.6-.8 1.2 1.1 4 .7 4-.6 0-1-5-.9-5.7.2zM112.5 439.9c-.3.5-.1 1.2.5 1.6.6.4.7 1.1.4 1.7-.4.7-.2.8.5.4.8-.6.9-1.2.2-2-.6-.7-.8-1.6-.4-1.9.3-.4.4-.7 0-.7-.3 0-.8.4-1.2.9zM293.3 441.6c.9 1.1 1.4 2.4 1 2.8-.4.4.1.4 1 0 1-.3 1.7-.7 1.5-.8-.2-.1-1.4-1-2.8-2.1l-2.5-2 1.8 2.1zM74.6 442.1c.2.4-.2 1-.8 1.3-.7.3-.3.3 1 0 1.4-.3 2.2-.1 2.2.7 0 .7.2 1 .5.7.9-.9-.5-3.5-2-3.5-.8 0-1.2.4-.9.8zM67 442.9c0 .6.4 1.2.8 1.5.5.3.9-.1.9-.9s-.4-1.5-.9-1.5c-.4 0-.8.4-.8.9zM81.2 443.2c.5 1.3 3.8 2 3.8.8 0-.4-.7-1.1-1.6-1.4-2.2-.9-2.6-.8-2.2.6zM99.4 444.4c.1.8.5 1.8.8 2.2.4.3.5-.1.4-1-.1-.8-.5-1.8-.8-2.2-.4-.3-.5.1-.4 1zM73.5 446c-.3.5-.1 1 .4 1 .6 0 1.1-.5 1.1-1 0-.6-.2-1-.4-1-.3 0-.8.4-1.1 1zM298.4 448.2c-.4.6-.3.8.4.4.6-.3 1.5.2 2.1 1.1.6 1.1 1.1 1.3 1.1.5 0-.7.5-1 1-.7.6.4.7 1.1.4 1.7-.4.7-.2.8.5.4.9-.6.9-1.1 0-2.2-.6-.7-1.5-1.1-2-.8-.5.3-.9 0-.9-.5 0-1.5-1.7-1.4-2.6.1zM456 448.9c0 .6.4 1.3 1 1.6.6.3.7-.1.4-.9-.7-1.8-1.4-2.1-1.4-.7zM445 455.9c0 .6.4 1.3 1 1.6.6.3.7-.1.4-.9-.7-1.8-1.4-2.1-1.4-.7zM311.3 458.5c0 .8.4 1.2.9.9.5-.3.6-1 .3-1.5-.9-1.3-1.2-1.1-1.2.6zM449.3 458.5c0 .8.4 1.2.9.9.5-.3.6-1 .3-1.5-.9-1.3-1.2-1.1-1.2.6zM442.6 459.6c-1.5 1.4-1.4 3.4.1 3.4.4 0 .3-.3 0-.7-.4-.3 0-1.5 1-2.5 2-2.2 1.1-2.4-1.1-.2zM433.3 463.6c-.3.8-.1 2 .5 2.6.8.8.9.4.5-1.2-.5-1.7-.3-2.1.7-1.5.9.5 1.1.4.6-.3-1-1.6-1.5-1.5-2.3.4zM327.1 464.3c-.1 2.1 2.1 1.8 2.7-.4.3-1.2.2-1.2-.6 0-.8 1.1-1 1.1-1.5 0-.4-1-.6-.8-.6.4zM427.2 464.2c-1.5 1.5-1.5 2.8 0 2.8.6 0 .8-.3.5-.7-.4-.3-.2-1.2.4-2 1.4-1.6.7-1.7-.9-.1zM430.2 464.2c-1.5 1.5-1.5 2.8 0 2.8.6 0 .8-.3.5-.7-.4-.3-.2-1.2.4-2 1.4-1.6.7-1.7-.9-.1zM437 463.9c0 .6.4 1.3 1 1.6.6.3.7-.1.4-.9-.7-1.8-1.4-2.1-1.4-.7zM329.4 467.1c-.3.6-.2 1.5.3 2s.9.1.9-1.1c0-2.3-.2-2.4-1.2-.9zM418 469.2c-1.3.8-1.2.9.1.5.9-.3 2.1-.1 2.7.5.6.6 1.2.5 1.7-.4.5-.7.5-1 0-.6-.4.4-1.3.4-1.9-.2-.7-.5-1.7-.5-2.6.2zM341.2 470.6c1 1 2 1.6 2.2 1.3.3-.3-.5-1.1-1.7-1.8-2.1-1.3-2.1-1.2-.5.5zM403.4 471c-.3.3-1.5.5-2.6.5-1.2 0-2.3.7-2.5 1.5-.3 1-.2 1.1.4.4.4-.6 1.7-1 2.8-.8 1.1.2 2.3-.2 2.7-.9.6-.9.8-.9.8 0 0 1.7 1.6 1.7 2.3 0 .5-1.2-2.8-1.9-3.9-.7zM415.5 471.9c-.3.5-.2 1.2.3 1.5.5.3.9-.1.9-.9 0-1.7-.3-1.9-1.2-.6zM383 473.8c0 1.2.3 1.2 1.5.2.8-.7 1.5-1.3 1.5-1.5 0-.1-.7-.2-1.5-.2s-1.5.7-1.5 1.5zM371.1 473.5c0 .5.3 1.6.8 2.3.7 1.1.9 1 1.4-.3.4-.9.3-1.4-.2-1-.5.3-1.2-.1-1.4-.7-.3-.7-.6-.9-.6-.3zM388 474.9c0 .6.4 1.3 1 1.6.6.3.7-.1.4-.9-.7-1.8-1.4-2.1-1.4-.7zM366 475.5c0 .7 3 1.3 3.4.7.3-.4-.4-.9-1.5-.9-1-.1-1.9 0-1.9.2z"/>
</svg>
