<svg id="Layer_1" data-name="Layer 1" xmlns="http://www.w3.org/2000/svg" width="86px" height="86px" viewBox="0 0 98 98"><defs><style>.cls-1{fill:#939393;}.cls-2{fill:#a3a3a3;}.cls-3{fill:#ff1a46;}</style></defs><title>icon-balc-colors</title><path class="cls-1" d="M97,1V97H1V1H97m1-1H0V98H98V0Z"/><path class="cls-2" d="M49.5,78.1h.3a6.6,6.6,0,1,0,0-13.2,4.23,4.23,0,0,1-4.2-4.2,3.24,3.24,0,0,1,.8-2.3A4.33,4.33,0,0,1,51,56.8l.2.1a5.1,5.1,0,0,1,3.5,3.2,7.85,7.85,0,0,0,7.2,4.8A16.25,16.25,0,0,0,78.1,49.1v-.5h0a29.1,29.1,0,0,0-58.2-.2,28.6,28.6,0,0,0,8.3,20.7A30.15,30.15,0,0,0,49.5,78.1ZM49,21.4A27.66,27.66,0,0,1,76.6,48.7,14.66,14.66,0,0,1,62,63.2a6.19,6.19,0,0,1-5.8-3.9,7.34,7.34,0,0,0-4.6-4.2h-.2a5.8,5.8,0,0,0-6.2,2.2,5.28,5.28,0,0,0-1,3.2,5.7,5.7,0,0,0,5.7,5.7,5.1,5.1,0,1,1,0,10.2h-.3a28.21,28.21,0,0,1-20.2-8.5,27.18,27.18,0,0,1-7.9-19.6A27.63,27.63,0,0,1,49,21.4Z"/><path class="cls-3" d="M50.5,36.2A4.5,4.5,0,1,0,46,31.7,4.48,4.48,0,0,0,50.5,36.2Zm0-7.6a3,3,0,0,1,3,3,3,3,0,1,1-6,0A3,3,0,0,1,50.5,28.6Z"/><path class="cls-3" d="M36.9,42.2a5.27,5.27,0,0,0,5.3-5.3,5.21,5.21,0,0,0-5.3-5.3,5.27,5.27,0,0,0-5.3,5.3A5.21,5.21,0,0,0,36.9,42.2Zm0-9.1a3.8,3.8,0,1,1-3.8,3.8A3.8,3.8,0,0,1,36.9,33.1Z"/><path class="cls-3" d="M39.1,52a6,6,0,1,0-6,6A6,6,0,0,0,39.1,52ZM28.6,52a4.5,4.5,0,1,1,4.5,4.5A4.48,4.48,0,0,1,28.6,52Z"/><path class="cls-3" d="M61.8,40.7A3.8,3.8,0,1,0,58,36.9,3.8,3.8,0,0,0,61.8,40.7Zm0-6A2.3,2.3,0,1,1,59.5,37,2.26,2.26,0,0,1,61.8,34.7Z"/></svg>
