<svg id="Layer_1" data-name="Layer 1" xmlns="http://www.w3.org/2000/svg" width="86px" height="86px" viewBox="0 0 99 99"><defs><style>.cls-1{fill:#8e8e8e;}.cls-2{fill:#a3a3a3;}.cls-3{fill:#ff1a46;}</style></defs><title>icon-alum</title><path class="cls-1" d="M99,99H0V0H99ZM1,98H98V1H1Z"/><path class="cls-2" d="M82.4,54.6a.81.81,0,0,0-.9.3L70.9,67.6h-1V55.3c0-.3-.2-.7-.5-.7a.81.81,0,0,0-.9.3L57,68.6a.76.76,0,0,0-.2.5V82.2a.74.74,0,0,0,.8.8H70.7a.37.37,0,0,0,.3-.1.1.1,0,0,0,.1-.1c.1-.1.1-.1.2-.1h0L82.8,68.9a.76.76,0,0,0,.2-.5V55.3A.73.73,0,0,0,82.4,54.6Zm-14.2,3V68.4a.74.74,0,0,0,.8.8h.8V81.3H58.4V69.4ZM81.3,68.1,71.5,79.9V69.4l.3-.3c.1-.1.3-.2.3-.4l9.2-11.2Z"/><path class="cls-3" d="M82.8,16.4h0a.54.54,0,0,0-.4-.3h-.1c-.1-.1-.1-.1-.2-.1H75.5a.6.6,0,0,0-.6.3L61.9,32H56.8V26.8l7.7-9.4a.76.76,0,0,0,.1-.9,1,1,0,0,0-.8-.5H57.2a.6.6,0,0,0-.6.3L46.3,28.8V17.3c0-.3-.2-.7-.5-.7a.81.81,0,0,0-.9.3l-15.7,19a.76.76,0,0,0-.2.5V48.7H18.5L33,30.9a.76.76,0,0,0,.2-.5V17.3c0-.3-.2-.7-.5-.7a.81.81,0,0,0-.9.3l-15.6,19a.76.76,0,0,0-.2.5V49.5c0,.1.1.3.1.4a.1.1,0,0,0,.1.1l.3.3h0c.1,0,.2.1.3.1H28.5l-12.3,15-.1.1-.1.1h0V82.1a.74.74,0,0,0,.8.8H41.3a.37.37,0,0,0,.3-.1l.1-.1c.1-.1.1-.1.2-.1h0l40.9-49a.76.76,0,0,0,.2-.5V16.8C83,16.7,82.9,16.6,82.8,16.4Zm-6.9,1.2h4.6L40.9,65H36.5ZM30.7,36.7,44.6,19.6V30L30.7,47.2Zm-13.1,0,14-17.1V30l-14,17.1Zm40-19.1H62L22.9,65H18.5Zm-40,49h5.8a.6.6,0,0,0,.6-.3L55.1,28.6v4.1a.74.74,0,0,0,.8.8h4.6L34.1,65.3a.76.76,0,0,0-.1.9c.2.3.4.5.7.5h5.7V81.4H17.6ZM81.3,32.9l-39.2,47V66.1l39.2-47Z"/><path class="cls-2" d="M34.7,68.3c-3.2,0-5.7,1.8-5.7,4.1s2.5,4.1,5.7,4.1,5.7-1.8,5.7-4.1S37.9,68.3,34.7,68.3Zm0,6.5c-2.2,0-4.1-1.1-4.1-2.5s1.9-2.5,4.1-2.5,4.1,1.1,4.1,2.5S37,74.8,34.7,74.8Z"/></svg>
