<svg id="Layer_1" data-name="Layer 1" xmlns="http://www.w3.org/2000/svg" width="86px" height="86px" viewBox="0 0 98 98"><defs><style>.cls-1{fill:#999;}.cls-2{fill:#a3a3a3;}.cls-3{fill:none;}.cls-4{fill:#ff1a44;}</style></defs><title>zashita-nepogody</title><path class="cls-1" d="M97,1V97H1V1H97m1-1H0V98H98V0Z"/><path class="cls-2" d="M57.1,59H28.4a11.2,11.2,0,1,1,0-22.4,15.46,15.46,0,0,1,3.1.4,12.57,12.57,0,0,1,12.1-9,12.8,12.8,0,0,1,12,8.7,8.6,8.6,0,0,1,1.6-.1A11.18,11.18,0,0,1,68.4,47.8,11.33,11.33,0,0,1,57.1,59ZM28.4,39.1a8.7,8.7,0,1,0,0,17.4H57.1a8.7,8.7,0,0,0,0-17.4,8.92,8.92,0,0,0-2.2.3l-1.3.3-.3-1.3a10.14,10.14,0,0,0-9.8-7.9,10,10,0,0,0-9.9,8.4l-.3,1.6-1.5-.6A7.73,7.73,0,0,0,28.4,39.1Z"/><path class="cls-2" d="M70.5,45.7V43.2a8.69,8.69,0,1,0-2.2-17.1l-1.3.3-.3-1.3a10.14,10.14,0,0,0-9.8-7.9A10,10,0,0,0,47,25.6l-.3,1.6-1.5-.6a8.42,8.42,0,0,0-3.5-.7A8.72,8.72,0,0,0,34,30.5l-2.2-1.2a11.29,11.29,0,0,1,9.9-5.9,15.46,15.46,0,0,1,3.1.4,12.57,12.57,0,0,1,12.1-9,12.8,12.8,0,0,1,12,8.7,8.6,8.6,0,0,1,1.6-.1,11.15,11.15,0,1,1,0,22.3Z"/><line class="cls-3" x1="29.5" y1="63" x2="21.8" y2="70.6"/><path class="cls-4" d="M21.8,71.6a.91.91,0,0,1-.7-.3,1,1,0,0,1,0-1.4l7.7-7.7a1,1,0,0,1,1.4,1.4l-7.7,7.7A.78.78,0,0,1,21.8,71.6Z"/><line class="cls-3" x1="37.5" y1="63.3" x2="22.7" y2="78"/><path class="cls-4" d="M22.7,79a.91.91,0,0,1-.7-.3,1,1,0,0,1,0-1.4L36.7,62.6A1,1,0,0,1,38.1,64L23.4,78.7A.91.91,0,0,1,22.7,79Z"/><line class="cls-3" x1="45.4" y1="63" x2="30.7" y2="77.7"/><path class="cls-4" d="M30.7,78.7a.91.91,0,0,1-.7-.3A1,1,0,0,1,30,77L44.7,62.3a1,1,0,0,1,1.4,1.4L31.4,78.4A1.08,1.08,0,0,1,30.7,78.7Z"/><line class="cls-3" x1="53.3" y1="63.3" x2="45.7" y2="71"/><path class="cls-4" d="M45.7,72a.91.91,0,0,1-.7-.3,1,1,0,0,1,0-1.4l7.7-7.7A1,1,0,0,1,54.1,64l-7.7,7.7A1.08,1.08,0,0,1,45.7,72Z"/><circle class="cls-4" cx="18" cy="74.3" r="0.4"/><path class="cls-4" d="M18,75.7a1.4,1.4,0,1,1,1.4-1.4A1.37,1.37,0,0,1,18,75.7Zm0-2a.6.6,0,1,0,.6.6A.65.65,0,0,0,18,73.7Z"/><circle class="cls-4" cx="18.4" cy="81.6" r="0.4"/><path class="cls-4" d="M18.4,83a1.4,1.4,0,1,1,1.4-1.4A1.37,1.37,0,0,1,18.4,83Zm0-2a.6.6,0,1,0,.6.6A.58.58,0,0,0,18.4,81Z"/><circle class="cls-4" cx="27.3" cy="81.6" r="0.4"/><path class="cls-4" d="M27.3,83a1.4,1.4,0,1,1,1.4-1.4A1.37,1.37,0,0,1,27.3,83Zm0-2a.6.6,0,1,0,.6.6A.53.53,0,0,0,27.3,81Z"/><circle class="cls-4" cx="41.6" cy="75.1" r="0.4"/><path class="cls-4" d="M41.6,76.5A1.4,1.4,0,1,1,43,75.1,1.37,1.37,0,0,1,41.6,76.5Zm0-2a.6.6,0,1,0,.6.6A.58.58,0,0,0,41.6,74.5Z"/><line class="cls-3" x1="83.3" y1="14.8" x2="43" y2="55"/><path class="cls-4" d="M43,55.9a.71.71,0,0,1-.6-.3,1,1,0,0,1,0-1.3L82.7,14A1,1,0,0,1,84,14a.93.93,0,0,1,0,1.3L43.6,55.6A.71.71,0,0,1,43,55.9Z"/></svg>
