<svg id="Слой_1" data-name="Слой 1" xmlns="http://www.w3.org/2000/svg" width="86px" height="86px" viewBox="0 0 99 99"><defs><style>.cls-1{fill:none;stroke:#8e8e8e;stroke-miterlimit:10;}.cls-2{fill:#999;}.cls-3{fill:#ff1a44;}</style></defs><title>icon-antiseptic</title><rect class="cls-1" x="0.5" y="0.5" width="98" height="98"/><path class="cls-2" d="M49.43,67.91c-1.22,0-1.65-1.86-1.79-2.44l-.14-.64c-.21-1-.64-1.58-1.07-1.58s-.93.43-1.43,1.07l-.43.57c-.79,1.15-1.5,1.65-2.15,1.65h0a1.19,1.19,0,0,1-.86-.36c-.43-.5-.5-1.29-.36-2.58l.07-.72A2.39,2.39,0,0,0,41,61.17a.65.65,0,0,0-.5-.21,3.11,3.11,0,0,0-1.43.57l-.57.36a4.18,4.18,0,0,1-2.15.86,1.26,1.26,0,0,1-1.07-.57c-.36-.57-.14-1.5.57-2.72l.36-.57c.43-.79.57-1.43.36-1.79a1.34,1.34,0,0,0-1-.36,3.49,3.49,0,0,0-.86.07l-.64.14a5.79,5.79,0,0,1-1.43.21c-1.07,0-1.43-.43-1.58-.86-.29-.72.21-1.58,1.43-2.58l.5-.43c.72-.57,1.07-1.22.93-1.58s-.72-.72-1.65-.86l-.72-.07c-.64-.07-2.51-.36-2.58-1.58s1.72-1.79,2.29-2l.64-.21c.86-.29,1.43-.72,1.5-1.15s-.43-.93-1.22-1.43L31.66,44c-.5-.29-2.15-1.22-1.86-2.36s1.86-1.07,2.36-1.07h1.22c.93.07,1.58-.14,1.79-.5s-.07-1-.64-1.72l-.43-.57c-.93-1.22-1.29-2.08-.93-2.72a1.31,1.31,0,0,1,1.22-.64,4.81,4.81,0,0,1,1.93.5l.64.29a3.53,3.53,0,0,0,1.29.36.76.76,0,0,0,.64-.29,2.47,2.47,0,0,0,0-1.79l-.21-.64a3.24,3.24,0,0,1-.07-2.72,1.16,1.16,0,0,1,.93-.43A3.83,3.83,0,0,1,41.76,31l.5.5a2.23,2.23,0,0,0,1.43.86c.57,0,.86-.93.93-1.72l.07-.72c.14-1.79.64-2.72,1.5-2.72s1.36.64,2,2.08l.29.64c.36.86.86,1.36,1.29,1.36s.93-.5,1.29-1.36l.29-.64c.64-1.43,1.29-2.08,2-2.08.93,0,1.43.93,1.5,2.72v.72c.07.86.29,1.79.93,1.79a2.41,2.41,0,0,0,1.43-.79l.5-.5A3.47,3.47,0,0,1,60,29.86a1,1,0,0,1,.93.5c.36.5.36,1.43-.07,2.72l-.29.64a2.23,2.23,0,0,0-.07,1.79c.29.36,1,.36,1.93-.07l.64-.29a4.81,4.81,0,0,1,1.93-.5,1.22,1.22,0,0,1,1.22.64c.29.64,0,1.5-1,2.72l-.43.5c-.57.72-.86,1.36-.64,1.72s.72.64,1.5.64h1.22c.57,0,2.22,0,2.51,1.07S68,44,67.49,44.33l-.57.36c-.79.43-1.29.93-1.22,1.36s.57.86,1.43,1.15l.64.21c.57.21,2.36.86,2.22,2S68,50.85,67.41,51l-.72.07c-.93.14-1.5.43-1.65.86s.21,1,.93,1.58l.5.43c1.22,1,1.65,1.86,1.43,2.58-.14.43-.57.86-1.58.86a6.32,6.32,0,0,1-1.5-.21L64.19,57a4.93,4.93,0,0,0-.93-.14c-.29,0-.79.07-.93.36s-.07,1,.36,1.79l.36.64c.72,1.29.86,2.15.5,2.72a1.14,1.14,0,0,1-1,.57A3.82,3.82,0,0,1,60.39,62l-.64-.36a3.11,3.11,0,0,0-1.43-.57.65.65,0,0,0-.5.21A2.33,2.33,0,0,0,57.53,63l.07.72c.14,1.29.07,2.15-.36,2.58a1.19,1.19,0,0,1-.86.36q-1,0-2.15-1.72l-.36-.57c-.5-.72-1-1.15-1.36-1.15s-.86.57-1.07,1.58l-.14.64c-.21.57-.72,2.44-1.86,2.44Zm-3.08-6.16c.57,0,1.93.29,2.51,2.72l.14.64a5.36,5.36,0,0,0,.36,1.15,8.11,8.11,0,0,0,.43-1.15l.14-.64c.57-2.36,1.93-2.65,2.51-2.65S54,62.1,55,63.54l.36.57a6.91,6.91,0,0,0,.79.93,6.43,6.43,0,0,0,0-1.22l-.07-.72a3.65,3.65,0,0,1,.57-2.79c.79-.93,2.29-.93,3.8.14l.57.43a4,4,0,0,0,1.07.57,4.1,4.1,0,0,0-.5-1.15l-.36-.64A3.32,3.32,0,0,1,61,56.44c.57-.93,1.79-1.29,3.44-.86l.64.14a2.64,2.64,0,0,0,1.22.14,3.12,3.12,0,0,0-.86-.86l-.5-.43c-1.58-1.36-1.58-2.51-1.36-3.08s.79-1.58,2.87-1.86l.72-.07a5,5,0,0,0,1.22-.29,4.6,4.6,0,0,0-1.15-.5l-.64-.21c-2-.72-2.36-1.79-2.44-2.36s.14-1.72,2-2.72l.57-.36a3.57,3.57,0,0,0,1-.72,5.13,5.13,0,0,0-1.22-.07h-.86c-1.93,0-2.65-.86-2.87-1.36s-.5-1.65.86-3.22l.43-.5a7.17,7.17,0,0,0,.72-1,4.6,4.6,0,0,0-1.15.36l-.64.29c-1.58.72-2.94.5-3.65-.43a3.2,3.2,0,0,1-.14-3.08l.21-.64a3.9,3.9,0,0,0,.29-1.22,3.5,3.5,0,0,0-.93.79l-.5.5A3.76,3.76,0,0,1,55.81,34c-1.07,0-2.22-.79-2.36-3.15v-.72a3.89,3.89,0,0,0-.14-1.22A5,5,0,0,0,52.65,30l-.29.64c-.86,1.86-2,2.15-2.58,2.15s-1.72-.29-2.58-2.22l-.29-.64a6,6,0,0,0-.57-1.07,6.39,6.39,0,0,0-.21,1.22l-.07.72c-.14,2.29-1.29,3.08-2.36,3.08a3.71,3.71,0,0,1-2.51-1.29l-.5-.5c-.43-.43-.79-.64-.93-.79A4.37,4.37,0,0,0,40,32.51l.21.64a3.46,3.46,0,0,1-.14,3.08c-.72.93-2.08,1.07-3.65.36l-.64-.29a4,4,0,0,0-1.22-.43,5.18,5.18,0,0,0,.64,1l.43.57c1.29,1.58,1.07,2.72.79,3.22S35.39,42.11,33.31,42h-.72a5.13,5.13,0,0,0-1.22.07,3.57,3.57,0,0,0,1,.72l.57.36c1.79,1.07,2,2.22,1.93,2.79s-.43,1.72-2.44,2.36l-.64.21a6.41,6.41,0,0,0-1.15.5,5,5,0,0,0,1.22.29l.72.07c2.08.29,2.65,1.36,2.79,1.93s.21,1.72-1.43,3.08l-.5.43a9,9,0,0,0-.86.86,4.22,4.22,0,0,0,1.22-.14l.64-.14c1.58-.36,2.87,0,3.44.93s.36,1.93-.36,3.22l-.36.57a9.19,9.19,0,0,0-.5,1.15,4,4,0,0,0,1.07-.57l.57-.36c1.58-1,3-1,3.8-.07a3.61,3.61,0,0,1,.57,2.87l-.07.72a10,10,0,0,0-.07,1.22,6.91,6.91,0,0,0,.79-.93l.43-.57C44.77,62,45.78,61.75,46.35,61.75Z"/><path class="cls-2" d="M49.43,67.91c-1.22,0-1.65-1.86-1.79-2.44l-.14-.64c-.21-1-.64-1.58-1.07-1.58s-.93.43-1.43,1.07l-.43.57c-.79,1.15-1.5,1.65-2.15,1.65h0a1.19,1.19,0,0,1-.86-.36c-.43-.5-.5-1.29-.36-2.58l.07-.72A2.39,2.39,0,0,0,41,61.17a.65.65,0,0,0-.5-.21,3.11,3.11,0,0,0-1.43.57l-.57.36a4.18,4.18,0,0,1-2.15.86,1.26,1.26,0,0,1-1.07-.57c-.36-.57-.14-1.5.57-2.72l.36-.57c.43-.79.57-1.43.36-1.79a1.34,1.34,0,0,0-1-.36,3.49,3.49,0,0,0-.86.07l-.64.14a5.79,5.79,0,0,1-1.43.21c-1.07,0-1.43-.43-1.58-.86-.29-.72.21-1.58,1.43-2.58l.5-.43c.72-.57,1.07-1.22.93-1.58s-.72-.72-1.65-.86l-.72-.07c-.64-.07-2.51-.36-2.58-1.58s1.72-1.79,2.29-2l.64-.21c.86-.29,1.43-.72,1.5-1.15s-.43-.93-1.22-1.43L31.66,44c-.5-.29-2.15-1.22-1.86-2.36s1.86-1.07,2.36-1.07h1.22c.93.07,1.58-.14,1.79-.5s-.07-1-.64-1.72l-.43-.57c-.93-1.22-1.29-2.08-.93-2.72a1.31,1.31,0,0,1,1.22-.64,4.81,4.81,0,0,1,1.93.5l.64.29a3.53,3.53,0,0,0,1.29.36.76.76,0,0,0,.64-.29,2.47,2.47,0,0,0,0-1.79l-.21-.64a3.24,3.24,0,0,1-.07-2.72,1.16,1.16,0,0,1,.93-.43A3.83,3.83,0,0,1,41.76,31l.5.5a2.23,2.23,0,0,0,1.43.86c.57,0,.86-.93.93-1.72l.07-.72c.14-1.79.64-2.72,1.5-2.72s1.36.64,2,2.08l.29.64c.36.86.86,1.36,1.29,1.36s.93-.5,1.29-1.36l.29-.64c.64-1.43,1.29-2.08,2-2.08.93,0,1.43.93,1.5,2.72v.72c.07.86.29,1.79.93,1.79a2.41,2.41,0,0,0,1.43-.79l.5-.5A3.47,3.47,0,0,1,60,29.86a1,1,0,0,1,.93.5c.36.5.36,1.43-.07,2.72l-.29.64a2.23,2.23,0,0,0-.07,1.79c.29.36,1,.36,1.93-.07l.64-.29a4.81,4.81,0,0,1,1.93-.5,1.22,1.22,0,0,1,1.22.64c.29.64,0,1.5-1,2.72l-.43.5c-.57.72-.86,1.36-.64,1.72s.72.64,1.5.64h1.22c.57,0,2.22,0,2.51,1.07S68,44,67.49,44.33l-.57.36c-.79.43-1.29.93-1.22,1.36s.57.86,1.43,1.15l.64.21c.57.21,2.36.86,2.22,2S68,50.85,67.41,51l-.72.07c-.93.14-1.5.43-1.65.86s.21,1,.93,1.58l.5.43c1.22,1,1.65,1.86,1.43,2.58-.14.43-.57.86-1.58.86a6.32,6.32,0,0,1-1.5-.21L64.19,57a4.93,4.93,0,0,0-.93-.14c-.29,0-.79.07-.93.36s-.07,1,.36,1.79l.36.64c.72,1.29.86,2.15.5,2.72a1.14,1.14,0,0,1-1,.57A3.82,3.82,0,0,1,60.39,62l-.64-.36a3.11,3.11,0,0,0-1.43-.57.65.65,0,0,0-.5.21A2.33,2.33,0,0,0,57.53,63l.07.72c.14,1.29.07,2.15-.36,2.58a1.19,1.19,0,0,1-.86.36q-1,0-2.15-1.72l-.36-.57c-.5-.72-1-1.15-1.36-1.15s-.86.57-1.07,1.58l-.14.64c-.21.57-.72,2.44-1.86,2.44Zm-3.08-6.16c.57,0,1.93.29,2.51,2.72l.14.64a5.36,5.36,0,0,0,.36,1.15,8.11,8.11,0,0,0,.43-1.15l.14-.64c.57-2.36,1.93-2.65,2.51-2.65S54,62.1,55,63.54l.36.57a6.91,6.91,0,0,0,.79.93,6.43,6.43,0,0,0,0-1.22l-.07-.72a3.65,3.65,0,0,1,.57-2.79c.79-.93,2.29-.93,3.8.14l.57.43a4,4,0,0,0,1.07.57,4.1,4.1,0,0,0-.5-1.15l-.36-.64A3.32,3.32,0,0,1,61,56.44c.57-.93,1.79-1.29,3.44-.86l.64.14a2.64,2.64,0,0,0,1.22.14,3.12,3.12,0,0,0-.86-.86l-.5-.43c-1.58-1.36-1.58-2.51-1.36-3.08s.79-1.58,2.87-1.86l.72-.07a5,5,0,0,0,1.22-.29,4.6,4.6,0,0,0-1.15-.5l-.64-.21c-2-.72-2.36-1.79-2.44-2.36s.14-1.72,2-2.72l.57-.36a3.57,3.57,0,0,0,1-.72,5.13,5.13,0,0,0-1.22-.07h-.86c-1.93,0-2.65-.86-2.87-1.36s-.5-1.65.86-3.22l.43-.5a7.17,7.17,0,0,0,.72-1,4.6,4.6,0,0,0-1.15.36l-.64.29c-1.58.72-2.94.5-3.65-.43a3.2,3.2,0,0,1-.14-3.08l.21-.64a3.9,3.9,0,0,0,.29-1.22,3.5,3.5,0,0,0-.93.79l-.5.5A3.76,3.76,0,0,1,55.81,34c-1.07,0-2.22-.79-2.36-3.15v-.72a3.89,3.89,0,0,0-.14-1.22A5,5,0,0,0,52.65,30l-.29.64c-.86,1.86-2,2.15-2.58,2.15s-1.72-.29-2.58-2.22l-.29-.64a6,6,0,0,0-.57-1.07,6.39,6.39,0,0,0-.21,1.22l-.07.72c-.14,2.29-1.29,3.08-2.36,3.08a3.71,3.71,0,0,1-2.51-1.29l-.5-.5c-.43-.43-.79-.64-.93-.79A4.37,4.37,0,0,0,40,32.51l.21.64a3.46,3.46,0,0,1-.14,3.08c-.72.93-2.08,1.07-3.65.36l-.64-.29a4,4,0,0,0-1.22-.43,5.18,5.18,0,0,0,.64,1l.43.57c1.29,1.58,1.07,2.72.79,3.22S35.39,42.11,33.31,42h-.72a5.13,5.13,0,0,0-1.22.07,3.57,3.57,0,0,0,1,.72l.57.36c1.79,1.07,2,2.22,1.93,2.79s-.43,1.72-2.44,2.36l-.64.21a6.41,6.41,0,0,0-1.15.5,5,5,0,0,0,1.22.29l.72.07c2.08.29,2.65,1.36,2.79,1.93s.21,1.72-1.43,3.08l-.5.43a9,9,0,0,0-.86.86,4.22,4.22,0,0,0,1.22-.14l.64-.14c1.58-.36,2.87,0,3.44.93s.36,1.93-.36,3.22l-.36.57a9.19,9.19,0,0,0-.5,1.15,4,4,0,0,0,1.07-.57l.57-.36c1.58-1,3-1,3.8-.07a3.61,3.61,0,0,1,.57,2.87l-.07.72a10,10,0,0,0-.07,1.22,6.91,6.91,0,0,0,.79-.93l.43-.57C44.77,62,45.78,61.75,46.35,61.75Z"/><path class="cls-2" d="M51.36,53.65a.54.54,0,0,1-.29-.07.75.75,0,0,1-.43-.93l2.58-6.88a.73.73,0,1,1,1.36.5L52,53.15A.69.69,0,0,1,51.36,53.65Z"/><path class="cls-2" d="M39.54,48.06a.78.78,0,0,1-.72-.5c-.21-.72-.72-3.15.43-4q.86-.64,2.36.21c3.44,2.08,5.59,2,6.31,1.58a.45.45,0,0,0,.29-.43c0-.29-.36-.93-1.36-1.5-3.08-1.79-4.66-4.44-4.59-6.09a1.7,1.7,0,0,1,.93-1.58c.57-.29,1.58-.29,3.15.86,3.51,2.65,6.09,3.08,6.52,2.79,0,0,0-.79-2.36-2.94a.71.71,0,0,1,.93-1.07c2.51,2.29,3.37,3.94,2.51,4.94-1.29,1.5-5.3-.21-8.46-2.58-1-.79-1.58-.79-1.65-.72s-.07.14-.07.29c-.07,1.07,1.15,3.22,3.87,4.8,1.36.79,2.08,1.72,2.08,2.72a1.77,1.77,0,0,1-1.07,1.65c-1.29.72-4,.64-7.74-1.65-.57-.36-.79-.29-.79-.29a4.43,4.43,0,0,0,.14,2.51.74.74,0,0,1-.5.86C39.61,48.06,39.61,48.06,39.54,48.06Z"/><path class="cls-2" d="M61.68,45.27a1.33,1.33,0,0,1-.5-.14L57.45,41.9a.71.71,0,0,1,.93-1.07L62.11,44a.7.7,0,0,1,.07,1A1.07,1.07,0,0,1,61.68,45.27Z"/><path class="cls-2" d="M41.48,55.15h-.21a.68.68,0,0,1-.5-.86l1.15-4.37a.7.7,0,0,1,1.36.36l-1.15,4.37A.58.58,0,0,1,41.48,55.15Z"/><path class="cls-2" d="M46.42,57.59a.75.75,0,0,1-.64-.36c-1.36-2.58.86-6.88.93-7.09a.69.69,0,0,1,1.22.64c-.57,1.07-1.79,4.16-.93,5.8a.63.63,0,0,1-.29.93A.43.43,0,0,1,46.42,57.59Z"/><path class="cls-2" d="M53.73,58.31a.69.69,0,0,1-.64-.5.75.75,0,0,1,.43-.93c1-.36,3.8-1.58,4.59-3.15a2,2,0,0,0,.07-1.58.73.73,0,1,1,1.36-.5,3.29,3.29,0,0,1-.07,2.72c-1.15,2.51-5.23,3.87-5.45,3.94S53.8,58.31,53.73,58.31Z"/><path class="cls-3" d="M81.36,51.24l-4.26-29a1.21,1.21,0,0,0-.41-.76,25.53,25.53,0,0,0-2.25-1.66,1.46,1.46,0,0,0-.37-.7,1.47,1.47,0,0,0-1.38-.38,48.77,48.77,0,0,0-16.15-5.51,1.21,1.21,0,1,0-.38,2.39,47.51,47.51,0,0,1,14.48,4.8l-28.2,28.2a1.5,1.5,0,1,0,2.12,2.12L73.29,22c.48.32.94.65,1.36,1l.16.12L79,51.46c0,12.69-5,17.78-10.34,21.4a73.3,73.3,0,0,1-7.79,4.35,64.83,64.83,0,0,0-11,6.57L49.5,84l-.31-.24a64.83,64.83,0,0,0-11-6.57,73.3,73.3,0,0,1-7.79-4.35A26.72,26.72,0,0,1,26,69.3l13-13a1.5,1.5,0,0,0-2.12-2.12L24.11,67C21.69,63.54,20,58.76,20,51.46v-.13l4.16-28.18.16-.12c5-3.93,15.26-7.91,25.15-7.91a1.31,1.31,0,0,0,.86-.34,1.19,1.19,0,0,0,.36-.85,1.21,1.21,0,0,0-1.19-1.22l0-.5v.5c-11.42,0-22.1,4.56-27.19,8.8a1.19,1.19,0,0,0-.41.75l-4.26,29a1.18,1.18,0,0,0,0,.19c0,7.14,1.61,12.81,5,17.36A1.48,1.48,0,0,0,24,70.71l.14,0A27,27,0,0,0,29,74.85a79,79,0,0,0,8.58,4.8c4,2,7.85,4,11.11,6.76a1.21,1.21,0,0,0,1.58,0c3.27-2.8,7.08-4.73,11.12-6.77A79.08,79.08,0,0,0,70,74.85c7.77-5.23,11.39-12.68,11.39-23.44A1.51,1.51,0,0,0,81.36,51.24Z"/></svg>