<svg id="Layer_1" data-name="Layer 1" xmlns="http://www.w3.org/2000/svg" width="50px" height="50px" viewBox="0 0 60 60"><defs><style>.cls-1{fill:gray;}.cls-2{fill:#ff1a44;}</style></defs><title>icon-wood-2-listv</title><path class="cls-1" d="M59,1V59H1V1H59m1-1H0V60H60V0Z"/><path class="cls-2" d="M49.5,48.2h0l-7-12.3h3.2a1.1,1.1,0,0,0,1-.6.9.9,0,0,0-.1-1.1L37.8,21.1h1.5a1.1,1.1,0,0,0,1-.6,1.06,1.06,0,0,0-.1-1.2L31,6.7l-.1-.1-.1-.1-.1-.1h-.9a.35.35,0,0,1-.2.1l-.1.1a.1.1,0,0,0-.1.1l-.1.1L20.2,19.4a1.26,1.26,0,0,0-.1,1.2,1.1,1.1,0,0,0,1,.6h1.5L13.8,34.3a1.07,1.07,0,0,0,.9,1.7h3.2l-7,12.3a1.06,1.06,0,0,0,.1,1.2,1.05,1.05,0,0,0,.9.5h.2l17-2.6v5.2a1.1,1.1,0,1,0,2.2,0V47.4l17,2.6h.2a1.05,1.05,0,0,0,.9-.5A1.24,1.24,0,0,0,49.5,48.2ZM29.1,20.9v6.4l-2.5-2.1a1.22,1.22,0,0,0-1.6.1,1.14,1.14,0,0,0-.3.8,1.23,1.23,0,0,0,.4.8L29,30.2v4.1l-2.5-2.1a1.22,1.22,0,0,0-1.6.1,1.14,1.14,0,0,0-.3.8,1.23,1.23,0,0,0,.4.8l3.9,3.3v4.1l-2.5-2.1a1.22,1.22,0,0,0-1.6.1,1.14,1.14,0,0,0-.3.8,1.23,1.23,0,0,0,.4.8l3.9,3.3V45L14,47.3l6.8-11.9a1.08,1.08,0,0,0,0-1.1,1.23,1.23,0,0,0-1-.5H16.7l8.8-13.1a1.42,1.42,0,0,0,.1-1.1,1.1,1.1,0,0,0-1-.6H23.2l7-9.6,7,9.6H35.8a1.1,1.1,0,0,0-1,.6.9.9,0,0,0,.1,1.1l8.8,13.1H40.6a1.23,1.23,0,0,0-1,.5,1.08,1.08,0,0,0,0,1.1l6.8,11.9L31.3,45v-.9l3.9-3.3a1.23,1.23,0,0,0,.4-.8,1.14,1.14,0,0,0-.3-.8,1.12,1.12,0,0,0-1.6-.1l-2.5,2.1V37.1l3.9-3.3a1.23,1.23,0,0,0,.4-.8,1.14,1.14,0,0,0-.3-.8,1.12,1.12,0,0,0-1.6-.1l-2.5,2.1V30.1L35,26.8a1.23,1.23,0,0,0,.4-.8,1.14,1.14,0,0,0-.3-.8,1.12,1.12,0,0,0-1.6-.1L31,27.2V20.8a1.11,1.11,0,0,0-1.1-1.1C29.6,19.7,29.1,20.2,29.1,20.9Z"/></svg>
