<svg id="Layer_1" data-name="Layer 1" xmlns="http://www.w3.org/2000/svg" width="50px" height="50px" viewBox="0 0 60 60"><defs><style>.cls-1{fill:gray;}.cls-2{fill:#ff1a44;}</style></defs><title>icon-wood-sosna</title><path class="cls-1" d="M59,1V59H1V1H59m1-1H0V60H60V0Z"/><path class="cls-2" d="M47.8,31.7,30.5,6.6a1.34,1.34,0,0,0-2,0L11.1,31.7a1.06,1.06,0,0,0-.1,1.2,1.15,1.15,0,0,0,1.1.6H28.5V50.3H25.3a1.2,1.2,0,1,0,0,2.4h8.8a1.2,1.2,0,1,0,0-2.4H30.8V43.7a.71.71,0,0,0,.6-.3L35,39.8a1.2,1.2,0,0,0-1.7-1.7l-2.5,2.5V33.5H46.7a1.25,1.25,0,0,0,1.1-.6A1.05,1.05,0,0,0,47.8,31.7Zm-16.9-.5V25.8a.71.71,0,0,0,.6-.3l3.6-3.6a1.2,1.2,0,1,0-1.7-1.7l-2.5,2.5V18a1.2,1.2,0,1,0-2.4,0v7.5l-3-3a1.2,1.2,0,0,0-1.7,1.7l4.6,4.6v2.3h-14L29.5,9.3,44.6,31.1H30.9Z"/></svg>
