<svg id="Layer_1" data-name="Layer 1" xmlns="http://www.w3.org/2000/svg" width="120px" height="120px" viewBox="0 0 70.95 70.95"><defs><style>.cls-1{fill:#a2a2a2;}.cls-2{fill:#b9b9b9;}.cls-3{fill:#ff1a44;}</style></defs><title>icon-quick</title><path class="cls-1" d="M70.95,70.95H0V0H70.95ZM.72,70.23H70.23V.72H.72Z"/><path class="cls-2" d="M58.84,33.11l-3.15-.72V26.95a1.21,1.21,0,0,0-1.22-1.22H50.74V23.36a1.21,1.21,0,0,0-1.22-1.22H45.08a1.21,1.21,0,0,0-1.22,1.22v8.81H27.16V23.36a1.21,1.21,0,0,0-1.22-1.22H21.5a1.21,1.21,0,0,0-1.22,1.22v2.36H16.55a1.21,1.21,0,0,0-1.22,1.22v5.45l-3.15.72a.84.84,0,0,0-.64.79v3.15a.84.84,0,0,0,.64.79l3.15.72V44a1.21,1.21,0,0,0,1.22,1.22h3.73v2.37A1.21,1.21,0,0,0,21.5,48.8h4.44a1.21,1.21,0,0,0,1.22-1.22V38.77H43.79v8.82A1.21,1.21,0,0,0,45,48.8h4.44a1.21,1.21,0,0,0,1.22-1.22V45.22h3.73A1.21,1.21,0,0,0,55.61,44V38.56l3.15-.72a.84.84,0,0,0,.65-.79V33.9A.67.67,0,0,0,58.84,33.11Zm-45.72,3.3V34.54l2.15-.5v2.87Zm3.8,7.24V27.38h3.3V43.72h-3.3Zm8.6,3.58H21.86V23.79h3.65V47.23Zm1.65-10.11v-3.3H43.79v3.3ZM49.09,47.23H45.44V23.72h3.65V47.23ZM54,43.64h-3.3V27.3H54V43.64Zm3.8-7.24-2.15.5V34l2.15.5Z"/><path class="cls-3" d="M16.91,43.64V27.38h3.3V43.72h-3.3Zm8.6,3.58H21.86V23.79h3.65V47.23ZM15.26,38.56V44a1.21,1.21,0,0,0,1.22,1.22h3.73v2.37a1.21,1.21,0,0,0,1.22,1.22h4.44a1.21,1.21,0,0,0,1.22-1.22V23.36a1.21,1.21,0,0,0-1.22-1.22H21.43a1.21,1.21,0,0,0-1.22,1.22v2.36H16.48a1.21,1.21,0,0,0-1.22,1.22V38.56Z"/><path class="cls-3" d="M54,43.64h-3.3V27.3H54V43.64Zm-8.6-5.73V23.72h3.65V47.16H45.44Zm10.25-1v-10a1.21,1.21,0,0,0-1.22-1.22H50.74V23.36a1.21,1.21,0,0,0-1.22-1.22H45.08a1.21,1.21,0,0,0-1.22,1.22V47.59a1.21,1.21,0,0,0,1.22,1.22h4.44a1.21,1.21,0,0,0,1.22-1.22V45.22h3.73A1.21,1.21,0,0,0,55.68,44v-7.1Z"/></svg>
