<svg id="Layer_1" data-name="Layer 1" xmlns="http://www.w3.org/2000/svg" width="86px" height="86px" viewBox="0 0 99 99"><defs><style>.cls-1{fill:none;stroke:#8e8e8e;stroke-miterlimit:10;}.cls-2{fill:#ff1a44;}.cls-3{fill:#999;}</style></defs><title>icon-good-price</title><rect class="cls-1" x="0.5" y="0.5" width="98" height="98"/><path class="cls-2" d="M65,20.5a13.1,13.1,0,0,0-10.3,4.9,1.35,1.35,0,1,0,2.1,1.7A10.44,10.44,0,0,1,65,23.2a10.6,10.6,0,0,1,0,21.2A10.48,10.48,0,0,1,57.2,41a1.35,1.35,0,0,0-2,1.8h0a14,14,0,0,0,3.3,2.6,3.63,3.63,0,1,1,.4-5.5,3.53,3.53,0,0,1,.8,1.3,1.39,1.39,0,0,0,2.6-1h0A6.36,6.36,0,0,0,60.9,38a6.44,6.44,0,0,0-4.5-1.8A6.61,6.61,0,0,0,51.9,38a6.36,6.36,0,0,0,9,9l.4-.4a12.09,12.09,0,0,0,3.8.6,17.85,17.85,0,0,0,2.3-.2v3.9l-24,24L24.1,55.5l24-24H60.3l6.9,6.9v2.5a1.35,1.35,0,0,0,2.7.1V37.8a1.28,1.28,0,0,0-.4-1l-7.7-7.7a1.28,1.28,0,0,0-1-.4H47.5a1.78,1.78,0,0,0-1,.4L21.2,54.5a1.39,1.39,0,0,0,0,1.9h0L42.3,77.5a1.39,1.39,0,0,0,1.9,0h0L69.6,52.1a1.78,1.78,0,0,0,.4-1V45.9a13.17,13.17,0,0,0-5-25.4Z"/><path class="cls-3" d="M47.2,44.2H47a1.23,1.23,0,0,0-.8.4l-13.9,14a1.34,1.34,0,0,0,1.9,1.9h0l14-14a1.4,1.4,0,0,0,.1-1.9,2.46,2.46,0,0,0-1.1-.4Z"/><path class="cls-3" d="M53,50.2a1.23,1.23,0,0,0-.8.4l-14,14a1.34,1.34,0,0,0,1.9,1.9L54,52.5a1.39,1.39,0,0,0,0-1.9,1.28,1.28,0,0,0-1-.4Z"/></svg>
