<svg id="Layer_1" data-name="Layer 1" xmlns="http://www.w3.org/2000/svg" viewBox="0 0 52 52"><defs><style>.cls-1{fill:gray;}.cls-2{fill:#ff1a44;}</style></defs><title>icon-wood-2</title><path class="cls-1" d="M51.13.87V51.13H.87V.87H51.13M52,0H0V52H52V0Z"/><path class="cls-2" d="M42.9,41.77h0L36.83,31.11h2.77a1,1,0,0,0,.87-.52.78.78,0,0,0-.09-1L32.76,18.29h1.3a1,1,0,0,0,.87-.52.92.92,0,0,0-.09-1l-8-10.92-.09-.09-.09-.09-.09-.09h-.78a.3.3,0,0,1-.17.09l-.09.09a.08.08,0,0,0-.09.09l-.09.09L17.51,16.81a1.09,1.09,0,0,0-.09,1,1,1,0,0,0,.87.52h1.3L12,29.73a.93.93,0,0,0,.78,1.47h2.77L9.45,41.86a.92.92,0,0,0,.09,1,.91.91,0,0,0,.78.43h.17l14.73-2.25v4.51a1,1,0,0,0,1.91,0V41.08l14.73,2.25H42a.91.91,0,0,0,.78-.43A1.08,1.08,0,0,0,42.9,41.77ZM25.22,18.11v5.55l-2.17-1.82a1.05,1.05,0,0,0-1.39.09,1,1,0,0,0-.26.69,1.07,1.07,0,0,0,.35.69l3.38,2.86v3.55L23,27.91a1.05,1.05,0,0,0-1.39.09,1,1,0,0,0-.26.69,1.07,1.07,0,0,0,.35.69L25,32.24v3.55L22.88,34a1.05,1.05,0,0,0-1.39.09,1,1,0,0,0-.26.69,1.07,1.07,0,0,0,.35.69L25,38.31V39L12.13,41,18,30.68a.94.94,0,0,0,0-1,1.07,1.07,0,0,0-.87-.43H14.47L22.1,17.94a1.23,1.23,0,0,0,.09-1,1,1,0,0,0-.87-.52H20.11l6.07-8.32,6.07,8.32H31a1,1,0,0,0-.87.52.78.78,0,0,0,.09,1l7.63,11.35H35.19a1.07,1.07,0,0,0-.87.43.94.94,0,0,0,0,1L40.21,41,27.13,39v-.78l3.38-2.86a1.07,1.07,0,0,0,.35-.69,1,1,0,0,0-.26-.69,1,1,0,0,0-1.39-.09L27,35.71V32.15l3.38-2.86a1.07,1.07,0,0,0,.35-.69,1,1,0,0,0-.26-.69,1,1,0,0,0-1.39-.09L27,29.64V26.09l3.38-2.86a1.07,1.07,0,0,0,.35-.69,1,1,0,0,0-.26-.69A1,1,0,0,0,29,21.75l-2.17,1.82V18a1,1,0,0,0-1-1C25.65,17.07,25.22,17.51,25.22,18.11Z"/></svg>