<svg id="Layer_1" data-name="Layer 1" xmlns="http://www.w3.org/2000/svg" width="120px" height="120px" viewBox="0 0 99 99"><defs><style>.cls-1{fill:none;stroke:#a2a2a2;stroke-miterlimit:10;}.cls-2{fill:#ff1a44;}.cls-3{fill:#b9b9b9;}</style></defs><title>icon-good-job</title><rect class="cls-1" x="0.5" y="0.5" width="98" height="98"/><path class="cls-2" d="M77.7,46.3A4.53,4.53,0,0,0,73.1,42H57.9l1.7-12.5v-.2a3.65,3.65,0,0,0-3.7-3.5h-.2a3.76,3.76,0,0,0-3.4,2.7L44.6,44.8l-1.8.7a2,2,0,0,0-1.4,2V67.9A2.05,2.05,0,0,0,43.5,70l20.2-.3h1.7a4.54,4.54,0,0,0,4.5-4,4.68,4.68,0,0,0-.5-2.6,4.4,4.4,0,0,0,3.1-3.7,4.68,4.68,0,0,0-.5-2.6,4.4,4.4,0,0,0,3.1-3.7,4.19,4.19,0,0,0-.5-2.5A4.33,4.33,0,0,0,77.7,46.3Zm-5.4,2.5a1,1,0,0,0-1,1,1.05,1.05,0,0,0,.5.9,2.35,2.35,0,0,1-1.2,4.4h-.8a1,1,0,0,0-1,1,1.05,1.05,0,0,0,.5.9,2.37,2.37,0,0,1,1.2,2.3,2.46,2.46,0,0,1-2.4,2.1h-.8a1,1,0,0,0-1,1,1.05,1.05,0,0,0,.5.9A2.37,2.37,0,0,1,68,65.6a2.46,2.46,0,0,1-2.4,2.1h0l-22.1.2V47.4l2.3-.8a1,1,0,0,0,.6-.5l7.9-16.8c0-.1.1-.1.1-.2A1.62,1.62,0,0,1,56,27.9h.4a1.48,1.48,0,0,1,1.2,1.4L55.8,43a1.2,1.2,0,0,0,.2.8,1,1,0,0,0,.7.4H73.2a2.41,2.41,0,0,1,2.4,2.3,2.35,2.35,0,0,1-2.3,2.4h-1Z"/><path class="cls-3" d="M35.7,44.1H24.5a3.29,3.29,0,0,0-3.2,3.2V70a3.22,3.22,0,0,0,3.2,3.2H35.8A3.22,3.22,0,0,0,39,70V47.3a3.1,3.1,0,0,0-.9-2.2A3.69,3.69,0,0,0,35.7,44.1ZM24.5,46.5H35.8a.86.86,0,0,1,.8.8V70a.79.79,0,0,1-.8.8H24.5a.86.86,0,0,1-.8-.8V47.3a.79.79,0,0,1,.8-.8v0Z"/><circle class="cls-3" cx="28.5" cy="65.8" r="1.7"/></svg>
