<svg id="Слой_1" data-name="Слой 1" xmlns="http://www.w3.org/2000/svg" xmlns:xlink="http://www.w3.org/1999/xlink" width="50px" height="50px" viewBox="0 0 98.37 98.59"><defs><style>.cls-1{fill:none;}.cls-2{fill:gray;}.cls-3{clip-path:url(#clip-path);}.cls-4{fill:#ff1a44;}</style><clipPath id="clip-path" transform="translate(5.27 11.45)"><rect id="SVGID" class="cls-1" x="6" y="6" width="48" height="48"/></clipPath></defs><title>icon-wood-texture</title><path class="cls-2" d="M58.8,1.2V58.8H1.2V1.2H58.8M60,0H0V60H60V0Z" transform="translate(5.27 11.45)"/><g class="cls-3"><path class="cls-4" d="M20.3,31.1a1.5,1.5,0,0,1-1.2-.5,1.93,1.93,0,0,1,0-1.5,33.92,33.92,0,0,1,4.5-7.2c2.3-2.5,6.3-5,8.9-5,1.7,0,3.7.7,4.3,2a2.16,2.16,0,0,1-.5,2.4c-.2.3-.5.6-.7.9-1.9,2.3-4.7,5.8-8,6.7-.8.2-1.8.6-2.7.9A14.8,14.8,0,0,1,20.3,31.1ZM32.6,17.8c-2.4,0-6.1,2.4-8.3,4.7a32.78,32.78,0,0,0-4.3,7c-.2.4-.2.6-.1.7s.2.1.5.1A15.94,15.94,0,0,0,24.9,29c.9-.3,1.9-.7,2.7-.9,3-.9,5.8-4.2,7.5-6.5a5.5,5.5,0,0,0,.7-.9c.4-.5.6-1,.3-1.4C35.7,18.5,34.1,17.8,32.6,17.8Z" transform="translate(5.27 11.45)"/><path class="cls-4" d="M16,36.9a1.75,1.75,0,0,1-1.5-.6c-.5-.6-.5-1.5-.2-2.9v-.1c1.5-6.1,2.1-8.7,7.5-13.2,6.4-5.3,9.8-6.9,14.8-7.2a3.66,3.66,0,0,1,3.9,2.2c1.2,2.7-.6,7.1-4.4,11.1-5.9,6.2-7.2,6.5-10.4,7.5l-1,.3c-1,.3-2.1.8-3.3,1.3C19.4,36.1,17.4,36.9,16,36.9ZM36.9,13.7h-.3c-4.7.3-8.1,1.9-14.3,7-5.2,4.3-5.8,6.6-7.2,12.7v.1c-.3,1.4-.2,2,0,2.2a1.08,1.08,0,0,0,.9.3,14.68,14.68,0,0,0,5-1.7c1.2-.5,2.4-1.1,3.4-1.4l1.1-.3c3.1-.9,4.3-1.2,10.1-7.2,4.4-4.6,5-8.3,4.2-10.1A3,3,0,0,0,36.9,13.7Z" transform="translate(5.27 11.45)"/><path class="cls-4" d="M9.6,45.3a1.43,1.43,0,0,1-1.1-.5c-.5-.6-.6-1.7-.4-3.5.9-7.5,5.1-15.4,8.8-20A35.45,35.45,0,0,1,32.4,10c3.8-1.4,8-2.9,11-2.9,1.6,0,2.8.4,3.4,1.3.7,1.1.7,2.7-.1,4.9C43.2,23,35.6,34.6,24.8,38.2A58,58,0,0,0,14.6,43C12.3,44.4,10.7,45.3,9.6,45.3ZM43.4,8.1c-2.8,0-7,1.4-10.7,2.8a34.23,34.23,0,0,0-15.1,11C13.9,26.4,9.8,34.1,9,41.4c-.2,1.5-.1,2.5.2,2.8a.59.59,0,0,0,.5.2c.9,0,2.5-.9,4.5-2.1a53.7,53.7,0,0,1,10.4-4.9C35.2,34,42.7,22.1,46,13.1c.7-1.9.8-3.3.2-4.1A3.77,3.77,0,0,0,43.4,8.1Z" transform="translate(5.27 11.45)"/><path class="cls-4" d="M-4.8,64c-.1,0-.2,0-.2-.1-.2-.1-.2-.4-.1-.6A47,47,0,0,1,12.7,47.9c3.8-1.9,6.9-3.3,9.6-4.5,5.3-2.4,9.1-4.1,12.9-7.2,5.9-4.9,12.6-13.1,14.2-20.4.5-2.1.8-3.8,1.1-5.3.7-3.9,1.1-6.1,3.2-8.7,1-1.3,2.6-3.7,4.2-6.2,1.5-2.3,3.1-4.8,4.5-6.7.1-.2.4-.2.6-.1s.2.4.1.6C61.6-8.7,60-6.3,58.5-4,56.9-1.5,55.3.9,54.3,2.2c-1.9,2.4-2.3,4.5-3,8.3-.3,1.5-.6,3.2-1.1,5.4-1.8,8.1-9,16.3-14.5,20.9C31.8,40,28,41.7,22.6,44.1c-2.8,1.2-5.9,2.6-9.6,4.5A48.71,48.71,0,0,0-4.5,63.7.32.32,0,0,1-4.8,64Z" transform="translate(5.27 11.45)"/><path class="cls-4" d="M-4.8,58.6a.37.37,0,0,1-.3-.1c-.2-.1-.2-.4-.1-.6a29.94,29.94,0,0,0,1.8-2.4,91.73,91.73,0,0,0,5.5-7.7c1.9-3,3.1-7.4,4.3-11.7a58,58,0,0,1,2.8-8.6C12,21.8,16.1,14.6,23,10c3.6-2.4,7.1-3.1,10.6-3.7S40.2,5,43.5,2.9C47.8.1,51.6-4.7,55.2-9.3l1.5-1.8c.1-.2.4-.2.6-.1s.2.4.1.6L55.9-8.8C52.4-4.4,48.4.6,44,3.5c-3.4,2.3-6.9,2.9-10.2,3.6S27,8.4,23.6,10.7C16.8,15.3,12.8,22.4,10.1,28a51.46,51.46,0,0,0-2.8,8.4c-1.2,4.3-2.4,8.8-4.4,11.9s-3.3,4.8-5.5,7.8q-.75,1-1.8,2.4A.6.6,0,0,1-4.8,58.6Z" transform="translate(5.27 11.45)"/><path class="cls-4" d="M-4.7,72.5c-.1,0-.2,0-.2-.1a.38.38,0,0,1-.1-.6c3.9-6.3,9.8-14.5,15.4-18a113.11,113.11,0,0,1,12.8-6.1c8.8-3.9,18.8-8.3,22-12.4C51,27.9,54.3,12.4,55.5,6.1c1.2-6.7,6.8-12.4,12-17.2.2-.2.4-.1.6,0s.1.4,0,.6C63-5.8,57.5-.2,56.3,6.3c-1.5,7.9-4.8,22.3-10.5,29.6-3.4,4.3-13.5,8.7-22.4,12.7-5.1,2.2-9.9,4.3-12.7,6.1C5.3,58-.5,66.1-4.4,72.3-4.5,72.5-4.6,72.5-4.7,72.5Z" transform="translate(5.27 11.45)"/><path class="cls-4" d="M-4.7,79.6c-.1,0-.2,0-.2-.1-.2-.1-.2-.4-.1-.6C1.4,69.6,7.6,61,12.6,57.6c2.6-1.8,6.9-3.6,12-5.6,8.5-3.5,18-7.4,22.1-12.7C53,31.1,55.8,19.6,58.4,7.5,59.6,1.8,64.1-4.3,72-11.2a.45.45,0,0,1,.6,0c.2.2.1.4,0,.6C64.6-3.7,60.2,2.2,59,7.7c-2.6,12.2-5.4,23.8-11.8,32.1C43,45.3,33.3,49.2,24.8,52.7c-4.8,2-9.3,3.8-11.8,5.5C8.1,61.6,2,70.1-4.4,79.3-4.5,79.6-4.6,79.6-4.7,79.6Z" transform="translate(5.27 11.45)"/><path class="cls-4" d="M-4.8,51.6a.37.37,0,0,1-.3-.1c-.2-.1-.2-.4-.1-.6l.4-.6C-.5,44.7.6,43.2,2.7,36.1c.3-.9.5-1.7.7-2.5C5.8,25.1,7.4,19.5,14,12,21.4,3.5,31.9,2.3,36.4,1.8c3.6-.4,11.9-9.5,15-12.9a.37.37,0,0,1,.6,0,.38.38,0,0,1,0,.6C46.6-4.6,40,2.3,36.7,2.7c-4.4.5-14.7,1.6-21.8,9.9C8.4,20,6.8,25.6,4.4,33.9c-.2.8-.5,1.7-.7,2.5C1.6,43.6.3,45.3-3.9,50.8l-.4.6C-4.5,51.5-4.6,51.6-4.8,51.6Z" transform="translate(5.27 11.45)"/><path class="cls-4" d="M-4.6,86.6a.37.37,0,0,1-.3-.1c-.2-.1-.2-.4-.1-.6,1.8-2.5,3.6-5.1,5.3-7.6,4.8-7,9.3-13.7,14.6-17.3,3.6-2.5,8.3-4.2,13.3-6,7.1-2.6,14.5-5.3,18.2-10.4.6-.8,1.1-1.5,1.6-2.2,5.5-7.4,9.1-12.2,10.7-23.1C60.1,10.1,69.1-3,77.3-11.1a.37.37,0,0,1,.6,0,.38.38,0,0,1,0,.6c-8.1,8.1-17,20.9-18.3,30-1.7,11.1-5.3,16-10.9,23.5-.5.7-1.1,1.4-1.6,2.2-3.9,5.3-11.4,8-18.6,10.7-4.9,1.8-9.6,3.5-13.1,5.9C10.2,65.3,5.8,71.9,1,78.8-.7,81.3-2.5,84-4.4,86.5-4.3,86.6-4.5,86.6-4.6,86.6Z" transform="translate(5.27 11.45)"/><path class="cls-4" d="M39.4,87.1a.37.37,0,0,1-.3-.1.37.37,0,0,1,0-.6c2.8-2.8,13.4-12.3,16.3-11.3a1.25,1.25,0,0,1,.8,1.1c.3,3-.9,7.4-2.8,10.7a.45.45,0,0,1-.8-.4,19.93,19.93,0,0,0,2.7-10.1.43.43,0,0,0-.2-.4c-1.8-.6-10.6,6.2-15.4,11.1Z" transform="translate(5.27 11.45)"/><path class="cls-4" d="M49.1,87h-.2a.48.48,0,0,1-.2-.6c.7-1.5.7-2.3.5-2.6s-.7-.1-.9-.1c-1.4.4-2.3,1-4.7,3.1-.2.2-.4.1-.6,0s-.1-.4,0-.6c2.3-2,3.4-2.8,5-3.3a1.76,1.76,0,0,1,1.8.3c.5.6.4,1.8-.4,3.5A.27.27,0,0,1,49.1,87Z" transform="translate(5.27 11.45)"/><path class="cls-4" d="M36,87.1a.37.37,0,0,1-.3-.1.37.37,0,0,1,0-.6l.9-.9c5.5-5.8,10.2-10.8,15.2-12.8,1.3-.5,2.7-1,4.1-1.5,5.6-1.9,11.3-4,13.9-10.1a162.5,162.5,0,0,0,4.7-15.9c2.6-9.5,5.5-20.3,8.4-26C85.2,14.6,89,8.3,92.3,2.7a.38.38,0,0,1,.6-.1.38.38,0,0,1,.1.6C89.7,8.7,85.9,15,83.6,19.6c-2.8,5.7-5.7,16.4-8.3,25.9-1.8,6.6-3.4,12.7-4.8,16-2.7,6.5-8.6,8.6-14.4,10.6-1.4.5-2.8,1-4,1.5-4.8,2-9.5,6.9-14.9,12.6l-.9.9C36.3,87,36.1,87.1,36,87.1Z" transform="translate(5.27 11.45)"/><path class="cls-4" d="M30.2,87a.37.37,0,0,1-.3-.1.37.37,0,0,1,0-.6c8.3-8.6,13.6-13.4,16.8-15a28.19,28.19,0,0,1,6-2c3.5-.9,7-1.9,9.7-4.3,4.5-4.1,8.2-15.3,9.7-24S81,10.3,87.8,2.3c1.5-1.8,3-3.7,4.4-5.5.1-.2.4-.2.6-.1s.2.4.1.6C91.5-.8,90,1,88.5,2.8,81.8,10.6,74.6,32.3,73,41S67.6,61.2,63,65.4C60.2,68,56.5,69,52.9,69.9a31.4,31.4,0,0,0-5.9,2c-3.1,1.6-8.5,6.4-16.6,14.9A.22.22,0,0,1,30.2,87Z" transform="translate(5.27 11.45)"/><path class="cls-4" d="M1.1,87c-.1,0-.2,0-.2-.1a.38.38,0,0,1-.1-.6C5.4,79.2,14,66.9,19.2,64.2c1.7-.9,3.8-1.8,6-2.8,5.9-2.7,13.2-6,20.2-11.1,9.1-6.7,11.8-14.2,14.3-21.4l.4-1.2c.6-1.8,1.2-3.6,1.9-5.5,2-6,4-12.2,7.4-17.3a153.65,153.65,0,0,1,13.2-16,.37.37,0,0,1,.6,0,.38.38,0,0,1,0,.6,148.83,148.83,0,0,0-13,15.8c-3.3,5-5.3,11.1-7.3,17.1-.6,1.8-1.2,3.7-1.9,5.5l-.4,1.2c-2.5,7-5.3,15-14.6,21.8-7.1,5.2-14.4,8.5-20.4,11.2-2.2,1-4.3,1.9-6,2.8C14.3,67.6,5.2,81.1,1.5,86.7A.37.37,0,0,1,1.1,87Z" transform="translate(5.27 11.45)"/><path class="cls-4" d="M23,87.1a.37.37,0,0,1-.3-.1.37.37,0,0,1,0-.6l.4-.4c7.4-7,16.5-15.6,20.1-17.1A55.82,55.82,0,0,1,51,66.5c3.5-1,7.1-1.9,8.4-2.9,2.3-1.6,8.2-12.7,9.1-18.7a100.77,100.77,0,0,1,5.4-21.1c2.8-7.1,8.5-20,11.5-24.5,1.2-1.7,3.5-4.6,6.7-8.6a.47.47,0,0,1,.6-.1.47.47,0,0,1,.1.6C89.5-4.9,87.3-2,86.1-.3,83.1,4.1,77.5,17,74.7,24a104.16,104.16,0,0,0-5.4,20.9c-.9,5.9-6.8,17.4-9.5,19.3-1.5,1.1-5,2-8.7,3a71.19,71.19,0,0,0-7.7,2.4C40,71,30.9,79.6,23.6,86.5l-.4.4C23.2,87.1,23.1,87.1,23,87.1Z" transform="translate(5.27 11.45)"/><path class="cls-4" d="M7.4,87c-.1,0-.2,0-.2-.1-.2-.1-.2-.4-.1-.6C13.8,76.6,21.3,69.6,28.8,66l2-1c7.3-3.5,14.1-6.8,19.8-11.9s10-13.5,13-25.5c.3-1.3.6-2.5.9-3.7,1.9-7.8,2.7-11.1,6.7-16.7A201,201,0,0,1,86.1-11.3a.37.37,0,0,1,.6,0,.38.38,0,0,1,0,.6A220.34,220.34,0,0,0,71.8,7.7c-3.9,5.5-4.6,8.4-6.6,16.4-.3,1.1-.6,2.3-.9,3.7-3,12.1-7.5,20.8-13.2,25.9s-12.7,8.5-20,12l-2,1c-5.1,2.5-13,8-21.4,20.1C7.7,87,7.6,87,7.4,87Z" transform="translate(5.27 11.45)"/><path class="cls-4" d="M15.4,87a.37.37,0,0,1-.3-.1c-.2-.1-.2-.4-.1-.6,2.9-3.8,8.7-10.9,15-14.9A110.37,110.37,0,0,1,49.5,61.3c7.1-3,10.2-8.2,13.5-16.6A165.76,165.76,0,0,0,67.9,28c.8-3.3,1.6-6.4,2.5-9.3,2.2-7.3,9.7-19.1,19.2-29.9a.37.37,0,0,1,.6,0,.38.38,0,0,1,0,.6C79.5,1.7,73,13.1,71.2,19c-.8,2.8-1.6,6-2.5,9.2-1.5,5.8-3,11.7-4.9,16.8C61,52.4,58,58.7,49.9,62.1a108.83,108.83,0,0,0-19.4,10c-4.6,2.9-9.9,8.2-14.8,14.7C15.6,87,15.5,87,15.4,87Z" transform="translate(5.27 11.45)"/><path class="cls-4" d="M57.2,87.1H57a.45.45,0,0,1-.2-.6A23,23,0,0,0,58.2,82a17.51,17.51,0,0,1,2.9-6.8,19,19,0,0,1,5.7-4.6c2.6-1.6,5-3.1,6.3-6.3a91.1,91.1,0,0,0,3.2-10.8c2.2-8,4.9-17.9,8.1-24.5,1.6-3.3,2.9-6.5,4.2-9.7,1.2-2.9,2.3-5.7,3.6-8.2a.45.45,0,1,1,.8.4c-1.2,2.5-2.3,5.3-3.5,8.2-1.3,3.2-2.7,6.5-4.2,9.8-3.1,6.5-5.8,16.4-8,24.3C76,58.5,74.9,62.5,74,64.7c-1.4,3.4-4.1,5.1-6.6,6.7A18.68,18.68,0,0,0,62,75.8a16.09,16.09,0,0,0-2.7,6.5A36,36,0,0,1,57.8,87C57.6,87,57.4,87.1,57.2,87.1Z" transform="translate(5.27 11.45)"/><path class="cls-4" d="M60.2,87h-.1c-.2-.1-.4-.3-.3-.5a14,14,0,0,0,.6-2.4c.7-3,1.2-4.9,4.6-7.3a30.35,30.35,0,0,1,5.5-3c3.2-1.5,5.7-2.6,6.9-6.5.5-1.7,1.2-4.7,2-8.2,2.1-9.4,5.3-23.6,9.9-30.2a55.48,55.48,0,0,0,2.9-4.8.45.45,0,1,1,.8.4,49.43,49.43,0,0,1-3,4.9c-4.5,6.6-7.7,20.6-9.8,30-.8,3.7-1.5,6.6-2,8.2-1.4,4.2-4.2,5.5-7.4,7a28.26,28.26,0,0,0-5.3,2.9c-3.1,2.2-3.5,3.8-4.2,6.8-.2.7-.4,1.5-.6,2.5A.76.76,0,0,1,60.2,87Z" transform="translate(5.27 11.45)"/><path class="cls-4" d="M65.1,87.1H65c-.2-.1-.4-.3-.3-.5,1.4-4.7,2.9-6.8,7-9.2,5.6-3.3,8.9-6.9,10-11,.3-1.3.7-3.5,1.2-6.2,1.3-7,3.2-17.6,6.3-23.8.9-1.8,1.9-3.6,2.9-5.3a.45.45,0,1,1,.8.4c-1,1.8-2,3.5-2.9,5.3-3.1,6.1-5,16.6-6.2,23.5-.5,2.8-.9,5-1.3,6.3-1.2,4.4-4.6,8.1-10.4,11.6-3.8,2.2-5.3,4.2-6.6,8.7A.7.7,0,0,1,65.1,87.1Z" transform="translate(5.27 11.45)"/><path class="cls-4" d="M69.2,87H69a.48.48,0,0,1-.2-.6,11.63,11.63,0,0,1,5.4-5.1c4.4-2.6,9.2-6.1,10.9-12.5A78,78,0,0,0,86.8,59c.8-6,1.7-12.8,3.8-16.9.5-1,1.1-2,1.7-3.1a.43.43,0,0,1,.7.5c-.6,1.1-1.2,2.1-1.7,3-2,3.9-2.9,10.7-3.7,16.6A83.5,83.5,0,0,1,85.9,69c-1.8,6.7-6.7,10.3-11.3,13-2.7,1.6-4.1,2.9-5,4.8A.4.4,0,0,1,69.2,87Z" transform="translate(5.27 11.45)"/><path class="cls-4" d="M75.1,87a.37.37,0,0,1-.3-.1c-.2-.2-.1-.4,0-.6.7-.6,1.7-1.4,2.9-2.4l1.1-.9c6.5-5.3,9.2-7.4,9.5-13.7.2-3.7,1.9-11.9,3.8-18.7.1-.2.3-.4.5-.3s.4.3.3.5c-1.9,6.7-3.5,14.8-3.7,18.5-.4,6.7-3.3,9.1-9.8,14.3l-1.1.9c-1.2,1-2.1,1.7-2.9,2.4A.37.37,0,0,1,75.1,87Z" transform="translate(5.27 11.45)"/><path class="cls-4" d="M82,87.1a.37.37,0,0,1-.3-.1c-.2-.1-.2-.4-.1-.6a14.55,14.55,0,0,1,3.6-3.5c2.7-1.6,6.3-6.5,6.6-10.3,0-.3.1-.6.1-1.1a.45.45,0,1,1,.9.1c0,.4-.1.8-.1,1.1-.4,4.1-4.1,9.3-7,10.9a12.49,12.49,0,0,0-3.4,3.2A.32.32,0,0,1,82,87.1Z" transform="translate(5.27 11.45)"/><path class="cls-4" d="M87.8,87.1c-.1,0-.2,0-.2-.1-.2-.1-.2-.4-.1-.6a18.21,18.21,0,0,1,4.8-4.9c.2-.1.5-.1.6.1s.1.5-.1.6a18.28,18.28,0,0,0-4.6,4.7C88,87.1,87.9,87.1,87.8,87.1Z" transform="translate(5.27 11.45)"/><path class="cls-4" d="M-4.6,43.3c-.1,0-.1,0-.2-.1a.37.37,0,0,1-.2-.5A79.62,79.62,0,0,0,1.6,27.1C2,25.8,2.5,24.4,3,23,6.3,13.8,12.3,3.6,18.3,1.8A45.56,45.56,0,0,1,25.4.6C30.2,0,35.2-.6,38.6-3.5c2.8-2.4,6-5.2,8.5-7.6a.37.37,0,0,1,.6,0,.37.37,0,0,1,0,.6C45.2-8,42-5.2,39.2-2.8,35.6.2,30.5.8,25.5,1.4a42.86,42.86,0,0,0-6.9,1.2C12.8,4.4,7,14.3,3.8,23.4c-.5,1.4-.9,2.7-1.4,4A77.67,77.67,0,0,1-4.3,43.1C-4.3,43.2-4.5,43.3-4.6,43.3Z" transform="translate(5.27 11.45)"/><path class="cls-4" d="M-4.7,33.2h-.2a.48.48,0,0,1-.2-.6C-2.6,27.4-.6,22.4,1.1,18c.7-1.7,1.3-3.4,1.9-4.8l.2-.4C6.3,5.2,8.8-.8,15.4-1.7L17-1.9c6.2-.8,14.8-2,18.7-5.1a29.49,29.49,0,0,0,4.2-4,.37.37,0,0,1,.6,0,.37.37,0,0,1,0,.6,49.67,49.67,0,0,1-4.3,4.1C32.1-3.2,23.4-2,17-1.1l-1.6.2C9.3-.1,7,5.5,3.9,13.1l-.2.4c-.6,1.5-1.2,3.1-1.9,4.8C.1,22.7-1.9,27.7-4.4,33-4.4,33.1-4.6,33.2-4.7,33.2Z" transform="translate(5.27 11.45)"/><path class="cls-4" d="M-4.7,23.5h-.2a.45.45,0,0,1-.2-.6C-3,18.1-1.2,13.2.4,8.8c1-2.7,1.8-5,2.6-6.7C6-5.3,13-6.1,19.4-6.2c3.2-.1,7.5-1.7,11.7-4.3.2-.1.5-.1.6.1s.1.5-.1.6c-4.4,2.7-8.8,4.3-12.2,4.4-6.3.2-12.8.9-15.6,7.8C3.1,4.2,2.2,6.5,1.2,9.1c-1.6,4.2-3.5,9.4-5.6,14.2C-4.4,23.5-4.5,23.5-4.7,23.5Z" transform="translate(5.27 11.45)"/><path class="cls-4" d="M-4.5,8.7h-.2a.48.48,0,0,1-.2-.6A48.24,48.24,0,0,0-1.5-1.3C.2-8.4,4.9-9.2,11.8-9.5A27.77,27.77,0,0,0,19.2-11a.34.34,0,0,1,.5.3.34.34,0,0,1-.3.5,30.26,30.26,0,0,1-7.7,1.6C4.1-8.2.7-7.1-.8-1A46.43,46.43,0,0,1-4.3,8.6C-4.2,8.6-4.3,8.7-4.5,8.7Z" transform="translate(5.27 11.45)"/><path class="cls-4" d="M-4.5,1.7h-.2a.45.45,0,0,1-.2-.6A40.56,40.56,0,0,0-3.3-4.1C-2.4-7.3-.9-9.6,1.5-11c.2-.1.5-.1.6.1s.1.5-.1.6A9.87,9.87,0,0,0-2.4-3.9,36.94,36.94,0,0,1-4.1,1.4.54.54,0,0,1-4.5,1.7Z" transform="translate(5.27 11.45)"/><path class="cls-4" d="M-5.6-11" transform="translate(5.27 11.45)"/></g></svg>
