<svg id="Layer_1" data-name="Layer 1" xmlns="http://www.w3.org/2000/svg" width="120px" height="120px" viewBox="0 0 70.95 70.95"><defs><style>.cls-1{fill:#b9b9b9;}.cls-2{fill:#a2a2a2;}.cls-3{fill:#ff1a44;}</style></defs><title>icon-24</title><path class="cls-1" d="M41.64,16.84c-.07-.07-.14-.14-.22-.14l-1.07-.29h-.07a.48.48,0,0,0-.36.29l-1.07,3.58v.29c.07.07.14.14.22.14l1.07.29h.07a.48.48,0,0,0,.36-.29l1.07-3.58C41.71,17,41.64,16.91,41.64,16.84Z"/><path class="cls-1" d="M33.11,20.57v-.36l1.15-.07a.4.4,0,0,0,.36-.43l-.36-3.65a.34.34,0,0,0-.36-.36l-1.15.14c-.07,0-.21.07-.21.14s-.07.14-.07.29l.36,3.65a.34.34,0,0,0,.36.36l-.07.29Z"/><path class="cls-2" d="M70.95,70.95H0V0H70.95ZM.72,70.23H70.23V.72H.72Z"/><path class="cls-3" d="M26.52,40.2c0-4.09,5.23-4.73,5.23-7A1.58,1.58,0,0,0,30,31.68,2.58,2.58,0,0,0,28,33l-1.5-1a4.12,4.12,0,0,1,3.73-2.22c2,0,3.65,1.22,3.65,3.3,0,3.58-5,4.23-5.09,6.38H34v1.72H26.59a5.08,5.08,0,0,1-.07-1Z"/><path class="cls-3" d="M42.5,36.62V30H40.06l-4.87,7.09v1.22h5.3v2.87h2V38.27h1.43V36.55H42.5Zm-2-3.51v3.51H37.41L40,33a11.13,11.13,0,0,0,.57-1h0A7.22,7.22,0,0,0,40.49,33.11Z"/><path class="cls-3" d="M30.39,53.89a16.94,16.94,0,0,0,4.66.57A19.27,19.27,0,0,0,53.46,40.28l.22-.65-2.15-.57-.29.72A17,17,0,0,1,35,52.24a14.87,14.87,0,0,1-3.94-.5A16.59,16.59,0,0,1,18.63,33.11l.21-1.58,2.72.79-1.94-7.45-5.52,5.37L16.7,31l-.21,1.29A19.16,19.16,0,0,0,30.39,53.89Z"/><path class="cls-1" d="M54.54,32.18l-3.73.5a.32.32,0,0,0-.29.43l.14,1.15c0,.21.22.29.36.29h.07l3.65-.5a.32.32,0,0,0,.29-.43l-.14-1.15C54.9,32.32,54.68,32.18,54.54,32.18Z"/><path class="cls-1" d="M52,25.15a.26.26,0,0,0-.22.07L48.52,27a.44.44,0,0,0-.14.5l.57,1a.39.39,0,0,0,.36.21.26.26,0,0,0,.22-.07l3.22-1.79a.44.44,0,0,0,.14-.5l-.57-1A.39.39,0,0,0,52,25.15Z"/><path class="cls-1" d="M46.94,19.56a.37.37,0,0,0-.29.14l-2.29,2.87c-.07.07-.07.14-.07.29s.07.21.14.21l.86.72a.26.26,0,0,0,.22.07.37.37,0,0,0,.29-.14l2.29-2.87c.07-.07.07-.14.07-.29s-.07-.21-.14-.21l-.86-.72A.26.26,0,0,0,46.94,19.56Z"/><path class="cls-1" d="M25.44,18.13l-.21.21v.29l1.72,3.3a.39.39,0,0,0,.36.21c.07,0,.14,0,.14-.07l1-.5a.31.31,0,0,0,.14-.5l-1.72-3.3a.39.39,0,0,0-.36-.21c-.07,0-.14,0-.14.07Z"/></svg>
