<svg id="Слой_1" data-name="Слой 1" xmlns="http://www.w3.org/2000/svg" width="86px" height="86px" viewBox="0 0 98 98"><defs><style>.cls-1{fill:#999;}.cls-2{fill:#ff1a44;}</style></defs><title>icon-long</title><path class="cls-1" d="M97,1V97H1V1H97m1-1H0V98H98V0Z"/><path class="cls-2" d="M50.95,11.3a.87.87,0,0,0-.92.92v1.56c-3-1.38-6.15.09-7.52,1.19a1.13,1.13,0,0,0-.37.73v.92c-.37.09-1.56.18-5-1.28a16.76,16.76,0,0,0-14.31.83.92.92,0,0,0-.46,1,1.12,1.12,0,0,0,.83.73,15.26,15.26,0,0,1,4,1,10,10,0,0,0-3.4,4.59.87.87,0,0,0,.37,1,.84.84,0,0,0,1.1-.09c.09-.09,2.57-2.11,7.71.18a31.85,31.85,0,0,0,10.55,2.48,3.78,3.78,0,0,0,2.39-.55,1,1,0,0,0,.18-1.28A3.85,3.85,0,0,1,46,23.78a5.65,5.65,0,0,1,3.85.64V38.64H48V35.43a.87.87,0,0,0-.92-.92H40.49a.87.87,0,0,0-.92.92v3.21H34.34V35.43a.87.87,0,0,0-.92-.92H27.37a.83.83,0,0,0-.73.37.71.71,0,0,0-.18.73L28.74,48V83.79a.92.92,0,0,0,1.84,0v-35H72.05v35a.92.92,0,0,0,1.84,0V48L76,35.52a1,1,0,0,0-.18-.73,1.13,1.13,0,0,0-.73-.37H68.48a.87.87,0,0,0-.92.92v3.21H62.14V35.34a.87.87,0,0,0-.92-.92H54.34a.87.87,0,0,0-.92.92v3.21H51.78V12.21A.8.8,0,0,0,50.95,11.3Zm-6.7,13.86a27.77,27.77,0,0,1-10.46-2.29,11.18,11.18,0,0,0-7.07-1,4.15,4.15,0,0,1,2.84-1.93,1.05,1.05,0,0,0,.83-.55c.09-.37.09-.73-.18-.92a8.94,8.94,0,0,0-3.76-1.74,14.06,14.06,0,0,1,10,.37c3,1.19,4.68,1.56,5.69,1.47v5a1.13,1.13,0,0,0,.37.73.89.89,0,0,0,.83.09l.83-.28A4.47,4.47,0,0,1,44.25,25.15Zm-.18-2.94V16.16c.92-.64,3.49-2,6-.37h0v6.51A10.31,10.31,0,0,0,44.07,22.22ZM54.44,40.38a.87.87,0,0,0,.92-.92V36.25h5v3.21a.87.87,0,0,0,.92.92h7.25a.87.87,0,0,0,.92-.92V36.25h4.59L72.24,47H30.49L28.65,36.25h4v3.21a.87.87,0,0,0,.92.92h7.07a.87.87,0,0,0,.92-.92V36.25h4.77v3.21a.87.87,0,0,0,.92.92Z"/><path class="cls-1" d="M44.42,63.13v10a.87.87,0,0,0,.92.92H57a.87.87,0,0,0,.92-.92v-10a6.74,6.74,0,1,0-13.49,0Zm11.65,0v9.08H46.25V63.13a4.93,4.93,0,0,1,5-5A4.86,4.86,0,0,1,56.07,63.13Z"/></svg>