<?xml version="1.0" encoding="utf-8"?>
<!-- Generator: Adobe Illustrator 21.0.2, SVG Export Plug-In . SVG Version: 6.00 Build 0)  -->
<svg version="1.1" id="Layer_1" xmlns="http://www.w3.org/2000/svg" xmlns:xlink="http://www.w3.org/1999/xlink" x="0px" y="0px"
	 width="100px" height="100px" viewBox="0 0 86 86" style="enable-background:new 0 0 86 86;" xml:space="preserve">
<style type="text/css">
	.st0{fill:#FF1A44;}
	.st1{fill:#FF1A44;stroke:#FFFFFF;stroke-width:1.291;stroke-linecap:round;stroke-linejoin:round;stroke-miterlimit:10;}
	.st2{fill:none;stroke:#FFFFFF;stroke-width:2.3984;stroke-linecap:round;stroke-linejoin:round;stroke-miterlimit:10;}
</style>
<g>
	<circle class="st0" cx="43" cy="43" r="41.5"/>
	<g>
		<path class="st1" d="M63.3,58.8l-8-14.1h4.5c0.2,0,0.4-0.1,0.5-0.3c0.1-0.2,0.1-0.4,0-0.6l-10-15h2.8c0.2,0,0.4-0.1,0.5-0.3
			c0.1-0.2,0.1-0.4,0-0.6l-9.7-13.4c0,0,0,0,0,0c0,0,0,0,0,0c0,0,0,0,0,0c0,0,0,0,0,0c0,0,0,0,0,0c0,0,0,0,0,0c0,0,0,0,0,0
			c0,0,0,0,0,0c0,0,0,0-0.1,0c0,0,0,0,0,0c0,0,0,0-0.1,0c0,0,0,0,0,0c0,0,0,0-0.1,0c0,0,0,0,0,0c0,0,0,0-0.1,0c0,0,0,0,0,0
			c0,0,0,0-0.1,0c0,0,0,0,0,0c0,0,0,0,0,0c0,0,0,0,0,0c0,0,0,0,0,0c0,0,0,0,0,0l-9.7,13.4c-0.1,0.2-0.1,0.4,0,0.6
			c0.1,0.2,0.3,0.3,0.5,0.3h2.8l-10,15c-0.1,0.2-0.1,0.4,0,0.6c0.1,0.2,0.3,0.3,0.5,0.3h4.5l-8,14.1c-0.1,0.2-0.1,0.4,0,0.6
			c0.1,0.1,0.3,0.2,0.4,0.2c0,0,0.1,0,0.1,0l18.9-2.8V65c0,0.3,0.2,0.5,0.5,0.5c0.3,0,0.5-0.2,0.5-0.5v-8.2l18.9,2.8
			c0,0,0.1,0,0.1,0c0.2,0,0.3-0.1,0.4-0.2C63.4,59.2,63.4,59,63.3,58.8L63.3,58.8z M43.9,55.7v-1.9l4.4-3.7c0.2-0.2,0.3-0.5,0.1-0.8
			c-0.2-0.2-0.5-0.3-0.8-0.1l-3.7,3.1v-6l4.4-3.7c0.2-0.2,0.3-0.5,0.1-0.8c-0.2-0.2-0.5-0.3-0.8-0.1L43.9,45v-6l4.4-3.7
			c0.2-0.2,0.3-0.5,0.1-0.8c-0.2-0.2-0.5-0.3-0.8-0.1l-3.7,3.1v-8.2c0-0.3-0.2-0.5-0.5-0.5c-0.3,0-0.5,0.2-0.5,0.5v8.2l-3.7-3.1
			c-0.2-0.2-0.6-0.2-0.8,0.1c-0.2,0.2-0.2,0.6,0.1,0.8l4.4,3.7v6l-3.7-3.1c-0.2-0.2-0.6-0.2-0.8,0.1c-0.2,0.2-0.2,0.6,0.1,0.8
			l4.4,3.7v6l-3.7-3.1c-0.2-0.2-0.6-0.2-0.8,0.1c-0.2,0.2-0.2,0.6,0.1,0.8l4.4,3.7v1.9l-17.9,2.7l7.9-13.9c0.1-0.2,0.1-0.4,0-0.5
			c-0.1-0.2-0.3-0.3-0.5-0.3h-4.5l10-15c0.1-0.2,0.1-0.4,0-0.6c-0.1-0.2-0.3-0.3-0.5-0.3h-2.7l8.7-12l8.7,12h-2.7
			c-0.2,0-0.4,0.1-0.5,0.3c-0.1,0.2-0.1,0.4,0,0.6l10,15h-4.5c-0.2,0-0.4,0.1-0.5,0.3c-0.1,0.2-0.1,0.4,0,0.5l7.9,13.9L43.9,55.7z
			 M43.9,55.7"/>
		<line class="st2" x1="38.2" y1="65.5" x2="48.4" y2="65.5"/>
	</g>
</g>
</svg>
