<svg id="Слой_1" data-name="Слой 1" xmlns="http://www.w3.org/2000/svg" width="82px" height="82px" viewBox="0 0 69.06 88.1"><defs><style>.cls-1{fill:#ff1a44;}</style></defs><title>icon-wood-listv</title><path class="cls-1" d="M68.85,74.5h0L56.45,52.6h5.7a1.94,1.94,0,0,0,1.7-1,2,2,0,0,0-.1-2L48.25,26.3h2.6a2.11,2.11,0,0,0,1.8-1.1,2,2,0,0,0-.2-2.1L36.15.8l-.1-.1L36,.6l-.1-.1h0l-.1-.1-.1-.1a.35.35,0,0,0-.2-.1c-.1,0-.1-.1-.2-.1a.35.35,0,0,0-.2-.1h-1.2c-.1,0-.1,0-.2.1l-.2.1a.1.1,0,0,0-.1.1.1.1,0,0,0-.1.1.1.1,0,0,0-.1.1l-.1.1L33,.7l-.1.1L16.75,23.2a2.23,2.23,0,0,0-.2,2.1,1.89,1.89,0,0,0,1.8,1.1H21L5.35,49.6a2,2,0,0,0-.1,2,1.94,1.94,0,0,0,1.7,1h5.7L.25,74.5a2,2,0,0,0,.1,2.1,2,2,0,0,0,1.9.8l30.2-4.5V84.1h-6.6a2,2,0,0,0,0,4h17a2,2,0,1,0,0-4h-6.3V72.9l30.2,4.5a1.92,1.92,0,0,0,1.9-.8A2,2,0,0,0,68.85,74.5ZM32.65,25.9V37.3l-4.4-3.7a2.39,2.39,0,0,0-1.4-.5,1.71,1.71,0,0,0-1.3.7,2.39,2.39,0,0,0-.5,1.4,1.71,1.71,0,0,0,.7,1.3l7,5.8v7.2l-4.4-3.7a2.39,2.39,0,0,0-1.4-.5,1.71,1.71,0,0,0-1.3.7,2.39,2.39,0,0,0-.5,1.4,1.71,1.71,0,0,0,.7,1.3l7,5.8v7.2L28.45,58a2,2,0,1,0-2.6,3l7,5.8v1.7l-26.8,4,12-21.3a2.33,2.33,0,0,0,0-2,2.06,2.06,0,0,0-1.7-1H11l15.6-23.3a2,2,0,0,0,.1-2,1.94,1.94,0,0,0-1.7-1h-2.4L35,4.9l12.4,17h-2.8a1.94,1.94,0,0,0-1.7,1,2,2,0,0,0,.1,2l15.6,23.3h-5.4a1.94,1.94,0,0,0-1.7,1,1.82,1.82,0,0,0,0,2l12,21.3-26.8-4V66.8l7-5.8a2,2,0,1,0-2.6-3l-4.4,3.7V54.5l7-5.8a1.71,1.71,0,0,0,.7-1.3,1.87,1.87,0,0,0-.5-1.4,1.71,1.71,0,0,0-1.3-.7,1.87,1.87,0,0,0-1.4.5l-4.6,3.9V42.5l7-5.8a2,2,0,0,0,.2-2.8,1.71,1.71,0,0,0-1.3-.7,1.87,1.87,0,0,0-1.4.5l-4.5,3.6V25.9a2,2,0,0,0-2-2A1.92,1.92,0,0,0,32.65,25.9Z"/></svg>
