<svg xmlns="http://www.w3.org/2000/svg" viewBox="0 0 306.1 306.1">
	<style>.st0{fill: #F2F2F2;}.st1{fill: #282828;}.st2{fill: #FF1A44;}
	</style>
	<circle cx="153.1" cy="153.1" r="150.5" class="st0"/>
	<path
		d="M202.2 71.7l-.8-.5 5.3-9.3 2.4 1.4c.5.3 1.2.1 1.5-.4.3-.5.1-1.2-.4-1.5l-6.6-3.8c-.3-.1-.5-.2-.8-.1-.3.1-.5.3-.7.5-.1.3-.2.5-.1.8.1.3.3.5.5.7l2.4 1.4-5.4 9.3-.9-.5c-13.3-7.4-28.4-11.4-43.7-11.7h-1v-3.6l.9-.1c6.4-.9 11.2-6.5 11.2-12.9 0-7.2-5.9-13.1-13.1-13.1s-13.1 5.9-13.1 13.1c0 6.4 4.8 12 11.2 12.9l.9.1V58h-1c-15.2.3-30.2 4.3-43.4 11.6l-.9.5-5.3-9.2 2.2-1.3c.3-.1.4-.4.5-.7.1-.3 0-.6-.1-.8-.1-.3-.4-.4-.7-.5-.3-.1-.6 0-.8.1l-6.6 3.8c-.5.3-.7 1-.4 1.5.3.5 1 .7 1.5.4l2.5-1.4 5.3 9.2-.8.5c-28.8 17.3-46 47.6-46 81.1 0 52.3 42.6 94.9 94.9 94.9s94.9-42.6 94.9-94.9c0-33.3-17-63.6-45.5-81.1zm-51.7-19.8c-5-1.1-8.6-5.6-8.6-10.7 0-6 4.9-10.9 10.9-10.9s10.9 4.9 10.9 10.9c0 5.1-3.6 9.6-8.6 10.7l-1.2.3v-8.1h2.7c.6 0 1.1-.5 1.1-1.1s-.5-1.1-1.1-1.1H149c-.6 0-1.1.5-1.1 1.1s.5 1.1 1.1 1.1h2.7v8.1l-1.2-.3zm2.3 193.6c-51.1 0-92.7-41.6-92.7-92.7s41.6-92.7 92.7-92.7 92.7 41.6 92.7 92.7c.1 51.1-41.5 92.7-92.7 92.7z"
		class="st1"/>
	<path
		d="M152.8 239.7c.6 0 1.1-.5 1.1-1.1v-14.3c0-.6-.5-1.1-1.1-1.1s-1.1.5-1.1 1.1v14.3c0 .6.5 1.1 1.1 1.1zm0-171.6c-.6 0-1.1.5-1.1 1.1v14.3c0 .6.5 1.1 1.1 1.1s1.1-.5 1.1-1.1V69.2c0-.6-.5-1.1-1.1-1.1zm-42 9.8c-.2-.3-.6-.5-.9-.5-.2 0-.4 0-.5.1-.5.3-.7 1-.4 1.5l7.2 12.4c.3.5 1 .7 1.5.4.5-.3.7-1 .4-1.5l-7.3-12.4zm78.7 136.3c-.1-.3-.4-.4-.7-.5h-.3c-.2 0-.4 0-.5.1-.5.3-.7 1-.4 1.5l7.2 12.4c.3.5 1 .7 1.5.4.5-.3.7-1 .4-1.5l-7.2-12.4zm-97.7-96.7c.1-.2.2-.5.1-.8-.1-.3-.3-.5-.5-.7L79 108.9c-.2-.1-.4-.1-.5-.1h-.3c-.3.1-.5.3-.7.5-.1.3-.2.5-.1.8.1.3.3.5.5.7l12.4 7.2c.5.2 1.2.1 1.5-.5zm136.3 78.7c.1-.2.2-.5.1-.8-.1-.3-.3-.5-.5-.7l-12.4-7.2c-.2-.1-.4-.1-.5-.1h-.3c-.3.1-.5.3-.7.5-.1.3-.2.5-.1.8.1.3.3.5.5.7l12.4 7.2c.5.3 1.2.1 1.5-.4zM81.3 153.9c.6 0 1.1-.5 1.1-1.1s-.5-1.1-1.1-1.1H67c-.6 0-1.1.5-1.1 1.1s.5 1.1 1.1 1.1h14.3zm157.4-2.2h-14.3c-.6 0-1.1.5-1.1 1.1s.5 1.1 1.1 1.1h14.3c.6 0 1.1-.5 1.1-1.1s-.5-1.1-1.1-1.1zM91.8 188c-.1-.3-.4-.4-.7-.5h-.3c-.2 0-.4 0-.5.1l-12.4 7.2c-.3.1-.4.4-.5.7-.1.3 0 .6.1.8.3.5 1 .7 1.5.4l12.4-7.2c.5-.3.7-1 .4-1.5zm135.6-79.2h-.3c-.2 0-.4 0-.5.1l-12.4 7.2c-.3.1-.4.4-.5.7-.1.3 0 .6.1.8.3.5 1 .7 1.5.4l12.4-7.2c.3-.1.4-.4.5-.7.1-.3 0-.6-.1-.8s-.4-.4-.7-.5zM110.8 227.7l7.2-12.4c.3-.5.1-1.2-.4-1.5-.2-.1-.4-.1-.5-.1h-.3c-.3.1-.5.3-.7.5l-7.2 12.4c-.3.5-.1 1.2.4 1.5.6.2 1.2.1 1.5-.4zm78.7-136.3l7.2-12.4c.3-.5.1-1.2-.4-1.5-.3-.1-.5-.2-.8-.1-.3.1-.5.3-.7.5l-7.2 12.4c-.1.3-.2.5-.1.8.1.3.3.5.5.7.5.2 1.2.1 1.5-.4z"
		class="st1"/>
	<!-- <path d="M136.3 167.7c-.4.4-.4 1.1 0 1.5.4.4 1.1.4 1.5 0l66.9-66.9c.4-.4.4-1.1 0-1.5-.4-.4-1.1-.4-1.5 0l-66.9 66.9z" class="sec st1"/> -->
	<path d="M152.7 160.6c-4.2 0-7.6-3.4-7.6-7.6 0-4.2 3.4-7.6 7.6-7.6s7.6 3.4 7.6 7.6c0 4.2-3.4 7.6-7.6 7.6zm0-13.1c-3.1 0-5.6 2.5-5.6 5.6s2.5 5.6 5.6 5.6c3.1 0 5.6-2.5 5.6-5.6s-2.5-5.6-5.6-5.6z" class="st2"/>

	<g transform="translate(153,153)">
		<g id="hands" transform="rotate(180)">
			<g id="second">
				<line stroke-width="2" y1="-20" y2="72" stroke-linecap="round" stroke="#282828" />
				<animateTransform attributeName="transform" type="rotate" repeatCount="indefinite" dur="30s" by="360" />
			</g>
		</g>
	</g>
</svg>
