<?xml version="1.0" encoding="utf-8"?>
<!-- Generator: Adobe Illustrator 21.0.2, SVG Export Plug-In . SVG Version: 6.00 Build 0)  -->
<svg version="1.1" id="Layer_1" xmlns="http://www.w3.org/2000/svg" xmlns:xlink="http://www.w3.org/1999/xlink" x="0px" y="0px"
	 viewBox="0 0 120 120" style="enable-background:new 0 0 120 120;" xml:space="preserve">
<style type="text/css">
	.st0{fill:none;stroke:#A2A2A2;stroke-miterlimit:10;}
	.st1{fill:#FF1A44;}
	.st2{fill:#B9B9B9;}
</style>
<g>
	<rect x="11" y="11" class="st0" width="98" height="98"/>
	<g>
		<path class="st1" d="M88.2,56.8c-0.1-2.4-2.1-4.3-4.6-4.3H68.4L70.1,40c0-0.1,0-0.1,0-0.2c-0.1-2-1.7-3.5-3.7-3.5
			c-0.1,0-0.1,0-0.2,0c-1.6,0.1-3,1.2-3.4,2.7l-7.7,16.3L53.3,56c-0.9,0.3-1.4,1.1-1.4,2v20.4c0,1.2,0.9,2.1,2.1,2.1l20.2-0.3h1.7
			c2.3,0,4.2-1.7,4.5-4c0.1-0.9-0.1-1.8-0.5-2.6c1.7-0.5,2.9-2,3.1-3.7c0.1-0.9-0.1-1.8-0.5-2.6c1.7-0.5,2.9-2,3.1-3.7
			c0.1-0.9-0.1-1.8-0.5-2.5C87,60.6,88.2,58.8,88.2,56.8z M82.8,59.3c-0.6,0-1,0.5-1,1c0,0.4,0.2,0.7,0.5,0.9
			c0.8,0.5,1.3,1.4,1.2,2.3c-0.2,1.2-1.2,2.1-2.4,2.1c0,0,0,0,0,0h-0.8c-0.6,0-1,0.5-1,1c0,0.4,0.2,0.7,0.5,0.9
			c0.8,0.5,1.3,1.3,1.2,2.3c-0.2,1.2-1.2,2.1-2.4,2.1c0,0,0,0,0,0h-0.8c-0.6,0-1,0.5-1,1c0,0.4,0.2,0.7,0.5,0.9
			c0.8,0.5,1.3,1.3,1.2,2.3c-0.2,1.2-1.2,2.1-2.4,2.1c0,0,0,0,0,0L54,78.4L54,58c0,0,0,0,0-0.1l2.3-0.8c0.3-0.1,0.5-0.3,0.6-0.5
			l7.9-16.8c0-0.1,0.1-0.1,0.1-0.2c0.2-0.7,0.8-1.2,1.6-1.2c0.1,0,0.2,0,0.4,0c0.7,0.2,1.2,0.7,1.2,1.4l-1.8,13.7
			c0,0.3,0,0.5,0.2,0.8c0.2,0.2,0.4,0.4,0.7,0.4c0,0,0.1,0,0.1,0h16.4c1.3,0,2.3,1,2.4,2.3c0,1.3-1,2.4-2.3,2.4H82.8z"/>
		<path class="st2" d="M46.2,54.6H35c-1.7,0-3.1,1.4-3.2,3.2v22.7c0,1.7,1.4,3.2,3.2,3.2l11.3,0c1.7,0,3.2-1.4,3.2-3.2V57.8
			c0-0.8-0.3-1.6-0.9-2.2C47.9,55,47.1,54.6,46.2,54.6z M35,57h11.3c0.4,0,0.8,0.4,0.8,0.8v22.7c0,0.4-0.3,0.8-0.8,0.8H35
			c-0.4,0-0.8-0.4-0.8-0.8l0-22.7C34.2,57.4,34.5,57,35,57l0-0.3L35,57z"/>
		<circle class="st2" cx="39" cy="76.3" r="1.7"/>
	</g>
</g>
</svg>
