<svg width="163" height="35" fill="none" xmlns="http://www.w3.org/2000/svg">
    <g clip-path="url(#clip0)">
        <path d="M110.708 8.016a1.8 1.8 0 0 0-1.792 1.787 1.8 1.8 0 0 0 1.792 1.786 1.8 1.8 0 0 0 1.792-1.786 1.8 1.8 0 0 0-1.792-1.787zM105.865 8.505a1.45 1.45 0 0 0 1.45-1.445 1.45 1.45 0 1 0-2.901 0 1.45 1.45 0 0 0 1.451 1.445zM100.83 7.697c.64 0 1.13-.51 1.13-1.127 0-.637-.512-1.127-1.13-1.127-.64 0-1.131.51-1.131 1.127s.491 1.127 1.131 1.127zM96.413 8.718a1 1 0 1 0 0-1.999 1 1 0 0 0-1.002 1c-.022.531.448 1 1.002 1zM93.32 10.993a.596.596 0 1 0 .002-1.192.596.596 0 0 0-.002 1.192zM101.598 8.93c-4.971 0-9.004 4.02-9.004 8.974 0 4.954 4.033 8.973 9.004 8.973 4.971 0 9.003-4.018 9.003-8.973 0-4.954-4.032-8.973-9.003-8.973zm0 14.673c-3.158 0-5.718-2.552-5.718-5.699s2.56-5.699 5.718-5.699c1.365 0 2.603.468 3.584 1.276l-3.158 2.424 1.11 1.425 3.264-2.51a5.69 5.69 0 0 1 .917 3.084c0 3.147-2.56 5.699-5.717 5.699zM.341 3.7L0 4.04v2.53l.341.34H4.78v18.947l.341.34h2.667l.342-.34V6.91h4.437l.342-.34V4.04l-.342-.341H.341zM30.53 16.65c-.085-2.467-.469-3.743-.853-4.38-.384-.873-1.941-3.51-6.23-3.424-1.963.063-3.541 1.042-4.736 2.147v-7.57l-.341-.34h-2.646l-.341.34v22.455l.34.34h2.668l.341-.34v-9.143c.192-1.021.555-1.765.555-1.765.021-.022 1.579-3.041 4.203-3.105 2.24-.042 2.944 1.446 3.136 1.744l.192.404c.085.212.32 1.02.363 2.955v8.889l.341.34h2.667l.341-.34v-8.931-.277zM42.606 8.824c-4.97 0-8.94 4.126-8.94 9.08s4.033 8.973 9.004 8.973a8.995 8.995 0 0 0 8.15-5.188l-.085-.638-2.624-1.382a5.706 5.706 0 0 1-5.44 3.934 5.727 5.727 0 0 1-5.676-4.976h13.91l.342-.34s-.022-1.467-.128-2.041c-.597-4.338-3.99-7.422-8.513-7.422zm-5.12 6.741c.981-2.424 2.816-3.551 5.12-3.551 2.432 0 4.352 1.467 5.12 3.551h-10.24zM88.626 11.971c-.512-1.02-2.112-3.21-5.782-3.125-2.283.063-3.99 1.552-5.12 2.998-.576-1.063-2.198-3.062-5.697-2.998-1.728.042-3.136.935-4.203 1.977V9.526l-.341-.34h-2.667l-.341.34V25.9l.341.34h2.667l.341-.34v-8.484c.086-1.106.235-2.34.64-3.04.32-.554 1.302-2.297 3.5-2.361 2.175-.064 2.922 1.425 2.986 1.595l.192.404c.064.17.192.638.278 1.658v10.186l.34.34h2.604l.341-.34v-8.974c.107-.935.256-1.913.576-2.487.32-.553 1.302-2.297 3.5-2.36 2.175-.065 2.922 1.424 2.986 1.594l.192.404c.043.149.15.532.235 1.297v10.547l.341.34h2.603l.341-.34v-9.824c.022-2.68-.853-4.083-.853-4.083zM59.056 8.846c-.79.149-1.494.638-2.091 1.254v-.616l-.342-.34h-2.666l-.342.34v16.373l.341.34h2.667l.342-.34v-8.102a15.66 15.66 0 0 1 .32-2.466c.128-.596.96-3.275 2.517-3.19.363.021.726.128 1.088.425l1.43-2.36-.086-.638c-.938-.553-2.005-.893-3.178-.68z" fill="#fff"/>
        <path d="M131.083 0v18.053c-.064.723-.32 1.807-.982 2.509-.213.234-.49.468-.81.66-.384.17-1.387.595-2.561.595h-.128c-1.194 0-2.197-.404-2.56-.596a3.657 3.657 0 0 1-.811-.659c-.682-.702-.917-1.786-.981-2.51V0h-6.699v18.584c.021 1.765.426 4.742 2.603 6.762 1.344 1.255 3.776 2.637 7.616 2.743v.022h1.792v-.022c3.819-.085 6.252-1.488 7.617-2.743 2.176-2.02 2.582-4.997 2.603-6.762V0h-6.699z" fill="url(#paint0_linear)"/>
        <path d="M151.65 6.847c-6.187 0-11.223 4.423-11.329 9.994h-.022v18.18h6.337V26.9a11.647 11.647 0 0 0 5.014 1.148c6.251 0 11.35-4.933 11.35-11.015 0-5.507-5.099-10.185-11.35-10.185zm-.022 15.437c-2.795 0-5.056-2.168-5.056-4.848 0-2.679 2.261-4.848 5.056-4.848s5.057 2.169 5.057 4.848c0 2.68-2.262 4.848-5.057 4.848z" fill="url(#paint1_linear)"/>
    </g>
    <defs>
        <linearGradient id="paint0_linear" x1="115.519" y1="14.047" x2="137.784" y2="14.047" gradientUnits="userSpaceOnUse">
            <stop stop-color="#FCEE21"/>
            <stop offset="1" stop-color="#F15A24"/>
        </linearGradient>
        <linearGradient id="paint1_linear" x1="140.3" y1="20.926" x2="163" y2="20.926" gradientUnits="userSpaceOnUse">
            <stop stop-color="#F15A24"/>
            <stop offset="1" stop-color="#FF1D25"/>
        </linearGradient>
        <clipPath id="clip0">
            <path fill="#fff" d="M0 0h163v35H0z"/>
        </clipPath>
    </defs>
</svg>