<?xml version="1.0" encoding="utf-8"?>
<!-- Generator: Adobe Illustrator 16.2.0, SVG Export Plug-In . SVG Version: 6.00 Build 0)  -->
<!DOCTYPE svg PUBLIC "-//W3C//DTD SVG 1.1//EN" "http://www.w3.org/Graphics/SVG/1.1/DTD/svg11.dtd">
<svg version="1.1" id="OBJECTS" xmlns="http://www.w3.org/2000/svg" xmlns:xlink="http://www.w3.org/1999/xlink" x="0px" y="0px"
	 width="496.646px" height="582.426px" viewBox="0 0 496.646 582.426" enable-background="new 0 0 496.646 582.426"
	 xml:space="preserve">
<rect x="9" y="9" fill="#FFFFFF" stroke="#231F20" stroke-width="18" stroke-miterlimit="10" width="478.646" height="564.426"/>
<rect x="73.019" y="162.411" fill="#E22028" width="348.826" height="84.979"/>
<rect x="73.058" y="77.431" fill="#24211C" width="348.83" height="84.979"/>
<rect x="72.98" y="247.388" fill="#F5CD28" width="348.827" height="84.979"/>
<g enable-background="new    ">
	<path fill="#262626" d="M113.435,424.016h-12.301v-14.558H90.398v14.558H78.133v-39.377h12.265v15.357h10.736v-15.357h12.301
		V424.016z"/>
	<path fill="#262626" d="M138.182,424.781c-5.799,0-10.427-1.82-13.884-5.459c-3.457-3.64-5.186-8.201-5.186-13.685v-1.383
		c0-5.992,1.571-10.887,4.713-14.685c3.142-3.797,7.636-5.683,13.484-5.659c5.337,0,9.522,1.602,12.556,4.804
		c3.032,3.203,4.549,7.546,4.549,13.029v6.441h-22.491l-0.073,0.219c0.267,2.014,1.092,3.67,2.475,4.968s3.227,1.946,5.532,1.946
		c2.329,0,4.191-0.182,5.586-0.546c1.395-0.363,3.16-0.994,5.295-1.893l2.911,7.497c-1.723,1.262-3.949,2.312-6.678,3.148
		S141.312,424.781,138.182,424.781z M137.309,393.374c-1.771,0-3.1,0.631-3.985,1.892c-0.886,1.263-1.425,2.948-1.619,5.059
		l0.109,0.183h10.59v-0.946c0-1.989-0.413-3.518-1.237-4.586C140.341,393.907,139.055,393.374,137.309,393.374z"/>
	<path fill="#262626" d="M184.11,410.15h0.218l8.807-25.511h15.431v39.377h-12.301V402.8l-0.218-0.037l-7.715,21.254h-8.152
		l-7.278-20.089l-0.218,0.036v20.053h-12.301v-39.377h15.067L184.11,410.15z"/>
	<path fill="#262626" d="M234.806,424.781c-5.799,0-10.427-1.82-13.884-5.459c-3.457-3.64-5.186-8.201-5.186-13.685v-1.383
		c0-5.992,1.571-10.887,4.713-14.685c3.142-3.797,7.636-5.683,13.484-5.659c5.337,0,9.522,1.602,12.556,4.804
		c3.032,3.203,4.549,7.546,4.549,13.029v6.441h-22.491l-0.073,0.219c0.267,2.014,1.092,3.67,2.475,4.968s3.227,1.946,5.532,1.946
		c2.329,0,4.191-0.182,5.586-0.546c1.395-0.363,3.16-0.994,5.295-1.893l2.912,7.497c-1.724,1.262-3.949,2.312-6.679,3.148
		S237.936,424.781,234.806,424.781z M233.933,393.374c-1.771,0-3.1,0.631-3.985,1.892c-0.886,1.263-1.425,2.948-1.619,5.059
		l0.109,0.183h10.59v-0.946c0-1.989-0.413-3.518-1.237-4.586C236.965,393.907,235.679,393.374,233.933,393.374z"/>
	<path fill="#262626" d="M255.949,384.639h12.265v29.915h10.846v-29.915h12.337v29.987h6.479l-0.729,21.072h-11.573v-11.683h-29.624
		V384.639z"/>
	<path fill="#262626" d="M318.874,410.26h-3.676v13.757h-12.301v-39.377h12.301v14.156h3.53l6.26-14.156h15.722l-11.5,18.196h0.036
		l12.629,21.181h-16.632L318.874,410.26z"/>
	<path fill="#262626" d="M341.146,403.964c0-5.92,1.674-10.741,5.021-14.466c3.349-3.725,8.019-5.587,14.012-5.587
		c6.017,0,10.699,1.862,14.048,5.587c3.348,3.725,5.022,8.546,5.022,14.466v0.765c0,5.944-1.675,10.772-5.022,14.484
		c-3.349,3.712-8.007,5.568-13.975,5.568c-6.042,0-10.736-1.856-14.085-5.568c-3.348-3.712-5.021-8.54-5.021-14.484V403.964z
		 M353.447,404.728c0,3.3,0.515,5.89,1.547,7.77c1.03,1.881,2.783,2.82,5.259,2.82c2.401,0,4.124-0.946,5.167-2.839
		c1.043-1.892,1.565-4.476,1.565-7.751v-0.765c0-3.202-0.522-5.769-1.565-7.697s-2.79-2.893-5.24-2.893
		c-2.427,0-4.155,0.971-5.186,2.911c-1.032,1.941-1.547,4.501-1.547,7.679V404.728z"/>
	<path fill="#262626" d="M402.65,424.781c-5.799,0-10.427-1.82-13.884-5.459c-3.457-3.64-5.186-8.201-5.186-13.685v-1.383
		c0-5.992,1.57-10.887,4.713-14.685c3.142-3.797,7.636-5.683,13.483-5.659c5.337,0,9.522,1.602,12.556,4.804
		c3.032,3.203,4.549,7.546,4.549,13.029v6.441h-22.491l-0.072,0.219c0.267,2.014,1.092,3.67,2.475,4.968s3.227,1.946,5.532,1.946
		c2.329,0,4.19-0.182,5.586-0.546c1.395-0.363,3.16-0.994,5.295-1.893l2.912,7.497c-1.724,1.262-3.949,2.312-6.679,3.148
		S405.78,424.781,402.65,424.781z M401.777,393.374c-1.771,0-3.1,0.631-3.985,1.892c-0.886,1.263-1.426,2.948-1.619,5.059
		l0.109,0.183h10.59v-0.946c0-1.989-0.413-3.518-1.237-4.586C404.81,393.907,403.524,393.374,401.777,393.374z"/>
</g>
<g enable-background="new    ">
	<path fill="#262626" d="M94.554,492.358h-3.972v14.865H77.29v-42.551h13.292v15.298h3.814l6.764-15.298h16.989l-12.427,19.663
		h0.039l13.646,22.888h-17.972L94.554,492.358z"/>
	<path fill="#262626" d="M147.094,507.184c-0.368-0.682-0.702-1.441-1.003-2.281c-0.302-0.839-0.558-1.704-0.767-2.596
		c-1.258,1.757-2.779,3.153-4.562,4.188c-1.783,1.035-3.946,1.554-6.489,1.554c-4.038,0-7.322-1.167-9.852-3.5
		c-2.53-2.333-3.795-5.44-3.795-9.32c0-4.221,1.579-7.479,4.739-9.772c3.159-2.294,7.964-3.441,14.413-3.441h4.837v-3.028
		c0-1.809-0.427-3.198-1.278-4.168c-0.852-0.97-2.169-1.455-3.952-1.455c-1.521,0-2.655,0.36-3.402,1.081
		c-0.747,0.722-1.121,1.842-1.121,3.362l-12.86-0.039l-0.079-0.236c-0.184-3.88,1.429-7.124,4.837-9.733
		c3.408-2.608,7.917-3.913,13.528-3.913c5.243,0,9.498,1.312,12.761,3.933c3.264,2.622,4.896,6.371,4.896,11.248v16.045
		c0,2.281,0.19,4.392,0.57,6.331c0.379,1.94,0.95,3.868,1.71,5.781L147.094,507.184z M138.324,498.572
		c1.311,0,2.517-0.262,3.618-0.787c1.101-0.524,1.992-1.205,2.674-2.045v-6.646h-4.719c-2.098,0-3.625,0.511-4.582,1.533
		c-0.958,1.022-1.436,2.32-1.436,3.894c0,1.206,0.413,2.183,1.239,2.93C135.945,498.198,137.013,498.572,138.324,498.572z"/>
	<path fill="#262626" d="M203.094,507.223h-13.332v-12.781c-0.813,0.132-1.547,0.23-2.202,0.295
		c-0.656,0.066-1.233,0.099-1.73,0.099c-6.843,0-12.073-1.323-15.691-3.972c-3.618-2.648-5.427-6.804-5.427-12.467v-13.725h13.253
		v13.725c0,2.517,0.557,4.183,1.671,4.994c1.114,0.813,3.179,1.22,6.194,1.22c0.629,0,1.271-0.026,1.927-0.079
		c0.655-0.052,1.323-0.144,2.005-0.275v-19.584h13.332V507.223z"/>
	<path fill="#262626" d="M229.679,508.05c-6.267,0-11.267-1.967-15.003-5.899c-3.736-3.933-5.604-8.861-5.604-14.786v-1.495
		c0-6.475,1.697-11.765,5.093-15.868c3.395-4.103,8.251-6.141,14.57-6.115c5.767,0,10.29,1.73,13.567,5.191
		c3.277,3.461,4.916,8.154,4.916,14.079v6.961h-24.303l-0.079,0.235c0.288,2.177,1.18,3.966,2.674,5.368
		c1.495,1.403,3.487,2.104,5.978,2.104c2.517,0,4.529-0.196,6.037-0.59c1.507-0.393,3.415-1.074,5.722-2.045l3.146,8.102
		c-1.862,1.363-4.267,2.497-7.216,3.401C236.226,507.597,233.061,508.05,229.679,508.05z M228.735,474.111
		c-1.914,0-3.35,0.682-4.307,2.045s-1.54,3.186-1.75,5.466l0.118,0.197h11.444v-1.022c0-2.149-0.446-3.802-1.337-4.955
		C232.012,474.688,230.623,474.111,228.735,474.111z"/>
	<path fill="#262626" d="M271.011,497.824c1.782,0,3.106-0.484,3.972-1.455c0.865-0.969,1.298-2.398,1.298-4.286h12.151l0.079,0.236
		c0.104,4.641-1.501,8.422-4.817,11.346c-3.317,2.923-7.545,4.385-12.683,4.385c-6.45,0-11.425-2.006-14.925-6.018
		c-3.5-4.011-5.25-9.215-5.25-15.612v-0.904c0-6.371,1.743-11.568,5.23-15.593c3.486-4.024,8.429-6.037,14.826-6.037
		c5.4,0,9.714,1.509,12.938,4.523s4.784,7.117,4.68,12.309l-0.079,0.236H276.28c0-2.019-0.446-3.664-1.337-4.936
		c-0.892-1.271-2.242-1.907-4.051-1.907c-2.517,0-4.28,1.036-5.289,3.106c-1.01,2.071-1.515,4.837-1.515,8.298v0.904
		c0,3.566,0.505,6.358,1.515,8.377C266.612,496.815,268.415,497.824,271.011,497.824z"/>
	<path fill="#262626" d="M331.179,474.897h-13.41v32.326h-13.331v-32.326h-13.214v-10.225h39.955V474.897z"/>
	<path fill="#262626" d="M337,507.223v-42.551h18.247c5.715,0,10.159,1.003,13.331,3.009c3.172,2.005,4.759,4.975,4.759,8.907
		c0,1.992-0.695,3.769-2.084,5.328c-1.391,1.561-3.369,2.747-5.938,3.56c3.539,0.629,6.188,1.796,7.943,3.5
		c1.757,1.704,2.636,3.735,2.636,6.096c0,4.011-1.528,7.039-4.582,9.084c-3.055,2.045-7.479,3.067-13.272,3.067H337z
		 M350.292,481.701h5.466c1.547,0,2.655-0.253,3.323-0.758c0.669-0.505,1.003-1.303,1.003-2.392c0-1.295-0.394-2.229-1.18-2.799
		s-2.006-0.855-3.657-0.855h-4.955V481.701z M350.292,489.881v7.118h7.747c1.599,0,2.766-0.278,3.5-0.837
		c0.733-0.557,1.102-1.432,1.102-2.625c0-1.166-0.342-2.068-1.022-2.703c-0.683-0.636-1.875-0.953-3.579-0.953H350.292z"/>
	<path fill="#262626" d="M379.629,485.554c0-6.396,1.809-11.607,5.427-15.632s8.665-6.037,15.141-6.037
		c6.502,0,11.562,2.013,15.18,6.037s5.427,9.235,5.427,15.632v0.826c0,6.424-1.809,11.641-5.427,15.651
		c-3.618,4.012-8.651,6.018-15.101,6.018c-6.528,0-11.602-2.006-15.22-6.018c-3.618-4.011-5.427-9.228-5.427-15.651V485.554z
		 M392.921,486.381c0,3.565,0.557,6.364,1.671,8.396c1.114,2.031,3.009,3.047,5.684,3.047c2.595,0,4.456-1.022,5.584-3.067
		c1.127-2.045,1.69-4.837,1.69-8.376v-0.826c0-3.461-0.563-6.233-1.69-8.317c-1.128-2.084-3.016-3.126-5.663-3.126
		c-2.622,0-4.49,1.049-5.604,3.146c-1.114,2.098-1.671,4.864-1.671,8.298V486.381z"/>
</g>
</svg>
