<svg xmlns="http://www.w3.org/2000/svg" width="700" height="359" viewBox="0 0 700 359">
	<path fill="#00ac4d" d="M146.615.0399C53.6228.0399 0 70.977 0 135.471v222.813l90.3658-55.458H565.516c72.337 0 134.484-50.225 134.484-144.488V0L146.615.0399z"/>
	<path fill="#fff" d="M571.307 194.679l-.058 17.802 18.549.08.118-37.803v-.145c.155-18.127-14.58-32.914-32.912-32.974h-.877c-18.314-.042-33.127 14.651-33.072 32.807v.157l-.062 37.771h18.556v-17.752l29.758.057zm-29.758-15.672v-5.753c.17-8.753 6.86-15.828 14.982-16.01 8.161.182 14.776 7.365 14.886 16.062l-.05 5.796-29.818-.095zm-256.981 32.452l-7.181-.013c-16.312-.02-29.652-13.65-29.61-30.322v-4.986l15.525.035-.01 1.21c-.045 10.214 8.09 18.548 18.126 18.561h3.204l-.054 15.515zm24.791-15.42l18.14.047c10.036.028 18.184-8.267 18.289-18.494l.022-21.128-18.181-.067c-9.987-.033-18.167 8.254-18.242 18.506l-.028 21.136zm15.191-99.7401l7.25.02c16.312.0496 29.637 13.7101 29.595 30.3071v4.876l-15.532-.07v-1.014c0-10.174-8.1-18.579-18.125-18.604h-3.244l.056-15.5151zm-24.82 15.4501l-18.117-.053c-10.004 0-18.191 8.31-18.191 18.447l-.083 21.068 18.112.065c10.027 0 18.167-8.305 18.219-18.482l.06-21.045zm-22.075-15.62l37.62.132v1.1322l-.102 39.2278c0 1.969-.208 3.828-.555 5.658 2.812-.92 5.91-1.412 9.054-1.412l22.191.062 15.44.025-.075 40.492c-.068 16.64-13.369 30.265-29.741 30.183l-37.63-.123v-1.354l.082-39.167c0-1.91.213-3.86.533-5.599-2.837.895-5.906 1.419-9.04 1.419l-37.592-.129.079-40.387c.063-16.62 13.466-30.16 29.736-30.16zm-87.604-.2227l-18.727-.1198-.15 70.5445 18.692.105.06-26.681h10.019c10.326.029 19.521 10.761 19.521 21.04v5.641l19.111.08-.077-10.517c.14-10.586-5.551-20.615-16.73-24.667 11.034-1.999 17.282-13.18 17.415-24.062l.192-11.2465-19.096-.0522-.065 6.5347c-.165 13.371-7.055 21.368-18.622 21.354l-11.626-.028.083-27.9257zm199.622 45.0477l-18.704-.05-.195 70.857 18.717.065.06-26.749h9.854c10.382.023 19.616 10.739 19.666 21.066v5.956l19.174.042-.1-10.744c.107-10.587-5.581-20.776-16.865-24.769 11.152-2.025 17.447-13.256 17.582-24.163l.103-11.314-19.067-.082-.119 6.578c-.153 13.49-7.078 21.428-18.692 21.428l-11.504-.01.09-28.111zm124.213.298l-18.715-.033-.109 26.619-28.536-.073.04-21.248v-5.366l-18.721-.082-.146 71.072 18.692.063.082-25.862 28.474.042-.011 25.912 18.74.04v-.015l.049-28.291.161-42.561v-.217zm-408.542-2.517l36.582.08c-2.871 8.127-8.012 11.398-16.966 11.398h-21.799l-.01 15.873 24.88.095c19.511.032 33.724-17.269 33.996-36.678.16-18.432-15.844-33.8291-33.804-33.869l-24.394-.0502v15.9042l23.14.065c5.84 0 12.37 3.68 15.167 11.317l-36.792-.125v15.99z"/>
</svg>
