<?xml version="1.0" standalone="no"?>
<!DOCTYPE svg PUBLIC "-//W3C//DTD SVG 20010904//EN"
 "http://www.w3.org/TR/2001/REC-SVG-20010904/DTD/svg10.dtd">
<svg version="1.0" xmlns="http://www.w3.org/2000/svg"
 width="700.000000pt" height="700.000000pt" viewBox="0 0 700.000000 700.000000"
 preserveAspectRatio="xMidYMid meet">
<metadata>
Created by potrace 1.11, written by Peter Selinger 2001-2013
</metadata>
<g transform="translate(0.000000,700.000000) scale(0.100000,-0.100000)"
fill="#000000" stroke="none">
<path d="M4250 6938 c-55 -15 -560 -154 -720 -198 -80 -22 -235 -65 -345 -96
-110 -30 -207 -57 -215 -59 -8 -2 -98 -26 -200 -55 -102 -28 -192 -53 -200
-55 -8 -2 -123 -33 -255 -70 -132 -36 -287 -79 -345 -95 -58 -15 -204 -56
-325 -90 -121 -33 -228 -63 -238 -65 -21 -5 -22 -5 -123 -34 l-71 -21 1 -2479
1 -2480 180 -135 c99 -75 183 -136 186 -136 3 0 5 1116 5 2479 -1 1364 0 2478
2 2476 2 -1 42 8 90 21 71 20 355 98 762 211 30 8 69 18 85 23 17 4 98 26 180
49 83 23 200 56 260 72 159 44 195 54 340 94 72 20 137 38 145 40 8 2 130 35
270 74 700 192 942 260 947 264 2 3 -26 28 -64 57 -236 179 -293 220 -305 219
-7 0 -29 -5 -48 -11z"/>
<path d="M4829 6536 c-3 -3 -20 -8 -38 -11 -19 -3 -37 -8 -40 -10 -6 -3 -96
-28 -691 -192 -129 -35 -257 -70 -285 -78 -27 -7 -183 -50 -345 -95 -162 -45
-333 -92 -380 -105 -127 -34 -686 -188 -835 -230 -71 -20 -137 -38 -145 -40
-8 -2 -77 -21 -154 -41 l-139 -38 30 -25 c16 -14 47 -41 69 -59 21 -18 12 -13
-21 11 -33 24 -65 46 -71 50 -8 4 -10 -692 -10 -2466 l1 -2472 175 -132 c96
-73 180 -134 186 -137 8 -3 11 691 11 2460 0 1483 3 2468 9 2473 5 4 54 20
109 35 55 15 231 64 390 108 160 44 313 86 340 93 48 12 452 124 675 187 58
16 114 31 124 33 10 3 60 16 110 31 50 14 98 27 106 29 8 2 74 20 145 40 165
46 154 43 195 54 19 5 159 43 310 85 151 41 339 93 418 115 79 21 146 42 150
46 4 3 0 10 -8 15 -8 5 -89 67 -180 139 -145 114 -194 144 -211 127z"/>
<path d="M5130 6058 c-157 -43 -319 -88 -360 -99 -41 -11 -88 -24 -105 -28
-16 -5 -156 -43 -310 -86 -154 -42 -293 -81 -310 -85 -90 -24 -169 -46 -345
-95 -107 -30 -458 -127 -780 -215 -321 -89 -588 -166 -591 -172 -4 -6 -7
-1123 -7 -2482 l0 -2471 104 -75 c57 -41 142 -103 189 -138 46 -34 89 -62 94
-62 6 0 275 79 598 175 323 96 735 219 916 272 l327 97 0 904 0 903 -27 25
-28 26 35 -25 35 -24 200 54 c256 69 905 243 925 247 8 2 33 9 56 15 l41 11
-1 1564 c-1 860 -3 1566 -6 1569 -3 2 -86 65 -185 139 l-180 135 -285 -79z
m284 -1674 c-1 -1168 -3 -1367 -15 -1374 -8 -4 -104 -31 -214 -60 -110 -29
-283 -75 -385 -102 -186 -50 -387 -102 -535 -140 -44 -12 -82 -23 -84 -25 -4
-3 -4 -147 4 -1324 l3 -486 -92 -27 c-50 -15 -98 -29 -106 -31 -41 -11 -257
-77 -270 -82 -8 -3 -20 -7 -27 -9 -7 -1 -70 -20 -140 -42 -70 -22 -272 -84
-448 -137 -176 -53 -337 -103 -357 -111 -21 -7 -39 -10 -39 -6 -1 4 -2 46 -3
95 l-2 87 31 9 c16 5 152 46 300 91 149 45 284 86 300 90 17 4 127 38 245 74
118 37 261 81 318 98 86 27 102 35 103 52 0 12 0 418 1 904 l0 882 67 20 c36
11 289 81 561 155 272 75 518 143 546 151 l51 14 -1 1266 c-1 696 2 1270 5
1276 5 8 148 56 174 57 7 1 10 -460 9 -1365z m-556 428 c2 -427 4 -913 6
-1079 l2 -301 -56 -16 c-52 -15 -170 -47 -291 -80 -30 -8 -187 -51 -349 -95
-162 -45 -338 -93 -390 -107 -52 -14 -107 -30 -122 -36 l-28 -10 0 -903 0
-902 -107 -33 c-60 -18 -112 -34 -118 -36 -5 -1 -37 -11 -70 -22 -33 -10 -82
-26 -110 -35 -27 -8 -153 -48 -278 -87 -126 -39 -232 -69 -235 -65 -4 4 -7 45
-7 91 l0 85 155 48 c85 27 223 70 305 96 83 25 179 56 214 68 l63 23 0 903 c0
671 3 903 12 906 6 2 99 27 206 56 305 81 309 83 605 164 154 42 310 85 347
96 l67 20 0 987 c0 751 -3 988 -12 994 -7 5 -2 8 13 8 14 1 50 9 80 20 30 10
64 18 75 19 20 1 20 -6 23 -777z m-553 -171 c0 -520 -3 -795 -10 -801 -5 -4
-253 -74 -550 -155 -297 -81 -570 -156 -607 -167 l-68 -20 0 -903 0 -902 -87
-33 c-49 -18 -128 -48 -176 -67 -48 -18 -92 -31 -96 -28 -5 2 -9 499 -11 1102
-1 604 -2 1376 -3 1716 -2 472 1 617 10 617 9 0 1089 300 1533 425 25 7 49 12
55 11 7 -2 10 -276 10 -795z m-1920 593 l40 -36 -45 33 c-25 18 -47 34 -49 36
-2 2 0 3 5 3 5 0 27 -16 49 -36z m66 -51 c13 -16 12 -17 -3 -4 -17 13 -22 21
-14 21 2 0 10 -8 17 -17z m40 -30 c13 -16 12 -17 -3 -4 -17 13 -22 21 -14 21
2 0 10 -8 17 -17z m40 -30 c13 -16 12 -17 -3 -4 -10 7 -18 15 -18 17 0 8 8 3
21 -13z m1950 -2660 c13 -16 12 -17 -3 -4 -17 13 -22 21 -14 21 2 0 10 -8 17
-17z"/>
</g>
</svg>
