<svg id="Слой_1" data-name="Слой 1" xmlns="http://www.w3.org/2000/svg" width="82px" heigth="82px" viewBox="0 0 59.5 53.09"><defs><style>.cls-1{fill:#ff1a44;}</style></defs><title>heart</title><path class="cls-1" d="M15.3,0A15,15,0,0,0,4.5,4.7a16.31,16.31,0,0,0,0,22.5L28.8,52.7a1.37,1.37,0,0,0,1.8.1l.1-.1L55,27.2A16.31,16.31,0,0,0,55,4.7a15,15,0,0,0-21.7,0L29.7,8.4,26.1,4.6A14.76,14.76,0,0,0,15.3,0Zm0,2.4a12.53,12.53,0,0,1,9,3.9L28.8,11a1.37,1.37,0,0,0,1.8.1V11l4.5-4.7a12.18,12.18,0,0,1,18,0,13.91,13.91,0,0,1,0,19c-7.8,8.2-15.6,16.4-23.4,24.5L6.3,25.3a13.91,13.91,0,0,1,0-19,12.53,12.53,0,0,1,9-3.9Z"/></svg>
