<svg id="Layer_1" data-name="Layer 1" xmlns="http://www.w3.org/2000/svg" width="86px" height="86px" viewBox="0 0 71.23 71.23"><defs><stylee>.cls-1{fill:none;stroke:#a2a2a2;stroke-miterlimit:10;}.cls-2{fill:#ff1a44;}.cls-3{fill:#b9b9b9;}</style></defs><title>icon-good-job</title><rect class="cls-1" x="0.5" y="0.5" width="70.23" height="70.23"/><path class="cls-2" d="M55.83,33.32a3.25,3.25,0,0,0-3.3-3.08H41.64l1.22-9v-.14a2.62,2.62,0,0,0-2.65-2.51h-.14a2.69,2.69,0,0,0-2.44,1.94L32.11,32.25l-1.29.5a1.46,1.46,0,0,0-1,1.43V48.8a1.47,1.47,0,0,0,1.5,1.5l14.48-.22H47a3.25,3.25,0,0,0,3.22-2.87,3.35,3.35,0,0,0-.36-1.86,3.16,3.16,0,0,0,2.22-2.65,3.35,3.35,0,0,0-.36-1.86A3.16,3.16,0,0,0,54,38.2a3,3,0,0,0-.36-1.79A3.1,3.1,0,0,0,55.83,33.32ZM52,35.11a.72.72,0,0,0-.72.72.75.75,0,0,0,.36.65,1.68,1.68,0,0,1-.86,3.15h-.57a.72.72,0,0,0-.72.72.75.75,0,0,0,.36.65,1.7,1.7,0,0,1,.86,1.65,1.77,1.77,0,0,1-1.72,1.5h-.57a.72.72,0,0,0-.72.72.75.75,0,0,0,.36.65,1.7,1.7,0,0,1,.86,1.65,1.77,1.77,0,0,1-1.72,1.5h0l-15.84.14V34.11L33,33.54a.73.73,0,0,0,.43-.36l5.66-12c0-.07.07-.07.07-.14a1.16,1.16,0,0,1,1.15-.86h.29a1.06,1.06,0,0,1,.86,1L40.13,31a.86.86,0,0,0,.14.57.73.73,0,0,0,.5.29H52.6a1.73,1.73,0,0,1,1.72,1.65,1.68,1.68,0,0,1-1.65,1.72H52Z"/><path class="cls-3" d="M25.73,31.75h-8A2.36,2.36,0,0,0,15.41,34V50.31A2.31,2.31,0,0,0,17.7,52.6h8.1a2.31,2.31,0,0,0,2.29-2.29V34a2.22,2.22,0,0,0-.65-1.58A2.64,2.64,0,0,0,25.73,31.75Zm-8,1.72h8.1a.62.62,0,0,1,.57.57V50.31a.57.57,0,0,1-.57.57H17.7a.62.62,0,0,1-.57-.57V34a.57.57,0,0,1,.57-.57v0Z"/><circle class="cls-3" cx="20.57" cy="47.3" r="1.22"/></svg>
