<svg id="Layer_1" data-name="Layer 1" xmlns="http://www.w3.org/2000/svg" xmlns:xlink="http://www.w3.org/1999/xlink" width="52px" viewBox="0 0 85.26 85.44"><defs><style>.cls-1{fill:none;}.cls-2{fill:gray;}.cls-3{clip-path:url(#clip-path);}.cls-4{fill:#ff1a44;}</style><clipPath id="clip-path" transform="translate(4.56 9.92)"><rect class="cls-1" x="5.2" y="5.2" width="41.6" height="41.6"/></clipPath></defs><title>icon-wood-3</title><path class="cls-2" d="M51,1V51H1V1H51m1-1H0V52H52V0Z" transform="translate(4.56 9.92)"/><g class="cls-3"><path class="cls-4" d="M17.59,27a1.3,1.3,0,0,1-1-.43,1.68,1.68,0,0,1,0-1.3A29.4,29.4,0,0,1,20.45,19c2-2.17,5.46-4.33,7.71-4.33,1.47,0,3.21.61,3.73,1.73a1.87,1.87,0,0,1-.43,2.08c-.17.26-.43.52-.61.78-1.65,2-4.07,5-6.93,5.81-.69.17-1.56.52-2.34.78A12.83,12.83,0,0,1,17.59,27ZM28.25,15.43c-2.08,0-5.29,2.08-7.19,4.07a28.41,28.41,0,0,0-3.73,6.07c-.17.35-.17.52-.09.61s.17.09.43.09a13.81,13.81,0,0,0,3.9-1.13c.78-.26,1.65-.61,2.34-.78,2.6-.78,5-3.64,6.5-5.63a4.76,4.76,0,0,0,.61-.78c.35-.43.52-.87.26-1.21A3.71,3.71,0,0,0,28.25,15.43Z" transform="translate(4.56 9.92)"/><path class="cls-4" d="M13.87,32a1.52,1.52,0,0,1-1.3-.52c-.43-.52-.43-1.3-.17-2.51v-.09c1.3-5.29,1.82-7.54,6.5-11.44,5.55-4.59,8.49-6,12.83-6.24a3.17,3.17,0,0,1,3.38,1.91c1,2.34-.52,6.15-3.81,9.62-5.11,5.37-6.24,5.63-9,6.5l-.87.26c-.87.26-1.82.69-2.86,1.13A15.28,15.28,0,0,1,13.87,32ZM32,11.87h-.26c-4.07.26-7,1.65-12.39,6.07-4.51,3.73-5,5.72-6.24,11V29c-.26,1.21-.17,1.73,0,1.91a.93.93,0,0,0,.78.26,12.73,12.73,0,0,0,4.33-1.47c1-.43,2.08-1,2.95-1.21l1-.26c2.69-.78,3.73-1,8.75-6.24,3.81-4,4.33-7.19,3.64-8.75A2.62,2.62,0,0,0,32,11.87Z" transform="translate(4.56 9.92)"/><path class="cls-4" d="M8.32,39.26a1.24,1.24,0,0,1-1-.43c-.43-.52-.52-1.47-.35-3,.78-6.5,4.42-13.35,7.63-17.33A30.72,30.72,0,0,1,28.08,8.67C31.37,7.45,35,6.15,37.61,6.15a3.35,3.35,0,0,1,2.95,1.13c.61,1,.61,2.34-.09,4.25-3,8.41-9.62,18.46-19,21.58a50.31,50.31,0,0,0-8.84,4.16C10.66,38.48,9.27,39.26,8.32,39.26ZM37.61,7c-2.43,0-6.07,1.21-9.27,2.43A29.66,29.66,0,0,0,15.25,19C12,22.88,8.49,29.55,7.8,35.88c-.17,1.3-.09,2.17.17,2.43a.51.51,0,0,0,.43.17c.78,0,2.17-.78,3.9-1.82a46.54,46.54,0,0,1,9-4.25C30.51,29.47,37,19.15,39.87,11.35c.61-1.65.69-2.86.17-3.55A3.26,3.26,0,0,0,37.61,7Z" transform="translate(4.56 9.92)"/><path class="cls-4" d="M-4.16,55.47c-.09,0-.17,0-.17-.09-.17-.09-.17-.35-.09-.52A40.75,40.75,0,0,1,11,41.51c3.29-1.65,6-2.86,8.32-3.9,4.59-2.08,7.89-3.55,11.18-6.24C35.62,27.13,41.43,20,42.81,13.69c.43-1.82.69-3.29,1-4.59.61-3.38,1-5.29,2.77-7.54.87-1.13,2.25-3.21,3.64-5.37,1.3-2,2.69-4.16,3.9-5.81.09-.17.35-.17.52-.09s.17.35.09.52c-1.3,1.65-2.69,3.73-4,5.72C49.31-1.3,47.93.78,47.06,1.91c-1.65,2.08-2,3.9-2.6,7.19-.26,1.3-.52,2.77-1,4.68-1.56,7-7.8,14.13-12.57,18.11-3.38,2.77-6.67,4.25-11.35,6.33-2.43,1-5.11,2.25-8.32,3.9A42.22,42.22,0,0,0-3.9,55.21.28.28,0,0,1-4.16,55.47Z" transform="translate(4.56 9.92)"/><path class="cls-4" d="M-4.16,50.79a.32.32,0,0,1-.26-.09c-.17-.09-.17-.35-.09-.52A26,26,0,0,0-2.95,48.1a79.5,79.5,0,0,0,4.77-6.67C3.47,38.83,4.51,35,5.55,31.29A50.27,50.27,0,0,1,8,23.83c2.43-4.94,6-11.18,12-15.17a22.08,22.08,0,0,1,9.19-3.21c2.95-.61,5.72-1.13,8.58-2.95,3.73-2.43,7-6.59,10.14-10.57l1.3-1.56c.09-.17.35-.17.52-.09s.17.35.09.52l-1.3,1.56C45.41-3.81,41.95.52,38.13,3c-2.95,2-6,2.51-8.84,3.12a21.74,21.74,0,0,0-8.84,3.12c-5.89,4-9.36,10.14-11.7,15a44.6,44.6,0,0,0-2.43,7.28c-1,3.73-2.08,7.63-3.81,10.31S-.35,46-2.25,48.62q-.65.91-1.56,2.08A.52.52,0,0,1-4.16,50.79Z" transform="translate(4.56 9.92)"/><path class="cls-4" d="M-4.07,62.83c-.09,0-.17,0-.17-.09a.33.33,0,0,1-.09-.52C-1,56.77,4.16,49.66,9,46.63a98,98,0,0,1,11.09-5.29C27.73,38,36.4,34.15,39.17,30.59c5-6.41,7.89-19.85,8.93-25.31C49.14-.52,54-5.46,58.5-9.62c.17-.17.35-.09.52,0s.09.35,0,.52C54.6-5,49.83-.17,48.79,5.46c-1.3,6.85-4.16,19.33-9.1,25.65-2.95,3.73-11.7,7.54-19.41,11a89.09,89.09,0,0,0-11,5.29C4.59,50.27-.43,57.29-3.81,62.66-3.9,62.83-4,62.83-4.07,62.83Z" transform="translate(4.56 9.92)"/><path class="cls-4" d="M-4.07,69c-.09,0-.17,0-.17-.09-.17-.09-.17-.35-.09-.52C1.21,60.32,6.59,52.87,10.92,49.92c2.25-1.56,6-3.12,10.4-4.85,7.37-3,15.6-6.41,19.15-11C45.93,27,48.36,17,50.61,6.5c1-4.94,4.94-10.23,11.79-16.21a.39.39,0,0,1,.52,0c.17.17.09.35,0,.52C56-3.21,52.17,1.91,51.13,6.67,48.88,17.25,46.45,27.3,40.91,34.49c-3.64,4.77-12,8.15-19.41,11.18-4.16,1.73-8.06,3.29-10.23,4.77C7,53.39,1.73,60.75-3.81,68.73-3.9,69-4,69-4.07,69Z" transform="translate(4.56 9.92)"/><path class="cls-4" d="M-4.16,44.72a.32.32,0,0,1-.26-.09c-.17-.09-.17-.35-.09-.52l.35-.52c3.73-4.85,4.68-6.15,6.5-12.31.26-.78.43-1.47.61-2.17C5,21.75,6.41,16.9,12.13,10.4,18.55,3,27.65,2,31.55,1.56c3.12-.35,10.31-8.23,13-11.18a.32.32,0,0,1,.52,0,.33.33,0,0,1,0,.52C40.39-4,34.67,2,31.81,2.34,28,2.77,19.07,3.73,12.91,10.92c-5.63,6.41-7,11.27-9.1,18.46-.17.69-.43,1.47-.61,2.17C1.39,37.79.26,39.26-3.38,44l-.35.52C-3.9,44.63-4,44.72-4.16,44.72Z" transform="translate(4.56 9.92)"/><path class="cls-4" d="M-4,75.05A.32.32,0,0,1-4.25,75c-.17-.09-.17-.35-.09-.52C-2.77,72.28-1.21,70,.26,67.86c4.16-6.07,8.06-11.87,12.65-15,3.12-2.17,7.19-3.64,11.53-5.2,6.15-2.25,12.57-4.59,15.77-9,.52-.69,1-1.3,1.39-1.91,4.77-6.41,7.89-10.57,9.27-20,1.21-8,9-19.33,16.12-26.35a.32.32,0,0,1,.52,0,.33.33,0,0,1,0,.52c-7,7-14.73,18.11-15.86,26-1.47,9.62-4.59,13.87-9.45,20.37-.43.61-1,1.21-1.39,1.91-3.38,4.59-9.88,6.93-16.12,9.27-4.25,1.56-8.32,3-11.35,5.11C8.84,56.59,5,62.31.87,68.29c-1.47,2.17-3,4.51-4.68,6.67C-3.73,75.05-3.9,75.05-4,75.05Z" transform="translate(4.56 9.92)"/><path class="cls-4" d="M34.15,75.49a.32.32,0,0,1-.26-.09.32.32,0,0,1,0-.52C36.31,72.45,45.5,64.22,48,65.09a1.09,1.09,0,0,1,.69,1c.26,2.6-.78,6.41-2.43,9.27a.39.39,0,1,1-.69-.35,17.27,17.27,0,0,0,2.34-8.75.38.38,0,0,0-.17-.35c-1.56-.52-9.19,5.37-13.35,9.62Z" transform="translate(4.56 9.92)"/><path class="cls-4" d="M42.55,75.4h-.17a.42.42,0,0,1-.17-.52c.61-1.3.61-2,.43-2.25s-.61-.09-.78-.09c-1.21.35-2,.87-4.07,2.69-.17.17-.35.09-.52,0s-.09-.35,0-.52c2-1.73,2.95-2.43,4.33-2.86a1.53,1.53,0,0,1,1.56.26c.43.52.35,1.56-.35,3A.23.23,0,0,1,42.55,75.4Z" transform="translate(4.56 9.92)"/><path class="cls-4" d="M31.2,75.49a.32.32,0,0,1-.26-.09.32.32,0,0,1,0-.52l.78-.78c4.77-5,8.84-9.36,13.17-11.09,1.13-.43,2.34-.87,3.55-1.3,4.85-1.65,9.79-3.47,12-8.75a140.83,140.83,0,0,0,4.07-13.78c2.25-8.23,4.77-17.59,7.28-22.53,2-4,5.29-9.45,8.15-14.3a.33.33,0,0,1,.52-.09.33.33,0,0,1,.09.52C77.74,7.54,74.45,13,72.45,17,70,21.93,67.51,31.2,65.26,39.43c-1.56,5.72-2.95,11-4.16,13.87-2.34,5.63-7.45,7.45-12.48,9.19-1.21.43-2.43.87-3.47,1.3-4.16,1.73-8.23,6-12.91,10.92l-.78.78C31.46,75.4,31.29,75.49,31.2,75.49Z" transform="translate(4.56 9.92)"/><path class="cls-4" d="M26.17,75.4a.32.32,0,0,1-.26-.09.32.32,0,0,1,0-.52c7.19-7.45,11.79-11.61,14.56-13a24.43,24.43,0,0,1,5.2-1.73c3-.78,6.07-1.65,8.41-3.73,3.9-3.55,7.11-13.26,8.41-20.8S70.2,8.93,76.09,2c1.3-1.56,2.6-3.21,3.81-4.77.09-.17.35-.17.52-.09s.17.35.09.52C79.3-.69,78,.87,76.7,2.43,70.89,9.19,64.65,28,63.27,35.53S58.59,53,54.6,56.68c-2.43,2.25-5.63,3.12-8.75,3.9a27.21,27.21,0,0,0-5.11,1.73C38,63.7,33.37,67.86,26.35,75.23A.19.19,0,0,1,26.17,75.4Z" transform="translate(4.56 9.92)"/><path class="cls-4" d="M1,75.4c-.09,0-.17,0-.17-.09a.33.33,0,0,1-.09-.52c4-6.15,11.44-16.81,15.95-19.15,1.47-.78,3.29-1.56,5.2-2.43C27,50.87,33.28,48,39.35,43.59,47.23,37.79,49.57,31.29,51.74,25l.35-1c.52-1.56,1-3.12,1.65-4.77,1.73-5.2,3.47-10.57,6.41-15A133.16,133.16,0,0,1,71.59-9.62a.32.32,0,0,1,.52,0,.33.33,0,0,1,0,.52A129,129,0,0,0,60.84,4.59C58,8.93,56.25,14.21,54.51,19.41c-.52,1.56-1,3.21-1.65,4.77l-.35,1c-2.17,6.07-4.59,13-12.65,18.89a94,94,0,0,1-17.68,9.71c-1.91.87-3.73,1.65-5.2,2.43-4.59,2.34-12.48,14-15.69,18.89A.32.32,0,0,1,1,75.4Z" transform="translate(4.56 9.92)"/><path class="cls-4" d="M19.93,75.49a.32.32,0,0,1-.26-.09.32.32,0,0,1,0-.52l.35-.35C26.43,68.47,34.32,61,37.44,59.71a48.37,48.37,0,0,1,6.76-2.08c3-.87,6.15-1.65,7.28-2.51,2-1.39,7.11-11,7.89-16.21A87.34,87.34,0,0,1,64,20.63C66.47,14.47,71.41,3.29,74-.61c1-1.47,3-4,5.81-7.45a.41.41,0,0,1,.52-.09.41.41,0,0,1,.09.52c-2.86,3.38-4.77,5.89-5.81,7.37-2.6,3.81-7.45,15-9.88,21.06a90.27,90.27,0,0,0-4.68,18.11C59.28,44,54.17,54,51.83,55.64c-1.3,1-4.33,1.73-7.54,2.6a61.7,61.7,0,0,0-6.67,2.08C34.67,61.53,26.78,69,20.45,75l-.35.35C20.11,75.49,20,75.49,19.93,75.49Z" transform="translate(4.56 9.92)"/><path class="cls-4" d="M6.41,75.4c-.09,0-.17,0-.17-.09-.17-.09-.17-.35-.09-.52C12,66.39,18.46,60.32,25,57.2l1.73-.87C33,53.3,38.91,50.44,43.85,46s8.67-11.7,11.27-22.1c.26-1.13.52-2.17.78-3.21,1.65-6.76,2.34-9.62,5.81-14.47a174.23,174.23,0,0,1,12.91-16,.32.32,0,0,1,.52,0,.33.33,0,0,1,0,.52A191,191,0,0,0,62.23,6.67c-3.38,4.77-4,7.28-5.72,14.21-.26,1-.52,2-.78,3.21-2.6,10.49-6.5,18-11.44,22.45s-11,7.37-17.33,10.4l-1.73.87C20.8,60,14,64.74,6.67,75.23,6.67,75.4,6.59,75.4,6.41,75.4Z" transform="translate(4.56 9.92)"/><path class="cls-4" d="M13.35,75.4a.32.32,0,0,1-.26-.09c-.17-.09-.17-.35-.09-.52,2.51-3.29,7.54-9.45,13-12.91a95.65,95.65,0,0,1,16.9-8.75c6.15-2.6,8.84-7.11,11.7-14.39a143.66,143.66,0,0,0,4.25-14.47c.69-2.86,1.39-5.55,2.17-8.06C62.92,9.88,69.42-.35,77.65-9.71a.32.32,0,0,1,.52,0,.33.33,0,0,1,0,.52C68.9,1.47,63.27,11.35,61.71,16.47c-.69,2.43-1.39,5.2-2.17,8-1.3,5-2.6,10.14-4.25,14.56-2.43,6.41-5,11.87-12,14.82a94.32,94.32,0,0,0-16.81,8.67c-4,2.51-8.58,7.11-12.83,12.74C13.52,75.4,13.43,75.4,13.35,75.4Z" transform="translate(4.56 9.92)"/><path class="cls-4" d="M49.57,75.49H49.4a.39.39,0,0,1-.17-.52,19.9,19.9,0,0,0,1.21-3.9A15.17,15.17,0,0,1,53,65.17a16.43,16.43,0,0,1,4.94-4c2.25-1.39,4.33-2.69,5.46-5.46a79,79,0,0,0,2.77-9.36c1.91-6.93,4.25-15.51,7-21.23,1.39-2.86,2.51-5.63,3.64-8.41,1-2.51,2-4.94,3.12-7.11a.39.39,0,1,1,.69.35c-1,2.17-2,4.59-3,7.11-1.13,2.77-2.34,5.63-3.64,8.49-2.69,5.63-5,14.21-6.93,21.06-1.13,4.07-2.08,7.54-2.86,9.45-1.21,2.95-3.55,4.42-5.72,5.81a16.19,16.19,0,0,0-4.68,3.81,14,14,0,0,0-2.34,5.63,31.23,31.23,0,0,1-1.3,4.07C49.92,75.4,49.75,75.49,49.57,75.49Z" transform="translate(4.56 9.92)"/><path class="cls-4" d="M52.17,75.4h-.09c-.17-.09-.35-.26-.26-.43a12.11,12.11,0,0,0,.52-2.08c.61-2.6,1-4.25,4-6.33A26.3,26.3,0,0,1,61.1,64c2.77-1.3,4.94-2.25,6-5.63.43-1.47,1-4.07,1.73-7.11,1.82-8.15,4.59-20.45,8.58-26.17a48.09,48.09,0,0,0,2.51-4.16.39.39,0,1,1,.69.35A42.84,42.84,0,0,1,78,25.48c-3.9,5.72-6.67,17.85-8.49,26-.69,3.21-1.3,5.72-1.73,7.11-1.21,3.64-3.64,4.77-6.41,6.07a24.49,24.49,0,0,0-4.59,2.51c-2.69,1.91-3,3.29-3.64,5.89-.17.61-.35,1.3-.52,2.17A.66.66,0,0,1,52.17,75.4Z" transform="translate(4.56 9.92)"/><path class="cls-4" d="M56.42,75.49h-.09c-.17-.09-.35-.26-.26-.43,1.21-4.07,2.51-5.89,6.07-8,4.85-2.86,7.71-6,8.67-9.53.26-1.13.61-3,1-5.37,1.13-6.07,2.77-15.25,5.46-20.63C78.09,30,79,28.43,79.82,27a.39.39,0,1,1,.69.35c-.87,1.56-1.73,3-2.51,4.59-2.69,5.29-4.33,14.39-5.37,20.37-.43,2.43-.78,4.33-1.13,5.46-1,3.81-4,7-9,10.05-3.29,1.91-4.59,3.64-5.72,7.54A.61.61,0,0,1,56.42,75.49Z" transform="translate(4.56 9.92)"/><path class="cls-4" d="M60,75.4H59.8a.42.42,0,0,1-.17-.52,10.08,10.08,0,0,1,4.68-4.42c3.81-2.25,8-5.29,9.45-10.83a67.64,67.64,0,0,0,1.47-8.49c.69-5.2,1.47-11.09,3.29-14.65.43-.87,1-1.73,1.47-2.69a.37.37,0,0,1,.61.43c-.52,1-1,1.82-1.47,2.6-1.73,3.38-2.51,9.27-3.21,14.39a72.37,72.37,0,0,1-1.47,8.58c-1.56,5.81-5.81,8.93-9.79,11.27-2.34,1.39-3.55,2.51-4.33,4.16A.35.35,0,0,1,60,75.4Z" transform="translate(4.56 9.92)"/><path class="cls-4" d="M65.09,75.4a.32.32,0,0,1-.26-.09c-.17-.17-.09-.35,0-.52.61-.52,1.47-1.21,2.51-2.08l1-.78c5.63-4.59,8-6.41,8.23-11.87.17-3.21,1.65-10.31,3.29-16.21.09-.17.26-.35.43-.26s.35.26.26.43a93.9,93.9,0,0,0-3.21,16c-.35,5.81-2.86,7.89-8.49,12.39l-1,.78c-1,.87-1.82,1.47-2.51,2.08A.32.32,0,0,1,65.09,75.4Z" transform="translate(4.56 9.92)"/><path class="cls-4" d="M71.07,75.49a.32.32,0,0,1-.26-.09c-.17-.09-.17-.35-.09-.52a12.61,12.61,0,0,1,3.12-3c2.34-1.39,5.46-5.63,5.72-8.93,0-.26.09-.52.09-1a.39.39,0,1,1,.78.09c0,.35-.09.69-.09,1-.35,3.55-3.55,8.06-6.07,9.45a10.82,10.82,0,0,0-2.95,2.77A.28.28,0,0,1,71.07,75.49Z" transform="translate(4.56 9.92)"/><path class="cls-4" d="M76.09,75.49c-.09,0-.17,0-.17-.09-.17-.09-.17-.35-.09-.52A15.79,15.79,0,0,1,80,70.63c.17-.09.43-.09.52.09s.09.43-.09.52a15.85,15.85,0,0,0-4,4.07C76.27,75.49,76.18,75.49,76.09,75.49Z" transform="translate(4.56 9.92)"/><path class="cls-4" d="M-4,37.53c-.09,0-.09,0-.17-.09A.32.32,0,0,1-4.33,37,69,69,0,0,0,1.39,23.49c.35-1.13.78-2.34,1.21-3.55C5.46,12,10.66,3.12,15.86,1.56A39.49,39.49,0,0,1,22,.52C26.17,0,30.51-.52,33.45-3c2.43-2.08,5.2-4.51,7.37-6.59a.32.32,0,0,1,.52,0,.32.32,0,0,1,0,.52C39.17-6.93,36.4-4.51,34-2.43,30.85.17,26.43.69,22.1,1.21a37.15,37.15,0,0,0-6,1c-5,1.56-10.05,10.14-12.83,18-.43,1.21-.78,2.34-1.21,3.47A67.31,67.31,0,0,1-3.73,37.35C-3.73,37.44-3.9,37.53-4,37.53Z" transform="translate(4.56 9.92)"/><path class="cls-4" d="M-4.07,28.77h-.17a.42.42,0,0,1-.17-.52C-2.25,23.75-.52,19.41,1,15.6c.61-1.47,1.13-2.95,1.65-4.16l.17-.35C5.46,4.51,7.63-.69,13.35-1.47l1.39-.17c5.37-.69,12.83-1.73,16.21-4.42a25.56,25.56,0,0,0,3.64-3.47.32.32,0,0,1,.52,0,.32.32,0,0,1,0,.52,43,43,0,0,1-3.73,3.55C27.82-2.77,20.28-1.73,14.73-1l-1.39.17c-5.29.69-7.28,5.55-10,12.13l-.17.35c-.52,1.3-1,2.69-1.65,4.16C.09,19.67-1.65,24-3.81,28.6-3.81,28.69-4,28.77-4.07,28.77Z" transform="translate(4.56 9.92)"/><path class="cls-4" d="M-4.07,20.37h-.17a.39.39,0,0,1-.17-.52C-2.6,15.69-1,11.44.35,7.63,1.21,5.29,1.91,3.29,2.6,1.82c2.6-6.41,8.67-7.11,14.21-7.19C19.59-5.46,23.31-6.85,27-9.1c.17-.09.43-.09.52.09s.09.43-.09.52c-3.81,2.34-7.63,3.73-10.57,3.81-5.46.17-11.09.78-13.52,6.76C2.69,3.64,1.91,5.63,1,7.89-.35,11.53-2,16-3.81,20.19-3.81,20.37-3.9,20.37-4.07,20.37Z" transform="translate(4.56 9.92)"/><path class="cls-4" d="M-3.9,7.54h-.17A.42.42,0,0,1-4.25,7,41.8,41.8,0,0,0-1.3-1.13C.17-7.28,4.25-8,10.23-8.23a24.07,24.07,0,0,0,6.41-1.3.29.29,0,0,1,.43.26.29.29,0,0,1-.26.43,26.23,26.23,0,0,1-6.67,1.39C3.55-7.11.61-6.15-.69-.87a40.24,40.24,0,0,1-3,8.32C-3.64,7.45-3.73,7.54-3.9,7.54Z" transform="translate(4.56 9.92)"/><path class="cls-4" d="M-3.9,1.47h-.17A.39.39,0,0,1-4.25,1,35.15,35.15,0,0,0-2.86-3.55a9.38,9.38,0,0,1,4.16-6c.17-.09.43-.09.52.09s.09.43-.09.52A8.55,8.55,0,0,0-2.08-3.38,32,32,0,0,1-3.55,1.21.46.46,0,0,1-3.9,1.47Z" transform="translate(4.56 9.92)"/><path class="cls-4" d="M-4.85-9.53" transform="translate(4.56 9.92)"/></g></svg>
