<svg id="Layer_1" data-name="Layer 1" xmlns="http://www.w3.org/2000/svg" width="86px" height="86px" viewBox="0 0 98 98"><defs><style>.cls-1{fill:#8e8e8e;}.cls-2{fill:#ff1a44;}.cls-3{fill:#999;}</style></defs><title>icon-neprovz-krasota</title><path class="cls-1" d="M97,1V97H1V1H97m1-1H0V98H98V0Z"/><path class="cls-2" d="M84,13.2H14a.79.79,0,0,0-.8.8V84a.79.79,0,0,0,.8.8H84a.79.79,0,0,0,.8-.8V14C84.7,13.6,84.4,13.2,84,13.2Zm-5.7,5.4H19.6l-3.8-3.9H82.1Zm-.4,1.5V77.9H20.1V20.1Zm-59.3-.5V78.3l-3.8,3.9V15.8Zm1,59.8H78.3l3.8,3.8H15.8Zm59.8-1.1V19.6l3.8-3.8V82.1Z"/><path class="cls-3" d="M22.5,62v1.9H75.4V62.1L73.6,62h-22V56.3c2.7-.4,4.8-2.3,4.8-4.7V46c0-2.6-2.6-4.8-5.8-4.8s-5.8,2.2-5.8,4.8v5.6c0,2.4,2.1,4.4,4.8,4.7V62H36.7V56.4c2.7-.4,4.8-2.3,4.8-4.7V46.1c0-2.6-2.6-4.8-5.8-4.8s-5.8,2.2-5.8,4.8v5.6c0,2.4,2.1,4.4,4.8,4.7V62H22.5Zm27.3-7.5a3.3,3.3,0,0,1-3-2.9V46c0-1.6,1.8-3,3.9-3s3.9,1.3,3.9,3v5.6c0,1.4-1.3,2.5-3,2.9V49.6H49.8Zm-15,.1a3.3,3.3,0,0,1-3-2.9V46.1c0-1.6,1.8-3,3.9-3s3.9,1.3,3.9,3v5.6c0,1.4-1.3,2.5-3,2.9V49.7H34.8Z"/><path class="cls-3" d="M63.6,44.2a5,5,0,1,0-5-5A5.08,5.08,0,0,0,63.6,44.2Zm0-8.2a3.1,3.1,0,1,1-3.1,3.1A3.12,3.12,0,0,1,63.6,36Z"/></svg>