<svg id="Слой_1" data-name="Слой 1" xmlns="http://www.w3.org/2000/svg" width="86px" height="86px" viewBox="0 0 98 98"><defs><style>.cls-1{fill:#999;}.cls-2{fill:#ff1a44;}</style></defs><title>icon-hard</title><path class="cls-1" d="M97,1V97H1V1H97m1-1H0V98H98V0Z"/><path class="cls-2" d="M74.62,67.5H33.82a1,1,0,0,1-.95-.95,6.64,6.64,0,0,1,6.64-6.64h7.18a10.44,10.44,0,0,0-10.44-9.49h-2a1,1,0,0,1-.95-.95v-1.9H32.4A14.23,14.23,0,0,1,18.17,33.35a1,1,0,0,1,.95-.95H33.35v-.95a1,1,0,0,1,.95-.95H78.88a1,1,0,0,1,.95.95V47.58a1,1,0,0,1-.95.95H74.62A12.33,12.33,0,0,0,62.28,59.91h6.64a6.64,6.64,0,0,1,6.64,6.64A1,1,0,0,1,74.62,67.5ZM34.86,65.6H73.57a4.74,4.74,0,0,0-4.65-3.79H61.33a1,1,0,0,1-.95-.95A14.23,14.23,0,0,1,74.62,46.63h3.32V32.4H35.24v.95a1,1,0,0,1-.95.95H20.06A12.33,12.33,0,0,0,32.4,45.68h1.9a1,1,0,0,1,.95.95v1.9h1.06A12.33,12.33,0,0,1,48.64,60.86a1,1,0,0,1-.95.95H39.51A4.74,4.74,0,0,0,34.86,65.6Z"/><path class="cls-2" d="M34.29,50.42a1,1,0,0,1-.95-.95V40a.95.95,0,1,1,1.9,0v9.49A1,1,0,0,1,34.29,50.42Z"/><path class="cls-2" d="M34.29,37.14a1,1,0,0,1-.95-.95V31.45a.95.95,0,1,1,1.9,0v4.74A1,1,0,0,1,34.29,37.14Z"/></svg>