<svg id="Layer_1" data-name="Layer 1" xmlns="http://www.w3.org/2000/svg" width="86px" height="86px" viewBox="0 0 71 71"><defs><stylee>.cls-1{fill:none;stroke:#a2a2a2;stroke-miterlimit:10;}.cls-2{fill:#ff1a44;}.cls-3{fill:#b9b9b9;}</style></defs><title>icon-vyezd-zamera</title><rect class="cls-1" x="0.5" y="0.5" width="70.23" height="70.23"/><path class="cls-2" d="M13.19,27.59H27a.86.86,0,0,0,0-1.72H13.19a.86.86,0,0,0,0,1.72Z"/><path class="cls-2" d="M14.19,31.53H27a.87.87,0,0,0,.86-.86.81.81,0,0,0-.86-.79H14.19a.87.87,0,0,0-.86.86A.77.77,0,0,0,14.19,31.53Z"/><path class="cls-2" d="M16.12,35.47H27a.87.87,0,0,0,.86-.86.83.83,0,0,0-.86-.86H16.12a.86.86,0,0,0,0,1.72Z"/><path class="cls-3" d="M52.32,46.29h4.3a.92.92,0,0,0,.86-.86V34.11a.84.84,0,0,0-.57-.79l-7.6-2.87L44,22.29a.88.88,0,0,0-.72-.36H18.13a.86.86,0,1,0,0,1.72H42.85l5.16,8a.73.73,0,0,0,.43.36l7.38,2.8v9.89H52.6l-.07-.5a4.3,4.3,0,0,0-4.23-3.44,4.36,4.36,0,0,0-4.23,3.44l-.07.5H30.81l-.07-.5a4.3,4.3,0,0,0-4.23-3.44,4.36,4.36,0,0,0-4.23,3.44l-.07.5H19V38.63a.86.86,0,1,0-1.72,0v6.88a.92.92,0,0,0,.86.86h4.3l.14.36a4.3,4.3,0,0,0,7.88,0l.14-.36H44.14l.14.36a4.3,4.3,0,0,0,7.88,0Zm-25.8,1.29a2.65,2.65,0,1,1,2.65-2.65A2.65,2.65,0,0,1,26.51,47.58Zm21.71,0a2.65,2.65,0,1,1,2.65-2.65A2.69,2.69,0,0,1,48.23,47.58Z"/></svg>
