<svg id="Слой_1" data-name="Слой 1" xmlns="http://www.w3.org/2000/svg" width="86px" height="86px" viewBox="0 0 98 98"><defs><style>.cls-1{fill:#8e8e8e;}.cls-2{fill:#ff1a44;}.cls-3{fill:#999;}</style></defs><title>icon-neprovz-krasota</title><path class="cls-1" d="M97,1V97H1V1H97m1-1H0V98H98V0Z"/><path class="cls-2" d="M84,13.2H14a.79.79,0,0,0-.8.8V84a.79.79,0,0,0,.8.8H84a.79.79,0,0,0,.8-.8V14C84.7,13.6,84.4,13.2,84,13.2Zm-5.7,5.4H19.6l-3.8-3.9H82.1Zm-.4,1.5V77.9H20.1V20.1Zm-59.3-.5V78.3l-3.8,3.9V15.8Zm1,59.8H78.3l3.8,3.8H15.8Zm59.8-1.1V19.6l3.8-3.8V82.1Z"/><path class="cls-3" d="M22.5,63.15m53,0-53-1v1.92h53V62.28l-1.85-.05h-22V56.56c2.74-.37,4.84-2.35,4.84-4.73V46.19c0-2.65-2.59-4.8-5.77-4.8s-5.77,2.15-5.77,4.8v5.64c0,2.38,2.1,4.36,4.84,4.73v5.67H36.65v-5.6c2.74-.37,4.84-2.35,4.84-4.73V46.27c0-2.65-2.59-4.8-5.77-4.8S30,43.62,30,46.27V51.9c0,2.38,2.1,4.36,4.84,4.73v5.6H24.35Zm27.28-7.48c-1.71-.31-3-1.47-3-2.86V46.19c0-1.63,1.76-3,3.92-3s3.92,1.32,3.92,3v5.64c0,1.39-1.28,2.55-3,2.86V49.74H49.78Zm-15,.08c-1.71-.31-3-1.47-3-2.86V46.27c0-1.63,1.76-3,3.92-3s3.92,1.32,3.92,3V51.9c0,1.39-1.28,2.55-3,2.86V49.85H34.8Z"/><path class="cls-3" d="M63.6,44.38a5,5,0,1,0-5-5A5,5,0,0,0,63.6,44.38Zm0-8.13a3.14,3.14,0,1,1-3.14,3.14A3.14,3.14,0,0,1,63.6,36.25Z"/></svg>