<svg id="Layer_1" data-name="Layer 1" xmlns="http://www.w3.org/2000/svg" width="86px" height="86px" viewBox="0 0 98 98"><defs><style>.cls-1{fill:#999;}.cls-2{fill:#ff1a44;}</style></defs><title>icon-max-warm</title><path class="cls-1" d="M97,1V97H1V1H97m1-1H0V98H98V0Z"/><path class="cls-2" d="M75.4,53.3l-8.1-4.9,6.1-3.7a3.38,3.38,0,0,0,1.5-2,3.22,3.22,0,0,0-.4-2.5L68.2,29.6A3.76,3.76,0,0,0,65.9,28H32a3,3,0,0,0-2.3,1.6L23.4,40.3a3.32,3.32,0,0,0-.3,2.4,3,3,0,0,0,1.5,2l6.1,3.7-8.1,4.9a3.33,3.33,0,0,0-1.1,4.5l6.3,10.7a3.19,3.19,0,0,0,2.8,1.6,3,3,0,0,0,1.6-.5L49,59.4,65.8,69.5a3.1,3.1,0,0,0,4.4-1.1l6.3-10.7A3.24,3.24,0,0,0,75.4,53.3ZM49,37.4,36.7,30H61.3ZM25.6,43a1.24,1.24,0,0,1-.6-.8,1.34,1.34,0,0,1,.1-.9l6.3-10.7a1.15,1.15,0,0,1,1.1-.6,1.42,1.42,0,0,1,.6.2L47,38.6,32.6,47.3Zm5.5,24.8a1.36,1.36,0,0,1-1.7-.4l-.5-.8,9.6-5.8-1-1.7-9.6,5.8L26.8,63l9.6-5.8-1-1.7-9.6,5.8-1.1-1.9,9.6-5.8-1-1.7-9.6,5.8-.4-.7c-.5-.9-.3-1.7.3-2L64.8,30.2a1.45,1.45,0,0,1,.7-.2,1.38,1.38,0,0,1,1.1.6l6.3,10.7a1,1,0,0,1,.1.9,1.56,1.56,0,0,1-.6.8Zm35.7,0L50.9,58.2l14.4-8.7,9,5.4a1.19,1.19,0,0,1,.4,1.7l-.4.7-9.6-5.8-1,1.7L73.3,59l-1.1,1.9-9.6-5.8-1,1.7,9.6,5.8L70,64.8,60.4,59l-1,1.7L69,66.5l-.5.8A1.2,1.2,0,0,1,66.8,67.8Z"/></svg>
