<svg id="Layer_1" data-name="Layer 1" xmlns="http://www.w3.org/2000/svg" width="86px" height="86px" viewBox="0 0 98 98"><defs><style>.cls-1{fill:#8e8e8e;}.cls-2{fill:#ff1a44;}</style></defs><title>icon-more-oxygen</title><path class="cls-1" d="M97,1V97H1V1H97m1-1H0V98H98V0Z"/><path class="cls-2" d="M76.8,39.4a11.3,11.3,0,1,0-22.6,0,1.7,1.7,0,0,0,3.4,0,8,8,0,1,1,8,8H23a1.7,1.7,0,1,0,0,3.4H65.5A11.51,11.51,0,0,0,76.8,39.4Z"/><path class="cls-2" d="M55.8,73.9a8.4,8.4,0,0,0,0-16.8H23a1.7,1.7,0,1,0,0,3.4H55.8a5.1,5.1,0,1,1-5.1,5.1,1.7,1.7,0,0,0-3.4,0A8.52,8.52,0,0,0,55.8,73.9Z"/><path class="cls-2" d="M21.3,39.4A1.75,1.75,0,0,0,23,41.1H42.3a8.4,8.4,0,1,0-8.4-8.4,1.7,1.7,0,1,0,3.4,0,5.1,5.1,0,1,1,5.1,5.1H23A1.55,1.55,0,0,0,21.3,39.4Z"/></svg>
