<svg id="Layer_1" data-name="Layer 1" xmlns="http://www.w3.org/2000/svg" width="86px" height="86px" viewBox="0 0 99 99"><defs><style>.cls-1{fill:none;stroke:#8e8e8e;stroke-miterlimit:10;}.cls-2{fill:#ff1a44;}.cls-3{fill:#999;}</style></defs><title>icon-energy-safty</title><rect class="cls-1" x="0.5" y="0.5" width="98" height="98"/><path class="cls-2" d="M51.8,36.6a15,15,0,0,0-13.2-.8,14.84,14.84,0,0,0-7.9,19.5,15.07,15.07,0,0,0,13,9.1l1.1.1-.3-2.6-.9-.1a12.57,12.57,0,0,1-10.7-7.5,11.82,11.82,0,0,1,0-9.4A12.33,12.33,0,0,1,50.7,39l1.5.9v-3Z"/><path class="cls-2" d="M25.3,56.2l-6.8,2.9a1.21,1.21,0,0,0-.7.7,1.39,1.39,0,0,0,0,.9,1.58,1.58,0,0,0,.7.7,1.3,1.3,0,0,0,1,0l6.8-2.9a1.25,1.25,0,0,0,.7-1.7A1.29,1.29,0,0,0,25.3,56.2Z"/><path class="cls-2" d="M36.4,66.8a1.37,1.37,0,0,0-1,.8l-2.8,6.8a1.25,1.25,0,0,0,.7,1.7.9.9,0,0,0,.5.1,1.3,1.3,0,0,0,1.2-.8l2.8-6.8a1.41,1.41,0,0,0-1.4-1.8Z"/><path class="cls-2" d="M18.4,40.7l6.8,2.7h0a.9.9,0,0,0,.5.1,1.3,1.3,0,0,0,1.2-.8,1.25,1.25,0,0,0-.7-1.7l-6.8-2.7a1.26,1.26,0,0,0-1.3.2,1.35,1.35,0,0,0-.5,1.2A1.05,1.05,0,0,0,18.4,40.7Z"/><path class="cls-2" d="M35.4,31.5a1.3,1.3,0,0,0,1.2.8.9.9,0,0,0,.5-.1c.3-.1.5-.4.7-.6a1.7,1.7,0,0,0,0-1l-2.9-6.8a1.3,1.3,0,1,0-2.4,1Z"/><rect class="cls-2" x="66.7" y="27.9" width="9.6" height="1.6"/><rect class="cls-2" x="66.7" y="33.2" width="4.8" height="1.6"/><rect class="cls-2" x="66.7" y="38.5" width="9.6" height="1.6"/><rect class="cls-2" x="66.7" y="43.8" width="4.8" height="1.6"/><rect class="cls-2" x="66.7" y="49" width="9.6" height="1.6"/><path class="cls-3" d="M61.3,52.3V24.7A5.7,5.7,0,0,0,55.6,19a5.63,5.63,0,0,0-5.7,5.7V52.4a13.3,13.3,0,1,0,11.4-.1Zm-2.4,2c.1,0,7.4,2.4,7.4,10.2a10.7,10.7,0,1,1-21.4,0c0-7.9,7.1-10.1,7.4-10.2l.4-.1V24.7a2.9,2.9,0,0,1,5.8,0V54.2Z"/><path class="cls-3" d="M56.9,32.1a1.31,1.31,0,1,0-2.6,0V56.3a8.19,8.19,0,1,0,9.4,8.1,8.18,8.18,0,0,0-7-8.1V32.1Zm4.2,32.3a5.5,5.5,0,1,1-5.9-5.5c.1,0,.2.1.4.1a.6.6,0,0,0,.4-.1A5.48,5.48,0,0,1,61.1,64.4Z"/></svg>
