<svg id="Layer_1" data-name="Layer 1" xmlns="http://www.w3.org/2000/svg" width="120px" height="120px" viewBox="0 0 99 99"><defs><style>.cls-1{fill:none;stroke:#a2a2a2;stroke-miterlimit:10;}.cls-2{fill:#ff1a44;}.cls-3{fill:#b9b9b9;}</style></defs><title>icon-vyezd-zamera</title><rect class="cls-1" x="0.5" y="0.5" width="98" height="98"/><path class="cls-2" d="M18.2,38.3H37.5a1.2,1.2,0,0,0,0-2.4H18.2a1.2,1.2,0,0,0,0,2.4Z"/><path class="cls-2" d="M19.6,43.8H37.5a1.22,1.22,0,0,0,1.2-1.2,1.13,1.13,0,0,0-1.2-1.1H19.6a1.22,1.22,0,0,0-1.2,1.2A1.08,1.08,0,0,0,19.6,43.8Z"/><path class="cls-2" d="M22.3,49.3H37.5a1.22,1.22,0,0,0,1.2-1.2,1.16,1.16,0,0,0-1.2-1.2H22.3a1.2,1.2,0,1,0,0,2.4Z"/><path class="cls-3" d="M72.8,64.4h6A1.29,1.29,0,0,0,80,63.2V47.4a1.17,1.17,0,0,0-.8-1.1l-10.6-4L61.2,30.9a1.23,1.23,0,0,0-1-.5H25.1a1.2,1.2,0,1,0,0,2.4H59.6L66.8,44a1,1,0,0,0,.6.5l10.3,3.9V62.2H73.2l-.1-.7a6,6,0,0,0-5.9-4.8,6.08,6.08,0,0,0-5.9,4.8l-.1.7H42.8l-.1-.7a6,6,0,0,0-5.9-4.8,6.08,6.08,0,0,0-5.9,4.8l-.1.7H26.3V53.7a1.2,1.2,0,1,0-2.4,0v9.6a1.29,1.29,0,0,0,1.2,1.2h6l.2.5a6,6,0,0,0,11,0l.2-.5H61.4l.2.5a6,6,0,0,0,11,0Zm-36,1.8a3.7,3.7,0,1,1,3.7-3.7A3.69,3.69,0,0,1,36.8,66.2Zm30.3,0a3.7,3.7,0,1,1,3.7-3.7A3.76,3.76,0,0,1,67.1,66.2Z"/></svg>
