<svg xmlns="http://www.w3.org/2000/svg" width="120px" height="120px" viewBox="0 0 71 71"><defs><style>.cls-1{fill:#a2a2a2;}.cls-2{fill:none;}.cls-3{fill:#b9b9b9;}.cls-4{fill:#ff1a44;}</style></defs><title>icon-mbrigada</title><path class="cls-1" d="M70.95,70.95H0V0H70.95ZM.72,70.23H70.23V.72H.72Z"/><path class="cls-2" d="M54.75,27h0c.43,0,.72-.21.72-.57s-.57-.79-.57-.79A4.47,4.47,0,0,0,51.6,21a3.46,3.46,0,0,0-6.31.07A4.3,4.3,0,0,0,42,25.73s-.57.36-.65.79a2.76,2.76,0,0,0,.79.57C46.22,28.09,54.68,27,54.75,27Z"/><path class="cls-2" d="M48.45,36.26c3.08,0,5.66-4.73,5.95-8.1a66.3,66.3,0,0,1-7.17.43,24.41,24.41,0,0,1-4.73-.36C42.78,31.6,45.37,36.26,48.45,36.26Z"/><path class="cls-2" d="M58,40.06l-.86-.29v5.66h1.65v4.87H62V45.72A6,6,0,0,0,58,40.06Z"/><polygon class="cls-2" points="54.9 45.37 55.97 45.37 55.97 39.34 54.9 38.91 54.9 45.37"/><path class="cls-3" d="M63.07,45.65a7,7,0,0,0-4.66-6.59l-4.73-1.72a3.26,3.26,0,0,1-1.86-1.43A12.35,12.35,0,0,0,55.54,28a1.55,1.55,0,0,0,1.07-1.5A2,2,0,0,0,56,25.23a5.29,5.29,0,0,0-3.65-5.09,4.43,4.43,0,0,0-3.87-2.29,4.27,4.27,0,0,0-3.87,2.29A5.48,5.48,0,0,0,41,25.23a2.16,2.16,0,0,0-.57,1.29,1.85,1.85,0,0,0,1.07,1.43A12.88,12.88,0,0,0,45.22,36a3.22,3.22,0,0,1-1.86,1.43l-4.59,1.65a20.45,20.45,0,0,1,2.15.79v-.43L42,39.13v1.29a8.53,8.53,0,0,1,1.07.65V38.77s.79-.29.93-.36l1.5,1.79h5.95L53,38.41c.14.07.93.36.93.36v6.88H46.44c.22.43.29.79.43,1.07H57.69v3.8H47V51.6H63.07ZM41.35,26.52c.07-.43.65-.79.65-.79a4.3,4.3,0,0,1,3.3-4.66,3.43,3.43,0,0,1,6.31,0,4.47,4.47,0,0,1,3.3,4.66s.57.43.57.79a.59.59,0,0,1-.65.57h-.07c-.14,0-8.53,1-12.61,0A3.08,3.08,0,0,1,41.35,26.52Zm1.15,1.72a24,24,0,0,0,4.73.36,67.65,67.65,0,0,0,7.17-.43c-.29,3.37-2.87,8.1-5.95,8.1S42.78,31.6,42.5,28.24Zm8.38,10.68H46L44.93,37.7A5.39,5.39,0,0,0,46,36.55a5,5,0,0,0,2.44.72,4.47,4.47,0,0,0,2.44-.79A5.39,5.39,0,0,0,52,37.63ZM56,45.37H54.9V38.92l1.07.36Zm5.95,4.94H58.69V45.44H57V39.77l.93.36a6,6,0,0,1,3.94,5.66Z"/><path class="cls-4" d="M40.42,40.85l-5.8-2.08s-1.79-.5-2.29-1.72a14.73,14.73,0,0,0,4.51-9.6,1.94,1.94,0,0,0,1.29-1.86A2.33,2.33,0,0,0,37.41,24,6.36,6.36,0,0,0,33,17.84,5.51,5.51,0,0,0,28.24,15a5.34,5.34,0,0,0-4.73,2.79A6.62,6.62,0,0,0,19.06,24a2.5,2.5,0,0,0-.72,1.58c0,.79.72,1.36,1.29,1.72a15.44,15.44,0,0,0,4.51,9.82,3.93,3.93,0,0,1-2.22,1.72l-5.88,2.08a8.49,8.49,0,0,0-5.66,8v7H45.94v-7A8.33,8.33,0,0,0,40.42,40.85Zm-.93,13.76H17.13V50H39.56v4.59ZM19.06,41.28l1.29-.43v7.81H19.06Zm17.13,7.38V40.78l1.29.43v7.38l-1.29.07ZM20.5,24.58a5.26,5.26,0,0,1,4-5.66,4.32,4.32,0,0,1,3.8-2.51,4.09,4.09,0,0,1,3.8,2.51,5.44,5.44,0,0,1,4,5.66s.72.5.72,1-.36.65-.79.65H36c-.14,0-10.32,1.22-15.34,0a3.42,3.42,0,0,1-1-.65C19.71,25.08,20.5,24.58,20.5,24.58Zm.65,3.15a28.29,28.29,0,0,0,5.73.43c3.65,0,7.17-.36,8.67-.5-.36,4.09-3.51,9.82-7.24,9.82S21.43,31.82,21.14,27.73Zm7.17,11a5.48,5.48,0,0,0,2.94-.93,5.83,5.83,0,0,0,1.29,1.36l-1.29,1.5H25.3L24,39.27a5.74,5.74,0,0,0,1.29-1.36A6.36,6.36,0,0,0,28.31,38.77Zm-5.45,1.15,1.86,2.15h7.17l1.86-2.15c.14.07,1.15.43,1.15.43v8.38H21.71V40.28S22.72,40,22.86,39.92Zm-11,9a7.43,7.43,0,0,1,4.8-6.88l1.15-.43v7h-2v5.95H11.82Zm33,5.66H40.85V48.66h-2v-7l1.15.43A7.29,7.29,0,0,1,44.79,49Z"/><rect class="cls-4" x="19.71" y="51.96" width="2.65" height="1.29"/><rect class="cls-4" x="34.26" y="51.96" width="2.65" height="1.29"/></svg>
