<svg id="Layer_1" data-name="Layer 1" xmlns="http://www.w3.org/2000/svg" width="50px" height="50px" viewBox="0 0 60 60"><defs><style>.cls-1{fill:gray;}.cls-2{fill:#ff1a44;}</style></defs><title>icon-wood-doob</title><path class="cls-1" d="M58.8,1.2V58.8H1.2V1.2H58.8M60,0H0V60H60V0Z"/><path class="cls-2" d="M46.9,24.5a5.37,5.37,0,0,0,1.5-3.8,5.55,5.55,0,0,0-5.5-5.5,5.66,5.66,0,0,0-1.8.3,4.53,4.53,0,0,0-3.2-1.4,1.48,1.48,0,0,0-.7.1,7.42,7.42,0,0,0-7.3-5.6,7.62,7.62,0,0,0-7.3,5.5,8.58,8.58,0,0,0-1.7-.3A6.23,6.23,0,0,0,14.7,20a7,7,0,0,0,.5,2.5A7.6,7.6,0,0,0,9,29.9a7.48,7.48,0,0,0,7.1,7.5,6.18,6.18,0,0,0,5.8,4A5.22,5.22,0,0,0,24,41a6.56,6.56,0,0,0,2.4,3.1l-.8,7.5c0,.2,0,.4.2.5a.85.85,0,0,0,.5.3h7.9a.55.55,0,0,0,.5-.3,1.07,1.07,0,0,0,.2-.6l-1-7.8A5.84,5.84,0,0,0,36,40.5a4.49,4.49,0,0,0,1.9.5A4.44,4.44,0,0,0,42,38.2h.8a7.49,7.49,0,0,0,7.5-7.5A7.24,7.24,0,0,0,46.9,24.5ZM27,51l1.3-12a.91.91,0,0,0-.3-.7l-4.1-5.7,3.9,2.8a.88.88,0,0,0,.7.1.66.66,0,0,0,.4-.5l1.2-7,.3,1.9a.46.46,0,0,0,.4.5.62.62,0,0,0,.7-.1l3.8-2.7-4.2,5.9a1.09,1.09,0,0,0-.1.5l2.1,17ZM42.9,36.6a5.7,5.7,0,0,1-1.3-.1.87.87,0,0,0-1.1.7A2.49,2.49,0,0,1,38,39.3a2.46,2.46,0,0,1-1.9-.9,1,1,0,0,0-1-.3.76.76,0,0,0-.6.8,4.38,4.38,0,0,1-.8,2.5l-.9-7.5,6.5-9.2a.79.79,0,0,0-1.1-1.1l-6.4,4.5L31,23a.73.73,0,0,0-.7-.6.67.67,0,0,0-.7.6L27.9,33.1l-6.4-4.6a.79.79,0,0,0-1.1,1.1L27,38.9l-.3,2.7a3.84,3.84,0,0,1-1.1-2.3c0-.3-.3-.5-.5-.7a1.1,1.1,0,0,0-.8,0,4.28,4.28,0,0,1-2.2.6,4.38,4.38,0,0,1-4.2-3.3,1,1,0,0,0-1-.7h-.1a5.7,5.7,0,0,1-5.7-5.7,5.76,5.76,0,0,1,5.7-5.7h.1a1.05,1.05,0,0,0,.9-.5.92.92,0,0,0-.1-1,4.39,4.39,0,0,1-.9-2.7,4.44,4.44,0,0,1,4.4-4.4,4.55,4.55,0,0,1,2,.5,1.1,1.1,0,0,0,.8,0c.3-.1.4-.4.5-.7a5.64,5.64,0,0,1,5.6-5.1A5.74,5.74,0,0,1,35.8,15c0,.3.2.5.5.7a1.1,1.1,0,0,0,.8,0,3.54,3.54,0,0,1,1.1-.3,2.61,2.61,0,0,1,2.1,1.1,1,1,0,0,0,1.2.3,3.17,3.17,0,0,1,1.6-.4,3.63,3.63,0,0,1,3.7,3.7,3.58,3.58,0,0,1-1.9,3.2.81.81,0,0,0-.4.9.87.87,0,0,0,.6.8,5.76,5.76,0,0,1,3.7,5.4C48.6,34.1,46,36.6,42.9,36.6Z"/></svg>
