<svg id="Слой_1" data-name="Слой 1" xmlns="http://www.w3.org/2000/svg" width="86px" height="86px" viewBox="0 0 98 98"><defs><style>.cls-1{fill:#939393;}.cls-2{fill:#ff1a46;}.cls-3{fill:#999;stroke:#999;stroke-miterlimit:10;}</style></defs><title>icon-warm-resist</title><path class="cls-1" d="M97,1V97H1V1H97m1-1H0V98H98V0Z"/><path class="cls-2" d="M85.57,60.17H66.13a.69.69,0,0,0-.23,0c-.72-6-5.56-12.17-5.79-12.45a.67.67,0,0,0-.53-.25h0a.68.68,0,0,0-.53.26c-.22.28-5,6.4-5.69,12.4H28.21a.67.67,0,0,0-.47.19L10.13,77.8a.67.67,0,0,0,.47,1.15H70.48a.67.67,0,0,0,.51-.23L86.08,61.28a.67.67,0,0,0-.51-1.11Zm-26-10.86c1.39,1.94,5.06,7.49,5.06,12.35,0,5.44-4.72,5.69-5.06,5.7s-5-.26-5-5.7C54.61,56.8,58.22,51.25,59.59,49.31ZM70.17,77.6H12.24L28.49,61.52H53.28s0,.1,0,.15a6.55,6.55,0,0,0,6.31,7h0a6.61,6.61,0,0,0,6.4-7c0-.06,0-.12,0-.17a.6.6,0,0,0,.14,0h18Z"/><path class="cls-2" d="M59.59,47.51h0a.68.68,0,0,0-.53.26c-.22.28-5,6.4-5.69,12.4H28.21a.67.67,0,0,0-.47.19L10.13,77.8a.67.67,0,0,0,.47,1.15H70.48a.67.67,0,0,0,.51-.23L86.08,61.28a.67.67,0,0,0-.51-1.11H66.13a.69.69,0,0,0-.23,0c-.72-6-5.56-12.17-5.79-12.45a.67.67,0,0,0-.53-.25Zm0,19.85c-.34,0-5-.26-5-5.7,0-4.86,3.6-10.41,5-12.35,1.39,1.94,5.06,7.49,5.06,12.35,0,5.44-4.72,5.69-5.06,5.7Zm0,1.35h0a6.61,6.61,0,0,0,6.4-7c0-.06,0-.12,0-.17a.6.6,0,0,0,.14,0h18L70.17,77.6H12.24L28.49,61.52H53.28s0,.1,0,.15a6.55,6.55,0,0,0,6.31,7Z"/><path class="cls-3" d="M40.81,53.62h0a6.68,6.68,0,0,0,6.48-7.12c0-6.52-5.71-13.75-6-14.06a.68.68,0,0,0-.53-.26h0a.68.68,0,0,0-.53.26c-.24.3-5.85,7.54-5.85,14.05A6.63,6.63,0,0,0,40.81,53.62Zm0-19.61c1.41,2,5.12,7.58,5.12,12.49,0,5.51-4.79,5.75-5.13,5.76s-5-.23-5-5.76C35.79,41.59,39.44,36,40.83,34Z"/><path class="cls-3" d="M58.18,37.09h0A6.68,6.68,0,0,0,64.68,30c0-6.52-5.71-13.75-6-14.06a.68.68,0,0,0-.53-.26h0a.68.68,0,0,0-.53.26c-.24.3-5.85,7.54-5.85,14.05A6.63,6.63,0,0,0,58.18,37.09Zm0-19.61c1.41,2,5.12,7.57,5.12,12.49,0,5.51-4.79,5.75-5.13,5.76s-5-.23-5-5.76C53.17,25.06,56.81,19.44,58.2,17.48Z"/></svg>