<svg xmlns="http://www.w3.org/2000/svg" viewBox="0 0 260 895" width="260" height="895">
    <path fill="none" stroke="#e0e0e0" stroke-linecap="round" d="M1 1.3l9.8 9.8m0-9.8L1 11m49.6-9.8l9.9 9.8m0-9.8L50.6 11M1 51l9.8 9.9m0-9.9L1 60.8m49.6-9.9l9.9 9.9m0-9.9l-9.9 9.9m49.7-59.5L110 11m0-9.8l-9.8 9.8m0 39.8l9.8 9.9m0-9.9l-9.8 9.9m49.6-59.5l9.8 9.8m0-9.8L150 11m0 39.8l9.8 9.9m0-9.9l-9.8 9.9m49.6-59.5l9.9 9.8m0-9.8l-9.9 9.8m0 39.8l9.9 9.9m0-9.9l-9.9 9.9m49.7-59.5L259 11m0-9.8l-9.8 9.8m0 39.8l9.8 9.9m0-9.9l-9.8 9.9M1 100.5l9.8 9.8m0-9.8L1 110.4m49.6-9.8l9.9 9.8m0-9.8l-9.9 9.8m49.7-9.8l9.8 9.8m0-9.8l-9.8 9.8m49.6-9.8l9.8 9.8m0-9.8l-9.8 9.8m49.6-9.8l9.9 9.8m0-9.8l-9.9 9.8m49.7-9.8l9.8 9.8m0-9.8l-9.8 9.8M1 150.2l9.8 9.8m0-9.8L1 160m49.6-9.8l9.9 9.8m0-9.8l-9.9 9.8m49.7-9.8l9.8 9.8m0-9.8l-9.8 9.8m49.6-9.8l9.8 9.8m0-9.8L150 160m49.6-9.8l9.9 9.8m0-9.8l-9.9 9.8m49.7-9.8l9.8 9.8m0-9.8l-9.8 9.8M1 199.8l9.8 9.8m0-9.8L1 209.6m49.6-9.8l9.9 9.8m0-9.8l-9.9 9.8m49.7-9.8l9.8 9.8m0-9.8l-9.8 9.8m49.6-9.8l9.8 9.8m0-9.8l-9.8 9.8m49.6-9.8l9.9 9.8m0-9.8l-9.9 9.8m49.7-9.8l9.8 9.8m0-9.8l-9.8 9.8M1 249.6l9.8 9.8m0-9.8L1 259.3m49.6-9.8l9.9 9.8m0-9.8l-9.9 9.8m49.7-9.8l9.8 9.8m0-9.8l-9.8 9.8m49.6-9.8l9.8 9.8m0-9.8l-9.8 9.8m49.6-9.8l9.9 9.8m0-9.8l-9.9 9.8m49.7-9.8l9.8 9.8m0-9.8l-9.8 9.8M1 299l9.8 9.8m0-9.8L1 308.9m49.6-9.8l9.9 9.8m0-9.8l-9.9 9.8m49.7-9.8l9.8 9.8m0-9.8l-9.8 9.8m49.6-9.8l9.8 9.8m0-9.8l-9.8 9.8m49.6-9.8l9.9 9.8m0-9.8l-9.9 9.8m49.7-9.8l9.8 9.8m0-9.8l-9.8 9.8M1 348.7l9.8 9.9m0-9.9L1 358.6m49.6-9.9l9.9 9.9m0-9.9l-9.9 9.9m49.7-9.9l9.8 9.9m0-9.9l-9.8 9.9m49.6-9.9l9.8 9.9m0-9.9l-9.8 9.9m49.6-9.9l9.9 9.9m0-9.9l-9.9 9.9m49.7-9.9l9.8 9.9m0-9.9l-9.8 9.9M1 398.4l9.8 9.8m0-9.8L1 408.2m49.6-9.8l9.9 9.8m0-9.8l-9.9 9.8m49.7-9.8l9.8 9.8m0-9.8l-9.8 9.8m49.6-9.8l9.8 9.8m0-9.8l-9.8 9.8m49.6-9.8l9.9 9.8m0-9.8l-9.9 9.8m49.7-9.8l9.8 9.8m0-9.8l-9.8 9.8M1 448l9.8 9.8m0-9.8L1 457.8m49.6-9.8l9.9 9.8m0-9.8l-9.9 9.8m49.7-9.8l9.8 9.8m0-9.8l-9.8 9.8m49.6-9.8l9.8 9.8m0-9.8l-9.8 9.8m49.6-9.8l9.9 9.8m0-9.8l-9.9 9.8m49.7-9.8l9.8 9.8m0-9.8l-9.8 9.8M1 497.6l9.8 9.9m0-9.9L1 507.5m49.6-9.9l9.9 9.9m0-9.9l-9.9 9.9m49.7-9.9l9.8 9.9m0-9.9l-9.8 9.9m49.6-9.9l9.8 9.9m0-9.9l-9.8 9.9m49.6-9.9l9.9 9.9m0-9.9l-9.9 9.9m49.7-9.9l9.8 9.9m0-9.9l-9.8 9.9M1 547.3l9.8 9.8m0-9.8L1 557m49.6-9.8l9.9 9.8m0-9.8l-9.9 9.8m49.7-9.8l9.8 9.8m0-9.8l-9.8 9.8m49.6-9.8l9.8 9.8m0-9.8L150 557m49.6-9.8l9.9 9.8m0-9.8l-9.9 9.8m49.7-9.8l9.8 9.8m0-9.8l-9.8 9.8M1 596.9l9.8 9.8m0-9.8L1 606.7m49.6-9.8l9.9 9.8m0-9.8l-9.9 9.8m49.7-9.8l9.8 9.8m0-9.8l-9.8 9.8m49.6-9.8l9.8 9.8m0-9.8l-9.8 9.8m49.6-9.8l9.9 9.8m0-9.8l-9.9 9.8m49.7-9.8l9.8 9.8m0-9.8l-9.8 9.8M1 596.9l9.8 9.8m0-9.8L1 606.7m49.6-9.8l9.9 9.8m0-9.8l-9.9 9.8M1 646.5l9.8 9.9m0-9.9L1 656.4m49.6-9.9l9.9 9.9m0-9.9l-9.9 9.9m49.7-59.5l9.8 9.8m0-9.8l-9.8 9.8m0 39.8l9.8 9.9m0-9.9l-9.8 9.9m49.6-59.5l9.8 9.8m0-9.8l-9.8 9.8m0 39.8l9.8 9.9m0-9.9l-9.8 9.9m49.6-59.5l9.9 9.8m0-9.8l-9.9 9.8m0 39.8l9.9 9.9m0-9.9l-9.9 9.9m49.7-59.5l9.8 9.8m0-9.8l-9.8 9.8m0 39.8l9.8 9.9m0-9.9l-9.8 9.9M1 696.2l9.8 9.8m0-9.8L1 706m49.6-9.8l9.9 9.8m0-9.8l-9.9 9.8m49.7-9.8l9.8 9.8m0-9.8l-9.8 9.8m49.6-9.8l9.8 9.8m0-9.8L150 706m49.6-9.8l9.9 9.8m0-9.8l-9.9 9.8m49.7-9.8l9.8 9.8m0-9.8l-9.8 9.8M1 745.8l9.8 9.8m0-9.8L1 755.6m49.6-9.8l9.9 9.8m0-9.8l-9.9 9.8m49.7-9.8l9.8 9.8m0-9.8l-9.8 9.8m49.6-9.8l9.8 9.8m0-9.8l-9.8 9.8m49.6-9.8l9.9 9.8m0-9.8l-9.9 9.8m49.7-9.8l9.8 9.8m0-9.8l-9.8 9.8M1 795.4l9.8 9.9m0-9.9L1 805.3m49.6-9.9l9.9 9.9m0-9.9l-9.9 9.9m49.7-9.9l9.8 9.9m0-9.9l-9.8 9.9m49.6-9.9l9.8 9.9m0-9.9l-9.8 9.9m49.6-9.9l9.9 9.9m0-9.9l-9.9 9.9m49.7-9.9l9.8 9.9m0-9.9l-9.8 9.9M1 845l9.8 9.8m0-9.8L1 854.9m49.6-9.8l9.9 9.8m0-9.8l-9.9 9.8m49.7-9.8l9.8 9.8m0-9.8l-9.8 9.8m49.6-9.8l9.8 9.8m0-9.8l-9.8 9.8m49.6-9.8l9.9 9.8m0-9.8l-9.9 9.8m49.7-9.8l9.8 9.8m0-9.8l-9.8 9.8"/>
</svg>
