<svg width="603" height="604" viewBox="0 0 603 604" xmlns="http://www.w3.org/2000/svg">
    <g fill-rule="evenodd" opacity=".1">
        <circle cx="1.5" cy="1.5" r="1.5"/>
        <circle cx="31.5" cy="1.5" r="1.5"/>
        <circle cx="61.5" cy="1.5" r="1.5"/>
        <circle cx="91.5" cy="1.5" r="1.5"/>
        <circle cx="121.5" cy="1.5" r="1.5"/>
        <circle cx="151.5" cy="1.5" r="1.5"/>
        <circle cx="181.5" cy="1.5" r="1.5"/>
        <circle cx="211.5" cy="1.5" r="1.5"/>
        <circle cx="241.5" cy="1.5" r="1.5"/>
        <circle cx="271.5" cy="1.5" r="1.5"/>
        <circle cx="301.5" cy="1.5" r="1.5"/>
        <circle cx="331.5" cy="1.5" r="1.5"/>
        <circle cx="361.5" cy="1.5" r="1.5"/>
        <circle cx="391.5" cy="1.5" r="1.5"/>
        <circle cx="421.5" cy="1.5" r="1.5"/>
        <circle cx="451.5" cy="1.5" r="1.5"/>
        <circle cx="481.5" cy="1.5" r="1.5"/>
        <circle cx="511.5" cy="1.5" r="1.5"/>
        <circle cx="541.5" cy="1.5" r="1.5"/>
        <circle cx="571.5" cy="1.5" r="1.5"/>
        <circle cx="601.5" cy="1.5" r="1.5"/>
        <g transform="translate(0 30)">
            <circle cx="1.5" cy="1.5" r="1.5"/>
            <circle cx="31.5" cy="1.5" r="1.5"/>
            <circle cx="61.5" cy="1.5" r="1.5"/>
            <circle cx="91.5" cy="1.5" r="1.5"/>
            <circle cx="121.5" cy="1.5" r="1.5"/>
            <circle cx="151.5" cy="1.5" r="1.5"/>
            <circle cx="181.5" cy="1.5" r="1.5"/>
            <circle cx="211.5" cy="1.5" r="1.5"/>
            <circle cx="241.5" cy="1.5" r="1.5"/>
            <circle cx="271.5" cy="1.5" r="1.5"/>
            <circle cx="301.5" cy="1.5" r="1.5"/>
            <circle cx="331.5" cy="1.5" r="1.5"/>
            <circle cx="361.5" cy="1.5" r="1.5"/>
            <circle cx="391.5" cy="1.5" r="1.5"/>
            <circle cx="421.5" cy="1.5" r="1.5"/>
            <circle cx="451.5" cy="1.5" r="1.5"/>
            <circle cx="481.5" cy="1.5" r="1.5"/>
            <circle cx="511.5" cy="1.5" r="1.5"/>
            <circle cx="541.5" cy="1.5" r="1.5"/>
            <circle cx="571.5" cy="1.5" r="1.5"/>
            <circle cx="601.5" cy="1.5" r="1.5"/>
        </g>
        <g transform="translate(0 60)">
            <circle cx="1.5" cy="1.5" r="1.5"/>
            <circle cx="31.5" cy="1.5" r="1.5"/>
            <circle cx="61.5" cy="1.5" r="1.5"/>
            <circle cx="91.5" cy="1.5" r="1.5"/>
            <circle cx="121.5" cy="1.5" r="1.5"/>
            <circle cx="151.5" cy="1.5" r="1.5"/>
            <circle cx="181.5" cy="1.5" r="1.5"/>
            <circle cx="211.5" cy="1.5" r="1.5"/>
            <circle cx="241.5" cy="1.5" r="1.5"/>
            <circle cx="271.5" cy="1.5" r="1.5"/>
            <circle cx="301.5" cy="1.5" r="1.5"/>
            <circle cx="331.5" cy="1.5" r="1.5"/>
            <circle cx="361.5" cy="1.5" r="1.5"/>
            <circle cx="391.5" cy="1.5" r="1.5"/>
            <circle cx="421.5" cy="1.5" r="1.5"/>
            <circle cx="451.5" cy="1.5" r="1.5"/>
            <circle cx="481.5" cy="1.5" r="1.5"/>
            <circle cx="511.5" cy="1.5" r="1.5"/>
            <circle cx="541.5" cy="1.5" r="1.5"/>
            <circle cx="571.5" cy="1.5" r="1.5"/>
            <circle cx="601.5" cy="1.5" r="1.5"/>
        </g>
        <g transform="translate(0 90)">
            <circle cx="1.5" cy="1.5" r="1.5"/>
            <circle cx="31.5" cy="1.5" r="1.5"/>
            <circle cx="61.5" cy="1.5" r="1.5"/>
            <circle cx="91.5" cy="1.5" r="1.5"/>
            <circle cx="121.5" cy="1.5" r="1.5"/>
            <circle cx="151.5" cy="1.5" r="1.5"/>
            <circle cx="181.5" cy="1.5" r="1.5"/>
            <circle cx="211.5" cy="1.5" r="1.5"/>
            <circle cx="241.5" cy="1.5" r="1.5"/>
            <circle cx="271.5" cy="1.5" r="1.5"/>
            <circle cx="301.5" cy="1.5" r="1.5"/>
            <circle cx="331.5" cy="1.5" r="1.5"/>
            <circle cx="361.5" cy="1.5" r="1.5"/>
            <circle cx="391.5" cy="1.5" r="1.5"/>
            <circle cx="421.5" cy="1.5" r="1.5"/>
            <circle cx="451.5" cy="1.5" r="1.5"/>
            <circle cx="481.5" cy="1.5" r="1.5"/>
            <circle cx="511.5" cy="1.5" r="1.5"/>
            <circle cx="541.5" cy="1.5" r="1.5"/>
            <circle cx="571.5" cy="1.5" r="1.5"/>
            <circle cx="601.5" cy="1.5" r="1.5"/>
        </g>
        <g transform="translate(0 120)">
            <circle cx="1.5" cy="1.5" r="1.5"/>
            <circle cx="31.5" cy="1.5" r="1.5"/>
            <circle cx="61.5" cy="1.5" r="1.5"/>
            <circle cx="91.5" cy="1.5" r="1.5"/>
            <circle cx="121.5" cy="1.5" r="1.5"/>
            <circle cx="151.5" cy="1.5" r="1.5"/>
            <circle cx="181.5" cy="1.5" r="1.5"/>
            <circle cx="211.5" cy="1.5" r="1.5"/>
            <circle cx="241.5" cy="1.5" r="1.5"/>
            <circle cx="271.5" cy="1.5" r="1.5"/>
            <circle cx="301.5" cy="1.5" r="1.5"/>
            <circle cx="331.5" cy="1.5" r="1.5"/>
            <circle cx="361.5" cy="1.5" r="1.5"/>
            <circle cx="391.5" cy="1.5" r="1.5"/>
            <circle cx="421.5" cy="1.5" r="1.5"/>
            <circle cx="451.5" cy="1.5" r="1.5"/>
            <circle cx="481.5" cy="1.5" r="1.5"/>
            <circle cx="511.5" cy="1.5" r="1.5"/>
            <circle cx="541.5" cy="1.5" r="1.5"/>
            <circle cx="571.5" cy="1.5" r="1.5"/>
            <circle cx="601.5" cy="1.5" r="1.5"/>
        </g>
        <g transform="translate(0 150)">
            <circle cx="1.5" cy="1.5" r="1.5"/>
            <circle cx="31.5" cy="1.5" r="1.5"/>
            <circle cx="61.5" cy="1.5" r="1.5"/>
            <circle cx="91.5" cy="1.5" r="1.5"/>
            <circle cx="121.5" cy="1.5" r="1.5"/>
            <circle cx="151.5" cy="1.5" r="1.5"/>
            <circle cx="181.5" cy="1.5" r="1.5"/>
            <circle cx="211.5" cy="1.5" r="1.5"/>
            <circle cx="241.5" cy="1.5" r="1.5"/>
            <circle cx="271.5" cy="1.5" r="1.5"/>
            <circle cx="301.5" cy="1.5" r="1.5"/>
            <circle cx="331.5" cy="1.5" r="1.5"/>
            <circle cx="361.5" cy="1.5" r="1.5"/>
            <circle cx="391.5" cy="1.5" r="1.5"/>
            <circle cx="421.5" cy="1.5" r="1.5"/>
            <circle cx="451.5" cy="1.5" r="1.5"/>
            <circle cx="481.5" cy="1.5" r="1.5"/>
            <circle cx="511.5" cy="1.5" r="1.5"/>
            <circle cx="541.5" cy="1.5" r="1.5"/>
            <circle cx="571.5" cy="1.5" r="1.5"/>
            <circle cx="601.5" cy="1.5" r="1.5"/>
        </g>
        <g transform="translate(0 180)">
            <circle cx="1.5" cy="1.5" r="1.5"/>
            <circle cx="31.5" cy="1.5" r="1.5"/>
            <circle cx="61.5" cy="1.5" r="1.5"/>
            <circle cx="91.5" cy="1.5" r="1.5"/>
            <circle cx="121.5" cy="1.5" r="1.5"/>
            <circle cx="151.5" cy="1.5" r="1.5"/>
            <circle cx="181.5" cy="1.5" r="1.5"/>
            <circle cx="211.5" cy="1.5" r="1.5"/>
            <circle cx="241.5" cy="1.5" r="1.5"/>
            <circle cx="271.5" cy="1.5" r="1.5"/>
            <circle cx="301.5" cy="1.5" r="1.5"/>
            <circle cx="331.5" cy="1.5" r="1.5"/>
            <circle cx="361.5" cy="1.5" r="1.5"/>
            <circle cx="391.5" cy="1.5" r="1.5"/>
            <circle cx="421.5" cy="1.5" r="1.5"/>
            <circle cx="451.5" cy="1.5" r="1.5"/>
            <circle cx="481.5" cy="1.5" r="1.5"/>
            <circle cx="511.5" cy="1.5" r="1.5"/>
            <circle cx="541.5" cy="1.5" r="1.5"/>
            <circle cx="571.5" cy="1.5" r="1.5"/>
            <circle cx="601.5" cy="1.5" r="1.5"/>
        </g>
        <g transform="translate(0 210)">
            <circle cx="1.5" cy="1.5" r="1.5"/>
            <circle cx="31.5" cy="1.5" r="1.5"/>
            <circle cx="61.5" cy="1.5" r="1.5"/>
            <circle cx="91.5" cy="1.5" r="1.5"/>
            <circle cx="121.5" cy="1.5" r="1.5"/>
            <circle cx="151.5" cy="1.5" r="1.5"/>
            <circle cx="181.5" cy="1.5" r="1.5"/>
            <circle cx="211.5" cy="1.5" r="1.5"/>
            <circle cx="241.5" cy="1.5" r="1.5"/>
            <circle cx="271.5" cy="1.5" r="1.5"/>
            <circle cx="301.5" cy="1.5" r="1.5"/>
            <circle cx="331.5" cy="1.5" r="1.5"/>
            <circle cx="361.5" cy="1.5" r="1.5"/>
            <circle cx="391.5" cy="1.5" r="1.5"/>
            <circle cx="421.5" cy="1.5" r="1.5"/>
            <circle cx="451.5" cy="1.5" r="1.5"/>
            <circle cx="481.5" cy="1.5" r="1.5"/>
            <circle cx="511.5" cy="1.5" r="1.5"/>
            <circle cx="541.5" cy="1.5" r="1.5"/>
            <circle cx="571.5" cy="1.5" r="1.5"/>
            <circle cx="601.5" cy="1.5" r="1.5"/>
        </g>
        <g transform="translate(0 240)">
            <circle cx="1.5" cy="1.5" r="1.5"/>
            <circle cx="31.5" cy="1.5" r="1.5"/>
            <circle cx="61.5" cy="1.5" r="1.5"/>
            <circle cx="91.5" cy="1.5" r="1.5"/>
            <circle cx="121.5" cy="1.5" r="1.5"/>
            <circle cx="151.5" cy="1.5" r="1.5"/>
            <circle cx="181.5" cy="1.5" r="1.5"/>
            <circle cx="211.5" cy="1.5" r="1.5"/>
            <circle cx="241.5" cy="1.5" r="1.5"/>
            <circle cx="271.5" cy="1.5" r="1.5"/>
            <circle cx="301.5" cy="1.5" r="1.5"/>
            <circle cx="331.5" cy="1.5" r="1.5"/>
            <circle cx="361.5" cy="1.5" r="1.5"/>
            <circle cx="391.5" cy="1.5" r="1.5"/>
            <circle cx="421.5" cy="1.5" r="1.5"/>
            <circle cx="451.5" cy="1.5" r="1.5"/>
            <circle cx="481.5" cy="1.5" r="1.5"/>
            <circle cx="511.5" cy="1.5" r="1.5"/>
            <circle cx="541.5" cy="1.5" r="1.5"/>
            <circle cx="571.5" cy="1.5" r="1.5"/>
            <circle cx="601.5" cy="1.5" r="1.5"/>
        </g>
        <g transform="translate(0 271)">
            <circle cx="1.5" cy="1.5" r="1.5"/>
            <circle cx="31.5" cy="1.5" r="1.5"/>
            <circle cx="61.5" cy="1.5" r="1.5"/>
            <circle cx="91.5" cy="1.5" r="1.5"/>
            <circle cx="121.5" cy="1.5" r="1.5"/>
            <circle cx="151.5" cy="1.5" r="1.5"/>
            <circle cx="181.5" cy="1.5" r="1.5"/>
            <circle cx="211.5" cy="1.5" r="1.5"/>
            <circle cx="241.5" cy="1.5" r="1.5"/>
            <circle cx="271.5" cy="1.5" r="1.5"/>
            <circle cx="301.5" cy="1.5" r="1.5"/>
            <circle cx="331.5" cy="1.5" r="1.5"/>
            <circle cx="361.5" cy="1.5" r="1.5"/>
            <circle cx="391.5" cy="1.5" r="1.5"/>
            <circle cx="421.5" cy="1.5" r="1.5"/>
            <circle cx="451.5" cy="1.5" r="1.5"/>
            <circle cx="481.5" cy="1.5" r="1.5"/>
            <circle cx="511.5" cy="1.5" r="1.5"/>
            <circle cx="541.5" cy="1.5" r="1.5"/>
            <circle cx="571.5" cy="1.5" r="1.5"/>
            <circle cx="601.5" cy="1.5" r="1.5"/>
        </g>
        <g transform="translate(0 301)">
            <circle cx="1.5" cy="1.5" r="1.5"/>
            <circle cx="31.5" cy="1.5" r="1.5"/>
            <circle cx="61.5" cy="1.5" r="1.5"/>
            <circle cx="91.5" cy="1.5" r="1.5"/>
            <circle cx="121.5" cy="1.5" r="1.5"/>
            <circle cx="151.5" cy="1.5" r="1.5"/>
            <circle cx="181.5" cy="1.5" r="1.5"/>
            <circle cx="211.5" cy="1.5" r="1.5"/>
            <circle cx="241.5" cy="1.5" r="1.5"/>
            <circle cx="271.5" cy="1.5" r="1.5"/>
            <circle cx="301.5" cy="1.5" r="1.5"/>
            <circle cx="331.5" cy="1.5" r="1.5"/>
            <circle cx="361.5" cy="1.5" r="1.5"/>
            <circle cx="391.5" cy="1.5" r="1.5"/>
            <circle cx="421.5" cy="1.5" r="1.5"/>
            <circle cx="451.5" cy="1.5" r="1.5"/>
            <circle cx="481.5" cy="1.5" r="1.5"/>
            <circle cx="511.5" cy="1.5" r="1.5"/>
            <circle cx="541.5" cy="1.5" r="1.5"/>
            <circle cx="571.5" cy="1.5" r="1.5"/>
            <circle cx="601.5" cy="1.5" r="1.5"/>
        </g>
        <g transform="translate(0 331)">
            <circle cx="1.5" cy="1.5" r="1.5"/>
            <circle cx="31.5" cy="1.5" r="1.5"/>
            <circle cx="61.5" cy="1.5" r="1.5"/>
            <circle cx="91.5" cy="1.5" r="1.5"/>
            <circle cx="121.5" cy="1.5" r="1.5"/>
            <circle cx="151.5" cy="1.5" r="1.5"/>
            <circle cx="181.5" cy="1.5" r="1.5"/>
            <circle cx="211.5" cy="1.5" r="1.5"/>
            <circle cx="241.5" cy="1.5" r="1.5"/>
            <circle cx="271.5" cy="1.5" r="1.5"/>
            <circle cx="301.5" cy="1.5" r="1.5"/>
            <circle cx="331.5" cy="1.5" r="1.5"/>
            <circle cx="361.5" cy="1.5" r="1.5"/>
            <circle cx="391.5" cy="1.5" r="1.5"/>
            <circle cx="421.5" cy="1.5" r="1.5"/>
            <circle cx="451.5" cy="1.5" r="1.5"/>
            <circle cx="481.5" cy="1.5" r="1.5"/>
            <circle cx="511.5" cy="1.5" r="1.5"/>
            <circle cx="541.5" cy="1.5" r="1.5"/>
            <circle cx="571.5" cy="1.5" r="1.5"/>
            <circle cx="601.5" cy="1.5" r="1.5"/>
        </g>
        <g transform="translate(0 361)">
            <circle cx="1.5" cy="1.5" r="1.5"/>
            <circle cx="31.5" cy="1.5" r="1.5"/>
            <circle cx="61.5" cy="1.5" r="1.5"/>
            <circle cx="91.5" cy="1.5" r="1.5"/>
            <circle cx="121.5" cy="1.5" r="1.5"/>
            <circle cx="151.5" cy="1.5" r="1.5"/>
            <circle cx="181.5" cy="1.5" r="1.5"/>
            <circle cx="211.5" cy="1.5" r="1.5"/>
            <circle cx="241.5" cy="1.5" r="1.5"/>
            <circle cx="271.5" cy="1.5" r="1.5"/>
            <circle cx="301.5" cy="1.5" r="1.5"/>
            <circle cx="331.5" cy="1.5" r="1.5"/>
            <circle cx="361.5" cy="1.5" r="1.5"/>
            <circle cx="391.5" cy="1.5" r="1.5"/>
            <circle cx="421.5" cy="1.5" r="1.5"/>
            <circle cx="451.5" cy="1.5" r="1.5"/>
            <circle cx="481.5" cy="1.5" r="1.5"/>
            <circle cx="511.5" cy="1.5" r="1.5"/>
            <circle cx="541.5" cy="1.5" r="1.5"/>
            <circle cx="571.5" cy="1.5" r="1.5"/>
            <circle cx="601.5" cy="1.5" r="1.5"/>
        </g>
        <g transform="translate(0 391)">
            <circle cx="1.5" cy="1.5" r="1.5"/>
            <circle cx="31.5" cy="1.5" r="1.5"/>
            <circle cx="61.5" cy="1.5" r="1.5"/>
            <circle cx="91.5" cy="1.5" r="1.5"/>
            <circle cx="121.5" cy="1.5" r="1.5"/>
            <circle cx="151.5" cy="1.5" r="1.5"/>
            <circle cx="181.5" cy="1.5" r="1.5"/>
            <circle cx="211.5" cy="1.5" r="1.5"/>
            <circle cx="241.5" cy="1.5" r="1.5"/>
            <circle cx="271.5" cy="1.5" r="1.5"/>
            <circle cx="301.5" cy="1.5" r="1.5"/>
            <circle cx="331.5" cy="1.5" r="1.5"/>
            <circle cx="361.5" cy="1.5" r="1.5"/>
            <circle cx="391.5" cy="1.5" r="1.5"/>
            <circle cx="421.5" cy="1.5" r="1.5"/>
            <circle cx="451.5" cy="1.5" r="1.5"/>
            <circle cx="481.5" cy="1.5" r="1.5"/>
            <circle cx="511.5" cy="1.5" r="1.5"/>
            <circle cx="541.5" cy="1.5" r="1.5"/>
            <circle cx="571.5" cy="1.5" r="1.5"/>
            <circle cx="601.5" cy="1.5" r="1.5"/>
        </g>
        <g transform="translate(0 421)">
            <circle cx="1.5" cy="1.5" r="1.5"/>
            <circle cx="31.5" cy="1.5" r="1.5"/>
            <circle cx="61.5" cy="1.5" r="1.5"/>
            <circle cx="91.5" cy="1.5" r="1.5"/>
            <circle cx="121.5" cy="1.5" r="1.5"/>
            <circle cx="151.5" cy="1.5" r="1.5"/>
            <circle cx="181.5" cy="1.5" r="1.5"/>
            <circle cx="211.5" cy="1.5" r="1.5"/>
            <circle cx="241.5" cy="1.5" r="1.5"/>
            <circle cx="271.5" cy="1.5" r="1.5"/>
            <circle cx="301.5" cy="1.5" r="1.5"/>
            <circle cx="331.5" cy="1.5" r="1.5"/>
            <circle cx="361.5" cy="1.5" r="1.5"/>
            <circle cx="391.5" cy="1.5" r="1.5"/>
            <circle cx="421.5" cy="1.5" r="1.5"/>
            <circle cx="451.5" cy="1.5" r="1.5"/>
            <circle cx="481.5" cy="1.5" r="1.5"/>
            <circle cx="511.5" cy="1.5" r="1.5"/>
            <circle cx="541.5" cy="1.5" r="1.5"/>
            <circle cx="571.5" cy="1.5" r="1.5"/>
            <circle cx="601.5" cy="1.5" r="1.5"/>
        </g>
        <g transform="translate(0 451)">
            <circle cx="1.5" cy="1.5" r="1.5"/>
            <circle cx="31.5" cy="1.5" r="1.5"/>
            <circle cx="61.5" cy="1.5" r="1.5"/>
            <circle cx="91.5" cy="1.5" r="1.5"/>
            <circle cx="121.5" cy="1.5" r="1.5"/>
            <circle cx="151.5" cy="1.5" r="1.5"/>
            <circle cx="181.5" cy="1.5" r="1.5"/>
            <circle cx="211.5" cy="1.5" r="1.5"/>
            <circle cx="241.5" cy="1.5" r="1.5"/>
            <circle cx="271.5" cy="1.5" r="1.5"/>
            <circle cx="301.5" cy="1.5" r="1.5"/>
            <circle cx="331.5" cy="1.5" r="1.5"/>
            <circle cx="361.5" cy="1.5" r="1.5"/>
            <circle cx="391.5" cy="1.5" r="1.5"/>
            <circle cx="421.5" cy="1.5" r="1.5"/>
            <circle cx="451.5" cy="1.5" r="1.5"/>
            <circle cx="481.5" cy="1.5" r="1.5"/>
            <circle cx="511.5" cy="1.5" r="1.5"/>
            <circle cx="541.5" cy="1.5" r="1.5"/>
            <circle cx="571.5" cy="1.5" r="1.5"/>
            <circle cx="601.5" cy="1.5" r="1.5"/>
        </g>
        <g transform="translate(0 481)">
            <circle cx="1.5" cy="1.5" r="1.5"/>
            <circle cx="31.5" cy="1.5" r="1.5"/>
            <circle cx="61.5" cy="1.5" r="1.5"/>
            <circle cx="91.5" cy="1.5" r="1.5"/>
            <circle cx="121.5" cy="1.5" r="1.5"/>
            <circle cx="151.5" cy="1.5" r="1.5"/>
            <circle cx="181.5" cy="1.5" r="1.5"/>
            <circle cx="211.5" cy="1.5" r="1.5"/>
            <circle cx="241.5" cy="1.5" r="1.5"/>
            <circle cx="271.5" cy="1.5" r="1.5"/>
            <circle cx="301.5" cy="1.5" r="1.5"/>
            <circle cx="331.5" cy="1.5" r="1.5"/>
            <circle cx="361.5" cy="1.5" r="1.5"/>
            <circle cx="391.5" cy="1.5" r="1.5"/>
            <circle cx="421.5" cy="1.5" r="1.5"/>
            <circle cx="451.5" cy="1.5" r="1.5"/>
            <circle cx="481.5" cy="1.5" r="1.5"/>
            <circle cx="511.5" cy="1.5" r="1.5"/>
            <circle cx="541.5" cy="1.5" r="1.5"/>
            <circle cx="571.5" cy="1.5" r="1.5"/>
            <circle cx="601.5" cy="1.5" r="1.5"/>
        </g>
        <g transform="translate(0 511)">
            <circle cx="1.5" cy="1.5" r="1.5"/>
            <circle cx="31.5" cy="1.5" r="1.5"/>
            <circle cx="61.5" cy="1.5" r="1.5"/>
            <circle cx="91.5" cy="1.5" r="1.5"/>
            <circle cx="121.5" cy="1.5" r="1.5"/>
            <circle cx="151.5" cy="1.5" r="1.5"/>
            <circle cx="181.5" cy="1.5" r="1.5"/>
            <circle cx="211.5" cy="1.5" r="1.5"/>
            <circle cx="241.5" cy="1.5" r="1.5"/>
            <circle cx="271.5" cy="1.5" r="1.5"/>
            <circle cx="301.5" cy="1.5" r="1.5"/>
            <circle cx="331.5" cy="1.5" r="1.5"/>
            <circle cx="361.5" cy="1.5" r="1.5"/>
            <circle cx="391.5" cy="1.5" r="1.5"/>
            <circle cx="421.5" cy="1.5" r="1.5"/>
            <circle cx="451.5" cy="1.5" r="1.5"/>
            <circle cx="481.5" cy="1.5" r="1.5"/>
            <circle cx="511.5" cy="1.5" r="1.5"/>
            <circle cx="541.5" cy="1.5" r="1.5"/>
            <circle cx="571.5" cy="1.5" r="1.5"/>
            <circle cx="601.5" cy="1.5" r="1.5"/>
        </g>
        <g transform="translate(0 541)">
            <circle cx="1.5" cy="1.5" r="1.5"/>
            <circle cx="31.5" cy="1.5" r="1.5"/>
            <circle cx="61.5" cy="1.5" r="1.5"/>
            <circle cx="91.5" cy="1.5" r="1.5"/>
            <circle cx="121.5" cy="1.5" r="1.5"/>
            <circle cx="151.5" cy="1.5" r="1.5"/>
            <circle cx="181.5" cy="1.5" r="1.5"/>
            <circle cx="211.5" cy="1.5" r="1.5"/>
            <circle cx="241.5" cy="1.5" r="1.5"/>
            <circle cx="271.5" cy="1.5" r="1.5"/>
            <circle cx="301.5" cy="1.5" r="1.5"/>
            <circle cx="331.5" cy="1.5" r="1.5"/>
            <circle cx="361.5" cy="1.5" r="1.5"/>
            <circle cx="391.5" cy="1.5" r="1.5"/>
            <circle cx="421.5" cy="1.5" r="1.5"/>
            <circle cx="451.5" cy="1.5" r="1.5"/>
            <circle cx="481.5" cy="1.5" r="1.5"/>
            <circle cx="511.5" cy="1.5" r="1.5"/>
            <circle cx="541.5" cy="1.5" r="1.5"/>
            <circle cx="571.5" cy="1.5" r="1.5"/>
            <circle cx="601.5" cy="1.5" r="1.5"/>
        </g>
        <g transform="translate(0 571)">
            <circle cx="1.5" cy="1.5" r="1.5"/>
            <circle cx="31.5" cy="1.5" r="1.5"/>
            <circle cx="61.5" cy="1.5" r="1.5"/>
            <circle cx="91.5" cy="1.5" r="1.5"/>
            <circle cx="121.5" cy="1.5" r="1.5"/>
            <circle cx="151.5" cy="1.5" r="1.5"/>
            <circle cx="181.5" cy="1.5" r="1.5"/>
            <circle cx="211.5" cy="1.5" r="1.5"/>
            <circle cx="241.5" cy="1.5" r="1.5"/>
            <circle cx="271.5" cy="1.5" r="1.5"/>
            <circle cx="301.5" cy="1.5" r="1.5"/>
            <circle cx="331.5" cy="1.5" r="1.5"/>
            <circle cx="361.5" cy="1.5" r="1.5"/>
            <circle cx="391.5" cy="1.5" r="1.5"/>
            <circle cx="421.5" cy="1.5" r="1.5"/>
            <circle cx="451.5" cy="1.5" r="1.5"/>
            <circle cx="481.5" cy="1.5" r="1.5"/>
            <circle cx="511.5" cy="1.5" r="1.5"/>
            <circle cx="541.5" cy="1.5" r="1.5"/>
            <circle cx="571.5" cy="1.5" r="1.5"/>
            <circle cx="601.5" cy="1.5" r="1.5"/>
        </g>
        <g transform="translate(0 601)">
            <circle cx="1.5" cy="1.5" r="1.5"/>
            <circle cx="31.5" cy="1.5" r="1.5"/>
            <circle cx="61.5" cy="1.5" r="1.5"/>
            <circle cx="91.5" cy="1.5" r="1.5"/>
            <circle cx="121.5" cy="1.5" r="1.5"/>
            <circle cx="151.5" cy="1.5" r="1.5"/>
            <circle cx="181.5" cy="1.5" r="1.5"/>
            <circle cx="211.5" cy="1.5" r="1.5"/>
            <circle cx="241.5" cy="1.5" r="1.5"/>
            <circle cx="271.5" cy="1.5" r="1.5"/>
            <circle cx="301.5" cy="1.5" r="1.5"/>
            <circle cx="331.5" cy="1.5" r="1.5"/>
            <circle cx="361.5" cy="1.5" r="1.5"/>
            <circle cx="391.5" cy="1.5" r="1.5"/>
            <circle cx="421.5" cy="1.5" r="1.5"/>
            <circle cx="451.5" cy="1.5" r="1.5"/>
            <circle cx="481.5" cy="1.5" r="1.5"/>
            <circle cx="511.5" cy="1.5" r="1.5"/>
            <circle cx="541.5" cy="1.5" r="1.5"/>
            <circle cx="571.5" cy="1.5" r="1.5"/>
            <circle cx="601.5" cy="1.5" r="1.5"/>
        </g>
    </g>
</svg>
