<svg xmlns="http://www.w3.org/2000/svg" width="100" height="100" viewBox="0 0 100 100"><defs><linearGradient id="a" x1="50" x2="50" y1="100" gradientUnits="userSpaceOnUse"><stop offset="0" stop-color="#1d9049"/><stop offset="1" stop-color="#27c942"/></linearGradient></defs><path fill="url(#a)" d="M0 0h100v100H0z"/><path fill="#fff" fill-rule="evenodd" d="M85 60.886c0 3.767-.957 6.033-3 8.114-1.888 1.922-4.97 3-9 3H54v-6.5a6.5 6.5 0 0 0 0-12V36h4v4h5v-8H40v8h5v-4h4v17.5a6.5 6.5 0 0 0 0 12V72H17V58h4v-4h-4V40h18V27h33v13h5c3.1.079 4.864.569 6.824 2.036a9.378 9.378 0 0 1 3.832 7.93A8.07 8.07 0 0 1 82 55a7.5 7.5 0 0 1 3 5.886zM36 45v9h-5v-9h-9v4h4v14h-4v4h9v-9h5v9h9v-4h-4V49h4v-4h-9zm40 10a5.667 5.667 0 0 0 3.015-4.779c0-2.853-2.46-5.164-6.015-5.221H58v4h4v14h-4v4h16.026a6.145 6.145 0 0 0 5.984-6.3A6.339 6.339 0 0 0 76 55zm-4 8h-5v-5h5a2 2 0 0 1 2 2v1a2 2 0 0 1-2 2zm-1-9h-4v-5h4a2 2 0 0 1 2 2v1a2 2 0 0 1-2 2zm-23 2.5a1.5 1.5 0 1 1 1.5 1.5 1.5 1.5 0 0 1-1.5-1.5z"/></svg>
