<svg xmlns="http://www.w3.org/2000/svg" width="279" height="70" viewBox="0 0 279 70"><path fill="#0068B5" d="M0 32.04L32.04 0 64 32.04l-2.98 2.98L64 38.01 32.04 69.97 0 38.01l2.98-2.99L0 32.04z"/><path fill="#0068B5" d="M1.9072 38.011L31.9733 7.9446 62.0395 38.011 31.9733 68.0771 1.9072 38.011z"/><path fill="#fff" d="M32 68.51L1.46 38 32 7.5 62.47 38 32 68.51zM2.33 38L32 67.64 61.6 38 32 8.37 2.33 38z"/><path fill="#0068B5" d="M1.9057 32.0395L31.972 1.9733l30.0662 30.0662L31.972 62.1057 1.9057 32.0395z"/><path fill="#fff" d="M32 62.54L1.46 32 32 1.53 62.47 32 32 62.54zM2.33 32L32 61.67 61.6 32 32 2.4 2.33 32z"/><path fill="#0068B5" d="M7.7513 32.126L31.9485 7.929l24.2467 24.2467L31.998 56.3728 7.7513 32.126z"/><path fill="#fff" d="M32 56.79L7.28 32.11 32 7.43l24.65 24.68L32 56.79zM8.15 32.11L32 55.92l23.77-23.81L32 8.37 8.15 32.11z"/><path fill="#fff" d="M10.12 24.76h43.76v14.27H10.12V24.76z"/><path fill="#0068B5" d="M18.06 38.08l3.64-12.23h-3.86s-1.24 5.24-1.38 6.26c-.15-1-1.24-6.26-1.24-6.26h-3.79l3.06 12.23h3.57zM23.08 38.08h6.7v-2.91h-3.06v-1.9h2.26v-2.91h-2.26v-1.67h3.06v-2.92h-6.7v12.31zM41.79 38.08l-3.2-6.41 2.84-5.9h-3.79l-1.96 4.37h-.08.08v-4.37h-3.57v12.31h3.57v-4.81l2.25 4.81h3.86zM46.74 33.42l.51-2.4c.15-.8.22-1.53.36-2.33.07.73.15 1.53.29 2.33l.36 2.4h-1.52zm5.9 4.66L49.8 25.85h-4.37l-3.2 12.23h3.71l.29-1.6h2.4l.29 1.6h3.72zM90.76 42.12v-7.25h-5.34v7.25h-2.6V26.45h2.6v6.3h5.34v-6.3h2.6v15.67h-2.6zm13.95.47a2.6887 2.6887 0 0 1-.944-.6039 2.6819 2.6819 0 0 1-.616-.9361 3.8532 3.8532 0 0 1-1.415 1.0503c-.547.236-1.141.342-1.735.3097-2.63 0-3.8-1.4-3.8-3.4 0-2.65 2-4 5.66-4h.77v-.61c0-1.31-.23-2-1.58-2a6.9307 6.9307 0 0 0-3.42 1.31l-1.11-1.79a8.5999 8.5999 0 0 1 4.87-1.56c1.79 0 3 .66 3.49 1.9.228.9184.289 1.8701.18 2.81v3.28c0 1.54.11 2 1 2.65l-1.35 1.59zm-2.58-5.89c-2.49 0-3.24.72-3.24 2.17a1.521 1.521 0 0 0 .3903 1.2341 1.5202 1.5202 0 0 0 1.1997.4859 2.542 2.542 0 0 0 1.172-.3213c.358-.2003.663-.4847.888-.8287v-2.72l-.41-.02zm16.11 8.65h-2.31v-3.23h-6.68v3.24h-2.31v-5h.88a15.3629 15.3629 0 0 0 1.49-3.83c.312-1.3581.473-2.7465.48-4.14v-1.68h7v9.65h1.43l.02 4.99zm-6.45-12.88v1.06a19.4995 19.4995 0 0 1-.48 3.6 15.6886 15.6886 0 0 1-1.31 3.18h4.3v-7.84h-2.51zM122.57 37v.21c0 1.58.59 3.26 2.83 3.26a4.221 4.221 0 0 0 2.85-1.13l1 1.52a6.1888 6.1888 0 0 1-4.12 1.52c-3.24 0-5.28-2.33-5.28-6a6.2476 6.2476 0 0 1 1.43-4.48 4.355 4.355 0 0 1 1.577-1.1764 4.3566 4.3566 0 0 1 1.933-.3636 4.4304 4.4304 0 0 1 3.15 1.18c1 .91 1.49 2.31 1.49 5V37h-6.86zm2.2-4.82c-1.4 0-2.17 1.11-2.17 3h4.23c-.01-1.85-.83-2.96-2.07-2.96l.01-.04zm14.85-1.79v4.8h.88a1.431 1.431 0 0 0 1-.36c.233-.2872.382-.6333.43-1l.27-1.27c.082-.5183.319-.9995.68-1.38a2.28 2.28 0 0 1 1.54-.61l1.06-.09.45 1.7-.59.11a1.2693 1.2693 0 0 0-.63.29c-.17.1857-.288.4136-.34.66l-.37 1.27c-.08.3785-.267.7259-.54 1a2.104 2.104 0 0 1-1 .52c.319.1037.612.2741.86.5.324.3741.563.8143.7 1.29l.48 1.43c.066.3291.222.6335.45.88.276.2037.594.3438.93.41l.29.07-.45 1.7-.86-.07a3.1685 3.1685 0 0 1-2-.68 2.9946 2.9946 0 0 1-.7-1.52l-.27-1.36a2.3863 2.3863 0 0 0-.54-1.34 1.5361 1.5361 0 0 0-.541-.2865A1.5367 1.5367 0 0 0 140.2 37h-.59v5.07h-2.47V37h-.59a1.5392 1.5392 0 0 0-1.16.34 2.3863 2.3863 0 0 0-.54 1.34l-.27 1.36a2.9946 2.9946 0 0 1-.7 1.52 3.1685 3.1685 0 0 1-2 .68l-.86.07-.45-1.7.29-.07c.336-.0662.654-.2063.93-.41.227-.2468.383-.5511.45-.88l.48-1.43a3.416 3.416 0 0 1 .7-1.29c.248-.2259.541-.3963.86-.5a2.104 2.104 0 0 1-1-.52 2.0032 2.0032 0 0 1-.54-1l-.41-1.31a1.4095 1.4095 0 0 0-.34-.66 1.277 1.277 0 0 0-.63-.29l-.59-.11.45-1.7 1.06.09a2.28 2.28 0 0 1 1.54.61c.361.3805.598.8617.68 1.38l.27 1.27c.048.3667.197.7128.43 1 .275.244.633.3729 1 .36h.88v-4.29l2.54-.47zm11 11.73h-2.47V30.86l2.47-.48v4.72h3.87v-4.24l2.47-.48v11.74h-2.47V37h-3.87v5.12zm14.1.29c-3.1 0-5-2.33-5-6s2-6 5-6c3.26 0 5.12 2.42 5.12 6s-2.02 6-5.12 6zm0-10.19c-1.56 0-2.24 1.2-2.24 4 0 3.38.84 4.35 2.31 4.35 1.47 0 2.29-1.2 2.29-4.12-.08-3.26-.95-4.23-2.4-4.23h.04zM174 42.46a1.822 1.822 0 0 1-.697-.1509 1.8264 1.8264 0 0 1-.585-.4068 1.8223 1.8223 0 0 1-.384-.6004 1.83 1.83 0 0 1-.124-.7019 1.7552 1.7552 0 0 1 .121-.6797 1.7499 1.7499 0 0 1 1.619-1.1103 1.803 1.803 0 0 1 .69.1332c.218.0892.418.2207.586.3869.168.1662.302.3639.393.5818.092.2179.14.4517.141.6881.008.4786-.171.9414-.5 1.2891-.33.3477-.782.5527-1.26.5709zm17.94-.34v-7.25h-5.34v7.25H184V26.45h2.6v6.3h5.34v-6.3h2.6v15.67h-2.6zm13.94.47a2.6887 2.6887 0 0 1-.944-.6039 2.6819 2.6819 0 0 1-.616-.9361 3.8532 3.8532 0 0 1-1.415 1.0503c-.547.236-1.141.342-1.735.3097-2.63 0-3.8-1.4-3.8-3.4 0-2.65 2-4 5.66-4h.77v-.61c0-1.31-.23-2-1.58-2a6.9303 6.9303 0 0 0-3.42 1.31l-1.11-1.79a8.5894 8.5894 0 0 1 4.87-1.56c1.79 0 3 .66 3.49 1.9.228.9183.289 1.8701.18 2.81v3.28c0 1.54.11 2 1 2.65l-1.35 1.59zm-2.58-5.89c-2.49 0-3.24.72-3.24 2.17-.03.2209-.01.4456.057.6581a1.5176 1.5176 0 0 0 .872.9497c.206.0847.428.123.651.1122a2.542 2.542 0 0 0 1.172-.3213c.358-.2003.663-.4847.888-.8287v-2.72l-.4-.02zm11.16-6.04c.535-.0531 1.076 0 1.591.1562.514.1561.993.4123 1.409.7538.253.2658.45.58.579.9236.129.3436.187.7097.171 1.0764a2.4308 2.4308 0 0 1-.63 1.77 2.652 2.652 0 0 1-1.13.72 2.8714 2.8714 0 0 1 1.49.77c.261.261.464.5739.597.9184.133.3444.192.7129.173 1.0816a3.1194 3.1194 0 0 1-.93 2.38 4.2398 4.2398 0 0 1-2.92.93h-5.12V30.66h4.72zm-2.29 4.69h1.61a2.2393 2.2393 0 0 0 1.52-.45 1.382 1.382 0 0 0 .318-.4862c.071-.1827.102-.3782.092-.5738a1.4648 1.4648 0 0 0-.093-.6113 1.479 1.479 0 0 0-.337-.5187 2.0595 2.0595 0 0 0-1.4-.36h-1.7l-.01 3zm0 5.09H214a2.5393 2.5393 0 0 0 1.63-.45c.161-.1531.285-.3405.363-.5484.078-.2078.107-.4306.087-.6516a1.741 1.741 0 0 0-.59-1.47A2.5594 2.5594 0 0 0 214 37h-1.81l-.02 3.44zm13.75 1.97c-3.12 0-4.87-2.2-4.87-5.89 0-4.17 2.49-6.16 5-6.16a4.1732 4.1732 0 0 1 1.719.2864c.546.2154 1.04.5438 1.451.9636L228 33.26a2.81 2.81 0 0 0-1.92-.88c-.38.0001-.752.1083-1.072.3119a1.995 1.995 0 0 0-.738.8381 7.7417 7.7417 0 0 0-.48 3.19 4.6115 4.6115 0 0 0 .77 3.13c.191.2122.426.381.688.4948.263.1139.546.1702.832.1652a3.304 3.304 0 0 0 1.27-.3307c.396-.1941.75-.4659 1.04-.7993l1.18 1.52a4.772 4.772 0 0 1-1.661 1.1506c-.63.2604-1.308.383-1.989.3594zm8.21-5.41v.21c0 1.58.59 3.26 2.83 3.26a4.221 4.221 0 0 0 2.85-1.13l1 1.52a6.1888 6.1888 0 0 1-4.12 1.52c-3.24 0-5.28-2.33-5.28-6a6.2476 6.2476 0 0 1 1.43-4.48 4.355 4.355 0 0 1 1.577-1.1764 4.3566 4.3566 0 0 1 1.933-.3636 4.4201 4.4201 0 0 1 3.15 1.18c1 .91 1.5 2.31 1.5 5V37h-6.87zm2.2-4.82c-1.4 0-2.17 1.11-2.17 3h4.23c0-1.85-.81-2.96-2.06-2.96v-.04zm9.67 9.94h-2.47V30.66h7.16l-.29 1.86H246v9.6zm15.62 3.23h-2.31v-3.23h-6.68v3.24h-2.31v-5h.88a15.3779 15.3779 0 0 0 1.5-3.83c.311-1.3582.472-2.7466.48-4.14v-1.68h7v9.65h1.43l.01 4.99zm-6.45-12.88v1.06a19.585 19.585 0 0 1-.48 3.6 15.7153 15.7153 0 0 1-1.22 3.17h4.3v-7.83h-2.6zm16.43 10.12a2.6886 2.6886 0 0 1-.966-.5972A2.694 2.694 0 0 1 270 41.05a3.8532 3.8532 0 0 1-1.415 1.0503c-.547.236-1.141.342-1.735.3097-2.63 0-3.8-1.4-3.8-3.4 0-2.65 2-4 5.66-4h.77v-.61c0-1.31-.23-2-1.58-2a6.9303 6.9303 0 0 0-3.42 1.31l-1.11-1.79a8.5894 8.5894 0 0 1 4.87-1.56c1.79 0 3 .66 3.49 1.9.228.9183.289 1.8701.18 2.81v3.28c0 1.54.11 2 1 2.65l-1.31 1.59zM269 36.7c-2.49 0-3.24.72-3.24 2.17-.03.2209-.01.4456.057.6581a1.5176 1.5176 0 0 0 .872.9497c.206.0847.428.123.651.1122a2.542 2.542 0 0 0 1.172-.3213c.358-.2003.663-.4847.888-.8287v-2.72l-.4-.02zm7.88 5.76a1.822 1.822 0 0 1-.697-.1509 1.8264 1.8264 0 0 1-.585-.4068 1.8223 1.8223 0 0 1-.384-.6004 1.83 1.83 0 0 1-.124-.7019 1.7552 1.7552 0 0 1 .121-.6797 1.7499 1.7499 0 0 1 1.619-1.1103 1.803 1.803 0 0 1 .69.1332c.218.0892.418.2207.586.3869.168.1662.302.3639.393.5818.092.2179.14.4517.141.6881.008.4786-.171.9414-.5 1.2891a1.8316 1.8316 0 0 1-1.26.5709zM85.07 67.55c-2.33 0-3.48-1.8-3.48-4.22 0-2.68 1.37-4.2 3.42-4.2 2.31 0 3.42 1.83 3.42 4.21 0 2.55-1.23 4.21-3.36 4.21zm0-7.38c-1.41 0-1.93 1.11-1.93 3.06 0 2.11.53 3.28 2 3.28 1.22 0 1.84-.9 1.84-3.1-.07-1.99-.48-3.24-1.98-3.24h.07zM94 61.73a1.65 1.65 0 0 1 1.14-.43 1.7099 1.7099 0 0 1 1.41.7 3.7203 3.7203 0 0 1 .65 2.34 4.2805 4.2805 0 0 1-.6 2.44 1.7897 1.7897 0 0 1-1.54.8 1.52 1.52 0 0 1-1.06-.35v2.57h-1.26v-2.57a1.52 1.52 0 0 1-1.05.35 1.7897 1.7897 0 0 1-1.54-.8 4.2805 4.2805 0 0 1-.6-2.44A3.7203 3.7203 0 0 1 90.2 62a1.71 1.71 0 0 1 1.41-.7 1.65 1.65 0 0 1 1.14.43V59l1.29-.3-.04 3.03zm-1.29 1a1.28 1.28 0 0 0-.85-.38.7998.7998 0 0 0-.69.35 2.8494 2.8494 0 0 0-.28 1.64 3.4992 3.4992 0 0 0 .26 1.8.8394.8394 0 0 0 .75.4 1.22 1.22 0 0 0 .82-.33l-.01-3.48zM94 66.21a1.22 1.22 0 0 0 .82.33.8394.8394 0 0 0 .75-.4 3.4992 3.4992 0 0 0 .26-1.8 2.8494 2.8494 0 0 0-.28-1.64.8.8 0 0 0-.69-.35 1.28 1.28 0 0 0-.85.38L94 66.21zm4.64-4.67l1.29-.25v4.48c.174-.4835.389-.9517.64-1.4l1.6-2.85 1.35-.24v6.14h-1.32v-2.71c0-.58 0-1 .06-1.55a9.3914 9.3914 0 0 1-.6 1.32L100 67.43h-1.36v-5.89zm11.06-.24v5.16h.75v2.66h-1.21v-1.69h-4v-5.88l1.29-.25v5.16h1.86v-4.91l1.31-.25zm1.93.24l1.29-.25v4.48c.174-.4835.389-.9517.64-1.4l1.6-2.85 1.35-.24v6.14h-1.29v-2.71c0-.58 0-1 .06-1.55a9.3914 9.3914 0 0 1-.6 1.32L113 67.43h-1.35l-.02-5.89zm10.71 6.14a1.4109 1.4109 0 0 1-.496-.3123 1.4102 1.4102 0 0 1-.324-.4877c-.2.2374-.452.4251-.736.5484a2.002 2.002 0 0 1-.904.1616c-1.37 0-2-.73-2-1.77 0-1.38 1-2.08 3-2.08h.4v-.32c0-.69-.12-1.05-.83-1.05a3.62 3.62 0 0 0-1.79.69l-.58-.93a4.4901 4.4901 0 0 1 2.54-.82 1.7606 1.7606 0 0 1 1.82 1c.118.4807.148.9786.09 1.47v1.71c0 .8.06 1.06.52 1.38l-.71.81zM121 64.6c-1.3 0-1.69.38-1.69 1.13a.7807.7807 0 0 0 .028.3462.7965.7965 0 0 0 .173.3008.7918.7918 0 0 0 .629.253 1.3303 1.3303 0 0 0 1.08-.6v-1.42l-.22-.01zm7.94-3.15v6h-1.29v-5h-1.35v.65c0 .35-.06.85-.11 1.38 0 .36-.11 1.1-.18 1.53a1.8918 1.8918 0 0 1-.46 1.09 2.0015 2.0015 0 0 1-1.24.45h-.32l-.26-.89.26-.06c.215-.0551.414-.1614.58-.31a3.067 3.067 0 0 0 .44-1.77c.08-.79.11-1.22.15-2l.07-1.12 3.71.05zm3.06-.15v2.35h.86a2.5015 2.5015 0 0 1 1.86.58c.331.3654.504.8474.48 1.34.026.4803-.14.9513-.46 1.31a2.3586 2.3586 0 0 1-.83.4507 2.359 2.359 0 0 1-.94.0893h-2.26v-5.87l1.29-.25zm0 5.2h.75c.306.0274.611-.0659.85-.26.164-.1915.25-.438.24-.69a1.0004 1.0004 0 0 0-.25-.72 1.2302 1.2302 0 0 0-.88-.26H132v1.93zm5.8.93h-1.29v-5.88l1.29-.25v2.46h2v-2.21l1.29-.25v6.13h-1.29v-2.7h-2v2.7zm6.37-6.13v2.35h.83a2.5015 2.5015 0 0 1 1.86.58c.331.3654.504.8474.48 1.34.026.4803-.14.9513-.46 1.31a2.3586 2.3586 0 0 1-.83.4507 2.359 2.359 0 0 1-.94.0893h-2.21v-5.87l1.27-.25zm0 5.2h.67c.316.0312.632-.0621.88-.26a.9029.9029 0 0 0 .189-.3103.8984.8984 0 0 0 .051-.3597 1.012 1.012 0 0 0-.055-.4084.997.997 0 0 0-.215-.3516 1.2207 1.2207 0 0 0-.84-.24h-.67l-.01 1.93zm5.36-5.2v6.13h-1.29v-5.88l1.29-.25zm1.77.24l1.29-.25v4.48c.174-.4835.389-.9517.64-1.4l1.6-2.85 1.35-.24v6.14h-1.29v-2.71c0-.58 0-1 .06-1.55-.165.455-.366.8963-.6 1.32l-1.64 2.94h-1.41v-5.88zm4.3-2a2 2 0 0 1-1.89 1.3459 2 2 0 0 1-1.89-1.3459l.65-.37c.06.08.15.21.25.32.129.1325.285.2358.458.303.172.0673.357.0969.542.087a1.2198 1.2198 0 0 0 1-.39c.09-.11.19-.24.25-.32l.63.37zm4.99 7.89v-6h4.49v6h-1.29v-5h-1.92v5h-1.28zm10.36.25a1.4109 1.4109 0 0 1-.496-.3123 1.4102 1.4102 0 0 1-.324-.4877c-.2.2374-.452.4251-.736.5484a2.002 2.002 0 0 1-.904.1616c-1.37 0-2-.73-2-1.77 0-1.38 1-2.08 3-2.08h.4v-.32c0-.69-.12-1.05-.83-1.05a3.62 3.62 0 0 0-1.79.69l-.58-.93a4.4901 4.4901 0 0 1 2.54-.82 1.7606 1.7606 0 0 1 1.82 1c.118.4807.148.9786.09 1.47v1.71c0 .8.06 1.06.52 1.38l-.71.81zm-1.35-3.08c-1.3 0-1.69.38-1.69 1.13a.7807.7807 0 0 0 .028.3462.7965.7965 0 0 0 .173.3008.7918.7918 0 0 0 .629.253 1.3303 1.3303 0 0 0 1.08-.6v-1.42l-.22-.01zm4.48-3.31c.057.2324.087.4707.09.71.199-.228.445-.4098.721-.5324.277-.1227.577-.1833.879-.1776.27-.0069.538.041.789.1406.251.0997.479.2492.671.4394.295.3414.518.7388.655 1.1684.138.4296.187.8825.145 1.3316.039.4751-.017.9532-.164 1.4065a3.6038 3.6038 0 0 1-.696 1.2335 2.1396 2.1396 0 0 1-1.54.58 2.2703 2.2703 0 0 1-1.41-.5v2.57L173 70v-7a6.8952 6.8952 0 0 0-.12-1.49l1.2-.22zm.18 4.66c.312.325.739.5151 1.19.53a.9084.9084 0 0 0 .355-.0584.906.906 0 0 0 .305-.1916c.201-.251.35-.5392.44-.8481.089-.3089.116-.6324.08-.9519a2.6213 2.6213 0 0 0-.41-1.77.8625.8625 0 0 0-.305-.2088.861.861 0 0 0-.365-.0612 1.8106 1.8106 0 0 0-1.29.62v2.94zm7.14 1.48h-1.29v-5h-1.61v-1h4.61l-.17 1h-1.54v5zm3.83 0h-1.29v-5.88l1.29-.25v2.46h2v-2.21l1.29-.25v6.13h-1.29v-2.7h-2v2.7zm6.22-2.65v.11c0 .83.31 1.7 1.48 1.7a2.209 2.209 0 0 0 1.49-.59l.51.79a3.23 3.23 0 0 1-2.15.79c-1.69 0-2.76-1.22-2.76-3.15a3.2674 3.2674 0 0 1 .75-2.34c.224-.2635.506-.4724.823-.611a2.2777 2.2777 0 0 1 1.007-.189 2.3097 2.3097 0 0 1 1.64.62c.31.3515.54.7659.674 1.2147.135.4487.171.9213.106 1.3853v.27h-3.57zm1.15-2.52c-.73 0-1.13.58-1.13 1.55h2.21c-.01-.97-.43-1.55-1.08-1.55zm4.92-.97c.057.2324.087.4707.09.71.199-.228.445-.4098.721-.5324.277-.1227.577-.1833.879-.1776.27-.0069.538.041.789.1406.251.0997.479.2492.671.4394.295.3414.518.7388.655 1.1684.138.4296.187.8825.145 1.3316a3.604 3.604 0 0 1-.171 1.4023A3.584 3.584 0 0 1 200.6 67a2.1396 2.1396 0 0 1-1.54.58 2.2703 2.2703 0 0 1-1.41-.5v2.57l-1.25.32V63a6.8952 6.8952 0 0 0-.12-1.49l1.24-.22zm.18 4.71c.312.325.739.5151 1.19.53a.9084.9084 0 0 0 .355-.0584.906.906 0 0 0 .305-.1916c.201-.251.35-.5392.44-.8481.089-.3089.116-.6324.08-.9519a2.6098 2.6098 0 0 0-.41-1.77.8625.8625 0 0 0-.305-.2088.861.861 0 0 0-.365-.0612 1.8106 1.8106 0 0 0-1.29.62V66z"/></svg>