<svg xmlns="http://www.w3.org/2000/svg" viewBox="0 0 278.64 69.97"><defs><style>.cls-1{fill:#0068b5}.cls-2{fill:#fff}.cls-3{fill:none}</style></defs><path class="cls-1" d="M0 32.04L32.04 0 64 32.04l-2.98 2.98L64 38.01 32.04 69.97 0 38.01l2.98-2.99L0 32.04z"/><path class="cls-1" d="M1.9072 38.011L31.9733 7.9446 62.0395 38.011 31.9733 68.0771z"/><path class="cls-2" d="M32 68.51L1.46 38 32 7.5 62.47 38zM2.33 38L32 67.64 61.6 38 32 8.37z"/><path class="cls-1" d="M1.9057 32.0395L31.972 1.9733l30.0662 30.0662-30.0662 30.0662z"/><path class="cls-2" d="M32 62.54L1.46 32 32 1.53 62.47 32zM2.33 32L32 61.67 61.6 32 32 2.4z"/><path class="cls-1" d="M7.7513 32.126L31.9485 7.929l24.2467 24.2467L31.998 56.3728z"/><path class="cls-2" d="M32 56.79L7.28 32.11 32 7.43l24.65 24.68zM8.15 32.11L32 55.92l23.77-23.81L32 8.37z"/><path class="cls-2" d="M10.12 24.76h43.76v14.27H10.12z"/><path class="cls-1" d="M18.06 38.08l3.64-12.23h-3.86s-1.24 5.24-1.38 6.26c-.15-1-1.24-6.26-1.24-6.26h-3.79l3.06 12.23z"/><path class="cls-3" d="M18.06 38.08l3.64-12.23h-3.86s-1.24 5.24-1.38 6.26c-.15-1-1.24-6.26-1.24-6.26h-3.79l3.06 12.23z"/><path class="cls-1" d="M23.08 38.08h6.7v-2.91h-3.06v-1.9h2.26v-2.91h-2.26v-1.67h3.06v-2.92h-6.7v12.31z"/><path class="cls-3" d="M23.08 38.08h6.7v-2.91h-3.06v-1.9h2.26v-2.91h-2.26v-1.67h3.06v-2.92h-6.7v12.31z"/><path class="cls-1" d="M41.79 38.08l-3.2-6.41 2.84-5.9h-3.79l-1.96 4.37h-.08.08v-4.37h-3.57v12.31h3.57v-4.81l2.25 4.81h3.86z"/><path class="cls-3" d="M41.79 38.08l-3.2-6.41 2.84-5.9h-3.79l-1.96 4.37h-.08.08v-4.37h-3.57v12.31h3.57v-4.81l2.25 4.81h3.86z"/><path class="cls-1" d="M46.74 33.42l.51-2.4c.15-.8.22-1.53.36-2.33.07.73.15 1.53.29 2.33l.36 2.4h-1.52m5.9 4.66L49.8 25.85h-4.37l-3.2 12.23h3.71l.29-1.6h2.4l.29 1.6z"/><path class="cls-3" d="M46.74 33.42l.51-2.4c.15-.8.22-1.53.36-2.33.07.73.15 1.53.29 2.33l.36 2.4zm5.9 4.66L49.8 25.85h-4.37l-3.2 12.23h3.71l.29-1.6h2.4l.29 1.6z"/><path class="cls-1" d="M90.76 42.12v-7.25h-5.34v7.25h-2.6V26.45h2.6v6.3h5.34v-6.3h2.6v15.67zM104.71 42.59a2.69 2.69 0 0 1-1.56-1.54 3.85 3.85 0 0 1-3.15 1.36c-2.63 0-3.8-1.4-3.8-3.4 0-2.65 2-4 5.66-4h.77v-.61c0-1.31-.23-2-1.58-2a6.93 6.93 0 0 0-3.42 1.31l-1.11-1.79a8.6 8.6 0 0 1 4.87-1.56c1.79 0 3 .66 3.49 1.9a7.91 7.91 0 0 1 .18 2.81v3.28c0 1.54.11 2 1 2.65zm-2.58-5.89c-2.49 0-3.24.72-3.24 2.17a1.52 1.52 0 0 0 1.59 1.72 2.54 2.54 0 0 0 2.06-1.15v-2.72zM118.24 45.35h-2.31v-3.23h-6.68v3.24h-2.31v-5h.88a15.34 15.34 0 0 0 1.49-3.83 18.91 18.91 0 0 0 .48-4.14v-1.68h7v9.65h1.43zm-6.45-12.88v1.06a19.5 19.5 0 0 1-.48 3.6 15.67 15.67 0 0 1-1.31 3.18h4.3v-7.84zM122.57 37v.21c0 1.58.59 3.26 2.83 3.26a4.22 4.22 0 0 0 2.85-1.13l1 1.52a6.19 6.19 0 0 1-4.12 1.52c-3.24 0-5.28-2.33-5.28-6a6.25 6.25 0 0 1 1.43-4.48 4.36 4.36 0 0 1 3.51-1.54 4.43 4.43 0 0 1 3.15 1.18c1 .91 1.49 2.31 1.49 5V37zm2.2-4.82c-1.4 0-2.17 1.11-2.17 3h4.23c-.01-1.85-.83-2.96-2.07-2.96zM139.62 30.39v4.8h.88a1.43 1.43 0 0 0 1-.36 2 2 0 0 0 .43-1l.27-1.27a2.59 2.59 0 0 1 .68-1.38 2.28 2.28 0 0 1 1.54-.61l1.06-.09.45 1.7-.59.11a1.27 1.27 0 0 0-.63.29 1.41 1.41 0 0 0-.34.66l-.37 1.27a2 2 0 0 1-.54 1 2.1 2.1 0 0 1-1 .52 2.36 2.36 0 0 1 .86.5 3.41 3.41 0 0 1 .7 1.29l.48 1.43a1.83 1.83 0 0 0 .45.88 2.32 2.32 0 0 0 .93.41l.29.07-.45 1.7-.86-.07a3.17 3.17 0 0 1-2-.68 3 3 0 0 1-.7-1.52l-.27-1.36a2.39 2.39 0 0 0-.54-1.34 1.54 1.54 0 0 0-1.15-.34h-.59v5.07h-2.47V37h-.59a1.54 1.54 0 0 0-1.16.34 2.39 2.39 0 0 0-.54 1.34l-.27 1.36a3 3 0 0 1-.7 1.52 3.17 3.17 0 0 1-2 .68l-.86.07-.45-1.7.29-.07a2.32 2.32 0 0 0 .93-.41 1.84 1.84 0 0 0 .45-.88l.48-1.43a3.42 3.42 0 0 1 .7-1.29 2.36 2.36 0 0 1 .86-.5 2.1 2.1 0 0 1-1-.52 2 2 0 0 1-.54-1l-.41-1.31a1.41 1.41 0 0 0-.34-.66 1.28 1.28 0 0 0-.63-.29l-.59-.11.45-1.7 1.06.09a2.28 2.28 0 0 1 1.54.61 2.59 2.59 0 0 1 .68 1.38l.27 1.27a2 2 0 0 0 .43 1 1.43 1.43 0 0 0 1 .36h.88v-4.29zM150.62 42.12h-2.47V30.86l2.47-.48v4.72h3.87v-4.24l2.47-.48v11.74h-2.47V37h-3.87zM164.72 42.41c-3.1 0-5-2.33-5-6s2-6 5-6c3.26 0 5.12 2.42 5.12 6s-2.02 6-5.12 6zm0-10.19c-1.56 0-2.24 1.2-2.24 4 0 3.38.84 4.35 2.31 4.35s2.29-1.2 2.29-4.12c-.08-3.26-.95-4.23-2.4-4.23zM174 42.46a1.82 1.82 0 0 1-1.79-1.86 1.75 1.75 0 0 1 1.74-1.79 1.8 1.8 0 0 1 1.81 1.79 1.83 1.83 0 0 1-1.76 1.86zM191.94 42.12v-7.25h-5.34v7.25H184V26.45h2.6v6.3h5.34v-6.3h2.6v15.67zM205.88 42.59a2.69 2.69 0 0 1-1.56-1.54 3.85 3.85 0 0 1-3.15 1.36c-2.63 0-3.8-1.4-3.8-3.4 0-2.65 2-4 5.66-4h.77v-.61c0-1.31-.23-2-1.58-2a6.93 6.93 0 0 0-3.42 1.31l-1.11-1.79a8.59 8.59 0 0 1 4.87-1.56c1.79 0 3 .66 3.49 1.9a7.9 7.9 0 0 1 .18 2.81v3.28c0 1.54.11 2 1 2.65zm-2.58-5.89c-2.49 0-3.24.72-3.24 2.17a1.52 1.52 0 0 0 1.58 1.72 2.54 2.54 0 0 0 2.06-1.15v-2.72zM214.46 30.66a4.09 4.09 0 0 1 3 .91 2.73 2.73 0 0 1 .75 2 2.43 2.43 0 0 1-.63 1.77 2.65 2.65 0 0 1-1.13.72 2.87 2.87 0 0 1 1.49.77 2.64 2.64 0 0 1 .77 2 3.12 3.12 0 0 1-.93 2.38 4.24 4.24 0 0 1-2.92.93h-5.12V30.66zm-2.29 4.69h1.61a2.24 2.24 0 0 0 1.52-.45 1.39 1.39 0 0 0 .41-1.06 1.47 1.47 0 0 0-.43-1.13 2.06 2.06 0 0 0-1.4-.36h-1.7zm0 5.09H214a2.54 2.54 0 0 0 1.63-.45 1.47 1.47 0 0 0 .45-1.2 1.74 1.74 0 0 0-.59-1.47A2.56 2.56 0 0 0 214 37h-1.81zM225.92 42.41c-3.12 0-4.87-2.2-4.87-5.89 0-4.17 2.49-6.16 5-6.16a4.17 4.17 0 0 1 3.17 1.25L228 33.26a2.81 2.81 0 0 0-1.92-.88 2 2 0 0 0-1.81 1.15 7.74 7.74 0 0 0-.48 3.19 4.61 4.61 0 0 0 .77 3.13 2 2 0 0 0 1.52.66 3.3 3.3 0 0 0 2.31-1.13l1.18 1.52a4.77 4.77 0 0 1-3.65 1.51zM234.13 37v.21c0 1.58.59 3.26 2.83 3.26a4.22 4.22 0 0 0 2.85-1.13l1 1.52a6.19 6.19 0 0 1-4.12 1.52c-3.24 0-5.28-2.33-5.28-6a6.25 6.25 0 0 1 1.43-4.48 4.36 4.36 0 0 1 3.51-1.54 4.42 4.42 0 0 1 3.15 1.18c1 .91 1.5 2.31 1.5 5V37zm2.2-4.82c-1.4 0-2.17 1.11-2.17 3h4.23c0-1.85-.81-2.96-2.06-2.96zM246 42.12h-2.47V30.66h7.16l-.29 1.86H246zM261.62 45.35h-2.31v-3.23h-6.68v3.24h-2.31v-5h.88a15.37 15.37 0 0 0 1.5-3.83 19 19 0 0 0 .48-4.14v-1.68h7v9.65h1.43zm-6.45-12.88v1.06a19.58 19.58 0 0 1-.48 3.6 15.7 15.7 0 0 1-1.22 3.17h4.3v-7.83zM271.6 42.59a2.69 2.69 0 0 1-1.6-1.54 3.85 3.85 0 0 1-3.15 1.36c-2.63 0-3.8-1.4-3.8-3.4 0-2.65 2-4 5.66-4h.77v-.61c0-1.31-.23-2-1.58-2a6.93 6.93 0 0 0-3.42 1.31l-1.11-1.79a8.59 8.59 0 0 1 4.87-1.56c1.79 0 3 .66 3.49 1.9a7.9 7.9 0 0 1 .18 2.81v3.28c0 1.54.11 2 1 2.65zM269 36.7c-2.49 0-3.24.72-3.24 2.17a1.52 1.52 0 0 0 1.58 1.72 2.54 2.54 0 0 0 2.06-1.15v-2.72zM276.88 42.46a1.82 1.82 0 0 1-1.79-1.86 1.75 1.75 0 0 1 1.74-1.79 1.8 1.8 0 0 1 1.81 1.79 1.83 1.83 0 0 1-1.76 1.86zM85.07 67.55c-2.33 0-3.48-1.8-3.48-4.22 0-2.68 1.37-4.2 3.42-4.2 2.31 0 3.42 1.83 3.42 4.21 0 2.55-1.23 4.21-3.36 4.21zm0-7.38c-1.41 0-1.93 1.11-1.93 3.06 0 2.11.53 3.28 2 3.28 1.22 0 1.84-.9 1.84-3.1-.07-1.99-.48-3.24-1.98-3.24zM94 61.73a1.65 1.65 0 0 1 1.14-.43 1.71 1.71 0 0 1 1.41.7 3.72 3.72 0 0 1 .65 2.34 4.28 4.28 0 0 1-.6 2.44 1.79 1.79 0 0 1-1.54.8 1.52 1.52 0 0 1-1.06-.35v2.57h-1.26v-2.57a1.52 1.52 0 0 1-1.05.35 1.79 1.79 0 0 1-1.54-.8 4.28 4.28 0 0 1-.6-2.44A3.72 3.72 0 0 1 90.2 62a1.71 1.71 0 0 1 1.41-.7 1.65 1.65 0 0 1 1.14.43V59l1.29-.3zm-1.29 1a1.28 1.28 0 0 0-.85-.38.8.8 0 0 0-.69.35 2.85 2.85 0 0 0-.28 1.64 3.5 3.5 0 0 0 .26 1.8.84.84 0 0 0 .75.4 1.22 1.22 0 0 0 .82-.33zM94 66.21a1.22 1.22 0 0 0 .82.33.84.84 0 0 0 .75-.4 3.5 3.5 0 0 0 .26-1.8 2.85 2.85 0 0 0-.28-1.64.8.8 0 0 0-.69-.35 1.28 1.28 0 0 0-.85.38zM98.64 61.54l1.29-.25v4.48a9.35 9.35 0 0 1 .64-1.4l1.6-2.85 1.35-.24v6.14h-1.32v-2.71c0-.58 0-1 .06-1.55a9.37 9.37 0 0 1-.6 1.32L100 67.43h-1.36zM109.7 61.3v5.16h.75v2.66h-1.21v-1.69h-4v-5.88l1.29-.25v5.16h1.86v-4.91zM111.63 61.54l1.29-.25v4.48a9.35 9.35 0 0 1 .64-1.4l1.6-2.85 1.35-.24v6.14h-1.29v-2.71c0-.58 0-1 .06-1.55a9.37 9.37 0 0 1-.6 1.32L113 67.43h-1.35zM122.34 67.68a1.4 1.4 0 0 1-.82-.8 2 2 0 0 1-1.64.71c-1.37 0-2-.73-2-1.77 0-1.38 1-2.08 3-2.08h.4v-.32c0-.69-.12-1.05-.83-1.05a3.62 3.62 0 0 0-1.79.69l-.58-.93a4.49 4.49 0 0 1 2.54-.82 1.76 1.76 0 0 1 1.82 1 4.13 4.13 0 0 1 .09 1.47v1.71c0 .8.06 1.06.52 1.38zM121 64.6c-1.3 0-1.69.38-1.69 1.13a.79.79 0 0 0 .83.9 1.33 1.33 0 0 0 1.08-.6v-1.42zM128.94 61.45v6h-1.29v-5h-1.35v.65c0 .35-.06.85-.11 1.38 0 .36-.11 1.1-.18 1.53a1.89 1.89 0 0 1-.46 1.09 2 2 0 0 1-1.24.45h-.32l-.26-.89.26-.06a1.38 1.38 0 0 0 .58-.31 3.07 3.07 0 0 0 .44-1.77c.08-.79.11-1.22.15-2l.07-1.12zM132 61.3v2.35h.86a2.5 2.5 0 0 1 1.86.58 1.86 1.86 0 0 1 .48 1.34 1.82 1.82 0 0 1-.46 1.31 2.36 2.36 0 0 1-1.77.54h-2.26v-5.87zm0 5.2h.75a1.18 1.18 0 0 0 .85-.26 1 1 0 0 0 .24-.69 1 1 0 0 0-.25-.72 1.23 1.23 0 0 0-.88-.26H132zM137.8 67.43h-1.29v-5.88l1.29-.25v2.46h2v-2.21l1.29-.25v6.13h-1.29v-2.7h-2zM144.17 61.3v2.35h.83a2.5 2.5 0 0 1 1.86.58 1.86 1.86 0 0 1 .48 1.34 1.82 1.82 0 0 1-.46 1.31 2.36 2.36 0 0 1-1.77.54h-2.21v-5.87zm0 5.2h.67a1.22 1.22 0 0 0 .88-.26.9.9 0 0 0 .24-.67 1 1 0 0 0-.27-.76 1.22 1.22 0 0 0-.84-.24h-.67zm5.36-5.2v6.13h-1.29v-5.88zM151.3 61.54l1.29-.25v4.48a9.35 9.35 0 0 1 .64-1.4l1.6-2.85 1.35-.24v6.14h-1.29v-2.71c0-.58 0-1 .06-1.55a9.27 9.27 0 0 1-.6 1.32l-1.64 2.94h-1.41zm4.3-2a2 2 0 0 1-3.78 0l.65-.37c.06.08.15.21.25.32a1.3 1.3 0 0 0 1 .39 1.22 1.22 0 0 0 1-.39c.09-.11.19-.24.25-.32zM160.59 67.43v-6h4.49v6h-1.29v-5h-1.92v5zM170.95 67.68a1.4 1.4 0 0 1-.82-.8 2 2 0 0 1-1.64.71c-1.37 0-2-.73-2-1.77 0-1.38 1-2.08 3-2.08h.4v-.32c0-.69-.12-1.05-.83-1.05a3.62 3.62 0 0 0-1.79.69l-.58-.93a4.49 4.49 0 0 1 2.54-.82 1.76 1.76 0 0 1 1.82 1 4.14 4.14 0 0 1 .09 1.47v1.71c0 .8.06 1.06.52 1.38zm-1.35-3.08c-1.3 0-1.69.38-1.69 1.13a.79.79 0 0 0 .83.9 1.33 1.33 0 0 0 1.08-.6v-1.42zM174.08 61.29a3.12 3.12 0 0 1 .09.71 2.07 2.07 0 0 1 1.6-.71 2 2 0 0 1 1.46.58 3.35 3.35 0 0 1 .8 2.5 3.59 3.59 0 0 1-.86 2.64 2.14 2.14 0 0 1-1.54.58 2.27 2.27 0 0 1-1.41-.5v2.57L173 70v-7a6.93 6.93 0 0 0-.12-1.49zm.18 4.66a1.73 1.73 0 0 0 1.19.53.91.91 0 0 0 .66-.25 2.44 2.44 0 0 0 .52-1.8 2.62 2.62 0 0 0-.41-1.77.86.86 0 0 0-.67-.27 1.81 1.81 0 0 0-1.29.62zM181.4 67.43h-1.29v-5h-1.61v-1h4.61l-.17 1h-1.54zM185.23 67.43h-1.29v-5.88l1.29-.25v2.46h2v-2.21l1.29-.25v6.13h-1.29v-2.7h-2zM191.45 64.78v.11c0 .83.31 1.7 1.48 1.7a2.21 2.21 0 0 0 1.49-.59l.51.79a3.23 3.23 0 0 1-2.15.79c-1.69 0-2.76-1.22-2.76-3.15a3.27 3.27 0 0 1 .75-2.34 2.28 2.28 0 0 1 1.83-.8 2.31 2.31 0 0 1 1.64.62 3.25 3.25 0 0 1 .78 2.6v.27zm1.15-2.52c-.73 0-1.13.58-1.13 1.55h2.21c-.01-.97-.43-1.55-1.08-1.55zM197.52 61.29a3.12 3.12 0 0 1 .09.71 2.07 2.07 0 0 1 1.6-.71 2 2 0 0 1 1.46.58 3.35 3.35 0 0 1 .8 2.5 3.59 3.59 0 0 1-.87 2.63 2.14 2.14 0 0 1-1.54.58 2.27 2.27 0 0 1-1.41-.5v2.57l-1.25.32V63a6.93 6.93 0 0 0-.12-1.49zm.18 4.71a1.73 1.73 0 0 0 1.19.53.91.91 0 0 0 .66-.25 2.44 2.44 0 0 0 .52-1.8 2.61 2.61 0 0 0-.41-1.77.86.86 0 0 0-.67-.27 1.81 1.81 0 0 0-1.29.62z"/></svg>
