<svg id="Layer_1" data-name="Layer 1" xmlns="http://www.w3.org/2000/svg" width="86px" height="86px" viewBox="0 0 86 86"><defs><style>.cls-1{fill:#f1f1f1;}.cls-2{fill:#ff1a46;}.cls-3{fill:#8d8d8d;}</style></defs><title>icon-antip-2</title><rect class="cls-1" width="86" height="86"/><path class="cls-2" d="M36.6,46.2a6.89,6.89,0,0,0,.3.8.66.66,0,0,0,.8.5.72.72,0,0,0,.5-.9,10.41,10.41,0,0,0-2.3-4.4,6,6,0,0,0-7.4-.8l-.2.1-.2.5a2.48,2.48,0,0,0-.1.9,4.72,4.72,0,0,0,4.9,4.6A4.37,4.37,0,0,0,36.6,46.2ZM29.5,43a.9.9,0,0,1,.1-.5,6,6,0,0,1,1.6-.5,2.31,2.31,0,1,0,4,1.6v-.1a5,5,0,0,1,.8,1.2l-.2.4A3.63,3.63,0,0,1,33,46.3,3.38,3.38,0,0,1,29.5,43Z"/><path class="cls-2" d="M57.6,41.6l-.2-.1a6,6,0,0,0-7.4.8,8.57,8.57,0,0,0-2,4.4.64.64,0,0,0,.6.8.76.76,0,0,0,.8-.6c0-.2.1-.4.1-.6A5.2,5.2,0,0,0,53,47.6,4.79,4.79,0,0,0,57.9,43c0-.4-.1-.6-.1-.9ZM53,46.3a3.63,3.63,0,0,1-2.8-1.2l-.2-.3a5.67,5.67,0,0,1,.8-1.3v.2a2.3,2.3,0,1,0,4-1.6,5.27,5.27,0,0,1,1.5.5.9.9,0,0,1,.1.5A3.27,3.27,0,0,1,53,46.3Z"/><path class="cls-2" d="M54.6,55.7h0a.89.89,0,0,0-.8.5c-.4,1.2-1.7,3.8-6.2,3.3a4.66,4.66,0,0,1-3.9-2.8c0-.1-.1-.2-.1-.3V55a.22.22,0,0,0,.2-.2l.9-1.6.1-.1,1.1-.4.1-.1a2.26,2.26,0,0,0,.2-2.1,1.13,1.13,0,0,0-1-.8l-1.7.3h-.8l-1.6-.2H41c-.5,0-.9.4-1.2,1s-.4,1.4.1,1.9l.1.1,1,.4h.1c.1,0,.1,0,.1.1l.8,1.4.1.2c.1.1.2.1.3.2v1.6a4.85,4.85,0,0,1-3.9,2.8c-4.5.5-5.8-2.1-6.2-3.3a.75.75,0,0,0-.7-.5h0a.78.78,0,0,0-.6.9A6.25,6.25,0,0,0,37.4,61a6.15,6.15,0,0,0,1.3-.1,6.31,6.31,0,0,0,4.5-2.6,5.72,5.72,0,0,0,4.5,2.6A6.15,6.15,0,0,0,49,61c4.5,0,5.9-2.9,6.4-4.4A1.06,1.06,0,0,0,54.6,55.7Zm-11-3.1-.4.7h-.3l-.4-.7a1.76,1.76,0,0,0-1-.9H41c0-.1.1-.3.1-.4l1.4.2a2.44,2.44,0,0,0,1.2,0l1.4-.2v.4l-.5.2A1.53,1.53,0,0,0,43.6,52.6Z"/><path class="cls-2" d="M61.2,34.2a.9.9,0,0,0,.5-.1c.5-.3.8-1,.7-2.3v-.1c0-.7,0-2.5-.2-4.7a2.77,2.77,0,0,0-.1-.9c-.1-1.8-.2-3.3-1.2-3.7s-1.6.5-1.9.7a33.27,33.27,0,0,0-3.6,4.6c-.3.5-.7,1.1-1,1.6a1.18,1.18,0,0,0-.1,1,1.34,1.34,0,0,0,.7.8h0c.7.4,1.4.9,1.4.9l.3.2L58,32l.5,1.1,2.2,1A.75.75,0,0,0,61.2,34.2Zm-2.3-3.9-1.9.5a3.49,3.49,0,0,0-.9-.6.38.38,0,0,1-.1-.6c.2-.3.5-.7.7-1a25.64,25.64,0,0,1,3.4-4.4c.2-.2.3-.3.4-.3a8.26,8.26,0,0,1,.3,2.4,2.77,2.77,0,0,0,.1.9c.1,2.1.1,3.8.1,4.5v1l-1.4-.6Z"/><path class="cls-2" d="M29.8,32.4l.3-.2s.7-.5,1.4-.9a1.78,1.78,0,0,0,.7-.8,1.73,1.73,0,0,0-.1-1c-.3-.4-.7-1.1-1-1.6a33.27,33.27,0,0,0-3.6-4.6c-.3-.3-1.1-1.1-1.9-.7-1,.4-1.1,1.9-1.2,3.7a2.77,2.77,0,0,1-.1.9c-.2,2.2-.2,3.9-.2,4.7,0,1.3.2,2,.7,2.3a1.3,1.3,0,0,0,1,0l2.2-1,.5-1.1Zm-2.2-2.1-.7,1.8-1.4.6c0-.2-.1-.5-.1-.9,0-.7,0-2.4.2-4.6a2.77,2.77,0,0,1,.1-.9,8.26,8.26,0,0,1,.3-2.4,1.38,1.38,0,0,0,.4.3,25.64,25.64,0,0,1,3.4,4.4,5.58,5.58,0,0,1,.5.8.78.78,0,0,1-.2,1,5.92,5.92,0,0,0-.6.4Z"/><path class="cls-2" d="M69.8,43.8a19.07,19.07,0,0,0-4.6-9.5v-.2A40.32,40.32,0,0,0,64,22c-.3-1.1-.8-2.4-1.9-2.7s-2.6.5-4.8,2.4a38.39,38.39,0,0,0-4.4,4.7A37.85,37.85,0,0,0,43.2,25a40,40,0,0,0-9.9,1.5,32.85,32.85,0,0,0-4.5-4.7c-2.2-1.9-3.6-2.8-4.8-2.4s-1.6,1.6-1.9,2.7a40.15,40.15,0,0,0-1.2,11.6.55.55,0,0,1-.2.5,21.56,21.56,0,0,0-4.6,9.7c-1.4,7.1.5,13.1,5.5,17.4a20.76,20.76,0,0,0,9.7,4.4,21.05,21.05,0,0,0,2.5.2,35.29,35.29,0,0,0,3.6-.2c.1,0,.2-.1.3-.1a9.76,9.76,0,0,0,10.4,0c.1.1.2.1.4.2a32.08,32.08,0,0,0,3.6.2,10.15,10.15,0,0,0,2.5-.2,20.76,20.76,0,0,0,9.7-4.4C69.3,56.9,71.2,50.9,69.8,43.8ZM63.4,60.1a18.58,18.58,0,0,1-9,4,20.08,20.08,0,0,1-4.9,0,.62.62,0,0,0-.2-.7h-.1a.52.52,0,0,0-.8.1,8,8,0,0,1-5.3,2,7.17,7.17,0,0,1-5.4-2,.63.63,0,0,0-.9,0l-.1.1a.62.62,0,0,0-.2.7,26.73,26.73,0,0,1-4.9,0c-2.5-.5-6.2-1.5-9-4-4.6-4-6.3-9.4-5-16.1a20.84,20.84,0,0,1,4.5-9.3l.3-.6v-.2a41.2,41.2,0,0,1,1.1-11.6c.4-1.3.7-1.7,1-1.8.7-.2,2.6,1.4,3.5,2.1a50.4,50.4,0,0,1,5.9,6.6.78.78,0,0,0,1,.2h0a.78.78,0,0,0,.2-1,9.68,9.68,0,0,1-.7-.9,38.5,38.5,0,0,1,8.9-1.3A38.37,38.37,0,0,1,52,27.6a9.68,9.68,0,0,1-.7.9.68.68,0,0,0,.2,1h0a.7.7,0,0,0,1-.2,50.4,50.4,0,0,1,5.9-6.6c.9-.8,2.7-2.3,3.5-2.1.2.1.6.4,1,1.8A37.82,37.82,0,0,1,64,34l-.1.8.1.2a17.44,17.44,0,0,1,4.4,9C69.7,50.7,68,56.1,63.4,60.1Z"/><path class="cls-3" d="M46.8,37.1h0a.59.59,0,0,0,.9-.3l.3-.6a.59.59,0,0,0-.3-.9h0a.59.59,0,0,0-.9.3l-.3.6A.69.69,0,0,0,46.8,37.1Z"/><path class="cls-3" d="M43,36.8a.68.68,0,0,0,.7-.7v-.6a.7.7,0,0,0-1.4,0v.6A.68.68,0,0,0,43,36.8Z"/><path class="cls-3" d="M38.3,36.9a.69.69,0,0,0,.9.3h0a.69.69,0,0,0,.3-.9l-.3-.6a.69.69,0,0,0-.9-.3h0a.69.69,0,0,0-.3.9Z"/><path class="cls-3" d="M65.5,49l-1.8-.1a.68.68,0,0,0-.7.7h0a.68.68,0,0,0,.7.7l1.8.1a.68.68,0,0,0,.7-.7h0A.84.84,0,0,0,65.5,49Z"/><path class="cls-3" d="M65,52.9l-1.7-.5a.72.72,0,0,0-.9.5h0a.72.72,0,0,0,.5.9l1.7.5a.72.72,0,0,0,.9-.5A.68.68,0,0,0,65,52.9Z"/><path class="cls-3" d="M61.2,55.5a.72.72,0,1,0-.8,1.2l1.5,1a.72.72,0,1,0,.8-1.2Z"/><path class="cls-3" d="M22.4,50.5a.7.7,0,0,0,0-1.4l-1.8.1a.7.7,0,0,0,0,1.4Z"/><path class="cls-3" d="M23.6,53.1a.72.72,0,0,0-.9-.5l-1.7.5a.73.73,0,0,0,.4,1.4l1.7-.5A.81.81,0,0,0,23.6,53.1Z"/><path class="cls-3" d="M24.8,55.7l-1.5,1a.72.72,0,0,0,.8,1.2l1.5-1a.72.72,0,0,0-.8-1.2Z"/></svg>
