<svg xmlns="http://www.w3.org/2000/svg" width="52" height="52" viewBox="0 0 52 52"><defs><style>.cls-1{fill:#ff1a44;}.cls-2{fill:#a2a2a2;}</style></defs><title>icon-feat-1</title><path class="cls-1" d="M27.7 16.7l-4.5 7.6-5-8.8 2.8-4.7a.9.9 0 0 0 .1-.5c0-.2-.2-.3-.3-.4a.9.9 0 0 0-.5-.1c-.2 0-.3.2-.4.3l-2.4 4.1-2.3-4.1c-.1-.2-.2-.3-.4-.3a.9.9 0 0 0-.5.1.65.65 0 0 0-.2.9l2.3 4.1h-4.7a.67.67 0 0 0-.7.6.71.71 0 0 0 .3.6.37.37 0 0 0 .3.1h5.5l5 8.8-10.2-.1-2.7-4.8a.65.65 0 0 0-1.1.7l2.3 4.1h-4.7a.67.67 0 0 0-.7.6.71.71 0 0 0 .3.6.37.37 0 0 0 .3.1h4.7l-2.4 4a.65.65 0 0 0 1.1.7l2.8-4.7 10.2.1-5.2 8.8h-5.5c-.2 0-.3.1-.5.2a.76.76 0 0 0-.2.5.71.71 0 0 0 .3.6.37.37 0 0 0 .3.1h4.7l-2.4 4a.9.9 0 0 0-.1.5c0 .2.2.3.3.4a.9.9 0 0 0 .5.1c.2 0 .3-.2.4-.3l2.4-4 2.3 4.1c.1.1.1.2.2.2a.85.85 0 0 0 .7 0 .65.65 0 0 0 .2-.9l-2.7-4.7 5.2-8.8 1.5 2.7 1.1-.8-1.4-2.6h3.6v-1.3h-3.6l3.7-6.2zM27.6 11.5l-.8-1.4a.65.65 0 0 0-1.1.7l1.9 3.4zM37.9 12.2h5.9v1h-5.9zM37.9 15.5h2.9v1h-2.9zM37.9 18.7h5.9v1h-5.9zM37.9 22h2.9v1h-2.9zM37.9 25.2h5.9v1h-5.9zM34.6 27.2v-17a3.48 3.48 0 0 0-3.5-3.5 3.63 3.63 0 0 0-3.6 3.5v16.9a8.31 8.31 0 1 0 11.9 7.5 8.13 8.13 0 0 0-4.8-7.4zm-1.5 1.3a6.63 6.63 0 0 1 4.5 6.2 6.5 6.5 0 1 1-8.5-6.2l.3-.1v-18.2a1.7 1.7 0 1 1 3.4 0v18.2zM31.9 14.8a.82.82 0 1 0-1.6 0v14.8a5.1 5.1 0 1 0 1.6 0zm2.5 19.8a3.3 3.3 0 1 1-6.6 0 3.29 3.29 0 0 1 3.1-3.3h.4a3.36 3.36 0 0 1 3.1 3.3z"/><path class="cls-2" d="M51 51h-51v-51h51zm-50-1h49v-49h-49z"/></svg>