<svg id="Layer_1" data-name="Layer 1" xmlns="http://www.w3.org/2000/svg" width="90" viewBox="0 0 89.32 81.1"><defs><style>.cls-1{fill:#ff1a44;}</style></defs><title>icon-zamer</title><path class="cls-1" d="M11.3,23.2a1.09,1.09,0,0,0-1.5,0L.3,32.7a1,1,0,0,0-.3.8,1.33,1.33,0,0,0,.3.8L46.8,80.8a1,1,0,0,0,.8.3,1.14,1.14,0,0,0,.8-.3l9.5-9.5a1.09,1.09,0,0,0,0-1.5ZM47.5,78.6,44.9,76l2.5-2.5A1.06,1.06,0,0,0,45.9,72l-2.6,2.4-1.6-1.6,2.5-2.5a1.06,1.06,0,0,0-1.5-1.5l-2.5,2.5-1.8-1.8L40.9,67a1.06,1.06,0,0,0-1.5-1.5L36.9,68l-1.6-1.6,2.5-2.5a1.06,1.06,0,0,0-1.5-1.5l-2.7,2.3-1.4-1.5,2.5-2.5a1.06,1.06,0,0,0-1.5-1.5l-2.5,2.5-1.6-1.6,2.5-2.6A1.06,1.06,0,0,0,30.1,56l-2.6,2.5L25.9,57l2.5-2.5A1.06,1.06,0,0,0,26.9,53l-2.5,2.5-1.6-1.6,2.5-2.5a1.06,1.06,0,0,0-1.5-1.5l-2.5,2.5-1.6-1.6,2.5-2.5a1.06,1.06,0,0,0-1.5-1.5l-2.5,2.5-1.6-1.6,2.5-2.5a1.06,1.06,0,0,0-1.5-1.5l-2.4,2.6-1.6-1.6,2.5-2.5a1.06,1.06,0,0,0-1.5-1.5l-2.5,2.5-1.6-1.6L13,39.1a1.06,1.06,0,0,0-1.5-1.5L9,40.1,7.5,38.6,10,36.1a1.06,1.06,0,0,0-1.5-1.5L6,37.1l-3-3,8-8,45,45ZM69,15.2a7.19,7.19,0,0,0-10,0l-15.9,16L17.3,5.4l3.6-3.6a1.09,1.09,0,0,0,0-1.5,1.09,1.09,0,0,0-1.5,0L15,4.7a1.09,1.09,0,0,0,0,1.5L41.5,32.7l-.7.8a7.19,7.19,0,0,0,0,10L59.1,61.8A7.26,7.26,0,0,0,64,63.9a6.66,6.66,0,0,0,4.9-2.1L87.3,43.5a7.19,7.19,0,0,0,0-10ZM85.8,41.8,67.4,60.1a4.77,4.77,0,0,1-6.8,0L42.3,41.8a4.77,4.77,0,0,1,0-6.8l1.5-1.5L60.6,16.7A4.68,4.68,0,0,1,64,15.3a4.53,4.53,0,0,1,3.4,1.4L85.7,35A4.86,4.86,0,0,1,85.8,41.8Z"/><path class="cls-1" d="M64,26.6a11.64,11.64,0,0,0-8.4,3.5,12.06,12.06,0,0,0-3.5,8.4,11.64,11.64,0,0,0,3.5,8.4A12.06,12.06,0,0,0,64,50.4a11.64,11.64,0,0,0,8.4-3.5,12.06,12.06,0,0,0,3.5-8.4,11.64,11.64,0,0,0-3.5-8.4A11.48,11.48,0,0,0,64,26.6Zm6.8,18.7a9.55,9.55,0,1,1,3-6.9A10,10,0,0,1,70.8,45.3Z"/></svg>
