<svg id="Layer_1" data-name="Layer 1" xmlns="http://www.w3.org/2000/svg" width="100px" viewBox="0 0 64.54 65.68"><defs><style>.cls-1{fill:#fff;}.cls-2{fill:#ff1a44;}</style></defs><title>icon-banner</title><circle class="cls-1" cx="32.3" cy="32.84" r="23.67"/><path class="cls-2" d="M26.3,27.24a2.73,2.73,0,1,1-2.73-2.73,2.7,2.7,0,0,1,2.73,2.73Z"/><path class="cls-2" d="M43.76,38.44A2.73,2.73,0,1,1,41,35.71a2.66,2.66,0,0,1,2.73,2.73Z"/><path class="cls-2" d="M63.7,36.51l-1-1.33a4.31,4.31,0,0,1-.07-5l1-1.4a4.32,4.32,0,0,0-1.47-6.27l-1.47-.8a4.25,4.25,0,0,1-2.2-4.47l.27-1.67a4.32,4.32,0,0,0-4.07-5L53,10.51A4.29,4.29,0,0,1,49.1,7.44l-.47-1.6a4.31,4.31,0,0,0-5.8-2.73l-1.53.67a4.3,4.3,0,0,1-4.87-1.07L35.3,1.44a4.21,4.21,0,0,0-6.4.07L27.76,2.78A4.22,4.22,0,0,1,22.9,3.91l-1.53-.67a4.3,4.3,0,0,0-5.8,2.87l-.47,1.6a4.19,4.19,0,0,1-3.87,3.13H9.5a4.3,4.3,0,0,0-4,5.07l.33,1.67A4.35,4.35,0,0,1,3.7,22.11l-1.47.8a4.27,4.27,0,0,0-1.4,6.27l1,1.33a4.31,4.31,0,0,1,.07,5l-1,1.4a4.32,4.32,0,0,0,1.47,6.27l1.47.8A4.25,4.25,0,0,1,6,48.44l-.27,1.67a4.32,4.32,0,0,0,4.07,5l1.67.07a4.29,4.29,0,0,1,3.93,3.07l.47,1.6a4.31,4.31,0,0,0,5.8,2.73l1.53-.67A4.3,4.3,0,0,1,28.1,63l1.13,1.27a4.21,4.21,0,0,0,6.4-.07L36.83,63a4.22,4.22,0,0,1,4.87-1.13l1.53.67A4.3,4.3,0,0,0,49,59.71l.47-1.6A4.19,4.19,0,0,1,53.36,55L55,54.91a4.3,4.3,0,0,0,4-5.07l-.33-1.67a4.35,4.35,0,0,1,2.13-4.53l1.47-.8a4.3,4.3,0,0,0,1.4-6.33ZM16.9,27.24a6.67,6.67,0,1,1,6.67,6.67,6.69,6.69,0,0,1-6.67-6.67Zm7.93,17.13a1.61,1.61,0,1,1-2.47-2.07l17.4-21a1.61,1.61,0,0,1,2.47,2.07ZM41,45a6.67,6.67,0,1,1,6.67-6.67A6.69,6.69,0,0,1,41,45Z"/></svg>
