<svg id="Layer_1" data-name="Layer 1" xmlns="http://www.w3.org/2000/svg" width="52" height="52" viewBox="0 0 52 52"><defs><style>.cls-1{fill:none;stroke:#9e9e9e;}.cls-1,.cls-2{stroke-miterlimit:10;}.cls-2{fill:#ff1a46;stroke:#ff1a46;stroke-width:0.5px;}</style></defs><title>icon-feat-8</title><rect class="cls-1" x="0.5" y="0.5" width="50" height="50"/><path class="cls-2" d="M25.8,41.4H26a3.6,3.6,0,1,0,0-7.2,2.26,2.26,0,0,1-2.3-2.3,2,2,0,0,1,.4-1.3,2.5,2.5,0,0,1,2.5-.9h.1a2.72,2.72,0,0,1,1.9,1.7,4.27,4.27,0,0,0,4,2.6,8.77,8.77,0,0,0,8.8-8.6v-.2h0a15.9,15.9,0,0,0-31.8-.1,15.62,15.62,0,0,0,4.5,11.3A16.27,16.27,0,0,0,25.8,41.4Zm-.3-30.9a15,15,0,0,1,15,14.9,7.94,7.94,0,0,1-8,7.9,3.49,3.49,0,0,1-3.2-2.1,3.8,3.8,0,0,0-2.5-2.3h-.1a3.31,3.31,0,0,0-3.4,1.2,2.73,2.73,0,0,0-.5,1.8A3.12,3.12,0,0,0,25.9,35a2.8,2.8,0,1,1,0,5.6h-.2a15.2,15.2,0,0,1-11-4.7,14.88,14.88,0,0,1-4.3-10.7A15.2,15.2,0,0,1,25.5,10.5Z"/><path class="cls-2" d="M26.3,18.5A2.5,2.5,0,1,0,23.8,16,2.48,2.48,0,0,0,26.3,18.5Zm0-4.1A1.6,1.6,0,1,1,24.7,16,1.58,1.58,0,0,1,26.3,14.4Z"/><path class="cls-2" d="M18.9,21.8A2.9,2.9,0,1,0,16,18.9,2.9,2.9,0,0,0,18.9,21.8Zm0-5a2.1,2.1,0,1,1-2.1,2.1A2.11,2.11,0,0,1,18.9,16.8Z"/><path class="cls-2" d="M20.1,27.1a3.3,3.3,0,1,0-3.3,3.3A3.27,3.27,0,0,0,20.1,27.1Zm-5.7,0a2.5,2.5,0,1,1,2.5,2.5A2.48,2.48,0,0,1,14.4,27.1Z"/><path class="cls-2" d="M32.5,21a2.1,2.1,0,1,0-2.1-2.1A2.05,2.05,0,0,0,32.5,21Zm0-3.3a1.2,1.2,0,1,1-1.2,1.2A1.16,1.16,0,0,1,32.5,17.7Z"/></svg>
