<svg xmlns="http://www.w3.org/2000/svg" width="100" viewBox="0 0 64.54 65.68"><defs><style>.cls-1{fill:#fff;}.cls-2{fill:#ff1a44;}</style></defs><title>icon-banner</title><circle class="cls-1" cx="32.3" cy="32.84" r="23.67"/><path class="cls-2" d="M26.3 27.24a2.73 2.73 0 1 1-2.73-2.73 2.7 2.7 0 0 1 2.73 2.73zM43.76 38.44a2.73 2.73 0 1 1-2.76-2.73 2.66 2.66 0 0 1 2.73 2.73zM63.7 36.51l-1-1.33a4.31 4.31 0 0 1-.07-5l1-1.4a4.32 4.32 0 0 0-1.47-6.27l-1.47-.8a4.25 4.25 0 0 1-2.2-4.47l.27-1.67a4.32 4.32 0 0 0-4.07-5l-1.69-.06a4.29 4.29 0 0 1-3.9-3.07l-.47-1.6a4.31 4.31 0 0 0-5.8-2.73l-1.53.67a4.3 4.3 0 0 1-4.87-1.07l-1.13-1.27a4.21 4.21 0 0 0-6.4.07l-1.14 1.27a4.22 4.22 0 0 1-4.86 1.13l-1.53-.67a4.3 4.3 0 0 0-5.8 2.87l-.47 1.6a4.19 4.19 0 0 1-3.87 3.13h-1.73a4.3 4.3 0 0 0-4 5.07l.33 1.67a4.35 4.35 0 0 1-2.13 4.53l-1.47.8a4.27 4.27 0 0 0-1.4 6.27l1 1.33a4.31 4.31 0 0 1 .07 5l-1 1.4a4.32 4.32 0 0 0 1.47 6.27l1.47.8a4.25 4.25 0 0 1 2.16 4.46l-.27 1.67a4.32 4.32 0 0 0 4.07 5l1.67.07a4.29 4.29 0 0 1 3.93 3.07l.47 1.6a4.31 4.31 0 0 0 5.8 2.73l1.53-.67a4.3 4.3 0 0 1 4.9 1.09l1.13 1.27a4.21 4.21 0 0 0 6.4-.07l1.2-1.2a4.22 4.22 0 0 1 4.87-1.13l1.53.67a4.3 4.3 0 0 0 5.77-2.83l.47-1.6a4.19 4.19 0 0 1 3.89-3.11l1.64-.09a4.3 4.3 0 0 0 4-5.07l-.33-1.67a4.35 4.35 0 0 1 2.13-4.53l1.47-.8a4.3 4.3 0 0 0 1.4-6.33zm-46.8-9.27a6.67 6.67 0 1 1 6.67 6.67 6.69 6.69 0 0 1-6.67-6.67zm7.93 17.13a1.61 1.61 0 1 1-2.47-2.07l17.4-21a1.61 1.61 0 0 1 2.47 2.07zm16.17.63a6.67 6.67 0 1 1 6.67-6.67 6.69 6.69 0 0 1-6.67 6.67z"/></svg>