<?xml version="1.0" encoding="utf-8"?>
<!-- Generator: Adobe Illustrator 21.0.2, SVG Export Plug-In . SVG Version: 6.00 Build 0)  -->
<svg version="1.1" id="Layer_1" xmlns="http://www.w3.org/2000/svg" xmlns:xlink="http://www.w3.org/1999/xlink" x="0px" y="0px"
	 viewBox="0 0 153 147" style="enable-background:new 0 0 153 147;" xml:space="preserve">
<style type="text/css">
	.st0{fill:#FFFFFF;stroke:#FFFFFF;stroke-miterlimit:10;}
</style>
<path class="st0" d="M102.3,74.5L76.8,49c-0.1-0.1-0.1-0.1-0.2-0.1c-0.1-0.1-0.3,0-0.4,0.1L50.8,74.5c-0.2,0.2-0.2,0.4,0,0.6
	l3.2,3.2c0.1,0.1,0.2,0.1,0.3,0.1c0.1,0,0.2-0.1,0.3-0.1l4.2-4.2v20.1h-1.6l0,0c-0.1,0-0.2,0.1-0.3,0.1s-0.1,0.2-0.1,0.3v3.2
	c0,0.2,0.2,0.4,0.4,0.4h38.5c0.2,0,0.4-0.2,0.4-0.4v-3.1c0-0.2-0.2-0.4-0.4-0.4h-1.4V74.1l4.2,4.2c0.2,0.2,0.4,0.2,0.6,0l3.2-3.2
	C102.4,74.9,102.4,74.7,102.3,74.5z M95.2,97.4H57.5V95l37.6,0.1V97.4z M93.4,94.1H75.5c-0.1,0-0.1,0-0.1,0H63.7h-0.1h-4.1V73.3
	l16.9-16.9l16.9,16.9V94.1z M98.7,77.4L76.8,55.5c-0.1-0.1-0.2-0.1-0.3-0.1s-0.2,0.1-0.3,0.1l-22,21.9l-2.6-2.6l24.9-24.9l24.9,24.9
	L98.7,77.4z M58.7,63.9v-8.3c0-0.2,0.2-0.4,0.4-0.4h4.1c0.2,0,0.4,0.2,0.4,0.4v4c0,0.2-0.2,0.4-0.4,0.4c-0.2,0-0.4-0.2-0.4-0.4v-3.6
	h-3.3v7.9c0,0.2-0.2,0.4-0.4,0.4S58.7,64,58.7,63.9z M73.1,78.8c1.6,0,2.9-1.4,2.9-3.2c0-1.7-1.3-3.2-2.9-3.2
	c-1.6,0-2.9,1.4-2.9,3.2C70.2,77.4,71.5,78.8,73.1,78.8z M73.1,73.3c1.1,0,2.1,1,2.1,2.3c0,1.3-0.9,2.3-2.1,2.3
	c-1.1,0-2.1-1-2.1-2.3C71,74.4,71.9,73.3,73.1,73.3z M80.3,81.6c-1.6,0-2.9,1.4-2.9,3.2c0,1.7,1.3,3.2,2.9,3.2
	c1.6,0,2.9-1.4,2.9-3.2C83.2,82.9,81.8,81.6,80.3,81.6z M80.3,87c-1.1,0-2.1-1-2.1-2.3s0.9-2.3,2.1-2.3c1.1,0,2.1,1,2.1,2.3
	C82.3,86,81.4,87,80.3,87z M70.9,87l11-15.1c0.1-0.2,0.4-0.2,0.6-0.1c0.2,0.1,0.2,0.4,0.1,0.6l-11,15.2c-0.1,0.1-0.2,0.2-0.3,0.2
	c-0.1,0-0.2,0-0.2-0.1C70.9,87.5,70.8,87.2,70.9,87z"/>
</svg>
