<svg id="Layer_1" data-name="Layer 1" xmlns="http://www.w3.org/2000/svg" width="52px" height="52px" viewBox="0 0 51 51"><defs><style>.cls-1{fill:#a2a2a2;}.cls-2{fill:#ff1a46;}.cls-3{fill:none;}</style></defs><title>icon-cw-2</title><path class="cls-1" d="M51,51H0V0H51ZM1,50H50V1H1Z"/><path class="cls-2" d="M40.1,12.1a1.1,1.1,0,0,0-.8,0A9.72,9.72,0,0,1,26.1,9.7a.75.75,0,0,0-1.2,0,10,10,0,0,1-7.9,4,9.18,9.18,0,0,1-5.3-1.6.76.76,0,0,0-.8,0,.82.82,0,0,0-.4.6c-1.2,11.8,2.9,19,6.5,23a23,23,0,0,0,8.3,5.9h.6a23,23,0,0,0,8.3-5.9c3.6-4,7.7-11.2,6.5-23C40.5,12.4,40.4,12.2,40.1,12.1ZM32.9,34.6A21.42,21.42,0,0,1,25.5,40a21.42,21.42,0,0,1-7.4-5.4c-4.7-5.1-6.8-12.2-6.2-20.6a11.42,11.42,0,0,0,13.6-2.6A11.09,11.09,0,0,0,34,15.2,11.25,11.25,0,0,0,39.1,14C39.7,22.5,37.6,29.4,32.9,34.6Z"/><line class="cls-3" x1="25.5" y1="10.5" x2="25.5" y2="40.6"/><rect class="cls-2" x="24.8" y="10.5" width="1.5" height="30.1"/></svg>