<svg id="Слой_1" data-name="Слой 1" xmlns="http://www.w3.org/2000/svg" width="52px" height="52px" viewBox="0 0 60.58 60.58"><defs><style>.cls-1,.cls-2{fill:none;}.cls-1{stroke:#a2a2a2;stroke-miterlimit:10;stroke-width:1.19px;}.cls-2{stroke:#ff1a46;stroke-linecap:round;stroke-linejoin:round;stroke-width:2.38px;}</style></defs><title>icon-pod-2</title><rect class="cls-1" x="0.59" y="0.59" width="59.39" height="59.39"/><path class="cls-2" d="M10.17,32.15V29.21c0-9.72,9-17.56,20.12-17.56s20.12,7.84,20.12,17.56v2.94"/><path class="cls-2" d="M20.42,32.15V29.21c0-9,3.54-15.07,9.87-17.56"/><path class="cls-2" d="M40.16,32.15V29.21c0-9-3.54-15.07-9.87-17.56"/><line class="cls-2" x1="30.29" y1="32.15" x2="30.29" y2="17.46"/><line class="cls-2" x1="30.29" y1="11.65" x2="30.29" y2="7.88"/><path class="cls-2" d="M10.17,32.15A5.08,5.08,0,0,1,15.29,27h0a5.08,5.08,0,0,1,5.12,5.12"/><path class="cls-2" d="M40.16,32.15A5.08,5.08,0,0,1,45.29,27h0a5.08,5.08,0,0,1,5.12,5.12"/><path class="cls-2" d="M20.42,32.15a5,5,0,0,1,5-5.12h0a5.05,5.05,0,0,1,5,5.12"/><path class="cls-2" d="M30.29,32.15a5,5,0,0,1,5-5.12h0a5.05,5.05,0,0,1,5,5.12"/><path class="cls-2" d="M36.77,46.3v1.36a3.22,3.22,0,0,1-3.24,3.24h0a3.22,3.22,0,0,1-3.24-3.24v-12"/></svg>