<svg xmlns="http://www.w3.org/2000/svg" width="140" height="140" viewBox="0 0 138 138"><defs><style>.cls-1{fill:#fff;}.cls-2{fill:#ff1a44;stroke:#ff1a44;stroke-miterlimit:10;stroke-width:0.5px;}</style></defs><title>icon-advan-2</title><circle class="cls-1" cx="69" cy="69" r="69"/><path class="cls-2" d="M35.2 46a.6.6 0 0 0-1.2 0v10.1a.6.6 0 1 0 1.2 0zM34.7 58.8a.58.58 0 0 0-.6.6v3.2a.6.6 0 1 0 1.2 0v-3.2q-.15-.6-.6-.6zM46.3 48.1l-1.3-1.4a.64.64 0 0 0-.9.9l1.3 1.4a.5.5 0 0 0 .8 0 .64.64 0 0 0 .1-.9zM49.3 51.2a.64.64 0 0 0-.9.9l1.3 1.4a.5.5 0 0 0 .8 0 .75.75 0 0 0 0-.9zM45.5 51.2l-1.3 1.4a.75.75 0 0 0 0 .9.5.5 0 0 0 .8 0l1.3-1.4a.75.75 0 0 0 0-.9.61.61 0 0 0-.8 0zM50.7 46.7a.75.75 0 0 0-.9 0l-1.3 1.4a.75.75 0 0 0 0 .9.5.5 0 0 0 .8 0l1.3-1.4a.65.65 0 0 0 .1-.9zM100.6 50.3a.64.64 0 1 0-.9.9l1.3 1.4a.5.5 0 0 0 .8 0 .75.75 0 0 0 0-.9zM105.1 54.7a.64.64 0 0 0-.9.9l1.3 1.4a.5.5 0 0 0 .8 0 .75.75 0 0 0 0-.9zM101.2 54.7l-1.3 1.4a.75.75 0 0 0 0 .9.5.5 0 0 0 .8 0l1.3-1.4a.75.75 0 0 0 0-.9.6.6 0 0 0-.8 0zM105.5 50.3l-1.3 1.4a.75.75 0 0 0 0 .9.5.5 0 0 0 .8 0l1.3-1.4a.75.75 0 0 0 0-.9c-.1-.3-.5-.3-.8 0zM56.8 60.4c0 3.8 1.4 6.6 3.2 6.6h.2a22.78 22.78 0 0 0 5.8 9.4v6.2a.6.6 0 1 0 1.2 0v-5.3a14.63 14.63 0 0 0 8.8 3.2 13.82 13.82 0 0 0 8.8-3.2v5.3a.6.6 0 1 0 1.2 0v-6.3a21.21 21.21 0 0 0 5.8-9.4h.2c1.9 0 3.2-2.8 3.2-6.6 0-3.2-.9-5.7-2.4-6.4v-.2c.2-2.1.6-4.2.6-6.3.6-9.2-1.8-10.4-6.3-11.8-.3-.1-.7-.2-1.1-.3a31.54 31.54 0 0 0-10.1-1.5 34.42 34.42 0 0 0-10 1.5 4.51 4.51 0 0 1-1.1.3c-4.6 1.5-6.9 2.6-6.3 11.8.1 1.3.2 2.6.4 3.9-.1.2-.2.4 0 .6a.35.35 0 0 1 .1.2 9.85 9.85 0 0 1 .2 1.7v.2c-1.5.6-2.4 3.1-2.4 6.4zm37.3 0c0 3.1-1.1 5.4-2.1 5.4a.37.37 0 0 1-.3-.1.45.45 0 0 0-.5 0c-.2.1-.2.2-.3.4-2.4 8-8.3 13.2-14.9 13.2s-12.5-5.2-14.9-13.2a1.38 1.38 0 0 0-.3-.4.35.35 0 0 1-.2-.1c-.1 0-.2 0-.2.1-.2.1-.2.1-.3.1-.9 0-2.1-2.3-2.1-5.4s1-5.2 1.9-5.3a.82.82 0 0 0 .5-.5v-.2c0-.1.1-.2.1-.4 1.1 1.1 1.8 2.3 3.8 2.4l-.1.7a4.7 4.7 0 0 0 9.4.4c1.1-.6 3.7-.2 4.1 0a4.7 4.7 0 0 0 9.4-.4 1.7 1.7 0 0 0-.1-.7c2.4-.2 3.5-1.9 4.5-3.2a4.25 4.25 0 0 1 .2 1.1v.4a.82.82 0 0 0 .5.5c.8 0 1.9 2.1 1.9 5.2zm-23.9-14a2.48 2.48 0 0 1-.9-3.1c3.9 3.6 7.5 3.3 7.6 3.3s8.4-.1 11.4.2c1.3.2 2.4 2.5 2.9 4.6-.6.9-1.7 3.5-4.5 3.6a4.68 4.68 0 0 0-8.9 1.1 11.82 11.82 0 0 0-4.2 0 4.8 4.8 0 0 0-4.6-3.9 4.89 4.89 0 0 0-4.3 2.8c-2.1 0-2.8-1.5-3.8-2.6a15 15 0 0 1 2.1-4.9c.9-1.1 4.7-.6 6.8-.1a.67.67 0 0 0 .7-.3 1.33 1.33 0 0 0-.3-.7zm15.6 10.7a3.56 3.56 0 0 1-3.5 3.6 3.5 3.5 0 0 1-3.5-3.6 3.56 3.56 0 0 1 3.5-3.6 3.5 3.5 0 0 1 3.5 3.6zm-17-3.6a3.5 3.5 0 0 1 3.5 3.6 3.56 3.56 0 0 1-3.5 3.6 3.5 3.5 0 0 1-3.5-3.6 3.63 3.63 0 0 1 3.5-3.6zm-3.6-16.8l1.1-.3a32.36 32.36 0 0 1 9.7-1.5 29.48 29.48 0 0 1 9.7 1.5 6.15 6.15 0 0 0 1.1.3c4 1.3 6.1 1.9 5.5 10.6-.1 1.1-.2 2.1-.2 3.2-.6-2.2-1.8-4.5-3.7-4.7-3.1-.3-11.2-.3-11.6-.2 0 0-3.5.2-7.3-3.5a.55.55 0 0 0-.5-.2.52.52 0 0 0-.4.2 3.89 3.89 0 0 0-.4 4c-2-.3-5-.6-6.2.8a13.68 13.68 0 0 0-2 4.2c-.2-1.2-.2-2.5-.3-3.7-.6-8.8 1.5-9.4 5.5-10.7zM81.1 69.8c-5.3 4.9-10.7.2-11 0a.64.64 0 0 0-.8 1 11.19 11.19 0 0 0 6.5 2.5 8.63 8.63 0 0 0 6-2.5.94.94 0 0 0 .1-.9c-.2-.3-.6-.4-.8-.1zM78.3 75.3a7.25 7.25 0 0 1-5.4-.2.6.6 0 1 0-.5 1.1 8.16 8.16 0 0 0 3.4.6 7.17 7.17 0 0 0 2.9-.6.55.55 0 0 0 .3-.8c-.1 0-.4-.2-.7-.1zM126.9 68.2h-8v-3.6a.58.58 0 0 0-.6-.6h-10.7a.58.58 0 0 0-.6.6v3.6h-8a2.33 2.33 0 0 0-2.3 2.3v15.2a42.21 42.21 0 0 0-9.5-1c-.2 0-.4.2-.6.3a54.89 54.89 0 0 1-5.6 9.2l-1.1-5.2 1.8-3.2a.64.64 0 0 0 0-.6.6.6 0 0 0-.6-.3h-10.3a.86.86 0 0 0-.6.3c-.2.2-.1.4 0 .6l1.9 3.3-1.3 5.2a57.57 57.57 0 0 1-5.7-9.2.6.6 0 0 0-.6-.3 40.94 40.94 0 0 0-9.8 1.1v-14.8a2.46 2.46 0 0 0-2.4-2.5h-21a2.46 2.46 0 0 0-2.4 2.5v26.4a2.46 2.46 0 0 0 2.4 2.5h12.3c-.6 1.9-1.1 3.7-1.6 5.7a.44.44 0 0 0 .1.5c.1.2.3.2.5.2h66.7a.76.76 0 0 0 .5-.2.61.61 0 0 0 .1-.6c-2.5-10-4.5-13.9-4.8-14.4a1.07 1.07 0 0 1-.2-.6h22.1a2.33 2.33 0 0 0 2.3-2.3v-17.9a2.48 2.48 0 0 0-2.4-2.2zm-18.7-3h9.5v3h-9.5zm-28 20.9l-1.3 2.2h-5.8l-1.3-2.2zm-7 3.4h5.5l1.4 5.9a38.66 38.66 0 0 1-4.2 4.2 29.23 29.23 0 0 1-4.1-4.1zm-43 8v-26.4a1.32 1.32 0 0 1 1.3-1.3h21.1a1.32 1.32 0 0 1 1.3 1.3v26.4a1.32 1.32 0 0 1-1.3 1.3h-21.2a1.38 1.38 0 0 1-1.2-1.3zm73.7-5.9c.1.1 2.1 3.6 4.6 13.4h-65c.5-1.8.9-3.5 1.5-5.3h7.6a2.46 2.46 0 0 0 2.4-2.5v-10.1a41.37 41.37 0 0 1 9.4-1.1c5.2 10.6 11 14.7 11.3 14.8h.2a.35.35 0 0 1 .2.1c.1 0 .2 0 .2-.1h.2a32.49 32.49 0 0 0 5-4.9 49.05 49.05 0 0 0 6.4-10 43.67 43.67 0 0 1 9.1 1v1.3a2.26 2.26 0 0 0 2.3 2.3h4.4c0 .5.2.8.2 1.1zm24.1-3.3a1.11 1.11 0 0 1-1.1 1.1h-27.9a1.11 1.11 0 0 1-1.1-1.1v-17.8a1.11 1.11 0 0 1 1.1-1.1h27.7a1.11 1.11 0 0 1 1.1 1.1l.2 17.8zM124 74.3h-22a.6.6 0 1 0 0 1.2h22a.58.58 0 0 0 .6-.6q-.15-.6-.6-.6zM124 78.8h-22a.6.6 0 1 0 0 1.2h22a.58.58 0 0 0 .6-.6c-.1-.3-.3-.6-.6-.6zM124 83.3h-22a.6.6 0 1 0 0 1.2h22a.58.58 0 0 0 .6-.6c-.1-.3-.3-.6-.6-.6zM51.2 71.7h-18.5a.58.58 0 0 0-.6.6v4.9a.58.58 0 0 0 .6.6h18.6a.58.58 0 0 0 .6-.6v-4.9a.67.67 0 0 0-.7-.6zm-.5 5h-17.4v-3.7h17.4zM39 82.9h-1.6v-1.6a.6.6 0 0 0-1.2 0v1.6h-1.6a.6.6 0 0 0 0 1.2h1.6v1.6a.6.6 0 0 0 1.2 0v-1.6h1.6a.58.58 0 0 0 .6-.6.53.53 0 0 0-.6-.6zM38.9 90.8a.75.75 0 0 0-.9 0l-1.1 1.2-1.2-1.1a.64.64 0 1 0-.9.9l1.1 1.1-1 1.2a.75.75 0 0 0 0 .9.5.5 0 0 0 .8 0l1.1-1.1 1.1 1.1a.5.5 0 0 0 .8 0 .75.75 0 0 0 0-.9l-1.1-1.1 1.3-1.2a.91.91 0 0 0 0-1zM49 82.9h-4.4a.6.6 0 0 0 0 1.2h4.4a.58.58 0 0 0 .6-.6q-.15-.6-.6-.6zM47.1 94.6c-.1-.1-.2-.1-.2-.2a.45.45 0 0 0-.5 0 .22.22 0 0 0-.2.2c-.1.1-.1.2-.2.2a.35.35 0 0 1-.1.2.52.52 0 0 0 .2.4c.1.1.2.1.2.2a.35.35 0 0 1 .2.1s.2 0 .2-.1a.22.22 0 0 0 .2-.2.52.52 0 0 0 .2-.4c0-.1 0-.2-.1-.2.2-.1.2-.1.1-.2zM49 92.3h-4.4a.6.6 0 0 0 0 1.2h4.4a.58.58 0 0 0 .6-.6q-.15-.6-.6-.6zM46.7 91.3c.1 0 .2 0 .2-.1a.22.22 0 0 0 .2-.2.5.5 0 0 0 0-.8l-.1-.1a.45.45 0 0 0-.5 0 .22.22 0 0 0-.2.2.5.5 0 0 0 0 .8c.1.1.2.1.2.2zM77.4 38.1c.1 0 7.2.4 10.1 2.6a.37.37 0 0 0 .3.1.76.76 0 0 0 .5-.2c.2-.2.2-.6-.2-.9-3.2-2.4-10.4-2.8-10.7-2.8a.58.58 0 0 0-.6.6c-.1.4.2.6.6.6zM86.3 96.2a.58.58 0 0 0 .6.6h12.7a.6.6 0 0 0 0-1.2h-12.6a.6.6 0 0 0-.7.6z" transform="translate(-6 -6.5)"/></svg>