<svg id="Layer_1" data-name="Layer 1" xmlns="http://www.w3.org/2000/svg" width="86px" height="86px" viewBox="0 0 86 86"><defs><style>.cls-1{fill:#f1f1f1;}.cls-2{fill:#ff1a46;stroke:#fff;stroke-width:0.5px;}.cls-2,.cls-3{stroke-miterlimit:10;}.cls-3{fill:none;stroke:#8d8d8d;}</style></defs><title>icon-antip-1</title><rect class="cls-1" width="86" height="86"/><path class="cls-2" d="M69,46.5H64.8a18.47,18.47,0,0,0-1.5-5.7l3.6-2.1a1.41,1.41,0,0,0-1.3-2.5.1.1,0,0,0-.1.1l-3.7,2.1a16.76,16.76,0,0,0-4.2-4.2l2.1-3.7a1.37,1.37,0,0,0-.6-1.9,1.44,1.44,0,0,0-1.8.5l-2.1,3.6a16,16,0,0,0-5.7-1.5V27a1.4,1.4,0,0,0-2.8,0v4.2A18.47,18.47,0,0,0,41,32.7l-2.1-3.6a1.39,1.39,0,0,0-2.4,1.4l2.1,3.7a16.76,16.76,0,0,0-4.2,4.2l-3.7-2.1a1.37,1.37,0,0,0-1.5,2.3.1.1,0,0,1,.1.1l3.6,2.1a16.18,16.18,0,0,0-1.6,5.7H27.1a1.4,1.4,0,0,0,0,2.8h4.2A18.47,18.47,0,0,0,32.8,55l-3.3,2a1.41,1.41,0,1,0,1.3,2.5.1.1,0,0,0,.1-.1l3.7-2.1a16.76,16.76,0,0,0,4.2,4.2l-2.1,3.7A1.37,1.37,0,0,0,39,66.7a.1.1,0,0,1,.1-.1L41.2,63a16,16,0,0,0,5.7,1.5v4.2a1.4,1.4,0,0,0,2.8,0V64.5A18.47,18.47,0,0,0,55.4,63l2.1,3.6a1.39,1.39,0,0,0,2.4-1.4l-2.1-3.7A16.76,16.76,0,0,0,62,57.3l3.7,2.1a1.37,1.37,0,0,0,1.5-2.3.1.1,0,0,1-.1-.1l-3.6-2.1a16.18,16.18,0,0,0,1.6-5.7H69a1.37,1.37,0,0,0,1.4-1.4A1.34,1.34,0,0,0,69,46.5ZM48.2,61.7A13.85,13.85,0,1,1,62,47.8,13.83,13.83,0,0,1,48.2,61.7Z"/><path class="cls-2" d="M48.2,36.3A11.5,11.5,0,1,0,59.7,47.8h0A11.5,11.5,0,0,0,48.2,36.3Zm5.5,18.3-1.7-3,3,1.8a7.41,7.41,0,0,1-1.3,1.2ZM41.4,53.4l3-1.8-1.7,3A7.41,7.41,0,0,1,41.4,53.4Zm1.3-12.3,1.7,3-3-1.8a4.89,4.89,0,0,1,1.3-1.2ZM55,42.3l-3,1.8,1.7-3A4.89,4.89,0,0,1,55,42.3Zm-5.4-3.1a4.8,4.8,0,0,1,1.7.5l-1.7,3ZM43,46.5H39.5a4.8,4.8,0,0,1,.5-1.7Zm0,2.7L40,51a5.26,5.26,0,0,1-.4-1.7H43ZM46.8,53v3.5a8.47,8.47,0,0,1-1.7-.4ZM45.1,39.7a10.93,10.93,0,0,1,1.7-.5v3.5ZM49.6,53l1.7,3a10.93,10.93,0,0,1-1.7.5Zm3.8-3.8h3.5a4.8,4.8,0,0,1-.5,1.7Zm0-2.7,3-1.7a5.26,5.26,0,0,1,.4,1.7Z"/><path class="cls-2" d="M66.5,21.9h-1v-1a1.4,1.4,0,0,0-2.8,0v1h-1a1.4,1.4,0,1,0,0,2.8h1v1a1.4,1.4,0,0,0,2.8,0v-1h1a1.4,1.4,0,1,0,0-2.8Z"/><path class="cls-2" d="M30.9,22.9H28.6a3.55,3.55,0,0,0-.4-.9l1.6-1.6a1.41,1.41,0,0,0-2-2L26.3,20a3.55,3.55,0,0,0-.9-.4V17.3a1.4,1.4,0,0,0-2.8,0v2.3a3.55,3.55,0,0,0-.9.4l-1.6-1.6a1.41,1.41,0,0,0-2,2h0L19.7,22a3.55,3.55,0,0,0-.4.9H17a1.4,1.4,0,1,0,0,2.8h2.3a3.55,3.55,0,0,0,.4.9l-1.6,1.6a1.52,1.52,0,0,0,0,2,1.42,1.42,0,0,0,2,0l1.6-1.6a3.55,3.55,0,0,0,.9.4v2.3a1.4,1.4,0,0,0,2.8,0V29a3.55,3.55,0,0,0,.9-.4l1.6,1.6a1.41,1.41,0,0,0,2-2h0l-1.6-1.6a3.55,3.55,0,0,0,.4-.9H31a1.37,1.37,0,0,0,1.4-1.4A1.6,1.6,0,0,0,30.9,22.9ZM26,24.3a2.11,2.11,0,0,1-2.1,2.1,2.05,2.05,0,0,1-2.1-2.1,2.1,2.1,0,0,1,4.2,0Z"/><line class="cls-3" x1="74.5" y1="11.5" x2="11.5" y2="74.5"/></svg>
