<svg id="Layer_1" data-name="Layer 1" xmlns="http://www.w3.org/2000/svg" viewBox="0 0 52.73 50.34"><defs><style>.cls-1{fill:#fff;stroke:#fff;stroke-miterlimit:10;}</style></defs><title>icon-spec-price</title><path class="cls-1" d="M52.15,26.14,26.65.64c-.1-.1-.1-.1-.2-.1s-.3,0-.4.1L.65,26.14a.37.37,0,0,0,0,.6l3.2,3.2a.37.37,0,0,0,.3.1c.1,0,.2-.1.3-.1l4.2-4.2v20.1H7.05c-.1,0-.2.1-.3.1s-.1.2-.1.3v3.2a.43.43,0,0,0,.4.4h38.5a.43.43,0,0,0,.4-.4v-3.1a.43.43,0,0,0-.4-.4h-1.4V25.74l4.2,4.2a.38.38,0,0,0,.6,0l3.2-3.2A.64.64,0,0,0,52.15,26.14ZM45,49H7.35v-2.4l37.6.1V49Zm-1.8-3.3H9.35V24.94L26.25,8l16.9,16.9v20.8ZM48.55,29,26.65,7.14a.37.37,0,0,0-.3-.1c-.1,0-.2.1-.3.1L4,29l-2.6-2.6,24.9-24.9,24.9,24.9Zm-40-13.5V7.24a.43.43,0,0,1,.4-.4h4.1a.43.43,0,0,1,.4.4v4a.4.4,0,0,1-.8,0V7.64H9.35v7.9a.43.43,0,0,1-.4.4C8.75,15.94,8.55,15.64,8.55,15.54Zm14.4,14.9a3,3,0,0,0,2.9-3.2,3.11,3.11,0,0,0-2.9-3.2,3,3,0,0,0-2.9,3.2A3,3,0,0,0,22.95,30.44Zm0-5.5a2.23,2.23,0,0,1,2.1,2.3,2.16,2.16,0,0,1-2.1,2.3,2.31,2.31,0,0,1,0-4.6Zm7.2,8.3a3,3,0,0,0-2.9,3.2,3.11,3.11,0,0,0,2.9,3.2,3.22,3.22,0,0,0,0-6.4Zm0,5.4a2.23,2.23,0,0,1-2.1-2.3,2.16,2.16,0,0,1,2.1-2.3,2.23,2.23,0,0,1,2.1,2.3A2.3,2.3,0,0,1,30.15,38.64Zm-9.4,0,11-15.1c.1-.2.4-.2.6-.1s.2.4.1.6l-11,15.2c-.1.1-.2.2-.3.2s-.2,0-.2-.1A.66.66,0,0,1,20.75,38.64Z"/></svg>