<svg xmlns="http://www.w3.org/2000/svg" width="52" height="52" viewBox="0 0 52 52"><defs><style>.cls-1{fill:none;stroke:#9e9e9e;}.cls-1,.cls-2{stroke-miterlimit:10;}.cls-2{fill:#ff1a46;stroke:#ff1a46;stroke-width:0.5px;}</style></defs><title>icon-feat-9</title><path class="cls-1" d="M.5.5h50v50h-50z"/><path class="cls-2" d="M20.4 8.94a.37.37 0 0 0-.3.1 7.81 7.81 0 0 0-2.4 5.2 7.38 7.38 0 0 0 2.4 5.2.37.37 0 0 0 .3.1l4.3-.5c.1 0 .1 0 .2-.1l2.4-1.6c1.4 4.3 2.9 9.5 4.9 13.3a14.68 14.68 0 0 0-4.3-1.8 6.55 6.55 0 0 0-4.6 1.3c-1.6-3.1-3.8-4.6-6.3-5a13.24 13.24 0 0 0-7.9 1.7c-.1.1-.2.2-.2.3v11.5a.37.37 0 0 0 .1.3c3.4 3 7.4 2.8 11.6 1.3 7.5 2.9 14.5 2.1 20.9-2.7.1-.1.1-.1.1-.2 1.1-5-.6-11.9-4.4-17.7-3.6-5.7-9.5-10.4-16.8-10.7zm.2.8c6.9.4 12.5 4.8 16.1 10.5s5.3 12.3 4.3 17c-6.2 4.6-12.9 5.3-20.2 2.4h-.3c-4.1 1.5-7.7 1.6-10.8-1v-11.1a11.79 11.79 0 0 1 7.2-1.54c2.4.4 4.5 1.8 5.9 5a.37.37 0 0 0 .5.2h.1c1.8-1.3 3-1.7 4.4-1.5s3 1.1 5.3 2.4a.44.44 0 0 0 .5-.1.3.3 0 0 0 0-.4c-2.3-3.7-4.1-9.9-5.7-14.8a.37.37 0 0 0-.5-.2h-.1l-2.8 1.8-4 .5a6.29 6.29 0 0 1-2.1-4.6 7.1 7.1 0 0 1 2.2-4.6zM15.4 28.64a7.37 7.37 0 0 0-2.7.6.38.38 0 0 0 .3.7c2.3-.8 3.2-.8 5.7.3a.38.38 0 0 0 .3-.7 9.89 9.89 0 0 0-3.6-.9z"/></svg>