<svg xmlns="http://www.w3.org/2000/svg" width="86" height="86" viewBox="0 0 86 86"><defs><style>.cls-1{fill:#f1f1f1;}.cls-2{fill:#ff1a46;stroke:#fff;stroke-width:0.5px;}.cls-2,.cls-3{stroke-miterlimit:10;}.cls-3{fill:none;stroke:#8d8d8d;}</style></defs><title>icon-antip-1</title><path class="cls-1" d="M0 0h86v86h-86z"/><path class="cls-2" d="M69 46.5h-4.2a18.47 18.47 0 0 0-1.5-5.7l3.6-2.1a1.41 1.41 0 0 0-1.3-2.5.1.1 0 0 0-.1.1l-3.7 2.1a16.76 16.76 0 0 0-4.2-4.2l2.1-3.7a1.37 1.37 0 0 0-.6-1.9 1.44 1.44 0 0 0-1.8.5l-2.1 3.6a16 16 0 0 0-5.7-1.5v-4.2a1.4 1.4 0 0 0-2.8 0v4.2a18.47 18.47 0 0 0-5.7 1.5l-2.1-3.6a1.39 1.39 0 0 0-2.4 1.4l2.1 3.7a16.76 16.76 0 0 0-4.2 4.2l-3.7-2.1a1.37 1.37 0 0 0-1.5 2.3.1.1 0 0 1 .1.1l3.6 2.1a16.18 16.18 0 0 0-1.6 5.7h-4.2a1.4 1.4 0 0 0 0 2.8h4.2a18.47 18.47 0 0 0 1.5 5.7l-3.3 2a1.41 1.41 0 1 0 1.3 2.5.1.1 0 0 0 .1-.1l3.7-2.1a16.76 16.76 0 0 0 4.2 4.2l-2.1 3.7a1.37 1.37 0 0 0 2.3 1.5.1.1 0 0 1 .1-.1l2.1-3.6a16 16 0 0 0 5.7 1.5v4.2a1.4 1.4 0 0 0 2.8 0v-4.2a18.47 18.47 0 0 0 5.7-1.5l2.1 3.6a1.39 1.39 0 0 0 2.4-1.4l-2.1-3.7a16.76 16.76 0 0 0 4.2-4.2l3.7 2.1a1.37 1.37 0 0 0 1.5-2.3.1.1 0 0 1-.1-.1l-3.6-2.1a16.18 16.18 0 0 0 1.6-5.7h3.9a1.37 1.37 0 0 0 1.4-1.4 1.34 1.34 0 0 0-1.4-1.3zm-20.8 15.2a13.85 13.85 0 1 1 13.8-13.9 13.83 13.83 0 0 1-13.8 13.9zM48.2 36.3a11.5 11.5 0 1 0 11.5 11.5 11.5 11.5 0 0 0-11.5-11.5zm5.5 18.3l-1.7-3 3 1.8a7.41 7.41 0 0 1-1.3 1.2zm-12.3-1.2l3-1.8-1.7 3a7.41 7.41 0 0 1-1.3-1.2zm1.3-12.3l1.7 3-3-1.8a4.89 4.89 0 0 1 1.3-1.2zm12.3 1.2l-3 1.8 1.7-3a4.89 4.89 0 0 1 1.3 1.2zm-5.4-3.1a4.8 4.8 0 0 1 1.7.5l-1.7 3zm-6.6 7.3h-3.5a4.8 4.8 0 0 1 .5-1.7zm0 2.7l-3 1.8a5.26 5.26 0 0 1-.4-1.7h3.4zm3.8 3.8v3.5a8.47 8.47 0 0 1-1.7-.4zm-1.7-13.3a10.93 10.93 0 0 1 1.7-.5v3.5zm4.5 13.3l1.7 3a10.93 10.93 0 0 1-1.7.5zm3.8-3.8h3.5a4.8 4.8 0 0 1-.5 1.7zm0-2.7l3-1.7a5.26 5.26 0 0 1 .4 1.7zM66.5 21.9h-1v-1a1.4 1.4 0 0 0-2.8 0v1h-1a1.4 1.4 0 1 0 0 2.8h1v1a1.4 1.4 0 0 0 2.8 0v-1h1a1.4 1.4 0 1 0 0-2.8zM30.9 22.9h-2.3a3.55 3.55 0 0 0-.4-.9l1.6-1.6a1.41 1.41 0 0 0-2-2l-1.5 1.6a3.55 3.55 0 0 0-.9-.4v-2.3a1.4 1.4 0 0 0-2.8 0v2.3a3.55 3.55 0 0 0-.9.4l-1.6-1.6a1.41 1.41 0 0 0-2 2l1.6 1.6a3.55 3.55 0 0 0-.4.9h-2.3a1.4 1.4 0 1 0 0 2.8h2.3a3.55 3.55 0 0 0 .4.9l-1.6 1.6a1.52 1.52 0 0 0 0 2 1.42 1.42 0 0 0 2 0l1.6-1.6a3.55 3.55 0 0 0 .9.4v2.3a1.4 1.4 0 0 0 2.8 0v-2.3a3.55 3.55 0 0 0 .9-.4l1.6 1.6a1.41 1.41 0 0 0 2-2l-1.6-1.6a3.55 3.55 0 0 0 .4-.9h2.3a1.37 1.37 0 0 0 1.4-1.4 1.6 1.6 0 0 0-1.5-1.4zm-4.9 1.4a2.11 2.11 0 0 1-2.1 2.1 2.05 2.05 0 0 1-2.1-2.1 2.1 2.1 0 0 1 4.2 0z"/><path class="cls-3" d="M74.5 11.5l-63 63"/></svg>