<?xml version="1.0" encoding="utf-8"?>
<!-- Generator: Adobe Illustrator 21.0.2, SVG Export Plug-In . SVG Version: 6.00 Build 0)  -->
<svg version="1.1" id="Layer_1" xmlns="http://www.w3.org/2000/svg" xmlns:xlink="http://www.w3.org/1999/xlink" x="0px" y="0px"
	 viewBox="0 0 153 147" style="enable-background:new 0 0 153 147;" xml:space="preserve">
<style type="text/css">
	.st0{fill:#FFFFFF;}
</style>
<g>
	<path class="st0" d="M106,55.4c0-3.7-2.7-6.6-6-6.6c-0.5,0-0.9,0.1-1.4,0.2C98.3,49,98,49.4,98,49.8v6H55v-6c0-0.4-0.3-0.8-0.6-0.9
		c-0.5-0.1-0.9-0.2-1.4-0.2c-3.3,0-6,3-6,6.6v35.5c0,0.1,0,0.1,0,0.1c0,0.2,0,0.4,0,0.6c0,3.5,2.5,6.4,5.6,6.6v0h47.8v0
		c3.1-0.2,5.6-3.1,5.6-6.6c0-0.2,0-0.4,0-0.6c0-0.1,0-0.1,0-0.1V55.4z M48.6,55.4c0-2.7,2-4.9,4.4-4.9c0.1,0,0.3,0,0.4,0v5.3h-0.1
		v1.8h0.1V85c-0.1,0-0.3,0-0.4,0c-1.7,0-3.3,0.8-4.4,2.1V55.4z M100,96.5H53c-2.4,0-4.4-2.2-4.4-4.9c0-2.7,2-4.9,4.4-4.9
		c0.3,0,0.5,0,0.8,0.1c0.4,0.1,0.8,0.3,1.2,0.5V57.6H98v29.7c0.4-0.3,0.9-0.4,1.3-0.5c0.2,0,0.5-0.1,0.7-0.1c2.4,0,4.4,2.2,4.4,4.9
		C104.4,94.3,102.4,96.5,100,96.5z M100,85c-0.1,0-0.3,0-0.4,0V50.6c0.1,0,0.3,0,0.4,0c2.4,0,4.4,2.2,4.4,4.9v31.7
		C103.3,85.8,101.8,85,100,85z"/>
	<path class="st0" d="M84.5,71.3l2,1.2l0.8-1.6l-13.9-8.4l0,0l0,0L59.4,71l0.8,1.6l2-1.2v14.6v0.9v0.9h19.5h2.8h8.8v-8.8l2.1,0.8
		l0.5-1.7l-11.4-4.4V71.3z M63.7,85.9V70.3l9.6-5.8l9.6,5.8v15.5h-1.2H63.7z M91.6,78.2v7.7h-7.2h0V75.4L91.6,78.2z"/>
	<path class="st0" d="M69.3,79.7h8v-8.8h-8V79.7z M70.9,72.6h4.8v5.3h-4.8V72.6z"/>
</g>
</svg>
