<?xml version="1.0" encoding="utf-8"?>
<!-- Generator: Adobe Illustrator 21.0.2, SVG Export Plug-In . SVG Version: 6.00 Build 0)  -->
<svg version="1.1" id="Layer_1" xmlns="http://www.w3.org/2000/svg" xmlns:xlink="http://www.w3.org/1999/xlink" x="0px" y="0px"
	 viewBox="0 0 120 120" style="enable-background:new 0 0 120 120;" xml:space="preserve">
<style type="text/css">
	.st0{fill:#A2A2A2;}
	.st1{fill:#FF1A46;}
</style>
<g>
	<g>
		<path class="st0" d="M85.5,85.5h-51v-51h51V85.5z M35.5,84.5h49v-49h-49V84.5z"/>
	</g>
	<g>
		<path class="st1" d="M45.2,66.6c0,0.1-0.1,0.3-0.2,0.4c-0.8,0.7-1.2,1.7-1.2,2.7v2.8c0,2,1.6,3.7,3.7,3.7h25c2,0,3.7-1.6,3.7-3.7
			v-2.8c0-2-1.6-3.7-3.7-3.7H70c-0.2,0-0.4-0.2-0.5-0.4c-0.1-0.2,0-0.5,0.2-0.6l3.6-2.1c0.5-0.3,0.9-0.8,1.1-1.4
			c0.2-0.6,0.1-1.2-0.2-1.8L71.5,55c-0.3-0.5-0.8-0.9-1.3-1.1c-0.6-0.2-1.2-0.1-1.7,0.2L66,55.6c-0.2,0.1-0.5,0.1-0.6-0.1
			c-0.2-0.2-0.2-0.4-0.1-0.6l1.5-2.4c0.7-1.1,0.4-2.6-0.7-3.3l-4.4-2.8c-0.6-0.4-1.2-0.5-1.9-0.3c-0.7,0.1-1.2,0.5-1.6,1.1l-2,2.9
			c-0.1,0.2-0.3,0.3-0.6,0.2c-0.2-0.1-0.4-0.3-0.4-0.5v-4c0-1.1-0.9-1.9-1.9-1.9h-6.2c-1.1,0-1.9,0.9-1.9,1.9V66.6z M69.4,55.7
			c0.2-0.1,0.5-0.1,0.7,0.2c0,0,0,0,0,0.1c0.1,0.3,1.7,3,2.7,4.8c0.1,0.1,0.1,0.3,0.1,0.4c0,0.1-0.1,0.3-0.3,0.3L64.6,66
			c-0.1,0-0.2,0.1-0.2,0.1H53c-0.2,0-0.4-0.2-0.5-0.4c-0.1-0.2,0-0.5,0.2-0.6L69.4,55.7z M55.2,55.1c0.1-0.1,0.1-0.2,0.1-0.3
			c0-0.1,0-0.1,0.1-0.2l4.3-6.5c0.1-0.2,0.3-0.3,0.5-0.3c0.2,0,0.4,0,0.5,0.1l4.4,2.8c0.1,0.1,0.2,0.2,0.3,0.4c0,0.2,0,0.3-0.1,0.5
			L61,58.3c0,0.1-0.1,0.1-0.2,0.2l-10.9,6.1c-0.1,0-0.2,0.1-0.2,0.1c-0.1,0-0.3-0.1-0.4-0.2c-0.2-0.2-0.2-0.4,0-0.6L55.2,55.1z
			 M47,46.1c0-0.3,0.2-0.5,0.5-0.5h5.6c0.3,0,0.5,0.2,0.5,0.5V54c0,0.1,0,0.2-0.1,0.3l-5.6,8.4c-0.1,0.1-0.3,0.2-0.4,0.2
			c0,0-0.1,0-0.1,0c-0.2-0.1-0.4-0.3-0.4-0.5V46.1z M45.6,69.7c0-1,0.8-1.9,1.9-1.9h25c1,0,1.9,0.8,1.9,1.9v2.8c0,1-0.8,1.9-1.9,1.9
			h-25c-1,0-1.9-0.8-1.9-1.9V69.7z"/>
	</g>
	<g>
		<g>
			<path class="st1" d="M59.3,69.7h-1.4c-0.4,0-0.7,0.3-0.7,0.7v1.4c0,0.4,0.3,0.7,0.7,0.7h1.4c0.4,0,0.7-0.3,0.7-0.7v-1.4
				C60,70,59.7,69.7,59.3,69.7z"/>
		</g>
	</g>
	<g>
		<g>
			<path class="st1" d="M64.9,69.7h-1.4c-0.4,0-0.7,0.3-0.7,0.7v1.4c0,0.4,0.3,0.7,0.7,0.7h1.4c0.4,0,0.7-0.3,0.7-0.7v-1.4
				C65.6,70,65.2,69.7,64.9,69.7z"/>
		</g>
	</g>
	<g>
		<g>
			<path class="st1" d="M70.4,69.7H69c-0.4,0-0.7,0.3-0.7,0.7v1.4c0,0.4,0.3,0.7,0.7,0.7h1.4c0.4,0,0.7-0.3,0.7-0.7v-1.4
				C71.1,70,70.8,69.7,70.4,69.7z"/>
		</g>
	</g>
	<g>
		<circle class="st1" cx="50.3" cy="71.1" r="0.9"/>
	</g>
</g>
</svg>
