<svg id="Layer_1" data-name="Layer 1" xmlns="http://www.w3.org/2000/svg" width="60px" viewBox="0 0 74.5 38.9"><defs><style>.cls-1{fill:#0065a4;}</style></defs><title>Лого Гардиан_без подложки-01</title><path class="cls-1" d="M39.8,8.4a4.35,4.35,0,0,1-.4.7.49.49,0,0,1-.3.1V9.1c-.1-.2-.3-.8-.2-.9s.3-.1.6-.1c.1,0,.5-.1.5,0a.36.36,0,0,0-.2.3M37.8,0C29.6,0,24.1,1.2,18.9,3.2c-5.5,2.1-8.8,5.3-8.8,8.4,0,4,2.3,6.9,7,9.2,5.2,2.7,14.1,3.9,21.9,3.9,2.9,0,5.8-.2,8.9-.5,1.1-.1,1.2-.2,3-.4a22.91,22.91,0,0,1,7.3-.2,15.92,15.92,0,0,1,3.5.8V15c0-1,.1-1.2,1.4-1.2h.6c.5,0,.5-.1.5-.3V13c0-.2-.1-.3-.7-.3s-1,.1-8,.1c-6.8,0-6.3-.1-7-.1-.5,0-.5.1-.5.2v.5c0,.2.1.3.5.3H49c1.9,0,2,.3,2,1.5v4c0,1.7-.6,2.8-2.2,3.1a38.21,38.21,0,0,1-8.5.8c-5.1,0-8-.6-11.5-2.2-4.1-1.8-6.7-5.4-6.7-9.3,0-3,2.4-6,5.9-7.8a19.93,19.93,0,0,1,5.9-2.1,23.58,23.58,0,0,1,2.8-.4h0a28.32,28.32,0,0,1,11,1.2,12.62,12.62,0,0,1,4.1,2.4h0c.1.1.3.3,0,.4h0C48,6,44,6.6,43.9,6.7c-.6.1-.5-.1-.9-.5-.2-.3-.6-.4-.9-.7a1,1,0,0,0-.4-.5l-.2-.2c-.3-.1-.2.2-.3.5a8,8,0,0,1-.6.8c-.3.4-.5.8-.7,1.1a1.84,1.84,0,0,1-1.6.5c-.2,0-.3-.1-.4-.4s-.1-.6-.2-.7c-.2-.4-.6-.3-.6-.5h0c.1-.3.1-.1.4-.2.1,0,.1-.3.1-.5s.2,0,.1-.2-.1-.5-.2-.7c-.1-.4-.5-.5-.9-.5a.94.94,0,0,0-.7.5,1.17,1.17,0,0,0,.2,1.1c.3.4-.5.5-1.1.9l-.1.1c-.6.4-.6,1.1-.9,1.5a1.18,1.18,0,0,1-.5.5c-.6.2-4,.7-4.3.8a.1.1,0,0,0-.1.1c-.1.1-.1.4-.1.4l3-.5A17.83,17.83,0,0,1,34.2,9c.3,0,1,.1,1.1.4s-.5.6-.7.6h-.5c-.2,0-.3.1-.5.1a.6.6,0,0,0-.4.1c-.3.1-.9.6-1.2.6a2.92,2.92,0,0,1-.9-.2h-.3c-1,.1-1.3,1.8-1.5,2.7a2,2,0,0,1-.4.8,3,3,0,0,0-.5.7.37.37,0,0,0,.1.3v.1a2.27,2.27,0,0,1-.4.1c-.1,0-.1,0-.1.1-.1.5.9.7,1.1.8h.4c.1,0,.2-.1.3-.2.7-.7.8-1.7,1.2-2.9.1-.2.4-1.2.7-1.3s.3.4.3.7c.1.5.4.8.5,1.2a1.38,1.38,0,0,1,0,.9c-.1.4-.6.7-.9,1.2a.75.75,0,0,0-.1.5c0,.3-1.2,2.5-1.2,2.8v.2c.1.7.6.9,1.3.8.5-.1.2-.2,0-.6a2.43,2.43,0,0,1,0-1.2,3,3,0,0,1,.4-.8,11.35,11.35,0,0,1,1.9-1.9c.3-.2.8-.4.8-.1a.91.91,0,0,1-.3.5c-.3.3-.5.7-.4.9s.6.5.9.7a5.34,5.34,0,0,1,1,.7c.1.1.1.2,0,.4-.1.4.1.4.5.6l.4.2a.1.1,0,0,1,.1-.1.37.37,0,0,0,.1-.3c.1-.7.1-1-.3-1.3s-.9-.5-1-.7c-.2-.5.2-1,.6-1.3.2-.2.6-.7.9-.8s.4,0,.7.1h.4a.76.76,0,0,1,.4.2l1,.5a2.49,2.49,0,0,1,.7-.5.63.63,0,0,1,.6,0c.1.1.2.1.2.2.2.2-.1,1.6-.1,2a3.33,3.33,0,0,1-.2,1.7c-.1.3-.2.4-.1.7.1.7.4,1,1.1.7.3-.1.1-.3-.1-.7a5.4,5.4,0,0,1,0-1.8,18.7,18.7,0,0,1,.8-2.8,2.39,2.39,0,0,1,1.9-.5c.2,0,.3.1.3.4s-.2.4-.6.6a.85.85,0,0,0-.2,1.1c.1.4.4.1.8-.2s.7-.4.8-1a4.14,4.14,0,0,0-.2-1.6.78.78,0,0,0-.7-.3c-.6-.1-1,.1-1.3-.2s-.2-.3-.1-.5a.37.37,0,0,0,.1-.3,2.25,2.25,0,0,0-.1-1.6c0-.1-.9-1.7-.7-2.2a3.17,3.17,0,0,1,.5-.6c.5-.2.7.1,1.2.2a.85.85,0,0,0,.7,0c.2-.1.4-.6.2-.8,0-.1-.1-.1-.2-.2a1.42,1.42,0,0,1-.2-.4S57.6,4.7,58.6,4.6c.8-.1.4.2,1.3-.1.2-.1.9-.5.9-.5s-.6-.1-1-.2c-.9-.1-.6.1-1.3.3h-.2a62.9,62.9,0,0,0-8-2.8A58,58,0,0,0,37.8,0Z"/><path class="cls-1" d="M7.9,37.9c0,.3,0,.3-.1.4a5.92,5.92,0,0,1-2.7.5C2.4,38.8,0,37.5,0,34.5a4.05,4.05,0,0,1,1.9-3.6,5.72,5.72,0,0,1,3-.7,8.75,8.75,0,0,1,2,.2c.2,0,.6.1.9.1a.35.35,0,0,1,.2.1,10.67,10.67,0,0,0-.1,1.8c0,.2,0,.2-.1.2a.1.1,0,0,1-.1-.1,1.22,1.22,0,0,0-.4-.9,3.27,3.27,0,0,0-2.5-.9,3,3,0,0,0-2.2.7,3.39,3.39,0,0,0-1,2.7c0,2.4,1.5,4.2,3.8,4.2a2.48,2.48,0,0,0,.9-.1c.2-.1.2-.2.2-.4V35.5c0-.4-.1-.6-.5-.6H5.6c-.1,0-.2,0-.2-.1s.1-.1.2-.1H8.5c.1,0,.2,0,.2.1a.1.1,0,0,1-.1.1H8.3c-.3.1-.4.2-.4.6v2.4Z"/><path class="cls-1" d="M11.6,33.5V31.1c0-.4-.1-.6-.5-.6h-.4c-.1,0-.2,0-.2-.1s.1-.1.2-.1h3c.2,0,.2,0,.2.1s-.1.1-.2.1h-.3c-.3.1-.4.2-.4.6v4c0,1.6.3,2.3.9,2.7a2.19,2.19,0,0,0,2.9-.1c.6-.6.6-1.6.6-2.7V31.2c0-.4-.1-.6-.5-.6h-.4c-.1,0-.2,0-.2-.1s.1-.1.2-.1h2.6c.2,0,.2,0,.2.1s-.1.1-.2.1h-.3c-.3.1-.4.2-.4.6v3.6a4.24,4.24,0,0,1-1,3.3,3.23,3.23,0,0,1-2.3.8,3.15,3.15,0,0,1-2.4-.8,3.43,3.43,0,0,1-1-2.9V33.5Z"/><path class="cls-1" d="M22.8,35.8h0l-.7,1.6a2.54,2.54,0,0,0-.2.7c0,.2.1.3.4.3h.2c.1,0,.2,0,.2.1s-.1.1-.2.1H20c-.1,0-.2,0-.2-.1s0-.1.1-.1h.3c.5-.1.7-.4.9-1l2.8-7c.1-.3.2-.4.3-.4s.2.1.3.4c.3.6,2,5.1,2.7,6.8.4,1,.7,1.2,1,1.2h.5c.1,0,.1,0,.1.1s-.1.1-.5.1H26.2c-.2,0-.3,0-.3-.1s0-.1.2-.1.2-.1.1-.3l-.9-2.4a.1.1,0,0,0-.1-.1H22.8Zm2.2-.6h0l-.9-2.8a.1.1,0,0,0-.1-.1l-.1.1-1,2.7v.1Z"/><path class="cls-1" d="M31.2,33.5V31.1c0-.4-.1-.6-.5-.6h-.4c-.1,0-.2,0-.2-.1s.1-.1.2-.1h3.1a3.51,3.51,0,0,1,2,.5,2,2,0,0,1,.8,1.5,3,3,0,0,1-1.5,2.5c1,1.2,1.7,2.2,2.4,2.9a4.38,4.38,0,0,0,1.2.8h.3c.1,0,.1,0,.1.1s-.1.1-.2.1h-1a3.26,3.26,0,0,1-1.2-.2,5.88,5.88,0,0,1-1.5-1.6,8.23,8.23,0,0,0-1.1-1.5c-.1-.1-.1-.1-.2-.1h-1c-.1,0-.1,0-.1.1h0a15.57,15.57,0,0,0,.1,2.4c0,.3.1.6.4.6h.5c.1,0,.1,0,.1.1s-.1.1-.2.1H30.4c-.1,0-.2,0-.2-.1s0-.1.2-.1h.4c.2,0,.3-.3.3-.6a14.89,14.89,0,0,0,.1-2.4Zm1.3.9c0,.1,0,.2.1.2a2.2,2.2,0,0,0,.8.1c.4,0,.6,0,.8-.2a2.08,2.08,0,0,0,.7-1.7c0-1.6-1-2-1.7-2h-.6c-.1,0-.1.1-.1.2Z"/><path class="cls-1" d="M40.6,33.5V31.1c0-.4-.1-.6-.5-.6h-.4c-.1,0-.2,0-.2-.1s.1-.1.2-.1H43c1.4,0,3.2,0,4.4,1.3a3.82,3.82,0,0,1,1.1,2.8,4.44,4.44,0,0,1-1.2,3.1,5.19,5.19,0,0,1-3.7,1.3,6.15,6.15,0,0,1-1.3-.1c-.4,0-.8-.1-1.1-.1H39.8c-.1,0-.2,0-.2-.1s0-.1.2-.1h.4c.2,0,.3-.3.3-.6a14.89,14.89,0,0,0,.1-2.4ZM42,34.7v2.2a1.72,1.72,0,0,0,.1.8c.1.2.6.4,1.4.4a3.29,3.29,0,0,0,2.5-.8,3.53,3.53,0,0,0,.9-2.8,3.85,3.85,0,0,0-1.1-2.8,4.23,4.23,0,0,0-3.1-1.1c-.2,0-.6,0-.7.1s-.1.1-.1.2v3.8Z"/><path class="cls-1" d="M51.7,33.5V31.1c0-.4-.1-.6-.4-.6h-.4c-.1,0-.2,0-.2-.1s.1-.1.3-.1h2.7c.1,0,.2,0,.2.1s-.1.1-.2.1h-.3c-.3.1-.4.2-.4.6v6.8c0,.3.1.5.4.5H54c.1,0,.2,0,.2.1s-.1.1-.2.1H50.9c-.1,0-.2,0-.2-.1s0-.1.2-.1h.4q.3,0,.3-.6a14.89,14.89,0,0,0,.1-2.4Z"/><path class="cls-1" d="M58.2,35.8h0l-.7,1.6a2.54,2.54,0,0,0-.2.7c0,.2.1.3.4.3h.2c.1,0,.2,0,.2.1s-.1.1-.2.1H55.4c-.1,0-.2,0-.2-.1s0-.1.1-.1h.3c.5-.1.7-.4.9-1l2.8-7c.1-.3.2-.4.3-.4s.2.1.3.4c.3.6,2,5.1,2.7,6.8.4,1,.7,1.2,1,1.2h.5c.1,0,.1,0,.1.1s-.1.1-.5.1H61.6c-.2,0-.3,0-.3-.1s0-.1.2-.1.2-.1.1-.3l-.9-2.4a.1.1,0,0,0-.1-.1H58.2Zm2.3-.6h0l-1-2.8a.1.1,0,0,0-.1-.1l-.1.1-1,2.7v.1Z"/><path class="cls-1" d="M67.2,37.1c0,.9.2,1.2.4,1.2a1.27,1.27,0,0,0,.6.1c.1,0,.2,0,.2.1s-.1.1-.3.1H65.5c-.1,0-.2,0-.2-.1s.1-.1.2-.1a1.09,1.09,0,0,0,.5-.1c.3-.1.3-.4.3-1.4l.1-6.6c0-.2,0-.4.1-.4s.2.1.4.3,1.8,2,3.4,3.6a31.19,31.19,0,0,0,2.4,2.5h.1l-.1-5c0-.7-.1-.9-.4-1a1.27,1.27,0,0,0-.6-.1c-.1,0-.2,0-.2-.1s.1-.1.3-.1h2.4c.1,0,.3,0,.3.1s-.1.1-.2.1H74c-.3.1-.4.3-.4.9l-.1,7c0,.2,0,.3-.1.3a.76.76,0,0,1-.4-.2l-3.3-3.3c-1.2-1.2-2.4-2.6-2.6-2.8h0Z"/></svg>