<svg id="Layer_1" data-name="Layer 1" xmlns="http://www.w3.org/2000/svg" width="50px"  viewBox="0 0 44.1 33.4"><defs><style>.cls-1{fill:#fff;}</style></defs><title>icon-footer-jcb</title><path class="cls-1" d="M20.7,0H16.9l-.1.1h-.1V.2l-.1.1-.1.1V.6l-.1.1-.1.1-.1.1V1l-.1.1v.1l-.1.1v.2a.1.1,0,0,1-.1.1.1.1,0,0,1-.1.1.1.1,0,0,1-.1.1v.1a.1.1,0,0,1-.1.1v.1a.1.1,0,0,1-.1.1.1.1,0,0,1-.1.1v.1a.1.1,0,0,1-.1.1v.1c0,.1,0,.1-.1.2v.4a4.1,4.1,0,0,0-.1,1.1v7l.1-.1h13v2.3H26.9l-.8-.4H19.4v.1h0l-.1.1v.1l-.1.1-.1.1v.1a.1.1,0,0,1-.1.1v.1a.1.1,0,0,1-.1.1v.1a.1.1,0,0,1-.1.1v.1a2828368.57,2828368.57,0,0,1-.2.2v.1c0,.1,0,.1-.1.2V15c0,.1,0,.2-.1.2V17c0,.1,0,.2.1.2v.2c0,.1,0,.1.1.2v.1a2828368.72,2828368.72,0,0,1,.2.2V18a.1.1,0,0,0,.1.1v.1a.1.1,0,0,0,.1.1v.1l.1.1v.1l.1.1.1.1v.1l.1.1v.2h8.4v2.3H26.6l-.5-.4H15.7l-.1-.1V33.4H27.4l.1-.1h.2v-.1l.1-.1V33l.1-.1v-.1l.1-.1v-.2l.1-.1v-.1l.1-.1v-.1l.1-.1.1-.1v-.1a.1.1,0,0,1,.1-.1v-.1a.1.1,0,0,1,.1-.1,2828341.55,2828341.55,0,0,1,.2-.2v-.2a.1.1,0,0,1,.1-.1c0-.1,0-.1.1-.1s0-.1.1-.2v-.2c0-.1,0-.1.1-.2s0-.2.1-.2a.37.37,0,0,1,.1-.3V0Z"/><path class="cls-1" d="M35.6,0H31.5l-.1.1h-.1V.2l-.1.1V.5l-.1.1L31,.7l-.1.1V.9l-.1.1v.1l-.1.1-.1.1v.1a.1.1,0,0,1-.1.1v.1a.1.1,0,0,1-.1.1v.1a.1.1,0,0,1-.1.1V2a.1.1,0,0,1-.1.1.1.1,0,0,1-.1.1v.1a.1.1,0,0,1-.1.1v.1c0,.1,0,.1-.1.2s0,.1-.1.2,0,.1-.1.2v.2a4.1,4.1,0,0,0-.1,1.1V10H41v.1l.1.1.1.1.1.1v.1l.1.1v.1a19902791888158.06,19902791888158.06,0,0,0,.2.2V11a.1.1,0,0,0,.1.1v.2a.37.37,0,0,0,.1.3v.6a.37.37,0,0,1-.1.3v.2a.1.1,0,0,1-.1.1v.1a14731.15,14731.15,0,0,1-.2.2v.1a.1.1,0,0,1-.1.1v.1l-.1.1-.1.1-.1.1v.1h-.1v.1H39.1V14h2.6v.1l.1.1v.1l.1.1v.1l.1.1.1.1v.1a.1.1,0,0,0,.1.1V15a.1.1,0,0,0,.1.1v.1c0,.1,0,.1.1.2v1.2c0,.1,0,.1-.1.2v.1a.1.1,0,0,1-.1.1v.1a.1.1,0,0,1-.1.1v.1a.1.1,0,0,1-.1.1l-.1.1v.1l-.1.1v.1l-.1.1V18H30.3V29H42.2v-.1h.1l.1-.1v-.1l.1-.1v-.1l.1-.1.1-.1v-.1l.1-.1V28l.1-.1a3980596590304.84,3980596590304.84,0,0,1,.2-.2v-.2a.1.1,0,0,1,.1-.1v-.1a.1.1,0,0,1,.1-.1v-.1a3980596590304.84,3980596590304.84,0,0,0,.2-.2v-.1a.1.1,0,0,1,.1-.1v-.1c0-.1,0-.1.1-.1a.31.31,0,0,1,.1-.2c0-.1,0-.1.1-.2v-.2a.37.37,0,0,1,.1-.3.6.6,0,0,1,.1-.4v-.5h0V0Z"/><path class="cls-1" d="M5.8,0H5.1V.1H1.9V.2H1.8V.3H1.7L1.6.4V.5L1.5.6,1.4.7,1.3.8V.9L1.2,1v.1l-.1.1L1,1.3v.1l-.1.1v.1a.1.1,0,0,1-.1.1v.1a.1.1,0,0,1-.1.1v.2a.1.1,0,0,1-.1.1v.1a.1.1,0,0,1-.1.1v.2c0,.1,0,.1-.1.2V3c0,.1,0,.1-.1.2v.2A4.1,4.1,0,0,0,.2,4.5V17.8a.1.1,0,0,1,.1.1H7.9v-.1l.1-.1v-.1l.1-.1v-.1l.1-.1a.1.1,0,0,1,.1-.1v-.1a.1.1,0,0,1,.1-.1v-.1a.1.1,0,0,1,.1-.1v-.4a.76.76,0,0,1,.1-.4V9.5h4.7v7.1c0,.1,0,.2-.1.2V17c0,.1,0,.1-.1.2v.1a.1.1,0,0,1-.1.1v.1a5307613918316.38,5307613918316.38,0,0,1-.2.2v.1a.1.1,0,0,1-.1.1V18l-.1.1-.1.1v.1l-.1.1v.1l-.1.1v.1h-.1v.1H0V30.1H12.1V30h.1v-.1h.1l.1-.1h0l.1-.1v-.1l.1-.1v-.1l.1-.1v-.1l.1-.1.1-.1v-.1l.1-.1v-.1a1414197.33,1414197.33,0,0,1,.2-.2v-.1a.1.1,0,0,1,.1-.1v-.1a.1.1,0,0,1,.1-.1v-.2a.1.1,0,0,1,.1-.1v-.1c0-.1,0-.1.1-.1v-.4c0-.1,0-.1.1-.2v-.2a.37.37,0,0,1,.1-.3v-.7h0V0Z"/><path class="cls-1" d="M35.9,15.2h1l.1-.1V15l.1-.1v-.1a1414169.92,1414169.92,0,0,1,.2-.2v-1a1414169.82,1414169.82,0,0,1-.2-.2v-.1l-.1-.1v-.1H33v2.6h2.9C35.8,15.2,35.8,15.2,35.9,15.2Z"/><path class="cls-1" d="M33,19.6h4.1l.1-.1.1-.1.1-.1v-.2a.1.1,0,0,1,.1-.1c0-.1,0-.1.1-.2v-.6c0-.1,0-.1-.1-.2a.1.1,0,0,0-.1-.1v-.3l-.1-.1-.1-.1h0l-.1-.1H33Z"/></svg>