<svg id="Слой_1" data-name="Слой 1" xmlns="http://www.w3.org/2000/svg" width="52px" height="52px" viewBox="0 0 53 53"><defs><style>.cls-1{fill:none;stroke:#a2a2a2;stroke-miterlimit:10;}.cls-2{fill:#adadad;}.cls-3{fill:#ff1a44;}</style></defs><title>icon-feat-33</title><rect class="cls-1" x="0.5" y="0.5" width="52" height="52"/><path class="cls-2" d="M26,10.72c-4.51,0-9,1.75-11.2,3.66a.66.66,0,0,0-.21.42L12.84,26.64v.11c0,5.2,2.07,8,4.72,9.71s5.73,2.76,8,4.72a.72.72,0,0,0,.9,0c2.28-2,5.36-3,8-4.78s4.72-4.51,4.72-9.71v-.11L37.46,14.75a.66.66,0,0,0-.21-.42,18,18,0,0,0-8.33-3.4.7.7,0,0,0-.21,1.38,17,17,0,0,1,7.43,3l1.7,11.41h0c0,4.83-1.75,7-4.14,8.54s-5.2,2.49-7.69,4.46c-2.49-2-5.41-2.92-7.69-4.46s-4.14-3.71-4.14-8.54h0l1.7-11.41A18.21,18.21,0,0,1,26,12.1a.7.7,0,0,0,.69-.69.67.67,0,0,0-.69-.69Z" transform="translate(0.5 0.5)"/><path class="cls-3" d="M30.3,15.76a.8.8,0,0,0-.58-.21.62.62,0,0,0-.58.48c-.58,1.7-2.87,3.18-5.15,4.78a19,19,0,0,0-3.13,2.6A5.54,5.54,0,0,0,19.37,27a5.69,5.69,0,0,0,1.11,3.56,5.48,5.48,0,0,0-1.75,2.87.7.7,0,1,0,1.33.48c0-.05.05-.11.05-.16a3.9,3.9,0,0,1,1.43-2.23,8.07,8.07,0,0,0,4.88,1.38,6.49,6.49,0,0,0,5-2.65,9.38,9.38,0,0,0,1.91-5.68C33.32,21.65,32.53,18,30.3,15.76Zm0,13.69a4.87,4.87,0,0,1-3.93,2.12,7.18,7.18,0,0,1-3.66-.85c.48-.27,1-.58,1.49-.9,2-1.17,4.35-2.76,5.25-6.1a.68.68,0,0,0-.48-.85.34.34,0,0,0-.32,0,.83.83,0,0,0-.58.53c-.8,2.92-2.65,4.14-4.62,5.25-.64.37-1.27.74-1.86,1.11A4.37,4.37,0,0,1,20.8,27,4,4,0,0,1,22,24.3a16.66,16.66,0,0,1,2.87-2.39c1.86-1.33,3.93-2.6,5.09-4.4a13.16,13.16,0,0,1,2,7.06A8.56,8.56,0,0,1,30.3,29.45Z" transform="translate(0.5 0.5)"/></svg>
