<svg id="Layer_1" data-name="Layer 1" xmlns="http://www.w3.org/2000/svg" width="52px" height="52px" viewBox="0 0 52 52"><defs><style>.cls-1{fill:none;stroke:#a2a2a2;stroke-miterlimit:10;}.cls-2{fill:#ff1a46;}</style></defs><title>icon-feat-6</title><rect class="cls-1" x="0.5" y="0.5" width="50" height="50"/><path class="cls-2" d="M43.9,25.1h-.7c-.7-3.7-3.7-6.1-8-6.1a14.92,14.92,0,0,0-2.1.2H16.6a13.61,13.61,0,0,0-2.1-.2c-4.3,0-7.3,2.3-8,6.1H5.8a.9.9,0,0,0,0,1.8h.5c0,4.4,2.9,7.9,6.6,7.9,4.3,0,9.7-5.2,10.1-9.4h0c0-1.1.7-2.1,1.5-2.1h.6c.8,0,1.5,1,1.5,2.1h0c.4,4.3,5.8,9.4,10.1,9.4,3.6,0,6.6-3.5,6.6-7.9h.5a.9.9,0,0,0,.9-.9A.81.81,0,0,0,43.9,25.1ZM13,33c-2.6,0-4.7-2.7-4.7-6.1,0-3.8,2.4-6.1,6.3-6.1,3.6,0,6.7,1.9,6.7,4.1C21.2,28.3,16.4,33,13,33ZM25.2,21.6h-.6a3.26,3.26,0,0,0-2.3,1,6.4,6.4,0,0,0-1.4-1.5h7.9a5,5,0,0,0-1.4,1.5A2.87,2.87,0,0,0,25.2,21.6ZM36.8,33c-3.4,0-8.3-4.7-8.3-8,0-2.2,3-4.1,6.7-4.1,4,0,6.3,2.3,6.3,6.1C41.5,30.3,39.4,33,36.8,33Z"/><rect class="cls-2" x="36.9" y="13.44" width="4.5" height="1.8" transform="matrix(0.25, -0.97, 0.97, 0.25, 15.46, 48.65)"/><rect class="cls-2" x="32.42" y="12.69" width="1.8" height="4.5" transform="translate(-3.19 15.67) rotate(-25.3)"/><rect class="cls-2" x="41.72" y="17.81" width="4.1" height="1.8" transform="translate(-3.4 25.12) rotate(-30.88)"/><path class="cls-2" d="M14.8,23.9a.85.85,0,0,0-1.3,0l-3.4,3.4a.85.85,0,0,0,0,1.3,1,1,0,0,0,1.4,0l3.4-3.4A1,1,0,0,0,14.8,23.9Z"/><path class="cls-2" d="M18.4,23.5l-5,5a.85.85,0,0,0,0,1.3.91.91,0,0,0,.7.3,1.08,1.08,0,0,0,.7-.3l4.9-4.9a.85.85,0,0,0,0-1.3A1,1,0,0,0,18.4,23.5Z"/><path class="cls-2" d="M35.3,23.9a.85.85,0,0,0-1.3,0l-3.4,3.4a.85.85,0,0,0,0,1.3.91.91,0,0,0,.7.3,1.08,1.08,0,0,0,.7-.3l3.4-3.4A1,1,0,0,0,35.3,23.9Z"/><path class="cls-2" d="M38.8,23.5l-4.9,5a.85.85,0,0,0,0,1.3.91.91,0,0,0,.7.3,1.08,1.08,0,0,0,.7-.3l4.9-4.9a.85.85,0,0,0,0-1.3A1.07,1.07,0,0,0,38.8,23.5Z"/></svg>
