<svg xmlns="http://www.w3.org/2000/svg" width="90" viewBox="0 0 89.32 81.1"><defs><style>.cls-1{fill:#ff1a44;}</style></defs><title>icon-zamer</title><path class="cls-1" d="M11.3 23.2a1.09 1.09 0 0 0-1.5 0l-9.5 9.5a1 1 0 0 0-.3.8 1.33 1.33 0 0 0 .3.8l46.5 46.5a1 1 0 0 0 .8.3 1.14 1.14 0 0 0 .8-.3l9.5-9.5a1.09 1.09 0 0 0 0-1.5zm36.2 55.4l-2.6-2.6 2.5-2.5a1.06 1.06 0 0 0-1.5-1.5l-2.6 2.4-1.6-1.6 2.5-2.5a1.06 1.06 0 0 0-1.5-1.5l-2.5 2.5-1.8-1.8 2.5-2.5a1.06 1.06 0 0 0-1.5-1.5l-2.5 2.5-1.6-1.6 2.5-2.5a1.06 1.06 0 0 0-1.5-1.5l-2.7 2.3-1.4-1.5 2.5-2.5a1.06 1.06 0 0 0-1.5-1.5l-2.5 2.5-1.6-1.6 2.5-2.6a1.06 1.06 0 0 0-1.5-1.5l-2.6 2.5-1.6-1.5 2.5-2.5a1.06 1.06 0 0 0-1.5-1.5l-2.5 2.5-1.6-1.6 2.5-2.5a1.06 1.06 0 0 0-1.5-1.5l-2.5 2.5-1.6-1.6 2.5-2.5a1.06 1.06 0 0 0-1.5-1.5l-2.5 2.5-1.6-1.6 2.5-2.5a1.06 1.06 0 0 0-1.5-1.5l-2.4 2.6-1.6-1.6 2.5-2.5a1.06 1.06 0 0 0-1.5-1.5l-2.5 2.5-1.6-1.6 2.5-2.5a1.06 1.06 0 0 0-1.5-1.5l-2.5 2.5-1.5-1.5 2.5-2.5a1.06 1.06 0 0 0-1.5-1.5l-2.5 2.5-3-3 8-8 45 45zm21.5-63.4a7.19 7.19 0 0 0-10 0l-15.9 16-25.8-25.8 3.6-3.6a1.09 1.09 0 0 0 0-1.5 1.09 1.09 0 0 0-1.5 0l-4.4 4.4a1.09 1.09 0 0 0 0 1.5l26.5 26.5-.7.8a7.19 7.19 0 0 0 0 10l18.3 18.3a7.26 7.26 0 0 0 4.9 2.1 6.66 6.66 0 0 0 4.9-2.1l18.4-18.3a7.19 7.19 0 0 0 0-10zm16.8 26.6l-18.4 18.3a4.77 4.77 0 0 1-6.8 0l-18.3-18.3a4.77 4.77 0 0 1 0-6.8l1.5-1.5 16.8-16.8a4.68 4.68 0 0 1 3.4-1.4 4.53 4.53 0 0 1 3.4 1.4l18.3 18.3a4.86 4.86 0 0 1 .1 6.8zM64 26.6a11.64 11.64 0 0 0-8.4 3.5 12.06 12.06 0 0 0-3.5 8.4 11.64 11.64 0 0 0 3.5 8.4 12.06 12.06 0 0 0 8.4 3.5 11.64 11.64 0 0 0 8.4-3.5 12.06 12.06 0 0 0 3.5-8.4 11.64 11.64 0 0 0-3.5-8.4 11.48 11.48 0 0 0-8.4-3.5zm6.8 18.7a9.55 9.55 0 1 1 3-6.9 10 10 0 0 1-3 6.9z"/></svg>