<svg id="Layer_1" data-name="Layer 1" xmlns="http://www.w3.org/2000/svg" width="140px" height="140px" viewBox="0 0 138 138"><defs><style>.cls-1{fill:#fff;}.cls-2{fill:#ff1a44;stroke:#fff;stroke-miterlimit:10;}</style></defs><title>icon-advan-3</title><circle class="cls-1" cx="69" cy="69" r="69"/><path class="cls-2" d="M111.3,71.4,96.9,57V45.7a1.5,1.5,0,1,0-3,0V54L75.6,35.7a1.45,1.45,0,0,0-2.1,0L37.7,71.4a1.45,1.45,0,0,0,0,2.1,1.71,1.71,0,0,0,2.2,0l6.4-6.4v41.1a1.54,1.54,0,0,0,1.5,1.5h53.6a1.54,1.54,0,0,0,1.5-1.5v-41l6.4,6.4a1.71,1.71,0,0,0,2.2,0A1.82,1.82,0,0,0,111.3,71.4ZM99.9,106.8H49.2V64.2L74.5,38.9,99.8,64.2l.1,42.6Z" transform="translate(-5.5 -6.5)"/><path class="cls-2" d="M86.4,68c-4,0-7.4-2-7.4-4.5A1.54,1.54,0,0,0,77.5,62h-6A1.54,1.54,0,0,0,70,63.5c0,2.4-3.4,4.5-7.4,4.5a1.54,1.54,0,0,0-1.5,1.5v8.9c0,7.2,11.3,15.2,12.6,16.1a1.5,1.5,0,0,0,1.8,0c1.3-.9,12.6-9,12.6-16.1V69.5A1.81,1.81,0,0,0,86.4,68ZM85,78.5c0,4.4-6.9,10.4-10.4,13.1C71.1,89,64.2,82.9,64.2,78.5V71c4.4-.4,7.9-2.8,8.7-5.9h3.4c.8,3.1,4.3,5.5,8.7,5.9Z" transform="translate(-5.5 -6.5)"/></svg>
