<svg id="Layer_1" data-name="Layer 1" xmlns="http://www.w3.org/2000/svg" viewBox="0 0 66 43.8"><defs><style>.cls-1{fill:#fff;}</style></defs><title>icon-sopr-rab</title><path class="cls-1" d="M24.1,28.9V6.5a.9.9,0,0,0-.9-.9H12.1a.75.75,0,0,0-.7.4L3,17.2c-.1.2-.2.3-.2.5V28.9a.9.9,0,1,0,1.8,0V18L12.5,7.4h9.8V28.8a.9.9,0,0,0,.9.9A.82.82,0,0,0,24.1,28.9Z"/><path class="cls-1" d="M17.6,11.2H14.8a.67.67,0,0,0-.7.4L8.5,20a.75.75,0,0,0,0,.9,1,1,0,0,0,.8.5h8.4a.9.9,0,0,0,.9-.9V12.1A1.06,1.06,0,0,0,17.6,11.2Zm-.8,8.4H11L15.4,13h1.4Z"/><path class="cls-1" d="M59.5,28H29l-5.4-2.7a.6.6,0,0,0-.4-.1h-.3a.82.82,0,0,0-.5.5,1,1,0,0,0,.4,1.2l5.6,2.8a.6.6,0,0,0,.4.1H58.6v4.7a.9.9,0,0,0,1.8,0V28.9A.9.9,0,0,0,59.5,28Z"/><path class="cls-1" d="M3.7,33.6H1.8V29.8H3.7a.9.9,0,1,0,0-1.8H.9a.9.9,0,0,0-.9.9v5.6a.9.9,0,0,0,.9.9H3.7a.9.9,0,1,0,0-1.8Z"/><path class="cls-1" d="M10.7,33.6a5.1,5.1,0,1,0,5.1,5.1A5.12,5.12,0,0,0,10.7,33.6Zm0,8.3A3.3,3.3,0,1,1,14,38.6,3.33,3.33,0,0,1,10.7,41.9Z"/><path class="cls-1" d="M35.8,33.6a5.1,5.1,0,1,0,5.1,5.1A5.12,5.12,0,0,0,35.8,33.6Zm0,8.3a3.3,3.3,0,1,1,3.3-3.3A3.33,3.33,0,0,1,35.8,41.9Z"/><path class="cls-1" d="M52.5,33.6a5.1,5.1,0,1,0,5.1,5.1A5.12,5.12,0,0,0,52.5,33.6Zm0,8.3a3.33,3.33,0,0,1-3.3-3.3,3.24,3.24,0,0,1,3.3-3.2,3.33,3.33,0,0,1,3.3,3.3A3.18,3.18,0,0,1,52.5,41.9Z"/><path class="cls-1" d="M28.8,33.6H17.6a.9.9,0,0,0,0,1.8H28.8a.9.9,0,0,0,0-1.8Z"/><path class="cls-1" d="M45.6,33.6H42.8a.9.9,0,0,0,0,1.8h2.8a.9.9,0,1,0,0-1.8Z"/><path class="cls-1" d="M28.8,24.2H59.5a.71.71,0,0,0,.6-.3l5.6-5.6a.86.86,0,0,0,.3-.6V6.5a.9.9,0,0,0-.9-.9H29.7V.9a.9.9,0,0,0-.9-.9H23.2a.9.9,0,1,0,0,1.8h4.7V23.2A.92.92,0,0,0,28.8,24.2Zm.9-16.8H64.2v9.9l-5.1,5.1H29.7Z"/></svg>