<svg id="Layer_1" data-name="Layer 1" xmlns="http://www.w3.org/2000/svg" width="140px" height="140px" viewBox="0 0 138 138"><defs><style>.cls-1{fill:#fff;}.cls-2{fill:#ff1a44;stroke:#ff1a44;stroke-miterlimit:10;stroke-width:0.5px;}</style></defs><title>icon-advan-2</title><circle class="cls-1" cx="69" cy="69" r="69"/><path class="cls-2" d="M35.2,46A.6.6,0,0,0,34,46V56.1a.6.6,0,1,0,1.2,0Z" transform="translate(-6 -6.5)"/><path class="cls-2" d="M34.7,58.8a.58.58,0,0,0-.6.6v3.2a.6.6,0,1,0,1.2,0V59.4Q35.15,58.8,34.7,58.8Z" transform="translate(-6 -6.5)"/><path class="cls-2" d="M46.3,48.1,45,46.7a.64.64,0,0,0-.9.9L45.4,49a.5.5,0,0,0,.8,0A.64.64,0,0,0,46.3,48.1Z" transform="translate(-6 -6.5)"/><path class="cls-2" d="M49.3,51.2a.64.64,0,0,0-.9.9l1.3,1.4a.5.5,0,0,0,.8,0,.75.75,0,0,0,0-.9Z" transform="translate(-6 -6.5)"/><path class="cls-2" d="M45.5,51.2l-1.3,1.4a.75.75,0,0,0,0,.9.5.5,0,0,0,.8,0l1.3-1.4a.75.75,0,0,0,0-.9A.61.61,0,0,0,45.5,51.2Z" transform="translate(-6 -6.5)"/><path class="cls-2" d="M50.7,46.7a.75.75,0,0,0-.9,0l-1.3,1.4a.75.75,0,0,0,0,.9.5.5,0,0,0,.8,0l1.3-1.4A.65.65,0,0,0,50.7,46.7Z" transform="translate(-6 -6.5)"/><path class="cls-2" d="M100.6,50.3a.64.64,0,1,0-.9.9l1.3,1.4a.5.5,0,0,0,.8,0,.75.75,0,0,0,0-.9Z" transform="translate(-6 -6.5)"/><path class="cls-2" d="M105.1,54.7a.64.64,0,0,0-.9.9l1.3,1.4a.5.5,0,0,0,.8,0,.75.75,0,0,0,0-.9Z" transform="translate(-6 -6.5)"/><path class="cls-2" d="M101.2,54.7l-1.3,1.4a.75.75,0,0,0,0,.9.5.5,0,0,0,.8,0l1.3-1.4a.75.75,0,0,0,0-.9A.6.6,0,0,0,101.2,54.7Z" transform="translate(-6 -6.5)"/><path class="cls-2" d="M105.5,50.3l-1.3,1.4a.75.75,0,0,0,0,.9.5.5,0,0,0,.8,0l1.3-1.4a.75.75,0,0,0,0-.9C106.2,50,105.8,50,105.5,50.3Z" transform="translate(-6 -6.5)"/><path class="cls-2" d="M56.8,60.4c0,3.8,1.4,6.6,3.2,6.6h.2A22.78,22.78,0,0,0,66,76.4h0v6.2a.6.6,0,1,0,1.2,0V77.3A14.63,14.63,0,0,0,76,80.5a13.82,13.82,0,0,0,8.8-3.2v5.3a.6.6,0,1,0,1.2,0V76.3h0a21.21,21.21,0,0,0,5.8-9.4H92c1.9,0,3.2-2.8,3.2-6.6,0-3.2-.9-5.7-2.4-6.4v-.2c.2-2.1.6-4.2.6-6.3.6-9.2-1.8-10.4-6.3-11.8-.3-.1-.7-.2-1.1-.3a31.54,31.54,0,0,0-10.1-1.5,34.42,34.42,0,0,0-10,1.5,4.51,4.51,0,0,1-1.1.3c-4.6,1.5-6.9,2.6-6.3,11.8.1,1.3.2,2.6.4,3.9-.1.2-.2.4,0,.6a.35.35,0,0,1,.1.2,9.85,9.85,0,0,1,.2,1.7V54C57.7,54.6,56.8,57.1,56.8,60.4Zm37.3,0c0,3.1-1.1,5.4-2.1,5.4a.37.37,0,0,1-.3-.1.45.45,0,0,0-.5,0c-.2.1-.2.2-.3.4-2.4,8-8.3,13.2-14.9,13.2S63.5,74.1,61.1,66.1a1.38,1.38,0,0,0-.3-.4.35.35,0,0,1-.2-.1c-.1,0-.2,0-.2.1-.2.1-.2.1-.3.1-.9,0-2.1-2.3-2.1-5.4s1-5.2,1.9-5.3a.82.82,0,0,0,.5-.5v-.2c0-.1.1-.2.1-.4,1.1,1.1,1.8,2.3,3.8,2.4,0,.2-.1.5-.1.7a4.7,4.7,0,0,0,9.4.4c1.1-.6,3.7-.2,4.1,0a4.7,4.7,0,0,0,9.4-.4,1.7,1.7,0,0,0-.1-.7c2.4-.2,3.5-1.9,4.5-3.2a4.25,4.25,0,0,1,.2,1.1h0v.3h0v.1a.82.82,0,0,0,.5.5C93,55.2,94.1,57.3,94.1,60.4Zm-23.9-14a2.48,2.48,0,0,1-.9-3.1c3.9,3.6,7.5,3.3,7.6,3.3s8.4-.1,11.4.2c1.3.2,2.4,2.5,2.9,4.6-.6.9-1.7,3.5-4.5,3.6a4.68,4.68,0,0,0-8.9,1.1,11.82,11.82,0,0,0-4.2,0A4.8,4.8,0,0,0,69,52.2,4.89,4.89,0,0,0,64.7,55c-2.1,0-2.8-1.5-3.8-2.6A15,15,0,0,1,63,47.5c.9-1.1,4.7-.6,6.8-.1a.67.67,0,0,0,.7-.3A1.33,1.33,0,0,0,70.2,46.4ZM85.8,57.1a3.56,3.56,0,0,1-3.5,3.6,3.5,3.5,0,0,1-3.5-3.6,3.56,3.56,0,0,1,3.5-3.6A3.5,3.5,0,0,1,85.8,57.1Zm-17-3.6a3.5,3.5,0,0,1,3.5,3.6,3.56,3.56,0,0,1-3.5,3.6,3.5,3.5,0,0,1-3.5-3.6A3.63,3.63,0,0,1,68.8,53.5ZM65.2,36.7l1.1-.3A32.36,32.36,0,0,1,76,34.9a29.48,29.48,0,0,1,9.7,1.5,6.15,6.15,0,0,0,1.1.3c4,1.3,6.1,1.9,5.5,10.6-.1,1.1-.2,2.1-.2,3.2-.6-2.2-1.8-4.5-3.7-4.7-3.1-.3-11.2-.3-11.6-.2,0,0-3.5.2-7.3-3.5a.55.55,0,0,0-.5-.2.52.52,0,0,0-.4.2,3.89,3.89,0,0,0-.4,4c-2-.3-5-.6-6.2.8a13.68,13.68,0,0,0-2,4.2c-.2-1.2-.2-2.5-.3-3.7C59.1,38.6,61.2,38,65.2,36.7Z" transform="translate(-6 -6.5)"/><path class="cls-2" d="M81.1,69.8c-5.3,4.9-10.7.2-11,0a.64.64,0,0,0-.8,1,11.19,11.19,0,0,0,6.5,2.5,8.63,8.63,0,0,0,6-2.5.94.94,0,0,0,.1-.9C81.7,69.6,81.3,69.5,81.1,69.8Z" transform="translate(-6 -6.5)"/><path class="cls-2" d="M78.3,75.3a7.25,7.25,0,0,1-5.4-.2.6.6,0,1,0-.5,1.1,8.16,8.16,0,0,0,3.4.6,7.17,7.17,0,0,0,2.9-.6.55.55,0,0,0,.3-.8C78.9,75.4,78.6,75.2,78.3,75.3Z" transform="translate(-6 -6.5)"/><path class="cls-2" d="M126.9,68.2h-8V64.6a.58.58,0,0,0-.6-.6H107.6a.58.58,0,0,0-.6.6v3.6H99a2.33,2.33,0,0,0-2.3,2.3V85.7a42.21,42.21,0,0,0-9.5-1c-.2,0-.4.2-.6.3A54.89,54.89,0,0,1,81,94.2L79.9,89l1.8-3.2a.64.64,0,0,0,0-.6.6.6,0,0,0-.6-.3H70.8a.86.86,0,0,0-.6.3c-.2.2-.1.4,0,.6l1.9,3.3-1.3,5.2a57.57,57.57,0,0,1-5.7-9.2.6.6,0,0,0-.6-.3,40.94,40.94,0,0,0-9.8,1.1V71.1a2.46,2.46,0,0,0-2.4-2.5h-21a2.46,2.46,0,0,0-2.4,2.5V97.5a2.46,2.46,0,0,0,2.4,2.5H43.6c-.6,1.9-1.1,3.7-1.6,5.7a.44.44,0,0,0,.1.5c.1.2.3.2.5.2h66.7a.76.76,0,0,0,.5-.2.61.61,0,0,0,.1-.6c-2.5-10-4.5-13.9-4.8-14.4a1.07,1.07,0,0,1-.2-.6H127a2.33,2.33,0,0,0,2.3-2.3V70.4A2.48,2.48,0,0,0,126.9,68.2Zm-18.7-3h9.5v3h-9.5Zm-28,20.9-1.3,2.2H73.1l-1.3-2.2Zm-7,3.4h5.5l1.4,5.9a38.66,38.66,0,0,1-4.2,4.2,29.23,29.23,0,0,1-4.1-4.1Zm-43,8V71.1a1.32,1.32,0,0,1,1.3-1.3H52.6a1.32,1.32,0,0,1,1.3,1.3V97.5a1.32,1.32,0,0,1-1.3,1.3H31.4A1.38,1.38,0,0,1,30.2,97.5Zm73.7-5.9h0c.1.1,2.1,3.6,4.6,13.4h-65c.5-1.8.9-3.5,1.5-5.3h7.6A2.46,2.46,0,0,0,55,97.2V87.1A41.37,41.37,0,0,1,64.4,86c5.2,10.6,11,14.7,11.3,14.8h.2a.35.35,0,0,1,.2.1h0c.1,0,.2,0,.2-.1h.2a32.49,32.49,0,0,0,5-4.9,49.05,49.05,0,0,0,6.4-10,43.67,43.67,0,0,1,9.1,1v1.3a2.26,2.26,0,0,0,2.3,2.3h4.4C103.7,91,103.9,91.3,103.9,91.6ZM128,88.3a1.11,1.11,0,0,1-1.1,1.1H99a1.11,1.11,0,0,1-1.1-1.1V70.5A1.11,1.11,0,0,1,99,69.4h27.7a1.11,1.11,0,0,1,1.1,1.1l.2,17.8Z" transform="translate(-6 -6.5)"/><path class="cls-2" d="M124,74.3H102a.6.6,0,1,0,0,1.2h22a.58.58,0,0,0,.6-.6Q124.45,74.3,124,74.3Z" transform="translate(-6 -6.5)"/><path class="cls-2" d="M124,78.8H102a.6.6,0,1,0,0,1.2h22a.58.58,0,0,0,.6-.6C124.5,79.1,124.3,78.8,124,78.8Z" transform="translate(-6 -6.5)"/><path class="cls-2" d="M124,83.3H102a.6.6,0,1,0,0,1.2h22a.58.58,0,0,0,.6-.6C124.5,83.6,124.3,83.3,124,83.3Z" transform="translate(-6 -6.5)"/><path class="cls-2" d="M51.2,71.7H32.7a.58.58,0,0,0-.6.6v4.9a.58.58,0,0,0,.6.6H51.3a.58.58,0,0,0,.6-.6V72.3A.67.67,0,0,0,51.2,71.7Zm-.5,5H33.3V73H50.7Z" transform="translate(-6 -6.5)"/><path class="cls-2" d="M39,82.9H37.4V81.3a.6.6,0,0,0-1.2,0v1.6H34.6a.6.6,0,0,0,0,1.2h1.6v1.6a.6.6,0,0,0,1.2,0V84.1H39a.58.58,0,0,0,.6-.6A.53.53,0,0,0,39,82.9Z" transform="translate(-6 -6.5)"/><path class="cls-2" d="M38.9,90.8a.75.75,0,0,0-.9,0L36.9,92l-1.2-1.1a.64.64,0,1,0-.9.9l1.1,1.1-1,1.2a.75.75,0,0,0,0,.9.5.5,0,0,0,.8,0l1.1-1.1L37.9,95a.5.5,0,0,0,.8,0,.75.75,0,0,0,0-.9L37.6,93l1.3-1.2A.91.91,0,0,0,38.9,90.8Z" transform="translate(-6 -6.5)"/><path class="cls-2" d="M49,82.9H44.6a.6.6,0,0,0,0,1.2H49a.58.58,0,0,0,.6-.6Q49.45,82.9,49,82.9Z" transform="translate(-6 -6.5)"/><path class="cls-2" d="M47.1,94.6c-.1-.1-.2-.1-.2-.2a.45.45,0,0,0-.5,0,.22.22,0,0,0-.2.2c-.1.1-.1.2-.2.2a.35.35,0,0,1-.1.2.52.52,0,0,0,.2.4c.1.1.2.1.2.2a.35.35,0,0,1,.2.1s.2,0,.2-.1a.22.22,0,0,0,.2-.2.52.52,0,0,0,.2-.4c0-.1,0-.2-.1-.2C47.2,94.7,47.2,94.7,47.1,94.6Z" transform="translate(-6 -6.5)"/><path class="cls-2" d="M49,92.3H44.6a.6.6,0,0,0,0,1.2H49a.58.58,0,0,0,.6-.6Q49.45,92.3,49,92.3Z" transform="translate(-6 -6.5)"/><path class="cls-2" d="M46.7,91.3c.1,0,.2,0,.2-.1a.22.22,0,0,0,.2-.2.5.5,0,0,0,0-.8c-.1-.1-.1,0-.1-.1a.45.45,0,0,0-.5,0,.22.22,0,0,0-.2.2.5.5,0,0,0,0,.8c.1.1.2.1.2.2Z" transform="translate(-6 -6.5)"/><path class="cls-2" d="M77.4,38.1c.1,0,7.2.4,10.1,2.6a.37.37,0,0,0,.3.1.76.76,0,0,0,.5-.2c.2-.2.2-.6-.2-.9-3.2-2.4-10.4-2.8-10.7-2.8a.58.58,0,0,0-.6.6C76.7,37.9,77,38.1,77.4,38.1Z" transform="translate(-6 -6.5)"/><path class="cls-2" d="M86.3,96.2a.58.58,0,0,0,.6.6H99.6a.6.6,0,0,0,0-1.2H87A.6.6,0,0,0,86.3,96.2Z" transform="translate(-6 -6.5)"/></svg>
