<?xml version="1.0" encoding="utf-8"?>
<!-- Generator: Adobe Illustrator 21.0.2, SVG Export Plug-In . SVG Version: 6.00 Build 0)  -->
<svg version="1.1" id="Layer_1" xmlns="http://www.w3.org/2000/svg" xmlns:xlink="http://www.w3.org/1999/xlink" x="0px" y="0px"
	 viewBox="0 0 153 147" style="enable-background:new 0 0 153 147;" xml:space="preserve">
<style type="text/css">
	.st0{fill:#FFFFFF;}
</style>
<g>
	<g>
		<path class="st0" d="M67.6,80.5V58.1c0-0.5-0.4-0.9-0.9-0.9H55.6c-0.3,0-0.5,0.1-0.7,0.4l-8.4,11.2c-0.1,0.2-0.2,0.3-0.2,0.5v11.2
			c0,0.5,0.4,0.9,0.9,0.9s0.9-0.4,0.9-0.9V69.6L56,59h9.8v21.4c0,0.5,0.4,0.9,0.9,0.9S67.6,81,67.6,80.5z"/>
		<path class="st0" d="M61.1,62.8h-2.8c-0.3,0-0.6,0.1-0.7,0.4L52,71.6c-0.2,0.3-0.2,0.6,0,0.9c0.2,0.3,0.5,0.5,0.8,0.5h8.4
			c0.5,0,0.9-0.4,0.9-0.9v-8.4C62,63.2,61.6,62.8,61.1,62.8z M60.3,71.2h-5.8l4.4-6.6h1.4V71.2z"/>
		<path class="st0" d="M103,79.6H72.5l-5.4-2.7c-0.1-0.1-0.3-0.1-0.4-0.1c-0.1,0-0.2,0-0.3,0c-0.2,0.1-0.4,0.2-0.5,0.5
			c-0.2,0.4,0,1,0.4,1.2l5.6,2.8c0.1,0.1,0.3,0.1,0.4,0.1h29.8v4.7c0,0.5,0.4,0.9,0.9,0.9s0.9-0.4,0.9-0.9v-5.6
			C103.9,80,103.5,79.6,103,79.6z"/>
		<path class="st0" d="M47.2,85.2h-1.9v-3.8h1.9c0.5,0,0.9-0.4,0.9-0.9c0-0.5-0.4-0.9-0.9-0.9h-2.8c-0.5,0-0.9,0.4-0.9,0.9v5.6
			c0,0.5,0.4,0.9,0.9,0.9h2.8c0.5,0,0.9-0.4,0.9-0.9S47.7,85.2,47.2,85.2z"/>
		<path class="st0" d="M54.2,85.2c-2.8,0-5.1,2.3-5.1,5.1s2.3,5.1,5.1,5.1c2.8,0,5.1-2.3,5.1-5.1S57,85.2,54.2,85.2z M54.2,93.5
			c-1.8,0-3.3-1.5-3.3-3.3s1.5-3.3,3.3-3.3c1.8,0,3.3,1.5,3.3,3.3S56,93.5,54.2,93.5z"/>
		<path class="st0" d="M79.3,85.2c-2.8,0-5.1,2.3-5.1,5.1s2.3,5.1,5.1,5.1c2.8,0,5.1-2.3,5.1-5.1S82.1,85.2,79.3,85.2z M79.3,93.5
			c-1.8,0-3.3-1.5-3.3-3.3s1.5-3.3,3.3-3.3c1.8,0,3.3,1.5,3.3,3.3S81.1,93.5,79.3,93.5z"/>
		<path class="st0" d="M96,85.2c-2.8,0-5.1,2.3-5.1,5.1s2.3,5.1,5.1,5.1c2.8,0,5.1-2.3,5.1-5.1S98.8,85.2,96,85.2z M96,93.5
			c-1.8,0-3.3-1.5-3.3-3.3S94.2,87,96,87c1.8,0,3.3,1.5,3.3,3.3S97.9,93.5,96,93.5z"/>
		<path class="st0" d="M72.3,85.2H61.1c-0.5,0-0.9,0.4-0.9,0.9s0.4,0.9,0.9,0.9h11.2c0.5,0,0.9-0.4,0.9-0.9S72.8,85.2,72.3,85.2z"/>
		<path class="st0" d="M89.1,85.2h-2.8c-0.5,0-0.9,0.4-0.9,0.9s0.4,0.9,0.9,0.9h2.8c0.5,0,0.9-0.4,0.9-0.9S89.6,85.2,89.1,85.2z"/>
		<path class="st0" d="M72.3,75.8H103c0.2,0,0.5-0.1,0.6-0.3l5.6-5.6c0.2-0.2,0.3-0.4,0.3-0.6V58.1c0-0.5-0.4-0.9-0.9-0.9H73.2v-4.7
			c0-0.5-0.4-0.9-0.9-0.9h-5.6c-0.5,0-0.9,0.4-0.9,0.9s0.4,0.9,0.9,0.9h4.7v21.4C71.4,75.4,71.8,75.8,72.3,75.8z M73.2,59h34.5v9.9
			l-5.1,5.1H73.2V59z"/>
	</g>
</g>
</svg>
