<svg xmlns="http://www.w3.org/2000/svg" width="86" viewBox="0 0 86 86"><defs><style>.cls-1{fill:#8d8d8d;}.cls-2{fill:#ff1a46;}</style></defs><title>icon-func-1</title><path class="cls-1" d="M85 1v84h-84v-84h84m1-1h-86v86h86v-86z"/><path class="cls-2" d="M33.4 19.7a8.07 8.07 0 0 1 8.1 8.1 7.85 7.85 0 0 1-4.7 7.3v27.9a3.4 3.4 0 1 1-6.8 0v-27.9a8.06 8.06 0 0 1-4.7-7.3 8.2 8.2 0 0 1 8.1-8.1m0-1.5a9.56 9.56 0 0 0-4.9 17.8v27a4.9 4.9 0 1 0 9.8 0v-27a9.49 9.49 0 0 0 4.7-8.2 9.6 9.6 0 0 0-9.6-9.6z"/><path class="cls-1" d="M33.5 22.9a4.8 4.8 0 0 1 4.8 4.8 4.62 4.62 0 0 1-3.3 4.5l-.8.2v6.9a.7.7 0 1 1-1.4 0v-6.9l-.8-.2a4.71 4.71 0 0 1-3.3-4.5 4.8 4.8 0 0 1 4.8-4.8m0-1.1a5.89 5.89 0 0 0-1.8 11.5v6.1a1.8 1.8 0 0 0 3.6 0v-6.1a5.82 5.82 0 0 0 4.1-5.6 6 6 0 0 0-5.9-5.9z"/><path class="cls-2" d="M54.7 19.7a3.37 3.37 0 0 1 3.4 3.4v27.9a8.08 8.08 0 1 1-11.5 7.3 7.85 7.85 0 0 1 4.7-7.3v-28a3.35 3.35 0 0 1 3.4-3.3m0-1.5a4.91 4.91 0 0 0-4.9 4.9v27a9.49 9.49 0 0 0-4.7 8.2 9.6 9.6 0 1 0 19.2 0 9.49 9.49 0 0 0-4.7-8.2v-27.1a5 5 0 0 0-4.9-4.8zM54.6 26.2a.68.68 0 0 1 .7.7v26.6l.8.2a4.74 4.74 0 0 1 3.3 4.6 4.8 4.8 0 1 1-6.3-4.6l.8-.2v-26.7a.67.67 0 0 1 .7-.6m0-1.1a1.79 1.79 0 0 0-1.8 1.8v25.8a5.91 5.91 0 0 0-4.1 5.6 5.9 5.9 0 1 0 7.7-5.6v-25.9a1.77 1.77 0 0 0-1.8-1.7z"/><path class="cls-1" d="M22.5 40.4h-1.5l.3-.5a.65.65 0 1 0-1.1-.7l-.7 1.2h-2.5l1.3-2.2 1.7-.1c.4 0 .6-.3.6-.7s-.3-.6-.7-.6l-.9.1.4-.7a.65.65 0 1 0-1.1-.7l-.4.7-.3-.5a.81.81 0 0 0-.9-.3.81.81 0 0 0-.3.9l.6 1.1-1.3 2.2-1.3-2.2.6-1.1a.67.67 0 1 0-1.2-.6l-.3.5-.4-.7a.65.65 0 1 0-1.1.7l.4.7-.9-.1a.65.65 0 1 0-.1 1.3l1.7.1 1.3 2.2h-2.5l-.7-1.2a.65.65 0 1 0-1.1.7l.3.5h-1.5a.6.6 0 1 0 0 1.2h1.5l-.5.8a.65.65 0 1 0 1.1.7l.9-1.4h2.6l-1.2 2.2-1.3.1c-.4 0-.6.3-.6.7s.3.6.7.6h.5l-.6 1.2a.65.65 0 1 0 1.1.7l.8-1.4.5.8a.81.81 0 0 0 .9.3.65.65 0 0 0 .2-.9l-.8-1.5 1.2-2.1 1.2 2.1-.9 1.5a.67.67 0 1 0 1.2.6l.5-.8.8 1.4a.65.65 0 1 0 1.1-.7l-.8-1.3h.5a.65.65 0 1 0 .1-1.3l-1.3-.1-1.3-2.1h2.6l.9 1.4a.65.65 0 1 0 1.1-.7l-.5-.8h1.5a.58.58 0 0 0 .6-.6.67.67 0 0 0-.7-.6z"/><path class="cls-2" d="M70 45.3v1.9a.7.7 0 1 0 1.4 0v-1.9l-.7.1s-.4-.1-.7-.1zM71.5 37v-1.9a.7.7 0 1 0-1.4 0v1.9l.7-.1a1.48 1.48 0 0 0 .7.1zM64 41.2a.68.68 0 0 0 .7.7h1.9l-.1-.7a1.7 1.7 0 0 1 .1-.7h-1.9a.75.75 0 0 0-.7.7zM77.5 41.2a.68.68 0 0 0-.7-.7h-1.9l.1.7a1.7 1.7 0 0 1-.1.7h1.9a.75.75 0 0 0 .7-.7zM66 36.4a.67.67 0 0 0 0 1l1.3 1.3a4.74 4.74 0 0 1 1-1l-1.3-1.3a.67.67 0 0 0-1 0zM73.2 44.6l1.3 1.3a.72.72 0 0 0 1 0 .67.67 0 0 0 0-1l-1.3-1.3a4.74 4.74 0 0 1-1 1zM67.3 43.6l-1.3 1.3a.67.67 0 0 0 0 1 .72.72 0 0 0 1 0l1.3-1.3a4.74 4.74 0 0 1-1-1zM74.5 36.4l-1.3 1.3a4.74 4.74 0 0 1 1 1l1.3-1.3a.71.71 0 0 0-1-1zM69.3 38.7a2.41 2.41 0 0 0-1 1l-.3.7a2.5 2.5 0 0 0 0 1.4 4.87 4.87 0 0 0 .3.7 2.41 2.41 0 0 0 1 1 6.89 6.89 0 0 0 .8.3 2.5 2.5 0 0 0 1.4 0l.8-.3a2.41 2.41 0 0 0 1-1l.3-.7a2.5 2.5 0 0 0 0-1.4 4.87 4.87 0 0 0-.3-.7 2.41 2.41 0 0 0-1-1 6.89 6.89 0 0 0-.8-.3 2.5 2.5 0 0 0-1.4 0 1.91 1.91 0 0 0-.8.3zm2.2 1.2a1.21 1.21 0 0 1 .5.5.37.37 0 0 1 .1.3l.1.4a.6.6 0 0 1-.1.4l-.1.3a1.21 1.21 0 0 1-.5.5.37.37 0 0 1-.3.1l-.4.1a.6.6 0 0 1-.4-.1l-.3-.1a1.21 1.21 0 0 1-.5-.5.37.37 0 0 1-.1-.3l-.1-.4a.6.6 0 0 1 .1-.4l.1-.3a1.21 1.21 0 0 1 .5-.5.37.37 0 0 1 .3-.1l.4-.1a.6.6 0 0 1 .4.1.37.37 0 0 1 .3.1z"/></svg>