<svg xmlns="http://www.w3.org/2000/svg" width="52" height="52" viewBox="0 0 52 52"><defs><style>.cls-1{fill:none;stroke:#a2a2a2;stroke-miterlimit:10;}.cls-2{fill:#ff1a46;}</style></defs><title>icon-feat-6</title><path class="cls-1" d="M.5.5h50v50h-50z"/><path class="cls-2" d="M43.9 25.1h-.7c-.7-3.7-3.7-6.1-8-6.1a14.92 14.92 0 0 0-2.1.2h-16.5a13.61 13.61 0 0 0-2.1-.2c-4.3 0-7.3 2.3-8 6.1h-.7a.9.9 0 0 0 0 1.8h.5c0 4.4 2.9 7.9 6.6 7.9 4.3 0 9.7-5.2 10.1-9.4 0-1.1.7-2.1 1.5-2.1h.6c.8 0 1.5 1 1.5 2.1.4 4.3 5.8 9.4 10.1 9.4 3.6 0 6.6-3.5 6.6-7.9h.5a.9.9 0 0 0 .9-.9.81.81 0 0 0-.8-.9zm-30.9 7.9c-2.6 0-4.7-2.7-4.7-6.1 0-3.8 2.4-6.1 6.3-6.1 3.6 0 6.7 1.9 6.7 4.1-.1 3.4-4.9 8.1-8.3 8.1zm12.2-11.4h-.6a3.26 3.26 0 0 0-2.3 1 6.4 6.4 0 0 0-1.4-1.5h7.9a5 5 0 0 0-1.4 1.5 2.87 2.87 0 0 0-2.2-1zm11.6 11.4c-3.4 0-8.3-4.7-8.3-8 0-2.2 3-4.1 6.7-4.1 4 0 6.3 2.3 6.3 6.1 0 3.3-2.1 6-4.7 6zM37.722 16.217l1.125-4.365 1.746.45-1.125 4.365zM31.536 13.298l1.627-.769 1.921 4.068-1.627.769zM41.532 18.999l3.518-2.103.923 1.544-3.518 2.103zM14.8 23.9a.85.85 0 0 0-1.3 0l-3.4 3.4a.85.85 0 0 0 0 1.3 1 1 0 0 0 1.4 0l3.4-3.4a1 1 0 0 0-.1-1.3zM18.4 23.5l-5 5a.85.85 0 0 0 0 1.3.91.91 0 0 0 .7.3 1.08 1.08 0 0 0 .7-.3l4.9-4.9a.85.85 0 0 0 0-1.3 1 1 0 0 0-1.3-.1zM35.3 23.9a.85.85 0 0 0-1.3 0l-3.4 3.4a.85.85 0 0 0 0 1.3.91.91 0 0 0 .7.3 1.08 1.08 0 0 0 .7-.3l3.4-3.4a1 1 0 0 0-.1-1.3zM38.8 23.5l-4.9 5a.85.85 0 0 0 0 1.3.91.91 0 0 0 .7.3 1.08 1.08 0 0 0 .7-.3l4.9-4.9a.85.85 0 0 0 0-1.3 1.07 1.07 0 0 0-1.4-.1z"/></svg>