<svg xmlns="http://www.w3.org/2000/svg" width="140" height="140" viewBox="0 0 138 138"><defs><style>.cls-1{fill:#fff;}.cls-2{fill:#ff1a44;}</style></defs><title>icon-advan-1</title><circle class="cls-1" cx="69" cy="69" r="69"/><path class="cls-2" d="M101.6 67.6a15.35 15.35 0 0 0-10-11.6l4-6-.7-.6a11.23 11.23 0 0 0-6.9-2.5c-3.7 0-7.1 2-10 6.1a30.65 30.65 0 0 0-13.4-3.1c-15.2 0-27.5 11-28 24.6-.9-.1-2.4-.3-3.1-1.3-.6-.7-.6-1.8-.2-3.2l-2-.6c-.7 2.1-.5 3.8.5 5.1a6.25 6.25 0 0 0 4.8 2.1 24.84 24.84 0 0 0 9.5 17.9l1.2 10.9h10.1l3.3-4.8a30.23 30.23 0 0 0 11.6-.7l2 5.6h10.1l3.1-11.9c6.8-1.2 11.4-4.8 13.6-10.5h5.8v-15.5zm3.3 13.3h-5.2l-.2.7c-1.8 5.5-6.1 8.8-12.5 9.9a4.33 4.33 0 0 1-.5.1l-.6.1-3 11.7h-7.1l-2.1-6-.9.3a28.33 28.33 0 0 1-12.3.8l-.6-.1-3.4 5h-7.1l-1.1-9.9-.3-.3a22.46 22.46 0 0 1-9.1-17.8c0-12.9 11.7-23.4 26-23.4a27.21 27.21 0 0 1 13.2 3.3l.8.4.5-.8c2.6-3.9 5.6-5.9 8.8-5.9a9.05 9.05 0 0 1 4.8 1.5l-4.6 6.7 1.4.4a13.35 13.35 0 0 1 10 11.2l.1.9h5v11.2zM59.4 47.3a7.5 7.5 0 1 0-7.5-7.5 7.37 7.37 0 0 0 7.5 7.5zm0-13a5.5 5.5 0 1 1-5.5 5.5 5.48 5.48 0 0 1 5.5-5.5zM54.8 58.3a28.41 28.41 0 0 1 11.2-2.3v-2a28.68 28.68 0 0 0-12 2.5zM91 69.5a1.27 1.27 0 0 1 .1.6 1.56 1.56 0 0 1-1.5 1.6 1.58 1.58 0 0 1-1.6-1.6h-2a3.6 3.6 0 1 0 7.2 0 3.19 3.19 0 0 0-.3-1.4zM54.2 23.1h2.1v7.7h-2.1zM60.4 20.6h2.1v7.7h-2.1z"/></svg>