<svg xmlns="http://www.w3.org/2000/svg" width="346" height="337" version="1"><g><path d="M323.049 101.579c-1.103.059-2.226.118-3.349.118-29.827 0-53.999-24.192-53.999-54.019 0-5.26.749-10.362 2.167-15.169-27.876-20.429-62.273-32.506-99.507-32.506-92.947 0-168.36 75.433-168.36 168.498 0 93.045 75.414 168.498 168.36 168.498 93.085 0 168.518-75.453 168.518-168.498 0-23.779-4.945-46.414-13.83-66.923" fill="#fff"/><path d="M168.36 327.465c-87.687 0-158.825-71.178-158.825-158.963s71.139-158.963 158.825-158.963c32.88 0 63.416 9.968 88.771 27.068-.63 3.605-.985 7.289-.985 11.072 0 34.082 26.832 61.879 60.52 63.455 6.895 17.809 10.678 37.135 10.678 57.368 0 87.785-71.178 158.963-158.983 158.963z" fill="#f58735"/><path d="M140.563 161.863c3.979-12.431 14.697-20.705 27.975-20.705 12.372 0 23.089 7.526 26.517 20.705h-54.492zm-60.599 4.768h-7.703v-25.138h7.703c10.225 0 15.406 4.216 15.406 12.569 0 8.333-5.181 12.569-15.406 12.569zm184.594-46.828v42.001h-22.951v-42.021h-22.281v41.785c-4.492-25.433-23.956-44.109-50.788-44.109-28.349 0-45.075 19.701-51.044 39.736.099-1.162.138-2.167.138-2.994 0-8.077-2.837-34.417-39.243-34.417h-28.388v106.068h22.262v-37.529h6.127c24.035 0 33.432-11.387 37.057-21.414-.295 2.305-.453 4.59-.453 6.797 0 23.897 17.061 54.748 53.172 54.748 4.748 0 35.441-.374 48.877-33.491h-27.246c-6.009 7.526-14.716 9.791-22.537 9.791-12.904 0-23.247-7.9-26.32-20.705h78.388v41.804h22.281v-41.804h22.951v41.804h22.281v-106.048h-22.281" fill="#fff"/><path d="M327.797 68.108h-6.383v-13.534h6.383c7.663 0 8.392 4.866 8.392 6.875 0 6.58-7.25 6.659-8.392 6.659zm-6.383-33.944h4.59c2.147 0 6.954.276 6.954 5.437 0 1.359-.493 5.437-6.954 5.437h-4.59v-10.875zm15.544 14.539c1.438-.788 5.812-3.507 5.812-10.106 0-13.889-15.11-13.968-18.4-13.968h-12.746v53.014h13.239c16.982 0 21.139-8.452 21.139-16.115 0-5.95-3.29-10.894-9.043-12.825zm-59.949-14.539h9.811v43.479h9.811v-43.479h9.831v-9.535h-29.452v9.535" fill="#f58735"/></g></svg>