<?xml version="1.0" encoding="UTF-8" standalone="no"?>
<!-- Created with Inkscape (http://www.inkscape.org/) -->
<svg
   xmlns:dc="http://purl.org/dc/elements/1.1/"
   xmlns:cc="http://web.resource.org/cc/"
   xmlns:rdf="http://www.w3.org/1999/02/22-rdf-syntax-ns#"
   xmlns:svg="http://www.w3.org/2000/svg"
   xmlns="http://www.w3.org/2000/svg"
   xmlns:sodipodi="http://sodipodi.sourceforge.net/DTD/sodipodi-0.dtd"
   xmlns:inkscape="http://www.inkscape.org/namespaces/inkscape"
   width="346"
   height="337"
   id="svg2"
   sodipodi:version="0.32"
   inkscape:version="0.45.1"
   version="1.0"
   inkscape:output_extension="org.inkscape.output.svg.inkscape">
  <g
     inkscape:label="Layer 1"
     inkscape:groupmode="layer"
     id="layer1"
     transform="translate(-116.46083,-688.29927)">
    <path
       sodipodi:nodetypes="csscssssc"
       id="path2584"
       d="M 439.50972,789.87824 C 438.40645,789.93734 437.28353,789.99643 436.16061,789.99643 C 406.33408,789.99643 382.16153,765.80422 382.16153,735.97766 C 382.16153,730.71762 382.91017,725.61519 384.32862,720.80827 C 356.45234,700.37885 322.05531,688.30244 284.8213,688.30244 C 191.87435,688.30244 116.46083,763.73566 116.46083,856.80084 C 116.46083,949.84632 191.87435,1025.2993 284.8213,1025.2993 C 377.90622,1025.2993 453.3394,949.84632 453.3394,856.80084 C 453.3394,833.02233 448.39455,810.38645 439.50972,789.87824"
       style="fill:#ffffff;fill-rule:nonzero;stroke:none" />
    <path
       id="path2179"
       d="M 284.8213,1015.7642 C 197.13439,1015.7642 125.99587,944.58628 125.99587,856.80084 C 125.99587,769.0154 197.13439,697.83748 284.8213,697.83748 C 317.70147,697.83748 348.23726,707.80594 373.59182,724.90598 C 372.96137,728.51117 372.60674,732.19516 372.60674,735.97766 C 372.60674,770.05953 399.43886,797.85694 433.12669,799.43298 C 440.02185,817.24223 443.80446,836.56842 443.80446,856.80084 C 443.80446,944.58628 372.62646,1015.7642 284.8213,1015.7642 z "
       style="fill:#f58735;fill-rule:nonzero;stroke:none;fill-opacity:1"
       sodipodi:nodetypes="csscscsc" />
    <path
       id="path2580"
       d="M 257.0239,850.16177 C 261.0034,837.73075 271.72047,829.45655 284.99858,829.45655 C 297.3705,829.45655 308.08759,836.98213 311.51551,850.16177 L 257.0239,850.16177 z M 196.42517,854.92929 C 196.42517,854.92929 190.81053,854.92929 188.72227,854.92929 L 188.72227,829.79146 C 190.81053,829.79146 196.42517,829.79146 196.42517,829.79146 C 206.64973,829.79146 211.83097,834.00736 211.83097,842.36038 C 211.83097,850.69368 206.64973,854.92929 196.42517,854.92929 z M 381.01889,808.1012 L 381.01889,850.10267 L 358.0678,850.10267 L 358.0678,808.0815 L 335.78653,808.0815 L 335.78653,849.86627 C 331.29478,824.43291 311.83076,805.75684 284.99858,805.75684 C 256.64964,805.75684 239.92388,825.45734 233.95462,845.49276 C 234.05314,844.33042 234.09253,843.32569 234.09253,842.49828 C 234.09253,834.42107 231.25566,808.0815 194.84913,808.0815 L 166.4607,808.0815 L 166.4607,914.14901 L 188.72227,914.14901 C 188.72227,914.14901 188.72227,879.12151 188.72227,876.61955 C 190.73173,876.61955 194.84913,876.61955 194.84913,876.61955 C 218.88374,876.61955 228.28088,865.23265 231.90577,855.20509 C 231.61027,857.51006 231.45267,859.79532 231.45267,862.00177 C 231.45267,885.89849 248.51331,916.74947 284.62436,916.74947 C 289.37215,916.74947 320.06556,916.37516 333.50124,883.25861 L 306.25547,883.25861 C 300.24686,890.78421 291.53924,893.04976 283.7181,893.04976 C 270.81427,893.04976 260.47153,885.14986 257.39825,872.34453 L 335.78653,872.34453 L 335.78653,914.14901 L 358.0678,914.14901 L 358.0678,872.34453 L 381.01889,872.34453 L 381.01889,914.14901 L 403.3001,914.14901 L 403.3001,808.1012 L 381.01889,808.1012"
       style="fill:#ffffff;fill-rule:nonzero;stroke:none" />
    <path
       id="path2582"
       d="M 444.25756,756.40708 L 437.87454,756.40708 L 437.87454,742.87283 L 444.25756,742.87283 C 451.92094,742.87283 452.64992,747.73885 452.64992,749.74831 C 452.64992,756.32827 445.40014,756.40708 444.25756,756.40708 z M 437.87454,722.46311 L 442.46475,722.46311 C 444.61206,722.46311 449.41907,722.73891 449.41907,727.90045 C 449.41907,729.25979 448.92653,733.33779 442.46475,733.33779 L 437.87454,733.33779 L 437.87454,722.46311 z M 453.41828,737.00208 C 454.85633,736.21406 459.22989,733.4954 459.22989,726.89572 C 459.22989,713.00687 444.11953,712.92806 440.82964,712.92806 L 428.08337,712.92806 L 428.08337,765.94212 L 441.32211,765.94212 C 458.30397,765.94212 462.46081,757.4906 462.46081,749.82711 C 462.46081,743.87756 459.17079,738.93273 453.41828,737.00208 z M 393.46962,722.46311 L 403.28051,722.46311 L 403.28051,765.94212 L 413.09126,765.94212 L 413.09126,722.46311 L 422.92186,722.46311 L 422.92186,712.92806 L 393.46962,712.92806 L 393.46962,722.46311"
       style="fill:#f58735;fill-opacity:1;fill-rule:nonzero;stroke:none" />
  </g>
</svg>
