<svg id="Layer_1" data-name="Layer 1" xmlns="http://www.w3.org/2000/svg" width="50px" viewBox="0 0 55.1 33.3"><defs><style>.cls-1{fill:#fff;}</style></defs><title>icon-footer-visa</title><path class="cls-1" d="M52.6,0H2.4A2.43,2.43,0,0,0,0,2.4V30.9a2.43,2.43,0,0,0,2.4,2.4H52.7a2.43,2.43,0,0,0,2.4-2.4V2.3A2.51,2.51,0,0,0,52.6,0ZM51.1,29.3H3.9V3.9H51.1Z"/><path class="cls-1" d="M35.6,22.5c.1.1.2.2.3.2h2.6c.2,0,.3-.1.3-.2a15,15,0,0,1,.6-1.6h4.2a8,8,0,0,1,.3,1.5c0,.2.2.3.4.3h2.3c.1,0,.2-.1.3-.1a.37.37,0,0,0,.1-.3L44.5,10.9c0-.2-.2-.3-.4-.3H41.9a1.59,1.59,0,0,0-1.7,1L35.5,22.1a.6.6,0,0,0,.1.4Zm6.5-8.7.2,1,.8,3.5H40.4Z"/><path class="cls-1" d="M26.6,22.1a10.73,10.73,0,0,0,3.2.5h0c3.3,0,5.5-1.6,5.5-4,0-1.3-.8-2.3-2.7-3.2-1.1-.5-1.8-.9-1.8-1.5s.6-1,1.8-1h.1a4.81,4.81,0,0,1,2.1.4h.3c.1-.1.2-.1.2-.3l.3-1.7c0-.2-.1-.4-.2-.4a7.17,7.17,0,0,0-2.5-.4c-3.1,0-5.3,1.6-5.4,3.8,0,1.7,1.6,2.6,2.8,3.2s1.6.9,1.6,1.4c0,.8-1,1.1-1.9,1.1a7,7,0,0,1-3-.6h-.3c-.1.1-.2.1-.2.3l-.3,1.8c.1.4.2.5.4.6Z"/><path class="cls-1" d="M8.2,11.3a11.58,11.58,0,0,1,5,3.5.37.37,0,0,0,.3.1h.2c.2-.1.2-.2.2-.4l-.6-2.9h0a1.34,1.34,0,0,0-1.4-1H8.4c-.2,0-.3.1-.4.3s.1.3.2.4Z"/><path class="cls-1" d="M21,22.5a.37.37,0,0,0,.3.1h2.5c.2,0,.3-.1.4-.3L26.1,11a.35.35,0,0,0-.4-.4H23.2c-.2,0-.3.1-.4.3L20.9,22.2a.37.37,0,0,0,.1.3Z"/><path class="cls-1" d="M10.8,13.2a.3.3,0,0,0-.4,0c-.1.1-.2.3-.1.4l2.6,8.8c0,.2.2.3.4.3h3c.1,0,.3-.1.3-.2l4.9-11.3v-.3c-.3-.3-.4-.3-.5-.3H18.3c-.2,0-.3.1-.3.2l-3.1,8-.4-1.2h0a11.65,11.65,0,0,0-3.7-4.4Z"/></svg>