<svg id="Слой_1" data-name="Слой 1" xmlns="http://www.w3.org/2000/svg" width="38px" viewBox="0 0 33.512 25.13"><defs><style>.cls-1{fill:#fff;}</style></defs><title>icon-footer-jcb</title><path class="cls-1" d="M15.639,0h-.082c-.015,0-.028,0-.043,0h-.038c-.015,0-.03,0-.039,0l-.043,0h-.038a.128.128,0,0,1-.043,0l-.038,0-.044,0a.13.13,0,0,1-.038,0,.114.114,0,0,1-.038,0c-.015,0-.028,0-.043.01l-.038,0-.044.01c-.014,0-.023,0-.038,0s-.028,0-.043.01a.13.13,0,0,0-.038.009l-.039,0a.128.128,0,0,1-.043.01.1.1,0,0,1-.038.01.135.135,0,0,1-.043.01.091.091,0,0,1-.038.01l-.039.014c-.014,0-.028,0-.043.01l-.038.015a.137.137,0,0,0-.043.01c-.01,0-.025.009-.038.014L14.46.212a.083.083,0,0,1-.038.01.15.15,0,0,1-.043.02L14.34.255A.083.083,0,0,0,14.3.27l-.044.015c-.014,0-.028.009-.038.014l-.043.02-.038.015c-.015,0-.03.014-.043.018a.288.288,0,0,0-.039.02c-.014,0-.028.01-.038.015s-.028.014-.043.023a.087.087,0,0,0-.038.02l-.043.018-.039.02c-.014.01-.028.015-.043.025a.137.137,0,0,0-.038.018.17.17,0,0,0-.043.025c-.01,0-.025.01-.039.018a.346.346,0,0,0-.038.025c-.015.01-.028.015-.043.023l-.038.025a.228.228,0,0,1-.043.025c-.015.009-.025.018-.039.028S13.46.693,13.445.7a.377.377,0,0,1-.038.028c-.015.01-.028.02-.043.028a.343.343,0,0,1-.038.03.275.275,0,0,0-.039.028l-.043.03c-.015.01-.023.018-.038.028a.2.2,0,0,1-.043.033c-.015.01-.025.025-.038.034s-.03.023-.044.033a.213.213,0,0,1-.038.034A.3.3,0,0,1,13,1.044a.393.393,0,0,1-.043.038l-.039.038c-.014.015-.028.025-.043.039L12.84,1.2l-.043.038a.311.311,0,0,1-.038.043c-.015.015-.025.03-.039.043l-.043.044c-.014.014-.023.028-.038.043a.164.164,0,0,0-.038.048.177.177,0,0,0-.043.048.184.184,0,0,0-.039.048.5.5,0,0,0-.043.048.357.357,0,0,0-.038.053c-.015.02-.03.038-.043.058a.181.181,0,0,0-.038.053l-.044.058c-.014.018-.023.038-.038.062a.292.292,0,0,0-.038.063c-.015.02-.03.043-.043.063s-.025.048-.039.068-.028.048-.043.071-.023.048-.038.073l-.043.081a.877.877,0,0,0-.038.082.93.93,0,0,0-.043.086c-.015.028-.025.058-.039.091s-.028.068-.038.1-.028.068-.043.106a.847.847,0,0,0-.038.116l-.044.129c-.014.053-.023.1-.038.15a1.785,1.785,0,0,0-.038.177,4.11,4.11,0,0,0-.086.851V9.676a.666.666,0,0,1,.086-.073A.206.206,0,0,1,11.7,9.57a.2.2,0,0,0,.038-.034l.044-.028c.014-.01.023-.02.038-.03s.028-.018.043-.028a.234.234,0,0,1,.038-.028l.039-.03a.133.133,0,0,1,.043-.023l.038-.03a.186.186,0,0,1,.043-.023.2.2,0,0,1,.038-.025.167.167,0,0,1,.043-.023.172.172,0,0,1,.039-.025.169.169,0,0,1,.043-.025.442.442,0,0,1,.038-.023l.038-.02.044-.023a.2.2,0,0,0,.038-.025.248.248,0,0,0,.043-.018l.038-.02.043-.02.039-.023.043-.015.076-.038.043-.02.039-.018L12.8,8.94l.043-.02.038-.014.043-.015.039-.02L13,8.858l.038-.015a.248.248,0,0,0,.038-.015l.044-.015.038-.014.043-.015.038-.015.043-.015c.015,0,.025-.009.039-.014l.038-.01.043-.015.038-.01.043-.014.039-.01.043-.015.038-.01.043-.009.038-.015.116-.03.043-.009.078-.02.043-.01.038-.01.043-.009.039-.01.043,0,.076-.02.043,0,.039-.01.043-.009.038,0,.043,0,.039-.01.043,0,.038-.01.043,0,.038,0,.039-.009.043,0,.038,0,.033-.015.044,0,.076-.01.043,0,.038,0,.044,0,.076-.01.043,0,.038,0h.044l.076-.01.043,0h.039l.043,0,.038,0H15.5l.038,0h.039l.043,0h.038l.043,0h.082l.038,0h.038l.043,0h.121l.043,0h.2l.038,0h.607l.043,0h.076l.043,0h.2l.039,0h.043l.038,0h.082l.038,0h.038l.043,0h.038l.039,0h.043l.038,0,.043,0h.038l.039,0h.043l.038,0,.043,0,.039,0h.038l.043,0,.038,0,.034.01.038,0h.038l.043,0,.038,0,.044,0,.038,0,.043,0,.076.01.044,0,.038,0,.043,0,.038,0,.043,0,.039,0,.043.01.076.01.044.01.038,0,.043,0,.038,0,.043,0,.039.01.043,0,.038,0,.038.01.043,0,.039,0,.043.009.038,0,.043.01.038,0,.039.01.043,0,.038.01.043,0,.039.01.043,0,.076.02.043.01.039,0,.043.009.038,0,.038.01.043.01.039.01.043,0,.038.009.043.01.038.01.058.02.039.009.043.01.038.01.043,0,.078.02.043.009.038.01.043.01.038.01v1.774l-.038-.018-.043-.02-.038-.023-.043-.02-.078-.038-.043-.02-.038-.02-.043-.018-.039-.02-.043-.018-.038-.02-.043-.02-.038-.014-.039-.02-.043-.02-.038-.014-.043-.02L20,10.257l-.043-.018-.038-.015-.043-.02-.078-.028-.043-.015-.038-.02-.043-.014-.038-.015L19.59,10.1l-.076-.028-.043-.01-.038-.015-.044-.014-.038-.01-.043-.015-.038-.015-.039-.009-.043-.015-.038-.01-.043-.015-.038-.009-.043-.01-.039-.015-.043-.01-.076-.018-.044-.01-.038-.01-.043-.01-.038-.01-.043-.01-.039-.009-.043,0L18.5,9.8l-.043,0-.039-.01-.043,0-.038-.01-.043,0-.039-.01-.038,0-.043,0-.038-.01-.043,0-.039,0-.043,0-.038,0-.043,0L17.85,9.7l-.043,0-.076-.01h-.043l-.039,0-.043,0h-.038l-.038,0h-.043l-.039,0h-.081l-.043,0h-.4a.135.135,0,0,1-.044,0h-.038l-.038,0h-.043l-.039,0h-.043a.087.087,0,0,1-.038,0l-.038,0-.043,0-.039,0-.043,0-.038,0-.038.01a.126.126,0,0,0-.043,0c-.015,0-.03,0-.039,0s-.028,0-.043.009-.028,0-.038,0a.136.136,0,0,1-.043.01c-.015,0-.025,0-.038.01s-.03,0-.044.01l-.038.01a.088.088,0,0,0-.038.009c-.015,0-.03,0-.043.01a.156.156,0,0,1-.038.01l-.044.015a.128.128,0,0,1-.038.009l-.043.015c-.01,0-.025.01-.038.015a.342.342,0,0,0-.039.015l-.043.014-.038.015-.043.015-.038.015a.226.226,0,0,1-.044.018.217.217,0,0,1-.038.02.111.111,0,0,0-.038.018.17.17,0,0,0-.043.02.126.126,0,0,0-.038.02c-.015,0-.03.014-.044.018a.126.126,0,0,1-.038.02.149.149,0,0,1-.043.023.344.344,0,0,1-.038.025c-.015.01-.025.015-.039.023a.17.17,0,0,1-.043.025.447.447,0,0,1-.038.028.194.194,0,0,1-.043.025.239.239,0,0,1-.038.028l-.043.03a.129.129,0,0,1-.039.033.356.356,0,0,0-.038.034.2.2,0,0,0-.043.033.243.243,0,0,0-.038.033c-.015.015-.03.025-.044.038a.227.227,0,0,1-.038.039.277.277,0,0,0-.038.038l-.043.043c-.015.015-.025.03-.038.043s-.03.034-.039.048-.028.034-.043.048l-.038.053-.043.058a.362.362,0,0,0-.038.058.689.689,0,0,1-.044.063c-.014.023-.028.048-.038.068s-.028.048-.043.071a.493.493,0,0,0-.038.082c-.015.028-.03.057-.043.086s-.025.063-.039.1-.028.073-.038.106-.028.081-.043.126a1.1,1.1,0,0,0-.038.149c-.02.062-.03.124-.044.187-.018.1-.028.2-.038.3a2.9,2.9,0,0,0-.018.361,2.974,2.974,0,0,0,.018.366c.01.1.025.2.038.293.015.068.025.13.044.193a1.1,1.1,0,0,0,.038.149l.043.124c.01.034.025.068.038.106s.025.063.039.1.028.058.043.087.023.053.038.076l.043.073c.015.023.025.048.038.066s.03.044.044.068.023.038.038.058.028.033.043.053l.038.053c.015.018.03.033.043.048a.187.187,0,0,0,.039.048c.014.015.023.028.038.043s.028.03.043.043a.31.31,0,0,0,.038.043.129.129,0,0,1,.038.039c.015.01.03.023.044.033s.023.025.038.038a.263.263,0,0,1,.043.034c.01.009.025.018.038.028s.03.025.039.033l.043.03a.343.343,0,0,1,.038.028l.043.03a.138.138,0,0,1,.038.023c.015.01.03.015.043.025a.163.163,0,0,0,.039.023.344.344,0,0,1,.038.025.243.243,0,0,1,.043.023c.015,0,.025.015.038.02s.03.015.044.02a.153.153,0,0,0,.038.018.167.167,0,0,0,.043.02.141.141,0,0,0,.038.02c.015.009.03.014.038.018a.173.173,0,0,1,.044.02l.038.014.043.015.038.015.043.015a.346.346,0,0,0,.039.014c.014,0,.028.01.038.015l.043.015a.082.082,0,0,1,.038.01l.044.014a.118.118,0,0,1,.038.01,1.494,1.494,0,0,1,.081.02l.038.01c.015,0,.03,0,.044.009s.023,0,.038.01.028,0,.043,0,.025,0,.038.01a.128.128,0,0,1,.043.01.123.123,0,0,1,.039,0c.014,0,.028,0,.043,0a.119.119,0,0,0,.038,0l.038.01.043,0,.039,0,.043,0,.038,0h.038a.133.133,0,0,0,.043,0l.039,0H16.8l.038,0h.082a.1.1,0,0,0,.038,0h.326l.039,0H17.4l.038,0h.044l.038,0h.058l.023,0h.038l.044,0,.076-.01h.068l.043,0,.076-.01.044,0,.038,0,.043,0,.038,0,.043-.01.039,0,.043,0,.038,0,.038-.01.043,0,.039-.01.043,0,.038-.01.043,0,.078-.018.043-.01.038,0,.043-.01.039-.01.043-.01.038-.009.043-.01.078-.02.043-.015.038-.009.043-.01.038-.015.044-.01.038-.01.043-.014.038-.01.039-.015.043-.01.038-.014.043-.015.038-.015.043-.015.039-.009.038-.015.043-.015.038-.014L19.741,15l.038-.02.043-.015.076-.028.044-.015.038-.018.038-.015.043-.02.038-.014.044-.02.038-.015.043-.018.038-.02.043-.015.039-.018.043-.02.038-.02.043-.018.078-.038.043-.02.038-.02.043-.018.039-.02.043-.02.038-.023v1.774l-.038.01-.043.01-.039.01-.043.01-.038.009-.043.01-.038.01-.039,0-.043.01-.038.01-.043.009-.039.01-.043,0-.038.01-.043.01-.038.009-.044.01-.038,0-.043.01-.038.01-.038,0-.044.01-.038,0-.038.01-.043.01-.038,0-.044.01-.038,0-.043.01-.038,0-.039.01-.043,0-.038.01-.043,0-.038,0-.043.01-.039,0-.038.01-.043,0-.038,0-.044,0-.038.01-.043,0-.038,0-.043.009-.078.01-.043,0-.038,0-.043.01-.039,0-.043,0-.038,0-.043,0-.078.009-.043,0-.038,0-.043,0-.039,0-.043,0h-.038l-.038,0-.043,0-.039,0h-.043l-.038,0-.043,0-.038,0h-.044l-.076.01h-.043l-.038,0h-.044l-.038,0h-.038l-.043,0H17.59l-.043,0h-.119l-.044,0h-.076l-.043,0h-.121l-.043,0h-.928l-.043,0h-.121l-.043,0h-.038l-.038,0h-.082l-.043,0h-.038l-.038,0h-.044l-.038,0h-.043l-.038,0H15.48l-.039,0H15.4l-.076-.01-.043,0h-.039l-.043,0-.076-.01-.044,0-.038,0-.043,0-.038,0-.043,0-.078-.01-.043,0-.038,0-.043,0-.039,0-.038-.01-.043,0-.038,0-.043-.01-.039,0-.043-.009-.038,0-.043-.01-.039,0-.038-.01-.043,0-.038-.01-.043-.009-.039,0-.043-.01-.038-.01-.043-.01-.038-.009-.039,0-.043-.01-.038-.01-.043-.015-.038-.01-.044-.009-.038-.01-.043-.015-.078-.02-.043-.014-.038-.01-.043-.015-.038-.01-.044-.014a.248.248,0,0,0-.038-.015l-.038-.015-.043-.014-.038-.01a.157.157,0,0,0-.044-.015c-.014,0-.023-.015-.038-.02l-.038-.014-.043-.015-.038-.015-.044-.014-.038-.02-.043-.015-.078-.038-.043-.015-.038-.018-.043-.02L12.6,16.1a.149.149,0,0,1-.043-.018l-.039-.02-.043-.02-.038-.018A.2.2,0,0,1,12.4,16c-.015,0-.03-.014-.044-.018l-.038-.025-.043-.018-.038-.025a.092.092,0,0,1-.038-.025.153.153,0,0,1-.044-.023l-.038-.025a.187.187,0,0,1-.043-.023.2.2,0,0,0-.038-.025l-.043-.028a.176.176,0,0,0-.039-.025l-.043-.028a.263.263,0,0,0-.038-.03.159.159,0,0,1-.038-.028l-.044-.028c-.014-.01-.023-.02-.038-.03a.211.211,0,0,0-.043-.033c-.01-.01-.023-.02-.038-.034s-.058-.048-.086-.071v9.67h6.322l.038,0h.044a.114.114,0,0,1,.038,0h.038l.043,0a.123.123,0,0,1,.039,0c.014,0,.028,0,.043,0s.023,0,.038,0,.028,0,.043,0l.038,0a.135.135,0,0,1,.044,0c.014,0,.023,0,.038-.01s.028,0,.043,0l.038-.009.038,0c.015,0,.03,0,.044-.01s.023,0,.038-.01l.043-.01.038-.009a.128.128,0,0,0,.043-.01A.151.151,0,0,0,18.76,25c.014,0,.023,0,.043-.01s.023,0,.038-.01l.038-.014.043-.01.039-.015a.145.145,0,0,0,.043-.01l.038-.015.043-.014.039-.015c.014,0,.028-.01.038-.015l.043-.014.038-.015a.191.191,0,0,1,.043-.02l.039-.014.043-.02.038-.015a.179.179,0,0,1,.038-.018.19.19,0,0,1,.043-.02.284.284,0,0,1,.039-.02c.014-.009.028-.014.043-.023a.14.14,0,0,0,.038-.02c.015,0,.03-.015.043-.018l.038-.025.039-.02.043-.023c.015,0,.023-.015.038-.02a.216.216,0,0,1,.043-.023c.015-.01.025-.02.039-.03a.11.11,0,0,0,.038-.023.191.191,0,0,0,.043-.025.442.442,0,0,0,.038-.023l.043-.03a.27.27,0,0,0,.039-.028c.014-.01.028-.015.043-.025s.023-.018.038-.028.028-.025.043-.034a.432.432,0,0,0,.038-.028l.044-.028a.2.2,0,0,1,.038-.034.262.262,0,0,0,.038-.033c.02-.01.028-.025.043-.033a.213.213,0,0,0,.038-.034.346.346,0,0,1,.044-.033c.014-.015.028-.025.038-.038s.028-.025.043-.039.025-.023.038-.038a.245.245,0,0,0,.043-.038.13.13,0,0,1,.039-.038.408.408,0,0,0,.038-.044c.015-.014.028-.028.043-.043a.2.2,0,0,0,.038-.043l.044-.043c.014-.02.028-.033.038-.048s.028-.033.043-.048a.332.332,0,0,1,.038-.048.334.334,0,0,0,.038-.053.5.5,0,0,0,.044-.053.239.239,0,0,0,.038-.053l.043-.058c.015-.02.025-.038.038-.058a.421.421,0,0,0,.043-.063c.01-.018.025-.038.039-.062a.7.7,0,0,0,.038-.063c.015-.025.028-.043.043-.068a.507.507,0,0,0,.038-.071c.015-.025.03-.053.043-.078a.566.566,0,0,0,.039-.076.851.851,0,0,1,.043-.082.712.712,0,0,1,.038-.091.623.623,0,0,0,.038-.091c.015-.034.03-.068.043-.1s.03-.078.039-.111.028-.082.043-.121.028-.091.038-.134.03-.106.043-.159.03-.126.039-.187c.014-.082.028-.164.043-.251a5.186,5.186,0,0,0,.033-.538V0H15.677C15.662,0,15.647,0,15.639,0Z"/><path class="cls-1" d="M27.241.01h-.124a.1.1,0,0,1-.039,0h-.043L27,.02a.1.1,0,0,1-.038,0c-.015,0-.03,0-.043,0l-.039,0a.176.176,0,0,0-.043,0,.1.1,0,0,0-.038,0c-.015,0-.028,0-.043,0s-.025,0-.038,0l-.044.01c-.014,0-.023,0-.038,0s-.028,0-.038.01-.03,0-.043,0l-.038.009L26.467.1a.116.116,0,0,0-.038.01.135.135,0,0,0-.043.01.1.1,0,0,0-.038.01l-.039.009a.162.162,0,0,1-.043.01c-.014,0-.028.01-.038.015a.137.137,0,0,0-.043.01.248.248,0,0,0-.038.015A.129.129,0,0,0,26.1.2l-.039.015L26.02.226l-.038.015-.043.014L25.9.27l-.043.015L25.818.3c-.015,0-.028.015-.043.02l-.038.015A.293.293,0,0,0,25.7.351a.125.125,0,0,0-.043.02.315.315,0,0,0-.038.015C25.6.4,25.588.4,25.573.409l-.038.02c-.015,0-.03.015-.044.018s-.023.015-.038.02-.028.015-.043.025S25.385.5,25.371.51a.273.273,0,0,0-.039.025c-.014,0-.028.015-.043.018a.143.143,0,0,1-.038.025L25.208.6a.2.2,0,0,1-.038.025l-.043.028-.039.025L25.044.7l-.038.028L24.963.76l-.039.03a.343.343,0,0,0-.038.028l-.043.03L24.8.88l-.043.028a.132.132,0,0,1-.039.034c-.014.015-.028.023-.038.033a.262.262,0,0,1-.043.034l-.038.038c-.015.01-.03.023-.043.033a.386.386,0,0,0-.039.038c-.014.015-.028.025-.043.039a.124.124,0,0,0-.038.038c-.015.015-.03.023-.043.038s-.025.03-.038.043l-.044.043a.242.242,0,0,1-.038.044.243.243,0,0,0-.038.043c-.015.014-.03.028-.043.043a.366.366,0,0,0-.039.053.574.574,0,0,0-.043.048c-.014.015-.023.033-.038.048s-.028.033-.043.053a.475.475,0,0,1-.038.053.4.4,0,0,0-.039.058l-.043.058a.42.42,0,0,0-.038.058.671.671,0,0,1-.043.062c-.015.025-.025.043-.038.068s-.03.043-.044.068a.554.554,0,0,1-.038.066c-.015.03-.028.053-.043.078a.556.556,0,0,1-.038.076c-.015.03-.03.053-.043.082a.674.674,0,0,1-.039.086c-.014.03-.023.063-.038.091s-.028.068-.043.1-.025.073-.038.106-.03.082-.043.121-.025.086-.039.129-.028.1-.043.15-.023.115-.038.172a4.194,4.194,0,0,0-.086.856V8.541H29.2l.043,0h.082l.038,0h.081l.039,0h.028l.015,0h.038l.043,0h.038l.044,0,.076.01.043,0,.038,0h.039l.043,0a.231.231,0,0,0,.038.009l.038,0c.015,0,.03,0,.044.01a.118.118,0,0,1,.038.01l.043,0a.11.11,0,0,0,.038.01.146.146,0,0,0,.043.01l.039.009a.131.131,0,0,0,.043.01l.038.015.043.015a.182.182,0,0,1,.038.009l.039.015.043.015.038.015.043.014.038.015a.175.175,0,0,0,.044.02.156.156,0,0,1,.038.018l.043.015c.015.01.025.015.038.025a.122.122,0,0,1,.043.018.286.286,0,0,0,.039.02c.014.01.028.014.043.023s.023.015.038.025a.107.107,0,0,1,.038.023.2.2,0,0,1,.044.025.46.46,0,0,0,.038.028.22.22,0,0,1,.043.025.231.231,0,0,0,.038.033l.043.03a.148.148,0,0,0,.039.033.537.537,0,0,1,.038.038.4.4,0,0,1,.043.038.233.233,0,0,1,.038.039c.015.014.03.028.043.043s.025.028.039.043a.561.561,0,0,1,.043.048c.014.015.023.033.038.053l.043.058a.491.491,0,0,1,.038.063.474.474,0,0,1,.039.066c.014.025.028.053.043.082a.508.508,0,0,1,.038.091.626.626,0,0,1,.043.111.958.958,0,0,1,.038.139,2.2,2.2,0,0,1,.044.245c0,.068.009.135.009.2s0,.135-.009.2a2.073,2.073,0,0,1-.044.24.96.96,0,0,1-.038.139c-.014.038-.028.078-.043.111a.784.784,0,0,1-.038.1c-.015.025-.03.053-.043.078a.519.519,0,0,1-.039.071.49.49,0,0,1-.038.063.7.7,0,0,1-.043.063.365.365,0,0,0-.038.053c-.015.015-.03.033-.043.048a.576.576,0,0,1-.039.048c-.014.015-.028.028-.043.043l-.038.043c-.015.015-.028.025-.043.038a.379.379,0,0,1-.038.039.281.281,0,0,0-.039.033c-.014.01-.028.025-.043.033a.254.254,0,0,0-.038.03L31.065,12c-.015.01-.025.02-.038.03l-.044.028a.206.206,0,0,1-.038.025.265.265,0,0,0-.038.023c-.015.01-.03.015-.043.025a.3.3,0,0,0-.039.018c-.014.01-.028.015-.043.025a.158.158,0,0,0-.038.02c-.015,0-.028.014-.043.018a.126.126,0,0,0-.038.02l-.044.015a.156.156,0,0,1-.038.018l-.043.015-.038.015-.043.014-.039.015c-.014,0-.028.01-.038.015s-.028,0-.043.01a.153.153,0,0,1-.038.009l-.043.015a.117.117,0,0,0-.039.01.146.146,0,0,0-.043.01l-.038,0a.135.135,0,0,1-.043.009l-.038.01a.136.136,0,0,1-.044,0l-.038.01-.038,0v.048h.038l.038,0,.044,0,.038,0,.043,0,.038,0,.043,0a.107.107,0,0,1,.039,0l.043,0c.014,0,.023,0,.038.01l.043,0,.038.01c.015,0,.025,0,.039,0s.028,0,.043.009.023,0,.038.01.028,0,.043.01a.117.117,0,0,0,.038.01.146.146,0,0,0,.044.01l.038.014.043.01c.01,0,.025.01.038.015l.043.015a.314.314,0,0,1,.039.014c.014,0,.028.01.043.01a.319.319,0,0,0,.038.015.16.16,0,0,0,.038.02l.044.014c.014,0,.023.015.038.02l.043.015a.177.177,0,0,0,.038.018.187.187,0,0,0,.043.02.2.2,0,0,0,.039.023c.014,0,.023.015.038.02s.028.015.043.02a.272.272,0,0,0,.038.023c.015.01.03.015.043.025a.223.223,0,0,0,.039.023l.043.03a.188.188,0,0,1,.038.023l.043.03a.436.436,0,0,1,.038.028.4.4,0,0,1,.039.033.325.325,0,0,1,.043.034.124.124,0,0,1,.038.033c.015.01.03.025.043.033a.4.4,0,0,0,.038.039l.044.043a.4.4,0,0,1,.038.043l.043.043a.613.613,0,0,0,.038.048c.015.02.03.038.043.058a.5.5,0,0,1,.039.053c.014.025.028.043.038.063s.028.048.043.068a.443.443,0,0,1,.038.081l.044.086a.893.893,0,0,1,.038.106c.015.043.028.086.043.13.015.066.028.134.038.207a1.5,1.5,0,0,1,.02.26,1.567,1.567,0,0,1-.02.268c-.01.073-.023.144-.038.212l-.043.139a1.091,1.091,0,0,1-.038.106.538.538,0,0,1-.044.092.377.377,0,0,1-.038.081.559.559,0,0,1-.043.073.565.565,0,0,1-.038.062c-.015.02-.025.044-.039.063s-.028.034-.043.053l-.038.053a.579.579,0,0,0-.043.048c-.015.015-.025.03-.038.043a.482.482,0,0,0-.044.043.4.4,0,0,0-.038.039.384.384,0,0,0-.043.038c-.01.01-.023.02-.038.033s-.03.025-.043.034a.4.4,0,0,1-.039.033.436.436,0,0,1-.038.028l-.043.03c-.015.01-.025.02-.038.028l-.043.03a.165.165,0,0,0-.039.023c-.014.01-.028.015-.043.025a.265.265,0,0,0-.038.023c-.015,0-.028.015-.043.02a.193.193,0,0,1-.038.025.2.2,0,0,0-.039.018.15.15,0,0,1-.043.02.261.261,0,0,1-.038.018.188.188,0,0,1-.043.02.158.158,0,0,1-.038.02l-.044.014a.125.125,0,0,1-.038.02.319.319,0,0,0-.038.015l-.043.014a.341.341,0,0,0-.039.015l-.043.015-.038.01-.043.014a.1.1,0,0,0-.038.01.142.142,0,0,1-.044.01.1.1,0,0,1-.038.01l-.043.015c-.015,0-.023,0-.038,0l-.025.01a.086.086,0,0,1-.038.01c-.015,0-.023,0-.038.01l-.043,0-.039,0c-.014,0-.028,0-.043.01a.135.135,0,0,0-.038,0c-.015,0-.028,0-.043,0l-.038,0c-.015,0-.03,0-.044,0a.12.12,0,0,0-.038,0h-.043l-.038,0h-.039l-.043,0h-.038c-.015,0-.028,0-.043,0h-6.65v8.54h6.14l.038,0h.164a.091.091,0,0,0,.038,0H29.6a.143.143,0,0,0,.039,0h.043a.1.1,0,0,1,.038,0c.015,0,.028,0,.043,0s.025,0,.038,0a.137.137,0,0,0,.044,0,.118.118,0,0,0,.038,0l.038,0,.043,0,.038,0,.044-.01c.014,0,.023,0,.038,0l.043-.01.038-.01a.128.128,0,0,0,.043-.01c.015,0,.025,0,.039,0l.043-.01.038-.014.038-.01a.142.142,0,0,0,.044-.01c.014,0,.023,0,.038-.01l.043-.014.038-.01.043-.015.039-.01.043-.015c.014,0,.023-.009.038-.014l.043-.015.038-.015a.373.373,0,0,0,.039-.014c.014,0,.028-.015.043-.02l.038-.015a.213.213,0,0,0,.043-.018c.01,0,.025-.01.038-.015a.288.288,0,0,1,.039-.02l.043-.018.038-.02c.015,0,.03-.015.043-.02a.366.366,0,0,0,.038-.018c.015-.01.03-.015.044-.025s.023-.014.038-.018a.27.27,0,0,0,.038-.02.267.267,0,0,0,.043-.025.091.091,0,0,0,.039-.023c.014,0,.028-.015.043-.02l.033-.028c.015-.01.028-.02.038-.025a.3.3,0,0,1,.043-.023c.015-.01.025-.02.039-.03a.217.217,0,0,0,.043-.023.254.254,0,0,1,.038-.03.089.089,0,0,0,.038-.028.2.2,0,0,0,.044-.025.239.239,0,0,0,.038-.028l.043-.033a.256.256,0,0,0,.038-.03.215.215,0,0,0,.043-.033.275.275,0,0,0,.039-.03.271.271,0,0,1,.043-.033c.014-.015.028-.023.038-.033s.028-.025.043-.038.025-.02.038-.034.03-.023.044-.038.023-.025.038-.038a.145.145,0,0,0,.038-.039c.015-.014.03-.023.043-.038a.372.372,0,0,1,.038-.038l.044-.043c.014-.015.023-.03.038-.043l.043-.044c.01-.014.025-.028.038-.048a.168.168,0,0,0,.039-.048.437.437,0,0,0,.043-.048.341.341,0,0,0,.038-.048c.015-.018.028-.033.043-.053a.247.247,0,0,0,.038-.053c.015-.018.03-.038.043-.053a.651.651,0,0,1,.039-.062c.014-.02.028-.039.043-.058s.023-.039.038-.063a.347.347,0,0,0,.038-.063c.015-.023.03-.043.044-.068a.554.554,0,0,1,.038-.066c.015-.025.028-.053.043-.078s.023-.048.038-.071.03-.058.043-.082a.674.674,0,0,1,.039-.086c.014-.03.028-.063.038-.091s.028-.063.043-.1.025-.068.038-.106.03-.078.043-.116.025-.082.039-.126.028-.1.043-.144.023-.111.038-.169.03-.139.043-.207c.015-.106.03-.21.039-.321s.014-.246.014-.37h.01V0H27.281C27.266,0,27.256.01,27.241.01Z"/><path class="cls-1" d="M4.049,0H3.968c-.015,0-.023,0-.038,0H3.886a.109.109,0,0,1-.039,0L3.8.02l-.038,0H3.723l-.038,0-.044,0c-.009,0-.023,0-.038.009a.09.09,0,0,0-.038,0c-.015,0-.03,0-.043,0l-.039,0c-.014,0-.028,0-.043.01s-.023,0-.038.01-.028,0-.043,0L3.319.091,3.276.1c-.015,0-.025,0-.039.01a.143.143,0,0,0-.043.01.144.144,0,0,0-.038.01.1.1,0,0,0-.038.009l-.044.01L3.034.164a.145.145,0,0,0-.043.01L2.953.188A.191.191,0,0,1,2.91.2L2.871.212,2.828.226a.3.3,0,0,1-.038.015.2.2,0,0,0-.038.014L2.708.27,2.669.284,2.6.318a.343.343,0,0,0-.039.015A.148.148,0,0,1,2.52.351a.35.35,0,0,0-.038.02.165.165,0,0,0-.043.02A.12.12,0,0,0,2.4.409c-.015,0-.03.015-.044.02L2.318.447a.285.285,0,0,1-.038.02c-.015.01-.03.015-.043.025A.224.224,0,0,0,2.2.51a.2.2,0,0,1-.044.025.263.263,0,0,0-.038.023c-.015,0-.028.015-.043.02A.144.144,0,0,1,2.035.6a.224.224,0,0,1-.043.025.2.2,0,0,1-.039.028.113.113,0,0,0-.038.025A.19.19,0,0,1,1.871.7a.164.164,0,0,0-.038.028L1.79.76a.275.275,0,0,0-.039.03L1.707.817c-.01.01-.023.02-.038.034A.5.5,0,0,0,1.626.88C1.616.89,1.6.9,1.587.913s-.023.02-.038.03S1.52.966,1.506.981a.3.3,0,0,0-.038.033.223.223,0,0,0-.043.034c-.015.01-.025.023-.039.033s-.028.025-.043.038L1.3,1.16,1.261,1.2l-.038.043-.039.038c-.014.015-.028.03-.043.043s-.023.03-.038.044-.03.028-.043.043a.537.537,0,0,1-.039.048.573.573,0,0,0-.043.048.57.57,0,0,0-.038.048C.923,1.568.91,1.587.895,1.6a.242.242,0,0,1-.038.053c-.015.02-.03.038-.043.058s-.025.033-.039.053S.751,1.8.736,1.823a.651.651,0,0,0-.043.062c-.015.02-.025.039-.038.058s-.03.043-.044.068-.023.043-.038.068-.028.048-.043.071a.511.511,0,0,1-.038.073A.441.441,0,0,0,.453,2.3c-.015.03-.03.053-.044.082s-.023.058-.038.086-.028.063-.043.091-.025.068-.038.1a.794.794,0,0,0-.038.106c-.02.039-.03.082-.044.121s-.028.086-.038.129-.028.1-.043.15a1.676,1.676,0,0,0-.038.172A4.185,4.185,0,0,0,0,4.189V14.532l.087.043.038.02.043.018.038.02.025.015.043.014.038.02.043.02.039.018.043.015.076.038.044.015.038.02.043.014.038.02.043.015.039.018.038.015.043.02.038.014.043.015.039.015.043.014.038.02L1.087,15l.038.015.044.014.038.015.038.01.043.014.038.015.044.015.038.015.043.009.038.015.043.01.039.015.038.01.043.014.038.01.044.01.038.015.043.009.038.01.043.01.039.01.038.015.043.009.038.01.043.01.039.01.043,0,.038.01.043.009.038.01.039,0,.043.01.038,0,.043.01.039,0,.043.01.038,0,.038.01.043,0h.025l.038,0,.043,0,.039,0,.043,0,.038,0,.043,0,.078.01h.043l.038,0,.043,0h.038l.044,0h.038l.043,0h.081l.039,0h.321a.132.132,0,0,1,.043,0h.039c.014,0,.028,0,.043,0H3.91a.132.132,0,0,1,.043,0l.039,0c.014,0,.028,0,.043,0s.023,0,.038,0l.038,0c.015,0,.03,0,.043-.009s.025,0,.039,0,.028,0,.043-.01.023,0,.038-.01a1.513,1.513,0,0,0,.081-.02c.015,0,.025,0,.039-.009a.13.13,0,0,1,.043-.01l.038-.015.043-.015.039-.014L4.6,15.3a.252.252,0,0,1,.038-.015l.043-.015a.121.121,0,0,1,.038-.018c.015,0,.025-.015.039-.02a.438.438,0,0,1,.043-.018c.014,0,.023-.015.038-.02s.028-.015.043-.025a.114.114,0,0,0,.038-.023.2.2,0,0,0,.044-.025l.038-.023c.014-.01.023-.02.038-.03s.028-.018.043-.028.025-.02.038-.028a.132.132,0,0,0,.039-.034.313.313,0,0,0,.043-.033.268.268,0,0,0,.038-.034c.015-.014.03-.023.043-.038a.207.207,0,0,0,.038-.043l.044-.043a.243.243,0,0,0,.038-.048c.015-.015.028-.033.043-.048a.446.446,0,0,0,.038-.053c.015-.02.03-.038.043-.058l.039-.068a.607.607,0,0,0,.038-.066c.015-.03.028-.053.043-.082a.532.532,0,0,0,.038-.086l.044-.1c.014-.043.028-.082.038-.126s.028-.106.038-.159a1.755,1.755,0,0,0,.043-.273c0-.078.01-.149.01-.227V8.531h3.65v4.861a3.961,3.961,0,0,1-.02.419c-.01.1-.023.192-.038.288-.015.063-.028.126-.043.188s-.025.1-.038.149-.03.086-.044.124a.746.746,0,0,1-.038.111c-.015.03-.028.063-.043.1a.9.9,0,0,1-.038.087c-.015.028-.03.053-.043.081a.523.523,0,0,1-.039.073.672.672,0,0,0-.038.071c-.015.02-.028.043-.043.063a.572.572,0,0,1-.038.063c-.015.018-.03.038-.043.058l-.039.053-.038.053a.337.337,0,0,0-.043.048c-.01.014-.025.028-.038.048l-.044.043c-.014.015-.023.028-.038.043a.408.408,0,0,0-.043.038.144.144,0,0,1-.038.039c-.015.014-.03.028-.038.038s-.03.023-.044.038a.474.474,0,0,1-.038.033c-.015.01-.028.025-.043.034s-.025.023-.038.033l-.043.028c-.01.01-.025.02-.039.034a.353.353,0,0,0-.038.023.111.111,0,0,1-.043.03c-.015.01-.025.018-.038.028a.218.218,0,0,1-.043.025A.274.274,0,0,1,8.16,16a.226.226,0,0,0-.043.025.261.261,0,0,1-.038.023.333.333,0,0,0-.043.025A.2.2,0,0,1,8,16.094a.145.145,0,0,1-.038.025c-.014,0-.028.015-.043.02l-.038.023c-.015,0-.03.015-.043.02a.294.294,0,0,1-.039.018c-.014,0-.028.015-.043.02l-.076.038c-.015,0-.03.015-.043.02a.342.342,0,0,0-.039.015l-.043.018-.038.015-.043.015c-.015,0-.025.014-.038.018a.339.339,0,0,0-.039.015l-.043.015L7.31,16.4l-.043.015-.039.015-.043.015a.264.264,0,0,0-.038.009L7.1,16.47l-.038.01-.043.015-.039.009a.133.133,0,0,1-.038.01.435.435,0,0,0-.043.015l-.038.01a.145.145,0,0,1-.044.01c-.014,0-.028.009-.038.014l-.043.01a.109.109,0,0,0-.038.01l-.043,0-.039.01a.129.129,0,0,1-.038.009l-.043.01-.038,0a.146.146,0,0,1-.043.01l-.078.02-.043,0a.351.351,0,0,0-.038.009c-.015,0-.03,0-.044,0l-.038,0c-.014,0-.028,0-.043.01l-.076.01-.044.01c-.014,0-.028,0-.038,0l-.043,0-.038,0-.043,0-.039,0-.043,0-.076.01-.043,0-.039,0-.043,0-.038,0H5.526l-.043,0-.039,0-.043,0H5.362l-.043,0H5.28l-.043,0H5.2l-.043,0H5.117l-.039,0H5l-.043,0H4.871l-.038,0H4.712l-.043,0H3.862l-.043,0H3.7l-.038,0H3.534l-.038,0H3.453l-.038,0H3.332l-.038,0H3.251l-.038,0H3.17l-.039,0H3.087l-.038,0H3.006l-.078-.01H2.886l-.038,0-.043,0H2.765l-.043,0-.038,0H2.641l-.078-.01-.043,0H2.482l-.043-.01H2.4l-.044,0L2.28,16.7l-.043,0-.038,0-.044,0-.038,0-.043,0-.038,0-.043,0-.078-.01-.043,0-.038,0-.043,0-.039-.01-.043,0-.038,0-.043,0-.078-.01L1.506,16.6l-.038,0-.043,0-.039-.01-.043,0-.038,0-.043-.01-.038,0-.039-.009-.043,0-.038,0-.043-.01-.039,0-.043-.01-.038,0L.895,16.5l-.038,0-.043-.01-.039-.01-.038,0-.043-.01-.038-.01-.044-.009-.038,0-.043-.01-.076-.02-.044,0L.37,16.394l-.043-.01-.076-.02-.044-.01-.038-.009-.043-.01-.038-.01C.03,16.311,0,16.3,0,16.3v8.824H6.324l.038,0H6.4a.175.175,0,0,0,.043,0h.038l.038,0c.015,0,.03,0,.043,0a.1.1,0,0,0,.039,0,.134.134,0,0,0,.043,0,.1.1,0,0,0,.038,0l.043,0a.1.1,0,0,1,.038,0c.015,0,.03,0,.039-.01s.028,0,.043,0l.038,0c.015,0,.03,0,.043-.01s.025,0,.039-.01a.143.143,0,0,0,.043-.01l.038,0,.043-.01a.351.351,0,0,0,.038-.014A.092.092,0,0,0,7.171,25a.143.143,0,0,0,.043-.01c.014,0,.028,0,.038-.01l.043-.01.038-.014c.015,0,.03,0,.044-.01l.038-.015.043-.015.076-.028a.463.463,0,0,0,.044-.015c.014,0,.028-.009.038-.014a.435.435,0,0,0,.043-.015.094.094,0,0,0,.038-.02l.043-.014.039-.02.043-.015a.111.111,0,0,1,.038-.018c.015,0,.03-.015.043-.02a.286.286,0,0,1,.039-.02.365.365,0,0,0,.038-.018.15.15,0,0,1,.043-.02c.015-.01.028-.015.038-.023l.043-.02a.107.107,0,0,0,.039-.025c.014,0,.028-.014.043-.018a.255.255,0,0,1,.038-.025.189.189,0,0,0,.043-.023.313.313,0,0,0,.038-.025c.015-.01.03-.015.039-.023a.171.171,0,0,1,.043-.025c.014-.01.028-.02.038-.028l.043-.025c.015-.01.025-.018.038-.028l.044-.03a.205.205,0,0,1,.038-.028.259.259,0,0,0,.038-.03c.015-.009.03-.018.043-.028a.276.276,0,0,0,.038-.033l.044-.03a.191.191,0,0,1,.038-.033.27.27,0,0,1,.043-.034.165.165,0,0,1,.038-.033.286.286,0,0,0,.039-.038.175.175,0,0,1,.043-.033A.233.233,0,0,1,9,24a.476.476,0,0,0,.081-.081l.039-.038.043-.044A.126.126,0,0,0,9.2,23.8c.015-.014.028-.028.043-.043a.6.6,0,0,1,.038-.048.43.43,0,0,0,.044-.048.6.6,0,0,0,.038-.048.565.565,0,0,0,.043-.048c.01-.015.025-.034.038-.053s.025-.033.039-.048.028-.038.043-.058.023-.038.038-.058l.043-.058a.687.687,0,0,1,.038-.058c.015-.023.03-.043.043-.062a.419.419,0,0,1,.039-.068.628.628,0,0,0,.038-.068c.015-.023.028-.048.043-.071s.025-.049.038-.078.03-.053.044-.076a.493.493,0,0,1,.038-.082.881.881,0,0,0,.038-.086c.015-.034.028-.068.043-.1a.728.728,0,0,0,.038-.1c.015-.039.03-.073.044-.111s.023-.082.038-.121a1.367,1.367,0,0,0,.038-.134,1.5,1.5,0,0,0,.043-.159c.015-.063.03-.126.038-.187a2.056,2.056,0,0,0,.044-.251,4.1,4.1,0,0,0,.033-.538h.02V0H4.088A.109.109,0,0,1,4.049,0Z"/><path class="cls-1" d="M27.473,11.83h.043c.015,0,.028,0,.038,0a.124.124,0,0,0,.043,0h.039a.087.087,0,0,1,.033,0l.01,0c.01,0,.023,0,.038,0s.028,0,.038-.01l.043-.014a.153.153,0,0,1,.039-.01c.014,0,.028-.015.043-.02a.31.31,0,0,0,.038-.015c.015,0,.03-.014.043-.018s.025-.015.038-.025a.262.262,0,0,0,.044-.023l.038-.025a.254.254,0,0,0,.038-.028.222.222,0,0,0,.043-.034.216.216,0,0,0,.039-.033c.014-.015.028-.028.043-.043a.561.561,0,0,0,.038-.043c.015-.02.028-.034.043-.053a.592.592,0,0,0,.038-.063c.015-.025.03-.048.043-.073a.658.658,0,0,0,.039-.091,1.411,1.411,0,0,0,.038-.139.917.917,0,0,0,.025-.236.938.938,0,0,0-.025-.235c-.01-.043-.025-.091-.038-.134s-.025-.063-.039-.1-.028-.049-.043-.073-.023-.038-.038-.058a.5.5,0,0,0-.043-.053.211.211,0,0,0-.038-.048c-.015-.015-.03-.023-.043-.038a.231.231,0,0,0-.039-.038l-.043-.03a.262.262,0,0,0-.038-.033.208.208,0,0,1-.038-.025c-.015-.01-.03-.014-.044-.023s-.023-.015-.038-.02a.149.149,0,0,0-.043-.02.11.11,0,0,0-.038-.018l-.043-.015a.328.328,0,0,0-.039-.015.127.127,0,0,0-.043-.009.088.088,0,0,0-.038-.01.147.147,0,0,0-.038-.01l-.01,0h-.033a.1.1,0,0,0-.039,0,.126.126,0,0,0-.043,0,.115.115,0,0,1-.038,0H25.222v2.04h2.25Z"/><path class="cls-1" d="M25.222,15.287h2.442a.092.092,0,0,1,.038,0h.039a.125.125,0,0,1,.043,0,.106.106,0,0,0,.038,0c.015,0,.028,0,.043,0s.025,0,.038,0,.015,0,.025,0l.015,0a.145.145,0,0,0,.043-.01.1.1,0,0,1,.038-.01l.043-.015a.1.1,0,0,0,.038-.018.358.358,0,0,0,.039-.015.172.172,0,0,1,.043-.018.255.255,0,0,0,.038-.025.171.171,0,0,0,.043-.025.08.08,0,0,0,.038-.023l.044-.03a.224.224,0,0,0,.038-.033A.255.255,0,0,0,28.434,15a.372.372,0,0,0,.038-.038l.043-.044c.015-.014.025-.033.039-.048l.043-.058c.015-.018.023-.043.038-.062a.454.454,0,0,0,.038-.078.661.661,0,0,0,.043-.1,1.377,1.377,0,0,0,.039-.134,1.205,1.205,0,0,0,0-.519c-.01-.043-.025-.091-.039-.135a.719.719,0,0,0-.043-.1.443.443,0,0,0-.038-.076c-.015-.02-.023-.043-.038-.063a.156.156,0,0,1-.033-.058.537.537,0,0,0-.039-.048c-.014-.015-.028-.028-.043-.043a.225.225,0,0,0-.038-.038c-.015-.015-.03-.025-.043-.039s-.025-.018-.039-.028-.028-.02-.043-.028a.258.258,0,0,0-.038-.03.423.423,0,0,1-.038-.023c-.015,0-.03-.015-.043-.02a.288.288,0,0,0-.039-.02c-.014,0-.028-.014-.043-.018l-.038-.015-.043-.015a.115.115,0,0,0-.038-.01l-.044-.014h-.014a.044.044,0,0,0-.025,0,.09.09,0,0,0-.038,0,.132.132,0,0,0-.043,0,.109.109,0,0,0-.039,0c-.014,0-.028,0-.043,0h-.038a.114.114,0,0,0-.038,0H25.222Z"/></svg>