<svg xmlns="http://www.w3.org/2000/svg" viewBox="0 0 430 430">
	<style>.st0{fill:#A5A5A5;} .st1{fill:#FF1A44;} .st2{fill:#FFFFFF;}</style>
	<path d="M16 212h-2c1-68.2 36.2-130.7 94.1-167.1l1.1 1.7C51.8 82.5 17 144.4 16 212z" class="st0"/>
	<path d="M103.4 61.1c-.3.2-.6.2-1 .1-.4-.2-.7-.8-.4-1.3l6.3-14-15.3.2c-.6 0-1-.4-1-1s.4-1 1-1l16.9-.2c.3 0 .7.2.8.5.2.3.2.6.1 1l-6.9 15.4c-.2.1-.3.2-.5.3-.3.2.2-.1 0 0zm8.7 326.6c-58.3-34.8-94.8-95.9-97.9-163.5l2-.1c3 66.9 39.2 127.4 96.9 161.9l-1 1.7z" class="st0"/>
	<path d="M26.1 236.3c0 .3-.1.7-.4.9-.4.3-1.1.2-1.4-.2l-9-12.3-7.4 13.4c-.3.5-.9.7-1.4.4s-.7-.9-.4-1.4l8.1-14.8c.2-.3.5-.5.8-.5s.7.1.9.4l10 13.6c.2.2.2.3.2.5 0 .4 0-.2 0 0zM215 416c-32.5 0-63.5-7.5-92.1-22.3l.9-1.8c28.4 14.7 59 22.1 91.2 22.1 33.4 0 66.5-8.5 95.6-24.4l1 1.8C282.2 407.5 248.8 416 215 416z" class="st0"/>
	<path d="M139.3 389.5c.3.1.5.4.6.8.1.5-.3 1-.9 1.1l-15.2 1.7 7.9 13.1c.3.5.1 1.1-.3 1.4-.5.3-1.1.1-1.4-.3l-8.7-14.4c-.2-.3-.2-.7 0-1s.4-.5.8-.6l16.8-1.8c.1-.2.2-.1.4 0 .3.1-.2-.1 0 0zm183.2-4.6l-1.1-1.7c57-36.2 91.6-97.9 92.5-165.3h2c-.9 68-35.8 130.5-93.4 167z" class="st0"/>
	<path d="M327.1 368.5c.3-.2.6-.2 1-.1.5.2.7.8.5 1.3l-6.2 14 15.3-.3c.6 0 1 .4 1 1s-.4 1-1 1l-16.9.3c-.3 0-.7-.2-.9-.4s-.2-.6-.1-1l6.9-15.4c.1-.1.2-.3.4-.4.3-.2-.2.1 0 0zm86.7-162.2c-2.8-66.2-38.4-126.4-95-161.1-1.5-.9-3-1.8-4.6-2.7l1-1.7c1.6.9 3.1 1.8 4.7 2.8 57.2 35.1 93.1 95.9 95.9 162.7h-2z" class="st0"/>
	<path d="M403.9 194.1c0-.3.1-.7.4-.9.4-.3 1.1-.2 1.4.2l9 12.4 7.4-13.4c.3-.5.9-.7 1.4-.4s.7.9.4 1.4l-8.1 14.8c-.2.3-.5.5-.8.5s-.7-.1-.9-.4l-9.9-13.6c-.3-.2-.3-.4-.3-.6 0-.3 0 .2 0 0z" class="st0"/>
	<circle cx="116" cy="41.6" r="4" class="st1"/>
	<circle cx="314" cy="41.6" r="4" class="st1"/>
	<circle cx="116" cy="388.5" r="4" class="st1"/>
	<circle cx="14.6" cy="215.1" r="4" class="st1"/>
	<circle cx="415" cy="215.1" r="4" class="st1"/>
	<circle cx="314" cy="388.5" r="4" class="st1"/>
	<circle cx="313.5" cy="40.8" r="11.2" class="st1"/>
	<path d="M312.9 45.1v-7.2l-1.5 1.6-1-1 2.7-2.7h1.4v9.3h-1.6z" class="st2"/>
	<circle cx="124.4" cy="38.3" r="13.5" class="st1"/>
	<path d="M119.3 37.9c0-3.3 1.7-5.8 5-5.8 1.4 0 2.5.5 3.2 1.3l-.9 1.5c-.6-.6-1.2-1-2.3-1-1.9 0-3 1.7-3 3.7v.3c.5-.8 1.7-1.6 3-1.6 2 0 3.8 1.2 3.8 3.6 0 2.1-1.6 3.8-4.2 3.8-3.3 0-4.6-2.7-4.6-5.8zm6.8 2.1c0-1.4-1.1-2-2.3-2-1 0-1.9.5-2.5 1.3.1 1.2.8 2.6 2.5 2.6 1.5 0 2.3-1 2.3-1.9z" class="st2"/>
	<circle cx="415" cy="221.8" r="11.2" class="st1"/>
	<path d="M411 226v-1.3c3.6-2.7 5-4 5-5.3 0-1-.8-1.4-1.7-1.4-1.1 0-1.9.4-2.5 1.1l-1-1.1c.8-1 2.1-1.5 3.4-1.5 1.8 0 3.4 1 3.4 2.9 0 1.7-1.6 3.3-4.1 5.2h4.1v1.4H411z" class="st2"/>
	<circle cx="308" cy="391.6" r="11.2" class="st1"/>
	<path d="M303.7 394.5l.9-1.1c.6.7 1.6 1.1 2.6 1.1 1.2 0 1.9-.6 1.9-1.4 0-.9-.7-1.3-2.1-1.3h-1.1v-1.5h1.1c1.1 0 1.9-.4 1.9-1.2 0-.9-.8-1.3-1.9-1.3-1 0-1.7.4-2.4 1l-.8-1c.7-.8 1.8-1.5 3.4-1.5 2 0 3.4 1 3.4 2.5 0 1.2-1.1 2-2 2.1.9.1 2.2.8 2.2 2.3 0 1.6-1.4 2.7-3.5 2.7-1.7.2-2.9-.5-3.6-1.4z" class="st2"/>
	<circle cx="110" cy="385.7" r="11.2" class="st1"/>
	<path d="M110.2 390v-2.1h-4.5v-1.3l3.8-5.9h2.3v5.8h1.2v1.4h-1.2v2.1h-1.6zm0-7.9l-2.8 4.3h2.8v-4.3z" class="st2"/>
	<circle cx="14.4" cy="207.8" r="13" class="st1"/>
	<path d="M9.8 211.2l1.1-1.3c.7.8 1.7 1.3 2.9 1.3 1.4 0 2.2-.8 2.2-1.9 0-1.2-.8-1.9-2.2-1.9-.9 0-1.7.3-2.4.9l-1.4-.4v-6.1h7.1v1.7H12v3.1c.5-.5 1.4-.9 2.5-.9 1.8 0 3.5 1.3 3.5 3.5 0 2.3-1.7 3.7-4.1 3.7-2 0-3.2-.6-4.1-1.7z" class="st2"/>
</svg>
