<?xml version="1.0" encoding="utf-8"?>
<!-- Generator: Adobe Illustrator 21.0.2, SVG Export Plug-In . SVG Version: 6.00 Build 0)  -->
<svg version="1.1" id="Layer_1" xmlns="http://www.w3.org/2000/svg" xmlns:xlink="http://www.w3.org/1999/xlink" x="0px" y="0px"
	 viewBox="0 0 306 281.7" style="enable-background:new 0 0 306 281.7;" xml:space="preserve">
<style type="text/css">
	.st0{fill:#F1F1F1;}
	.st1{fill:none;stroke:#000000;stroke-miterlimit:10;}
	.st2{fill:#FFFFFF;stroke:#000000;stroke-miterlimit:10;}
</style>
<rect x="-0.3" y="0" class="st0" width="306.5" height="281.7"/>
<g>
	<circle class="st1" cx="153" cy="140.9" r="111"/>
	<path d="M49.8,143h-0.3c0,2,1.6,3.7,3.6,3.7c2,0,3.7-1.6,3.7-3.7v-6.4c0-2-1.6-3.7-3.7-3.7c-2,0-3.6,1.6-3.6,3.7v6.4h0.7v-6.4
		c0-1.7,1.4-3,3-3c1.7,0,3,1.3,3,3v6.4c0,1.7-1.4,3-3,3c-1.6,0-3-1.3-3-3H49.8"/>
	<path class="st2" d="M53.1,136.7c0.5,0,1,0.3,1.3,0.7c0.4,0.5,0.6,1.1,0.6,1.9v20.1c0,0.8-0.2,1.4-0.6,1.9
		c-0.4,0.5-0.8,0.7-1.3,0.7c-0.5,0-0.9-0.3-1.3-0.7c-0.4-0.5-0.6-1.1-0.6-1.9v-20.1c0-0.8,0.2-1.4,0.6-1.9
		C52.2,136.9,52.6,136.7,53.1,136.7v-0.3"/>
	<circle class="st1" cx="153" cy="140.9" r="106.4"/>
	<circle class="st1" cx="153" cy="140.9" r="93"/>
	<circle class="st1" cx="153" cy="140.9" r="90"/>
</g>
</svg>
