<?xml version="1.0" encoding="utf-8"?>
<!-- Generator: Adobe Illustrator 21.0.2, SVG Export Plug-In . SVG Version: 6.00 Build 0)  -->
<svg version="1.1" id="Layer_1" xmlns="http://www.w3.org/2000/svg" xmlns:xlink="http://www.w3.org/1999/xlink" x="0px" y="0px"
	 viewBox="0 0 306 281.7" style="enable-background:new 0 0 306 281.7;" xml:space="preserve">
<style type="text/css">
	.st0{fill:#F2F2F2;}
	.st1{fill:none;stroke:#000000;stroke-miterlimit:10;}
	.st2{fill:none;stroke:#000000;stroke-width:0.5;stroke-miterlimit:10;}
	.st3{fill:#86888B;stroke:#3D3D3D;stroke-miterlimit:10;}
	.st4{fill:#FFFFFF;stroke:#000000;stroke-miterlimit:10;}
</style>
<g>
	<rect class="st0" width="306" height="281.7"/>
	<g>
		<polygon class="st1" points="33.9,244.5 160.1,40 160.1,244.5 		"/>
		<polygon class="st1" points="25.1,249.2 164.8,23.4 164.8,249.2 		"/>
		<polygon class="st1" points="61.9,229.5 145.1,100 145.1,229.5 		"/>
		<polygon class="st1" points="55.8,232.8 148.4,89 148.4,232.8 		"/>
		<polygon class="st1" points="182.8,31 275.9,85.5 275.9,244.5 182.8,244.5 		"/>
		<polygon class="st1" points="178.1,22.5 280.9,83.5 280.9,249.2 178.1,249.2 		"/>
		<polygon class="st1" points="197.8,59.5 260.9,95.5 260.9,229.4 197.8,229.4 		"/>
		<polygon class="st1" points="194.6,54.1 263.9,93.5 263.9,232.7 194.6,232.7 		"/>
		<line class="st2" x1="275.9" y1="244.5" x2="260.9" y2="229.5"/>
		<line class="st2" x1="197.9" y1="229.5" x2="182.9" y2="244.5"/>
		<line class="st2" x1="144.9" y1="229.5" x2="159.9" y2="244.5"/>
		<line class="st1" x1="182.9" y1="30.5" x2="197.8" y2="59.8"/>
		<line class="st1" x1="260.9" y1="95.5" x2="275.9" y2="85.5"/>
		<g>
			<path class="st3" d="M265.7,165.6h-0.3c0,1.9,1.6,3.5,3.5,3.5c1.9,0,3.5-1.6,3.5-3.5v-6.2c0-1.9-1.6-3.5-3.5-3.5
				c-1.9,0-3.5,1.6-3.5,3.5v6.2h0.6v-6.2c0-1.6,1.3-2.9,2.9-2.9c1.6,0,2.9,1.3,2.9,2.9v6.2c0,1.6-1.3,2.9-2.9,2.9
				c-1.6,0-2.9-1.3-2.9-2.9H265.7"/>
			<path class="st4" d="M268.8,159.5c0.5,0,0.9,0.3,1.3,0.7c0.3,0.5,0.6,1.1,0.6,1.8v19.3c0,0.7-0.2,1.4-0.6,1.8
				c-0.3,0.5-0.8,0.7-1.3,0.7c-0.5,0-0.9-0.3-1.3-0.7c-0.3-0.4-0.6-1.1-0.6-1.8V162c0-0.7,0.2-1.4,0.6-1.8
				C267.9,159.8,268.3,159.5,268.8,159.5v-0.3"/>
		</g>
		<g>
			<path class="st3" d="M86.1,166.2l-0.3-0.2c-0.9,1.7-0.3,3.8,1.4,4.8c1.7,0.9,3.8,0.3,4.8-1.4l3-5.4c0.9-1.7,0.3-3.8-1.4-4.8
				c-1.7-0.9-3.8-0.3-4.8,1.4l-3,5.4l0.5,0.3l3-5.4c0.8-1.4,2.5-1.9,3.9-1.1c1.4,0.8,1.9,2.5,1.1,3.9l-3,5.4
				c-0.8,1.4-2.5,1.9-3.9,1.1c-1.4-0.8-1.9-2.5-1.1-3.9L86.1,166.2"/>
			<path class="st4" d="M91.9,162.4c0.4,0.2,0.7,0.7,0.8,1.2c0.1,0.6,0,1.2-0.4,1.9l-9.4,16.9c-0.3,0.6-0.9,1.1-1.4,1.3
				c-0.5,0.2-1,0.2-1.4,0c-0.4-0.2-0.7-0.7-0.8-1.2c-0.1-0.6,0-1.2,0.4-1.9l9.4-16.9c0.3-0.6,0.9-1.1,1.4-1.3
				C90.9,162.2,91.4,162.2,91.9,162.4l0.2-0.3"/>
		</g>
		<line class="st1" x1="144.9" y1="100.5" x2="159.9" y2="40.5"/>
		<line class="st2" x1="34" y1="244" x2="62" y2="229"/>
	</g>
</g>
</svg>
