<svg xmlns="http://www.w3.org/2000/svg" viewBox="0 0 306 281.7" enable-background="new 0 0 306 281.7"><style type="text/css">.st0{fill:#F1F1F1;} .st1{fill:none;stroke:#020202;stroke-miterlimit:10;} .st2{fill:#86888B;stroke:#3D3D3D;stroke-miterlimit:10;} .st3{fill:#FFFFFF;stroke:#000000;stroke-miterlimit:10;}</style><path class="st0" d="M0 0h306v281.7h-306z"/><path class="st1" d="M89.2 233h127.5v-72.8l-64-114.3s-63.6 55.6-63.6 114.3l.1 72.8zM78.2 245h149.1v-86.6l-74.3-127.7s-74.8 62.3-74.8 127.7v86.6zM74.8 249.1h156.4v-92l-78.2-131s-78.2 64.2-78.2 131v92zM92.3 230.3h121.4v-69.6l-60.9-110.6s-60.5 53.1-60.5 110.7v69.5zM78.5 244.5l14.2-14.2M227.5 244.5l-14.2-14.2M153 50.1v-19.4M92.5 155.2l-14-3.4M213.7 155.2l14-3.4"/><path class="st2" d="M80.6 179.6h-.3c0 1.9 1.6 3.5 3.5 3.5s3.5-1.6 3.5-3.5v-6.2c0-1.9-1.6-3.5-3.5-3.5s-3.5 1.6-3.5 3.5v6.2h.6v-6.2c0-1.6 1.3-2.9 2.9-2.9 1.6 0 2.9 1.3 2.9 2.9v6.2c0 1.6-1.3 2.9-2.9 2.9-1.6 0-2.9-1.3-2.9-2.9h-.3"/><path class="st3" d="M83.7 173.5c.5 0 .9.3 1.3.7.3.5.6 1.1.6 1.8v19.3c0 .7-.2 1.4-.6 1.8-.3.5-.8.7-1.3.7s-.9-.3-1.3-.7c-.3-.4-.6-1.1-.6-1.8v-19.3c0-.7.2-1.4.6-1.8.4-.4.9-.7 1.3-.7v-.3"/></svg>