<svg xmlns="http://www.w3.org/2000/svg" viewBox="0 0 306 281.7" enable-background="new 0 0 306 281.7"><style type="text/css">.st0{fill:#F2F2F2;} .st1{fill:none;stroke:#000000;stroke-miterlimit:10;} .st2{fill:none;stroke:#000000;stroke-width:0.5;stroke-miterlimit:10;} .st3{fill:#86888B;stroke:#3D3D3D;stroke-miterlimit:10;} .st4{fill:#FFFFFF;stroke:#000000;stroke-miterlimit:10;}</style><path class="st0" d="M0 0h306v281.7h-306z"/><path class="st1" d="M33.9 244.5l126.2-204.5v204.5zM25.1 249.2l139.7-225.8v225.8zM61.9 229.5l83.2-129.5v129.5zM55.8 232.8l92.6-143.8v143.8zM182.8 31l93.1 54.5v159h-93.1zM178.1 22.5l102.8 61v165.7h-102.8zM197.8 59.5l63.1 36v133.9h-63.1zM194.6 54.1l69.3 39.4v139.2h-69.3z"/><path class="st2" d="M275.9 244.5l-15-15M197.9 229.5l-15 15M144.9 229.5l15 15"/><path class="st1" d="M182.9 30.5l14.9 29.3M260.9 95.5l15-10"/><path class="st3" d="M265.7 165.6h-.3c0 1.9 1.6 3.5 3.5 3.5s3.5-1.6 3.5-3.5v-6.2c0-1.9-1.6-3.5-3.5-3.5s-3.5 1.6-3.5 3.5v6.2h.6v-6.2c0-1.6 1.3-2.9 2.9-2.9 1.6 0 2.9 1.3 2.9 2.9v6.2c0 1.6-1.3 2.9-2.9 2.9-1.6 0-2.9-1.3-2.9-2.9h-.3"/><path class="st4" d="M268.8 159.5c.5 0 .9.3 1.3.7.3.5.6 1.1.6 1.8v19.3c0 .7-.2 1.4-.6 1.8-.3.5-.8.7-1.3.7s-.9-.3-1.3-.7c-.3-.4-.6-1.1-.6-1.8v-19.3c0-.7.2-1.4.6-1.8.4-.4.8-.7 1.3-.7v-.3"/><path class="st3" d="M86.1 166.2l-.3-.2c-.9 1.7-.3 3.8 1.4 4.8 1.7.9 3.8.3 4.8-1.4l3-5.4c.9-1.7.3-3.8-1.4-4.8-1.7-.9-3.8-.3-4.8 1.4l-3 5.4.5.3 3-5.4c.8-1.4 2.5-1.9 3.9-1.1 1.4.8 1.9 2.5 1.1 3.9l-3 5.4c-.8 1.4-2.5 1.9-3.9 1.1-1.4-.8-1.9-2.5-1.1-3.9l-.2-.1"/><path class="st4" d="M91.9 162.4c.4.2.7.7.8 1.2.1.6 0 1.2-.4 1.9l-9.4 16.9c-.3.6-.9 1.1-1.4 1.3-.5.2-1 .2-1.4 0-.4-.2-.7-.7-.8-1.2-.1-.6 0-1.2.4-1.9l9.4-16.9c.3-.6.9-1.1 1.4-1.3.4-.2.9-.2 1.4 0l.2-.3"/><path class="st1" d="M144.9 100.5l15-60"/><path class="st2" d="M34 244l28-15"/></svg>