<?xml version="1.0" encoding="utf-8"?>
<!-- Generator: Adobe Illustrator 21.0.2, SVG Export Plug-In . SVG Version: 6.00 Build 0)  -->
<svg version="1.1" id="Layer_1" xmlns="http://www.w3.org/2000/svg" xmlns:xlink="http://www.w3.org/1999/xlink" x="0px" y="0px"
	 viewBox="0 0 306 281.7" style="enable-background:new 0 0 306 281.7;" xml:space="preserve">
<style type="text/css">
	.st0{fill:#F1F1F1;}
	.st1{fill:none;stroke:#020202;stroke-miterlimit:10;}
	.st2{fill:#86888B;stroke:#3D3D3D;stroke-miterlimit:10;}
	.st3{fill:#FFFFFF;stroke:#000000;stroke-miterlimit:10;}
</style>
<rect class="st0" width="306" height="281.7"/>
<g>
	<path class="st1" d="M89.2,233h127.5c0,0,0-16.8,0-72.8s-64-114.3-64-114.3s-63.6,55.6-63.6,114.3S89.2,233,89.2,233z"/>
	<path class="st1" d="M78.2,245h149.1c0,0,0-24.2,0-86.6S153,30.7,153,30.7S78.2,93,78.2,158.4S78.2,245,78.2,245z"/>
	<path class="st1" d="M74.8,249.1h156.4c0,0,0-28.2,0-92S153,26.1,153,26.1s-78.2,64.2-78.2,131S74.8,249.1,74.8,249.1z"/>
	<path class="st1" d="M92.3,230.3h121.4c0,0,0-14.7,0-69.6S152.8,50.1,152.8,50.1s-60.5,53.1-60.5,110.7S92.3,230.3,92.3,230.3z"/>
	<line class="st1" x1="78.5" y1="244.5" x2="92.7" y2="230.3"/>
	<line class="st1" x1="227.5" y1="244.5" x2="213.3" y2="230.3"/>
	<line class="st1" x1="153" y1="50.1" x2="153" y2="30.7"/>
	<line class="st1" x1="92.5" y1="155.2" x2="78.5" y2="151.8"/>
	<line class="st1" x1="213.7" y1="155.2" x2="227.7" y2="151.8"/>
	<g>
		<path class="st2" d="M80.6,179.6h-0.3c0,1.9,1.6,3.5,3.5,3.5c1.9,0,3.5-1.6,3.5-3.5v-6.2c0-1.9-1.6-3.5-3.5-3.5
			c-1.9,0-3.5,1.6-3.5,3.5v6.2h0.6v-6.2c0-1.6,1.3-2.9,2.9-2.9c1.6,0,2.9,1.3,2.9,2.9v6.2c0,1.6-1.3,2.9-2.9,2.9
			c-1.6,0-2.9-1.3-2.9-2.9H80.6"/>
		<path class="st3" d="M83.7,173.5c0.5,0,0.9,0.3,1.3,0.7c0.3,0.5,0.6,1.1,0.6,1.8v19.3c0,0.7-0.2,1.4-0.6,1.8
			c-0.3,0.5-0.8,0.7-1.3,0.7c-0.5,0-0.9-0.3-1.3-0.7c-0.3-0.4-0.6-1.1-0.6-1.8V176c0-0.7,0.2-1.4,0.6-1.8
			C82.8,173.8,83.3,173.5,83.7,173.5v-0.3"/>
	</g>
</g>
</svg>
