<svg id="Layer_1" data-name="Layer 1" xmlns="http://www.w3.org/2000/svg" viewBox="0 0 87.9 96.2"><defs><style>.cls-1{fill:#0068b5;}.cls-2{fill:#fff;}.cls-3{fill:none;}</style></defs><title>veka-logo</title><polygon class="cls-1" points="0 44 43.9 0 87.9 44 83.8 48.1 87.9 52.2 43.9 96.2 0 52.2 4.1 48.1 0 44"/><rect class="cls-1" x="14.69" y="23.01" width="58.4" height="58.4" transform="translate(-24.06 46.32) rotate(-45)"/><path class="cls-2" d="M43.9,94.1,2,52.2,43.9,10.3,85.8,52.2ZM3.2,52.2,43.9,92.9,84.6,52.2,43.9,11.5Z"/><rect class="cls-1" x="14.68" y="14.81" width="58.4" height="58.4" transform="translate(-18.27 43.92) rotate(-45)"/><path class="cls-2" d="M43.9,85.9,2,44,43.9,2.1,85.8,44ZM3.2,44,43.9,84.7,84.6,44,43.9,3.3Z"/><rect class="cls-1" x="20.45" y="20.68" width="47" height="47.1" transform="translate(-18.4 44.03) rotate(-45)"/><path class="cls-2" d="M43.9,78,10,44.2,43.9,10.3,77.8,44.2ZM11.2,44.2,43.9,76.9,76.6,44.2,43.9,11.5Z"/><rect class="cls-2" x="13.9" y="34" width="60.1" height="19.6"/><path class="cls-1" d="M24.8,52.3l5-16.8H24.5s-1.7,7.2-1.9,8.6h0c-.2-1.4-1.7-8.6-1.7-8.6H15.7l4.2,16.8Z"/><path class="cls-3" d="M24.8,52.3l5-16.8H24.5s-1.7,7.2-1.9,8.6h0c-.2-1.4-1.7-8.6-1.7-8.6H15.7l4.2,16.8Z"/><polygon class="cls-1" points="31.7 52.3 40.9 52.3 40.9 48.3 36.6 48.3 36.6 45.7 39.8 45.7 39.8 41.8 36.6 41.8 36.6 39.4 40.9 39.4 40.9 35.4 31.7 35.4 31.7 52.3"/><polygon class="cls-3" points="31.7 52.3 40.9 52.3 40.9 48.3 36.6 48.3 36.6 45.7 39.8 45.7 39.8 41.8 36.6 41.8 36.6 39.4 40.9 39.4 40.9 35.4 31.7 35.4 31.7 52.3"/><polygon class="cls-1" points="57.4 52.3 53 43.6 56.9 35.4 51.7 35.4 49 41.4 48.9 41.4 48.9 41.5 49 41.4 48.9 41.4 49 41.4 49 35.4 44 35.4 44 52.3 49 52.3 49 45.8 49 45.8 49 45.8 52.1 52.3 57.4 52.3"/><polygon class="cls-3" points="57.4 52.3 53 43.6 56.9 35.4 51.7 35.4 49 41.4 48.9 41.4 48.9 41.5 49 41.4 48.9 41.4 49 41.4 49 35.4 44 35.4 44 52.3 49 52.3 49 45.8 49 45.8 49 45.8 52.1 52.3 57.4 52.3"/><path class="cls-1" d="M64.2,45.9l.7-3.3c.2-1.1.3-2.1.5-3.2h0c.1,1,.2,2.1.4,3.2l.5,3.3H64.2m8.1,6.4L68.4,35.5h-6L58,52.3h5.1l.4-2.2h3.3l.4,2.2Z"/><path class="cls-3" d="M64.2,45.9l.7-3.3c.2-1.1.3-2.1.5-3.2h0c.1,1,.2,2.1.4,3.2l.5,3.3Zm8.1,6.4L68.4,35.5h-6L58,52.3h5.1l.4-2.2h3.3l.4,2.2Z"/></svg>