<svg id="Layer_1" data-name="Layer 1" xmlns="http://www.w3.org/2000/svg" viewBox="0 0 139 139"><defs><style>.cls-1{fill:#ff1a44;}</style></defs><title>Преимущества_01</title><path class="cls-1" d="M123,76.95a25.14,25.14,0,0,0-16.37-19l6.55-9.82-1.15-1a18.39,18.39,0,0,0-11.3-4.09c-6.06,0-11.62,3.27-16.37,10A50.18,50.18,0,0,0,62.47,48c-24.89,0-45,18-45.84,40.28-1.47-.16-3.93-.49-5.08-2.13-1-1.15-1-2.95-.33-5.24L8,79.9c-1.15,3.44-.82,6.22.82,8.35,2.13,2.78,5.89,3.44,7.86,3.44.65,11.3,6.22,21.78,15.55,29.31l2,17.85H50.68l5.4-7.86a49.49,49.49,0,0,0,19-1.15L78.35,139H94.89L100,119.52c11.13-2,18.66-7.86,22.27-17.19h9.5V76.95Zm5.4,21.78h-8.51l-.33,1.15c-2.95,9-10,14.41-20.47,16.21a7.09,7.09,0,0,1-.82.16l-1,.16-4.91,19.16H80.81l-3.44-9.82-1.47.49a46.38,46.38,0,0,1-20.14,1.31l-1-.16-5.57,8.19H37.59l-1.8-16.21-.49-.49C25.8,111.49,20.4,101,20.4,89.72,20.4,68.6,39.55,51.41,63,51.41a44.55,44.55,0,0,1,21.61,5.4l1.31.65.82-1.31c4.26-6.39,9.17-9.66,14.41-9.66A14.82,14.82,0,0,1,109,49l-7.53,11,2.29.65A21.86,21.86,0,0,1,120.1,78.91l.16,1.47h8.19V98.72Z"/><path class="cls-1" d="M54,43.71A12.28,12.28,0,1,0,41.68,31.43,12.06,12.06,0,0,0,54,43.71Zm0-21.28a9,9,0,1,1-9,9A9,9,0,0,1,54,22.43Z"/><path class="cls-1" d="M46.43,61.72A46.51,46.51,0,0,1,64.76,58V54.68a47,47,0,0,0-19.65,4.09Z"/><path class="cls-1" d="M105.69,80.06a2.08,2.08,0,0,1,.16,1,2.55,2.55,0,0,1-2.46,2.62A2.59,2.59,0,0,1,100.78,81H97.51a5.89,5.89,0,1,0,11.79,0,5.23,5.23,0,0,0-.49-2.29Z"/><rect class="cls-1" x="45.44" y="4.09" width="3.44" height="12.61"/><rect class="cls-1" x="55.6" width="3.44" height="12.61"/></svg>