<svg xmlns="http://www.w3.org/2000/svg" width="24" height="24" viewBox="0 0 24 24"><path d="M7 0v24h10V0zm3.8046 5.4129l-1.2291 6.3756H7.5882V1.1454zm1.771 2.35l.8871 4.0259h-3.2868l1.1069-5.7412zM11.4365 5.25l.2735-1.4173.5542 2.5149zm2.7684 7.1647h1.2927l-.9993 1.3317zm-.1737 1.9542l-5.8578 7.8063 1.8818-9.7606h3.5454zm.0358-2.58l-.637-2.8934 2.18 2.893zm-6.4787.6261h1.8666l-1.8667 9.6822zm6.6139 2.73l1.8133 8.23h-7.989zm.4672-.6225l1.5814-2.1073h.1611V22.43zm1.7425-2.7334h-.0475l-3.2467-4.3084-1.4463-6.564-.713 3.6987L7.9519.6261h8.46z"/></svg>