<svg xmlns="http://www.w3.org/2000/svg" width="24" height="24" viewBox="0 0 24 24"><path d="M12.2752,24.0111h-10v-24h10Zm-9.4343-.585H11.71V.5961H2.8409Z"/><rect x="2.6396" y="11.7186" width="9.2712" height="0.585"/><polygon points="3.009 23.502 2.543 23.125 11.514 12.013 2.319 0.861 2.782 0.479 12.287 12.009 3.009 23.502"/><polygon points="3.095 23.861 2.506 23.744 7.231 -0.011 12.018 23.55 11.43 23.67 7.236 3.033 3.095 23.861" /><path d="M11.7248.0111h10v24h-10Zm9.4343.585H12.29v22.83h8.8686Z"/><rect x="12.0892" y="11.7186" width="9.2712" height="0.585"/><polygon points="20.991 23.502 21.457 23.125 12.486 12.013 21.681 0.861 21.218 0.479 11.713 12.009 20.991 23.502"/></svg>
