<svg xmlns="http://www.w3.org/2000/svg" width="24" height="24" viewBox="0 0 24 24"><path d="M24,6.6666H0V17.3333H15.9194v.002h7.8489v-.002H24ZM.49,7.4632,6.971,11.6884.49,16.5166Zm7.3368,9.3926H.841l6.9719-5.1934L.8809,7.1442H7.8266Zm7.837-9.7115v9.3486l-1.5513-3.6859,1.5366-1.1446L12.8678,9.85,11.7291,7.1442ZM8.3265,7.469l2.6442,1.7237L8.3265,16.374Zm3.236,1.53.1951-.53.3809.905Zm2.3553,3.3459-.7139-1.6961,1.595,1.04ZM11.39,9.4663l1.0844.7069,1.04,2.4716L8.974,16.0275Zm.3346-2.3221-.5822,1.5811L8.7171,7.1442ZM8.6771,16.8557,13.71,13.1071l1.5776,3.7486Zm10.6921-6.6806,1.0844-.7068L22.87,16.03l-4.541-3.3828Zm-1.4431,2.1716L17.045,11.69l1.595-1.04Zm1.7836-2.98.3767-.8952.193.5239Zm-.7294.4755-2.7932,1.82,1.5432,1.15-1.55,3.6829V7.1462h3.9346Zm1.7188-1.12-.58-1.5753H23.116Zm-2.5659,4.39,5.0259,3.7438H16.5575Zm2.74-3.9174L23.51,7.4754v8.8813Z"/></svg>
