<svg xmlns="http://www.w3.org/2000/svg" width="24" height="24" viewBox="0 0 24 24"><path d="M10.674 12.946l.347.337.97-.945.969.945.347-.337-.97-.946.97-.946-.347-.337-.969.945-.97-.945-.347.337.97.946-.97.946z"/><path d="M16.1539 6.6667H0v10.6666h24V6.6667zM5.6809 12.65l-4.546 3.3865 2.421-6.5745 1.08.7038zm-.316-2.0083l1.6063 1.0471-.8873.661zM3.7264 8.9988l.195-.53.3809.905zm-.59.19L.49 16.3756V7.4632zM.881 7.1443h3.0079l-.5821 1.581zm4.9924 5.9628l1.5777 3.7486H.841zm1.9542 3.3857l-1.5513-3.6859 1.5366-1.1446L5.0316 9.85 3.8931 7.1443h3.9345zm7.8365.3629H8.3263V7.1443h7.3378zm1.3641-5.1673L23.51 7.4628v9.0543zm-.8648-4.5442h6.9549l-6.9319 4.518 6.9719 5.1934h-6.9948z"/></svg>