<svg xmlns="http://www.w3.org/2000/svg" width="24" height="24" viewBox="0 0 24 24"><path d="M3.194 13.283l.969-.945.97.945.346-.337L4.51 12l.969-.946-.346-.337-.97.945-.969-.945-.347.337.97.946-.97.946.347.337z"/><path d="M16.1628 6.6667H0v10.6666h24V6.6667zm-8.3263 10.189H.49V7.1443h7.3465zm7.8365-.3417l-1.56-3.7071 1.5366-1.1446L12.8682 9.85 11.73 7.1443h3.9435zm-2.1556-3.864l-4.546 3.3865 2.421-6.5745 1.08.7038zm-.316-2.0083l1.6063 1.0471-.8873.661zM11.563 8.9988l.195-.53.3809.905zm-.59.19l-2.6467 7.1868V7.4632zM8.7175 7.1443h3.0079l-.5821 1.581zm4.9925 5.9628l1.5777 3.7486h-6.61zm9.8 3.7486h-7.3465V7.1443H23.51z"/><path d="M18.867 13.283l.97-.945.969.945.347-.337-.97-.946.97-.946-.347-.337-.969.945-.97-.945-.346.337.969.946-.969.946.346.337z"/></svg>