<svg xmlns="http://www.w3.org/2000/svg" width="24" height="24" viewBox="0 0 24 24"><path d="M0,6.6666V17.3333H24V6.6666H0Zm19.5607.4776-.5819,1.58-2.4247-1.58Zm1.792,5.5054-4.5461,3.3865L19.2277,9.462l1.08.7038Zm-.316-2.0084,1.6063,1.0472-.8873.661ZM19.3985,8.9982l.1948-.529.38.9039Zm4.101,7.4946-1.551-3.6852,1.5375-1.1453-2.783-1.8139L19.565,7.1442h3.9345Zm-6.9854.3629,5.0315-3.748,1.5774,3.748Zm-.3483-.4915V7.4659l2.6422,1.7225Zm-4.6015-7.366.1948-.529.38.9039Zm2.3547,3.3456L13.2063,10.65l1.5926,1.0382ZM8.9763,16.0258l2.4154-6.5587,1.0853.7075,1.0392,2.4692Zm-.6469.3447v-8.9L10.972,9.1936Zm3.3972-9.2263-.5819,1.58L8.72,7.1442Zm3.9376,0V16.49l-1.55-3.6824,1.5375-1.1453-2.783-1.8139L11.7308,7.1442Zm-.3753,9.7114H8.68l5.0314-3.7479Zm-14.4478,0,6.9719-5.1934L.8811,7.1442H7.8266v9.7115ZM.49,7.4632l6.4813,4.2253L.49,16.5166Z"/></svg>
