<svg xmlns="http://www.w3.org/2000/svg" width="24" height="24" viewBox="0 0 24 24"><path d="M12.3634 4H0v16h24V4zm-3.9 8.9858l-6.7618 5.0885 3.6056-9.8908L6.9 9.2321zm-.4808-3.0405l2.4111 1.5878-1.332 1.0024zm-2.422-2.4568l.2859-.7842.5582 1.34zm-.8766.2846L.7273 18.6264V5.1674zM1.3505 4.7164h4.4478l-.861 2.3617zm7.3987 8.9556l2.3377 5.6115H1.2921zm.5985-.45l2.2884-1.722v7.215zm2.2885-1.7328L7.4877 8.7575 5.8042 4.7164h5.832zm11.6366 7.7947H12.3634V4.7164h10.9093z"/><path d="M16.379 13.925l1.439-1.418 1.44 1.418.515-.507L18.333 12l1.44-1.418-.515-.507-1.44 1.418-1.439-1.418-.515.507L17.304 12l-1.44 1.418.515.507z"/></svg>