<svg xmlns="http://www.w3.org/2000/svg" width="24" height="24" viewBox="0 0 24 24"><path d="M16.1734,6.6666H0V17.3333H24V6.6666ZM.49,7.4632,6.971,11.6884.49,16.5166Zm7.3368,9.3926H.841l6.9719-5.1934L.8809,7.1442H7.8266Zm.5-9.3869,6.4727,4.22L8.3263,16.51Zm7.3379,9.3868H8.6766l6.9719-5.1934-6.932-4.518h6.9476Zm.5093,0V7.1442H23.119l-6.9319,4.5181,6.9719,5.1934Zm7.3369-.3391-6.4814-4.8282L23.51,7.4632Z"/><path d="M15.6844,6.6666H8.0756V17.3333h7.8489V6.6666Zm-3.9595.4776-.5822,1.5811L8.7171,7.1442Zm1.79,5.5007L8.974,16.0277,11.39,9.4663l1.0844.7068Zm-.311-1.9963,1.595,1.04-.8811.6564Zm-1.6415-1.65.1951-.53.3809.905Zm-3.236-1.53,2.6442,1.7238L8.3265,16.374Zm.3506,9.3868L13.71,13.1071l1.5776,3.7486Zm6.9866-.3629-1.5513-3.6859,1.5366-1.1446L12.8678,9.85,11.7291,7.1442h3.9346Z"/></svg>
