<svg xmlns="http://www.w3.org/2000/svg" width="24" height="24" viewBox="0 0 24 24"><path d="M0,6.6666V17.3333H24V6.6666H0Zm3.8889.4776L3.3067,8.7253.881,7.1442ZM1.1347,16.0361,3.5558,9.462l1.08.7039L5.6808,12.65l-2.744,2.0441ZM3.7264,8.9988l.1951-.53.3809.905-.5211-.34Zm3.2447,2.69-.8873.661-.7189-1.7081Zm.8555-4.5442V16.49l-1.55-3.6835,1.5366-1.1447L5.0316,9.85,3.893,7.1442Zm3.7357,1.8546.1951-.53.3809.905Zm2.3554,3.3459-.7139-1.6962,1.595,1.04ZM8.9738,16.0277,11.39,9.4663l1.0844.7068,1.04,2.4718Zm-.6475.3463V7.4688L10.97,9.1926Zm5.3831-3.2669,1.5777,3.7486H8.677ZM11.7248,7.1442l-.5822,1.5811L8.7169,7.1442Zm3.9387,0v9.3486l-1.5513-3.6859,1.5366-1.1446L12.8675,9.85,11.729,7.1442Zm3.7472,1.8546.1951-.53.3809.905Zm2.3547,3.3443-.712-1.6917,1.5908,1.037Zm-4.942,3.6815L19.238,9.4679l1.0861.7081,1.0384,2.4672Zm-.6493.3511V7.47l2.6442,1.7238Zm3.3991-9.2314L18.991,8.7253,16.5653,7.1442Zm3.937,0v9.3445l-1.55-3.6818,1.5366-1.1446L20.7159,9.85,19.5774,7.1442Zm-6.9849,9.7115,5.0324-3.7487,1.5777,3.7487Zm-15.6843,0,5.0324-3.7487,1.5777,3.7487ZM.49,7.4632,3.1361,9.1884.49,16.3756Z"/></svg>
