<svg xmlns="http://www.w3.org/2000/svg" width="24" height="24" viewBox="0 0 24 24"><path d="M16.1539,6.6667H0V17.3333H24V6.6667ZM6.9711,11.6884.49,16.5166V7.4632ZM.841,16.8557l6.9719-5.1934L.881,7.1443H7.8276v9.7114Zm14.8231,0H8.3263V7.1443h7.3378Zm.4993-9.3921,6.4807,4.2249-6.4807,4.8277ZM23.51,16.8557H16.5141l6.9719-5.1934L16.554,7.1443H23.51Z"/><path d="M7.8283,6.6667H7.8266V17.3333h8.3281V6.6667H7.8283Zm.84,10.189,6.9719-5.1934L8.7087,7.1443h6.9562v9.7114ZM8.3181,7.4635l6.4807,4.2249L8.3181,16.5162Z"/><path d="M7.8361,6.6667H7.8344V17.3333h8.3281V6.6667H7.8361Zm.84,10.189,6.9719-5.1934L8.7165,7.1443h6.9562v9.7114ZM8.3259,7.4635l6.4807,4.2249L8.3259,16.5162Z"/></svg>
