<svg xmlns="http://www.w3.org/2000/svg" width="24" height="24" viewBox="0 0 24 24"><path d="M12.3634 4H0v16h24V4zm6.6991 3.0778l-.8607-2.3614h4.4474zm4.21-1.9111v13.4621L19.3157 7.7724zm-4.58 3.0161l3.6058 9.8915-6.7618-5.0886 1.5641-3.7545zm-1.0973-.1389l.5582-1.34.2859.7843zm-2.6572 4.4913l-1.3322-1.0026 2.4116-1.5882zm-.2859.6862l-2.2887 5.4933v-7.2155zm.5987.4505l7.4572 5.6116h-9.7949zm2.9449-8.9555l-1.6835 4.0405-4.1488 2.7315v-6.772zm-9.7324 8.2691l-6.7617 5.0887 3.6056-9.8911 1.5923 1.0485zm-.4808-3.0407l2.4112 1.5879-1.332 1.0025zM5.5606 7.488l.2859-.7842.5582 1.34zm-.8766.2846L.7273 18.6263V5.167zM1.3512 4.7164h4.4469l-.8608 2.3613zm7.3979 8.9553l2.3378 5.6118H1.292zm.5985-.45l2.2885-1.7222v7.2155zm2.2885-1.7329L7.4877 8.7569 5.8043 4.7164h5.8318z"/></svg>