<svg xmlns="http://www.w3.org/2000/svg" width="24" height="24" viewBox="0 0 24 24"><path d="M3.194 13.283l.969-.945.97.945.346-.337L4.51 12l.969-.946-.346-.337-.97.945-.969-.945-.347.337.97.946-.97.946.347.337z"/><path d="M16.1628 6.6667H0v10.6666h24V6.6667zm-8.3263 10.189H.49V7.1443h7.3465zm6.9711-5.1673l-6.4813 4.8282V7.4632zm.8654 5.1673H8.6775l6.9719-5.1934-6.9319-4.518h6.9555zm7.8372 0h-7.3467V7.1443H23.51z"/><path d="M18.867 13.283l.97-.945.969.945.347-.337-.97-.946.97-.946-.347-.337-.969.945-.97-.945-.346.337.969.946-.969.946.346.337z"/></svg>