<svg xmlns="http://www.w3.org/2000/svg" width="24" height="24" viewBox="0 0 24 24"><path d="M12.3634,4H0V20H24V4Zm-6.5652.7164L4.9374,7.0776,1.3512,4.7164Zm2.6651,8.269L1.7016,18.0742,5.3072,8.183,6.8995,9.2316ZM7.9825,9.9448l2.4112,1.5879-1.332,1.0025ZM5.5606,7.488l.2859-.7842.5582,1.34ZM.7273,5.167,4.684,7.7726.7273,18.6263ZM1.292,19.2836l7.4572-5.6118,2.3378,5.6118Zm10.3442-.5689L9.3476,13.2214l2.2886-1.7222Zm0-7.2262L7.4877,8.7569l-1.6833-4.04h5.8318Zm.7272-6.772H22.6492l-10.2858,6.772Zm0,14.5671V11.4991l10.3452,7.7844Zm10.9094-.4766-9.6669-7.2744,9.6669-6.3655Z"/></svg>
