<svg xmlns="http://www.w3.org/2000/svg" width="24" height="24" viewBox="0 0 24 24"><path d="M0,6.6666V17.3333H24V6.6666H0Zm8.3264.8022,6.4725,4.2195L8.3264,16.51Zm7.3378-.3246v9.7114H8.6765l6.9719-5.1934L8.7165,7.1442Zm3.7344,1.8539.1948-.529.38.9039Zm3.2444,2.69-.8873.661-.7189-1.7082Zm-5.8363,4.3477L19.2277,9.462l1.08.7038L21.3527,12.65Zm-.6431.3344V7.4644l2.6445,1.724Zm3.3972-9.2263-.5819,1.58-2.4247-1.58Zm3.9387,0v9.3486l-1.551-3.6852,1.5375-1.1453-2.783-1.8139L19.565,7.1442Zm-6.9854,9.7115,5.0315-3.748,1.5774,3.748Zm-15.673,0,6.9719-5.1934L.8811,7.1442H7.8266v9.7115ZM.49,7.4632l6.4813,4.2253L.49,16.5166Z"/></svg>
