<svg xmlns="http://www.w3.org/2000/svg" width="24" height="24" viewBox="0 0 24 24"><path d="M11.031 13.283l.969-.945.969.945.347-.337-.969-.946.969-.946-.347-.337-.969.945-.969-.945-.347.337.969.946-.969.946.347.337z"/><path d="M13.316 11.054l-.347-.337-.969.945-.969-.945-.347.337.969.946-.969.946.347.337.969-.945.969.945.347-.337-.969-.946.969-.946z"/><path d="M23.9962 6.6667H0v10.6666h24V6.6667zM7.8365 16.8557H.49V7.1443h7.3465zm.49 0V7.1443H15.67v9.7114zm7.8372 0V7.1443h7.3429v9.7114z"/><path d="M12.971 10.717l-.002.002-.002-.002-.967.943-.967-.943-.002.002-.002-.002-.347.337.969.946-.969.946.347.337.002-.002.002.002.967-.943.967.943.002-.002.002.002.347-.337-.969-.946.969-.946-.347-.337z"/></svg>