<svg xmlns="http://www.w3.org/2000/svg" width="24" height="24" viewBox="0 0 24 24"><polygon points="11.021 13.283 11.991 12.338 12.96 13.283 13.307 12.946 12.337 12 13.307 11.054 12.96 10.717 11.991 11.662 11.021 10.717 10.674 11.054 11.644 12 10.674 12.946 11.021 13.283"/><path d="M16.1724,6.6666H0V17.3333H24V6.6666ZM3.8889,7.1442,3.3067,8.7253.881,7.1442ZM5.6809,12.65,1.1348,16.0361,3.5559,9.462l1.08.7038Zm-.316-2.0084,1.6063,1.0472-.8873.661ZM3.7264,8.9988l.1951-.53.3809.905ZM.49,7.4632,3.1362,9.1884.49,16.3756ZM.841,16.8557l5.0324-3.7487,1.5777,3.7487Zm6.9866-.3629L6.2763,12.8069l1.5366-1.1446L5.0316,9.85,3.8931,7.1442H7.8276Zm7.8365.3629H8.3263V7.1442h7.3378ZM23.119,7.1442,20.6933,8.7253l-.5822-1.5811Zm-3.7545,3.0215,1.08-.7038,2.4211,6.5741L18.3192,12.65Zm-1.4482,2.1837-.8873-.661,1.6063-1.0472Zm1.7814-2.9752.3809-.905.195.53Zm-3.5253-2.23H20.107L18.9683,9.85l-2.7812,1.8128,1.5366,1.1446-1.5513,3.6859Zm.3765,9.7115,1.5778-3.7487,5.0323,3.7487Zm6.9614-.48L20.8638,9.1884,23.51,7.4632Z"/></svg>
