<?xml version="1.0" standalone="no"?>
<!DOCTYPE svg PUBLIC "-//W3C//DTD SVG 20010904//EN"
 "http://www.w3.org/TR/2001/REC-SVG-20010904/DTD/svg10.dtd">
<svg version="1.0" xmlns="http://www.w3.org/2000/svg"
 width="700.000000pt" height="700.000000pt" viewBox="0 0 700.000000 700.000000"
 preserveAspectRatio="xMidYMid meet">
<metadata>
Created by potrace 1.11, written by Peter Selinger 2001-2013
</metadata>
<g transform="translate(0.000000,700.000000) scale(0.100000,-0.100000)"
fill="#000000" stroke="none">
<path d="M4955 6945 c-88 -29 -356 -117 -595 -195 -239 -78 -466 -152 -505
-165 -135 -45 -685 -225 -1175 -385 -272 -89 -526 -172 -565 -185 -98 -33
-1091 -358 -1197 -392 -49 -15 -88 -30 -88 -33 0 -3 25 -79 55 -170 30 -90 53
-165 51 -168 -2 -2 -10 -4 -18 -6 -38 -6 -51 -23 -44 -57 4 -19 10 -45 12 -59
14 -75 31 -112 81 -181 40 -56 60 -76 76 -75 19 1 41 -59 254 -704 530 -1601
479 -1455 505 -1452 22 2 280 85 853 274 149 48 291 95 317 102 l46 14 25 -37
c23 -35 33 -40 118 -62 51 -13 97 -29 104 -35 6 -7 19 -50 29 -97 l18 -85 32
3 c17 2 60 6 96 9 36 4 90 9 120 12 128 12 130 12 122 0 -4 -7 -45 -60 -91
-119 -73 -94 -89 -108 -130 -121 -116 -37 -164 -45 -271 -50 -63 -2 -121 -5
-127 -5 -7 -1 -13 -12 -13 -25 0 -23 2 -24 93 -25 117 -2 132 -5 132 -22 0
-11 -27 -14 -130 -16 -71 -2 -150 -8 -175 -13 -48 -11 -79 -18 -120 -26 -65
-13 -285 -86 -292 -97 -16 -25 -7 -53 26 -80 19 -15 40 -27 45 -27 6 0 41 20
78 44 37 24 89 53 116 65 26 11 66 30 90 40 27 13 76 22 131 25 49 3 87 4 85
2 -35 -32 -126 -93 -394 -265 -104 -67 -198 -130 -207 -139 -11 -11 -24 -59
-37 -134 -18 -105 -30 -139 -105 -305 -77 -170 -119 -297 -152 -458 -2 -11
-24 -99 -47 -195 -24 -96 -43 -176 -43 -177 1 -1 36 -3 78 -4 l76 -3 -18 -26
c-10 -14 -75 -83 -145 -155 -114 -118 -139 -138 -268 -216 -78 -48 -141 -91
-140 -97 1 -6 3 -35 4 -66 1 -30 6 -61 10 -68 6 -10 49 -13 171 -14 l163 -2
160 70 c88 39 165 74 170 78 6 5 30 47 55 94 37 72 49 86 70 88 14 0 30 2 35
3 6 1 35 5 67 9 l56 8 6 42 c3 22 9 66 12 96 11 95 13 96 96 104 99 10 149 16
173 21 17 4 26 24 48 112 16 59 30 115 32 124 2 9 13 54 25 100 21 80 25 87
83 140 l61 57 -21 48 c-13 32 -17 58 -13 74 18 63 303 788 330 839 35 65 95
134 112 129 19 -7 298 -709 294 -738 -3 -14 -7 -43 -11 -65 -7 -41 -7 -42 76
-320 130 -433 135 -453 134 -508 l-2 -37 73 0 c72 0 72 0 69 -26 -1 -15 -6
-29 -11 -33 -5 -3 -22 -20 -37 -38 l-29 -31 21 -113 c12 -63 24 -124 27 -136
3 -15 12 -23 27 -24 12 -1 36 -3 52 -4 17 -2 86 -6 154 -10 l124 -7 126 -65
c69 -36 150 -79 179 -94 52 -28 56 -29 213 -29 158 0 159 0 160 23 7 154 3
173 -36 180 -103 18 -135 32 -217 96 -47 36 -99 77 -117 91 -148 114 -144 108
-156 220 -3 30 -8 71 -11 90 -2 19 -6 55 -9 80 -3 25 -7 61 -10 80 -2 19 -7
76 -10 125 -12 176 -15 211 -20 255 -2 25 -7 81 -10 125 -3 44 -7 106 -10 138
-15 171 -21 250 -30 367 -3 36 -7 94 -10 130 -3 36 -8 92 -10 125 -11 132 -16
171 -31 244 -9 42 -18 85 -20 96 -2 11 -22 107 -44 214 -43 205 -48 231 -49
244 -1 9 -83 3 -199 -13 -54 -7 -119 -6 -237 5 -64 5 -232 18 -265 19 -21 1
-25 5 -23 30 1 16 8 33 14 37 6 4 54 12 106 19 53 6 105 13 117 15 11 2 57 9
100 15 43 5 97 17 120 24 266 93 362 128 370 136 5 5 6 20 2 34 -5 19 -11 24
-29 20 -12 -2 -61 -7 -108 -10 l-87 -7 -7 44 c-7 44 -31 175 -40 216 -5 23
-40 10 920 325 83 27 308 101 501 164 l351 115 -28 87 c-15 48 -80 244 -143
435 -64 192 -116 354 -116 361 0 7 20 34 45 62 l44 49 1 82 c0 82 0 83 -43
142 l-43 58 -60 -18 c-32 -10 -61 -15 -65 -11 -3 4 -61 174 -128 377 -287 870
-414 1250 -420 1256 -3 4 -78 -17 -166 -46z m332 -689 c182 -547 211 -640 198
-650 -34 -25 -122 -275 -151 -426 -7 -34 -15 -41 -129 -99 -111 -57 -120 -62
-302 -176 -75 -46 -158 -107 -199 -147 -67 -65 -73 -68 -97 -57 -24 11 -32 8
-81 -26 -37 -25 -57 -47 -61 -65 -4 -17 -19 -34 -43 -47 -62 -34 -114 -63
-175 -100 -54 -33 -65 -36 -150 -38 -74 -2 -109 -9 -175 -34 -46 -17 -85 -31
-87 -31 -2 0 -19 17 -38 37 -31 32 -44 38 -109 48 l-73 11 0 58 0 59 85 35
c47 19 97 39 111 45 22 9 26 16 22 41 -2 17 -15 47 -28 67 -36 56 -41 102 -16
138 12 16 18 36 15 45 -3 8 -37 30 -76 47 -82 39 -98 58 -98 120 0 47 0 48
-93 127 -58 50 -108 84 -133 92 -26 8 -47 22 -57 39 -15 26 -20 27 -74 24 -60
-3 -61 -4 -105 -66 -9 -13 -64 -47 -122 -76 -102 -51 -105 -53 -120 -99 -9
-26 -29 -84 -45 -130 l-28 -83 26 -17 c14 -9 27 -16 28 -17 1 -1 5 -19 8 -41
12 -77 14 -87 23 -93 4 -3 52 -41 105 -84 77 -62 97 -83 98 -105 1 -15 2 -42
3 -61 l1 -34 -80 -3 c-84 -3 -86 -4 -125 -62 l-15 -23 -115 36 c-63 19 -137
42 -165 51 -27 8 -86 18 -130 20 -44 3 -93 7 -110 9 -16 1 -37 3 -45 4 -9 0
-22 16 -28 35 -8 21 -33 50 -67 76 -47 37 -60 42 -92 37 -34 -4 -46 2 -128 63
-49 37 -140 95 -201 129 -61 34 -122 72 -135 84 -13 12 -76 61 -140 110 -99
74 -118 93 -129 128 -8 23 -31 66 -53 95 -21 30 -59 100 -84 157 -52 117 -58
126 -81 122 -9 -2 -22 -4 -28 -4 -19 -2 -25 -112 -8 -159 13 -39 13 -48 -3
-92 l-17 -49 -72 -3 -72 -3 -15 35 c-8 19 -31 85 -49 145 l-35 110 26 12 c14
7 242 82 506 168 264 86 597 195 740 242 143 47 316 103 385 125 69 23 154 51
190 64 36 12 261 86 500 164 239 78 480 157 535 175 55 18 350 115 655 214
305 100 564 186 575 191 11 5 25 8 30 6 6 -1 106 -289 222 -640z m273 -821
c40 -118 39 -122 -11 -94 -39 23 -40 24 -32 64 4 22 8 59 8 82 0 23 1 41 2 39
2 -2 17 -43 33 -91z m285 -862 c70 -214 128 -394 129 -401 1 -13 -27 -23 -634
-222 -223 -72 -511 -167 -640 -210 -427 -140 -402 -133 -411 -119 -4 8 -13 45
-20 84 -6 38 -13 79 -15 89 -2 11 7 28 19 40 20 18 91 80 296 261 19 16 57 51
85 78 49 45 53 47 106 46 54 -2 57 -1 112 52 37 35 60 66 65 88 7 28 16 37 48
48 48 16 125 89 120 112 -3 16 46 71 261 293 82 84 99 97 136 103 24 4 50 9
58 10 8 1 38 6 65 9 28 4 57 11 65 17 8 5 18 9 21 9 3 0 63 -174 134 -387z
m-4518 221 c174 -185 217 -236 220 -256 2 -13 9 -27 16 -33 7 -5 69 -56 138
-111 105 -85 136 -105 187 -119 60 -17 62 -19 62 -51 0 -30 6 -37 69 -74 69
-41 71 -41 130 -32 l60 9 120 -64 119 -63 143 -163 c78 -89 151 -171 161 -183
15 -17 94 -215 116 -289 3 -11 27 -55 54 -97 26 -43 48 -81 48 -86 0 -4 -163
-61 -362 -127 -200 -65 -424 -138 -498 -162 -74 -25 -168 -55 -207 -68 l-73
-23 -321 972 c-176 534 -329 995 -340 1024 -23 65 -24 60 4 64 71 11 88 4 154
-68z"/>
<path d="M2743 2702 c-29 -35 -30 -38 -17 -64 10 -20 23 -28 42 -29 15 0 45
-3 67 -7 22 -3 103 -5 180 -5 128 0 152 4 285 38 80 20 159 40 175 44 21 5 31
14 33 30 3 18 0 22 -15 17 -122 -39 -186 -48 -323 -50 -175 -1 -242 7 -315 39
-31 14 -61 25 -68 25 -7 -1 -26 -17 -44 -38z"/>
</g>
</svg>
