<svg xmlns="http://www.w3.org/2000/svg" width="496.646" height="582.426" viewBox="0 0 496.646 582.426">
  <path fill="#FFFFFF" stroke="#FFFFFF" stroke-miterlimit="10" stroke-width="18" d="M9 9h478.646v564.426H9z"/>
  <path fill="#E22028" d="M73.019 162.411h348.826v84.979H73.019z"/>
  <path fill="#24211C" d="M73.058 77.431h348.83v84.979H73.058z"/>
  <path fill="#F5CD28" d="M72.98 247.388h348.827v84.979H72.98z"/>
  <g fill="#262626">
    <path d="M113.435 424.016h-12.301v-14.558H90.398v14.558H78.133v-39.377h12.265v15.357h10.736v-15.357h12.301v39.377zm24.747.765c-5.799 0-10.427-1.82-13.884-5.459-3.457-3.64-5.186-8.201-5.186-13.685v-1.383c0-5.992 1.571-10.887 4.713-14.685 3.142-3.797 7.636-5.683 13.484-5.659 5.337 0 9.522 1.602 12.556 4.804 3.032 3.203 4.549 7.546 4.549 13.029v6.441h-22.491l-.073.219c.267 2.014 1.092 3.67 2.475 4.968s3.227 1.946 5.532 1.946c2.329 0 4.191-.182 5.586-.546 1.395-.363 3.16-.994 5.295-1.893l2.911 7.497c-1.723 1.262-3.949 2.312-6.678 3.148s-5.659 1.258-8.789 1.258zm-.873-31.407c-1.771 0-3.1.631-3.985 1.892-.886 1.263-1.425 2.948-1.619 5.059l.109.183h10.59v-.946c0-1.989-.413-3.518-1.237-4.586-.826-1.069-2.112-1.602-3.858-1.602zm46.801 16.776h.218l8.807-25.511h15.431v39.377h-12.301V402.8l-.218-.037-7.715 21.254h-8.152l-7.278-20.089-.218.036v20.053h-12.301V384.64h15.067l8.66 25.51zm50.696 14.631c-5.799 0-10.427-1.82-13.884-5.459-3.457-3.64-5.186-8.201-5.186-13.685v-1.383c0-5.992 1.571-10.887 4.713-14.685 3.142-3.797 7.636-5.683 13.484-5.659 5.337 0 9.522 1.602 12.556 4.804 3.032 3.203 4.549 7.546 4.549 13.029v6.441h-22.491l-.073.219c.267 2.014 1.092 3.67 2.475 4.968s3.227 1.946 5.532 1.946c2.329 0 4.191-.182 5.586-.546 1.395-.363 3.16-.994 5.295-1.893l2.912 7.497c-1.724 1.262-3.949 2.312-6.679 3.148s-5.659 1.258-8.789 1.258zm-.873-31.407c-1.771 0-3.1.631-3.985 1.892-.886 1.263-1.425 2.948-1.619 5.059l.109.183h10.59v-.946c0-1.989-.413-3.518-1.237-4.586-.826-1.069-2.112-1.602-3.858-1.602zm22.016-8.735h12.265v29.915h10.846v-29.915h12.337v29.987h6.479l-.729 21.072h-11.573v-11.683H255.95v-39.376zm62.925 25.621h-3.676v13.757h-12.301V384.64h12.301v14.156h3.53l6.26-14.156h15.722l-11.5 18.196h.036l12.629 21.181h-16.632l-6.369-13.757z"/>
    <path d="M341.146 403.964c0-5.92 1.674-10.741 5.021-14.466 3.349-3.725 8.019-5.587 14.012-5.587 6.017 0 10.699 1.862 14.048 5.587 3.348 3.725 5.022 8.546 5.022 14.466v.765c0 5.944-1.675 10.772-5.022 14.484-3.349 3.712-8.007 5.568-13.975 5.568-6.042 0-10.736-1.856-14.085-5.568-3.348-3.712-5.021-8.54-5.021-14.484v-.765zm12.301.764c0 3.3.515 5.89 1.547 7.77 1.03 1.881 2.783 2.82 5.259 2.82 2.401 0 4.124-.946 5.167-2.839 1.043-1.892 1.565-4.476 1.565-7.751v-.765c0-3.202-.522-5.769-1.565-7.697s-2.79-2.893-5.24-2.893c-2.427 0-4.155.971-5.186 2.911-1.032 1.941-1.547 4.501-1.547 7.679v.765zm49.203 20.053c-5.799 0-10.427-1.82-13.884-5.459-3.457-3.64-5.186-8.201-5.186-13.685v-1.383c0-5.992 1.57-10.887 4.713-14.685 3.142-3.797 7.636-5.683 13.483-5.659 5.337 0 9.522 1.602 12.556 4.804 3.032 3.203 4.549 7.546 4.549 13.029v6.441H396.39l-.072.219c.267 2.014 1.092 3.67 2.475 4.968s3.227 1.946 5.532 1.946c2.329 0 4.19-.182 5.586-.546 1.395-.363 3.16-.994 5.295-1.893l2.912 7.497c-1.724 1.262-3.949 2.312-6.679 3.148s-5.659 1.258-8.789 1.258zm-.873-31.407c-1.771 0-3.1.631-3.985 1.892-.886 1.263-1.426 2.948-1.619 5.059l.109.183h10.59v-.946c0-1.989-.413-3.518-1.237-4.586-.825-1.069-2.111-1.602-3.858-1.602z"/>
  </g>
  <path fill="#262626" d="M94.554 492.358h-3.972v14.865H77.29v-42.551h13.292v15.298h3.814l6.764-15.298h16.989l-12.427 19.663h.039l13.646 22.888h-17.972l-6.881-14.865zm52.54 14.826c-.368-.682-.702-1.441-1.003-2.281-.302-.839-.558-1.704-.767-2.596-1.258 1.757-2.779 3.153-4.562 4.188-1.783 1.035-3.946 1.554-6.489 1.554-4.038 0-7.322-1.167-9.852-3.5-2.53-2.333-3.795-5.44-3.795-9.32 0-4.221 1.579-7.479 4.739-9.772 3.159-2.294 7.964-3.441 14.413-3.441h4.837v-3.028c0-1.809-.427-3.198-1.278-4.168-.852-.97-2.169-1.455-3.952-1.455-1.521 0-2.655.36-3.402 1.081-.747.722-1.121 1.842-1.121 3.362l-12.86-.039-.079-.236c-.184-3.88 1.429-7.124 4.837-9.733 3.408-2.608 7.917-3.913 13.528-3.913 5.243 0 9.498 1.312 12.761 3.933 3.264 2.622 4.896 6.371 4.896 11.248v16.045c0 2.281.19 4.392.57 6.331.379 1.94.95 3.868 1.71 5.781l-13.131-.041zm-8.77-8.612c1.311 0 2.517-.262 3.618-.787 1.101-.524 1.992-1.205 2.674-2.045v-6.646h-4.719c-2.098 0-3.625.511-4.582 1.533-.958 1.022-1.436 2.32-1.436 3.894 0 1.206.413 2.183 1.239 2.93.827.747 1.895 1.121 3.206 1.121zm64.77 8.651h-13.332v-12.781c-.813.132-1.547.23-2.202.295-.656.066-1.233.099-1.73.099-6.843 0-12.073-1.323-15.691-3.972-3.618-2.648-5.427-6.804-5.427-12.467v-13.725h13.253v13.725c0 2.517.557 4.183 1.671 4.994 1.114.813 3.179 1.22 6.194 1.22.629 0 1.271-.026 1.927-.079.655-.052 1.323-.144 2.005-.275v-19.584h13.332v42.55zm26.585.827c-6.267 0-11.267-1.967-15.003-5.899-3.736-3.933-5.604-8.861-5.604-14.786v-1.495c0-6.475 1.697-11.765 5.093-15.868 3.395-4.103 8.251-6.141 14.57-6.115 5.767 0 10.29 1.73 13.567 5.191 3.277 3.461 4.916 8.154 4.916 14.079v6.961h-24.303l-.079.235c.288 2.177 1.18 3.966 2.674 5.368 1.495 1.403 3.487 2.104 5.978 2.104 2.517 0 4.529-.196 6.037-.59 1.507-.393 3.415-1.074 5.722-2.045l3.146 8.102c-1.862 1.363-4.267 2.497-7.216 3.401-2.951.904-6.116 1.357-9.498 1.357zm-.944-33.939c-1.914 0-3.35.682-4.307 2.045s-1.54 3.186-1.75 5.466l.118.197h11.444v-1.022c0-2.149-.446-3.802-1.337-4.955-.891-1.154-2.28-1.731-4.168-1.731zm42.276 23.713c1.782 0 3.106-.484 3.972-1.455.865-.969 1.298-2.398 1.298-4.286h12.151l.079.236c.104 4.641-1.501 8.422-4.817 11.346-3.317 2.923-7.545 4.385-12.683 4.385-6.45 0-11.425-2.006-14.925-6.018-3.5-4.011-5.25-9.215-5.25-15.612v-.904c0-6.371 1.743-11.568 5.23-15.593 3.486-4.024 8.429-6.037 14.826-6.037 5.4 0 9.714 1.509 12.938 4.523s4.784 7.117 4.68 12.309l-.079.236H276.28c0-2.019-.446-3.664-1.337-4.936-.892-1.271-2.242-1.907-4.051-1.907-2.517 0-4.28 1.036-5.289 3.106-1.01 2.071-1.515 4.837-1.515 8.298v.904c0 3.566.505 6.358 1.515 8.377 1.009 2.019 2.812 3.028 5.408 3.028zm60.168-22.927h-13.41v32.326h-13.331v-32.326h-13.214v-10.225h39.955v10.225zM337 507.223v-42.551h18.247c5.715 0 10.159 1.003 13.331 3.009 3.172 2.005 4.759 4.975 4.759 8.907 0 1.992-.695 3.769-2.084 5.328-1.391 1.561-3.369 2.747-5.938 3.56 3.539.629 6.188 1.796 7.943 3.5 1.757 1.704 2.636 3.735 2.636 6.096 0 4.011-1.528 7.039-4.582 9.084-3.055 2.045-7.479 3.067-13.272 3.067H337zm13.292-25.522h5.466c1.547 0 2.655-.253 3.323-.758.669-.505 1.003-1.303 1.003-2.392 0-1.295-.394-2.229-1.18-2.799s-2.006-.855-3.657-.855h-4.955v6.804zm0 8.18v7.118h7.747c1.599 0 2.766-.278 3.5-.837.733-.557 1.102-1.432 1.102-2.625 0-1.166-.342-2.068-1.022-2.703-.683-.636-1.875-.953-3.579-.953h-7.748zm29.337-4.327c0-6.396 1.809-11.607 5.427-15.632s8.665-6.037 15.141-6.037c6.502 0 11.562 2.013 15.18 6.037s5.427 9.235 5.427 15.632v.826c0 6.424-1.809 11.641-5.427 15.651-3.618 4.012-8.651 6.018-15.101 6.018-6.528 0-11.602-2.006-15.22-6.018-3.618-4.011-5.427-9.228-5.427-15.651v-.826zm13.292.827c0 3.565.557 6.364 1.671 8.396 1.114 2.031 3.009 3.047 5.684 3.047 2.595 0 4.456-1.022 5.584-3.067 1.127-2.045 1.69-4.837 1.69-8.376v-.826c0-3.461-.563-6.233-1.69-8.317-1.128-2.084-3.016-3.126-5.663-3.126-2.622 0-4.49 1.049-5.604 3.146-1.114 2.098-1.671 4.864-1.671 8.298v.825z"/>
</svg>
