<?xml version="1.0" encoding="utf-8"?>
<!-- Generator: Adobe Illustrator 16.2.0, SVG Export Plug-In . SVG Version: 6.00 Build 0)  -->
<!DOCTYPE svg PUBLIC "-//W3C//DTD SVG 1.1//EN" "http://www.w3.org/Graphics/SVG/1.1/DTD/svg11.dtd">
<svg version="1.1" id="Слой_1" xmlns="http://www.w3.org/2000/svg" xmlns:xlink="http://www.w3.org/1999/xlink" x="0px" y="0px"
	 width="294.658px" height="71.864px" viewBox="0 0 294.658 71.864" enable-background="new 0 0 294.658 71.864"
	 xml:space="preserve">
<g>
	<path fill="#FF0000" d="M82.902,55.968c0.607-0.173,87.078-13.888,210.189-7.123c1.166,0.063,1.54,0.63,1.562,1.246
		c0.019,0.644,0.054,1.142-1.771,1.06c-132.754-6.246-207.896,5.946-209.663,6.23C81.426,57.667,80.884,56.543,82.902,55.968"/>
	<path fill="#0052A5" d="M137.238,19.894C137.238,8.189,146.063,0,157.825,0c11.765,0,20.531,8.19,20.531,19.894
		c0,11.71-8.767,19.896-20.531,19.896C146.063,39.79,137.238,31.604,137.238,19.894 M168.263,19.894
		c0-6.285-4.097-11.131-10.438-11.131c-6.4,0-10.498,4.846-10.498,11.131c0,6.231,4.098,11.13,10.498,11.13
		C164.166,31.023,168.263,26.125,168.263,19.894"/>
	<polygon fill="#0052A5" points="202.17,37.771 192.97,24.625 190.373,27.855 190.373,38.006 180.557,38.493 180.46,0.371 
		190.373,0.371 190.373,16.436 202.198,0.371 214.422,0.371 199.488,18.625 213.98,37.424 	"/>
	<polygon fill="#0052A5" points="242.285,37.506 242.285,23.115 226.314,23.115 226.314,37.305 216.392,37.305 216.392,0.37 
		226.314,0.37 226.314,14.197 242.285,14.197 242.285,0.37 252.203,0.37 252.203,37.656 	"/>
	<path fill="#0052A5" d="M282.884,38.862l-1.837-5.3h-15.162l-1.477,4.443l-11.061-0.328l13.86-37.307h12.457L294.3,39.606
		L282.884,38.862z M273.435,10.438l-4.898,14.476h9.8L273.435,10.438z"/>
	<path fill="#FF0000" d="M123.242,13.863c-3.698-1.652-6.953,0.124-5.419,1.283c8.141,6.152,4.487,24.033-3.836,24.646
		c-3.583,0.265-6.036-3.566-4.075-12.763c11.638-9.927-0.667-19.6-6.262-1.852c-1.086,3.442-4.202,5.656-7.579,8.005
		c0.9-3.679,2.551-16.493-6.534-15.331c-4.243,0.538-8.036,5.803-9.961,9.537c-0.427,0.838-0.716,1.171-0.46-0.387
		c0.256-1.582,0.536-3.558,0.729-5.347c0.149-1.405-0.699-1.399-1.65-1.109c-3.298,1.017-4.975,1.654-5.136,2.863
		c-0.255,1.897-0.689,4.249-1.209,7.163c-0.76,4.259-5.046,11.724-9.932,9.963c0.349-6.938-6.115-8.258-8.044-4.049
		c-1.577,3.445,1.575,6.557,4.318,6.93c-1.373,9.788-13.742,15.776-12.466-1.68c5.909-9.133,19.191-22.892,21.27-32.434
		C68.292,3.367,65-1.516,57.027,1.77c-15.98,6.584-17.248,38.785-17.796,42.586c-3.536,4.558-11.773,15.32-19.904,16.738
		C9.738,62.77,6.004,57.191,7.623,49.582c2.538-11.944,14.492-14.246,18.241-14.681c2.498-0.288,2.897-2.657,2.906-4.328
		c0.005-1.206-0.849-1.83-2.828-1.156c-1.512,0.517-2.205,0.699-5.347,1.104c-6.212,0.794-9.668-4.54-7.592-12.199
		c2.192-8.073,7.817-12.722,12.662-13.537c6.106-1.024,5.626,7.415,2.923,12.567c-1.428,2.721,0.407,4.489,4.034,0.857
		c2.032-2.028,3.479-4.453,3.993-7.364c0.828-4.686-1.479-9.086-6.688-9.151C21.206,1.59,10.753,6.775,7.051,16.921
		c-2.528,6.938-0.12,15.557,8.433,16.901c-7.23,4.024-12.005,9.254-14.119,14.756C-2.723,59.222,2.451,70.68,15.778,68.313
		c9.202-1.632,17.632-11.596,23.955-19.836c2.051,12.87,17.064,13.035,21.845-5.084c4.275-0.143,6.795-1.692,7.986-2.931
		c0.394-0.411,0.611-0.181,0.53,0.262c-1.077,6.067-2.344,12.583-3.394,18.586c-0.392,2.246,5.872,2.065,6.317-0.5
		c2.067-11.988,2.887-19.195,6.315-25.629c2.033-3.806,8.833-13.81,11.455-6.389c0.551,1.559,0.579,5.35-0.287,8.133
		c-4.312,2.018-7.995,3.712-10.038,6.523c-1.937,2.666-0.833,6.825,4.258,5.651c4.155-0.959,7.398-3.992,10.271-10.101
		c5.091-2.738,5.816-3.816,8.19-5.34c0.144,9.222,5.718,11.369,10.835,10.891c6.975-0.661,14.389-6.854,14.999-16.454
		C129.483,18.669,125.272,14.77,123.242,13.863 M53.393,11.231c3.619-7.601,8.076-9.802,7.258-2.333
		c-0.876,8.034-10.167,20.865-14.68,27.076C47.492,26.458,49.624,19.151,53.393,11.231 M84.721,44.063
		c-1.392,0.438-2.784-0.099-0.801-2.383c0.574-0.665,3.12-2.253,5.493-3.016C88.504,41.681,86.281,43.574,84.721,44.063"/>
	<polygon fill="#0052A5" points="81.18,70.452 81.18,63.406 83.153,63.406 83.153,65.942 85.549,65.942 85.549,63.406 
		87.522,63.406 87.522,70.452 85.549,70.452 85.549,67.634 83.153,67.634 83.153,70.452 	"/>
	<path fill="#0052A5" d="M88.49,70.452l2.507-7.046h2.396l2.506,7.046h-2.113l-0.393-1.215h-2.396l-0.394,1.215H88.49z
		 M92.195,65.088l-0.806,2.596H93L92.195,65.088z"/>
	<path fill="#0052A5" d="M102.063,68.129v2.004c-0.51,0.348-1.144,0.523-1.903,0.523c-1.062,0-1.928-0.342-2.599-1.026
		c-0.671-0.688-1.007-1.584-1.007-2.699c0-1.136,0.348-2.039,1.039-2.712c0.69-0.677,1.535-1.013,2.536-1.013
		c0.732,0,1.376,0.187,1.934,0.563v2.043c-0.485-0.563-1.041-0.847-1.673-0.847c-0.536,0-0.971,0.192-1.304,0.576
		c-0.333,0.382-0.499,0.863-0.499,1.449c0,0.551,0.165,1.004,0.49,1.363c0.325,0.359,0.763,0.536,1.313,0.536
		C101.007,68.891,101.565,68.64,102.063,68.129"/>
	<polygon fill="#0052A5" points="104.438,70.452 104.438,65.1 102.888,65.1 102.888,63.406 107.962,63.406 107.962,65.1 
		106.411,65.1 106.411,70.452 	"/>
	<path fill="#0052A5" d="M114.221,70.341c-0.495,0.21-1.053,0.315-1.678,0.315c-0.624,0-1.183-0.105-1.675-0.315
		c-0.495-0.208-0.889-0.486-1.188-0.844c-0.299-0.354-0.527-0.751-0.687-1.188c-0.156-0.435-0.234-0.894-0.234-1.378
		c0-0.485,0.078-0.944,0.234-1.383c0.16-0.433,0.388-0.828,0.687-1.188c0.299-0.354,0.693-0.637,1.188-0.845
		c0.492-0.208,1.051-0.311,1.675-0.311c0.625,0,1.183,0.103,1.678,0.311c0.492,0.208,0.889,0.491,1.187,0.845
		c0.299,0.359,0.526,0.755,0.684,1.188c0.159,0.438,0.238,0.897,0.238,1.383c0,0.484-0.079,0.943-0.238,1.378
		c-0.158,0.438-0.385,0.834-0.684,1.188C115.109,69.854,114.712,70.133,114.221,70.341 M111.299,68.434
		c0.341,0.354,0.755,0.529,1.244,0.529c0.491,0,0.905-0.176,1.243-0.529c0.341-0.361,0.509-0.86,0.509-1.503
		c0-0.645-0.168-1.145-0.509-1.502c-0.338-0.354-0.752-0.531-1.243-0.531c-0.489,0-0.903,0.178-1.244,0.531
		c-0.336,0.357-0.506,0.857-0.506,1.502C110.792,67.573,110.962,68.072,111.299,68.434"/>
	<path fill="#0052A5" d="M117.196,70.452l1.901-2.645c-0.477-0.081-0.866-0.304-1.168-0.667c-0.301-0.36-0.454-0.825-0.454-1.39
		c0-0.368,0.053-0.694,0.159-0.977c0.102-0.279,0.245-0.501,0.427-0.663c0.181-0.163,0.363-0.293,0.545-0.397
		c0.18-0.105,0.381-0.177,0.602-0.215c0.221-0.042,0.384-0.066,0.49-0.078c0.102-0.011,0.207-0.015,0.315-0.015h2.891v7.046h-1.974
		v-2.395h-0.182l-1.44,2.395H117.196z M120.931,66.647v-1.691h-0.544c-0.671,0-1.006,0.283-1.006,0.847s0.335,0.845,1.006,0.845
		H120.931z"/>
	<polygon fill="#0052A5" points="124.574,70.452 124.574,63.406 126.55,63.406 126.55,68.763 128.239,68.763 128.239,63.406 
		130.215,63.406 130.215,68.763 131.908,68.763 131.908,63.406 133.879,63.406 133.879,68.763 134.723,68.763 134.723,71.864 
		133.034,71.864 133.034,70.452 	"/>
	<polygon fill="#0052A5" points="135.832,63.406 137.733,63.406 137.733,67.634 140.464,63.406 142.398,63.406 142.398,70.452 
		140.494,70.452 140.494,66.225 137.765,70.452 135.832,70.452 	"/>
	<polygon fill="#0052A5" points="144.068,70.452 144.068,63.406 148.297,63.406 148.297,65.1 146.041,65.1 146.041,66.084 
		148.086,66.084 148.086,67.634 146.041,67.634 146.041,68.763 148.297,68.763 148.297,70.452 	"/>
	<polygon fill="#0052A5" points="152.505,70.452 152.505,63.406 156.734,63.406 156.734,65.1 154.479,65.1 154.479,66.084 
		156.523,66.084 156.523,67.634 154.479,67.634 154.479,68.763 156.734,68.763 156.734,70.452 	"/>
	<path fill="#0052A5" d="M158.193,63.406h3.413c0.364,0,0.68,0.045,0.953,0.136c0.271,0.091,0.477,0.2,0.617,0.333
		c0.141,0.13,0.257,0.283,0.344,0.463c0.086,0.178,0.14,0.331,0.158,0.463c0.023,0.131,0.034,0.265,0.034,0.397
		c0,0.354-0.106,0.661-0.317,0.922c-0.214,0.255-0.473,0.44-0.782,0.548v0.02c0.147,0.034,0.295,0.085,0.438,0.151
		c0.146,0.067,0.301,0.168,0.474,0.296c0.173,0.131,0.311,0.314,0.417,0.549c0.107,0.238,0.162,0.503,0.162,0.807
		c0,0.545-0.193,1.008-0.579,1.393c-0.387,0.382-0.963,0.569-1.727,0.569h-3.605V63.406z M160.167,66.183h0.828
		c0.602,0,0.902-0.219,0.902-0.661c0-0.208-0.07-0.378-0.214-0.511c-0.144-0.13-0.375-0.194-0.688-0.194h-0.828V66.183z
		 M160.167,69.046h0.903c0.706,0,1.061-0.249,1.061-0.746c0-0.469-0.354-0.703-1.061-0.703h-0.903V69.046z"/>
	<path fill="#0052A5" d="M165.423,70.452v-7.046h2.97c0.382,0,0.726,0.053,1.031,0.155c0.307,0.104,0.553,0.236,0.742,0.393
		c0.187,0.157,0.344,0.344,0.469,0.562c0.121,0.212,0.209,0.424,0.255,0.627c0.047,0.205,0.07,0.409,0.07,0.62
		c0,0.267-0.043,0.531-0.125,0.79c-0.084,0.259-0.218,0.509-0.403,0.757c-0.185,0.245-0.451,0.441-0.806,0.593
		c-0.353,0.149-0.765,0.227-1.233,0.227h-0.996v2.323H165.423z M167.396,64.956v1.623h0.563c0.645,0,0.966-0.273,0.966-0.816
		c0-0.535-0.321-0.807-0.966-0.807H167.396z"/>
	<path fill="#0052A5" d="M177.431,70.341c-0.495,0.21-1.056,0.315-1.678,0.315c-0.624,0-1.182-0.105-1.677-0.315
		c-0.494-0.208-0.891-0.486-1.188-0.844c-0.3-0.354-0.527-0.751-0.685-1.188c-0.158-0.435-0.235-0.894-0.235-1.378
		c0-0.485,0.077-0.944,0.235-1.383c0.157-0.433,0.385-0.828,0.685-1.188c0.297-0.354,0.693-0.637,1.188-0.845
		c0.495-0.208,1.053-0.311,1.677-0.311c0.622,0,1.183,0.103,1.678,0.311c0.491,0.208,0.889,0.491,1.188,0.845
		c0.297,0.359,0.525,0.755,0.684,1.188c0.159,0.438,0.235,0.897,0.235,1.383c0,0.484-0.076,0.943-0.235,1.378
		c-0.158,0.438-0.387,0.834-0.684,1.188C178.319,69.854,177.922,70.133,177.431,70.341 M174.511,68.434
		c0.338,0.354,0.752,0.529,1.242,0.529s0.905-0.176,1.244-0.529c0.339-0.361,0.51-0.86,0.51-1.503c0-0.645-0.171-1.145-0.51-1.502
		c-0.339-0.354-0.754-0.531-1.244-0.531s-0.904,0.178-1.242,0.531c-0.338,0.357-0.509,0.857-0.509,1.502
		C174.002,67.573,174.173,68.072,174.511,68.434"/>
	<path fill="#0052A5" d="M186.049,70.341c-0.491,0.21-1.054,0.315-1.676,0.315c-0.624,0-1.184-0.105-1.678-0.315
		c-0.494-0.208-0.889-0.486-1.188-0.844c-0.301-0.354-0.527-0.751-0.686-1.188c-0.157-0.435-0.235-0.894-0.235-1.378
		c0-0.485,0.078-0.944,0.235-1.383c0.158-0.433,0.385-0.828,0.686-1.188c0.299-0.354,0.693-0.637,1.188-0.845
		s1.054-0.311,1.678-0.311c0.622,0,1.185,0.103,1.676,0.311c0.494,0.208,0.891,0.491,1.188,0.845c0.3,0.359,0.526,0.755,0.684,1.188
		c0.158,0.438,0.236,0.897,0.236,1.383c0,0.484-0.078,0.943-0.236,1.378c-0.157,0.438-0.384,0.834-0.684,1.188
		C186.939,69.854,186.543,70.133,186.049,70.341 M183.131,68.434c0.337,0.354,0.751,0.529,1.242,0.529
		c0.488,0,0.904-0.176,1.24-0.529c0.342-0.361,0.51-0.86,0.51-1.503c0-0.645-0.168-1.145-0.51-1.502
		c-0.336-0.354-0.752-0.531-1.24-0.531c-0.491,0-0.905,0.178-1.242,0.531c-0.34,0.357-0.51,0.857-0.51,1.502
		C182.621,67.573,182.791,68.072,183.131,68.434"/>
	<polygon fill="#0052A5" points="189.516,70.452 189.516,63.406 191.492,63.406 191.492,66.366 193.613,63.406 195.931,63.406 
		193.253,66.817 196.001,70.452 193.534,70.452 191.492,67.423 191.492,70.452 	"/>
	<polygon fill="#0052A5" points="196.97,70.452 196.97,63.406 198.941,63.406 198.941,65.942 201.338,65.942 201.338,63.406 
		203.311,63.406 203.311,70.452 201.338,70.452 201.338,67.634 198.941,67.634 198.941,70.452 	"/>
	<path fill="#0052A5" d="M204.278,70.452l2.506-7.046h2.396l2.51,7.046h-2.115l-0.395-1.215h-2.396l-0.393,1.215H204.278z
		 M207.981,65.088l-0.807,2.596h1.613L207.981,65.088z"/>
	<polygon fill="#0052A5" points="216.39,70.452 216.39,65.1 214.84,65.1 214.84,63.406 219.912,63.406 219.912,65.1 218.365,65.1 
		218.365,70.452 	"/>
	<path fill="#0052A5" d="M226.171,70.341c-0.495,0.21-1.051,0.315-1.677,0.315s-1.182-0.105-1.678-0.315
		c-0.49-0.208-0.889-0.486-1.186-0.844c-0.301-0.354-0.527-0.751-0.688-1.188c-0.155-0.435-0.233-0.894-0.233-1.378
		c0-0.485,0.078-0.944,0.233-1.383c0.16-0.433,0.387-0.828,0.688-1.188c0.297-0.354,0.695-0.637,1.186-0.845
		c0.496-0.208,1.052-0.311,1.678-0.311s1.182,0.103,1.677,0.311s0.89,0.491,1.188,0.845c0.299,0.359,0.528,0.755,0.686,1.188
		c0.155,0.438,0.236,0.897,0.236,1.383c0,0.484-0.081,0.943-0.236,1.378c-0.157,0.438-0.387,0.834-0.686,1.188
		C227.061,69.854,226.666,70.133,226.171,70.341 M223.252,68.434c0.337,0.354,0.753,0.529,1.242,0.529
		c0.49,0,0.904-0.176,1.242-0.529c0.34-0.361,0.51-0.86,0.51-1.503c0-0.645-0.17-1.145-0.51-1.502
		c-0.338-0.354-0.752-0.531-1.242-0.531c-0.489,0-0.905,0.178-1.242,0.531c-0.34,0.357-0.511,0.857-0.511,1.502
		C222.741,67.573,222.912,68.072,223.252,68.434"/>
	<path fill="#0052A5" d="M230.414,63.406h5.356v7.046h-1.972V65.1h-1.41v2.774c0,0.263-0.008,0.489-0.024,0.677
		c-0.019,0.189-0.076,0.419-0.17,0.691c-0.101,0.27-0.232,0.49-0.399,0.66c-0.166,0.176-0.419,0.325-0.758,0.449
		c-0.334,0.129-0.737,0.191-1.207,0.191c-0.313,0-0.588-0.028-0.824-0.091v-1.689c0.176,0.049,0.319,0.071,0.432,0.071
		c0.403,0,0.667-0.12,0.79-0.358c0.127-0.236,0.187-0.634,0.187-1.182V63.406z"/>
	<path fill="#0052A5" d="M237.441,70.452v-7.046h1.975v2.748h1.037c1.845,0,2.768,0.717,2.768,2.146
		c0,1.437-0.923,2.152-2.768,2.152H237.441z M239.416,69.046h0.847c0.321,0,0.565-0.057,0.735-0.172
		c0.166-0.115,0.251-0.308,0.251-0.574c0-0.269-0.083-0.458-0.247-0.567c-0.165-0.113-0.41-0.168-0.739-0.168h-0.847V69.046z"/>
	<polygon fill="#0052A5" points="244.542,70.452 244.542,63.406 246.513,63.406 246.513,66.366 248.637,63.406 250.954,63.406 
		248.275,66.817 251.023,70.452 248.556,70.452 246.513,67.423 246.513,70.452 	"/>
	<path fill="#0052A5" d="M257.143,70.341c-0.493,0.21-1.053,0.315-1.677,0.315c-0.626,0-1.184-0.105-1.68-0.315
		c-0.491-0.208-0.887-0.486-1.186-0.844c-0.299-0.354-0.529-0.751-0.686-1.188c-0.157-0.435-0.236-0.894-0.236-1.378
		c0-0.485,0.079-0.944,0.236-1.383c0.156-0.433,0.387-0.828,0.686-1.188c0.299-0.354,0.694-0.637,1.186-0.845
		c0.496-0.208,1.054-0.311,1.68-0.311c0.624,0,1.184,0.103,1.677,0.311s0.888,0.491,1.188,0.845
		c0.297,0.359,0.526,0.755,0.684,1.188c0.158,0.438,0.235,0.897,0.235,1.383c0,0.484-0.077,0.943-0.235,1.378
		c-0.157,0.438-0.387,0.834-0.684,1.188C258.03,69.854,257.636,70.133,257.143,70.341 M254.223,68.434
		c0.336,0.354,0.75,0.529,1.243,0.529c0.488,0,0.904-0.176,1.242-0.529c0.337-0.361,0.51-0.86,0.51-1.503
		c0-0.645-0.173-1.145-0.51-1.502c-0.338-0.354-0.754-0.531-1.242-0.531c-0.493,0-0.907,0.178-1.243,0.531
		c-0.339,0.357-0.512,0.857-0.512,1.502C253.711,67.573,253.884,68.072,254.223,68.434"/>
	<polygon fill="#0052A5" points="262.726,63.406 265.05,63.406 266.43,66.366 267.555,63.406 269.701,63.406 266.532,70.452 
		264.414,70.452 265.372,68.509 	"/>
	<polygon fill="#0052A5" points="273.417,70.452 273.417,63.406 275.393,63.406 275.393,65.942 277.789,65.942 277.789,63.406 
		279.758,63.406 279.758,70.452 277.789,70.452 277.789,67.634 275.393,67.634 275.393,70.452 	"/>
	<path fill="#0052A5" d="M280.728,70.452l2.508-7.046h2.396l2.506,7.046h-2.113l-0.393-1.215h-2.396l-0.395,1.215H280.728z
		 M284.433,65.088l-0.805,2.596h1.609L284.433,65.088z"/>
	<path fill="#0052A5" d="M294.3,68.129v2.004c-0.513,0.348-1.146,0.523-1.905,0.523c-1.058,0-1.924-0.342-2.595-1.026
		c-0.673-0.688-1.008-1.584-1.008-2.699c0-1.136,0.345-2.039,1.038-2.712c0.689-0.677,1.535-1.013,2.535-1.013
		c0.732,0,1.376,0.187,1.935,0.563v2.043c-0.483-0.563-1.039-0.847-1.671-0.847c-0.538,0-0.972,0.192-1.309,0.576
		c-0.329,0.382-0.495,0.863-0.495,1.449c0,0.551,0.163,1.004,0.486,1.363c0.327,0.359,0.765,0.536,1.317,0.536
		C293.246,68.891,293.803,68.64,294.3,68.129"/>
</g>
</svg>
