<svg xmlns="http://www.w3.org/2000/svg" width="300" height="180">
  <path d="M298.032 90.5c.014 48.936-39.646 88.614-88.582 88.627-48.937.012-88.614-39.646-88.627-88.582V90.5c-.013-48.935 39.647-88.615 88.581-88.628 48.937-.013 88.615 39.647 88.628 88.583v.045z" fill="#f90"/>
  <path d="M90.001 1.895C41.355 2.204 1.967 41.781 1.967 90.5c0 48.909 39.695 88.604 88.605 88.604 22.955 0 43.879-8.748 59.624-23.086-.001 0-.003-.002-.007-.004h.019a89.4366 89.4366 0 0 0 8.995-9.488H141.05a86.5364 86.5364 0 0 1-6.606-9.127h31.308c1.904-3.047 3.628-6.211 5.158-9.488h-41.635c-1.419-3.042-2.651-6.153-3.703-9.309h49.045c2.956-8.832 4.56-18.281 4.56-28.103 0-6.512-.706-12.861-2.042-18.974h-54.164c.671-3.146 1.518-6.254 2.528-9.308h49.063c-1.097-3.25-2.371-6.417-3.82-9.487H129.27a85.013 85.013 0 0 1 5.084-9.307h31.285c-2.082-3.317-4.386-6.486-6.877-9.488h-17.443c2.697-3.174 5.666-6.163 8.889-8.95-15.746-14.34-36.676-23.09-59.636-23.09-.191 0-.38-.001-.571 0z" fill="#c00"/>
  <path d="M289.143 136.82c.482 0 .951.125 1.409.371.46.246.814.601 1.07 1.062.256.456.384.937.384 1.435 0 .492-.127.968-.379 1.424-.251.455-.605.81-1.061 1.063-.451.249-.928.375-1.424.375s-.972-.126-1.426-.375c-.455-.254-.807-.607-1.063-1.063-.252-.456-.377-.932-.377-1.424 0-.498.127-.979.384-1.435.258-.461.614-.813 1.071-1.062.462-.246.931-.371 1.412-.371m0 .475c-.401 0-.793.104-1.176.311-.38.207-.677.5-.891.888-.217.382-.325.778-.325 1.194 0 .412.106.81.315 1.188.214.377.51.673.888.885.381.211.776.315 1.188.315.414 0 .81-.104 1.189-.315.378-.212.673-.508.884-.885.209-.378.313-.775.313-1.188 0-.416-.106-.813-.321-1.194-.213-.388-.511-.681-.894-.888-.379-.208-.769-.311-1.17-.311m-1.256 3.975v-3.082h1.062c.36 0 .622.028.784.088.162.057.291.154.388.297.095.141.144.291.144.451 0 .226-.08.422-.242.588-.158.166-.373.261-.639.281.109.045.196.102.264.164.125.12.275.323.455.61l.375.603h-.606l-.272-.485c-.215-.382-.388-.62-.521-.718-.091-.069-.224-.105-.397-.105h-.293v1.311h-.5m.496-1.738h.604c.288 0 .483-.044.588-.129.106-.088.159-.2.159-.342 0-.092-.024-.174-.075-.244-.052-.073-.122-.125-.213-.162-.089-.035-.255-.055-.497-.055h-.564v.932" fill="#fcb340"/>
  <path d="M119.975 115.9199l1.18-8.02c-.645 0-1.593.279-2.431.279-3.284 0-3.694-1.755-3.436-3.037l3.236-16.13h4.992l1.029-9.103h-4.705l.958-5.516h-9.842c-.208.208-5.568 31.022-5.568 34.776 0 5.555 3.118 8.027 7.516 7.988 3.442-.029 6.125-.982 7.071-1.237zm2.987-15.288c0 13.332 8.799 16.499 16.297 16.499 6.921 0 10.55-1.604 10.55-1.604l1.662-9.1s-5.848 2.378-10.601 2.378c-10.131 0-8.355-7.554-8.355-7.554l19.463.059s1.239-6.111 1.239-8.602c0-6.217-3.387-13.849-13.745-13.849-9.486.002-16.51 10.223-16.51 21.773zm16.546-13.325c5.324 0 4.342 5.984 4.342 6.469h-10.474c0-.62.989-6.469 6.132-6.469zm59.738 28.61l1.689-10.284s-4.632 2.321-7.807 2.321c-6.693 0-9.378-5.11-9.378-10.601 0-11.137 5.758-17.265 12.168-17.265 4.808 0 8.665 2.699 8.665 2.699l1.54-9.993s-4.554-3.289-9.456-3.308c-14.745-.058-23.182 10.208-23.182 27.955 0 11.763 6.248 19.768 17.506 19.768 3.183 0 8.255-1.292 8.255-1.292zm-131.16-36.911c-6.469 0-11.427 2.079-11.427 2.079l-1.37 8.127s4.093-1.663 10.281-1.663c3.513 0 6.083.395 6.083 3.25 0 1.734-.314 2.374-.314 2.374s-2.772-.231-4.056-.231c-9.21 0-16.729 3.482-16.729 13.98 0 8.273 5.623 10.17 9.108 10.17 6.657 0 9.292-4.203 9.444-4.215l-.077 3.488h8.307l3.706-25.98c0-11.025-9.616-11.379-12.956-11.379zm1.438 21.096c.181 1.586-.41 9.086-6.092 9.086-2.93 0-3.691-2.24-3.691-3.562 0-2.584 1.403-5.683 8.315-5.683 1.61 0 1.197.116 1.468.159zm20.347 16.798c2.125 0 14.272.541 14.272-11.994 0-11.721-11.244-9.404-11.244-14.114 0-2.342 1.833-3.08 5.184-3.08 1.329 0 6.447.423 6.447.423l1.189-8.33c0 .001-3.312-.741-8.704-.741-6.979 0-14.063 2.786-14.063 12.318 0 10.802 11.812 9.717 11.812 14.267 0 3.037-3.3 3.287-5.844 3.287-4.401 0-8.363-1.511-8.377-1.438l-1.259 8.245c.229.07 2.674 1.157 10.587 1.157zm187.192-45.451l-1.705 12.709s-3.553-4.905-9.112-4.905c-10.459 0-15.849 10.423-15.849 22.396 0 7.73 3.844 15.307 11.699 15.307 5.651 0 8.784-3.941 8.784-3.941l-.415 3.365h9.178l7.207-44.862-9.787-.069zm-4.052 24.701c0 4.983-2.468 11.64-7.581 11.64-3.396 0-4.988-2.851-4.988-7.324 0-7.315 3.285-12.14 7.432-12.14 3.394 0 5.137 2.33 5.137 7.824zm-256.006 20.267l5.743-33.87.844 33.87h6.499l12.125-33.87-5.371 33.87h9.658l7.437-44.922-15.342-.117-9.126 27.504-.25-27.387h-14.06l-7.544 44.922h9.387z" fill="#006"/>
  <path d="M162.357 116.4809c2.746-15.615 3.724-27.947 11.732-25.393 1.15-6.044 3.891-11.3 5.143-13.858 0 0-.396-.589-2.871-.589-4.225 0-9.866 8.574-9.866 8.574l.843-5.301h-8.786l-5.884 36.566h9.689zm56.649-37.475c-6.472 0-11.43 2.079-11.43 2.079l-1.369 8.127s4.095-1.663 10.28-1.663c3.514 0 6.083.395 6.083 3.25 0 1.734-.313 2.374-.313 2.374s-2.771-.231-4.055-.231c-9.211 0-16.729 3.482-16.729 13.98 0 8.273 5.622 10.17 9.107 10.17 6.655 0 9.292-4.203 9.443-4.215l-.078 3.488h8.309l3.705-25.98c.001-11.025-9.615-11.379-12.953-11.379zm1.436 21.096c.18 1.586-.411 9.086-6.092 9.086-2.932 0-3.692-2.24-3.692-3.562 0-2.584 1.402-5.683 8.315-5.683 1.611 0 1.199.116 1.469.159zm21.08 16.379c1.508-11.488 4.299-27.616 11.731-25.393 1.149-6.044.041-6.028-2.433-6.028-4.228 0-5.164.154-5.164.154l.844-5.301h-8.785l-5.884 36.567h9.691v.001z" fill="#006"/>
  <path d="M122.434 113.059l1.181-8.019c-.645 0-1.594.276-2.431.276-3.284 0-3.646-1.746-3.437-3.037l2.653-16.362h4.991l1.205-8.87h-4.706l.958-5.516h-9.434c-.208.208-5.569 31.023-5.569 34.775 0 5.555 3.119 8.029 7.517 7.989 3.444-.029 6.126-.982 7.072-1.236zm2.989-15.289c0 13.332 8.8 16.5 16.297 16.5 6.92 0 9.965-1.547 9.965-1.547l1.662-9.099s-5.264 2.319-10.018 2.319c-10.13 0-8.356-7.553-8.356-7.553h19.172s1.238-6.113 1.238-8.604c0-6.216-3.094-13.79-13.452-13.79-9.486.002-16.508 10.223-16.508 21.774zm16.544-13.325c5.324 0 4.342 5.983 4.342 6.467h-10.474c0-.618.99-6.467 6.132-6.467zm59.74 28.61l1.688-10.285s-4.629 2.321-7.806 2.321c-6.692 0-9.376-5.11-9.376-10.6 0-11.137 5.758-17.264 12.168-17.264 4.807 0 8.665 2.699 8.665 2.699l1.54-9.993s-5.721-2.315-10.625-2.315c-10.891 0-21.486 9.448-21.486 27.192 0 11.766 5.721 19.537 16.979 19.537 3.183.001 8.253-1.292 8.253-1.292zM70.547 76.143c-6.469 0-11.428 2.079-11.428 2.079l-1.369 8.127s4.093-1.663 10.28-1.663c3.513 0 6.083.395 6.083 3.25 0 1.734-.315 2.374-.315 2.374s-2.771-.232-4.054-.232c-8.159 0-16.73 3.482-16.73 13.98 0 8.272 5.623 10.17 9.108 10.17 6.656 0 9.525-4.319 9.678-4.332l-.311 3.605h8.307l3.706-25.981c0-11.022-9.615-11.377-12.955-11.377zm2.021 21.154c.18 1.587-.995 9.026-6.675 9.026-2.93 0-3.692-2.238-3.692-3.562 0-2.582 1.403-5.682 8.316-5.682 1.608.002 1.78.174 2.051.218zm19.763 16.741c2.125 0 14.273.54 14.273-11.995 0-11.719-11.245-9.404-11.245-14.112 0-2.344 1.833-3.082 5.183-3.082 1.33 0 6.447.423 6.447.423l1.19-8.33c0 .001-3.312-.741-8.704-.741-6.979 0-14.063 2.786-14.063 12.318 0 10.801 11.812 9.717 11.812 14.267 0 3.037-3.3 3.284-5.843 3.284-4.401 0-8.364-1.51-8.378-1.438l-1.258 8.246c.228.07 2.672 1.16 10.586 1.16zm187.521-45.37l-2.035 12.627s-3.551-4.905-9.11-4.905c-8.644 0-15.849 10.422-15.849 22.397 0 7.73 3.843 15.304 11.699 15.304 5.651 0 8.784-3.94 8.784-3.94l-.415 3.365h9.176l7.207-44.863-9.457.015zm-4.381 24.62c0 4.983-2.467 11.639-7.582 11.639-3.395 0-4.986-2.85-4.986-7.323 0-7.314 3.285-12.14 7.43-12.14 3.396-.001 5.138 2.332 5.138 7.824zM19.466 113.555l5.743-33.87.843 33.87h6.5l12.125-33.87-5.371 33.87h9.658l7.438-44.923H41.467l-9.301 27.563-.484-27.563H17.915l-7.545 44.923h9.096zm145.352.062c2.746-15.616 3.255-28.296 9.808-25.975 1.147-6.044 2.254-8.382 3.506-10.94 0 0-.587-.123-1.819-.123-4.225 0-7.355 5.772-7.355 5.772l.841-5.301h-8.784l-5.885 36.567h9.688zm58.6572-37.474c-6.469 0-11.428 2.079-11.428 2.079l-1.368 8.127s4.093-1.663 10.28-1.663c3.513 0 6.081.395 6.081 3.25 0 1.734-.313 2.374-.313 2.374s-2.771-.232-4.055-.232c-8.158 0-16.729 3.482-16.729 13.98 0 8.272 5.622 10.17 9.107 10.17 6.656 0 9.525-4.319 9.677-4.332l-.309 3.605h8.307l3.705-25.981c.001-11.022-9.615-11.377-12.955-11.377zm2.024 21.154c.18 1.587-.996 9.026-6.678 9.026-2.93 0-3.69-2.238-3.69-3.562 0-2.582 1.403-5.682 8.315-5.682 1.608.002 1.779.174 2.053.218zm18.5235 16.32c2.747-15.616 3.256-28.296 9.807-25.975 1.149-6.044 2.257-8.382 3.508-10.94 0 0-.587-.123-1.819-.123-4.225 0-7.355 5.772-7.355 5.772l.841-5.301h-8.784l-5.885 36.567h9.687zm45.0823-5.642c.479 0 .951.123 1.406.373.459.242.816.598 1.072 1.059.257.458.383.935.383 1.434 0 .493-.126.969-.379 1.424-.251.455-.604.812-1.059 1.063-.454.25-.93.376-1.424.376-.498 0-.974-.126-1.429-.376-.454-.253-.806-.608-1.058-1.063-.256-.455-.381-.931-.381-1.424 0-.499.127-.976.384-1.434.258-.461.616-.815 1.073-1.059.461-.25.933-.373 1.412-.373m0 .472c-.401 0-.793.104-1.176.313-.382.204-.679.499-.894.885-.214.381-.322.78-.322 1.194s.104.81.313 1.188c.213.377.509.673.891.886.378.208.773.313 1.188.313.412 0 .81-.105 1.188-.313.378-.213.674-.509.884-.886.211-.381.314-.774.314-1.188s-.107-.813-.321-1.194c-.213-.386-.51-.681-.894-.885-.38-.208-.769-.313-1.171-.313m-1.255 3.976v-3.083h1.061c.361 0 .625.029.785.088.162.055.289.154.388.297.097.142.146.291.146.451 0 .225-.082.422-.244.588-.158.166-.371.262-.637.28.106.046.194.101.262.163.123.122.275.326.455.611l.377.604h-.609l-.271-.485c-.216-.383-.389-.621-.521-.718-.091-.071-.224-.106-.399-.106h-.291v1.311l-.502-.001m.498-1.735h.604c.289 0 .484-.043.588-.129.105-.084.16-.199.16-.342 0-.091-.025-.173-.075-.242-.051-.074-.122-.127-.213-.164-.091-.035-.254-.053-.498-.053h-.565v.93" fill="#fff"/>
</svg>
