<svg xmlns="http://www.w3.org/2000/svg" viewBox="0 0 264.3 74.55"><defs><linearGradient id="a" x1="475.16" y1="275.61" x2="553.1" y2="275.61" gradientUnits="userSpaceOnUse"><stop offset="0" stop-color="#00a3e1"/><stop offset=".3" stop-color="#009add"/><stop offset=".8" stop-color="#0082d4"/><stop offset="1" stop-color="#0076cf"/></linearGradient></defs><path d="M147.16 7.88l-16.7 36.18h-1.69V0h-23.72v74.55h20.16a13.55 13.55 0 0 0 12.27-7.91l16.73-36.14h1.69v44.05h23.72V0h-20.16a13.55 13.55 0 0 0-12.3 7.88zM58.21 9.8l-9.88 34.25h-1.69L36.76 9.8a13.55 13.55 0 0 0-13-9.8H0v74.55h23.72V30.5h1.69l13.55 44.05h16.95L69.46 30.5h1.75v44.05h23.72V0H71.21a13.55 13.55 0 0 0-13 9.8zm131.55 24.09v40.66h23.67V50.83h25.46a25.4 25.4 0 0 0 23.94-16.94z" fill="#319b42"/><path d="M527.68 260.36h-52.52a37.27 37.27 0 0 0 36.64 30.5h40.79a25.43 25.43 0 0 0-24.9-30.5z" transform="translate(-288.79 -260.36)" fill="url(#a)"/></svg>