<svg id="Слой_1" data-name="Слой 1" xmlns="http://www.w3.org/2000/svg" viewBox="0 0 278.64 69.97"><defs><style>.cls-1{fill:#0068b5;}.cls-2{fill:#fff;}.cls-3{fill:none;}</style></defs><title>veka-partner-1</title><polygon class="cls-1" points="0 32.04 32.04 0 64 32.04 61.02 35.02 64 38.01 32.04 69.97 0 38.01 2.98 35.02 0 32.04"/><rect class="cls-1" x="10.71" y="16.75" width="42.52" height="42.52" transform="translate(-17.51 33.74) rotate(-45)"/><path class="cls-2" d="M32,68.51,1.46,38,32,7.5,62.47,38ZM2.33,38,32,67.64,61.6,38,32,8.37Z"/><rect class="cls-1" x="10.71" y="10.78" width="42.52" height="42.52" transform="translate(-13.29 31.99) rotate(-45)"/><path class="cls-2" d="M32,62.54,1.46,32,32,1.53,62.47,32ZM2.33,32,32,61.67,61.6,32,32,2.4Z"/><rect class="cls-1" x="14.86" y="15.01" width="34.22" height="34.29" transform="translate(-13.37 32.02) rotate(-45)"/><path class="cls-2" d="M32,56.79,7.28,32.11,32,7.43,56.65,32.11ZM8.15,32.11,32,55.92,55.77,32.11,32,8.37Z"/><rect class="cls-2" x="10.12" y="24.76" width="43.76" height="14.27"/><path class="cls-1" d="M18.06,38.08,21.7,25.85H17.84s-1.24,5.24-1.38,6.26h0c-.15-1-1.24-6.26-1.24-6.26H11.43l3.06,12.23Z"/><path class="cls-3" d="M18.06,38.08,21.7,25.85H17.84s-1.24,5.24-1.38,6.26h0c-.15-1-1.24-6.26-1.24-6.26H11.43l3.06,12.23Z"/><polygon class="cls-1" points="23.08 38.08 29.78 38.08 29.78 35.17 26.72 35.17 26.72 33.27 28.98 33.27 28.98 30.36 26.72 30.36 26.72 28.69 29.78 28.69 29.78 25.77 23.08 25.77 23.08 38.08"/><polygon class="cls-3" points="23.08 38.08 29.78 38.08 29.78 35.17 26.72 35.17 26.72 33.27 28.98 33.27 28.98 30.36 26.72 30.36 26.72 28.69 29.78 28.69 29.78 25.77 23.08 25.77 23.08 38.08"/><polygon class="cls-1" points="41.79 38.08 38.59 31.67 41.43 25.77 37.64 25.77 35.68 30.14 35.6 30.14 35.6 30.14 35.68 30.14 35.68 30.14 35.68 30.14 35.68 25.77 32.11 25.77 32.11 38.08 35.68 38.08 35.68 33.27 35.68 33.27 35.68 33.27 37.93 38.08 41.79 38.08"/><polygon class="cls-3" points="41.79 38.08 38.59 31.67 41.43 25.77 37.64 25.77 35.68 30.14 35.6 30.14 35.6 30.14 35.68 30.14 35.68 30.14 35.68 30.14 35.68 25.77 32.11 25.77 32.11 38.08 35.68 38.08 35.68 33.27 35.68 33.27 35.68 33.27 37.93 38.08 41.79 38.08"/><path class="cls-1" d="M46.74,33.42l.51-2.4c.15-.8.22-1.53.36-2.33h0c.07.73.15,1.53.29,2.33l.36,2.4H46.74m5.9,4.66L49.8,25.85H45.43l-3.2,12.23h3.71l.29-1.6h2.4l.29,1.6Z"/><path class="cls-3" d="M46.74,33.42l.51-2.4c.15-.8.22-1.53.36-2.33h0c.07.73.15,1.53.29,2.33l.36,2.4Zm5.9,4.66L49.8,25.85H45.43l-3.2,12.23h3.71l.29-1.6h2.4l.29,1.6Z"/><path class="cls-2" d="M90.76,42.12V34.87H85.42v7.25h-2.6V26.45h2.6v6.3h5.34v-6.3h2.6V42.12Z"/><path class="cls-2" d="M104.71,42.59a2.69,2.69,0,0,1-1.56-1.54A3.85,3.85,0,0,1,100,42.41c-2.63,0-3.8-1.4-3.8-3.4,0-2.65,2-4,5.66-4h.77v-.61c0-1.31-.23-2-1.58-2a6.93,6.93,0,0,0-3.42,1.31l-1.11-1.79a8.6,8.6,0,0,1,4.87-1.56c1.79,0,3,.66,3.49,1.9a7.91,7.91,0,0,1,.18,2.81l0,3.28c0,1.54.11,2,1,2.65Zm-2.58-5.89c-2.49,0-3.24.72-3.24,2.17a1.52,1.52,0,0,0,1.59,1.72,2.54,2.54,0,0,0,2.06-1.15l0-2.72Z"/><path class="cls-2" d="M118.24,45.35h-2.31V42.12h-6.68v3.24h-2.31v-5h.88a15.34,15.34,0,0,0,1.49-3.83,18.91,18.91,0,0,0,.48-4.14l0-1.68h7v9.65h1.43Zm-6.45-12.88,0,1.06a19.5,19.5,0,0,1-.48,3.6A15.67,15.67,0,0,1,110,40.31h4.3V32.47Z"/><path class="cls-2" d="M122.57,37v.21c0,1.58.59,3.26,2.83,3.26a4.22,4.22,0,0,0,2.85-1.13l1,1.52a6.19,6.19,0,0,1-4.12,1.52c-3.24,0-5.28-2.33-5.28-6a6.25,6.25,0,0,1,1.43-4.48,4.36,4.36,0,0,1,3.51-1.54,4.43,4.43,0,0,1,3.15,1.18c1,.91,1.49,2.31,1.49,5V37Zm2.2-4.82c-1.4,0-2.17,1.11-2.17,3h4.23C126.82,33.33,126,32.22,124.76,32.22Z"/><path class="cls-2" d="M139.62,30.39v4.8h.88a1.43,1.43,0,0,0,1-.36,2,2,0,0,0,.43-1l.27-1.27a2.59,2.59,0,0,1,.68-1.38,2.28,2.28,0,0,1,1.54-.61l1.06-.09.45,1.7-.59.11a1.27,1.27,0,0,0-.63.29,1.41,1.41,0,0,0-.34.66L144,34.51a2,2,0,0,1-.54,1,2.1,2.1,0,0,1-1,.52v0a2.36,2.36,0,0,1,.86.5,3.41,3.41,0,0,1,.7,1.29l.48,1.43a1.83,1.83,0,0,0,.45.88,2.32,2.32,0,0,0,.93.41l.29.07-.45,1.7-.86-.07a3.17,3.17,0,0,1-2-.68,3,3,0,0,1-.7-1.52l-.27-1.36a2.39,2.39,0,0,0-.54-1.34A1.54,1.54,0,0,0,140.2,37h-.59v5.07h-2.47V37h-.59a1.54,1.54,0,0,0-1.16.34,2.39,2.39,0,0,0-.54,1.34l-.27,1.36a3,3,0,0,1-.7,1.52,3.17,3.17,0,0,1-2,.68l-.86.07-.45-1.7.29-.07a2.32,2.32,0,0,0,.93-.41,1.84,1.84,0,0,0,.45-.88l.48-1.43a3.42,3.42,0,0,1,.7-1.29,2.36,2.36,0,0,1,.86-.5v0a2.1,2.1,0,0,1-1-.52,2,2,0,0,1-.54-1l-.41-1.31a1.41,1.41,0,0,0-.34-.66,1.28,1.28,0,0,0-.63-.29l-.59-.11.45-1.7,1.06.09a2.28,2.28,0,0,1,1.54.61,2.59,2.59,0,0,1,.68,1.38l.27,1.27a2,2,0,0,0,.43,1,1.43,1.43,0,0,0,1,.36h.88V30.86Z"/><path class="cls-2" d="M150.62,42.12h-2.47V30.86l2.47-.48V35.1h3.87V30.86l2.47-.48V42.12h-2.47V37h-3.87Z"/><path class="cls-2" d="M164.72,42.41c-3.1,0-5-2.33-5-6s2-6,5-6c3.26,0,5.12,2.42,5.12,6S167.82,42.41,164.72,42.41Zm0-10.19c-1.56,0-2.24,1.2-2.24,4,0,3.38.84,4.35,2.31,4.35s2.29-1.2,2.29-4.12C167,33.19,166.13,32.22,164.68,32.22Z"/><path class="cls-2" d="M174,42.46a1.82,1.82,0,0,1-1.79-1.86,1.75,1.75,0,0,1,1.74-1.79,1.8,1.8,0,0,1,1.81,1.79A1.83,1.83,0,0,1,174,42.46Z"/><path class="cls-2" d="M191.94,42.12V34.87h-5.34v7.25H184V26.45h2.6v6.3h5.34v-6.3h2.6V42.12Z"/><path class="cls-2" d="M205.88,42.59a2.69,2.69,0,0,1-1.56-1.54,3.85,3.85,0,0,1-3.15,1.36c-2.63,0-3.8-1.4-3.8-3.4,0-2.65,2-4,5.66-4h.77v-.61c0-1.31-.23-2-1.58-2a6.93,6.93,0,0,0-3.42,1.31l-1.11-1.79a8.59,8.59,0,0,1,4.87-1.56c1.79,0,3,.66,3.49,1.9a7.9,7.9,0,0,1,.18,2.81l0,3.28c0,1.54.11,2,1,2.65ZM203.3,36.7c-2.49,0-3.24.72-3.24,2.17a1.52,1.52,0,0,0,1.58,1.72,2.54,2.54,0,0,0,2.06-1.15l0-2.72Z"/><path class="cls-2" d="M214.46,30.66a4.09,4.09,0,0,1,3,.91,2.73,2.73,0,0,1,.75,2,2.43,2.43,0,0,1-.63,1.77,2.65,2.65,0,0,1-1.13.72,2.87,2.87,0,0,1,1.49.77,2.64,2.64,0,0,1,.77,2,3.12,3.12,0,0,1-.93,2.38,4.24,4.24,0,0,1-2.92.93h-5.12V30.66Zm-2.29,4.69h1.61a2.24,2.24,0,0,0,1.52-.45,1.39,1.39,0,0,0,.41-1.06,1.47,1.47,0,0,0-.43-1.13,2.06,2.06,0,0,0-1.4-.36h-1.7Zm0,5.09H214a2.54,2.54,0,0,0,1.63-.45,1.47,1.47,0,0,0,.45-1.2,1.74,1.74,0,0,0-.59-1.47A2.56,2.56,0,0,0,214,37h-1.81Z"/><path class="cls-2" d="M225.92,42.41c-3.12,0-4.87-2.2-4.87-5.89,0-4.17,2.49-6.16,5-6.16a4.17,4.17,0,0,1,3.17,1.25L228,33.26a2.81,2.81,0,0,0-1.92-.88,2,2,0,0,0-1.81,1.15,7.74,7.74,0,0,0-.48,3.19,4.61,4.61,0,0,0,.77,3.13,2,2,0,0,0,1.52.66,3.3,3.3,0,0,0,2.31-1.13l1.18,1.52A4.77,4.77,0,0,1,225.92,42.41Z"/><path class="cls-2" d="M234.13,37v.21c0,1.58.59,3.26,2.83,3.26a4.22,4.22,0,0,0,2.85-1.13l1,1.52a6.19,6.19,0,0,1-4.12,1.52c-3.24,0-5.28-2.33-5.28-6a6.25,6.25,0,0,1,1.43-4.48,4.36,4.36,0,0,1,3.51-1.54,4.42,4.42,0,0,1,3.15,1.18c1,.91,1.5,2.31,1.5,5V37Zm2.2-4.82c-1.4,0-2.17,1.11-2.17,3h4.23C238.39,33.33,237.58,32.22,236.33,32.22Z"/><path class="cls-2" d="M246,42.12h-2.47V30.66h7.16l-.29,1.86H246Z"/><path class="cls-2" d="M261.62,45.35h-2.31V42.12h-6.68v3.24h-2.31v-5h.88a15.37,15.37,0,0,0,1.5-3.83,19,19,0,0,0,.48-4.14l0-1.68h7v9.65h1.43Zm-6.45-12.88,0,1.06a19.58,19.58,0,0,1-.48,3.6,15.7,15.7,0,0,1-1.22,3.17h4.3V32.47Z"/><path class="cls-2" d="M271.6,42.59A2.69,2.69,0,0,1,270,41.05a3.85,3.85,0,0,1-3.15,1.36c-2.63,0-3.8-1.4-3.8-3.4,0-2.65,2-4,5.66-4h.77v-.61c0-1.31-.23-2-1.58-2a6.93,6.93,0,0,0-3.42,1.31l-1.11-1.79a8.59,8.59,0,0,1,4.87-1.56c1.79,0,3,.66,3.49,1.9a7.9,7.9,0,0,1,.18,2.81l0,3.28c0,1.54.11,2,1,2.65ZM269,36.7c-2.49,0-3.24.72-3.24,2.17a1.52,1.52,0,0,0,1.58,1.72,2.54,2.54,0,0,0,2.06-1.15l0-2.72Z"/><path class="cls-2" d="M276.88,42.46a1.82,1.82,0,0,1-1.79-1.86,1.75,1.75,0,0,1,1.74-1.79,1.8,1.8,0,0,1,1.81,1.79A1.83,1.83,0,0,1,276.88,42.46Z"/><path class="cls-2" d="M85.07,67.55c-2.33,0-3.48-1.8-3.48-4.22,0-2.68,1.37-4.2,3.42-4.2,2.31,0,3.42,1.83,3.42,4.21C88.43,65.89,87.2,67.55,85.07,67.55Zm0-7.38c-1.41,0-1.93,1.11-1.93,3.06,0,2.11.53,3.28,2,3.28,1.22,0,1.84-.9,1.84-3.1C86.91,61.42,86.5,60.17,85,60.17Z"/><path class="cls-2" d="M94,61.73a1.65,1.65,0,0,1,1.14-.43,1.71,1.71,0,0,1,1.41.7,3.72,3.72,0,0,1,.65,2.34,4.28,4.28,0,0,1-.6,2.44,1.79,1.79,0,0,1-1.54.8A1.52,1.52,0,0,1,94,67.23V69.8H92.74V67.23a1.52,1.52,0,0,1-1.05.35,1.79,1.79,0,0,1-1.54-.8,4.28,4.28,0,0,1-.6-2.44A3.72,3.72,0,0,1,90.2,62a1.71,1.71,0,0,1,1.41-.7,1.65,1.65,0,0,1,1.14.43V59l1.29-.3Zm-1.29,1a1.28,1.28,0,0,0-.85-.38.8.8,0,0,0-.69.35,2.85,2.85,0,0,0-.28,1.64,3.5,3.5,0,0,0,.26,1.8.84.84,0,0,0,.75.4,1.22,1.22,0,0,0,.82-.33ZM94,66.21a1.22,1.22,0,0,0,.82.33.84.84,0,0,0,.75-.4,3.5,3.5,0,0,0,.26-1.8,2.85,2.85,0,0,0-.28-1.64.8.8,0,0,0-.69-.35,1.28,1.28,0,0,0-.85.38Z"/><path class="cls-2" d="M98.64,61.54l1.29-.25v3.13c0,.43,0,.95,0,1.35h0a9.35,9.35,0,0,1,.64-1.4l1.6-2.85,1.35-.24v6.14H102.2V64.71c0-.58,0-1,.06-1.55h0a9.37,9.37,0,0,1-.6,1.32L100,67.43H98.64Z"/><path class="cls-2" d="M109.7,61.3v5.16h.75v2.66h-1.21V67.43h-4V61.55l1.29-.25v5.16h1.86V61.55Z"/><path class="cls-2" d="M111.63,61.54l1.29-.25v3.13c0,.43,0,.95,0,1.35h0a9.35,9.35,0,0,1,.64-1.4l1.6-2.85,1.35-.24v6.14h-1.29V64.71c0-.58,0-1,.06-1.55h0a9.37,9.37,0,0,1-.6,1.32L113,67.43h-1.35Z"/><path class="cls-2" d="M122.34,67.68a1.4,1.4,0,0,1-.82-.8,2,2,0,0,1-1.64.71c-1.37,0-2-.73-2-1.77,0-1.38,1-2.08,3-2.08h.4v-.32c0-.69-.12-1.05-.83-1.05a3.62,3.62,0,0,0-1.79.69l-.58-.93a4.49,4.49,0,0,1,2.54-.82,1.76,1.76,0,0,1,1.82,1,4.13,4.13,0,0,1,.09,1.47l0,1.71c0,.8.06,1.06.52,1.38ZM121,64.6c-1.3,0-1.69.38-1.69,1.13a.79.79,0,0,0,.83.9,1.33,1.33,0,0,0,1.08-.6l0-1.42Z"/><path class="cls-2" d="M128.94,61.45v6h-1.29v-5H126.3l0,.65c0,.35-.06.85-.11,1.38,0,.36-.11,1.1-.18,1.53a1.89,1.89,0,0,1-.46,1.09,2,2,0,0,1-1.24.45l-.32,0-.26-.89.26-.06a1.38,1.38,0,0,0,.58-.31,3.07,3.07,0,0,0,.44-1.77c.08-.79.11-1.22.15-2l.07-1.12Z"/><path class="cls-2" d="M132,61.3v2.35h.86a2.5,2.5,0,0,1,1.86.58,1.86,1.86,0,0,1,.48,1.34,1.82,1.82,0,0,1-.46,1.31,2.36,2.36,0,0,1-1.77.54h-2.26V61.55Zm0,5.2h.75a1.18,1.18,0,0,0,.85-.26,1,1,0,0,0,.24-.69,1,1,0,0,0-.25-.72,1.23,1.23,0,0,0-.88-.26H132Z"/><path class="cls-2" d="M137.8,67.43h-1.29V61.55l1.29-.25v2.46h2V61.55l1.29-.25v6.13h-1.29v-2.7h-2Z"/><path class="cls-2" d="M144.17,61.3v2.35H145a2.5,2.5,0,0,1,1.86.58,1.86,1.86,0,0,1,.48,1.34,1.82,1.82,0,0,1-.46,1.31,2.36,2.36,0,0,1-1.77.54h-2.21V61.55Zm0,5.2h.67a1.22,1.22,0,0,0,.88-.26.9.9,0,0,0,.24-.67,1,1,0,0,0-.27-.76,1.22,1.22,0,0,0-.84-.24h-.67Zm5.36-5.2v6.13h-1.29V61.55Z"/><path class="cls-2" d="M151.3,61.54l1.29-.25v3.13c0,.43,0,.95,0,1.35h0a9.35,9.35,0,0,1,.64-1.4l1.6-2.85,1.35-.24v6.14h-1.29V64.71c0-.58,0-1,.06-1.55h0a9.27,9.27,0,0,1-.6,1.32l-1.64,2.94H151.3Zm4.3-2a2,2,0,0,1-3.78,0l.65-.37c.06.08.15.21.25.32a1.3,1.3,0,0,0,1,.39,1.22,1.22,0,0,0,1-.39c.09-.11.19-.24.25-.32Z"/><path class="cls-2" d="M160.59,67.43v-6h4.49v6h-1.29v-5h-1.92v5Z"/><path class="cls-2" d="M170.95,67.68a1.4,1.4,0,0,1-.82-.8,2,2,0,0,1-1.64.71c-1.37,0-2-.73-2-1.77,0-1.38,1-2.08,3-2.08h.4v-.32c0-.69-.12-1.05-.83-1.05a3.62,3.62,0,0,0-1.79.69l-.58-.93a4.49,4.49,0,0,1,2.54-.82,1.76,1.76,0,0,1,1.82,1,4.14,4.14,0,0,1,.09,1.47l0,1.71c0,.8.06,1.06.52,1.38ZM169.6,64.6c-1.3,0-1.69.38-1.69,1.13a.79.79,0,0,0,.83.9,1.33,1.33,0,0,0,1.08-.6l0-1.42Z"/><path class="cls-2" d="M174.08,61.29a3.12,3.12,0,0,1,.09.71,2.07,2.07,0,0,1,1.6-.71,2,2,0,0,1,1.46.58,3.35,3.35,0,0,1,.8,2.5,3.59,3.59,0,0,1-.86,2.64,2.14,2.14,0,0,1-1.54.58,2.27,2.27,0,0,1-1.41-.5c0,.27,0,.59,0,.82v1.75L173,70V63a6.93,6.93,0,0,0-.12-1.49Zm.18,4.66a1.73,1.73,0,0,0,1.19.53.91.91,0,0,0,.66-.25,2.44,2.44,0,0,0,.52-1.8,2.62,2.62,0,0,0-.41-1.77.86.86,0,0,0-.67-.27,1.81,1.81,0,0,0-1.29.62Z"/><path class="cls-2" d="M181.4,67.43h-1.29v-5H178.5v-1h4.61l-.17,1H181.4Z"/><path class="cls-2" d="M185.23,67.43h-1.29V61.55l1.29-.25v2.46h2V61.55l1.29-.25v6.13h-1.29v-2.7h-2Z"/><path class="cls-2" d="M191.45,64.78v.11c0,.83.31,1.7,1.48,1.7a2.21,2.21,0,0,0,1.49-.59l.51.79a3.23,3.23,0,0,1-2.15.79c-1.69,0-2.76-1.22-2.76-3.15a3.27,3.27,0,0,1,.75-2.34,2.28,2.28,0,0,1,1.83-.8,2.31,2.31,0,0,1,1.64.62,3.25,3.25,0,0,1,.78,2.6v.27Zm1.15-2.52c-.73,0-1.13.58-1.13,1.55h2.21C193.67,62.84,193.25,62.26,192.6,62.26Z"/><path class="cls-2" d="M197.52,61.29a3.12,3.12,0,0,1,.09.71,2.07,2.07,0,0,1,1.6-.71,2,2,0,0,1,1.46.58,3.35,3.35,0,0,1,.8,2.5A3.59,3.59,0,0,1,200.6,67a2.14,2.14,0,0,1-1.54.58,2.27,2.27,0,0,1-1.41-.5c0,.27,0,.59,0,.82v1.75l-1.25.32V63a6.93,6.93,0,0,0-.12-1.49ZM197.7,66a1.73,1.73,0,0,0,1.19.53.91.91,0,0,0,.66-.25,2.44,2.44,0,0,0,.52-1.8,2.61,2.61,0,0,0-.41-1.77.86.86,0,0,0-.67-.27,1.81,1.81,0,0,0-1.29.62Z"/></svg>