<svg id="Слой_1" data-name="Слой 1" xmlns="http://www.w3.org/2000/svg" viewBox="0 0 24 24"><title>Монтажная область 1</title><path d="M12,0A12,12,0,1,0,24,12,12.0136,12.0136,0,0,0,12,0Zm0,23.6364A11.6364,11.6364,0,1,1,23.6364,12,11.65,11.65,0,0,1,12,23.6364Z" style="fill:#00ad4d"/><path d="M10.7226,9.1934a1.9925,1.9925,0,0,0-.6107-.34,2.1563,2.1563,0,0,0-.718-.1211,2.1277,2.1277,0,0,0-.7086.1211,1.99,1.99,0,0,0-.6107.34,1.72,1.72,0,0,0-.4289.5268,1.449,1.449,0,0,0-.1632.69v3.2076a1.435,1.435,0,0,0,.1585.676,1.707,1.707,0,0,0,.42.5222,1.8514,1.8514,0,0,0,.606.3356,2.26,2.26,0,0,0,.7273.1167,2.2323,2.2323,0,0,0,.718-.1167,1.96,1.96,0,0,0,.6107-.331,1.626,1.626,0,0,0,.4242-.5176,1.4553,1.4553,0,0,0,.1586-.6852V10.41a1.4847,1.4847,0,0,0-.1586-.69A1.6647,1.6647,0,0,0,10.7226,9.1934Zm-.042,4.2658a1.232,1.232,0,0,1-.1259.5827,1.1606,1.1606,0,0,1-.3123.3823,1.2174,1.2174,0,0,1-.415.21,1.4748,1.4748,0,0,1-.8671,0,1.2142,1.2142,0,0,1-.415-.21,1.16,1.16,0,0,1-.3123-.3823,1.232,1.232,0,0,1-.1259-.5827v-2.89a1.2325,1.2325,0,0,1,.1259-.5827,1.2151,1.2151,0,0,1,.3123-.3871,1.1759,1.1759,0,0,1,.415-.2143,1.471,1.471,0,0,1,.8671,0,1.1789,1.1789,0,0,1,.415.2143,1.2163,1.2163,0,0,1,.3123.3871,1.2325,1.2325,0,0,1,.1259.5827Z" style="fill:#00ad4d"/><path d="M17.171,9.3985a1.7192,1.7192,0,0,0-.5629-.4334,1.7737,1.7737,0,0,0-.7956-.168H13.2167v3.14H12.1515v.6173h1.0652v.5333H12.1515v.6173h1.0652v1.516h.6527v-1.516h2.4184v-.6173H13.8694v-.5333h1.944a1.65,1.65,0,0,0,.7578-.1678,1.8491,1.8491,0,0,0,.9163-1.035,1.9716,1.9716,0,0,0,.1209-.6713,2.243,2.243,0,0,0-.1071-.676A1.7466,1.7466,0,0,0,17.171,9.3985Zm-.3133,1.8136a1.1038,1.1038,0,0,1-.27.3917,1.2454,1.2454,0,0,1-.4056.247,1.3746,1.3746,0,0,1-.4942.0886H15.5v-.0019H13.8694V9.3938h1.8182a1.3226,1.3226,0,0,1,.4942.0932,1.2359,1.2359,0,0,1,.4056.2612,1.1906,1.1906,0,0,1,.27.4055,1.4785,1.4785,0,0,1,0,1.0582Z" style="fill:#00ad4d"/></svg>