<svg id="Слой_1" data-name="Слой 1" xmlns="http://www.w3.org/2000/svg" viewBox="0 0 24 24"><title>Монтажная область 1 копия 2</title><path d="M12,0A12,12,0,1,0,24,12,12.0136,12.0136,0,0,0,12,0Zm0,23.6364A11.6364,11.6364,0,1,1,23.6364,12,11.65,11.65,0,0,1,12,23.6364Z" style="fill:#00ad4d"/><path d="M18.4667,11.7436H15.7548a.4176.4176,0,0,0-.4172.4172H14.086a.2056.2056,0,0,0-.1988.16l-1.71-.4a.62.62,0,0,0-.3792.03l-1.6334.6677a.7344.7344,0,0,0-.43.4787l-3.603-.97a.6256.6256,0,0,0-.8067.5989v.4662a.6245.6245,0,0,0,.2787.5207l2.3174,1.5449a.2029.2029,0,0,0,.073.03l3.8627.8106A.6278.6278,0,0,0,12,16.1159a.6151.6151,0,0,0,.1435-.0169l1.7339-.4093v.0173a.2085.2085,0,0,0,.2086.2086h1.31a.4158.4158,0,0,0,.3592.2086h2.7118a.2086.2086,0,0,0,.2086-.2086V11.9522A.2085.2085,0,0,0,18.4667,11.7436Zm-4.6024,3.5206-1.8167.4293a.2123.2123,0,0,1-.1-.001l-3.8283-.8035L5.8347,13.3661a.2081.2081,0,0,1-.0928-.1736v-.4662a.2063.2063,0,0,1,.0843-.1675.21.21,0,0,1,.1907-.03l3.725,1.0032a.7377.7377,0,0,0,.6995.5067H12V13.621H10.4413a.32.32,0,0,1-.1191-.616l1.6336-.6677a.2093.2093,0,0,1,.1262-.01l1.7946.42Zm1.4734.2343h-1.043v-2.92h1.043Zm2.92.2086H15.7548V12.1608h2.5032Z" style="fill:#00ad4d"/><rect x="16.5893" y="14.8726" width="0.8344" height="0.4172" style="fill:#00ad4d"/><path d="M8.6444,11.3685a3.2853,3.2853,0,0,0,.28,1.3107l.3817-.1683a2.8931,2.8931,0,0,1,.602-3.2077,2.9308,2.9308,0,0,1,2.0716-.8663h.0192a2.9275,2.9275,0,0,1,2.9365,2.8919l.4172-.0027A3.3409,3.3409,0,0,0,12.209,8.03l0-1.0843h1.46a1.462,1.462,0,0,0,1.46-1.46.2085.2085,0,0,0-.2086-.2086H13.2516A1.46,1.46,0,0,0,12,5.9888a1.46,1.46,0,0,0-1.2516-.712H9.08a.2085.2085,0,0,0-.2086.2086,1.462,1.462,0,0,0,1.46,1.46h1.46l0,1.0841a3.3378,3.3378,0,0,0-2.1795.979A3.2927,3.2927,0,0,0,8.6444,11.3685Zm4.6072-5.6744h1.4392a1.0448,1.0448,0,0,1-1.0219.8344H12.23A1.0446,1.0446,0,0,1,13.2516,5.6941Zm-2.92.8344a1.0446,1.0446,0,0,1-1.022-.8344h1.4392a1.0446,1.0446,0,0,1,1.022.8344Z" style="fill:#00ad4d"/><path d="M11.9877,9.4489H12a1.8107,1.8107,0,0,1,1.8774,1.7174l.4172-.0029A2.2276,2.2276,0,0,0,12,9.0317h-.0146a2.3625,2.3625,0,0,0-1.6127.6327,2.0624,2.0624,0,0,0-.6671,1.5266,2.0166,2.0166,0,0,0,.1934.85l.3778-.1775a1.6056,1.6056,0,0,1-.1537-.6752,1.65,1.65,0,0,1,.5357-1.22A1.9466,1.9466,0,0,1,11.9877,9.4489Z" style="fill:#00ad4d"/><path d="M14.1449,17.0058H9.8516a.2145.2145,0,0,0-.2147.2147v1.288a.2145.2145,0,0,0,.2147.2147h4.2933a.2145.2145,0,0,0,.2147-.2147V17.22A.2145.2145,0,0,0,14.1449,17.0058Zm-.2147,1.288h-3.864v-.8587h.644v.4293H11.14v-.4293h.644v.4293h.4293v-.4293h.644v.4293h.4293v-.4293h.644Z" style="fill:#00ad4d"/><path d="M5.9876,17.22v1.288a.2145.2145,0,0,0,.2147.2147H9.2076v-.4293H6.417v-.8587h.644v.4293H7.49v-.4293h.644v.4293h.4293v-.4293h.644v-.4293H6.2023A.2145.2145,0,0,0,5.9876,17.22Z" style="fill:#00ad4d"/><path d="M17.7943,17.0058H14.7889v.4293h.644v.4293h.4293v-.4293h.644v.4293h.4293v-.4293h.644v.8587H14.7889v.4293h3.0053a.2145.2145,0,0,0,.2147-.2147V17.22A.2145.2145,0,0,0,17.7943,17.0058Z" style="fill:#00ad4d"/></svg>