<svg id="Слой_1" data-name="Слой 1" xmlns="http://www.w3.org/2000/svg" viewBox="0 0 24 24"><title>Монтажная область 1 копия 8</title><path d="M12,0A12,12,0,1,0,24,12,12.0136,12.0136,0,0,0,12,0Zm0,23.6364A11.6364,11.6364,0,1,1,23.6364,12,11.65,11.65,0,0,1,12,23.6364Z" style="fill:#00ad4d"/><path d="M10.3523,13.7943l-.0922.8708a.2494.2494,0,0,0,.2479.2755H13.143a.2494.2494,0,0,0,.2479-.2755l-.0922-.8708H16.581a.9275.9275,0,0,0,.9265-.9265V6.4471a.9275.9275,0,0,0-.9265-.9265h-9.71a.9274.9274,0,0,0-.9265.9265v6.4208a.9275.9275,0,0,0,.9265.9265Zm.4327.6478.0684-.6478h1.9439l.0687.6478ZM6.4427,6.4471a.4284.4284,0,0,1,.428-.428h9.71a.4284.4284,0,0,1,.428.428V12.1H6.4427Zm0,6.4208v-.27H17.009v.27a.4285.4285,0,0,1-.428.428h-9.71A.4285.4285,0,0,1,6.4427,12.8679Z" style="fill:#00ad4d"/><path d="M16.5742,16.6151a.25.25,0,0,0,.0081-.2444l-.4922-.9469a.2492.2492,0,0,0-.2211-.1343H7.5829a.2493.2493,0,0,0-.2211.1343l-.4923.9469a.2493.2493,0,0,0,.2212.3642h9.2705A.2494.2494,0,0,0,16.5742,16.6151Zm-9.0731-.3786.2332-.4486h7.9832l.2331.4486Z" style="fill:#00ad4d"/><path d="M17.009,17.1834H16.61A1.0479,1.0479,0,0,0,15.5637,18.23a.2492.2492,0,0,0,.2492.2492h1.9936a.2493.2493,0,0,0,.2492-.2492A1.0479,1.0479,0,0,0,17.009,17.1834Zm-.8871.7975a.5491.5491,0,0,1,.4884-.2991h.3987a.5489.5489,0,0,1,.4882.2991Z" style="fill:#00ad4d"/></svg>