<svg id="Слой_1" data-name="Слой 1" xmlns="http://www.w3.org/2000/svg" viewBox="0 0 24 24"><title>Монтажная область 1 копия 5</title><path d="M12,0A12,12,0,1,0,24,12,12.0136,12.0136,0,0,0,12,0Zm0,23.6364A11.6364,11.6364,0,1,1,23.6364,12,11.65,11.65,0,0,1,12,23.6364Z" style="fill:#00ac4c"/><path d="M7.0226,11.7435l3.8754-3.8752a.2607.2607,0,0,0-.37-.3673l-3.876,3.8735a.2611.2611,0,0,0,0,.37A.27.27,0,0,0,7.0226,11.7435Z" style="fill:#00ac4c"/><path d="M10.274,11.944a1.0749,1.0749,0,1,0-.7609-.3154A1.0686,1.0686,0,0,0,10.274,11.944Zm-.3909-1.4646a.57.57,0,0,1,.7812-.0006.5515.5515,0,0,1-.39.943.5576.5576,0,0,1-.39-.16.5529.5529,0,0,1-.0005-.7824Z" style="fill:#00ac4c"/><path d="M8.1212,9.0726A1.0754,1.0754,0,1,0,7.36,9.388,1.0684,1.0684,0,0,0,8.1212,9.0726ZM6.8088,8.3118a.5583.5583,0,0,1,.16-.39A.5692.5692,0,0,1,7.7506,7.92a.5515.5515,0,0,1-.39.943.5574.5574,0,0,1-.39-.16A.5481.5481,0,0,1,6.8088,8.3118Z" style="fill:#00ac4c"/><path d="M10.2885,13.7993a4.4148,4.4148,0,0,1-1.5461.2482,4.4584,4.4584,0,0,1,.0726-8.9161L8.89,5.132a4.4635,4.4635,0,0,1,4.3842,4.5314.243.243,0,0,0,.486.008A4.95,4.95,0,0,0,8.8977,4.646l-.081-.0006a4.9444,4.9444,0,0,0-.0822,9.8881l.0834.0007a4.9252,4.9252,0,0,0,1.6311-.2762.243.243,0,1,0-.1605-.4587Z" style="fill:#00ac4c"/><path d="M19.3668,12.3558H18.1507l.0657-.0873a1.2933,1.2933,0,0,0,.2618-.7832A1.3069,1.3069,0,0,0,17.1728,10.18a1.17,1.17,0,0,0-1.0047.4877,5.309,5.309,0,0,0-.5764,1.1965l-.0508.1288L15.49,11.864a5.309,5.309,0,0,0-.5764-1.1965A1.17,1.17,0,0,0,13.909,10.18a1.3069,1.3069,0,0,0-1.3054,1.3054,1.2929,1.2929,0,0,0,.2618.7832l.0657.0873H11.715a.7624.7624,0,0,0-.7615.7615v.5439a.7633.7633,0,0,0,.5076.7178l.0363.0129v4.2013a.7624.7624,0,0,0,.7615.7615h6.5639a.7624.7624,0,0,0,.7615-.7615V14.3918l.0363-.0129a.7634.7634,0,0,0,.5076-.7178v-.5439A.7624.7624,0,0,0,19.3668,12.3558Zm-3.3775-.315c.4177-1.06.5922-1.426,1.1835-1.426a.87.87,0,1,1,0,1.7409H15.8646Zm-2.08-1.426c.5913,0,.7658.3664,1.1834,1.426l.1248.315H13.909a.87.87,0,0,1,0-1.7409Zm.5985,8.3048H12.259a.3268.3268,0,0,1-.3265-.3264V14.4226h2.575Zm0-4.932H11.715a.3268.3268,0,0,1-.3265-.3264v-.5439a.3269.3269,0,0,1,.3265-.3265h2.7924Zm1.6319,4.932H14.9425V12.7907h1.1969Zm3.01-.3264a.3268.3268,0,0,1-.3264.3264H16.5743v-4.497h2.575Zm.544-4.932a.3268.3268,0,0,1-.3265.3264H16.5743V12.7907h2.7925a.3269.3269,0,0,1,.3265.3265Z" style="fill:#00ac4c"/></svg>