<svg id="Слой_1" data-name="Слой 1" xmlns="http://www.w3.org/2000/svg" viewBox="0 0 24 24"><title>Монтажная область 1 копия 4</title><path d="M12,0A12,12,0,1,0,24,12,12.0136,12.0136,0,0,0,12,0Zm0,23.6364A11.6364,11.6364,0,1,1,23.6364,12,11.65,11.65,0,0,1,12,23.6364Z" style="fill:#00ac4c"/><path d="M12.0663,11.0178,12,11.0884l-.0662-.0706a.7919.7919,0,0,0-.5822-.2528.804.804,0,0,0-.801.8053c0,.6153.8628,1.2821,1.3726,1.5791a.1545.1545,0,0,0,.1536,0c.51-.2971,1.3724-.964,1.3724-1.5791a.804.804,0,0,0-.801-.8053A.7912.7912,0,0,0,12.0663,11.0178Zm1.0779.5526c0,.5245-.983,1.167-1.0952,1.2385L12,12.84l-.0489-.0312c-.1121-.0715-1.0953-.7138-1.0953-1.2385a.4958.4958,0,1,1,.9917,0,.1526.1526,0,0,0,.3052,0,.4958.4958,0,1,1,.9915,0Z" style="fill:#00ac4c"/><path d="M17.1859,14.0969a.8663.8663,0,0,0-.8331-.0428L14.147,15.1247V14.87a.835.835,0,0,0-.8381-.85h-2.01a4.2828,4.2828,0,0,1-1.248-.1935l-1.3731-.428v-.5947a.2.2,0,0,0-.1892-.22H6.6558a.2429.2429,0,0,0-.24.22v4.8579a.2362.2362,0,0,0,.24.21H8.489a.19.19,0,0,0,.1892-.21v-.67l.3638.271a3.0672,3.0672,0,0,0,1.9189.67h1.7658a3.0237,3.0237,0,0,0,1.7124-.526l2.7756-1.893a.8459.8459,0,0,0-.0288-1.4168ZM8.2488,17.4424H6.845V13.0138H8.2488Zm8.7238-2.2818-2.7756,1.8918a2.5967,2.5967,0,0,1-1.47.4512H10.9609A2.6344,2.6344,0,0,1,9.3136,16.93l-.6355-.4973v-2.585l1.2465.3888a4.7142,4.7142,0,0,0,1.3746.2127h2.01a.4011.4011,0,0,1,.4089.42v.4388l-.0669.0183a5.4159,5.4159,0,0,1-2.1315.14.209.209,0,0,0-.24.1778.2163.2163,0,0,0,.181.246,4.8372,4.8372,0,0,0,.7654.0587,6.1761,6.1761,0,0,0,1.7793-.2709l.0115-.0114h.0221l.011-.0051L16.5537,14.44a.4179.4179,0,0,1,.6013.3755A.4178.4178,0,0,1,16.9727,15.1606Z" style="fill:#00ac4c"/><path d="M6.84,9.8008a.8245.8245,0,0,0,.8126.0428l2.1854-1.071v.2552a.886.886,0,0,0,.8789.87h2.01a4.1463,4.1463,0,0,1,1.2275.1836l1.3529.4177v.595a.2232.2232,0,0,0,.23.2092H17.37a.1977.1977,0,0,0,.1993-.2092V6.2358a.2059.2059,0,0,0-.1994-.22H15.5365a.2341.2341,0,0,0-.23.22v.6855l-.3479-.2952a3.0372,3.0372,0,0,0-1.8941-.6716H11.2987a3.0271,3.0271,0,0,0-1.7124.5313L6.8108,8.3816A.848.848,0,0,0,6.84,9.8008ZM15.7358,6.445H17.14v4.4286H15.7358ZM7.0526,8.7374,9.8282,6.84a2.6,2.6,0,0,1,1.47-.4566h1.7659a2.6076,2.6076,0,0,1,1.627.5784l.6151.5038v2.5834l-1.2259-.3785a4.5778,4.5778,0,0,0-1.3545-.2028h-2.01a.451.451,0,0,1-.45-.44v-.44l.0687-.0173a5.4215,5.4215,0,0,1,2.15-.1394.221.221,0,0,0,.25-.1778.2142.2142,0,0,0-.1759-.246,5.9185,5.9185,0,0,0-2.561.2187L7.4717,9.458A.4179.4179,0,0,1,6.87,9.0825.4177.4177,0,0,1,7.0526,8.7374Z" style="fill:#00ac4c"/></svg>