<svg id="Слой_1" data-name="Слой 1" xmlns="http://www.w3.org/2000/svg" viewBox="0 0 24 24"><title>Монтажная область 1 копия 3</title><path d="M12,0A12,12,0,1,0,24,12,12.0136,12.0136,0,0,0,12,0Zm0,23.6364A11.6364,11.6364,0,1,1,23.6364,12,11.65,11.65,0,0,1,12,23.6364Z" style="fill:#00ac4c"/><path d="M15.9082,6.257H14.2491a.6763.6763,0,0,0-.64-.46h-.7017a1.1256,1.1256,0,0,0-1.8152,0h-.7017a.6763.6763,0,0,0-.64.46H8.0918a.9062.9062,0,0,0-.9052.9052V17.7373a.9062.9062,0,0,0,.9052.9052h7.8165a.9062.9062,0,0,0,.9052-.9052V7.1622A.9062.9062,0,0,0,15.9082,6.257ZM10.1464,7.3909V6.4725a.2446.2446,0,0,1,.2443-.2443h.8172a.2156.2156,0,0,0,.1864-.1072.6966.6966,0,0,1,1.2115,0,.2156.2156,0,0,0,.1862.1072h.8173a.2446.2446,0,0,1,.2443.2443v.92a.2445.2445,0,0,1-.2442.244H10.3907a.2447.2447,0,0,1-.2443-.2437V7.3909Zm.2443.6765h3.2186a.6763.6763,0,0,0,.64-.46h1.2136v9.6844H8.5373V7.6075H9.7509A.6763.6763,0,0,0,10.3907,8.0674Zm5.9917,9.67a.4747.4747,0,0,1-.4741.4741H8.0918a.4747.4747,0,0,1-.4741-.4741V7.1622a.4747.4747,0,0,1,.4741-.4741H9.7154v.4884H8.3218a.2155.2155,0,0,0-.2155.2155V17.5074a.2155.2155,0,0,0,.2155.2155h7.3565a.2155.2155,0,0,0,.2155-.2155V7.392a.2155.2155,0,0,0-.2155-.2155H14.2846V6.6881h1.6236a.4747.4747,0,0,1,.4741.4741Z" style="fill:#00ac4c"/><path d="M12,7.1477a.2155.2155,0,0,0,.2155-.2155v-.46a.2155.2155,0,1,0-.4311,0v.46A.2155.2155,0,0,0,12,7.1477Z" style="fill:#00ac4c"/><path d="M12.23,10.1365h1.3795a.2155.2155,0,0,0,0-.431H12.23a.2155.2155,0,1,0,0,.431Z" style="fill:#00ac4c"/><path d="M12.23,11.056h2.2989a.2155.2155,0,1,0,0-.431H12.23a.2155.2155,0,1,0,0,.431Z" style="fill:#00ac4c"/><path d="M10.0085,10.9928a.2154.2154,0,0,0,.3048,0l1.1495-1.1495a.2155.2155,0,0,0-.3048-.3048l-.9971.9971-.5373-.5373a.2155.2155,0,0,0-.3048.3048Z" style="fill:#00ac4c"/><path d="M12.23,12.4354h1.3795a.2155.2155,0,0,0,0-.4311H12.23a.2155.2155,0,1,0,0,.4311Z" style="fill:#00ac4c"/><path d="M12.23,13.3549h2.2989a.2155.2155,0,1,0,0-.4311H12.23a.2155.2155,0,1,0,0,.4311Z" style="fill:#00ac4c"/><path d="M10.0085,13.2918a.2154.2154,0,0,0,.3048,0l1.1495-1.1495a.2155.2155,0,0,0-.3048-.3048l-.9971.9971-.5373-.5373a.2155.2155,0,1,0-.3048.3048Z" style="fill:#00ac4c"/><path d="M12.23,14.7344h1.3795a.2155.2155,0,0,0,0-.4311H12.23a.2155.2155,0,1,0,0,.4311Z" style="fill:#00ac4c"/><path d="M12.23,15.6539h2.2989a.2155.2155,0,1,0,0-.4311H12.23a.2155.2155,0,1,0,0,.4311Z" style="fill:#00ac4c"/><path d="M10.0085,15.5907a.2154.2154,0,0,0,.3048,0l1.1495-1.1495a.2155.2155,0,0,0-.3048-.3048l-.9971.9971-.5373-.5373a.2155.2155,0,1,0-.3048.3048Z" style="fill:#00ac4c"/></svg>