<svg id="Слой_1" data-name="Слой 1" xmlns="http://www.w3.org/2000/svg" viewBox="0 0 24 24"><title>Монтажная область 1 копия 20</title><path d="M2.0669,3.3508a.6629.6629,0,1,0,.6629.6629A.6638.6638,0,0,0,2.0669,3.3508Zm0,1.1006a.4376.4376,0,1,1,.4376-.4376A.4382.4382,0,0,1,2.0669,4.4514Z" style="fill:#00ad4d"/><path d="M3.7728,3.3508a.6629.6629,0,1,0,.6629.6629A.6637.6637,0,0,0,3.7728,3.3508Zm0,1.1006A.4376.4376,0,1,1,4.21,4.0137.4382.4382,0,0,1,3.7728,4.4514Z" style="fill:#00ad4d"/><path d="M5.4787,4.6767a.6629.6629,0,1,0-.6629-.6629A.6637.6637,0,0,0,5.4787,4.6767Zm0-1.1006a.4376.4376,0,1,1-.4376.4376A.4382.4382,0,0,1,5.4787,3.5761Z" style="fill:#00ad4d"/><path d="M15.9693,11.8357a.89.89,0,0,1,0,1.0893l.2083.2084a1.1825,1.1825,0,0,0,0-1.506Z" style="fill:#00ad4d"/><path d="M17.0518,10.7087l-.2075.2074.0341.04a2.1864,2.1864,0,0,1,0,2.8495l-.0341.04.2075.2075.04-.0455a2.4794,2.4794,0,0,0,0-3.2525Z" style="fill:#00ad4d"/><path d="M17.994,9.7926,17.7868,10a3.4809,3.4809,0,0,1,0,4.7613l.2072.2072a3.7736,3.7736,0,0,0,0-5.1756Z" style="fill:#00ad4d"/><path d="M14.5,8.4608a.6874.6874,0,0,0-.6727.536l-.0186.08-.2153.1A14.4108,14.4108,0,0,1,7.59,10.4767H6.4364a.692.692,0,0,0-.6567.4848l-.0315.0974-.101.0172a1.2666,1.2666,0,0,0,.0006,2.4978l.1.0174.0315.0967a.6923.6923,0,0,0,.6568.4826H7.59c.1966,0,.3931.0077.5832.0152l.1624.0064v3.3142a1.27,1.27,0,1,0,2.54,0V14.5495l.21.0524a14.5889,14.5889,0,0,1,2.5063.87l.2162.0966.0189.082a.6873.6873,0,0,0,.6727.5359.6968.6968,0,0,0,.6961-.6961V9.1569A.6968.6968,0,0,0,14.5,8.4608Zm-8.757,4.9117-.2253-.08a1.026,1.026,0,0,1,0-1.9383l.2253-.08ZM7.47,11.63H6.8938v.2362H7.47v.9147H6.8938V13.02H7.47v.9121H6.4364a.4554.4554,0,0,1-.4548-.4548V11.1728a.4566.4566,0,0,1,.4548-.4573H7.47Zm3.1667,5.8762a1.0328,1.0328,0,1,1-2.0655,0v-.169H9.725V15.0852H8.5716v-.8788l.1827.0149a14.8209,14.8209,0,0,1,1.7476.2461l.1352.0275Zm-2.0655-.4052v-1.78h.9147v1.78ZM14.9573,15.49a.4573.4573,0,0,1-.9147,0v-4.437h-.2362v4.2557l-.2376-.1055a14.6238,14.6238,0,0,0-5.6939-1.2667l-.1658-.0032V10.7161l.1658-.0032A14.6643,14.6643,0,0,0,13.569,9.4462l.2374-.1053v.7978h.2362V9.1569a.4573.4573,0,0,1,.9147,0Z" style="fill:#00ad4d"/><path d="M9.8684,12.7243H10.67v-.8012H9.8684Zm.2253-.5759h.3506v.3506h-.3506Z" style="fill:#00ad4d"/><path d="M11.02,12.7243h.8012v-.8012H11.02Zm.2253-.5759h.3506v.3506h-.3506Z" style="fill:#00ad4d"/><path d="M9.2925,13.3h3.1049V11.3472H9.2925Zm.2253-1.7278h2.6543v1.5025H9.5178Z" style="fill:#00ad4d"/><path d="M23.5494,2.0468H.4512a.4511.4511,0,0,0-.4506.4506V5.6238H0v.2253H.0006V21.5026a.4511.4511,0,0,0,.4506.4506H23.5494A.4511.4511,0,0,0,24,21.5026V2.4974A.4511.4511,0,0,0,23.5494,2.0468ZM.2259,2.4974a.2256.2256,0,0,1,.2253-.2253H23.5494a.2256.2256,0,0,1,.2253.2253V5.6238H.2259Zm23.3235,19.23H.4512a.2256.2256,0,0,1-.2253-.2253V5.8491H23.7747V21.5026A.2256.2256,0,0,1,23.5494,21.7279Z" style="fill:#80c243"/></svg>