<svg id="Слой_1" data-name="Слой 1" xmlns="http://www.w3.org/2000/svg" viewBox="0 0 24 24"><title>Монтажная область 1 копия 18</title><path d="M21.7785,3.3161H2.2216a.3626.3626,0,0,0-.3622.3622v13.63a.3626.3626,0,0,0,.3622.3622H21.7785a.3626.3626,0,0,0,.3622-.3622V3.6783A.3626.3626,0,0,0,21.7785,3.3161ZM21.96,17.3086a.1813.1813,0,0,1-.1811.1811H2.2216a.1813.1813,0,0,1-.1811-.1811V3.6783a.1813.1813,0,0,1,.1811-.1811H21.7785a.1813.1813,0,0,1,.1811.1811Z" style="fill:#80c243"/><path d="M23.6378,1.3438H.3622A.3626.3626,0,0,0,0,1.706V18.8567a.3626.3626,0,0,0,.3622.3622H9.443v3.2563H7.0239v.1811h9.6529v-.1811H14.2576V19.2188h9.38A.3626.3626,0,0,0,24,18.8567V1.706A.3626.3626,0,0,0,23.6378,1.3438ZM14.0765,22.4751H9.6241V19.2188h4.4523Zm9.7424-3.6185a.1813.1813,0,0,1-.1811.1811H.3622a.1813.1813,0,0,1-.1811-.1811V1.706a.1813.1813,0,0,1,.1811-.1811H23.6378a.1813.1813,0,0,1,.1811.1811Z" style="fill:#80c243"/><path d="M7.3855,4.6456v5.091H8.58v1.552l1.6-1.552h5.785V4.6456Zm8.3984,4.91H10.1066L8.7613,10.8605V9.5555H7.5666V4.8267h8.2173Z" style="fill:#00ad4d"/><rect x="8.6826" y="6.0641" width="5.9854" height="0.1811" style="fill:#00ad4d"/><rect x="8.6826" y="7.0669" width="5.9854" height="0.1811" style="fill:#00ad4d"/><rect x="8.6826" y="8.1323" width="5.9854" height="0.1811" style="fill:#00ad4d"/><path d="M13.3615,12.1747a1.4234,1.4234,0,1,0-1.4234,1.4234A1.4251,1.4251,0,0,0,13.3615,12.1747Zm-2.6658,0a1.2423,1.2423,0,1,1,1.2424,1.2423A1.2438,1.2438,0,0,1,10.6957,12.1747Z" style="fill:#00ad4d"/><path d="M9.1774,15.5908l.128.128a3.525,3.525,0,0,1,5.2652.0377l.128-.128A3.7355,3.7355,0,0,0,9.1774,15.5908Z" style="fill:#00ad4d"/></svg>