<svg id="Слой_1" data-name="Слой 1" xmlns="http://www.w3.org/2000/svg" xmlns:xlink="http://www.w3.org/1999/xlink" viewBox="0 0 24 24"><defs><clipPath id="clip-path"><path d="M14.848,13.61h1.8034l.383,1.2142h1.4385L16.369,8.81H15.14l-2.1038,6.0144h1.4122Zm-1.2485.8147L15.4237,9.21h.6618L17.91,14.425h-.5825l-.383-1.2142H14.5588l-.3993,1.2142Z" style="fill:none"/></clipPath><clipPath id="clip-path-2"><path d="M16.3859,11.4946l-.4749-1.568h-.3289l-.8806,2.8769h2.1Zm-1.1429.9094.5033-1.6432.2581.8522.2514.791Z" style="fill:none"/></clipPath><clipPath id="clip-path-3"><path d="M22.7917,13.5858H19.8986V8.81H18.57v6.0144h4.2216Zm-.3995.8392H18.97V9.21h.53v4.7757h2.8931Z" style="fill:none"/></clipPath><linearGradient id="Безымянный_градиент_44" x1="3.1556" y1="13.7756" x2="6.7949" y2="10.1363" gradientUnits="userSpaceOnUse"><stop offset="0" stop-color="#00ad4d"/><stop offset="0.0019" stop-color="#01ad4d"/><stop offset="0.0664" stop-color="#23b34a"/><stop offset="0.1365" stop-color="#40b748"/><stop offset="0.2153" stop-color="#57bb46"/><stop offset="0.3046" stop-color="#6abe45"/><stop offset="0.4108" stop-color="#76c044"/><stop offset="0.5503" stop-color="#7ec243"/><stop offset="0.8515" stop-color="#80c243"/></linearGradient><linearGradient id="Безымянный_градиент_44-2" x1="-0.5836" y1="17.5135" x2="10.5325" y2="6.3975" xlink:href="#Безымянный_градиент_44"/><linearGradient id="Безымянный_градиент_44-3" x1="4.5783" y1="10.1959" x2="6.3442" y2="8.43" xlink:href="#Безымянный_градиент_44"/><linearGradient id="Безымянный_градиент_44-4" x1="4.004" y1="15.4818" x2="5.7701" y2="13.7157" xlink:href="#Безымянный_градиент_44"/><linearGradient id="Безымянный_градиент_44-5" x1="1.3802" y1="20.9784" x2="19.2536" y2="3.1049" xlink:href="#Безымянный_градиент_44"/></defs><title>Монтажная область 1 копия 13</title><g style="clip-path:url(#clip-path)"><polygon points="13.599 14.21 13.739 14.425 13.599 14.425 13.599 14.21" style="fill:#7cc143"/><polygon points="13.599 13.765 14.027 14.425 13.739 14.425 13.599 14.21 13.599 13.765" style="fill:#7cc143"/><polygon points="13.599 13.319 14.316 14.425 14.027 14.425 13.599 13.765 13.599 13.319" style="fill:#7cc143"/><polygon points="13.599 12.873 14.605 14.425 14.316 14.425 13.599 13.319 13.599 12.873" style="fill:#7cc143"/><polygon points="13.599 12.428 14.894 14.425 14.605 14.425 13.599 12.873 13.599 12.428" style="fill:#7dc143"/><polygon points="13.599 11.982 15.183 14.425 14.894 14.425 13.599 12.428 13.599 11.982" style="fill:#7dc243"/><polygon points="13.599 11.536 15.471 14.425 15.183 14.425 13.599 11.982 13.599 11.536" style="fill:#7dc243"/><polygon points="13.599 11.091 15.76 14.425 15.471 14.425 13.599 11.536 13.599 11.091" style="fill:#7dc243"/><polygon points="13.599 10.645 16.049 14.425 15.76 14.425 13.599 11.091 13.599 10.645" style="fill:#7ec243"/><polygon points="13.599 10.2 16.338 14.425 16.049 14.425 13.599 10.645 13.599 10.2" style="fill:#7ec243"/><polygon points="13.599 9.754 16.627 14.425 16.338 14.425 13.599 10.2 13.599 9.754" style="fill:#7ec243"/><polygon points="13.599 9.308 16.915 14.425 16.627 14.425 13.599 9.754 13.599 9.308" style="fill:#7ec243"/><polygon points="13.824 9.21 17.204 14.425 16.915 14.425 13.599 9.308 13.599 9.21 13.824 9.21" style="fill:#7ec243"/><polygon points="14.113 9.21 17.493 14.425 17.204 14.425 13.824 9.21 14.113 9.21" style="fill:#7fc243"/><polygon points="14.402 9.21 17.782 14.425 17.493 14.425 14.113 9.21 14.402 9.21" style="fill:#7fc243"/><polygon points="14.691 9.21 17.91 14.177 17.91 14.425 17.782 14.425 14.402 9.21 14.691 9.21" style="fill:#7fc243"/><polygon points="14.979 9.21 17.91 13.731 17.91 14.177 14.691 9.21 14.979 9.21" style="fill:#7fc243"/><polygon points="15.268 9.21 17.91 13.285 17.91 13.731 14.979 9.21 15.268 9.21" style="fill:#7fc243"/><polygon points="15.557 9.21 17.91 12.84 17.91 13.285 15.268 9.21 15.557 9.21" style="fill:#7fc243"/><polygon points="15.846 9.21 17.91 12.394 17.91 12.84 15.557 9.21 15.846 9.21" style="fill:#7fc243"/><polygon points="16.135 9.21 17.91 11.949 17.91 12.394 15.846 9.21 16.135 9.21" style="fill:#7fc243"/><polygon points="16.423 9.21 17.91 11.503 17.91 11.949 16.135 9.21 16.423 9.21" style="fill:#7fc243"/><polygon points="16.712 9.21 17.91 11.057 17.91 11.503 16.423 9.21 16.712 9.21" style="fill:#7fc243"/><polygon points="17.001 9.21 17.91 10.612 17.91 11.057 16.712 9.21 17.001 9.21" style="fill:#80c243"/><polygon points="17.29 9.21 17.91 10.166 17.91 10.612 17.001 9.21 17.29 9.21" style="fill:#80c243"/><polygon points="17.579 9.21 17.91 9.72 17.91 10.166 17.29 9.21 17.579 9.21" style="fill:#80c243"/><polygon points="17.868 9.21 17.91 9.275 17.91 9.72 17.579 9.21 17.868 9.21" style="fill:#80c243"/><polygon points="17.91 9.275 17.868 9.21 17.91 9.21 17.91 9.275" style="fill:#80c243"/><polygon points="13.036 14.678 13.131 14.824 13.036 14.824 13.036 14.678" style="fill:#7bc143"/><polygon points="13.036 14.233 13.42 14.824 13.131 14.824 13.036 14.678 13.036 14.233" style="fill:#7bc143"/><polygon points="13.036 13.787 13.709 14.824 13.42 14.824 13.036 14.233 13.036 13.787" style="fill:#7bc143"/><polygon points="13.036 13.342 13.997 14.824 13.709 14.824 13.036 13.787 13.036 13.342" style="fill:#7cc143"/><polygon points="13.036 12.896 14.286 14.824 13.997 14.824 13.036 13.342 13.036 12.896" style="fill:#7cc143"/><polygon points="13.036 12.45 14.575 14.824 14.286 14.824 13.036 12.896 13.036 12.45" style="fill:#7cc143"/><polygon points="13.036 12.005 14.864 14.824 14.575 14.824 13.036 12.45 13.036 12.005" style="fill:#7cc143"/><polygon points="13.036 11.559 15.153 14.824 14.864 14.824 13.036 12.005 13.036 11.559" style="fill:#7dc143"/><polygon points="13.036 11.113 15.442 14.824 15.153 14.824 13.036 11.559 13.036 11.113" style="fill:#7dc243"/><polygon points="13.036 10.668 15.73 14.824 15.442 14.824 13.036 11.113 13.036 10.668" style="fill:#7dc243"/><polygon points="13.036 10.222 16.019 14.824 15.73 14.824 13.036 10.668 13.036 10.222" style="fill:#7dc243"/><polygon points="13.036 9.776 16.308 14.824 16.019 14.824 13.036 10.222 13.036 9.776" style="fill:#7ec243"/><polygon points="13.036 9.331 16.597 14.824 16.308 14.824 13.036 9.776 13.036 9.331" style="fill:#7ec243"/><polygon points="13.036 8.885 16.886 14.824 16.597 14.824 13.036 9.331 13.036 8.885" style="fill:#7ec243"/><polygon points="13.277 8.81 17.174 14.824 16.886 14.824 13.036 8.885 13.036 8.81 13.277 8.81" style="fill:#7ec243"/><polygon points="13.565 8.81 17.463 14.824 17.174 14.824 13.277 8.81 13.565 8.81" style="fill:#7ec243"/><polygon points="13.854 8.81 17.752 14.824 17.463 14.824 13.565 8.81 13.854 8.81" style="fill:#7fc243"/><polygon points="14.143 8.81 18.041 14.824 17.752 14.824 13.854 8.81 14.143 8.81" style="fill:#7fc243"/><polygon points="14.432 8.81 18.33 14.824 18.041 14.824 14.143 8.81 14.432 8.81" style="fill:#7fc243"/><polygon points="14.721 8.81 18.473 14.6 18.473 14.824 18.33 14.824 14.432 8.81 14.721 8.81" style="fill:#7fc243"/><polygon points="15.009 8.81 18.473 14.154 18.473 14.6 14.721 8.81 15.009 8.81" style="fill:#7fc243"/><polygon points="15.298 8.81 18.473 13.709 18.473 14.154 15.009 8.81 15.298 8.81" style="fill:#7fc243"/><polygon points="15.587 8.81 18.473 13.263 18.473 13.709 15.298 8.81 15.587 8.81" style="fill:#7fc243"/><polygon points="15.876 8.81 18.473 12.817 18.473 13.263 15.587 8.81 15.876 8.81" style="fill:#7fc243"/><polygon points="16.165 8.81 18.473 12.372 18.473 12.817 15.876 8.81 16.165 8.81" style="fill:#7fc243"/><polygon points="16.453 8.81 18.473 11.926 18.473 12.372 16.165 8.81 16.453 8.81" style="fill:#7fc243"/><polygon points="16.742 8.81 18.473 11.48 18.473 11.926 16.453 8.81 16.742 8.81" style="fill:#80c243"/><polygon points="17.031 8.81 18.473 11.035 18.473 11.48 16.742 8.81 17.031 8.81" style="fill:#80c243"/><polygon points="17.32 8.81 18.473 10.589 18.473 11.035 17.031 8.81 17.32 8.81" style="fill:#80c243"/><polygon points="17.609 8.81 18.473 10.143 18.473 10.589 17.32 8.81 17.609 8.81" style="fill:#80c243"/><polygon points="17.897 8.81 18.473 9.698 18.473 10.143 17.609 8.81 17.897 8.81" style="fill:#80c243"/><polygon points="18.186 8.81 18.473 9.252 18.473 9.698 17.897 8.81 18.186 8.81" style="fill:#80c243"/><polygon points="18.473 9.252 18.186 8.81 18.473 8.81 18.473 9.252" style="fill:#80c243"/></g><g style="clip-path:url(#clip-path-2)"><polygon points="15.243 12.29 15.317 12.404 15.243 12.404 15.243 12.29" style="fill:#7ec243"/><polygon points="15.243 11.844 15.606 12.404 15.317 12.404 15.243 12.29 15.243 11.844" style="fill:#7ec243"/><polygon points="15.243 11.399 15.894 12.404 15.606 12.404 15.243 11.844 15.243 11.399" style="fill:#7ec243"/><polygon points="15.243 10.953 16.183 12.404 15.894 12.404 15.243 11.399 15.243 10.953" style="fill:#7fc243"/><polygon points="15.407 10.761 16.256 12.07 16.256 12.404 16.183 12.404 15.243 10.953 15.243 10.761 15.407 10.761" style="fill:#7fc243"/><polygon points="15.696 10.761 16.256 11.625 16.256 12.07 15.407 10.761 15.696 10.761" style="fill:#7fc243"/><polygon points="15.985 10.761 16.256 11.179 16.256 11.625 15.696 10.761 15.985 10.761" style="fill:#7fc243"/><polygon points="16.256 11.179 15.985 10.761 16.256 10.761 16.256 11.179" style="fill:#7fc243"/><polygon points="14.702 12.791 14.709 12.803 14.702 12.803 14.702 12.791" style="fill:#7dc243"/><polygon points="14.702 12.346 14.998 12.803 14.709 12.803 14.702 12.791 14.702 12.346" style="fill:#7ec243"/><polygon points="14.702 11.9 15.287 12.803 14.998 12.803 14.702 12.346 14.702 11.9" style="fill:#7ec243"/><polygon points="14.702 11.454 15.576 12.803 15.287 12.803 14.702 11.9 14.702 11.454" style="fill:#7ec243"/><polygon points="14.702 11.009 15.865 12.803 15.576 12.803 14.702 11.454 14.702 11.009" style="fill:#7ec243"/><polygon points="14.702 10.563 16.153 12.803 15.865 12.803 14.702 11.009 14.702 10.563" style="fill:#7ec243"/><polygon points="14.702 10.118 16.442 12.803 16.153 12.803 14.702 10.563 14.702 10.118" style="fill:#7fc243"/><polygon points="14.867 9.927 16.731 12.803 16.442 12.803 14.702 10.118 14.702 9.927 14.867 9.927" style="fill:#7fc243"/><polygon points="15.155 9.927 16.802 12.467 16.802 12.803 16.731 12.803 14.867 9.927 15.155 9.927" style="fill:#7fc243"/><polygon points="15.444 9.927 16.802 12.022 16.802 12.467 15.155 9.927 15.444 9.927" style="fill:#7fc243"/><polygon points="15.733 9.927 16.802 11.576 16.802 12.022 15.444 9.927 15.733 9.927" style="fill:#7fc243"/><polygon points="16.022 9.927 16.802 11.13 16.802 11.576 15.733 9.927 16.022 9.927" style="fill:#7fc243"/><polygon points="16.311 9.927 16.802 10.685 16.802 11.13 16.022 9.927 16.311 9.927" style="fill:#7fc243"/><polygon points="16.599 9.927 16.802 10.239 16.802 10.685 16.311 9.927 16.599 9.927" style="fill:#7fc243"/><polygon points="16.802 10.239 16.599 9.927 16.802 9.927 16.802 10.239" style="fill:#7fc243"/></g><g style="clip-path:url(#clip-path-3)"><polygon points="18.97 14.029 19.226 14.425 18.97 14.425 18.97 14.029" style="fill:#7fc243"/><polygon points="18.97 13.584 19.515 14.425 19.226 14.425 18.97 14.029 18.97 13.584" style="fill:#7fc243"/><polygon points="18.97 13.138 19.804 14.425 19.515 14.425 18.97 13.584 18.97 13.138" style="fill:#7fc243"/><polygon points="18.97 12.693 20.092 14.425 19.804 14.425 18.97 13.138 18.97 12.693" style="fill:#7fc243"/><polygon points="18.97 12.247 20.381 14.425 20.092 14.425 18.97 12.693 18.97 12.247" style="fill:#80c243"/><polygon points="18.97 11.801 20.67 14.425 20.381 14.425 18.97 12.247 18.97 11.801" style="fill:#80c243"/><polygon points="18.97 11.356 20.959 14.425 20.67 14.425 18.97 11.801 18.97 11.356" style="fill:#80c243"/><polygon points="18.97 10.91 21.248 14.425 20.959 14.425 18.97 11.356 18.97 10.91" style="fill:#80c243"/><polygon points="18.97 10.464 21.536 14.425 21.248 14.425 18.97 10.91 18.97 10.464" style="fill:#80c243"/><polygon points="18.97 10.019 21.825 14.425 21.536 14.425 18.97 10.464 18.97 10.019" style="fill:#80c243"/><polygon points="18.97 9.573 22.114 14.425 21.825 14.425 18.97 10.019 18.97 9.573" style="fill:#80c243"/><polygon points="19.023 9.21 22.392 14.409 22.392 14.425 22.114 14.425 18.97 9.573 18.97 9.21 19.023 9.21" style="fill:#80c243"/><polygon points="19.312 9.21 22.392 13.963 22.392 14.409 19.023 9.21 19.312 9.21" style="fill:#80c243"/><polygon points="19.6 9.21 22.392 13.517 22.392 13.963 19.312 9.21 19.6 9.21" style="fill:#80c243"/><polygon points="19.889 9.21 22.392 13.072 22.392 13.517 19.6 9.21 19.889 9.21" style="fill:#80c243"/><polygon points="20.178 9.21 22.392 12.626 22.392 13.072 19.889 9.21 20.178 9.21" style="fill:#80c243"/><polygon points="20.467 9.21 22.392 12.18 22.392 12.626 20.178 9.21 20.467 9.21" style="fill:#80c243"/><polygon points="20.756 9.21 22.392 11.735 22.392 12.18 20.467 9.21 20.756 9.21" style="fill:#80c243"/><polygon points="21.044 9.21 22.392 11.289 22.392 11.735 20.756 9.21 21.044 9.21" style="fill:#80c243"/><polygon points="21.333 9.21 22.392 10.844 22.392 11.289 21.044 9.21 21.333 9.21" style="fill:#80c243"/><polygon points="21.622 9.21 22.392 10.398 22.392 10.844 21.333 9.21 21.622 9.21" style="fill:#80c243"/><polygon points="21.911 9.21 22.392 9.952 22.392 10.398 21.622 9.21 21.911 9.21" style="fill:#80c243"/><polygon points="22.2 9.21 22.392 9.507 22.392 9.952 21.911 9.21 22.2 9.21" style="fill:#80c243"/><polygon points="22.392 9.507 22.2 9.21 22.392 9.21 22.392 9.507" style="fill:#80c243"/><polygon points="18.57 14.75 18.618 14.824 18.57 14.824 18.57 14.75" style="fill:#7fc243"/><polygon points="18.57 14.304 18.907 14.824 18.618 14.824 18.57 14.75 18.57 14.304" style="fill:#7fc243"/><polygon points="18.57 13.859 19.196 14.824 18.907 14.824 18.57 14.304 18.57 13.859" style="fill:#7fc243"/><polygon points="18.57 13.413 19.485 14.824 19.196 14.824 18.57 13.859 18.57 13.413" style="fill:#7fc243"/><polygon points="18.57 12.967 19.774 14.824 19.485 14.824 18.57 13.413 18.57 12.967" style="fill:#7fc243"/><polygon points="18.57 12.522 20.062 14.824 19.774 14.824 18.57 12.967 18.57 12.522" style="fill:#7fc243"/><polygon points="18.57 12.076 20.351 14.824 20.062 14.824 18.57 12.522 18.57 12.076" style="fill:#7fc243"/><polygon points="18.57 11.631 20.64 14.824 20.351 14.824 18.57 12.076 18.57 11.631" style="fill:#80c243"/><polygon points="18.57 11.185 20.929 14.824 20.64 14.824 18.57 11.631 18.57 11.185" style="fill:#80c243"/><polygon points="18.57 10.739 21.218 14.824 20.929 14.824 18.57 11.185 18.57 10.739" style="fill:#80c243"/><polygon points="18.57 10.294 21.506 14.824 21.218 14.824 18.57 10.739 18.57 10.294" style="fill:#80c243"/><polygon points="18.57 9.848 21.795 14.824 21.506 14.824 18.57 10.294 18.57 9.848" style="fill:#80c243"/><polygon points="18.57 9.402 22.084 14.824 21.795 14.824 18.57 9.848 18.57 9.402" style="fill:#80c243"/><polygon points="18.57 8.957 22.373 14.824 22.084 14.824 18.57 9.402 18.57 8.957" style="fill:#80c243"/><polygon points="18.764 8.81 22.662 14.824 22.373 14.824 18.57 8.957 18.57 8.81 18.764 8.81" style="fill:#80c243"/><polygon points="19.053 8.81 22.792 14.579 22.792 14.824 22.662 14.824 18.764 8.81 19.053 8.81" style="fill:#80c243"/><polygon points="19.341 8.81 22.792 14.134 22.792 14.579 19.053 8.81 19.341 8.81" style="fill:#80c243"/><polygon points="19.63 8.81 22.792 13.688 22.792 14.134 19.341 8.81 19.63 8.81" style="fill:#80c243"/><polygon points="19.919 8.81 22.792 13.242 22.792 13.688 19.63 8.81 19.919 8.81" style="fill:#80c243"/><polygon points="20.208 8.81 22.792 12.797 22.792 13.242 19.919 8.81 20.208 8.81" style="fill:#80c243"/><polygon points="20.497 8.81 22.792 12.351 22.792 12.797 20.208 8.81 20.497 8.81" style="fill:#80c243"/><polygon points="20.786 8.81 22.792 11.906 22.792 12.351 20.497 8.81 20.786 8.81" style="fill:#80c243"/><polygon points="21.074 8.81 22.792 11.46 22.792 11.906 20.786 8.81 21.074 8.81" style="fill:#80c243"/><polygon points="21.363 8.81 22.792 11.014 22.792 11.46 21.074 8.81 21.363 8.81" style="fill:#80c243"/><polygon points="21.652 8.81 22.792 10.569 22.792 11.014 21.363 8.81 21.652 8.81" style="fill:#80c243"/><polygon points="21.941 8.81 22.792 10.123 22.792 10.569 21.652 8.81 21.941 8.81" style="fill:#80c243"/><polygon points="22.23 8.81 22.792 9.677 22.792 10.123 21.941 8.81 22.23 8.81" style="fill:#80c243"/><polygon points="22.518 8.81 22.792 9.232 22.792 9.677 22.23 8.81 22.518 8.81" style="fill:#80c243"/><polygon points="22.792 9.232 22.518 8.81 22.792 8.81 22.792 9.232" style="fill:#80c243"/></g><path d="M6.8777,10.4551,2.8428,13.1066a.2094.2094,0,0,0,.23.35l4.0348-2.6515a.2094.2094,0,0,0-.23-.35Z" style="fill:url(#Безымянный_градиент_44)"/><path d="M1.1676,19.2648H8.7812V4.6462H1.1676Zm.4188-14.2H8.3625V18.8461H1.5864Z" style="fill:url(#Безымянный_градиент_44-2)"/><path d="M4.58,10.11a.208.208,0,0,0,.1159-.0352L6.4593,8.8994A.2094.2094,0,1,0,6.227,8.551L4.4632,9.7266A.2094.2094,0,0,0,4.58,10.11Z" style="fill:url(#Безымянный_градиент_44-3)"/><path d="M5.6529,13.8365,3.889,15.0125a.2094.2094,0,0,0,.2323.3484l1.7639-1.176a.2094.2094,0,0,0-.2323-.3484Z" style="fill:url(#Безымянный_градиент_44-4)"/><path d="M23.1875,7.375H18.5567V4.952a1.3312,1.3312,0,0,0-1.3294-1.33H1.3294A1.3312,1.3312,0,0,0,0,4.952V19.0485a1.331,1.331,0,0,0,1.3294,1.3294H17.2273a1.331,1.331,0,0,0,1.3294-1.3294v-2.257h4.6308A.8131.8131,0,0,0,24,15.979V8.1875A.8131.8131,0,0,0,23.1875,7.375ZM18.1281,19.0485a.9018.9018,0,0,1-.9008.9008H1.3294a.9018.9018,0,0,1-.9008-.9008V4.952a.9019.9019,0,0,1,.9008-.9012H17.2273a.9019.9019,0,0,1,.9008.9012V7.375h-.7389V4.6462H9.7667V19.2648h7.6225V16.7915h.7389Zm-5.3365-2.257H16.97v2.0546H10.1943V5.065H16.97v2.31H12.7915a.8131.8131,0,0,0-.8125.8125V15.979A.8131.8131,0,0,0,12.7915,16.7915ZM23.5,15.979a.3128.3128,0,0,1-.3125.3125H12.7915a.3128.3128,0,0,1-.3125-.3125V8.1875a.3128.3128,0,0,1,.3125-.3125h10.396a.3128.3128,0,0,1,.3125.3125Z" style="fill:url(#Безымянный_градиент_44-5)"/></svg>