<svg id="Слой_1" data-name="Слой 1" xmlns="http://www.w3.org/2000/svg" xmlns:xlink="http://www.w3.org/1999/xlink" viewBox="0 0 24 24"><defs><linearGradient id="Безымянный_градиент_44" x1="2.194" y1="24.9137" x2="21.8059" y2="5.3018" gradientUnits="userSpaceOnUse"><stop offset="0" stop-color="#00ad4d"/><stop offset="0.0019" stop-color="#01ad4d"/><stop offset="0.0664" stop-color="#23b34a"/><stop offset="0.1365" stop-color="#40b748"/><stop offset="0.2153" stop-color="#57bb46"/><stop offset="0.3046" stop-color="#6abe45"/><stop offset="0.4108" stop-color="#76c044"/><stop offset="0.5503" stop-color="#7ec243"/><stop offset="0.8515" stop-color="#80c243"/></linearGradient><linearGradient id="Безымянный_градиент_44-2" x1="4.3852" y1="21.9613" x2="19.6145" y2="6.732" xlink:href="#Безымянный_градиент_44"/></defs><title>Монтажная область 1 копия 14</title><path d="M22.89,10.71a10.8911,10.8911,0,0,0-21.7793,0l-.0015.03V23.7073A.2927.2927,0,0,0,1.4016,24H22.5984a.2927.2927,0,0,0,.2927-.2927V10.74Zm-.5839,12.7047H1.6942V10.8915a10.3058,10.3058,0,1,1,20.6115,0Z" style="fill:url(#Безымянный_градиент_44)"/><path d="M12.0007,2.6191A8.0953,8.0953,0,0,0,3.758,10.74V21.2129a.2927.2927,0,0,0,.2927.2927H19.9487a.2927.2927,0,0,0,.2927-.2927V10.74A8.0943,8.0943,0,0,0,12.0007,2.6191ZM19.6561,20.92s-4.4864-.0487-4.5443-.0505a2.79,2.79,0,0,1-2.1164-.9631,3.4234,3.4234,0,0,1,0-4.8341,2.6591,2.6591,0,0,1,1.8923-.7843h0a2.6558,2.6558,0,0,1,1.8916.7841,2.0908,2.0908,0,0,1,.0023,2.9454,1.611,1.611,0,0,1-2.275,0,1.2268,1.2268,0,0,1,0-1.7367A.9165.9165,0,0,1,15.16,16.01h0a.9159.9159,0,0,1,.6517.2694.6842.6842,0,0,1,.0022.9647.488.488,0,0,1-.6865.0009.3316.3316,0,0,1-.098-.2346.3237.3237,0,0,1,.0966-.2316.2926.2926,0,1,0-.4123-.4152.9039.9039,0,0,0-.27.6473.9144.9144,0,0,0,.2694.648,1.0754,1.0754,0,0,0,1.5137,0,1.2709,1.2709,0,0,0-.001-1.7929,1.4986,1.4986,0,0,0-1.066-.4411H15.16a1.4982,1.4982,0,0,0-1.0665.4427,1.812,1.812,0,0,0,0,2.5644,2.1969,2.1969,0,0,0,3.1032,0,2.6774,2.6774,0,0,0-.0024-3.7724,3.2377,3.2377,0,0,0-2.3058-.9558h-.0006a3.24,3.24,0,0,0-2.3061.9558,3.9783,3.9783,0,0,0-1.0195,1.7383,3.46,3.46,0,0,0-.7117-.879,3.44,3.44,0,0,0,1.3179-4.3411,2.1788,2.1788,0,0,0-.7092-.9391c-.0177-.0174-.4451-.3039-.5759-.4013a1.7357,1.7357,0,0,1-.4843-2.06,1.329,1.329,0,0,1,1.757-.6569,1.0029,1.0029,0,0,1,.4977,1.3253.7416.7416,0,0,1-.4163.3892.7341.7341,0,0,1-.5687-.0206.5347.5347,0,0,1-.2649-.7093.2928.2928,0,1,0-.5328-.2428,1.12,1.12,0,0,0,.5551,1.4849,1.3266,1.3266,0,0,0,1.76-.659,1.5893,1.5893,0,0,0-.7877-2.1q-.05-.0226-.1-.0423a1.4273,1.4273,0,0,0,.2507-1.5592,1.202,1.202,0,0,0-1.5851-.5927A1.0155,1.0155,0,0,0,10.46,5.7377a.8725.8725,0,0,0,1.1537.4345.2927.2927,0,1,0-.2405-.5337.2847.2847,0,0,1-.22.0069.2806.2806,0,0,1-.1594-.1491.43.43,0,0,1-.0113-.3311.4243.4243,0,0,1,.2235-.2392.6163.6163,0,0,1,.8111.3032.8329.8329,0,0,1,.0216.6421.8606.8606,0,0,1-.4057.51,2.5255,2.5255,0,0,0-1.7665,1.153A2.1259,2.1259,0,0,0,9.9147,9.549a2.785,2.785,0,0,0-1.4594.2364,2.299,2.299,0,0,0-1.1429,3.048,1.8988,1.8988,0,0,0,2.5155.9425,1.5775,1.5775,0,0,0,.7838-2.0886A1.3218,1.3218,0,0,0,8.8611,11.03a1.1137,1.1137,0,0,0-.5529,1.4758.9474.9474,0,0,0,1.26.4731.2926.2926,0,1,0-.2451-.5314.36.36,0,0,1-.2767.01.3633.3633,0,0,1-.2053-.1939.5229.5229,0,0,1-.015-.4029.5283.5283,0,0,1,.2772-.2979.7364.7364,0,0,1,.9752.3661.9921.9921,0,0,1-.4931,1.3141,1.3131,1.3131,0,0,1-1.74-.6526,1.7134,1.7134,0,0,1,.8523-2.2722,2.2026,2.2026,0,0,1,1.6963-.0581,2.8008,2.8008,0,0,1,.58.3222,2.2062,2.2062,0,0,1,.6613.8367,2.8534,2.8534,0,0,1-1.3029,3.7189,3.41,3.41,0,0,0-1.7572-.4852A2.8075,2.8075,0,0,0,5.77,17.4569a2.3038,2.3038,0,0,0,2.3006,2.3017,1.9021,1.9021,0,0,0,1.9-1.9A1.58,1.58,0,0,0,8.3927,16.28,1.3218,1.3218,0,0,0,7.0718,17.6a1.1169,1.1169,0,0,0,1.1149,1.1163.9516.9516,0,0,0,.9509-.95.2927.2927,0,1,0-.5854,0,.3656.3656,0,0,1-.3655.3647.5309.5309,0,0,1-.53-.5309.7358.7358,0,0,1,.7355-.7345.9942.9942,0,0,1,.9931.9931,1.3161,1.3161,0,0,1-1.3147,1.3146,1.7177,1.7177,0,0,1-1.7153-1.7163,2.2216,2.2216,0,0,1,2.2194-2.2187,2.85,2.85,0,0,1,2.846,2.8473,3.06,3.06,0,0,0,.0514.44,3.3711,3.3711,0,0,0,1.0538,1.85,3.036,3.036,0,0,0,.7658.5443H4.3434V10.74a7.5161,7.5161,0,0,1,7.6573-7.5352A7.5152,7.5152,0,0,1,19.6561,10.74Z" style="fill:url(#Безымянный_градиент_44-2)"/></svg>