<svg id="Слой_1" data-name="Слой 1" xmlns="http://www.w3.org/2000/svg" xmlns:xlink="http://www.w3.org/1999/xlink" viewBox="0 0 24 24"><defs><linearGradient id="Безымянный_градиент_44" x1="3.1556" y1="13.7756" x2="6.7949" y2="10.1363" gradientUnits="userSpaceOnUse"><stop offset="0" stop-color="#00ad4d"/><stop offset="0.0019" stop-color="#01ad4d"/><stop offset="0.0664" stop-color="#23b34a"/><stop offset="0.1365" stop-color="#40b748"/><stop offset="0.2153" stop-color="#57bb46"/><stop offset="0.3046" stop-color="#6abe45"/><stop offset="0.4108" stop-color="#76c044"/><stop offset="0.5503" stop-color="#7ec243"/><stop offset="0.8515" stop-color="#80c243"/></linearGradient><linearGradient id="Безымянный_градиент_44-2" x1="-0.5836" y1="17.5136" x2="10.5324" y2="6.3975" xlink:href="#Безымянный_градиент_44"/><linearGradient id="Безымянный_градиент_44-3" x1="4.5783" y1="10.1959" x2="6.3442" y2="8.43" xlink:href="#Безымянный_градиент_44"/><linearGradient id="Безымянный_градиент_44-4" x1="4.004" y1="15.4818" x2="5.7701" y2="13.7157" xlink:href="#Безымянный_градиент_44"/><linearGradient id="Безымянный_градиент_44-5" x1="0.8359" y1="20.4341" x2="19.645" y2="1.6251" xlink:href="#Безымянный_градиент_44"/></defs><title>Монтажная область 1 копия 15</title><path d="M6.8776,10.4552,2.8428,13.1066a.2094.2094,0,0,0,.23.35l4.0348-2.6515a.2094.2094,0,0,0-.23-.35Z" style="fill:url(#Безымянный_градиент_44)"/><path d="M1.1676,19.2648H8.7812V4.6463H1.1676Zm.4188-14.2H8.3625V18.8461H1.5864Z" style="fill:url(#Безымянный_градиент_44-2)"/><path d="M4.58,10.11a.2081.2081,0,0,0,.1159-.0352L6.4593,8.8994A.2094.2094,0,1,0,6.227,8.551L4.4632,9.7266A.2094.2094,0,0,0,4.58,10.11Z" style="fill:url(#Безымянный_градиент_44-3)"/><path d="M5.6528,13.8366,3.889,15.0125a.2094.2094,0,0,0,.2323.3484l1.7638-1.176a.2094.2094,0,0,0-.2323-.3484Z" style="fill:url(#Безымянный_градиент_44-4)"/><path d="M23.6289,5.6917a.54.54,0,0,0-.1307-.2134.587.587,0,0,0-.2454-.1422,8.591,8.591,0,0,0-4.1094-.2019l-.4619.1c-.0462.0112-.0949.03-.1415.0418V4.952a1.3312,1.3312,0,0,0-1.3294-1.33H1.3294A1.3312,1.3312,0,0,0,0,4.952V19.0485a1.3311,1.3311,0,0,0,1.3294,1.3294H17.2106A1.3311,1.3311,0,0,0,18.54,19.0485v-2.29c.0474-.0237.094-.04.1415-.0651l.4619-.2582a10.1544,10.1544,0,0,0,1.9846-1.5532A9.0857,9.0857,0,0,0,23.6289,5.6917ZM18.1113,19.0485a.9018.9018,0,0,1-.9007.9007H1.3294a.9018.9018,0,0,1-.9007-.9007V4.952a.9019.9019,0,0,1,.9007-.9013H17.2106a.9019.9019,0,0,1,.9007.9013v.4508c-.0882.0277-.1734.0465-.2625.0775l-.4618.1749-.0071.0033V4.6463H9.7667V19.2648H17.38V17.2485l.0071-.002.4618-.17c.0868-.0347.1753-.0827.2625-.1208Zm-6.46-1.8616.0023.0061,0,.0007.0161.0436.0993.0949.0451.0164a8.4543,8.4543,0,0,0,2.6163.381,9.339,9.339,0,0,0,2.53-.3605v1.477H10.1855V5.065h6.7757v.79a10.0417,10.0417,0,0,0-2.8422,2.0176A9.2621,9.2621,0,0,0,11.6518,17.1869Zm9.15-2.6322v0a8.8349,8.8349,0,0,1-8.5088,2.4539l1.386-1.3865,3.6225-.3495a.2309.2309,0,1,0-.0444-.46l-3.0649.2956,2.0205-2.0212,5.1924-.4994a.2309.2309,0,1,0-.0442-.46l-4.6351.4457,2.1057-2.1064,3.6253-.3508a.2309.2309,0,0,0-.0446-.46l-3.0672.2968L22.5,6.7981a.2309.2309,0,1,0-.3265-.3265L19.0256,9.62l.2926-3.0573a.2309.2309,0,1,0-.46-.044l-.3459,3.6144-2.1094,2.11.4451-4.629a.2309.2309,0,0,0-.46-.0442L15.89,12.7572l-2.0206,2.0213.2928-3.0614a.2309.2309,0,1,0-.46-.044l-.3461,3.6185-1.3756,1.3761a8.8315,8.8315,0,0,1,2.4648-8.4687,8.57,8.57,0,0,1,8.6578-2.4257l.0218.0069a.1406.1406,0,0,1,.0427.0208c.0094.01.0149.0182.0168.02l.0066.0186A8.6053,8.6053,0,0,1,20.8016,14.5546Z" style="fill:url(#Безымянный_градиент_44-5)"/></svg>