<svg id="Слой_1" data-name="Слой 1" xmlns="http://www.w3.org/2000/svg" viewBox="0 0 24 24"><title>Монтажная область 1 копия 9</title><path d="M12,0A12,12,0,1,0,24,12,12.0136,12.0136,0,0,0,12,0Zm0,23.6364A11.6364,11.6364,0,1,1,23.6364,12,11.65,11.65,0,0,1,12,23.6364Z" style="fill:#00ad4d"/><path d="M19.0269,8.8652h-.2575V8.35h.5a.2272.2272,0,1,0,0-.4543h-.0151V7.3811h.0151a.2272.2272,0,1,0,0-.4543h-.5v-.515h.0153a.2272.2272,0,0,0,0-.4543H16.6038A.7117.7117,0,0,0,16.4333,7.36a.7118.7118,0,0,0,0,.5565.7112.7112,0,0,0-.4929.9484h-.5632V7.6384a.7126.7126,0,0,0-.7118-.7116H9.3346a.7126.7126,0,0,0-.7118.7116V8.8652H7.422L7.62,7.6758a.2273.2273,0,0,0-.2241-.2646H7.3809V6.4269a.2272.2272,0,0,0-.4543,0v.9844H6.654v-.5a.2272.2272,0,1,0-.4543,0v.5H6.1846a.2273.2273,0,0,0-.2241.2646l.1982,1.1894H4.9731a.7117.7117,0,1,0,0,1.4235h.0151v6.3677a.7132.7132,0,0,0-.4847.6744v.4847a.2272.2272,0,0,0,.2272.2272H5.7a.2272.2272,0,0,0,.2272-.2272v-.4847a.713.713,0,0,0-.4847-.6744V10.2886h3.18v.2575a.7126.7126,0,0,0,.7118.7118H9.35v.515H8.1231A.2271.2271,0,0,0,7.8959,12v.4845a.7126.7126,0,0,0,.7118.7118h.0151v3.46a.7132.7132,0,0,0-.4847.6744v.4847a.2272.2272,0,0,0,.2272.2272h.9693a.2272.2272,0,0,0,.2272-.2272v-.4847a.713.713,0,0,0-.4847-.6744V15.3772h5.8458v1.2791a.713.713,0,0,0-.4847.6744v.4847a.2272.2272,0,0,0,.2272.2272h.9691a.2271.2271,0,0,0,.2272-.2272v-.4847a.7131.7131,0,0,0-.4845-.6744v-3.46h.0151a.7126.7126,0,0,0,.7118-.7118V12a.2271.2271,0,0,0-.2272-.2272H14.65v-.515h.0153a.7126.7126,0,0,0,.7118-.7118v-.2575h3.18v6.3677a.713.713,0,0,0-.4847.6744v.4847a.2272.2272,0,0,0,.2272.2272h.9691a.2271.2271,0,0,0,.2272-.2272v-.4847a.7131.7131,0,0,0-.4845-.6744V10.2886h.0151a.7117.7117,0,1,0,0-1.4235ZM18.8,7.3811v.5148H17.0885a.2574.2574,0,1,1,0-.5148Zm-2.4534-.7118a.2578.2578,0,0,1,.2575-.2575h1.7113v.515H16.6038A.2578.2578,0,0,1,16.3463,6.6693ZM16.6038,8.35h1.7113v.515H16.6038a.2575.2575,0,1,1,0-.515ZM9.0771,7.6384a.2577.2577,0,0,1,.2575-.2573h5.3308a.2577.2577,0,0,1,.2575.2573V8.8652H9.0771ZM7.128,7.8656l-.1667,1H6.6193l-.1665-1ZM5.4728,17.3307v.2575h-.515v-.2575a.2575.2575,0,0,1,.515,0Zm3.6346,0v.2575h-.515v-.2575a.2575.2575,0,0,1,.515,0Zm-.03-2.4078V13.1964h5.8458v1.7265Zm6.33,2.4078v.2575h-.5148v-.2575a.2574.2574,0,0,1,.5148,0Zm.2424-5.1035v.2573a.2578.2578,0,0,1-.2575.2575H8.6077a.2578.2578,0,0,1-.2575-.2575v-.2573ZM9.804,11.7729v-.515h4.3918v.515Zm5.1189-1.2268a.2578.2578,0,0,1-.2575.2575H9.3346a.2578.2578,0,0,1-.2575-.2575v-.2575h5.8458Zm4.1191,6.7846v.2575h-.5148v-.2575a.2574.2574,0,0,1,.5148,0Zm-.0151-7.4964H4.9731a.2574.2574,0,1,1,0-.5148H19.0269a.2574.2574,0,1,1,0,.5148Z" style="fill:#00ad4d"/></svg>