<svg id="Слой_1" data-name="Слой 1" xmlns="http://www.w3.org/2000/svg" xmlns:xlink="http://www.w3.org/1999/xlink" viewBox="0 0 24 24"><defs><linearGradient id="Безымянный_градиент_44" x1="2.9474" y1="13.6569" x2="6.3466" y2="10.2577" gradientUnits="userSpaceOnUse"><stop offset="0" stop-color="#00ad4d"/><stop offset="0.0019" stop-color="#01ad4d"/><stop offset="0.0664" stop-color="#23b34a"/><stop offset="0.1365" stop-color="#40b748"/><stop offset="0.2153" stop-color="#57bb46"/><stop offset="0.3046" stop-color="#6abe45"/><stop offset="0.4108" stop-color="#76c044"/><stop offset="0.5503" stop-color="#7ec243"/><stop offset="0.8515" stop-color="#80c243"/></linearGradient><linearGradient id="Безымянный_градиент_44-2" x1="-0.5451" y1="17.1483" x2="9.8376" y2="6.7655" xlink:href="#Безымянный_градиент_44"/><linearGradient id="Безымянный_градиент_44-3" x1="4.2763" y1="10.3134" x2="5.9257" y2="8.664" xlink:href="#Безымянный_градиент_44"/><linearGradient id="Безымянный_градиент_44-4" x1="12.3083" y1="10.3132" x2="13.9573" y2="8.6642" xlink:href="#Безымянный_градиент_44"/><linearGradient id="Безымянный_градиент_44-5" x1="3.7399" y1="15.2505" x2="5.3894" y2="13.601" xlink:href="#Безымянный_градиент_44"/><linearGradient id="Безымянный_градиент_44-6" x1="7.4866" y1="17.1482" x2="17.8692" y2="6.7656" xlink:href="#Безымянный_градиент_44"/><linearGradient id="Безымянный_градиент_44-7" x1="17.8071" y1="16.3137" x2="25.2125" y2="8.9082" xlink:href="#Безымянный_градиент_44"/><linearGradient id="Безымянный_градиент_44-8" x1="15.1844" y1="15.9867" x2="23.2439" y2="7.9272" xlink:href="#Безымянный_градиент_44"/><linearGradient id="Безымянный_градиент_44-9" x1="20.59" y1="16.802" x2="27.0188" y2="10.3733" xlink:href="#Безымянный_градиент_44"/><linearGradient id="Безымянный_градиент_44-10" x1="11.772" y1="15.2504" x2="13.4213" y2="13.6011" xlink:href="#Безымянный_градиент_44"/><linearGradient id="Безымянный_градиент_44-11" x1="10.979" y1="13.6571" x2="14.3786" y2="10.2575" xlink:href="#Безымянный_градиент_44"/><linearGradient id="Безымянный_градиент_44-12" x1="0.7808" y1="19.8761" x2="16.5361" y2="4.1208" xlink:href="#Безымянный_градиент_44"/></defs><title>Монтажная область 1 копия 11</title><path d="M6.4239,10.5556,2.6553,13.0321a.1956.1956,0,0,0,.2148.327l3.7686-2.4765a.1956.1956,0,0,0-.2148-.327Z" style="fill:url(#Безымянный_градиент_44)"/><path d="M1.0906,18.784H8.2019V5.13H1.0906ZM1.4818,5.521h6.329V18.3928H1.4818Z" style="fill:url(#Безымянный_градиент_44-2)"/><path d="M4.2774,10.2333A.1944.1944,0,0,0,4.3857,10.2L6.0331,9.1024a.1956.1956,0,1,0-.217-.3254L4.1688,9.875a.1956.1956,0,0,0,.1086.3583Z" style="fill:url(#Безымянный_градиент_44-3)"/><path d="M12.31,10.2333a.1952.1952,0,0,0,.1083-.0328l1.6467-1.0981a.1956.1956,0,1,0-.217-.3254L12.2009,9.875a.1956.1956,0,0,0,.1086.3583Z" style="fill:url(#Безымянный_градиент_44-4)"/><path d="M5.28,13.7138,3.6324,14.8122a.1956.1956,0,1,0,.217.3254l1.6475-1.0984a.1956.1956,0,0,0-.217-.3254Z" style="fill:url(#Безымянный_градиент_44-5)"/><path d="M9.1224,18.784h7.111V5.13H9.1224ZM9.5135,5.521h6.3287V18.3928H9.5135Z" style="fill:url(#Безымянный_градиент_44-6)"/><rect x="21.3143" y="5.4011" width="0.3911" height="14.4197" style="fill:url(#Безымянный_градиент_44-7)"/><rect x="19.0186" y="4.093" width="0.3911" height="15.7278" style="fill:url(#Безымянный_градиент_44-8)"/><rect x="23.6088" y="7.3545" width="0.3912" height="12.4664" style="fill:url(#Безымянный_градиент_44-9)"/><path d="M13.3117,13.7138l-1.6471,1.0984a.1956.1956,0,1,0,.217.3254l1.6471-1.0984a.1956.1956,0,0,0-.217-.3254Z" style="fill:url(#Безымянный_градиент_44-10)"/><path d="M14.4561,10.5556l-3.7694,2.4765a.1956.1956,0,0,0,.2148.327l3.7693-2.4765a.1956.1956,0,1,0-.2148-.327Z" style="fill:url(#Безымянный_градиент_44-11)"/><path d="M16.0752,4.1732H1.2417A1.2433,1.2433,0,0,0,0,5.4154V18.5819a1.2432,1.2432,0,0,0,1.2417,1.2417H16.0752a1.2432,1.2432,0,0,0,1.2417-1.2417V5.4154A1.2433,1.2433,0,0,0,16.0752,4.1732Zm.8413,14.4087a.8423.8423,0,0,1-.8413.8413H1.2417A.8423.8423,0,0,1,.4,18.5819V5.4154a.8424.8424,0,0,1,.8413-.8418H16.0752a.8424.8424,0,0,1,.8413.8418Z" style="fill:url(#Безымянный_градиент_44-12)"/></svg>