<svg id="Слой_1" data-name="Слой 1" xmlns="http://www.w3.org/2000/svg" xmlns:xlink="http://www.w3.org/1999/xlink" viewBox="0 0 24 24"><defs><linearGradient id="Безымянный_градиент_44" x1="2.8638" y1="21.8609" x2="4.4635" y2="20.2613" gradientUnits="userSpaceOnUse"><stop offset="0" stop-color="#00ad4d"/><stop offset="0.0019" stop-color="#01ad4d"/><stop offset="0.0664" stop-color="#23b34a"/><stop offset="0.1365" stop-color="#40b748"/><stop offset="0.2153" stop-color="#57bb46"/><stop offset="0.3046" stop-color="#6abe45"/><stop offset="0.4108" stop-color="#76c044"/><stop offset="0.5503" stop-color="#7ec243"/><stop offset="0.8515" stop-color="#80c243"/></linearGradient><linearGradient id="Безымянный_градиент_44-2" x1="0.8184" y1="12" x2="23.1816" y2="12" xlink:href="#Безымянный_градиент_44"/></defs><title>Монтажная область 1 копия 16</title><path d="M3.6636,19.9295a1.1316,1.1316,0,1,0,1.1316,1.1316A1.1329,1.1329,0,0,0,3.6636,19.9295Zm0,1.6779a.5463.5463,0,1,1,.5463-.5463A.5469.5469,0,0,1,3.6636,21.6074Z" style="fill:url(#Безымянный_градиент_44)"/><path d="M22.0815,2.0313H6.4936l-.0753-.1849A2.8623,2.8623,0,0,0,3.7054,0a2.84,2.84,0,0,0-2.86,2.4318L.8184,20.8975v.3055A2.8462,2.8462,0,0,0,3.7054,24a2.8633,2.8633,0,0,0,2.788-2.1279H22.0815a1.1011,1.1011,0,0,0,1.1-1.1V3.1313A1.1015,1.1015,0,0,0,22.0815,2.0313ZM5.978,21.3825a2.2937,2.2937,0,0,1-4.5723-.2314c.002-.0665.0069-.1368.0171-.2165l.011-.1746a2.2989,2.2989,0,0,1,4.5147-.1551H5.9462l.0318.2513Zm0-2.0353a2.87,2.87,0,0,0-4.5742.03V2.86l.0038-.1266A2.2478,2.2478,0,0,1,3.7054.5853,2.2485,2.2485,0,0,1,5.978,2.5415ZM6.5874,2.5313H14.93L6.5874,10.8367Zm0,9.0109,9.0514-9.0109h6.4427a.5962.5962,0,0,1,.4292.1833L6.5874,18.905Zm0,8.0759L22.6816,3.2538v8.6944l-9.4238,9.4238h-6.67Zm15.4941,1.754H13.9648l8.7168-8.7168v8.1172A.6.6,0,0,1,22.0815,21.3721Z" style="fill:url(#Безымянный_градиент_44-2)"/></svg>