<svg id="Слой_1" data-name="Слой 1" xmlns="http://www.w3.org/2000/svg" xmlns:xlink="http://www.w3.org/1999/xlink" viewBox="0 0 24 24"><defs><linearGradient id="Безымянный_градиент_44" x1="4.4537" y1="22.1796" x2="19.5539" y2="7.0794" gradientUnits="userSpaceOnUse"><stop offset="0" stop-color="#00ad4d"/><stop offset="0.0019" stop-color="#01ad4d"/><stop offset="0.0664" stop-color="#23b34a"/><stop offset="0.1365" stop-color="#40b748"/><stop offset="0.2153" stop-color="#57bb46"/><stop offset="0.3046" stop-color="#6abe45"/><stop offset="0.4108" stop-color="#76c044"/><stop offset="0.5503" stop-color="#7ec243"/><stop offset="0.8515" stop-color="#80c243"/></linearGradient><linearGradient id="Безымянный_градиент_44-2" x1="2.194" y1="24.9137" x2="21.8059" y2="5.3018" xlink:href="#Безымянный_градиент_44"/></defs><title>Монтажная область 1 копия 12</title><path d="M12,3.03A8.4364,8.4364,0,0,0,3.6352,10.42c-.0327.265-.064.71-.0771,1.06l-.0063,9.798H20.4471V11.48h-.0033a11.6951,11.6951,0,0,0-.13-1.4179A8.4008,8.4008,0,0,0,12,3.03Zm-.1512,17.6618H4.1371V12.0649h7.7114Zm8.0132,0H12.4338V12.0649h7.4279ZM19.8581,11.48H4.144c.0129-.3295.0423-.7461.0722-.988a7.8443,7.8443,0,0,1,15.52-.3334A11.0016,11.0016,0,0,1,19.8581,11.48Z" style="fill:url(#Безымянный_градиент_44)"/><path d="M22.89,10.71a10.8911,10.8911,0,0,0-21.7792,0l-.0015.03V23.7073A.2927.2927,0,0,0,1.4016,24H22.5984a.2927.2927,0,0,0,.2927-.2927V10.74Zm-.5839,12.7047H1.6943V10.8914a10.3058,10.3058,0,1,1,20.6115,0Z" style="fill:url(#Безымянный_градиент_44-2)"/></svg>