<svg id="Слой_1" data-name="Слой 1" xmlns="http://www.w3.org/2000/svg" xmlns:xlink="http://www.w3.org/1999/xlink" viewBox="0 0 24 24"><defs><linearGradient id="Безымянный_градиент_44" x1="4.0951" y1="17.0159" x2="19.9048" y2="1.2063" gradientUnits="userSpaceOnUse"><stop offset="0" stop-color="#00ad4d"/><stop offset="0.0019" stop-color="#01ad4d"/><stop offset="0.0664" stop-color="#23b34a"/><stop offset="0.1365" stop-color="#40b748"/><stop offset="0.2153" stop-color="#57bb46"/><stop offset="0.3046" stop-color="#6abe45"/><stop offset="0.4108" stop-color="#76c044"/><stop offset="0.5503" stop-color="#7ec243"/><stop offset="0.8515" stop-color="#80c243"/></linearGradient></defs><title>Монтажная область 1 копия 17</title><path d="M19.1844,8.5326H18.87V.2922A.2925.2925,0,0,0,18.5777,0h-1.37a.2922.2922,0,1,0,0,.5844h1.0774V8.5326H9.2208a.2922.2922,0,0,0,0,.5844h9.6714v1.8275H16.64a.2922.2922,0,0,0,0,.5844h1.6344l-.0064.0661A3.6681,3.6681,0,0,1,14.6024,14.92h-.6679a.2924.2924,0,0,0-.2922.2921v6.5611a1.6423,1.6423,0,1,1-3.2846,0V15.212a.2924.2924,0,0,0-.2922-.2921H9.3975A3.6683,3.6683,0,0,1,5.7316,11.595l-.0064-.0661H15.23a.2922.2922,0,0,0,0-.5844H5.1078V9.117H7.8108a.2922.2922,0,1,0,0-.5844H5.7144V.5844H7.5186V5.9659a1.414,1.414,0,0,0,2.8279,0V4.2923a.76.76,0,1,1,1.52,0V5.1a1.4507,1.4507,0,0,0,2.9014,0V.5844h1.03a.2922.2922,0,1,0,0-.5844H5.4222A.2925.2925,0,0,0,5.13.2922v8.24H4.8156a.2925.2925,0,0,0-.2922.2922v2.4119a.2925.2925,0,0,0,.2922.2922H5.14l.0045.0555a4.2891,4.2891,0,0,0,4.2534,3.92h.3757v6.2687a2.2267,2.2267,0,1,0,4.4533,0V15.5044h.3758a4.289,4.289,0,0,0,4.2532-3.92l.0045-.0555h.3242a.2925.2925,0,0,0,.2922-.2922V8.8248A.2925.2925,0,0,0,19.1844,8.5326ZM8.1032.5844h6.08V5.1a.8662.8662,0,0,1-1.7325,0V4.2923a1.3445,1.3445,0,0,0-2.6889,0V5.9659a.8295.8295,0,0,1-1.659,0Z" style="fill:url(#Безымянный_градиент_44)"/></svg>