<svg id="Слой_1" data-name="Слой 1" xmlns="http://www.w3.org/2000/svg" viewBox="0 0 24 24"><title>Монтажная область 1 копия 6</title><path d="M12,0A12,12,0,1,0,24,12,12.0136,12.0136,0,0,0,12,0Zm0,23.6364A11.6364,11.6364,0,1,1,23.6364,12,11.65,11.65,0,0,1,12,23.6364Z" style="fill:#00ad4d"/><path d="M16.6593,6.9944H9.67c-1.4664,0-2.64.6239-2.8163,1.456H5.5935a.2184.2184,0,0,0,0,.4368H6.854c.1732.8174,1.3089,1.4339,2.739,1.4554L10.99,11.46a.2184.2184,0,0,0,.1364.0479H14.363l-.2488,1.4929a.2184.2184,0,0,0,.2154.2543h.9464v.0728a.656.656,0,0,1-.6552.6552,1.092,1.092,0,1,0,0,2.184h2.0954a1.531,1.531,0,0,1-1.513,1.31H10.544a1.5306,1.5306,0,0,1-1.5288-1.5288V14.3982a1.0938,1.0938,0,0,0,.8736-1.07v-.5824a.2184.2184,0,0,0-.2184-.2184H9.5975v-.6552a.2184.2184,0,0,0-.4368,0v.6552h-.728v-.6552a.2184.2184,0,0,0-.4368,0v.6552H7.9231a.2184.2184,0,0,0-.2184.2184v.5824a1.0939,1.0939,0,0,0,.8736,1.07V15.949a1.9679,1.9679,0,0,0,1.9656,1.9656h4.6593a1.9682,1.9682,0,0,0,1.9532-1.7472h1.25a.2184.2184,0,0,0,.2184-.2184V8.96A1.9679,1.9679,0,0,0,16.6593,6.9944ZM7.9959,9.5467c-.4465-.2262-.728-.5386-.728-.8778s.2815-.6517.728-.8778Zm1.456.3542a4.0443,4.0443,0,0,1-1.0192-.1775V7.6143a4.0457,4.0457,0,0,1,1.0192-.1775Zm-1.31,3.4272v-.364h1.31v.364a.6552.6552,0,1,1-1.31,0Zm6.4459-.51.2184-1.31h.47v1.31Zm3.6007,2.9121H14.6209a.6552.6552,0,1,1,0-1.31,1.0932,1.0932,0,0,0,1.092-1.092V11.29a.2184.2184,0,0,0-.2184-.2184H11.203L9.8887,10.02V7.4312h6.7706A1.5306,1.5306,0,0,1,18.1881,8.96Z" style="fill:#00ad4d"/><path d="M13.456,9.9065H12a.2184.2184,0,0,0,0,.4368h1.456a.2184.2184,0,1,0,0-.4368Z" style="fill:#00ad4d"/><path d="M13.456,9.0329H12A.2184.2184,0,1,0,12,9.47h1.456a.2184.2184,0,1,0,0-.4368Z" style="fill:#00ad4d"/><path d="M13.456,8.1592H12a.2184.2184,0,0,0,0,.4368h1.456a.2184.2184,0,1,0,0-.4368Z" style="fill:#00ad4d"/></svg>