<svg id="Слой_1" data-name="Слой 1" xmlns="http://www.w3.org/2000/svg" viewBox="0 0 24 24"><title>Монтажная область 1 копия 19</title><path d="M10.8907,9.4587a1.5528,1.5528,0,1,0,1.5529,1.5529A1.5546,1.5546,0,0,0,10.8907,9.4587Zm0,2.9189a1.3661,1.3661,0,1,1,1.3661-1.366A1.3676,1.3676,0,0,1,10.8907,12.3776Z" style="fill:#00ad4d"/><path d="M20.0294,15.2108a.4055.4055,0,0,0-.1238-.2917l-.0727-.071.077-.0664a2.7475,2.7475,0,1,0-3.5848,0l.077.0665-.0728.071a.4031.4031,0,0,0-.0174.5634l.0563.0626-.0564.0625a.4.4,0,0,0,0,.5433l.0563.0626-.0563.0625a.4033.4033,0,0,0,.1659.6542l.062.0222v1.2664a.0733.0733,0,0,0,.022.0518l.066.066,0,0,1.438,1.438a.0755.0755,0,0,0,.1043,0L19.6733,18.27a.073.073,0,0,0,.0219-.0518V16.9523l.062-.0222a.4033.4033,0,0,0,.1659-.6543l-.0563-.0625.0563-.0626a.4.4,0,0,0,0-.5433l-.0564-.0626.0564-.0626A.4057.4057,0,0,0,20.0294,15.2108ZM15.5174,12.704a2.6,2.6,0,1,1,4.1564,2.08l-.0249.0187h-.9564V13.5741l.6188-.5158a1.0625,1.0625,0,0,0,.3838-.819.7713.7713,0,0,0-.7422-.7786.7179.7179,0,0,0-.3706.1034l-.0471.0279-.0473-.0275a.7412.7412,0,0,0-.7409,0l-.0473.0275-.0471-.0279a.7194.7194,0,0,0-.3708-.1034.7713.7713,0,0,0-.7422.7786,1.0635,1.0635,0,0,0,.3838.8192l.6189.5156v1.2287h-.9563l-.0249-.0187A2.6137,2.6137,0,0,1,15.5174,12.704Zm2.1459.779-.6454-.5379a.9167.9167,0,0,1-.3307-.706.63.63,0,0,1,.5947-.6312.5758.5758,0,0,1,.1811.0293l.12.04L17.51,11.78l-.0074.0128a.6892.6892,0,0,0-.0424.0709l-.0069.0124a.7015.7015,0,0,0-.04.0964l-.0075.0258a.7469.7469,0,0,0-.0177.0745l-.0049.0286a.7585.7585,0,0,0-.0078.1012.7372.7372,0,0,0,.2781.5752.0648.0648,0,0,0,.0925,0,.7374.7374,0,0,0,.2782-.5754.7475.7475,0,0,0-.0079-.1017l-.0044-.0255a.6981.6981,0,0,0-.0184-.0779l-.0071-.0253a.7161.7161,0,0,0-.0374-.0918L17.94,11.864a.7217.7217,0,0,0-.0429-.0714l-.08-.1165.12-.0386a.5812.5812,0,0,1,.3626,0l.1191.0394-.072.1028-.0075.0127a.7876.7876,0,0,0-.0434.0724l-.0057.01a.6786.6786,0,0,0-.04.0971l-.0072.0251c-.0073.0249-.0132.05-.0181.0759l-.0047.0275a.6917.6917,0,0,0-.0084.102.7372.7372,0,0,0,.2781.5752.0648.0648,0,0,0,.0925,0,.7374.7374,0,0,0,.2782-.5754.7475.7475,0,0,0-.0079-.1017l-.0044-.0255a.6933.6933,0,0,0-.0183-.0776l-.0069-.024a.7207.7207,0,0,0-.0378-.0936l-.0089-.016a.7846.7846,0,0,0-.0429-.0718l-.0078-.0128-.0557-.0989.103-.0436a.5758.5758,0,0,1,.1811-.0293.63.63,0,0,1,.5948.6312.9162.9162,0,0,1-.3309.706l-.6452.5379a.0732.0732,0,0,0-.0266.0566v1.2631H17.69V13.54A.0734.0734,0,0,0,17.6633,13.483ZM17.5864,11.94a.4368.4368,0,0,1,.0276-.0448l.0856-.13.0857.13a.4179.4179,0,0,1,.0288.0471l.0043.0077a.57.57,0,0,1,.0387.1088l.0052.0222a.5934.5934,0,0,1,.0142.122.58.58,0,0,1-.0129.1164l-.0067.0285a.5865.5865,0,0,1-.0384.1078l-.0059.0109a.4037.4037,0,0,1-.0273.0442l-.0857.13-.0856-.13a.4418.4418,0,0,1-.0287-.0469l-.0053-.01a.586.586,0,0,1-.0378-.1069l-.0059-.0256a.5835.5835,0,0,1-.0135-.1186.5735.5735,0,0,1,.0131-.1166l.0065-.0283a.5794.5794,0,0,1,.0384-.1077Zm.8349.0011a.4517.4517,0,0,1,.0283-.0459l.0856-.13.0857.13a.4179.4179,0,0,1,.0288.0471l.0043.0077a.57.57,0,0,1,.0387.1088l.0052.0222a.5934.5934,0,0,1,.0142.122.58.58,0,0,1-.0129.1164l-.0067.0285a.5865.5865,0,0,1-.0384.1078l-.0059.0109a.4037.4037,0,0,1-.0273.0442l-.0857.13-.0856-.13a.4418.4418,0,0,1-.0287-.0469l-.0053-.01a.586.586,0,0,1-.0378-.1069l-.0059-.0256a.5835.5835,0,0,1-.0135-.1186.5735.5735,0,0,1,.0131-.1166l.0065-.0283a.5794.5794,0,0,1,.0384-.1077Zm-.3039,7.6777-.49-.49h.9809Zm.6379-.6379H17.48l-.75-.7505.3856-.2569.46.307a.0741.0741,0,0,0,.0818,0l.46-.307.46.307a.0741.0741,0,0,0,.0819,0l.46-.307.3855.2572Zm.7924-.9-.3867-.2577a.0735.0735,0,0,0-.0816,0l-.4607.3071-.46-.307a.0733.0733,0,0,0-.0817,0l-.4605.307-.46-.307a.0733.0733,0,0,0-.0818,0l-.3868.2577V16.9555h2.8606Zm.3341-1.5333a.2608.2608,0,0,1-.26.2605h-3.008a.2605.2605,0,0,1,0-.521h3.008A.2607.2607,0,0,1,19.8819,16.5476Zm0-.6685a.2608.2608,0,0,1-.26.2605h-3.008a.2605.2605,0,0,1,0-.521h3.008A.2607.2607,0,0,1,19.8819,15.8791Zm-.26-.4079h-3.008a.2605.2605,0,0,1,0-.521l3.0191.0005a.26.26,0,0,1-.011.52Z" style="fill:#00ad4d"/><path d="M7.4077,2.6724h16.029a.3739.3739,0,0,0,.3735-.3735V.4546a.3739.3739,0,0,0-.3735-.3735H7.4077a.3739.3739,0,0,0-.3735.3735V2.2989A.3739.3739,0,0,0,7.4077,2.6724ZM7.2209.4546A.187.187,0,0,1,7.4077.2678h16.029a.187.187,0,0,1,.1868.1868V2.2989a.187.187,0,0,1-.1868.1868H21.99V1.4118h-.1868V2.4857H20.5349V1.4118h-.1868V2.4857H19.08V1.4118h-.1868V2.4857H17.6244V1.4118h-.1868V2.4857H16.1691V1.4118h-.1868V2.4857H14.679V1.4118h-.1868V2.4857H13.2238V1.4118H13.037V2.4857H11.7685V1.4118h-.1868V2.4857H10.3133V1.4118h-.1868V2.4857H8.8581V1.4118H8.6713V2.4857H7.4077a.187.187,0,0,1-.1868-.1868Z" style="fill:#80c243"/><path d="M11.5995,8.0175a.8231.8231,0,1,0,.8231-.8231A.8241.8241,0,0,0,11.5995,8.0175Zm1.46,0a.6364.6364,0,1,1-.6364-.6364A.6371.6371,0,0,1,13.059,8.0175Z" style="fill:#80c243"/><path d="M8.72,12.5086a.8231.8231,0,1,0-.823.8231A.824.824,0,0,0,8.72,12.5086Zm-.823.6364a.6364.6364,0,1,1,.6363-.6364A.6371.6371,0,0,1,7.8967,13.145Z" style="fill:#80c243"/><path d="M8.5813,7.7524a.8231.8231,0,1,0,.8231.8231A.8241.8241,0,0,0,8.5813,7.7524Zm0,1.46a.6364.6364,0,1,1,.6364-.6364A.6371.6371,0,0,1,8.5813,9.2119Z" style="fill:#80c243"/><path d="M19.5078,8.0073q-.0912,0-.1807-.0059l-.0122.1864c.0644.0042.1292.0063.1929.0063Z" style="fill:#80c243"/><path d="M17.5944,7.1925a2.4346,2.4346,0,0,1-.2425-.3058l-.1552.1038a2.6065,2.6065,0,0,0,.2611.3293Z" style="fill:#80c243"/><path d="M18.2081,7.6725a2.562,2.562,0,0,1-.3258-.2163l-.1149.1474a2.772,2.772,0,0,0,.35.232Z" style="fill:#80c243"/><path d="M18.9387,7.9474a2.6679,2.6679,0,0,1-.3757-.11l-.0657.1749a2.8584,2.8584,0,0,0,.4022.1178Z" style="fill:#80c243"/><path d="M16.9928,6.6226l.17-.0764a2.2921,2.2921,0,0,1-.1286-.3672l-.1809.0463A2.47,2.47,0,0,0,16.9928,6.6226Z" style="fill:#80c243"/><path d="M8.3344,15.6l.0124-.1864c-.0629-.0042-.1279-.0063-.193-.0063v.1868Q8.2448,15.594,8.3344,15.6Z" style="fill:#80c243"/><path d="M10.4984,17.055a2.2921,2.2921,0,0,1,.1286.3672l.1809-.0463a2.47,2.47,0,0,0-.1392-.3973Z" style="fill:#80c243"/><path d="M9.7793,16.145l.1149-.1474a2.772,2.772,0,0,0-.35-.232l-.0912.1631A2.562,2.562,0,0,1,9.7793,16.145Z" style="fill:#80c243"/><path d="M8.7229,15.6539a2.6679,2.6679,0,0,1,.3757.11l.0657-.1749a2.8584,2.8584,0,0,0-.4022-.1178Z" style="fill:#80c243"/><path d="M10.31,16.7144l.1552-.1038a2.6065,2.6065,0,0,0-.2611-.3293l-.1366.1273A2.4346,2.4346,0,0,1,10.31,16.7144Z" style="fill:#80c243"/><path d="M10.8848,17.9866c0-.0646-.0026-.13-.0076-.194l-.1862.0146c.0047.0594.007.12.007.1794Z" style="fill:#80c243"/><path d="M4.3706,4.0864V3.925a.5146.5146,0,0,0-.0067-.0736l-.0012-.0083c-.002-.0281-.0069-.0553-.01-.0832-.0046-.0422-.0081-.0847-.015-.1261C4.333,3.6055,4.3255,3.5783,4.32,3.55c-.0084-.04-.0157-.081-.0264-.12-.0077-.0284-.018-.0556-.0268-.0836-.0118-.0376-.0225-.0758-.0362-.1125-.0109-.0291-.0245-.0569-.0366-.0854-.0145-.0341-.0277-.0689-.0439-.1021-.0146-.03-.0319-.0586-.0479-.0879s-.0315-.0609-.0492-.09c-.0188-.0309-.04-.06-.06-.09-.0175-.0258-.0336-.0525-.0521-.0775-.023-.0311-.0486-.06-.0732-.09-.0181-.0219-.0349-.0448-.0538-.066-.0276-.0309-.0575-.0594-.0867-.0887-.0181-.0181-.035-.0374-.0537-.0549-.0323-.03-.0668-.0578-.1009-.086-.0176-.0145-.034-.03-.052-.0443-.0349-.0271-.0718-.0515-.1083-.0765-.0189-.0129-.0368-.0272-.0561-.04-.04-.0255-.0817-.0481-.1233-.0711-.0174-.01-.0338-.0205-.0515-.03-.0423-.0218-.0862-.0406-.13-.06-.0183-.008-.0358-.0174-.0543-.0249-.0435-.0175-.0885-.0319-.1332-.0466-.02-.0066-.0392-.0148-.0595-.0208-.05-.0148-.101-.0262-.1522-.0375-.0161-.0035-.0316-.0086-.0479-.0118-.0551-.0108-.1113-.018-.1676-.0246-.0131-.0015-.0257-.0044-.0389-.0057q-.1047-.01-.2118-.01A2.1915,2.1915,0,0,0,.0079,3.8364.6178.6178,0,0,0,0,3.925v17.73l.0012.03c0,.0164-.0012.0326-.0012.0491,0,.0627.0033.1246.0085.1859l.002.0264c.0053.0547.013.1087.0223.1622l.0088.049q.0138.07.0319.138c.0064.0243.0134.0483.0206.0723.0082.027.0171.0536.0263.08q.0227.0662.0494.13l.0063.0145a2.1729,2.1729,0,0,0,1.2209,1.1787l.0471.0181c.0265.0095.053.0186.08.0271q.0653.0208.1323.0374l.0509.0118c.053.0119.1066.0221.1609.03l.01.0019.011.0008a2.1936,2.1936,0,0,0,.2817.02l.0049,0H24V4.0864ZM.1868,3.925a.438.438,0,0,1,.0061-.0624l.0014-.0115a1.9963,1.9963,0,0,1,3.9831.0145l.0017.0123a.3344.3344,0,0,1,.0047.0471V20.85l-.0122-.0252q-.0172-.0373-.0356-.0739a2.1727,2.1727,0,0,0-1.3783-1.1256l-.0429-.0114c-.0247-.0061-.0494-.0119-.0743-.0172-.0319-.0068-.064-.0127-.0963-.0181L2.4858,19.57q-.0556-.0077-.112-.0125l-.0429-.0033c-.0482-.0032-.0967-.0054-.1457-.0054s-.0975.0022-.1457.0054l-.0429.0033q-.0564.0048-.112.0125l-.0584.0088c-.0323.0054-.0645.0113-.0963.018-.025.0053-.05.0111-.0744.0172l-.0428.0113A2.1725,2.1725,0,0,0,.2346,20.75q-.0186.0368-.0359.0744l-.012.0248ZM.2323,22.1543l-.0023-.01c-.0125-.06-.0219-.1206-.029-.1822l-.0021-.0151c-.007-.0658-.011-.1326-.0114-.2l.0032-.0885v0h0q.0038-.1009.0171-.1989l0-.0013c.0085-.0626.02-.124.0343-.1845l.0065-.0252q.019-.0769.0437-.1513c.0069-.02.0147-.0406.0223-.0607.0134-.0363.0273-.0724.0427-.1077s.0317-.0678.0487-.101c.01-.02.02-.04.0308-.06q.0394-.071.0842-.1385l.01-.0155a2,2,0,0,1,1.4384-.8664l.0124-.0018a2.0125,2.0125,0,0,1,.4068,0l.0124.0018a2,2,0,0,1,1.4385.8664l.01.0155q.0449.0674.0842.1385c.0108.02.0206.04.0308.06.017.0333.0336.0668.0488.1011s.0293.0713.0426.1076c.0076.02.0154.04.0223.0609q.0247.0743.0436.1511l.0065.0253c.0141.06.0257.1219.0343.1845l0,.0013q.0133.0979.0171.1989l0,.0036c.0008.024.0036.0475.0036.0717a1.9981,1.9981,0,0,1-3.9515.4206Zm23.5809,1.5779H3.0676A2.1881,2.1881,0,0,0,4.37,21.7484h0V4.2732H23.8132Z" style="fill:#80c243"/><path d="M6.0692,22.3907H22.0983a.3739.3739,0,0,0,.3735-.3735V5.9882a.3739.3739,0,0,0-.3735-.3735H19.7175V7.5988h.1868V5.8014h2.194a.187.187,0,0,1,.1868.1868v16.029a.187.187,0,0,1-.1868.1868H14.2255V15.3211h2.1109v-.1868H14.0387v2.91H10.943v.1868h3.0957V22.204H6.0692a.187.187,0,0,1-.1868-.1868V18.2315H7.944V15.6521H7.7573v2.3926H5.8824V5.9882a.187.187,0,0,1,.1868-.1868H16.87V5.6147H6.0692a.3739.3739,0,0,0-.3735.3735v16.029A.3739.3739,0,0,0,6.0692,22.3907Z" style="fill:#80c243"/></svg>