<svg id="Слой_1" data-name="Слой 1" xmlns="http://www.w3.org/2000/svg" viewBox="0 0 24 24"><title>Монтажная область 1 копия 21</title><path d="M18.3824,16.9107a2.5053,2.5053,0,1,0,2.5054,2.5054A2.5082,2.5082,0,0,0,18.3824,16.9107Zm0,4.7618a2.2565,2.2565,0,1,1,2.2566-2.2565A2.2591,2.2591,0,0,1,18.3824,21.6726Z" style="fill:#80c243"/><path d="M5.9249,16.9107A2.5053,2.5053,0,1,0,8.43,19.4161,2.5082,2.5082,0,0,0,5.9249,16.9107Zm0,4.7618a2.2565,2.2565,0,1,1,2.2567-2.2565A2.2591,2.2591,0,0,1,5.9249,21.6726Z" style="fill:#80c243"/><path d="M23.9634,13.4548a1.6662,1.6662,0,0,0-.4543-.8312L19,8.162a1.6453,1.6453,0,0,0-1.1641-.4785H15.6849V6.9547a1.2737,1.2737,0,0,0-1.2722-1.2724H1.2724A1.2738,1.2738,0,0,0,0,6.9547v10.86a1.2738,1.2738,0,0,0,1.2724,1.2722H2.9182l.0155-.1064a3.0233,3.0233,0,0,1,5.9833,0l.0155.1064h6.4408l.0155-.1064a3.0255,3.0255,0,0,1,5.9872,0l.0155.1064h1.3359A1.2738,1.2738,0,0,0,24,17.8143v-4.36Zm-.2121,4.36a1.0247,1.0247,0,0,1-1.0236,1.0235H21.6051a3.2743,3.2743,0,0,0-6.4449,0H9.1459a3.272,3.272,0,0,0-6.441,0H1.2724A1.0247,1.0247,0,0,1,.2488,17.8143V6.9547A1.0248,1.0248,0,0,1,1.2724,5.9311h13.14a1.0246,1.0246,0,0,1,1.0234,1.0236v.9777h2.3995a1.3984,1.3984,0,0,1,.9892.4065L23.3341,12.8a1.415,1.415,0,0,1,.4024.7967l.0148.1017Z" style="fill:#80c243"/><path d="M18.13,9.0885a.32.32,0,0,0-.2088-.0809h-.83a.3046.3046,0,0,0-.3043.3043V12.683a.3045.3045,0,0,0,.3043.3042h4.3661a.3039.3039,0,0,0,.2083-.5244Zm3.3774,3.6148a.0529.0529,0,0,1-.05.0351H17.0912a.0555.0555,0,0,1-.0555-.0554V9.3118a.0556.0556,0,0,1,.0555-.0555h.83a.0679.0679,0,0,1,.04.0153l3.5326,3.3719A.0518.0518,0,0,1,21.5077,12.7033Z" style="fill:#80c243"/><polygon points="13.022 2.797 13.327 2.8 13.69 2.445 13.334 2.082 13.029 2.079 13.28 2.335 0.279 2.203 0.277 2.415 13.278 2.547 13.022 2.797" style="fill:#00ad4d"/><polygon points="15.645 3.718 15.34 3.715 15.591 3.971 0.279 3.839 0.277 4.051 15.59 4.183 15.334 4.434 15.639 4.437 16.002 4.08 15.645 3.718" style="fill:#00ad4d"/><path d="M7.8017,7.4824a3.1615,3.1615,0,0,0-3.1563,3.1153l0,3.8413h6.3136V10.5977h0A3.1616,3.1616,0,0,0,7.8017,7.4824Zm2.945,6.7447h-5.89V10.6412a2.9448,2.9448,0,1,1,5.89,0Z" style="fill:#00ad4d"/><path d="M7.8017,8.3553a2.453,2.453,0,0,0-2.4495,2.4338l-.0057,2.8657h4.91l-.0053-2.8657A2.4532,2.4532,0,0,0,7.8017,8.3553Zm-.0652,5.0875H5.5585V11.0011h2.178Zm2.3083,0H7.9485V11.0011h2.0963ZM5.5642,10.7891a2.2377,2.2377,0,0,1,4.4753,0Z" style="fill:#00ad4d"/></svg>