<svg id="Слой_1" data-name="Слой 1" xmlns="http://www.w3.org/2000/svg" viewBox="0 0 24 24"><title>Монтажная область 1 копия</title><path d="M12,0A12,12,0,1,0,24,12,12.0136,12.0136,0,0,0,12,0Zm0,23.6364A11.6364,11.6364,0,1,1,23.6364,12,11.65,11.65,0,0,1,12,23.6364Z" style="fill:#00ad4d"/><path d="M9.914,14.5032H9.08a.2087.2087,0,0,1-.2086-.2086v-.4172a.2087.2087,0,0,1,.2086-.2086h1.2516v-.4172H9.7054V13.043H9.2882v.2086H9.08a.6266.6266,0,0,0-.6258.6258v.4172A.6266.6266,0,0,0,9.08,14.92H9.914a.2087.2087,0,0,1,.2086.2086v.4172a.2087.2087,0,0,1-.2086.2086H8.6624v.4172h.6258v.2086h.4172V16.172H9.914a.6266.6266,0,0,0,.6258-.6258V15.129A.6266.6266,0,0,0,9.914,14.5032Z" style="fill:#00ad4d"/><path d="M9.4968,12.2086A2.5032,2.5032,0,1,0,12,14.7118,2.506,2.506,0,0,0,9.4968,12.2086Zm0,4.5893a2.086,2.086,0,1,1,2.086-2.086A2.0884,2.0884,0,0,1,9.4968,16.7979Z" style="fill:#00ad4d"/><path d="M16.1721,12a1.6688,1.6688,0,1,0,1.6688,1.6688A1.6708,1.6708,0,0,0,16.1721,12Zm0,2.92a1.2516,1.2516,0,1,1,1.2516-1.2516A1.2529,1.2529,0,0,1,16.1721,14.92Z" style="fill:#00ad4d"/><path d="M18.6753,13.6688a2.5032,2.5032,0,1,0-3.884,2.086h-.7053a.2084.2084,0,0,0-.2086.2086v2.5032a.2084.2084,0,0,0,.2086.2086h4.1721a.2084.2084,0,0,0,.2086-.2086V15.9634a.2084.2084,0,0,0-.2086-.2086h-.7053A2.502,2.502,0,0,0,18.6753,13.6688ZM18.05,18.2581H14.2947v-.8344h.4172v.4172h.4172v-.4172h.4172v.4172h.4172v-.4172h.4172v.4172h.4172v-.4172h.4172v.4172h.4172v-.4172H18.05Zm-.4172-1.6688V16.172H18.05v.8344H14.2947V16.172h.4172v.4172h.4172V16.172h.4172v.4172h.4172V16.172h.4172v.4172h.4172V16.172h.4172v.4172Zm-1.46-.8344a2.086,2.086,0,1,1,2.086-2.086A2.0884,2.0884,0,0,1,16.1721,15.7548Z" style="fill:#00ad4d"/><path d="M15.9635,8.8709a.2084.2084,0,0,0,.2086-.2086,2.086,2.086,0,1,0-3.5611,1.475.2085.2085,0,0,0,.295,0l1.2664-1.2664ZM14.2947,7.0064A1.6727,1.6727,0,0,1,15.742,8.4537H14.2947Zm-.4172,1.5693-1.11,1.11a1.6691,1.6691,0,0,1,1.11-2.6793Z" style="fill:#00ad4d"/><path d="M16.5893,9.4967H14.7983l-.3561-.3561-.295.295.4172.4172a.2077.2077,0,0,0,.1475.0611h1.8774Z" style="fill:#00ad4d"/><rect x="14.5033" y="10.3311" width="2.086" height="0.4172" style="fill:#00ad4d"/><rect x="13.2517" y="10.3311" width="0.8344" height="0.4172" style="fill:#00ad4d"/><rect x="16.1721" y="6.1591" width="0.8344" height="0.4172" style="fill:#00ad4d"/><path d="M11.5828,10.1225V9.7053a.4176.4176,0,0,0-.4172-.4172V8.8709a.4167.4167,0,0,0-.2793-.392l.7059-2.0433a.2086.2086,0,0,0-.1971-.2766h-1.69V5.7418h7.7183v5.1651a2.4777,2.4777,0,0,1,.4172.2426V5.5333a.2084.2084,0,0,0-.2086-.2086H9.4968a.2084.2084,0,0,0-.2086.2086v.6258h-1.69a.2087.2087,0,0,0-.1971.2766l.7059,2.0433a.4166.4166,0,0,0-.2793.392v.4172a.4177.4177,0,0,0-.4172.4172v.4172a.4134.4134,0,0,0,.0939.26,7.5719,7.5719,0,0,0-2.18,4.9547c0,2.09,1.56,3.3377,4.1721,3.3377s4.1721-1.2477,4.1721-3.3377a7.5711,7.5711,0,0,0-2.18-4.9547A.413.413,0,0,0,11.5828,10.1225ZM7.8914,6.5763h3.2108l-.6486,1.8774H8.54Zm2.8574,2.7118H8.2452V8.8709h2.5032ZM7.828,9.7053h3.3376l0,.4172H7.828Zm5.4237,5.6323c0,.8781-.3659,2.92-3.7549,2.92s-3.7549-2.0424-3.7549-2.92a6.9921,6.9921,0,0,1,2.22-4.7979h3.07A6.9921,6.9921,0,0,1,13.2517,15.3376Z" style="fill:#00ad4d"/></svg>