<svg id="Слой_1" data-name="Слой 1" xmlns="http://www.w3.org/2000/svg" viewBox="0 0 24 24"><title>Монтажная область 1 копия 7</title><path d="M12,0A12,12,0,1,0,24,12,12.0136,12.0136,0,0,0,12,0Zm0,23.6364A11.6364,11.6364,0,1,1,23.6364,12,11.65,11.65,0,0,1,12,23.6364Z" style="fill:#00ad4d"/><path d="M17.0354,6.4759a.2183.2183,0,0,0-.2184.2184V17.46a.2184.2184,0,0,0,.4368,0V6.6943A.2183.2183,0,0,0,17.0354,6.4759Z" style="fill:#00ad4d"/><path d="M18.6376,7.3715a.2183.2183,0,0,0-.2184.2184v9.87a.2184.2184,0,1,0,.4368,0V7.59A.2183.2183,0,0,0,18.6376,7.3715Z" style="fill:#00ad4d"/><path d="M20.2391,8.7084a.2183.2183,0,0,0-.2184.2184V17.46a.2184.2184,0,0,0,.4368,0V8.9268A.2183.2183,0,0,0,20.2391,8.7084Z" style="fill:#00ad4d"/><path d="M4.3035,16.7392H9.4309V7.0451H4.3035ZM4.74,7.482H8.9941v8.82H4.74Z" style="fill:#00ad4d"/><path d="M6.61,10.771a.2182.2182,0,0,0,.1209-.0367l1.15-.7663a.2184.2184,0,1,0-.2423-.3634l-1.15.7663a.2184.2184,0,0,0,.1214.4Z" style="fill:#00ad4d"/><path d="M8.0631,10.8455l-2.63,1.7287a.2184.2184,0,1,0,.24.3651l2.63-1.7287a.2184.2184,0,1,0-.24-.3651Z" style="fill:#00ad4d"/><path d="M7.2641,13.05l-1.15.7665a.2184.2184,0,0,0,.2423.3634l1.15-.7666a.2184.2184,0,1,0-.2423-.3634Z" style="fill:#00ad4d"/><path d="M9.9095,16.7392h5.1272V7.0451H9.9095Zm.4368-9.2572H14.6v8.82H10.3463Z" style="fill:#00ad4d"/><path d="M15.3229,6.3215H4.0061a.4643.4643,0,0,0-.4637.4639V16.999a.4643.4643,0,0,0,.4637.4639H15.3229a.4645.4645,0,0,0,.4639-.4639V6.7854A.4645.4645,0,0,0,15.3229,6.3215ZM15.35,16.999a.0271.0271,0,0,1-.0271.0271H4.0061a.0271.0271,0,0,1-.0269-.0271V6.7854a.0271.0271,0,0,1,.0269-.0271H15.3229a.0271.0271,0,0,1,.0271.0271Z" style="fill:#00ad4d"/><path d="M12.2162,10.771a.2183.2183,0,0,0,.1209-.0367l1.1494-.7663a.2184.2184,0,1,0-.2423-.3634l-1.1494.7663a.2184.2184,0,0,0,.1214.4Z" style="fill:#00ad4d"/><path d="M13.67,10.8455l-2.6311,1.7287a.2184.2184,0,1,0,.24.3651l2.6311-1.7287a.2184.2184,0,0,0-.24-.3651Z" style="fill:#00ad4d"/><path d="M12.87,13.05l-1.15.7665a.2184.2184,0,0,0,.2423.3634l1.15-.7666A.2184.2184,0,1,0,12.87,13.05Z" style="fill:#00ad4d"/></svg>