<svg id="Layer_1" data-name="Layer 1" xmlns="http://www.w3.org/2000/svg" width="52px" height="52px" viewBox="0 0 52 52"><defs><style>.cls-1{fill:none;stroke:#8c8c8c;stroke-miterlimit:10;}.cls-2{isolation:isolate;}.cls-3{fill:#ff1a44;}</style></defs><title>icon-feat-44</title><rect class="cls-1" x="0.5" y="0.5" width="50" height="50"/><g class="cls-2"><path class="cls-3" d="M18.06,26.72a6.21,6.21,0,0,1-3.89-1.19,3.73,3.73,0,0,1-1.55-3.1,3.59,3.59,0,0,1,1.15-2.67,6.39,6.39,0,0,1,2.83-1.57A6.33,6.33,0,0,1,14,16.79a3.18,3.18,0,0,1-1.07-2.46,3.49,3.49,0,0,1,1.53-3.05,6.22,6.22,0,0,1,3.64-1.07,6.25,6.25,0,0,1,3.62,1.07,3.48,3.48,0,0,1,1.56,3.05,3.18,3.18,0,0,1-1.07,2.46,6.34,6.34,0,0,1-2.65,1.4,6.36,6.36,0,0,1,2.82,1.56,3.6,3.6,0,0,1,1.14,2.68,3.73,3.73,0,0,1-1.55,3.1A6.17,6.17,0,0,1,18.06,26.72Zm0-1.24a4.72,4.72,0,0,0,2.84-.87,2.74,2.74,0,0,0,.73-3.82,3.48,3.48,0,0,0-1.2-1.09,9.42,9.42,0,0,0-1.32-.61,4.63,4.63,0,0,0-1.05-.26,4.82,4.82,0,0,0-1.07.26,8.62,8.62,0,0,0-1.32.61,3.51,3.51,0,0,0-1.19,1.09,2.77,2.77,0,0,0,.71,3.83A4.73,4.73,0,0,0,18.06,25.47Zm0-7.86a6.46,6.46,0,0,0,1-.28,11.3,11.3,0,0,0,1.2-.53,3,3,0,0,0,1.13-1,2.33,2.33,0,0,0,.43-1.38,2.62,2.62,0,0,0-1.08-2.2,4.37,4.37,0,0,0-2.71-.81,4.36,4.36,0,0,0-2.71.81,2.62,2.62,0,0,0-1.08,2.2,2.33,2.33,0,0,0,.43,1.38,3.08,3.08,0,0,0,1.13,1,8.5,8.5,0,0,0,1.2.53A7.36,7.36,0,0,0,18.06,17.61Z"/><path class="cls-3" d="M34.91,26a5,5,0,0,1-2.71.74A5.08,5.08,0,0,1,29.47,26a5.14,5.14,0,0,1-1.86-2,11,11,0,0,1-1-2.64,12.82,12.82,0,0,1,0-5.82,10.78,10.78,0,0,1,1-2.62,5.2,5.2,0,0,1,1.85-2,5.06,5.06,0,0,1,2.74-.74,5,5,0,0,1,2.71.74,5.33,5.33,0,0,1,1.85,2,10.54,10.54,0,0,1,1,2.62,12.77,12.77,0,0,1,0,5.81,10.72,10.72,0,0,1-1,2.65A5.3,5.3,0,0,1,34.91,26Zm-2.71-.5a3.59,3.59,0,0,0,2.1-.62,4.13,4.13,0,0,0,1.39-1.67A9.39,9.39,0,0,0,36.4,21a13.89,13.89,0,0,0,0-5,9.37,9.37,0,0,0-.72-2.23,4,4,0,0,0-1.39-1.65,3.64,3.64,0,0,0-2.1-.61,3.68,3.68,0,0,0-2.12.61,4,4,0,0,0-1.39,1.65A9.71,9.71,0,0,0,28,15.95a13.22,13.22,0,0,0,0,5,9.73,9.73,0,0,0,.73,2.23,4.11,4.11,0,0,0,1.39,1.67A3.63,3.63,0,0,0,32.2,25.47Z"/></g><g class="cls-2"><path class="cls-3" d="M13.7,39.92V39.2q.59,0,1-.77a8.62,8.62,0,0,0,.63-2.57L15.82,32h4.92v7.71h-.83v-7H16.57L16.14,36A8,8,0,0,1,15.28,39,1.79,1.79,0,0,1,13.7,39.92Z"/><path class="cls-3" d="M26.74,39.92A3.68,3.68,0,0,1,24,38.79a4,4,0,0,1-1.09-2.92A4.12,4.12,0,0,1,23.94,33a3.44,3.44,0,0,1,2.66-1.17A3.28,3.28,0,0,1,29.27,33a4.41,4.41,0,0,1,1,2.92v.22H23.79a3.35,3.35,0,0,0,.88,2.19,2.78,2.78,0,0,0,2.14.88,3.29,3.29,0,0,0,2.52-1.07l.43.54A4,4,0,0,1,26.74,39.92Zm2.65-4.44a3.25,3.25,0,0,0-.74-2,2.5,2.5,0,0,0-2.07-.91,2.46,2.46,0,0,0-2,.9,3.35,3.35,0,0,0-.79,2Z"/><path class="cls-3" d="M34.62,39.73h-.83v-7H31.52V32H36.9v.74H34.62Z"/></g></svg>
