<svg xmlns="http://www.w3.org/2000/svg" width="52" height="52" viewBox="0 0 52 52"><defs><style>.cls-1{fill:none;stroke:#9e9e9e;}.cls-1,.cls-2{stroke-miterlimit:10;}.cls-2{fill:#ff1a46;stroke:#ff1a46;stroke-width:0.5px;}</style></defs><title>icon-feat-8</title><path class="cls-1" d="M.5.5h50v50h-50z"/><path class="cls-2" d="M25.8 41.4h.2a3.6 3.6 0 1 0 0-7.2 2.26 2.26 0 0 1-2.3-2.3 2 2 0 0 1 .4-1.3 2.5 2.5 0 0 1 2.5-.9h.1a2.72 2.72 0 0 1 1.9 1.7 4.27 4.27 0 0 0 4 2.6 8.77 8.77 0 0 0 8.8-8.6v-.2a15.9 15.9 0 0 0-31.8-.1 15.62 15.62 0 0 0 4.5 11.3 16.27 16.27 0 0 0 11.7 5zm-.3-30.9a15 15 0 0 1 15 14.9 7.94 7.94 0 0 1-8 7.9 3.49 3.49 0 0 1-3.2-2.1 3.8 3.8 0 0 0-2.5-2.3h-.1a3.31 3.31 0 0 0-3.4 1.2 2.73 2.73 0 0 0-.5 1.8 3.12 3.12 0 0 0 3.1 3.1 2.8 2.8 0 1 1 0 5.6h-.2a15.2 15.2 0 0 1-11-4.7 14.88 14.88 0 0 1-4.3-10.7 15.2 15.2 0 0 1 15.1-14.7zM26.3 18.5a2.5 2.5 0 1 0-2.5-2.5 2.48 2.48 0 0 0 2.5 2.5zm0-4.1a1.6 1.6 0 1 1-1.6 1.6 1.58 1.58 0 0 1 1.6-1.6zM18.9 21.8a2.9 2.9 0 1 0-2.9-2.9 2.9 2.9 0 0 0 2.9 2.9zm0-5a2.1 2.1 0 1 1-2.1 2.1 2.11 2.11 0 0 1 2.1-2.1zM20.1 27.1a3.3 3.3 0 1 0-3.3 3.3 3.27 3.27 0 0 0 3.3-3.3zm-5.7 0a2.5 2.5 0 1 1 2.5 2.5 2.48 2.48 0 0 1-2.5-2.5zM32.5 21a2.1 2.1 0 1 0-2.1-2.1 2.05 2.05 0 0 0 2.1 2.1zm0-3.3a1.2 1.2 0 1 1-1.2 1.2 1.16 1.16 0 0 1 1.2-1.2z"/></svg>