<svg xmlns="http://www.w3.org/2000/svg" width="86" height="86" viewBox="0 0 86 86"><defs><style>.cls-1{fill:#f1f1f1;}.cls-2{fill:#ff1a46;}.cls-3{fill:#8d8d8d;}</style></defs><title>icon-antip-2</title><path class="cls-1" d="M0 0h86v86h-86z"/><path class="cls-2" d="M36.6 46.2a6.89 6.89 0 0 0 .3.8.66.66 0 0 0 .8.5.72.72 0 0 0 .5-.9 10.41 10.41 0 0 0-2.3-4.4 6 6 0 0 0-7.4-.8l-.2.1-.2.5a2.48 2.48 0 0 0-.1.9 4.72 4.72 0 0 0 4.9 4.6 4.37 4.37 0 0 0 3.7-1.3zm-7.1-3.2a.9.9 0 0 1 .1-.5 6 6 0 0 1 1.6-.5 2.31 2.31 0 1 0 4 1.6v-.1a5 5 0 0 1 .8 1.2l-.2.4a3.63 3.63 0 0 1-2.8 1.2 3.38 3.38 0 0 1-3.5-3.3zM57.6 41.6l-.2-.1a6 6 0 0 0-7.4.8 8.57 8.57 0 0 0-2 4.4.64.64 0 0 0 .6.8.76.76 0 0 0 .8-.6l.1-.6a5.2 5.2 0 0 0 3.5 1.3 4.79 4.79 0 0 0 4.9-4.6c0-.4-.1-.6-.1-.9zm-4.6 4.7a3.63 3.63 0 0 1-2.8-1.2l-.2-.3a5.67 5.67 0 0 1 .8-1.3v.2a2.3 2.3 0 1 0 4-1.6 5.27 5.27 0 0 1 1.5.5.9.9 0 0 1 .1.5 3.27 3.27 0 0 1-3.4 3.2zM54.6 55.7a.89.89 0 0 0-.8.5c-.4 1.2-1.7 3.8-6.2 3.3a4.66 4.66 0 0 1-3.9-2.8l-.1-.3v-1.4a.22.22 0 0 0 .2-.2l.9-1.6.1-.1 1.1-.4.1-.1a2.26 2.26 0 0 0 .2-2.1 1.13 1.13 0 0 0-1-.8l-1.7.3h-.8l-1.6-.2h-.1c-.5 0-.9.4-1.2 1s-.4 1.4.1 1.9l.1.1 1 .4h.1c.1 0 .1 0 .1.1l.8 1.4.1.2.3.2v1.6a4.85 4.85 0 0 1-3.9 2.8c-4.5.5-5.8-2.1-6.2-3.3a.75.75 0 0 0-.7-.5.78.78 0 0 0-.6.9 6.25 6.25 0 0 0 6.4 4.4 6.15 6.15 0 0 0 1.3-.1 6.31 6.31 0 0 0 4.5-2.6 5.72 5.72 0 0 0 4.5 2.6 6.15 6.15 0 0 0 1.3.1c4.5 0 5.9-2.9 6.4-4.4a1.06 1.06 0 0 0-.8-.9zm-11-3.1l-.4.7h-.3l-.4-.7a1.76 1.76 0 0 0-1-.9h-.5l.1-.4 1.4.2a2.44 2.44 0 0 0 1.2 0l1.4-.2v.4l-.5.2a1.53 1.53 0 0 0-1 .7zM61.2 34.2a.9.9 0 0 0 .5-.1c.5-.3.8-1 .7-2.3v-.1c0-.7 0-2.5-.2-4.7a2.77 2.77 0 0 0-.1-.9c-.1-1.8-.2-3.3-1.2-3.7s-1.6.5-1.9.7a33.27 33.27 0 0 0-3.6 4.6l-1 1.6a1.18 1.18 0 0 0-.1 1 1.34 1.34 0 0 0 .7.8c.7.4 1.4.9 1.4.9l.3.2 1.3-.2.5 1.1 2.2 1a.75.75 0 0 0 .5.1zm-2.3-3.9l-1.9.5a3.49 3.49 0 0 0-.9-.6.38.38 0 0 1-.1-.6l.7-1a25.64 25.64 0 0 1 3.4-4.4c.2-.2.3-.3.4-.3a8.26 8.26 0 0 1 .3 2.4 2.77 2.77 0 0 0 .1.9c.1 2.1.1 3.8.1 4.5v1l-1.4-.6zM29.8 32.4l.3-.2s.7-.5 1.4-.9a1.78 1.78 0 0 0 .7-.8 1.73 1.73 0 0 0-.1-1c-.3-.4-.7-1.1-1-1.6a33.27 33.27 0 0 0-3.6-4.6c-.3-.3-1.1-1.1-1.9-.7-1 .4-1.1 1.9-1.2 3.7a2.77 2.77 0 0 1-.1.9c-.2 2.2-.2 3.9-.2 4.7 0 1.3.2 2 .7 2.3a1.3 1.3 0 0 0 1 0l2.2-1 .5-1.1zm-2.2-2.1l-.7 1.8-1.4.6c0-.2-.1-.5-.1-.9 0-.7 0-2.4.2-4.6a2.77 2.77 0 0 1 .1-.9 8.26 8.26 0 0 1 .3-2.4 1.38 1.38 0 0 0 .4.3 25.64 25.64 0 0 1 3.4 4.4 5.58 5.58 0 0 1 .5.8.78.78 0 0 1-.2 1 5.92 5.92 0 0 0-.6.4zM69.8 43.8a19.07 19.07 0 0 0-4.6-9.5v-.2a40.32 40.32 0 0 0-1.2-12.1c-.3-1.1-.8-2.4-1.9-2.7s-2.6.5-4.8 2.4a38.39 38.39 0 0 0-4.4 4.7 37.85 37.85 0 0 0-9.7-1.4 40 40 0 0 0-9.9 1.5 32.85 32.85 0 0 0-4.5-4.7c-2.2-1.9-3.6-2.8-4.8-2.4s-1.6 1.6-1.9 2.7a40.15 40.15 0 0 0-1.2 11.6.55.55 0 0 1-.2.5 21.56 21.56 0 0 0-4.6 9.7c-1.4 7.1.5 13.1 5.5 17.4a20.76 20.76 0 0 0 9.7 4.4 21.05 21.05 0 0 0 2.5.2 35.29 35.29 0 0 0 3.6-.2l.3-.1a9.76 9.76 0 0 0 10.4 0c.1.1.2.1.4.2a32.08 32.08 0 0 0 3.6.2 10.15 10.15 0 0 0 2.5-.2 20.76 20.76 0 0 0 9.7-4.4c5-4.5 6.9-10.5 5.5-17.6zm-6.4 16.3a18.58 18.58 0 0 1-9 4 20.08 20.08 0 0 1-4.9 0 .62.62 0 0 0-.2-.7h-.1a.52.52 0 0 0-.8.1 8 8 0 0 1-5.3 2 7.17 7.17 0 0 1-5.4-2 .63.63 0 0 0-.9 0l-.1.1a.62.62 0 0 0-.2.7 26.73 26.73 0 0 1-4.9 0c-2.5-.5-6.2-1.5-9-4-4.6-4-6.3-9.4-5-16.1a20.84 20.84 0 0 1 4.5-9.3l.3-.6v-.2a41.2 41.2 0 0 1 1.1-11.6c.4-1.3.7-1.7 1-1.8.7-.2 2.6 1.4 3.5 2.1a50.4 50.4 0 0 1 5.9 6.6.78.78 0 0 0 1 .2.78.78 0 0 0 .2-1 9.68 9.68 0 0 1-.7-.9 38.5 38.5 0 0 1 8.9-1.3 38.37 38.37 0 0 1 8.7 1.2 9.68 9.68 0 0 1-.7.9.68.68 0 0 0 .2 1 .7.7 0 0 0 1-.2 50.4 50.4 0 0 1 5.9-6.6c.9-.8 2.7-2.3 3.5-2.1.2.1.6.4 1 1.8a37.82 37.82 0 0 1 1.1 11.6l-.1.8.1.2a17.44 17.44 0 0 1 4.4 9c1.3 6.7-.4 12.1-5 16.1z"/><path class="cls-3" d="M46.8 37.1a.59.59 0 0 0 .9-.3l.3-.6a.59.59 0 0 0-.3-.9.59.59 0 0 0-.9.3l-.3.6a.69.69 0 0 0 .3.9zM43 36.8a.68.68 0 0 0 .7-.7v-.6a.7.7 0 0 0-1.4 0v.6a.68.68 0 0 0 .7.7zM38.3 36.9a.69.69 0 0 0 .9.3.69.69 0 0 0 .3-.9l-.3-.6a.69.69 0 0 0-.9-.3.69.69 0 0 0-.3.9zM65.5 49l-1.8-.1a.68.68 0 0 0-.7.7.68.68 0 0 0 .7.7l1.8.1a.68.68 0 0 0 .7-.7.84.84 0 0 0-.7-.7zM65 52.9l-1.7-.5a.72.72 0 0 0-.9.5.72.72 0 0 0 .5.9l1.7.5a.72.72 0 0 0 .9-.5.68.68 0 0 0-.5-.9zM61.2 55.5a.72.72 0 1 0-.8 1.2l1.5 1a.72.72 0 1 0 .8-1.2zM22.4 50.5a.7.7 0 0 0 0-1.4l-1.8.1a.7.7 0 0 0 0 1.4zM23.6 53.1a.72.72 0 0 0-.9-.5l-1.7.5a.73.73 0 0 0 .4 1.4l1.7-.5a.81.81 0 0 0 .5-.9zM24.8 55.7l-1.5 1a.72.72 0 0 0 .8 1.2l1.5-1a.72.72 0 0 0-.8-1.2z"/></svg>