<svg id="Слой_1" data-name="Слой 1" xmlns="http://www.w3.org/2000/svg" width="52px" height="52px" viewBox="0 0 52 52"><defs><style>.cls-1{fill:none;stroke:#9e9e9e;stroke-miterlimit:10;}.cls-2{fill:#ff1a46;}</style></defs><title>icon-feat-5</title><rect class="cls-1" x="0.5" y="0.5" width="50" height="50"/><path class="cls-2" d="M39.77,15.71a.93.93,0,0,0,0-1.31,1,1,0,0,0-1.31,0L32.89,20l-.31-.61c-2.6-5-5.48-9.57-6-10.43a.93.93,0,0,0-1.57,0C23.9,10.6,14.56,25.44,14.56,31.19a11,11,0,0,0,1.32,5.26l.18.33-4.83,4.83a.93.93,0,0,0,0,1.31,1,1,0,0,0,1.31,0ZM25.33,11.87l.43-.7.43.7c1.09,1.79,3.22,5.37,5.15,9.16l.17.32L17.41,35.43l-.29-.69a9.26,9.26,0,0,1-.71-3.55C16.42,26.83,23.24,15.3,25.33,11.87Z"/><path class="cls-2" d="M37.52,32.72c0-1.77-.9-4.59-2.67-8.39l-1.4,1.4c1.47,3.21,2.21,5.56,2.21,7A9.32,9.32,0,0,1,19.8,39.37l-1.31,1.31a11.06,11.06,0,0,0,7.84,3.22A11.2,11.2,0,0,0,37.52,32.72Z"/></svg>
