<svg id="Layer_1" data-name="Layer 1" xmlns="http://www.w3.org/2000/svg" width="52px" height="52px" viewBox="0 0 51 51"><defs><style>.cls-1{fill:#a2a2a2;}.cls-2{fill:#ff1a46;}</style></defs><title>icon-cw-4</title><path class="cls-1" d="M51,51H0V0H51ZM1,50H50V1H1Z"/><path class="cls-2" d="M35.4,31.7h-.8c-.2-1.3-2.3-2.2-5.1-2.2a2.2,2.2,0,0,0-.8.1l3.9-4.9a.92.92,0,0,0,.1-1,1.05,1.05,0,0,0-.9-.5H24.3L27.3,8a1,1,0,0,0-.5-1.1,1,1,0,0,0-1.2.3L10.2,26.4a.92.92,0,0,0-.1,1,1.05,1.05,0,0,0,.9.5h7.5l-3,15.2a1,1,0,0,0,.5,1.1.6.6,0,0,0,.4.1.91.91,0,0,0,.8-.4l7.2-9v6.8c0,1.4,2.7,2,5.1,2,2.1,0,4.3-.4,4.9-1.4h1c.8,0,5.1-.1,5.1-1.5V34.2C40.5,32.8,38.3,31.7,35.4,31.7Zm-11.1.2-6.2,7.8,2.5-12.5a.78.78,0,0,0-.2-.8,1.27,1.27,0,0,0-.7-.4H13L24.8,11.2,22.3,23.7a.78.78,0,0,0,.2.8,1.27,1.27,0,0,0,.7.4h6.7l-4.2,5.3C24.8,30.7,24.3,31.3,24.3,31.9ZM33.7,38h0c-.1.4-1.6,1.2-4.3,1.2a4.87,4.87,0,0,1-1.2-.1.45.45,0,0,0-.1.9c.4,0,.8.1,1.3.1a11.37,11.37,0,0,0,4.3-.8v.6h0c-.2.3-1.2.8-3.2,1-.3,0-.4.2-.4.5a.46.46,0,0,0,.5.4h0a7.08,7.08,0,0,0,3.1-.8v.7c0,.3-1.5,1.1-4.2,1.1s-4.2-.8-4.2-1.1V41a8,8,0,0,0,3.8.8h0a.45.45,0,0,0,.1-.9,7.06,7.06,0,0,1-3.7-.9h-.1v-.7a6.89,6.89,0,0,0,.8.3h.1c.2,0,.4-.1.4-.3s-.1-.5-.3-.6c-.7-.2-1-.4-1.1-.6h0v-.7a8.24,8.24,0,0,0,1.9.6h.1a.66.66,0,0,0,.5-.4c0-.3-.1-.5-.4-.5a4.35,4.35,0,0,1-2.1-.8v-.7a10.37,10.37,0,0,0,1,.4h.1c.2,0,.4-.1.4-.3s-.1-.5-.3-.6a4,4,0,0,1-1.3-.6v-.6l.2-.2a7.41,7.41,0,0,0,4,.9,7.87,7.87,0,0,0,4.2-1v.9a.1.1,0,0,0-.1.1c-.4.5-2,1-4.2,1a6.15,6.15,0,0,1-1.4-.1.45.45,0,1,0-.1.9,7.57,7.57,0,0,0,1.5.1,10,10,0,0,0,4.3-.8v.6h0c-.2.4-1.7,1.1-4.2,1.1h-.3a.45.45,0,1,0-.1.9h.4a11.37,11.37,0,0,0,4.3-.8Zm-4.2-4.4a7.2,7.2,0,0,1-3.4-.7L28,30.6a8.08,8.08,0,0,1,1.6-.1c2.6,0,4.2.9,4.2,1.6C33.7,32.6,32.1,33.6,29.5,33.6Zm5.1,3.2h.9a7.74,7.74,0,0,0,4.1-1v1h0c-.5.5-2,1-4.1,1h-.9Zm5,1.8a4.71,4.71,0,0,1-3,.9c-.3,0-.4.2-.4.5a.46.46,0,0,0,.5.4h0a10.2,10.2,0,0,0,3-.7v1a9.2,9.2,0,0,1-4.1.7h-.8v-.9h.5a.54.54,0,0,0,.5-.5.46.46,0,0,0-.4-.5h-.5v-.9h.9a9,9,0,0,0,4.1-.8v.8Zm-4.2-2.7h-.9V32.8c.3,0,.6-.1.9-.1,2.4,0,4.1.8,4.1,1.6S37.8,35.9,35.4,35.9Z"/></svg>