<svg xmlns="http://www.w3.org/2000/svg" width="52" height="52" viewBox="0 0 52 52"><defs><style>.cls-1{fill:#a2a2a2;}.cls-2{fill:#ff1a44;}</style></defs><title>icon-feat-2</title><path class="cls-1" d="M51 51h-51v-51h51zm-50-1h49v-49h-49z"/><path class="cls-2" d="M30.5 39.5a1.42 1.42 0 0 1-.6-.2l-10.5-7.4h-10.5a.94.94 0 0 1-1-1v-10.8a.94.94 0 0 1 1-1h10.5l10.5-7.4a1.18 1.18 0 0 1 1-.1 1.05 1.05 0 0 1 .5.9v26a1.05 1.05 0 0 1-.5.9l-.4.1zm-20.6-9.6h9.8a1.42 1.42 0 0 1 .6.2l9.2 6.4v-22l-9.2 6.5a1.42 1.42 0 0 1-.6.2h-9.8zM34.8 27.2l2.3-2.4-2.3-2.3a.42.42 0 1 1 .6-.6l2.4 2.3 2.4-2.3a.42.42 0 1 1 .6.6l-2.3 2.4 2.3 2.4a.42.42 0 0 1-.6.6l-2.5-2.4-2.4 2.3a.37.37 0 0 1-.6 0 .47.47 0 0 1 .1-.6zM35.1 28.5a1.33 1.33 0 0 1-.7-.3.74.74 0 0 1-.3-.7.86.86 0 0 1 .3-.6l2-2-2-2a1.1 1.1 0 0 1-.3-.6.83.83 0 0 1 .3-.7 1.08 1.08 0 0 1 .7-.3 1.33 1.33 0 0 1 .7.3l2 2 2-2a1.1 1.1 0 0 1 .6-.3 1 1 0 0 1 1 1 1.33 1.33 0 0 1-.3.7l-2 2 2 2a1.1 1.1 0 0 1 .3.6.83.83 0 0 1-.3.7 1.08 1.08 0 0 1-.7.3 1.33 1.33 0 0 1-.7-.3l-2-2-2 2a2.07 2.07 0 0 1-.6.2zm-.3-1.3zm2.9-2.2h.1v-.3h-.3v.3z"/></svg>