<svg id="Слой_1" data-name="Слой 1" xmlns="http://www.w3.org/2000/svg" width="52px" height="52px" viewBox="0 0 61.74 61.74"><defs><style>.cls-1{fill:none;stroke:#a2a2a2;stroke-miterlimit:10;stroke-width:1.21px;}.cls-2{fill:#ff1a46;}</style></defs><title>icon-fur-2</title><rect class="cls-1" x="0.61" y="0.61" width="60.53" height="60.53"/><path class="cls-2" d="M31.3,53.17,19.7,44.06a15.12,15.12,0,0,1-5.77-11.59V12.19L30.58,8.56l17.22,3.58V32.42A14.74,14.74,0,0,1,42.46,44Zm-16-39.84V32.42a13.77,13.77,0,0,0,5.25,10.5l10.69,8.4,10.26-8.4a13.39,13.39,0,0,0,4.82-10.5V13.33L30.53,10Z"/><path class="cls-2" d="M31.25,46.49c-2.44,0-8.21-6.58-9.4-8.3C21,37,19,33.71,19.66,30.22c.09-.43.24-1.86.38-3.53.48-4.91,1-9,1.38-9.69,1-1.48,8.78-3.91,9.69-4.15h.09c.91.29,9.07,2.77,10.07,4.34.38.62.81,4.58,1.24,9.3.14,1.72.29,3.24.38,3.63.57,3.05-1.19,6.58-2.19,8.06S33.64,46.49,31.25,46.49Zm-.14-33.16c-2.43.72-8.59,2.81-9.35,4-.43.62-1,6.2-1.29,9.49-.19,1.72-.33,3.1-.38,3.58-.62,3.29,1.29,6.44,2.15,7.63,1.48,2.1,7,8.11,9,8.11s7.73-6.2,9-8.11c1-1.38,2.67-4.82,2.1-7.68-.09-.43-.24-1.86-.38-3.67-.29-3.2-.81-8.54-1.14-9.11C40.08,16.24,33.64,14,31.11,13.33Z"/><path class="cls-2" d="M31.25,39.81a7.33,7.33,0,0,1-7.3-7.3c0-7.78,6.68-14.74,7-15l.34-.33.33.33c.29.29,7,7.25,7,15A7.3,7.3,0,0,1,31.25,39.81Zm0-21.28c-1.39,1.53-6.35,7.59-6.35,14a6.35,6.35,0,1,0,12.69,0C37.59,26.07,32.63,20.06,31.25,18.53Z"/></svg>