<svg xmlns="http://www.w3.org/2000/svg" width="52" height="52" viewBox="0 0 52 52"><defs><style>.cls-1{fill:none;stroke:#9e9e9e;}.cls-1,.cls-2{stroke-miterlimit:10;}.cls-2{fill:#ff1a46;stroke:#ff1a46;stroke-width:0.5px;}</style></defs><title>icon-feat-11</title><path class="cls-1" d="M.5.5h50v50h-50z"/><path class="cls-2" d="M44.2 31.2h-10a14.78 14.78 0 0 0-3-6.4.37.37 0 0 0-.3-.1.37.37 0 0 0-.3.1 15.75 15.75 0 0 0-2.9 6.3h-12.8c-.1 0-.2 0-.2.1l-9 8.9c-.1.1-.1.2-.1.4s.2.2.3.2h30.6a.37.37 0 0 0 .3-.1l7.7-8.9v-.3c-.1-.1-.2-.2-.3-.2zm-13.3-5.5c.7 1 2.6 3.8 2.6 6.3a2.63 2.63 0 0 1-2.6 2.9 2.57 2.57 0 0 1-2.5-2.9c0-2.5 1.8-5.3 2.5-6.3zm5.4 14.4h-29.6l8.3-8.2h12.6v.1a3.36 3.36 0 0 0 3.2 3.6 3.42 3.42 0 0 0 3.3-3.6v-.1h9.3zM21.3 27.6a3.42 3.42 0 0 0 3.3-3.6c0-3.3-2.9-6.9-3-7.1a.37.37 0 0 0-.3-.1.37.37 0 0 0-.3.1c-.1.2-3 3.8-3 7.1a3.47 3.47 0 0 0 3.3 3.6zm0-9.9c.7 1 2.6 3.8 2.6 6.3a2.63 2.63 0 0 1-2.6 2.9 2.57 2.57 0 0 1-2.5-2.9c0-2.4 1.8-5.3 2.5-6.3zM30 19.3a3.42 3.42 0 0 0 3.3-3.6c0-3.3-2.9-6.9-3-7.1s-.1-.1-.2-.1a.37.37 0 0 0-.3.1c-.1.2-3 3.8-3 7.1a3.36 3.36 0 0 0 3.2 3.6zm.1-9.9c.7 1 2.6 3.8 2.6 6.3a2.63 2.63 0 0 1-2.6 2.9 2.57 2.57 0 0 1-2.5-2.9c-.1-2.5 1.8-5.3 2.5-6.3z"/></svg>