<svg xmlns="http://www.w3.org/2000/svg" width="52" height="52" viewBox="0 0 52 52"><defs><style>.cls-1{fill:#a2a2a2;}.cls-2{fill:#ff1a46;}.cls-3{fill:none;}</style></defs><title>icon-beauty-1</title><path class="cls-1" d="M51 51h-51v-51h51zm-50-1h49v-49h-49z"/><path class="cls-2" d="M40.1 12.1a1.1 1.1 0 0 0-.8 0 9.72 9.72 0 0 1-13.2-2.4.75.75 0 0 0-1.2 0 10 10 0 0 1-7.9 4 9.18 9.18 0 0 1-5.3-1.6.76.76 0 0 0-.8 0 .82.82 0 0 0-.4.6c-1.2 11.8 2.9 19 6.5 23a23 23 0 0 0 8.3 5.9h.6a23 23 0 0 0 8.3-5.9c3.6-4 7.7-11.2 6.5-23-.2-.3-.3-.5-.6-.6zm-7.2 22.5a21.42 21.42 0 0 1-7.4 5.4 21.42 21.42 0 0 1-7.4-5.4c-4.7-5.1-6.8-12.2-6.2-20.6a11.42 11.42 0 0 0 13.6-2.6 11.09 11.09 0 0 0 8.5 3.8 11.25 11.25 0 0 0 5.1-1.2c.6 8.5-1.5 15.4-6.2 20.6z"/><path class="cls-3" d="M25.5 10.5v30.1"/><path class="cls-2" d="M24.8 10.5h1.5v30.1h-1.5z"/></svg>