<svg id="Слой_1" data-name="Слой 1" xmlns="http://www.w3.org/2000/svg" width="52px" height="52px" viewBox="0 0 61.74 61.74"><defs><style>.cls-1{fill:none;stroke:#a2a2a2;stroke-miterlimit:10;stroke-width:1.21px;}.cls-2{fill:#ff1a46;}</style></defs><title>icon-fur-3</title><rect class="cls-1" x="0.61" y="0.61" width="60.53" height="60.53"/><path class="cls-2" d="M31,31.94h-.17a3.6,3.6,0,0,0-3.59,3.59v6.61h7.35V35.53A3.6,3.6,0,0,0,31,31.94Zm1.93,8.54h-4v-5a1.93,1.93,0,0,1,1.93-1.93H31a1.94,1.94,0,0,1,1.93,1.93Z"/><path class="cls-2" d="M45.35,22.25V11.34h-5.5v4.08H37.59V11.34H32.05v4.08H29.79V11.34H24.22v4.08H22V11.34H16.38v10.9a8,8,0,0,0,4.05,7L18.07,50.39h25.6L41.3,29.2A8,8,0,0,0,45.35,22.25ZM41.82,48.73H19.92L22,29.9a8,8,0,0,0,2.37.36H37.34a8,8,0,0,0,2.37-.36ZM37.34,28.6H24.39A6.36,6.36,0,0,1,18,22.25V13H20.3v4.08h5.57V13h2.27v4.08h5.57V13h2.23v4.08h5.57V13h2.19v9.25A6.36,6.36,0,0,1,37.34,28.6Z"/></svg>