<svg id="Layer_1" data-name="Layer 1" xmlns="http://www.w3.org/2000/svg" viewBox="0 0 59 49.4"><defs><style>.cls-1{fill:#fff;}</style></defs><title>icon-proekt</title><path class="cls-1" d="M59,6.7C59,3,56.3.1,53,.1a6.75,6.75,0,0,0-1.4.2c-.3,0-.6.4-.6.8v6H8v-6A1,1,0,0,0,7.4.2,6.75,6.75,0,0,0,6,0C2.7,0,0,3,0,6.6V42.8c0,3.5,2.5,6.4,5.6,6.6H53.4c3.1-.2,5.6-3.1,5.6-6.6V6.7ZM1.6,6.7A4.69,4.69,0,0,1,6,1.8h.4V7.1H6.3V8.9h.1V36.3H6a5.8,5.8,0,0,0-4.4,2.1ZM53,47.8H6a4.69,4.69,0,0,1-4.4-4.9A4.69,4.69,0,0,1,6,38a2.2,2.2,0,0,1,.8.1,6.12,6.12,0,0,1,1.2.5V8.9H51V38.6a3.49,3.49,0,0,1,1.3-.5c.2,0,.5-.1.7-.1a4.69,4.69,0,0,1,4.4,4.9A4.69,4.69,0,0,1,53,47.8Zm0-11.5h-.4V1.9H53a4.69,4.69,0,0,1,4.4,4.9V38.5A5.45,5.45,0,0,0,53,36.3Z"/><path class="cls-1" d="M37.5,22.6l2,1.2.8-1.6L26.4,13.8h0l-14,8.5.8,1.6,2-1.2V39.1H46.3V30.3l2.1.8.5-1.7L37.5,25ZM16.7,37.2V21.6l9.6-5.8,9.6,5.8V37.1H16.7Zm27.9-7.7v7.7H37.4V26.7Z"/><path class="cls-1" d="M22.3,31h8V22.2h-8Zm1.6-7.1h4.8v5.3H23.9Z"/></svg>