<svg id="Layer_1" data-name="Layer 1" xmlns="http://www.w3.org/2000/svg" width="95px" height="95px" viewBox="0 0 93.15 96.5"><defs><style>.cls-1{fill:#ff1a44;}</style></defs><title>modal-bg</title><circle class="cls-1" cx="45.3" cy="87.9" r="3.2"/><path class="cls-1" d="M39.5,6.8a1.3,1.3,0,0,0,0,2.6H51.1a1.3,1.3,0,1,0,0-2.6Z"/><path class="cls-1" d="M81.4,34.9H72.5V8.1A8.13,8.13,0,0,0,64.4,0H26.3a8.13,8.13,0,0,0-8.1,8.1V88.4a8.13,8.13,0,0,0,8.1,8.1H64.4a8.13,8.13,0,0,0,8.1-8.1v-25h8.9a3.44,3.44,0,0,0,3.3-3.5V38.4A3.44,3.44,0,0,0,81.4,34.9ZM21.2,8.1A5.12,5.12,0,0,1,26.3,3H64.4a5.12,5.12,0,0,1,5.1,5.1v4.6H21.2ZM69.4,88.2a5.12,5.12,0,0,1-5.1,5.1h-38a5.12,5.12,0,0,1-5.1-5.1V82.5H69.4Zm0-8.6H21.2V15.7H69.4V34.9H44a3.44,3.44,0,0,0-3.3,3.5V59.9A3.44,3.44,0,0,0,44,63.4h3.8l1.6,9,8.9-9H69.4ZM81.9,59.9a.46.46,0,0,1-.5.4H57.2l-6,6.1-1.1-6.2h-6a.46.46,0,0,1-.5-.4V38.4a.46.46,0,0,1,.5-.4H81.5a.46.46,0,0,1,.5.4C81.9,38.4,81.9,59.9,81.9,59.9Z"/><path class="cls-1" d="M62.8,57.2c-2.3,1.1-5-2.3-5-2.3L61,51.8s1.7,1.9,2.4,1.6a12.48,12.48,0,0,0,4.1-5.2c.3-.7-2.1-2-2.1-2l2.3-3.8s3.6,1.8,3.3,3.9A14.39,14.39,0,0,1,62.8,57.2Z"/><path class="cls-1" d="M62.5,40.8a8,8,0,0,0-5.9,2.9,8.68,8.68,0,0,0-2.2,6.1.77.77,0,0,0,.8.7.68.68,0,0,0,.7-.7,7.19,7.19,0,0,1,6.7-7.6.68.68,0,0,0,.7-.7A.77.77,0,0,0,62.5,40.8Z"/><path class="cls-1" d="M59.4,46.1a4.2,4.2,0,0,0-1.1,3.2.7.7,0,1,0,1.4,0,2.65,2.65,0,0,1,.8-2.1,3.21,3.21,0,0,1,2.1-1,.7.7,0,1,0,0-1.4A4.08,4.08,0,0,0,59.4,46.1Z"/><path class="cls-1" d="M92.3,27.5H90.8V26A.9.9,0,1,0,89,26v1.5H87.4a.9.9,0,1,0,0,1.8h1.5v1.5a.9.9,0,1,0,1.8,0V29.3h1.5a.9.9,0,0,0,.9-.9C93.3,27.9,92.8,27.5,92.3,27.5Z"/><path class="cls-1" d="M12.4,65.5H10.9V64a.9.9,0,1,0-1.8,0v1.5H7.6a.9.9,0,0,0,0,1.8H9.1v1.5a.9.9,0,1,0,1.8,0V67.3h1.5a.9.9,0,0,0,0-1.8Z"/><path class="cls-1" d="M10.4,17.6H7.9V15.1a1.3,1.3,0,1,0-2.6,0v2.5H2.7a1.3,1.3,0,1,0,0,2.6H5.2v2.5a1.3,1.3,0,1,0,2.6,0V20.2h2.5a1.32,1.32,0,0,0,1.3-1.3A1.18,1.18,0,0,0,10.4,17.6Z"/><circle class="cls-1" cx="1.7" cy="44.7" r="1.7"/><circle class="cls-1" cx="83.5" cy="81.1" r="1.7"/><circle class="cls-1" cx="82" cy="14.8" r="2.2"/></svg>
