<svg id="Слой_1" data-name="Слой 1" xmlns="http://www.w3.org/2000/svg" width="50px" viewBox="0 0 61 36.6"><defs><style>.cls-1{fill:#fff;}</style></defs><title>icon-master-card</title><path class="cls-1" d="M43.7,20.7a.71.71,0,0,0,.8.7c1.2,0,1.4-1.5,1.4-1.9h-.4C44,19.6,43.7,20.2,43.7,20.7Z"/><path class="cls-1" d="M28.6,16.9c-1.1,0-1.3,1.2-1.3,1.3h2.2S29.7,16.9,28.6,16.9Z"/><path class="cls-1" d="M12.2,20.7a.71.71,0,0,0,.8.7c1.2,0,1.4-1.5,1.4-1.9H14C12.5,19.6,12.2,20.2,12.2,20.7Z"/><path class="cls-1" d="M53.5,19.7c0,.9.3,1.5,1,1.5,1.1,0,1.6-1.4,1.6-2.4s-.4-1.6-1.1-1.6S53.5,18.2,53.5,19.7Z"/><path class="cls-1" d="M42.7,0A18.16,18.16,0,0,0,30.5,4.7,18.16,18.16,0,0,0,18.3,0h-.1a18.3,18.3,0,0,0,.1,36.6,18.16,18.16,0,0,0,12.2-4.7,18,18,0,0,1-1.9-2h3.8a18,18,0,0,1-1.9,2h0A18.27,18.27,0,0,0,61,18.3h0A18.31,18.31,0,0,0,42.7,0ZM28.8,6.6h3.5a14.29,14.29,0,0,1,1.4,2H27.5C27.9,7.9,28.4,7.3,28.8,6.6Zm-2.3,3.9h8.3a11.92,11.92,0,0,1,.8,2H25.5A16.81,16.81,0,0,1,26.5,10.5ZM7.5,23l1.1-7L6.1,23H4.7l-.2-7L3.3,23H1.5l1.6-9.3H5.9L6,19.4l1.9-5.7H11L9.5,23Zm6.6-.1.1-.7a2.41,2.41,0,0,1-2,.9A1.87,1.87,0,0,1,10.3,21c0-2.2,1.8-2.9,3.5-2.9h.8s.1-.1.1-.5c0-.6-.5-.7-1.3-.7a6.52,6.52,0,0,0-2.1.3l.3-1.7a6.83,6.83,0,0,1,2.3-.4c.7,0,2.7.1,2.7,2.3l-.8,5.3H14.1Zm7.2-2.3c0,2.6-2.5,2.5-2.9,2.5a8.94,8.94,0,0,1-2.2-.2l.3-1.7a5.45,5.45,0,0,0,1.7.3c.5,0,1.2-.1,1.2-.7,0-.9-2.4-.7-2.4-2.9,0-2,1.5-2.5,2.9-2.5a7.19,7.19,0,0,1,1.8.2l-.2,1.7s-1.1-.1-1.3-.1c-.7,0-1.1.2-1.1.6C19,18.6,21.3,18.2,21.3,20.6Zm3,.7a4.33,4.33,0,0,0,.5-.1l-.2,1.7a3.81,3.81,0,0,1-1.5.3,1.4,1.4,0,0,1-1.5-1.6c0-.8,1.1-7.1,1.1-7.2h1.9l-.1,1h1l-.3,1.9h-1l-.5,3.4C23.6,20.9,23.6,21.3,24.3,21.3Zm4.3-6.1A2.66,2.66,0,0,1,31.4,18a13,13,0,0,1-.3,1.8H27.2s-.4,1.6,1.7,1.6a6,6,0,0,0,2.1-.5l-.3,1.9a5.19,5.19,0,0,1-2.1.3,3.12,3.12,0,0,1-3.4-3.4C25.2,17.3,26.6,15.2,28.6,15.2ZM33.7,28H27.2a18.58,18.58,0,0,1-1.1-1.9h8.6A11.76,11.76,0,0,1,33.7,28Zm-.4-5h-2l1.2-7.5h1.8l-.2,1.1s.6-1.2,1.5-1.2H36a5.62,5.62,0,0,0-.7,2.3C34,17.1,33.9,19.7,33.3,23Zm7.6-.2a7.46,7.46,0,0,1-1.7.3c-2.3,0-3.5-1.6-3.5-4,0-3.7,2.2-5.6,4.4-5.6a6.9,6.9,0,0,1,2.2.5L42,16.1a3.34,3.34,0,0,0-1.8-.6c-1.3,0-2.5,1.3-2.5,3.6a2,2,0,0,0,1.9,2.2,4.13,4.13,0,0,0,1.6-.5Zm4.7.1.1-.7a2.41,2.41,0,0,1-2,.9A1.87,1.87,0,0,1,41.8,21c0-2.2,1.8-2.9,3.4-2.9H46s.1-.1.1-.5c0-.6-.5-.7-1.3-.7a6.52,6.52,0,0,0-2.1.3l.3-1.7a7.08,7.08,0,0,1,2.4-.4c.7,0,2.7.1,2.7,2.3l-.8,5.3H45.6Zm4,.1h-2l1.2-7.5h1.8l-.1,1s.6-1.2,1.5-1.2h.4a5.62,5.62,0,0,0-.7,2.3C50.3,17.1,50.2,19.7,49.6,23Zm6-.1.1-.7a2.32,2.32,0,0,1-1.8.8c-1.6,0-2.4-1.6-2.4-3.1,0-2.5,1.5-4.6,3.3-4.6a2.77,2.77,0,0,1,1.9,1l.4-2.6H59l-1.5,9.2Z"/></svg>