<svg xmlns="http://www.w3.org/2000/svg" viewBox="0 0 420 420">
	<style>.st0{fill:#A5A5A5;} .st1{fill:#FF1A44;}</style>
	<path d="M11 207H9c1-68.2 36.2-130.7 94.1-167.1l1.1 1.7C46.8 77.5 12 139.4 11 207z" class="st0"/>
	<path d="M98.4 56.1c-.3.2-.6.2-1 .1-.4-.2-.7-.8-.4-1.3l6.3-14-15.3.2c-.6 0-1-.4-1-1s.4-1 1-1l16.9-.2c.3 0 .7.2.8.5.2.3.2.6.1 1l-6.9 15.4c-.2.1-.3.2-.5.3-.3.2.2-.1 0 0zm8.7 326.6c-58.3-34.8-94.8-95.9-97.9-163.5l2-.1c3 66.9 39.2 127.4 96.9 161.9l-1 1.7z" class="st0"/>
	<path d="M21.1 231.3c0 .3-.1.7-.4.9-.4.3-1.1.2-1.4-.2l-9-12.3-7.4 13.4c-.3.5-.9.7-1.4.4-.5-.3-.7-.9-.4-1.4l8.1-14.8c.2-.3.5-.5.8-.5s.7.1.9.4l10 13.6c.2.2.2.3.2.5 0 .4 0-.2 0 0zM210 411c-32.5 0-63.5-7.5-92.1-22.3l.9-1.8c28.4 14.7 59 22.1 91.2 22.1 33.4 0 66.5-8.5 95.6-24.4l1 1.8C277.2 402.5 243.8 411 210 411z" class="st0"/>
	<path d="M134.3 384.5c.3.1.5.4.6.8.1.5-.3 1-.9 1.1l-15.2 1.7 7.9 13.1c.3.5.1 1.1-.3 1.4-.5.3-1.1.1-1.4-.3l-8.7-14.4c-.2-.3-.2-.7 0-1s.4-.5.8-.6l16.8-1.8c.1-.2.2-.1.4 0 .3.1-.2-.1 0 0zm183.2-4.6l-1.1-1.7c57-36.2 91.6-97.9 92.5-165.3h2c-.9 68-35.8 130.5-93.4 167z" class="st0"/>
	<path d="M322.1 363.5c.3-.2.6-.2 1-.1.5.2.7.8.5 1.3l-6.2 14 15.3-.3c.6 0 1 .4 1 1s-.4 1-1 1l-16.9.3c-.3 0-.7-.2-.9-.4s-.2-.6-.1-1l6.9-15.4c.1-.1.2-.3.4-.4.3-.2-.2.1 0 0zm86.7-162.2c-2.8-66.2-38.4-126.4-95-161.1-1.5-.9-3-1.8-4.6-2.7l1-1.7c1.6.9 3.1 1.8 4.7 2.8 57.2 35.1 93.1 95.9 95.9 162.7h-2z" class="st0"/>
	<path d="M398.9 189.1c0-.3.1-.7.4-.9.4-.3 1.1-.2 1.4.2l9 12.4 7.4-13.4c.3-.5.9-.7 1.4-.4s.7.9.4 1.4l-8.1 14.8c-.2.3-.5.5-.8.5s-.7-.1-.9-.4l-9.9-13.6c-.3-.2-.3-.4-.3-.6 0-.3 0 .2 0 0z" class="st0"/>
	<circle cx="111" cy="36.6" r="4" class="st1"/>
	<circle cx="309" cy="36.6" r="4" class="st1"/>
	<circle cx="111" cy="383.5" r="4" class="st1"/>
	<circle cx="9.6" cy="210.1" r="4" class="st1"/>
	<circle cx="410" cy="210.1" r="4" class="st1"/>
	<circle cx="309" cy="383.5" r="4" class="st1"/>
</svg>
