<svg xmlns="http://www.w3.org/2000/svg" viewBox="0 0 306 281.7" enable-background="new 0 0 306 281.7"><style type="text/css">.st0{fill:#F1F1F1;} .st1{fill:none;stroke:#000000;stroke-miterlimit:10;} .st2{fill:#FFFFFF;stroke:#000000;stroke-miterlimit:10;}</style><path class="st0" d="M-.3 0h306.5v281.7h-306.5z"/><circle class="st1" cx="153" cy="140.9" r="111"/><path d="M49.8 143h-.3c0 2 1.6 3.7 3.6 3.7s3.7-1.6 3.7-3.7v-6.4c0-2-1.6-3.7-3.7-3.7-2 0-3.6 1.6-3.6 3.7v6.4h.7v-6.4c0-1.7 1.4-3 3-3 1.7 0 3 1.3 3 3v6.4c0 1.7-1.4 3-3 3s-3-1.3-3-3h-.4"/><path class="st2" d="M53.1 136.7c.5 0 1 .3 1.3.7.4.5.6 1.1.6 1.9v20.1c0 .8-.2 1.4-.6 1.9-.4.5-.8.7-1.3.7s-.9-.3-1.3-.7c-.4-.5-.6-1.1-.6-1.9v-20.1c0-.8.2-1.4.6-1.9.4-.5.8-.7 1.3-.7v-.3"/><circle class="st1" cx="153" cy="140.9" r="106.4"/><circle class="st1" cx="153" cy="140.9" r="93"/><circle class="st1" cx="153" cy="140.9" r="90"/></svg>