<svg xmlns="http://www.w3.org/2000/svg" width="100" height="100" viewBox="0 0 87.9 96.2"><defs><style>.cls-1{fill:#0068b5;}.cls-2{fill:#fff;}.cls-3{fill:none;}</style></defs><title>veka-logo</title><path class="cls-1" d="M0 44l43.9-44 44 44-4.1 4.1 4.1 4.1-44 44-43.9-44 4.1-4.1-4.1-4.1zM2.594 52.202l41.289-41.289 41.289 41.289-41.289 41.289z"/><path class="cls-2" d="M43.9 94.1l-41.9-41.9 41.9-41.9 41.9 41.9zm-40.7-41.9l40.7 40.7 40.7-40.7-40.7-40.7z"/><path class="cls-1" d="M2.579 44.012l41.289-41.289 41.289 41.289-41.289 41.289z"/><path class="cls-2" d="M43.9 85.9l-41.9-41.9 41.9-41.9 41.9 41.9zm-40.7-41.9l40.7 40.7 40.7-40.7-40.7-40.7z"/><path class="cls-1" d="M10.679 44.193l33.229-33.229 33.3 33.3-33.229 33.229z"/><path class="cls-2" d="M43.9 78l-33.9-33.8 33.9-33.9 33.9 33.9zm-32.7-33.8l32.7 32.7 32.7-32.7-32.7-32.7zM13.9 34h60.1v19.6h-60.1z"/><path class="cls-1" d="M24.8 52.3l5-16.8h-5.3s-1.7 7.2-1.9 8.6c-.2-1.4-1.7-8.6-1.7-8.6h-5.2l4.2 16.8z"/><path class="cls-3" d="M24.8 52.3l5-16.8h-5.3s-1.7 7.2-1.9 8.6c-.2-1.4-1.7-8.6-1.7-8.6h-5.2l4.2 16.8z"/><path class="cls-1" d="M31.7 52.3h9.2v-4h-4.3v-2.6h3.2v-3.9h-3.2v-2.4h4.3v-4h-9.2v16.9z"/><path class="cls-3" d="M31.7 52.3h9.2v-4h-4.3v-2.6h3.2v-3.9h-3.2v-2.4h4.3v-4h-9.2v16.9z"/><path class="cls-1" d="M57.4 52.3l-4.4-8.7 3.9-8.2h-5.2l-2.7 6h-.1v.1l.1-.1h-.1.1v-6h-5v16.9h5v-6.5l3.1 6.5h5.3z"/><path class="cls-3" d="M57.4 52.3l-4.4-8.7 3.9-8.2h-5.2l-2.7 6h-.1v.1l.1-.1h-.1.1v-6h-5v16.9h5v-6.5l3.1 6.5h5.3z"/><path class="cls-1" d="M64.2 45.9l.7-3.3.5-3.2c.1 1 .2 2.1.4 3.2l.5 3.3h-2.1m8.1 6.4l-3.9-16.8h-6l-4.4 16.8h5.1l.4-2.2h3.3l.4 2.2z"/><path class="cls-3" d="M64.2 45.9l.7-3.3.5-3.2c.1 1 .2 2.1.4 3.2l.5 3.3zm8.1 6.4l-3.9-16.8h-6l-4.4 16.8h5.1l.4-2.2h3.3l.4 2.2z"/></svg>