<svg id="Слой_1" data-name="Слой 1" xmlns="http://www.w3.org/2000/svg" viewBox="0 0 48 48"><defs><style>.cls-1{fill:#e70e07;}</style></defs><title>Безымянный-1</title><path class="cls-1" d="M42.4189.1515a.8255.8255,0,0,0-.8251.8272v30a.8281.8281,0,1,0,1.6562,0v-30A.8293.8293,0,0,0,42.4189.1515Z"/><path class="cls-1" d="M6.1156,47.9734c-.2469,0-.3854-.008-.3854-.008a.8283.8283,0,0,1-.7608-.6413c-.0563-.2378-1.3129-5.9149,1.9672-9.1476,3.2118-3.1627,4.5668-4.3471,5.2955-4.9814a7.0291,7.0291,0,0,0,.867-.8339c.7871-.9225,2.0977-2.4632-.57-6.9176a.8308.8308,0,0,1,.0763-.9585L15,21.6386a.843.843,0,0,1,.5622-.2911.7833.7833,0,0,1,.6041.1936L29.23,32.5436a.8175.8175,0,0,1,.2911.5612.8391.8391,0,0,1-.1908.6041L26.932,36.5533a.8213.8213,0,0,1-.9293.2389,11.1929,11.1929,0,0,0-3.88-.88,3.3361,3.3361,0,0,0-2.9489,1.3941,6.9281,6.9281,0,0,0-.7587,1.097c-.5059.8272-1.4414,2.3637-4.0108,6.0643C12.1476,47.7214,7.4885,47.9734,6.1156,47.9734Zm8.13-22.867C17.106,30.21,15.2472,32.391,14.44,33.34a9.0222,9.0222,0,0,1-1.12,1.101c-.7147.6243-2.0457,1.7865-5.2234,4.915C6.0432,41.38,6.272,44.8779,6.4728,46.3113c1.4714-.0462,4.9261-.4146,6.5722-2.7873,2.5413-3.6574,3.4607-5.171,3.9565-5.9829a8.575,8.575,0,0,1,.823-1.2054,5.0889,5.0889,0,0,1,4.2978-2.0788,12.0476,12.0476,0,0,1,3.92.786l1.4895-1.7676L15.7329,23.3378Z"/><path class="cls-1" d="M30.82,31.4817a.82.82,0,0,1-.5338-.1957L17.2224,20.2836a.8295.8295,0,0,1,.1124-1.3439c.2689-.16,6.556-4.0157,7.0619-14.149a.835.835,0,0,1,.4979-.72.8232.8232,0,0,1,.8631.1274l7.5237,6.3352a.8207.8207,0,0,1,.2931.61l.1024,3.6986,1.07-1.8136a.8294.8294,0,0,1,.5721-.3965.81.81,0,0,1,.6726.1858l2.83,2.38a.8306.8306,0,0,1,.2931.6734c-.554,11.0677-7.5778,15.32-7.8769,15.496A.823.823,0,0,1,30.82,31.4817ZM19.1094,19.7085l11.7652,9.91c1.5034-1.1,6.01-5.0657,6.5622-13.4213L35.6743,14.712l-2.0336,3.4517a.8363.8363,0,0,1-.9194.3795.8247.8247,0,0,1-.62-.7788L31.9323,11.56,25.92,6.4989C25.047,14.2072,20.9762,18.24,19.1094,19.7085Z"/></svg>