<svg id="Слой_1" data-name="Слой 1" xmlns="http://www.w3.org/2000/svg" viewBox="0 0 48 48"><defs><style>.cls-1{fill:#e70e07;}</style></defs><title>1-01</title><path class="cls-1" d="M43.3789,12.16a.7082.7082,0,0,0-.11-.1663.0728.0728,0,0,1-.0115-.02L34.891,3.61a.6727.6727,0,0,0-.92,0l-9.622,9.622a.657.657,0,0,0-.1881.4584.6678.6678,0,0,0,.1881.4616l7.9053,7.898-3.76,3.7621-3.5728-3.573a.6463.6463,0,0,0-1.1068.4559V40.3864a.6494.6494,0,0,0,.6475.65H42.1618a.651.651,0,0,0,.6507-.65.6433.6433,0,0,0-.2742-.53L39.0368,36.351l4.2057-4.2065a.649.649,0,0,0,.2012-.4681V12.4313a.596.596,0,0,0-.0454-.2288C43.3934,12.1881,43.3854,12.1749,43.3789,12.16ZM25.73,13.6906l8.702-8.7029,7.4446,7.4452-8.7037,8.6989Zm11.9278,23.12,2.9255,2.9255H25.1115V24.2634L28.0371,27.19a.6425.6425,0,0,0,.9183,0l13.19-13.1919V31.4029l-4.4882,4.49A.65.65,0,0,0,37.6575,36.8111Z"/><path class="cls-1" d="M47.351,9.8a.6494.6494,0,0,0-.6507.65V34.0137a.65.65,0,1,0,1.3,0V10.4494A.649.649,0,0,0,47.351,9.8Z"/><path class="cls-1" d="M19.249,36.5977V28.7946a.6485.6485,0,0,0-.6475-.649,5.9156,5.9156,0,0,1,0-11.8312.6467.6467,0,0,0,.6475-.6475V7.8629l2.21-2.2132a.6488.6488,0,1,0-.9168-.9183L19.249,6.0262V4.2777a.6491.6491,0,0,0-1.2982,0V6.0262L16.6545,4.7314a.6488.6488,0,0,0-.9168.9183l2.2132,2.2132V9.5837L14.8436,8.5768a.6213.6213,0,0,0-.1979-.0316.6492.6492,0,0,0-.2,1.2673l3.5047,1.1358v4.101a7.194,7.194,0,0,0-3.9671,1.6454l-2.9046-2.9L12.757,10.51a.6516.6516,0,0,0-.2808-.8738.6707.6707,0,0,0-.2969-.0706.6539.6539,0,0,0-.5809.3546l-1.4848,2.906-.8745-.8786L9.2359,8.8332a.649.649,0,0,0-1.298-.0025v1.8287L6.7047,9.4256a.65.65,0,0,0-.92.9183l1.2347,1.2349-1.83.0023a.6483.6483,0,1,0,.0017,1.2965h3.14l.8648.87L6.291,15.2312A.6506.6506,0,0,0,6.8831,16.39l3.2792-1.6778,2.9029,2.9037a7.1472,7.1472,0,0,0-1.6436,3.96v.004H7.318L6.1821,18.0748a.6492.6492,0,0,0-1.2347.4016L5.9518,21.58H4.2351L2.0218,19.3688a.6485.6485,0,0,0-.9183.916l1.2948,1.2973L.6492,21.58a.65.65,0,0,0,0,1.3H2.3983L1.1034,24.1718a.6488.6488,0,0,0,.9183.9167L4.2335,22.881H5.9518L4.9474,25.9851a.6473.6473,0,0,0,.417.8178.6587.6587,0,0,0,.2027.0332.65.65,0,0,0,.6149-.4486L7.318,22.881h4.1037a7.16,7.16,0,0,0,1.6436,3.9648L10.1624,29.747,6.8831,28.0725A.65.65,0,0,0,6.291,29.23l2.9044,1.4831-.8648.8688h-3.14A.6491.6491,0,0,0,5.1892,32.88l1.83.0008L5.7847,34.1167a.65.65,0,0,0,.92.9177l1.2332-1.2365v1.83a.6493.6493,0,0,0,.649.6482.6438.6438,0,0,0,.649-.65l.0033-3.1162.8745-.8778,1.4848,2.9077a.65.65,0,0,0,1.1586-.59l-1.6778-3.2832,2.9046-2.9012a7.1978,7.1978,0,0,0,3.9671,1.6478v4.0979l-3.5047,1.1382a.6479.6479,0,0,0,.2,1.2649.6192.6192,0,0,0,.1979-.03l3.1073-1.0069v1.7209l-2.2132,2.2115a.6492.6492,0,0,0,.9168.9193l1.2963-1.2925v1.746a.6491.6491,0,0,0,1.2982,0V38.436l1.2932,1.2925a.6492.6492,0,0,0,.9168-.9193Z"/></svg>