<svg id="Слой_1" data-name="Слой 1" xmlns="http://www.w3.org/2000/svg" viewBox="0 0 48 37.6003"><defs><style>.cls-1{fill:#e70e07;}</style></defs><title>3</title><path class="cls-1" d="M43.3758,13.3189a.5648.5648,0,0,0-.1119-.1663c-.0065-.0065-.0065-.013-.013-.0194L34.89,4.772a.6535.6535,0,0,0-.92,0L24.3519,14.39a.6618.6618,0,0,0-.19.4591.6719.6719,0,0,0,.19.4614l7.9038,7.8965-3.7581,3.7581-3.573-3.5715a.6477.6477,0,0,0-1.1078.4566V41.5318a.6491.6491,0,0,0,.6487.6512H42.1577a.651.651,0,0,0,.38-1.1807l-3.5033-3.5018,4.2057-4.205a.6465.6465,0,0,0,.2043-.4679V13.59a.6237.6237,0,0,0-.047-.2279A.1589.1589,0,0,0,43.3758,13.3189Zm-17.6435,1.53,8.6985-8.7,7.4431,7.4431-8.7017,8.697ZM37.6584,37.96,40.58,40.8831H25.1126V25.4177l2.9261,2.9253a.6442.6442,0,0,0,.918,0L42.1431,15.1565V32.5543l-4.4847,4.4872A.6481.6481,0,0,0,37.6584,37.96Z" transform="translate(0 -4.5828)"/><path class="cls-1" d="M47.3479,10.9548a.6472.6472,0,0,0-.6471.6489V35.16A.65.65,0,1,0,48,35.16V11.6037A.6515.6515,0,0,0,47.3479,10.9548Z" transform="translate(0 -4.5828)"/><path class="cls-1" d="M10.7211,16.4038a.64.64,0,0,0,.4557.1922.6472.6472,0,0,0,.4622-1.1061L6.3824,10.2177a.65.65,0,1,0-.9213.9165Z" transform="translate(0 -4.5828)"/><path class="cls-1" d="M8.0951,24.0147a.6492.6492,0,0,0,0-1.2983l-7.4431.0065h0a.6492.6492,0,1,0,0,1.2983l7.4431-.0065Z" transform="translate(0 -4.5828)"/><path class="cls-1" d="M18.62,4.7906h-.0017a.6481.6481,0,0,0-.6487.6472l-.0115,7.4406a.65.65,0,0,0,.6472.6521h.0015a.6491.6491,0,0,0,.65-.6471l.0115-7.4455A.6461.6461,0,0,0,18.62,4.7906Z" transform="translate(0 -4.5828)"/><path class="cls-1" d="M10.7211,30.34a.64.64,0,0,1,.4557-.1922.6492.6492,0,0,1,.4622,1.1086L6.3824,36.5273a.65.65,0,1,1-.9213-.9163Z" transform="translate(0 -4.5828)"/><path class="cls-1" d="M18.62,41.9552h-.0017a.6481.6481,0,0,1-.6487-.6472l-.0115-7.4439a.6484.6484,0,0,1,.6472-.65h.0015a.6486.6486,0,0,1,.65.6471l.0115,7.444A.6477.6477,0,0,1,18.62,41.9552Z" transform="translate(0 -4.5828)"/><path class="cls-1" d="M18.6038,29.6259h-.0065A6.2713,6.2713,0,0,1,12.33,23.3717a6.1624,6.1624,0,0,1,.1412-1.3025,6.2763,6.2763,0,0,1,6.1228-4.95h.01a.6481.6481,0,0,0,.6487-.6464.67.67,0,0,0-.6585-.6536,7.5684,7.5684,0,0,0-7.4382,6.25,7.4715,7.4715,0,0,0-.1216,1.3v.0048a7.4392,7.4392,0,0,0,.1216,1.296,7.5662,7.5662,0,0,0,7.4382,6.255.67.67,0,0,0,.6585-.6521A.6488.6488,0,0,0,18.6038,29.6259Z" transform="translate(0 -4.5828)"/></svg>