<svg id="Слой_1" data-name="Слой 1" xmlns="http://www.w3.org/2000/svg" viewBox="0 0 48 48"><defs><style>.cls-1{fill:#e70e07;}</style></defs><title>4</title><path class="cls-1" d="M25.1736,23.8119a.6889.6889,0,0,0-.7487.1442l-3.7881,3.7865-3.9736-3.9787,8.3644-8.3627a.6851.6851,0,0,0,0-.9719L14.8449,4.2466a.6821.6821,0,0,0-.972,0l-8.852,8.85a.1013.1013,0,0,0-.0137.0223.658.658,0,0,0-.1185.1751.3789.3789,0,0,0-.0223.0429.7323.7323,0,0,0-.048.2421v20.369a.6742.6742,0,0,0,.2165.4927l4.4508,4.4543L5.7026,42.68a.6967.6967,0,0,0-.1493.7487.6878.6878,0,0,0,.6353.4259H24.9092a.6933.6933,0,0,0,.6886-.69V24.4472A.6918.6918,0,0,0,25.1736,23.8119ZM14.3589,5.7045,23.57,14.9136l-7.8766,7.8782L6.48,13.5794Zm9.8617,36.7747H7.8508l3.0944-3.096a.6936.6936,0,0,0,0-.9736L6.1937,33.6581V15.2433L20.1543,29.2a.6882.6882,0,0,0,.9719,0l3.0944-3.0944Z"/><path class="cls-1" d="M.6868,10.7924A.6866.6866,0,0,0,0,11.4792V36.416a.6919.6919,0,0,0,.6868.69.6938.6938,0,0,0,.69-.69V11.4792A.6885.6885,0,0,0,.6868,10.7924Z"/><path class="cls-1" d="M39.22,3.3a.69.69,0,0,0-1.2535,0c-.3642.8053-8.9259,19.79-8.9259,28.3485C29.0406,39.7576,32.7892,45,38.595,45c5.7988,0,9.5475-5.2424,9.5475-13.351C48.1424,23.0908,39.584,4.1058,39.22,3.3ZM38.595,43.6264c-5.0451,0-8.1772-4.5934-8.1772-11.9774,0-6.951,6.1629-21.7254,8.1772-26.3618,2.0107,4.6363,8.17,19.4107,8.17,26.3618C46.7653,39.0329,43.6366,43.6264,38.595,43.6264Z"/></svg>