<svg id="Слой_1" data-name="Слой 1" xmlns="http://www.w3.org/2000/svg" viewBox="0 0 48 48"><defs><style>.cls-1{fill:#e70e07;}</style></defs><title>5</title><g id="_4" data-name="4"><path class="cls-1" d="M17.742,22.5636c0-3.5421-1.8537-6.4448-4.2581-6.9365V17.638c1.6195.4655,2.8387,2.4935,2.8387,4.9256s-1.2192,4.46-2.8387,4.9256V29.5C15.8882,29.0083,17.742,26.1057,17.742,22.5636ZM9.9355,10.4984,3.5484,16.5309H1.4194c-.7842,0-1.4194.9-1.4194,2.0109v8.0434c0,1.111.6352,2.0109,1.4194,2.0109h2.129l6.3871,6.0325c.7842,0,1.4194-.9008,1.4194-2.0109V12.5092C11.3548,11.3982,10.72,10.4984,9.9355,10.4984ZM3.5484,25.58c0,.555-.3179,1.0054-.71,1.0054h-.71c-.3917,0-.71-.45-.71-1.0054V19.5472c0-.555.3179-1.0054.71-1.0054h.71c.3917,0,.71.45.71,1.0054V25.58Zm6.3871,7.038L4.9677,28.2191V16.908l4.9678-4.3988ZM13.4839,8.5016v2.0652c4.1672,1.1371,7.0968,5.9521,7.0968,11.9958,0,6.01-2.8387,10.6665-7.0968,11.9958v2.0651C18.2926,35.627,22,29.7433,22,22.5615,22,15.3817,18.2926,9.498,13.4839,8.5016Z"/></g><path class="cls-1" d="M43.3754,12.8611a.5648.5648,0,0,0-.1119-.1663c-.0065-.0065-.0065-.013-.013-.0194L34.89,4.3142a.6535.6535,0,0,0-.92,0l-9.6181,9.618a.6618.6618,0,0,0-.19.4591.6719.6719,0,0,0,.19.4614l7.9038,7.8965-3.7581,3.7581-3.573-3.5715a.6477.6477,0,0,0-1.1078.4566V41.074a.6491.6491,0,0,0,.647.6512H42.1573a.651.651,0,0,0,.38-1.1807L39.034,37.0427l4.2057-4.205a.6465.6465,0,0,0,.2043-.4679V13.1322a.6237.6237,0,0,0-.047-.2279A.1589.1589,0,0,0,43.3754,12.8611Zm-17.6435,1.53,8.6985-8.7,7.4431,7.4431-8.7017,8.697ZM37.658,37.5022,40.58,40.4253H25.1122V24.96l2.9261,2.9253a.6442.6442,0,0,0,.911.007l.007-.007L42.1427,14.6987V32.0965L37.658,36.5837a.6481.6481,0,0,0-.002.9165Z"/><path class="cls-1" d="M47.3475,10.497a.6472.6472,0,0,0-.6471.6473V34.7022A.65.65,0,0,0,48,34.7479q.0008-.0228,0-.0457V11.1459A.6515.6515,0,0,0,47.3475,10.497Z"/></svg>