<svg xmlns="http://www.w3.org/2000/svg" viewBox="0 0 100 116.6715"><path fill="none" d="M0 0h100v116.6715H0z"/><path fill="#8dc2c2" d="M0 57.4254h99.9679v14.713H0z"/><path fill="#2b72b8" d="M0 72.12v14.5437l49.8994 28.7719 50.064-28.8171V72.0973zm11.5382-38.256v-.9973a1.8415 1.8415 0 0 0-3.683.0092v22.1885H.0869V28.7858l30.73-17.8058v44.0846h-7.8415V26.3063a1.8391 1.8391 0 1 0-3.6782.0092l-.0044 28.7491h-7.7546zm46.34-29.3528l19.32 11.2729v13.569h-7.8093v-9.534a1.8257 1.8257 0 0 0-1.8168-1.8345h-.0177a1.6735 1.6735 0 0 0-1.83 1.6425v28.3646a1.8345 1.8345 0 0 0 3.6691-.0046l-.0044-8.3586h7.8095v15.4361H57.8739zM34.6325 26.8828L46.07 20.19v-7.2336a1.8739 1.8739 0 0 0-1.8986-1.6464 1.8352 1.8352 0 0 0-1.8345 1.8359v3.773l-7.7087 4.3737V8.958L50.1788 0l3.6962 2.1321v52.9325H34.6325zm11.4421 21.3788l.0046-18.4784a1.8913 1.8913 0 0 0-1.9078-1.83 1.8471 1.8471 0 0 0-1.8484 1.8391v18.405a1.876 1.876 0 0 0 3.7516.0639zM81.1053 17.98L100 28.8729v26.1917H81.1053zm11.3732 30.57V33.1046a1.9041 1.9041 0 0 0-1.9256-1.83 1.7872 1.7872 0 0 0-1.794 1.78V48.55a1.789 1.789 0 0 0 1.7475 1.83h.0411a1.9085 1.9085 0 0 0 1.931-1.83z"/></svg>
