<svg id="Layer_1" data-name="Layer 1" xmlns="http://www.w3.org/2000/svg" width="40px" height="40px" viewBox="0 0 44.25 45.25"><defs><style>.cls-1{fill:#ff1a44;stroke:#ff1a44;stroke-miterlimit:10;stroke-width:0.25px;}</style></defs><title>icon-balc-gift-white</title><path class="cls-1" d="M16,.13a6.7,6.7,0,0,0-6.7,6.7,6.74,6.74,0,0,0,3.1,5.6H.63a.47.47,0,0,0-.5.5v9.2a.47.47,0,0,0,.5.5h2.6v22a.47.47,0,0,0,.5.5h36.8a.47.47,0,0,0,.5-.5v-22h2.6a.47.47,0,0,0,.5-.5v-9.2a.47.47,0,0,0-.5-.5H31.82a6.63,6.63,0,0,0,3.1-5.6,6.7,6.7,0,0,0-6.7-6.7,6.57,6.57,0,0,0-6.1,4.1A6.68,6.68,0,0,0,16,.13Zm0,1a5.59,5.59,0,0,1,5.6,5.6v5.6H16a5.59,5.59,0,0,1-5.6-5.6A5.47,5.47,0,0,1,16,1.13Zm12.2,0a5.6,5.6,0,1,1,0,11.2h-5.6V6.72A5.59,5.59,0,0,1,28.22,1.13ZM1.13,13.42h20.5v8.2H1.13Zm21.5,0h20.5v8.2H22.63Zm-18.4,9.2h17.4v21.5H4.22Zm18.4,0H40v21.5H22.63Z"/></svg>
