<svg id="Слой_1" data-name="Слой 1" xmlns="http://www.w3.org/2000/svg" width="86px" height="86px" viewBox="0 0 99 99"><defs><style>.cls-1{fill:#8e8e8e;}.cls-2{fill:#ff1a44;}.cls-3{fill:#a3a3a3;}</style></defs><title>icon-balc-light</title><path class="cls-1" d="M99,99H0V0H99ZM1,98H98V1H1Z"/><path class="cls-2" d="M39.8,28a1.23,1.23,0,0,1-1.1-.7L36,21a1.21,1.21,0,1,1,2.2-1l2.7,6.3a1.2,1.2,0,0,1-.6,1.6A1.09,1.09,0,0,1,39.8,28Z"/><path class="cls-2" d="M62.2,79.3a1.23,1.23,0,0,1-1.1-.7l-2.7-6.3a1.21,1.21,0,1,1,2.2-1l2.7,6.3a1.2,1.2,0,0,1-.6,1.6C62.5,79.2,62.4,79.3,62.2,79.3Z"/><path class="cls-2" d="M72.1,40.6a1.23,1.23,0,0,1-1.1-.7,1.2,1.2,0,0,1,.6-1.6l6.3-2.7a1.21,1.21,0,0,1,1,2.2l-6.4,2.7A.6.6,0,0,1,72.1,40.6Z"/><path class="cls-2" d="M20.9,63.1a1.23,1.23,0,0,1-1.1-.7,1.2,1.2,0,0,1,.6-1.6l6.3-2.7a1.21,1.21,0,1,1,1,2.2L21.4,63A2,2,0,0,0,20.9,63.1Z"/><path class="cls-2" d="M58.5,27.6a.9.9,0,0,1-.5-.1,1.17,1.17,0,0,1-.6-1.6L60,19.5a1.21,1.21,0,1,1,2.2,1l-2.6,6.4A1,1,0,0,1,58.5,27.6Z"/><path class="cls-2" d="M38.2,79.7a.9.9,0,0,1-.5-.1,1.17,1.17,0,0,1-.6-1.6l2.6-6.4a1.21,1.21,0,0,1,2.2,1L39.3,79A1.36,1.36,0,0,1,38.2,79.7Z"/><path class="cls-2" d="M78.9,61.9a.9.9,0,0,1-.5-.1L72,59.2A1.21,1.21,0,0,1,73,57l6.4,2.6a1.17,1.17,0,0,1,.6,1.6A1.36,1.36,0,0,1,78.9,61.9Z"/><path class="cls-2" d="M26.8,41.5a.9.9,0,0,1-.5-.1l-6.4-2.6a1.21,1.21,0,1,1,1-2.2l6.4,2.6a1.17,1.17,0,0,1,.6,1.6A1.08,1.08,0,0,1,26.8,41.5Z"/><path class="cls-3" d="M49.5,67.5A18.15,18.15,0,1,1,67.6,49.3,18.16,18.16,0,0,1,49.5,67.5Zm0-33.9A15.75,15.75,0,1,0,65.3,49.3,15.83,15.83,0,0,0,49.5,33.6Z"/><path class="cls-2" d="M49.5,26.2A1.22,1.22,0,0,1,48.3,25V14a1.22,1.22,0,0,1,1.2-1.2A1.16,1.16,0,0,1,50.7,14V24.9A1.18,1.18,0,0,1,49.5,26.2Z"/><path class="cls-2" d="M49.5,86.1a1.22,1.22,0,0,1-1.2-1.2v-11a1.22,1.22,0,0,1,1.2-1.2,1.16,1.16,0,0,1,1.2,1.2V84.8A1.18,1.18,0,0,1,49.5,86.1Z"/><path class="cls-2" d="M85,50.7H74a1.22,1.22,0,0,1-1.2-1.2A1.16,1.16,0,0,1,74,48.3H84.9a1.22,1.22,0,0,1,1.2,1.2A1.13,1.13,0,0,1,85,50.7Z"/><path class="cls-2" d="M25.1,50.7h-11a1.22,1.22,0,0,1-1.2-1.2,1.16,1.16,0,0,1,1.2-1.2H25a1.22,1.22,0,0,1,1.2,1.2A1.13,1.13,0,0,1,25.1,50.7Z"/><path class="cls-2" d="M66.9,33.4a.91.91,0,0,1-.8-.4,1.15,1.15,0,0,1,0-1.7l7.7-7.7a1.2,1.2,0,0,1,1.7,1.7L67.7,33A1,1,0,0,1,66.9,33.4Z"/><path class="cls-2" d="M24.4,75.8a.91.91,0,0,1-.8-.4,1.15,1.15,0,0,1,0-1.7L31.3,66A1.2,1.2,0,0,1,33,67.7l-7.7,7.7A1.27,1.27,0,0,1,24.4,75.8Z"/><path class="cls-2" d="M74.6,75.8a.91.91,0,0,1-.8-.4L66,67.6a1.2,1.2,0,0,1,1.7-1.7l7.7,7.7a1.15,1.15,0,0,1,0,1.7A1,1,0,0,1,74.6,75.8Z"/><path class="cls-2" d="M32.2,33.4a.91.91,0,0,1-.8-.4l-7.7-7.7a1.2,1.2,0,0,1,1.7-1.7l7.7,7.7a1.15,1.15,0,0,1,0,1.7A1.09,1.09,0,0,1,32.2,33.4Z"/></svg>
