<svg id="Слой_1" data-name="Слой 1" xmlns="http://www.w3.org/2000/svg" width="100px" height="100px" viewBox="0 0 86 86"><defs><style>.cls-1{fill:#ff1a44;}.cls-2{fill:#fff;stroke-width:0.84px;}.cls-2,.cls-3{stroke:#fff;stroke-miterlimit:10;}.cls-3{fill:none;stroke-width:0.93px;}</style></defs><title>icon-balc-gift</title><path class="cls-1" d="M34.4,35a3.9,3.9,0,1,1-3.9-3.9A3.84,3.84,0,0,1,34.4,35Z"/><path class="cls-1" d="M59.5,51a3.9,3.9,0,1,1-3.9-3.9A3.9,3.9,0,0,1,59.5,51Z"/><circle class="cls-1" cx="43" cy="43" r="43"/><path class="cls-2" d="M37.3,21.54A6.17,6.17,0,0,0,34,32.94H23a.54.54,0,0,0-.5.5V42a.54.54,0,0,0,.5.5h2.4v20.4a.54.54,0,0,0,.5.5H60.1a.54.54,0,0,0,.5-.5V42.54H63a.54.54,0,0,0,.5-.5v-8.6a.54.54,0,0,0-.5-.5H52a6.17,6.17,0,0,0-3.3-11.4,6.16,6.16,0,0,0-5.7,3.8A6,6,0,0,0,37.3,21.54Zm0,.9a5.16,5.16,0,0,1,5.2,5.2v5.2H37.3a5.2,5.2,0,0,1,0-10.4Zm11.4,0a5.2,5.2,0,0,1,0,10.4H43.5v-5.2A5.16,5.16,0,0,1,48.7,22.44ZM23.5,33.84h19v7.6h-19Zm20,0h19v7.6h-19Zm-17.1,8.6H42.6v20H26.4Zm17.1,0H59.7v20H43.5Z"/><circle class="cls-3" cx="43" cy="43" r="36.4"/></svg>
