<svg id="Layer_1" data-name="Layer 1" xmlns="http://www.w3.org/2000/svg" width="86px" height="86px" viewBox="0 0 99 99"><defs><style>.cls-1{fill:#989898;}.cls-2{fill:#ff1a44;}</style></defs><title>icon-usefull-space</title><path class="cls-1" d="M99,99H0V0H99ZM1,98H98V1H1Z"/><path class="cls-1" d="M34,46V76a.94.94,0,0,0,1,1H78a.94.94,0,0,0,1-1V54.4l9.7-8.7a1,1,0,0,0-1.2-1.6l-.1.1-10,9a1.14,1.14,0,0,0-.3.8v7H67a1,1,0,0,0-1,1,1.08,1.08,0,0,0,1,1H77V75H59V65a.94.94,0,0,0-1-1h-.2a1,1,0,0,0-.8,1V75H36V54H58a.94.94,0,0,0,1-1V46.4l9.7-8.7a1,1,0,0,0,.1-1.4.81.81,0,0,0-.9-.3.55.55,0,0,0-.5.3l-10,9a1.14,1.14,0,0,0-.3.8v6h-21v-6a.94.94,0,0,0-1-1C35,45,34,45.5,34,46Zm.8-24a1,1,0,1,0,.2,2H57V35a1,1,0,0,0,2,0h0V24H77V37a1,1,0,0,0,2,0h0V23a.94.94,0,0,0-1-1H34.8Z"/><polygon class="cls-2" points="34 77 18 77 18 22 34 22 34 24 20 24 20 75 34 75 34 77"/></svg>
