<svg xmlns="http://www.w3.org/2000/svg" viewBox="0 0 300 88.7841"><path d="M28.5 0c6.0452 0 7.9454 4.33 9.5334 8.6643.6739 1.8329 16.3759 44.8305 16.8448 46.1208a.9061.9061 0 0 1-.5093 1.1616c-.5563.2116-8.7165 3.385-9.1664 3.5541a.8845.8845 0 0 1-1.1251-.53c-.1672-.446-3.5489-9.8181-3.9309-10.8681H16.8826c-.3827 1.05-3.8 10.4391-3.957 10.8681a.8683.8683 0 0 1-1.1225.53c-.4786-.1906-8.6747-3.3661-9.1592-3.5541a.91.91 0 0 1-.5178-1.1616c.5778-1.6142 16.04-43.92 16.8317-46.1208C20.487 4.3991 22.4577 0 28.5 0zM.8815 76.9346A.8914.8914 0 0 0 0 77.8377v10.044a.89.89 0 0 0 .8815.9024h55.2376a.8865.8865 0 0 0 .8743-.9024v-10.044a.8879.8879 0 0 0-.8743-.9031H.8815m27.5718-62.8931l-7.8677 23.62h15.86l-7.8944-23.62zm205.5154 34.6644c0 2.6726-1.479 4.4317-4.2038 4.4317a11.1015 11.1015 0 0 1-3.3674-.3807v-8.09a17.0192 17.0192 0 0 1 3.3674-.2481c2.7699.1042 4.2038 1.3984 4.2038 4.2871zm5.5927-.399c0-4.9561-2.9031-8.37-9.0032-8.37a16.1476 16.1476 0 0 0-4.1607.525l-.0118-7.1344a36.0512 36.0512 0 0 1 4.6231-.2684 52.9622 52.9622 0 0 1 6.0612.3409l.1391-4.134a41.4478 41.4478 0 0 0-8.104-.8188 39.6759 39.6759 0 0 0-8.2823 1.1323l-.0019 26.369a24.7324 24.7324 0 0 0 8.6388 1.5476c6.6503.0002 10.1018-3.5261 10.1018-9.1891zM176.1121 46.87c0 3.6782-1.4653 6.05-3.8767 6.05a7.1462 7.1462 0 0 1-2.6936-.4251V41.45a5.623 5.623 0 0 1 2.9462-.5942c2.4153 0 3.624 1.9954 3.624 6.0139m-18.3779.124c0-4.0151 1.21-6.1379 3.6214-6.1379a5.6293 5.6293 0 0 1 2.95.5942v11.0451a7.1328 7.1328 0 0 1-2.6955.4251c-2.7483 0-3.876-2.2436-3.876-5.9264m11.8077 16.55v-7.1876a8.1616 8.1616 0 0 0 4.2333.9756c4.4526 0 7.7338-3.7 7.7338-10.4619 0-7.2839-3.26-10.4018-8.6173-10.4018a6.9682 6.9682 0 0 0-3.35.6654V28.546h-5.2362v8.5873a6.9758 6.9758 0 0 0-3.3517-.6654c-5.357 0-8.6186 3.2472-8.6186 10.5259 0 6.7648 2.9482 10.3379 7.7273 10.3379a8.1761 8.1761 0 0 0 4.243-.9756v7.1873h5.2362m-39.783-6.5526V37.7151a25.827 25.827 0 0 0-8.0035-1.2328 25.4979 25.4979 0 0 0-7.9474 1.2328v9.8691c0 2.6837-.0463 3.4888-.3389 4.3566a4.5105 4.5105 0 0 1-1.74 2.3781l1.4326 3.0775c4.2215-1.1917 5.8115-3.0285 5.8115-8.8668v-7.2611a14.595 14.595 0 0 1 2.7817-.2507 14.1452 14.1452 0 0 1 2.7424.2507v15.7223zm64.7593-4.226a7.8087 7.8087 0 0 1-2.8287.4923c-1.8806 0-2.95-.7431-2.95-2.672 0-2.0072 1.35-2.6876 3.955-2.6876a5.59 5.59 0 0 1 1.5535.1985v1.4391a12.6032 12.6032 0 0 0 .2705 3.2297zm6.68 2.3063a9.0772 9.0772 0 0 1-1.7474-6.01v-5.3883c0-2.9115-.3369-3.9792-1.1087-5.0461-1.0637-1.4973-2.8443-2.1444-6.1255-2.1444a27.447 27.447 0 0 0-6.7641.8038l.78 3.8591a33.4437 33.4437 0 0 1 4.1333-.3839c3.481 0 3.8826.5073 3.8826 3.1147v.9775a10.0994 10.0994 0 0 0-2.6583-.3579c-5.26 0-8.0277 2.5636-8.0277 6.7962 0 3.9779 2.956 6.15 6.582 6.15a10.7008 10.7008 0 0 0 3.861-.6993 10.329 10.329 0 0 0 1.83-1.0343 5.43 5.43 0 0 0 2 1.6886zm51.3222-2.3063a7.798 7.798 0 0 1-2.8306.4923c-1.8826 0-2.9423-.7431-2.9423-2.672 0-2.0072 1.3477-2.6876 3.9531-2.6876a5.4485 5.4485 0 0 1 1.5456.1985v1.4391a12.7415 12.7415 0 0 0 .2742 3.2297zm6.6838 2.3063a9.0489 9.0489 0 0 1-1.7533-6.01v-5.3883c0-2.9115-.3331-3.9792-1.1029-5.0461-1.07-1.4973-2.8464-2.1444-6.1295-2.1444a27.3829 27.3829 0 0 0-6.76.8038l.7777 3.8591a33.41 33.41 0 0 1 4.1334-.3839c3.4751 0 3.8767.5073 3.8767 3.1147v.9775a10.0445 10.0445 0 0 0-2.6543-.3579c-5.2558 0-8.0237 2.5636-8.0237 6.7962 0 3.9779 2.9579 6.15 6.5781 6.15a10.6825 10.6825 0 0 0 3.8591-.6993 10.0617 10.0617 0 0 0 1.83-1.0343 5.4512 5.4512 0 0 0 2.004 1.6886zm-114.5-5.005c0 1.9739-.6955 3.3262-3.22 3.3262a6.5876 6.5876 0 0 1-2.3037-.31v-5.769a9.2094 9.2094 0 0 1 2.3037-.3115c2.4125.0005 3.2196 1.1739 3.2196 3.0643zm-10.777-13.2619l-.0215 19.1347a20.1332 20.1332 0 0 0 7.6639 1.526c5.5829 0 8.5709-2.8861 8.5709-7.6424 0-4.3044-2.6445-6.9672-7.5875-6.9672a12.5444 12.5444 0 0 0-3.3706.4975v-6.5486zm144.4938 20.1866V36.9863h-5.26V44.55h-5.9531v-7.5637h-5.25v20.0045h5.25v-8.1687h5.9531v8.1687zm21.5794 0s-2.8678-6.1222-3.5711-7.5065c-.7914-1.5711-1.52-2.655-3.14-3.04v-.0923c1.0853-.2044 1.9472-.8626 2.88-2.862.8991-1.9563 1.1655-2.3742 1.6905-2.8365a1.4378 1.4378 0 0 1 1.2223-.29l.2665-3.6416a13.453 13.453 0 0 0-2.4467-.0548 3.871 3.871 0 0 0-2.8585 1.2029 8.5372 8.5372 0 0 0-1.383 2.2939c-.4937 1.0108-.8815 1.8283-1.3771 2.8581-.5054 1.0539-.7522 1.5247-2.1137 1.5247h-.8835v-7.56h-5.2793v20.0041h5.2793v-8.1745l.7189-.0117c1.5 0 1.7571.3741 2.5544 1.9569.9383 1.8923 2.7112 6.2294 2.7112 6.2294zm-195.9651 0h6.057l-9.1481-27.9636a10.9741 10.9741 0 0 0-3.4347-.5282 7.8013 7.8013 0 0 0-2.97.5282l-9.7009 27.9636H90.64s.7784-2.4486 1.729-5.4908h10.0323c.9043 3.04 1.6336 5.4908 1.6336 5.4908zM93.844 46.8143s1.6742-5.6044 1.9289-6.482c.6771-2.28 1.6892-5.87 1.6892-5.87h.1659s.9318 3.7213 1.54 5.8375c.2383.8228 1.8374 6.5147 1.8374 6.5147zm116.2887-3.1911a3.3583 3.3583 0 1 0 3.3517 3.3563 3.3622 3.3622 0 0 0-3.3518-3.3563z" fill="#e52713"/></svg>
