<svg xmlns="http://www.w3.org/2000/svg" viewBox="0 0 300 37.9612"><defs><style>.cls-1,.cls-2{fill:#001689}.cls-2,.cls-5{fill-rule:evenodd}.cls-4,.cls-5{fill:#eb0029}</style></defs><path class="cls-1" d="M15.7682 28.9876H9.492q-5.3107 0-7.6428-3.0981Q0 23.3949 0 18.609 0 8.27 9.492 8.2705h6.2762q0 2.213-.3612 2.5729-.32.363-2.3744.3646H9.492a20.3227 20.3227 0 0 0-4.1434.2395 2.1582 2.1582 0 0 0-1.5272 1.8505 40.56 40.56 0 0 0-.2014 5.311 9.6746 9.6746 0 0 0 1.1259 5.268q1.3685 2.135 4.7466 2.1339h3.34q2.2127 0 2.5752.3635.3612.3616.3612 2.6132M27.1522 12.3328a6.374 6.374 0 0 1-.2823 2.6164q-.2407.3184-1.89.32-2.0516 0-2.5351.8449a10.5935 10.5935 0 0 0-.3621 3.6621v9.1306q-2.5737 0-3.0177-.3617-.4019-.3633-.4-2.4951V12.4141a5.0032 5.0032 0 0 1 2.292.28q.3207.2835.3211 2.0111 1.25-2.574 5.8738-2.3722"/><path class="cls-2" d="M39.663 19.2922c.027-.0543.027-.0791 0-.0791q.0811-4.3478-4.1434-4.3466-3.2966 0-3.9007.5644-.5664.5628-.5642 3.8613h8.6083m3.5406 0q0 2.0515-.4439 2.4134a7.8257 7.8257 0 0 1-3.0968.3235h-8.6082a3.9915 3.9915 0 0 0 1.1673 3.0154 4.8216 4.8216 0 0 0 3.419 1.1282h3.62q2.011 0 2.3345.3595.3624.323.361 2.4149h-6.1953q-8.1659 0-8.1655-8.3261 0-8.41 8.2469-8.4073a7.3375 7.3375 0 0 1 5.5518 2.05 6.9738 6.9738 0 0 1 1.8092 5.0285zM57.6452 20.6209a7.28 7.28 0 0 0-.845-3.983q-1.0464-1.6108-3.74-1.6086-3.4217 0-3.9843.7235-.5627.6831-.5628 4.868a7.6049 7.6049 0 0 0 .8438 4.0611 4.0748 4.0748 0 0 0 3.662 1.5681q3.4589 0 4.0231-.6808.6036-.7259.6032-4.9488m3.3386 8.2856a4.9793 4.9793 0 0 1-2.2942-.2808 3.8064 3.8064 0 0 1-.3224-2.0936q-1.3645 2.5763-6.3137 2.5754-7.0418 0-7.0408-8.4866 0-8.49 7.0007-8.49 4.1832 0 5.5915 2.2543V6.1381q2.5334 0 2.9363.3612.4427.3644.4425 2.536zM67.7827 11.3673a6.7945 6.7945 0 0 1-3.0188-.361c-.2667-.242-.4026-1.1-.4026-2.5752V7.3039a16.0727 16.0727 0 0 1 2.9777.1217q.4425.2409.4437 2.2518v1.69m0 17.5393q-2.5757 0-3.0188-.3617c-.2667-.2422-.4026-1.1-.4026-2.5742V12.4141c1.716 0 2.7108.1194 2.9777.3623q.4425.3187.4437 2.4537z"/><path class="cls-1" d="M79.7284 12.4141a4.56 4.56 0 0 1-.3614 2.4524q-.32.363-2.4145.3636H75.344v8.93q0 1.97 1.6086 1.9712 1.9721 0 2.2944.361a5.3556 5.3556 0 0 1 .3209 2.5349c-.537.0257-1.0315.039-1.4882.039a8.0079 8.0079 0 0 1-4.7867-1.1246 4.5724 4.5724 0 0 1-1.4481-3.7816v-8.8911H69.633l.04-2.05c1.18 0 1.8364-.0825 1.97-.242a4.065 4.065 0 0 0 .2019-1.769V8.2705h3.4188v4.1436h4.4646"/><path d="M123.3861 18.9794A18.98 18.98 0 1 1 104.4055 0a18.9814 18.9814 0 0 1 18.9806 18.9794" fill="#fff"/><path class="cls-4" d="M86.768 18.9794a17.6387 17.6387 0 1 1 17.6375 17.6388A17.638 17.638 0 0 1 86.768 18.9794m8.9267 0l8.7108 8.71 8.71-8.71-8.71-8.7095z"/><path class="cls-5" d="M242.3125 22.8716q0-3.0536-4.383-3.0555H233.1V26.05h4.7477q3.3408 0 3.9039-.4022c.3731-.2679.5608-1.1912.5608-2.7759m-.4813-8.6883q0-2.9353-4.1037-2.9375H233.1v5.8335h4.8294q2.9367 0 3.42-.3623.4796-.3612.4817-2.534zm4.1033 8.7284q0 6.0352-8.207 6.0353H232.9a6.4349 6.4349 0 0 1-2.9352-.3625q-.4035-.36-.4022-2.5349V11.2458q0-2.2111.4022-2.5738A6.4546 6.4546 0 0 1 232.9 8.31h4.7087q7.6795 0 7.6818 5.39 0 3.6218-2.7331 4.2664a4.39 4.39 0 0 1 2.5326 1.9294 5.5185 5.5185 0 0 1 .8444 3.0159zM260.0137 21.8284v-.5252h-4.6663q-2.8572 0-3.3374.3623c-.3235.2161-.4851 1.0056-.4851 2.3746q0 2.3722 3.7022 2.3733 3.58 0 4.1839-.5642.6034-.6056.6028-4.0208m3.38 7.0782a4.26 4.26 0 0 1-2.2526-.322 4.0247 4.0247 0 0 1-.3224-2.1712 4.81 4.81 0 0 1-2.2128 1.81 9.7936 9.7936 0 0 1-4.1824.8427 7.7847 7.7847 0 0 1-4.5471-1.206 4.3415 4.3415 0 0 1-1.89-3.7812 4.99 4.99 0 0 1 1.6093-3.9016 7.66 7.66 0 0 1 5.2294-1.5684h5.1892a2.9292 2.9292 0 0 0-1.0867-2.5752 5.9029 5.9029 0 0 0-3.4192-.7649h-3.3791a4.2008 4.2008 0 0 1-2.2136-.32 5.121 5.121 0 0 1-.32-2.456h5.7928q4.6264 0 6.4365 1.892 1.566 1.5685 1.5692 5.149z"/><path class="cls-4" d="M281.455 28.9066q-2.5763 0-3.0173-.3617-.4018-.3633-.403-2.5339v-6.2763a6.2252 6.2252 0 0 0-.683-3.42q-.8854-1.2444-3.3386-1.2462-3.1756 0-3.7427.6029-.5222.5667-.5215 4.0634v9.1719q-2.5757 0-3.0177-.3617-.4018-.3633-.4026-2.5339v-13.558a4.9546 4.9546 0 0 1 2.2946.2821c.2134.1888.32.8569.32 2.0123q1.289-2.5369 6.0343-2.5339 3.7835 0 5.27 2.1313 1.2072 1.7686 1.2074 5.6731v8.8886"/><path class="cls-5" d="M287.972 28.9066q-2.5757 0-3.0169-.3617-.403-.3633-.4022-2.5339V6.1381q2.5734 0 2.9749.3612.4445.32.4442 2.456v19.9513m12.028 0a27.3864 27.3864 0 0 1-4.0231-.16 3.9616 3.9616 0 0 1-1.8507-1.3267l-5.2305-5.9148a2.0477 2.0477 0 0 1-.6444-1.2061 2.0528 2.0528 0 0 1 .6444-1.2074l5.8343-6.7176h4.627l-7.9247 7.8447z"/><path class="cls-1" d="M143.1411 28.9066h-10.8223q-2.6163 0-3.0565-.3617-.4444-.3633-.4452-2.5742V11.2458q0-2.2111.4452-2.5738.4407-.3613 3.0565-.3625h7.9235a4.81 4.81 0 0 1 2.5337.3625q.363.361.365 2.5738h-10.8222V16.96h6.9594a4.6943 4.6943 0 0 1 2.4925.36 4.6891 4.6891 0 0 1 .3636 2.4959h-9.8155v6.1546h7.6829q2.3737 0 2.7356.3614.4019.3644.4037 2.5746M160.88 28.9066a4.9727 4.9727 0 0 1-2.2942-.2808 3.809 3.809 0 0 1-.3213-2.0936q-1.3293 2.5763-6.0338 2.5754-3.8239 0-5.31-2.0914-1.2073-1.7274-1.2075-5.59v-9.0121c1.689 0 2.67.1194 2.9364.3623q.4444.363.4439 2.6139v6.3152a5.6455 5.6455 0 0 0 .7235 3.3389q.8848 1.1681 3.3775 1.1681 3.1791 0 3.7033-.5651.5222-.6042.5214-4.1012v-9.1321q2.574 0 2.9764.3623.4427.363.4427 2.6139l.0412 13.5162M172.7062 12.3328a6.3247 6.3247 0 0 1-.283 2.6164c-.1593.2123-.7909.32-1.89.32q-2.0513 0-2.536.8449a10.6112 10.6112 0 0 0-.36 3.6621v9.1306a6.7629 6.7629 0 0 1-3.0192-.3617q-.4-.3633-.4011-2.4951V12.4141a5.0217 5.0217 0 0 1 2.2942.28q.3224.2835.3213 2.0111 1.2476-2.574 5.8734-2.3722"/><path class="cls-2" d="M185.9421 20.66a7.0308 7.0308 0 0 0-.8854-3.9428 4.1839 4.1839 0 0 0-3.7821-1.6487q-3.5 0-4.1037.7246-.5631.6854-.5642 4.8669 0 5.6328 4.6278 5.632 3.54 0 4.1033-.6822.6056-.7274.6043-4.95m3.4979 0q0 8.448-8.2055 8.4476-8.1279 0-8.1256-8.4476 0-8.4085 8.1657-8.4075T189.44 20.66zM204.6453 20.7a7.8036 7.8036 0 0 0-.8442-4.1023 4.1313 4.1313 0 0 0-3.6594-1.5684q-3.4589 0-4.0632.7235-.5653.7237-.5631 4.9473a7.6611 7.6611 0 0 0 .8037 4.0218q1.0438 1.6094 3.7423 1.61 3.4594 0 4.0231-.6845.56-.7208.5608-4.9473m3.4612 0q0 8.488-6.9583 8.4876-4.1859 0-5.5938-2.2525v8.3261a6.6029 6.6029 0 0 1-2.9775-.3617q-.4019-.3184-.4015-2.4531V12.4141a4.2775 4.2775 0 0 1 2.2522.3211c.2157.1888.3247.8709.3247 2.0522q1.4848-2.5758 6.315-2.5738 7.0363 0 7.0392 8.4864zM222.3075 19.2922c.025-.0543.025-.0791 0-.0791q.0778-4.3478-4.1445-4.3466-3.2983 0-3.9016.5644-.5653.5628-.5634 3.8613h8.61m3.538 0q0 2.0515-.4439 2.4134a7.8128 7.8128 0 0 1-3.0941.3235h-8.61a3.9985 3.9985 0 0 0 1.1662 3.0154 4.8274 4.8274 0 0 0 3.4188 1.1282h3.6209q2.0109 0 2.3331.3595.3627.323.361 2.4149h-6.1947q-8.1659 0-8.165-8.3261 0-8.41 8.2467-8.4073a7.3326 7.3326 0 0 1 5.55 2.05 6.968 6.968 0 0 1 1.8105 5.0285z"/></svg>
