<?xml version="1.0" encoding="utf-8"?>
<!-- Generator: Adobe Illustrator 22.1.0, SVG Export Plug-In . SVG Version: 6.00 Build 0)  -->
<svg version="1.1" id="Color" xmlns="http://www.w3.org/2000/svg" xmlns:xlink="http://www.w3.org/1999/xlink" x="0px" y="0px"
	 viewBox="0 0 337.8 156" style="enable-background:new 0 0 337.8 156;" xml:space="preserve">
<style type="text/css">
	.st0{fill:#585857;}
</style>
<g>
	<path class="st0" d="M131.2,428.3c0-2.1-0.3-2.9-1.1-4.1h12.6c9,0,14.1,4,14.1,11.3c0,7.4-5.2,11.9-14.1,11.9h-4.3v6.4
		c0,2.1,0.3,2.9,1.1,4.1h-9.4c0.9-1.2,1.1-2,1.1-4.1V428.3z M141.6,428.3h-3.2v15.1h3.2c5.1,0,7.8-2.8,7.8-7.7
		C149.4,430.9,146.8,428.3,141.6,428.3z M171.6,457.3l-10.4-23.5c-1.1-2.3-2-3.8-3-4.8h10.2c-0.8,1.5-0.5,3.1,0.1,4.6l6.5,15.4
		l5.7-15.4c0.5-1.5,0.9-3.1,0.2-4.5h7.3c-1.2,1.2-1.8,2.2-2.5,4.3l-8.1,21.3c-2.2,5.8-4.9,10.9-11.8,10.9c-3.1,0-5.5-0.9-7.8-3
		l2-4.1c1.3,1.9,3,3.5,5.9,3.5C168.4,461.9,170.3,460.3,171.6,457.3z M202,458.4c-7.7,0-13.8-4.9-13.8-14.9
		c0-8.6,6.2-15.1,15.5-15.1c3.8,0,6,0.9,7.9,0.9c0.9,0,1.6-0.2,2.6-0.7l-2.7,6.4c-1.5-1.6-3.7-3.2-7.3-3.2c-5.6,0-8.8,4.6-8.8,11.7
		c0,6.7,2.5,11,8.3,11c4,0,7.2-1.9,9.2-4.4l1.3,3.2C211,456.7,207.7,458.4,202,458.4z M229.5,458.4c-7.7,0-13.8-4.9-13.8-14.9
		c0-8.6,6.2-15.1,15.5-15.1c3.8,0,6,0.9,7.9,0.9c0.9,0,1.6-0.2,2.6-0.7L239,435c-1.5-1.6-3.7-3.2-7.3-3.2c-5.6,0-8.8,4.6-8.8,11.7
		c0,6.7,2.5,11,8.3,11c4,0,7.2-1.9,9.2-4.4l1.3,3.2C238.5,456.7,235.2,458.4,229.5,458.4z M253.1,443.1l10-10.3
		c1.7-1.8,2-2.5,1.9-3.9h8.9c-2.2,1.5-3.5,2.7-5.1,4.3l-8.6,8.6l9.4,11.4c2.1,2.6,3,3.4,5.1,4.6h-11.3c0.1-1.3-0.2-2.1-1.3-3.5
		l-8.9-10.9v10.3c0,2.1,0.3,2.9,1.1,4.1h-9.1c0.9-1.2,1.1-2,1.1-4.1V433c0-2.1-0.3-2.9-1.1-4.1h9.1c-0.9,1.2-1.1,2-1.1,4.1V443.1z
		 M297.1,433c0-2.1-0.3-2.9-1.1-4.1h9.1c-0.9,1.2-1.1,2-1.1,4.1v20.8c0,2.1,0.3,2.9,1.1,4.1H296c0.9-1.2,1.1-2,1.1-4.1v-14.1
		l-12.3,13.3v0.9c0,2.1,0.3,2.9,1.1,4.1h-9.1c0.9-1.2,1.1-2,1.1-4.1V433c0-2.1-0.3-2.9-1.1-4.1h9.1c-0.9,1.2-1.1,2-1.1,4.1v14.1
		l12.3-13.3V433z M330.8,433c0-2.1-0.3-2.9-1.1-4.1h9.1c-0.9,1.2-1.1,2-1.1,4.1v20.8c0,2.1,0.3,2.9,1.1,4.1h-9.1
		c0.9-1.2,1.1-2,1.1-4.1v-14.1l-12.3,13.3v0.9c0,2.1,0.3,2.9,1.1,4.1h-9.1c0.9-1.2,1.1-2,1.1-4.1V433c0-2.1-0.3-2.9-1.1-4.1h9.1
		c-0.9,1.2-1.1,2-1.1,4.1v14.1l12.3-13.3V433z M323.1,420.2c-0.6,0.9-0.9,1.7-0.9,2.3c0,0.8,0.7,1.8,2.5,1.8c1.9,0,2.6-1,2.6-1.8
		c0-0.7-0.3-1.4-0.9-2.3h2.7c0.5,0.6,1.2,1.7,1.2,2.8c0,2.3-2.1,3.6-5.6,3.6c-3.5,0-5.6-1.4-5.6-3.6c0-1.1,0.7-2.2,1.2-2.8H323.1z
		 M382.7,431.4c-2.4-2.6-5.2-3.8-8.6-3.8c-6.8,0-10.7,5.4-10.7,13.6c0,8,3,13.4,10.9,13.4c3.9,0,7.2-2,9.8-4.7l1.9,3.3
		c-3.6,3.1-6.9,5.4-13.6,5.4c-10.2,0-16.8-6.3-16.8-17c0-9.7,7.1-17.4,17.8-17.4c4.6,0,6.7,0.9,9.5,0.9c1.3,0,2.3-0.3,3.5-1
		L382.7,431.4z M391.8,432.7c-3,0-4.3,0.3-6.5,1.4l2.3-5.2h26.2l-2.3,5.2c-1-0.9-1.8-1.4-4-1.4h-4.6v21.1c0,2.1,0.3,2.9,1.1,4.1
		h-9.1c0.9-1.2,1.1-2,1.1-4.1v-21.1H391.8z M430.6,451.6H418l-0.7,1.7c-0.9,2.2-1,3-0.3,4.6h-7c1.2-1.2,2-2.6,2.8-4.4l9.4-21.7
		c-0.7-1.2-1-1.7-2.1-2.8h8.3l10.5,24.5c0.8,1.9,1.5,3.1,2.9,4.4h-10.2c0.8-1.7,0.5-2.6-0.3-4.6L430.6,451.6z M419.5,448h9.7
		l-4.7-12.2L419.5,448z M464.6,444.8h-12.3v9c0,2.1,0.3,2.9,1.1,4.1h-9.1c0.9-1.2,1.1-2,1.1-4.1V433c0-2.1-0.3-2.9-1.1-4.1h9.1
		c-0.9,1.2-1.1,2-1.1,4.1v8h12.3v-8c0-2.1-0.3-2.9-1.1-4.1h9.1c-0.9,1.2-1.1,2-1.1,4.1v20.8c0,2.1,0.3,2.9,1.1,4.1h-9.1
		c0.9-1.2,1.1-2,1.1-4.1V444.8z M501.6,451.1c0,2.4,0.9,4,3.6,4.7v5c-3-2.2-4.7-3-7.7-3h-14.9c-2.8,0-4.9,1-7.7,3v-5
		c5.3-2,6.2-6,6.2-11.3V433c0-2.1-0.3-2.9-1.1-4.1h22.7c-0.9,1.2-1.1,2-1.1,4.1V451.1z M485.7,444.9c0,4.2-0.5,7-2.1,9.3h9.8
		c1.1,0,1.4-0.8,1.4-1.5v-20.2h-7.7c-1,0-1.4,0.7-1.4,1.5V444.9z M527.6,451.6H515l-0.7,1.7c-0.9,2.2-1,3-0.3,4.6h-7
		c1.2-1.2,2-2.6,2.8-4.4l9.4-21.7c-0.7-1.2-1-1.7-2.1-2.8h8.3l10.5,24.5c0.8,1.9,1.5,3.1,2.9,4.4h-10.2c0.8-1.7,0.5-2.6-0.3-4.6
		L527.6,451.6z M516.4,448h9.7l-4.7-12.2L516.4,448z M552.3,428.9c8.7,0,13.1,3.3,13.1,9.7c0,6.3-5,10.3-13.1,10.3h-3.6v4.8
		c0,2.1,0.3,2.9,1.1,4.1h-9.1c0.9-1.2,1.1-2,1.1-4.1V433c0-2.1-0.3-2.9-1.1-4.1H552.3z M548.7,432.4v13.3h2.6c4.7,0,7.1-2.3,7.1-6.9
		c0-4.4-2.3-6.4-7.1-6.4H548.7z M572.3,432.7c-3,0-4.3,0.3-6.5,1.4l2.3-5.2h26.2l-2.3,5.2c-1-0.9-1.8-1.4-4-1.4h-4.6v21.1
		c0,2.1,0.3,2.9,1.1,4.1h-9.1c0.9-1.2,1.1-2,1.1-4.1v-21.1H572.3z M609,457.9c0.9-1.2,1.1-2,1.1-4.1V433c0-2.1-0.3-2.9-1.1-4.1h21.1
		l-2.1,4.8c-0.9-0.8-1.9-1.3-4.1-1.3h-7v7.9h2.7c6.9,0,11.9,2.2,11.9,8.7c0,6.6-5,8.8-11.9,8.8H609z M619,454.4c3.6,0,6-1.5,6-5.3
		c0-3.9-2.4-5.4-6-5.4H617v10.7H619z M653.8,451.6h-12.6l-0.7,1.7c-0.9,2.2-1,3-0.3,4.6h-7c1.2-1.2,2-2.6,2.8-4.4l9.4-21.7
		c-0.7-1.2-1-1.7-2.1-2.8h8.3l10.5,24.5c0.8,1.9,1.5,3.1,2.9,4.4h-10.2c0.8-1.7,0.5-2.6-0.3-4.6L653.8,451.6z M642.7,448h9.7
		l-4.7-12.2L642.7,448z M688.5,444.8h-12.3v9c0,2.1,0.3,2.9,1.1,4.1h-9.1c0.9-1.2,1.1-2,1.1-4.1V433c0-2.1-0.3-2.9-1.1-4.1h9.1
		c-0.9,1.2-1.1,2-1.1,4.1v8h12.3v-8c0-2.1-0.2-2.9-1.1-4.1h9.1c-0.9,1.2-1.1,2-1.1,4.1v20.8c0,2.1,0.3,2.9,1.1,4.1h-9.1
		c0.9-1.2,1.1-2,1.1-4.1V444.8z M710.4,443.1l10-10.3c1.7-1.8,2-2.5,1.9-3.9h8.9c-2.2,1.5-3.5,2.7-5.1,4.3l-8.6,8.6l9.4,11.4
		c2.1,2.6,3,3.4,5.1,4.6h-11.3c0.1-1.3-0.2-2.1-1.3-3.5l-8.9-10.9v10.3c0,2.1,0.3,2.9,1.1,4.1h-9.1c0.9-1.2,1.1-2,1.1-4.1V433
		c0-2.1-0.3-2.9-1.1-4.1h9.1c-0.9,1.2-1.1,2-1.1,4.1V443.1z"/>
	<path class="st0" d="M76.2,479.2c-21,0-38.1-17.1-38.1-38.1c0-21,17.1-38.1,38.1-38.1c21,0,38.1,17.1,38.1,38.1
		C114.2,462.2,97.2,479.2,76.2,479.2 M76.2,398.6c-23.5,0-42.5,19-42.5,42.5c0,23.5,19,42.5,42.5,42.5c23.5,0,42.5-19,42.5-42.5
		C118.7,417.7,99.6,398.6,76.2,398.6z M85.5,456.1c3.5,3.8,3,10.9,1.8,14.2c-0.1,0.2-0.2,0.5-0.6,0.6c-2,0.7-4.3,1.2-5.6,1.4
		C86.6,467.4,87.5,460.3,85.5,456.1z M105.4,451.7c-4.7-4.1-10.4-6.8-15.8-7.8c5.5,2.4,10.9,8.1,13.5,13.6c0.6-0.9,1.7-2.9,2.5-5
		C105.8,452.1,105.6,451.8,105.4,451.7z M107.7,441.2c0-0.3-0.2-0.4-0.2-0.5c-3.3-1.3-5.4-1.8-5.4-1.8c0.9-0.4,1.5-1.4,1.7-2
		c-2,1.1-4.5,1.4-6.1,1.3c3,1.2,7.1,3.4,9.9,5.7C107.7,442.9,107.7,441.9,107.7,441.2z M90.5,452.5c1.2,0.3,2.8,0.5,3.9,0
		c-5.2-1.3-8.1-8.7-19.9-9.7c-0.6-0.1-1.8,0.1-1-1c0.7-1.1,5.4-4.3,5.4-4.3c-0.9,0-4.9,0.3-6.1,0.5c-1.2,0.2-1.5-0.2-1.5-1
		c0,0-2.4,2.2-1.3,3.4c0.2,0.2,0.7,0.2,1.3-0.1c0.5-0.2,1.6-0.6,2.1-0.7c0.1,0,0.2,0,0.1,0.1c-0.3,0.4-1,1.5-1.1,2.1
		c-0.2,0.7-0.3,1,0.8,1.4c1.1,0.3,6.5,2,9.8,4.3c3.3,2.3,11.2,8.4,10.8,19.8c1.9-1.3,3.5-2.7,4.5-3.6c0.2-0.2,0.2-0.6,0.1-0.7
		C97.2,459.6,94.1,454.7,90.5,452.5z M102.8,428.6c-0.5,1.7-1.6,2.6-2.3,2.8c-1.1,0.3-2-0.1-2-0.1c-0.3,0.3-0.6,0.6-0.8,0.8
		c-0.4,0.4-0.6,0.1-0.6-0.1c0-0.3,0.1-0.5-0.1-0.8c-0.3-0.5-0.6,0-1.1,0.1c-0.5,0.1-0.6-0.5-0.6-0.5c-2.6-0.5-3.8,0.8-3.8,0.8
		c1.9,0.3,2.7,1.4,2.9,2c0.1,0.5,1.3,0.5,1.8,0.1c0.1-0.1,0.5-0.3,0.4,0.2c0,0.2-0.1,0.4-0.2,0.8c0.9,0.5,1.1,0.6,0.9,1.1
		c-1,1.7-1.9,1.5-2.1,1.4c-3.7-1.3-7.1-1.9-9.3-2c0.3-0.4,1.2-1.2,1.2-1.2c-14.9,0-17.4,1.8-18.2,2.8c-0.5,0.7-0.1,1.7-0.1,1.7
		c-1.8,0.3-6.2,1.1-8.2,2.9c-1.8,1.6-2,5.2-2,6.5c0.8-0.8,1.8-1.5,2.8-1.9c2-1,4.4-0.8,7.4-0.7c1.3,0,1.9,0.5,2.3,1.3
		c0.4,0.8-0.5,0.7-1.1,0.3c-2.6-1.7-3.5,1.4-6.2,0.6c0.9,1.1,2,1,2.7,0.8c2.8-1,3.4,0.1,3.6,0.3c-1.8-0.1-4.6,1-5.9,1.3
		c-1.7,0.4-3.3,0.4-3.3,0.4c1.1,1.3,2.7,1.3,3.9,1.3c1.2,0,5-0.3,7.3-0.1c5.9,0.6,6.2,6,2.8,9.3c2.8-0.8,3.9-3.4,3.9-3.4
		c2,9.1-6.4,14-13.2,12.6c-3.3-0.7-6-2.1-7.8-3.5c-1.5-1.1-2.7-2.2-3-2.5c4.5,1.2,11.3,1.2,16-0.9c-9,0.1-15.1-2.2-19.3-4.5
		c-1.7-0.9-2.1-1.3-2.7-2.3c-1.3-2.4-2.2-4.5-3-7.7c3.5,3,10.9,7.1,14.5,7.4c-9.3-5.4-13.9-13.3-14.4-14.2c-0.4-0.7-1.1-1.5-1-3.2
		c0.1-2.3,0.8-5.7,1.7-8c1.1,3.2,3.9,8.9,7.2,11.6c-3.3-7-3.8-16-3.7-17.6c0-0.7,0.2-1.3,0.8-2.1c0.8-1.2,2.7-3.5,4.7-5.1
		c-0.4,2.5-1.1,7.5-0.1,12.4c1.3-7.6,4.2-13.5,6.2-16c0.4-0.5,0.7-0.9,1.4-1.3c0.9-0.5,3.4-1.6,6.4-2.2c-2.6,1.8-4.7,5.3-5.4,7.1
		c8.7-8.4,17.2-8.4,22.1-10.6c1-0.4,1.5,0.4,1.5,1c-0.1,0.8-0.4,2.1-0.4,2.1c3,0.7,4.3,2.2,4.3,2.2c-0.1-0.4,0-1.1,0-1.1
		c4.1,3.7,5.5,6.5,5.4,8.8c-0.1,2.1,1.5,3.2,2.3,3.7c0.8,0.5,4.2,2.6,4.8,3.1C104.1,427.2,103.4,428.1,102.8,428.6z M84.1,409.6
		c-1.2,0.8-2.5,1.9-3.3,3.8c-0.1,0.3,0.1,0.7,0.6,0.4c1-0.6,2.3-0.9,2.3-0.9c-0.3-1,0.9-2.5,1.4-3.2C85.2,409.5,85,409.1,84.1,409.6
		z M94.3,418.5c-0.3,2.2-0.8,2.1-1.3,2c-1-0.3-2.7-0.5-3.3-0.3c1.8,1.6,3,4,3,4c0.2-0.8-0.3-2-0.4-2.4c-0.1-0.3,0-0.3,0.4-0.2
		c0.2,0.1,0.8,0.2,1,0.3c0.7,0.2,0.8-0.1,0.8-0.6C94.7,420.7,94.7,419.8,94.3,418.5z M72.8,428.7c0.4-0.2,1.5-0.7,2.3-0.9
		c0,0-0.6,2.2-0.5,5.9c1.3-0.2,2.6-0.3,4.1-0.4c-2.2-0.8-2.1-5.1-0.6-7.3c0.4-0.6-0.1-0.7-0.6-0.5c-0.8,0.2-1.2,0.4-2,0.7
		c0,0,0.3-5.7,5.3-10.1C76,418,72.5,424.7,72.8,428.7z"/>
</g>
<g>
	<path class="st0" d="M124.1,45c0-1.6-0.2-2.3-0.9-3.2h10c7.2,0,11.2,3.2,11.2,9c0,5.9-4.2,9.4-11.2,9.4h-3.4v5
		c0,1.6,0.2,2.3,0.9,3.2h-7.4c0.7-1,0.9-1.6,0.9-3.2V45z M132.3,45h-2.6v12h2.6c4,0,6.2-2.2,6.2-6.1C138.5,47.1,136.5,45,132.3,45z
		 M156.5,68l-8.3-18.6c-0.8-1.8-1.6-3-2.4-3.8h8.1c-0.6,1.2-0.4,2.5,0.1,3.6l5.2,12.2l4.5-12.2c0.4-1.2,0.7-2.4,0.2-3.6h5.8
		c-1,1-1.4,1.8-2,3.4l-6.4,16.9c-1.8,4.6-3.9,8.7-9.4,8.7c-2.5,0-4.4-0.7-6.2-2.4l1.6-3.2c1,1.5,2.4,2.8,4.7,2.8
		C154,71.7,155.4,70.4,156.5,68z M180.6,68.9c-6.1,0-10.9-3.9-10.9-11.8c0-6.8,4.9-12,12.3-12c3,0,4.8,0.7,6.3,0.7
		c0.7,0,1.3-0.1,2-0.6l-2.1,5.1c-1.2-1.2-2.9-2.5-5.8-2.5c-4.4,0-7,3.6-7,9.3c0,5.3,2,8.8,6.6,8.8c3.2,0,5.7-1.5,7.3-3.5l1,2.6
		C187.7,67.5,185.1,68.9,180.6,68.9z M202.3,68.9c-6.1,0-10.9-3.9-10.9-11.8c0-6.8,4.9-12,12.3-12c3,0,4.8,0.7,6.3,0.7
		c0.7,0,1.3-0.1,2-0.6l-2.1,5.1c-1.2-1.2-2.9-2.5-5.8-2.5c-4.4,0-7,3.6-7,9.3c0,5.3,2,8.8,6.6,8.8c3.2,0,5.7-1.5,7.3-3.5l1,2.6
		C209.5,67.5,206.9,68.9,202.3,68.9z M221.1,56.8l7.9-8.2c1.4-1.4,1.6-2,1.5-3.1h7c-1.7,1.2-2.8,2.2-4,3.4l-6.8,6.8l7.4,9.1
		c1.6,2,2.4,2.7,4,3.6h-9c0-1-0.1-1.6-1-2.8l-7.1-8.6v8.2c0,1.6,0.2,2.3,0.9,3.2h-7.2c0.7-1,0.9-1.6,0.9-3.2V48.8
		c0-1.6-0.2-2.3-0.9-3.2h7.2c-0.7,1-0.9,1.6-0.9,3.2V56.8z M256.6,48.8c0-1.6-0.2-2.3-0.9-3.2h7.2c-0.7,1-0.9,1.6-0.9,3.2v16.5
		c0,1.6,0.2,2.3,0.9,3.2h-7.2c0.7-1,0.9-1.6,0.9-3.2V54l-9.8,10.5v0.7c0,1.6,0.2,2.3,0.9,3.2h-7.2c0.7-1,0.9-1.6,0.9-3.2V48.8
		c0-1.6-0.2-2.3-0.9-3.2h7.2c-0.7,1-0.9,1.6-0.9,3.2v11.2l9.8-10.5V48.8z M283.7,48.8c0-1.6-0.2-2.3-0.9-3.2h7.2
		c-0.7,1-0.9,1.6-0.9,3.2v16.5c0,1.6,0.2,2.3,0.9,3.2h-7.2c0.7-1,0.9-1.6,0.9-3.2V54l-9.8,10.5v0.7c0,1.6,0.2,2.3,0.9,3.2h-7.2
		c0.7-1,0.9-1.6,0.9-3.2V48.8c0-1.6-0.2-2.3-0.9-3.2h7.2c-0.7,1-0.9,1.6-0.9,3.2v11.2l9.8-10.5V48.8z M277.5,38.6
		c-0.4,0.7-0.7,1.3-0.7,1.8c0,0.6,0.5,1.4,2,1.4c1.5,0,2-0.8,2-1.4c0-0.5-0.2-1.1-0.7-1.8h2.2c0.4,0.5,0.9,1.4,0.9,2.2
		c0,1.8-1.6,2.9-4.4,2.9c-2.8,0-4.4-1.1-4.4-2.9c0-0.8,0.6-1.7,1-2.2H277.5z M141.6,80.8c-1.9-2.1-4.2-3-6.8-3
		c-5.4,0-8.5,4.3-8.5,10.8c0,6.4,2.4,10.6,8.7,10.6c3.1,0,5.7-1.6,7.8-3.8l1.5,2.6c-2.9,2.5-5.5,4.3-10.8,4.3
		c-8.1,0-13.3-5-13.3-13.5c0-7.7,5.6-13.8,14.1-13.8c3.7,0,5.3,0.7,7.5,0.7c1,0,1.8-0.2,2.8-0.8L141.6,80.8z M149.7,81.9
		c-2.4,0-3.4,0.2-5.1,1.1l1.8-4.1h20.8l-1.8,4.1c-0.8-0.7-1.4-1.1-3.2-1.1h-3.7v16.7c0,1.6,0.2,2.3,0.9,3.2h-7.2
		c0.7-1,0.9-1.6,0.9-3.2V81.9H149.7z M180.7,96.8h-10l-0.5,1.3c-0.7,1.8-0.8,2.4-0.2,3.6h-5.6c0.9-1,1.6-2,2.2-3.5l7.4-17.2
		c-0.5-1-0.8-1.3-1.7-2.2h6.6l8.3,19.4c0.6,1.5,1.2,2.5,2.3,3.5h-8.1c0.6-1.4,0.4-2-0.2-3.6L180.7,96.8z M171.8,94h7.7l-3.8-9.7
		L171.8,94z M207.6,91.4h-9.8v7.1c0,1.6,0.2,2.3,0.9,3.2h-7.2c0.7-1,0.9-1.6,0.9-3.2V82.1c0-1.6-0.2-2.3-0.9-3.2h7.2
		c-0.7,1-0.9,1.6-0.9,3.2v6.4h9.8v-6.4c0-1.6-0.2-2.3-0.9-3.2h7.2c-0.7,1-0.9,1.6-0.9,3.2v16.5c0,1.6,0.2,2.3,0.9,3.2h-7.2
		c0.7-1,0.9-1.6,0.9-3.2V91.4z M237,96.4c0,1.9,0.7,3.2,2.9,3.8v4c-2.4-1.7-3.7-2.4-6.1-2.4h-11.8c-2.2,0-3.9,0.8-6.1,2.4v-4
		c4.2-1.6,4.9-4.7,4.9-9v-9.1c0-1.6-0.2-2.3-0.9-3.2h18c-0.7,1-0.9,1.6-0.9,3.2V96.4z M224.3,91.5c0,3.4-0.4,5.6-1.7,7.4h7.8
		c0.9,0,1.1-0.6,1.1-1.2v-16h-6.1c-0.8,0-1.1,0.6-1.1,1.2V91.5z M257.7,96.8h-10l-0.5,1.3c-0.7,1.8-0.8,2.4-0.2,3.6h-5.6
		c0.9-1,1.6-2,2.2-3.5l7.4-17.2c-0.5-1-0.8-1.3-1.7-2.2h6.6l8.3,19.4c0.6,1.5,1.2,2.5,2.3,3.5h-8.1c0.6-1.4,0.4-2-0.2-3.6
		L257.7,96.8z M248.9,94h7.7l-3.8-9.7L248.9,94z M277.3,78.9c6.9,0,10.4,2.6,10.4,7.7c0,5-4,8.2-10.4,8.2h-2.8v3.8
		c0,1.6,0.2,2.3,0.9,3.2h-7.2c0.7-1,0.9-1.6,0.9-3.2V82.1c0-1.6-0.2-2.3-0.9-3.2H277.3z M274.5,81.6v10.6h2c3.7,0,5.6-1.8,5.6-5.5
		c0-3.5-1.8-5.1-5.6-5.1H274.5z M293.6,81.9c-2.4,0-3.4,0.2-5.1,1.1l1.8-4.1h20.8l-1.8,4.1c-0.8-0.7-1.4-1.1-3.2-1.1h-3.7v16.7
		c0,1.6,0.2,2.3,0.9,3.2h-7.2c0.7-1,0.9-1.6,0.9-3.2V81.9H293.6z"/>
	<path class="st0" d="M69.2,107.3c-21,0-38.1-17.1-38.1-38.1c0-21,17.1-38.1,38.1-38.1c21,0,38.1,17.1,38.1,38.1
		C107.3,90.2,90.2,107.3,69.2,107.3 M69.2,26.7c-23.5,0-42.5,19-42.5,42.5c0,23.5,19,42.5,42.5,42.5c23.5,0,42.5-19,42.5-42.5
		C111.7,45.7,92.7,26.7,69.2,26.7z M78.6,84.2c3.5,3.8,3,10.9,1.8,14.2c-0.1,0.2-0.2,0.5-0.6,0.6c-2,0.7-4.3,1.2-5.6,1.4
		C79.7,95.5,80.5,88.4,78.6,84.2z M98.5,79.8c-4.7-4.1-10.4-6.8-15.8-7.8c5.5,2.4,10.9,8.1,13.5,13.6c0.6-0.9,1.7-2.9,2.5-5.1
		C98.8,80.1,98.6,79.9,98.5,79.8z M100.8,69.2c0-0.3-0.2-0.4-0.2-0.5c-3.3-1.3-5.4-1.8-5.4-1.8c0.9-0.4,1.5-1.4,1.7-2
		c-2,1.1-4.5,1.4-6.1,1.3c3,1.2,7.1,3.4,9.9,5.7C100.7,71,100.8,69.9,100.8,69.2z M83.6,80.6c1.2,0.3,2.8,0.5,3.9,0
		c-5.2-1.3-8.1-8.7-19.9-9.7c-0.6-0.1-1.8,0.1-1-1c0.7-1.1,5.4-4.3,5.4-4.3c-0.9,0-4.9,0.3-6.1,0.5c-1.2,0.2-1.5-0.2-1.5-1
		c0,0-2.4,2.2-1.3,3.4c0.2,0.2,0.7,0.2,1.3-0.1c0.5-0.2,1.6-0.6,2.1-0.7c0.1,0,0.2,0,0.1,0.1c-0.3,0.4-1,1.5-1.1,2.1
		c-0.2,0.7-0.3,1,0.8,1.4c1.1,0.3,6.5,2,9.8,4.3c3.3,2.3,11.2,8.4,10.8,19.8c1.9-1.3,3.5-2.7,4.5-3.6c0.2-0.2,0.2-0.6,0.1-0.7
		C90.3,87.7,87.1,82.8,83.6,80.6z M95.9,56.7c-0.5,1.7-1.6,2.6-2.3,2.8c-1.1,0.3-2-0.1-2-0.1c-0.3,0.3-0.6,0.6-0.8,0.8
		c-0.4,0.4-0.6,0.1-0.6-0.1c0-0.3,0.1-0.5-0.1-0.8c-0.3-0.5-0.6,0-1.1,0.1c-0.5,0.2-0.6-0.5-0.6-0.5c-2.6-0.5-3.8,0.8-3.8,0.8
		c1.9,0.3,2.7,1.4,2.9,2c0.1,0.5,1.3,0.5,1.8,0.1c0.1-0.1,0.5-0.3,0.4,0.2c0,0.2-0.1,0.4-0.2,0.8c0.9,0.5,1.1,0.6,0.9,1.1
		c-1,1.7-1.9,1.5-2.1,1.4c-3.7-1.3-7.1-1.9-9.3-2c0.3-0.4,1.2-1.2,1.2-1.2c-14.9,0-17.4,1.8-18.2,2.8c-0.5,0.7-0.1,1.7-0.1,1.7
		c-1.8,0.3-6.2,1.1-8.2,2.9c-1.8,1.6-2,5.2-2,6.5c0.8-0.8,1.8-1.5,2.8-1.9c2-1,4.4-0.8,7.4-0.7c1.3,0,1.9,0.5,2.3,1.3
		c0.4,0.8-0.5,0.7-1.1,0.3c-2.6-1.7-3.5,1.4-6.2,0.6c0.9,1.1,2,1,2.7,0.8c2.8-1,3.4,0.1,3.6,0.3c-1.8-0.1-4.6,1-5.9,1.3
		c-1.7,0.4-3.3,0.4-3.3,0.4c1.1,1.3,2.7,1.3,3.9,1.3c1.2,0,5-0.3,7.3-0.1c5.9,0.6,6.2,6,2.8,9.3c2.8-0.8,3.9-3.4,3.9-3.4
		c2,9.1-6.4,14-13.2,12.6c-3.3-0.7-6-2.1-7.8-3.5c-1.5-1.1-2.7-2.2-3-2.5c4.5,1.2,11.3,1.2,16-0.9c-9,0.1-15.1-2.2-19.3-4.5
		c-1.7-0.9-2.1-1.3-2.7-2.3c-1.3-2.4-2.2-4.5-3-7.7c3.5,3,10.9,7.1,14.5,7.4C43.7,78.9,39.2,71,38.7,70.1c-0.4-0.7-1.1-1.5-1-3.2
		c0.1-2.3,0.8-5.7,1.7-8c1.1,3.2,3.9,8.9,7.2,11.6c-3.3-7-3.8-16-3.7-17.6c0-0.7,0.2-1.3,0.8-2.1c0.8-1.2,2.7-3.5,4.7-5.1
		c-0.4,2.5-1.1,7.5-0.1,12.4c1.3-7.6,4.2-13.5,6.2-16c0.4-0.5,0.7-0.9,1.4-1.3c0.9-0.5,3.4-1.6,6.4-2.2c-2.6,1.8-4.7,5.3-5.4,7.1
		c8.7-8.4,17.2-8.4,22.1-10.6c1-0.4,1.5,0.4,1.5,1c-0.1,0.8-0.4,2.1-0.4,2.1c3,0.7,4.3,2.2,4.3,2.2c-0.1-0.4,0-1.1,0-1.1
		c4.1,3.7,5.5,6.5,5.4,8.8c-0.1,2.1,1.5,3.2,2.3,3.7c0.8,0.5,4.2,2.6,4.8,3.1C97.1,55.2,96.4,56.2,95.9,56.7z M77.2,37.7
		c-1.2,0.8-2.5,1.9-3.3,3.8c-0.1,0.3,0.1,0.7,0.6,0.4c1-0.6,2.3-0.9,2.3-0.9c-0.3-1,0.9-2.5,1.4-3.2C78.2,37.5,78.1,37.1,77.2,37.7z
		 M87.4,46.6c-0.3,2.2-0.8,2.1-1.3,2c-1-0.3-2.7-0.5-3.3-0.3c1.8,1.6,3,4,3,4c0.2-0.8-0.3-2-0.4-2.4c-0.1-0.3,0-0.3,0.4-0.2
		c0.2,0.1,0.8,0.2,1,0.3c0.7,0.2,0.8-0.1,0.8-0.6C87.7,48.8,87.8,47.9,87.4,46.6z M65.8,56.7c0.4-0.2,1.5-0.7,2.3-0.9
		c0,0-0.6,2.2-0.5,5.9c1.3-0.2,2.6-0.3,4.1-0.4c-2.2-0.8-2.1-5.1-0.6-7.3c0.4-0.6-0.1-0.7-0.6-0.5c-0.8,0.2-1.2,0.4-2,0.7
		c0,0,0.3-5.7,5.3-10.1C69.1,46,65.6,52.7,65.8,56.7z"/>
	<path class="st0" d="M123.1,129.3c0.5-0.7,0.6-1.2,0.6-2.3v-12c0-1.2-0.1-1.7-0.6-2.4h12.5l-1.2,2.8c-0.5-0.5-1.1-0.7-2.4-0.7h-4.3
		v4.4h1.8c3.9,0,6.9,1.3,6.9,5.1c0,3.8-2.9,5.1-6.9,5.1H123.1z M129.1,127.3c2.1,0,3.5-0.8,3.5-3c0-2.3-1.4-3.1-3.4-3.1h-1.3v6.1
		H129.1z M149.1,125.8h-7.3l-0.4,0.9c-0.5,1.3-0.6,1.7-0.1,2.6h-4.1c0.7-0.7,1.1-1.5,1.6-2.6l5.3-12.3c-0.4-0.8-0.6-1.1-1.2-1.8h5.1
		l6,14.1c0.5,1.1,0.9,1.8,1.7,2.6h-6c0.5-1,0.3-1.5-0.2-2.6L149.1,125.8z M142.6,123.7h5.6l-2.7-7L142.6,123.7z M169.3,121.9H162
		v5.1c0,1.2,0.1,1.7,0.6,2.3h-5.3c0.5-0.7,0.6-1.2,0.6-2.3v-12c0-1.2-0.1-1.7-0.6-2.4h5.3c-0.5,0.7-0.6,1.2-0.6,2.4v4.6h7.3V115
		c0-1.2-0.1-1.7-0.6-2.4h5.3c-0.5,0.7-0.6,1.2-0.6,2.4v12c0,1.2,0.1,1.7,0.6,2.3h-5.3c0.5-0.7,0.6-1.2,0.6-2.3V121.9z M182.2,120.9
		l5.7-6c1-1,1.1-1.4,1.1-2.2h5.2c-1.2,0.8-2.1,1.6-3,2.5l-4.9,5l5.4,6.6c1.2,1.5,1.7,1.9,2.9,2.6H188c0-0.7-0.1-1.2-0.7-2l-5.1-6.3
		v5.9c0,1.2,0.1,1.7,0.6,2.3h-5.3c0.5-0.7,0.6-1.2,0.6-2.3v-12c0-1.2-0.1-1.7-0.6-2.4h5.3c-0.5,0.7-0.6,1.2-0.6,2.4V120.9z"/>
</g>
<g>
	<path class="st0" d="M124.1,234.3c0-1.6-0.2-2.3-0.9-3.2h10c7.2,0,11.2,3.2,11.2,9c0,5.9-4.2,9.4-11.2,9.4h-3.4v5
		c0,1.6,0.2,2.3,0.9,3.2h-7.4c0.7-1,0.9-1.6,0.9-3.2V234.3z M132.3,234.3h-2.6v12h2.6c4,0,6.2-2.2,6.2-6.1
		C138.5,236.4,136.4,234.3,132.3,234.3z M155.9,257.3l-8.3-18.6c-0.8-1.8-1.6-3-2.4-3.8h8.1c-0.6,1.2-0.4,2.5,0.1,3.6l5.2,12.2
		l4.5-12.2c0.4-1.2,0.7-2.4,0.2-3.6h5.8c-1,1-1.4,1.8-2,3.4l-6.4,16.9c-1.8,4.6-3.9,8.7-9.4,8.7c-2.5,0-4.4-0.7-6.2-2.4l1.6-3.2
		c1,1.5,2.4,2.8,4.7,2.8C153.4,260.9,154.9,259.6,155.9,257.3z M179.9,258.2c-6.1,0-10.9-3.9-10.9-11.8c0-6.8,4.9-12,12.3-12
		c3,0,4.8,0.7,6.3,0.7c0.7,0,1.3-0.1,2-0.6l-2.1,5.1c-1.2-1.2-2.9-2.5-5.8-2.5c-4.4,0-7,3.6-7,9.3c0,5.3,2,8.8,6.6,8.8
		c3.2,0,5.7-1.5,7.3-3.5l1,2.6C187.1,256.8,184.5,258.2,179.9,258.2z M201.6,258.2c-6.1,0-10.9-3.9-10.9-11.8c0-6.8,4.9-12,12.3-12
		c3,0,4.8,0.7,6.3,0.7c0.7,0,1.3-0.1,2-0.6l-2.1,5.1c-1.2-1.2-2.9-2.5-5.8-2.5c-4.4,0-7,3.6-7,9.3c0,5.3,2,8.8,6.6,8.8
		c3.2,0,5.7-1.5,7.3-3.5l1,2.6C208.7,256.8,206.1,258.2,201.6,258.2z M220.2,246.1l7.9-8.2c1.4-1.4,1.6-2,1.5-3.1h7
		c-1.7,1.2-2.8,2.2-4,3.4l-6.8,6.8l7.4,9.1c1.6,2,2.4,2.7,4,3.6h-9c0-1-0.1-1.6-1-2.8l-7.1-8.6v8.2c0,1.6,0.2,2.3,0.9,3.2h-7.2
		c0.7-1,0.9-1.6,0.9-3.2V238c0-1.6-0.2-2.3-0.9-3.2h7.2c-0.7,1-0.9,1.6-0.9,3.2V246.1z M255,238c0-1.6-0.2-2.3-0.9-3.2h7.2
		c-0.7,1-0.9,1.6-0.9,3.2v16.5c0,1.6,0.2,2.3,0.9,3.2h-7.2c0.7-1,0.9-1.6,0.9-3.2v-11.2l-9.8,10.5v0.7c0,1.6,0.2,2.3,0.9,3.2h-7.2
		c0.7-1,0.9-1.6,0.9-3.2V238c0-1.6-0.2-2.3-0.9-3.2h7.2c-0.7,1-0.9,1.6-0.9,3.2v11.2l9.8-10.5V238z M322.9,236.7
		c-1.9-2.1-4.2-3-6.8-3c-5.4,0-8.5,4.3-8.5,10.8c0,6.4,2.4,10.6,8.7,10.6c3.1,0,5.7-1.6,7.8-3.8l1.5,2.6c-2.9,2.5-5.5,4.3-10.8,4.3
		c-8.1,0-13.3-5-13.3-13.5c0-7.7,5.6-13.8,14.1-13.8c3.7,0,5.3,0.7,7.5,0.7c1,0,1.8-0.2,2.8-0.8L322.9,236.7z M330,237.8
		c-2.4,0-3.4,0.2-5.1,1.1l1.8-4.1h20.8l-1.8,4.1c-0.8-0.7-1.4-1.1-3.2-1.1h-3.7v16.7c0,1.6,0.2,2.3,0.9,3.2h-7.2
		c0.7-1,0.9-1.6,0.9-3.2v-16.7H330z M360.7,252.8h-10l-0.5,1.3c-0.7,1.8-0.8,2.4-0.2,3.6h-5.6c0.9-1,1.6-2,2.2-3.5L354,237
		c-0.5-1-0.8-1.3-1.7-2.2h6.6l8.3,19.4c0.6,1.5,1.2,2.5,2.3,3.5h-8.1c0.6-1.4,0.4-2-0.2-3.6L360.7,252.8z M351.8,249.9h7.7l-3.8-9.7
		L351.8,249.9z M387.4,247.4h-9.8v7.1c0,1.6,0.2,2.3,0.9,3.2h-7.2c0.7-1,0.9-1.6,0.9-3.2V238c0-1.6-0.2-2.3-0.9-3.2h7.2
		c-0.7,1-0.9,1.6-0.9,3.2v6.4h9.8V238c0-1.6-0.2-2.3-0.9-3.2h7.2c-0.7,1-0.9,1.6-0.9,3.2v16.5c0,1.6,0.2,2.3,0.9,3.2h-7.2
		c0.7-1,0.9-1.6,0.9-3.2V247.4z M416.7,252.3c0,1.9,0.7,3.2,2.9,3.8v4c-2.4-1.7-3.7-2.4-6.1-2.4h-11.8c-2.2,0-3.9,0.8-6.1,2.4v-4
		c4.2-1.6,4.9-4.7,4.9-9V238c0-1.6-0.2-2.3-0.9-3.2h18c-0.7,1-0.9,1.6-0.9,3.2V252.3z M404.1,247.5c0,3.4-0.4,5.6-1.7,7.4h7.8
		c0.9,0,1.1-0.6,1.1-1.2v-16h-6.1c-0.8,0-1.1,0.6-1.1,1.2V247.5z M437,252.8h-10l-0.5,1.3c-0.7,1.8-0.8,2.4-0.2,3.6h-5.6
		c0.9-1,1.6-2,2.2-3.5l7.4-17.2c-0.5-1-0.8-1.3-1.7-2.2h6.6l8.3,19.4c0.6,1.5,1.2,2.5,2.3,3.5h-8.1c0.6-1.4,0.4-2-0.2-3.6L437,252.8
		z M428.2,249.9h7.7l-3.8-9.7L428.2,249.9z M456.6,234.8c6.9,0,10.4,2.6,10.4,7.7c0,5-4,8.2-10.4,8.2h-2.8v3.8
		c0,1.6,0.2,2.3,0.9,3.2h-7.2c0.7-1,0.9-1.6,0.9-3.2V238c0-1.6-0.2-2.3-0.9-3.2H456.6z M453.7,237.5v10.6h2c3.7,0,5.6-1.8,5.6-5.5
		c0-3.5-1.8-5.1-5.6-5.1H453.7z M472.4,237.8c-2.4,0-3.4,0.2-5.1,1.1l1.8-4.1h20.8l-1.8,4.1c-0.8-0.7-1.4-1.1-3.2-1.1h-3.7v16.7
		c0,1.6,0.2,2.3,0.9,3.2h-7.2c0.7-1,0.9-1.6,0.9-3.2v-16.7H472.4z M281.5,238c0-1.6-0.2-2.3-0.9-3.2h7.2c-0.7,1-0.9,1.6-0.9,3.2
		v16.5c0,1.6,0.2,2.3,0.9,3.2h-7.2c0.7-1,0.9-1.6,0.9-3.2v-11.2l-9.8,10.5v0.7c0,1.6,0.2,2.3,0.9,3.2h-7.2c0.7-1,0.9-1.6,0.9-3.2
		V238c0-1.6-0.2-2.3-0.9-3.2h7.2c-0.7,1-0.9,1.6-0.9,3.2v11.2l9.8-10.5V238z M275.4,227.9c-0.4,0.7-0.7,1.3-0.7,1.8
		c0,0.6,0.5,1.4,2,1.4c1.5,0,2-0.8,2-1.4c0-0.5-0.2-1.1-0.7-1.8h2.2c0.4,0.5,0.9,1.4,0.9,2.2c0,1.8-1.6,2.9-4.4,2.9
		c-2.8,0-4.4-1.1-4.4-2.9c0-0.8,0.6-1.7,1-2.2H275.4z"/>
	<path class="st0" d="M69.2,296.6c-21,0-38.1-17.1-38.1-38.1c0-21,17.1-38.1,38.1-38.1s38.1,17.1,38.1,38.1
		C107.3,279.5,90.2,296.6,69.2,296.6 M69.2,215.9c-23.5,0-42.5,19-42.5,42.5c0,23.5,19,42.5,42.5,42.5c23.5,0,42.5-19,42.5-42.5
		C111.7,235,92.7,215.9,69.2,215.9z M78.6,273.4c3.5,3.8,3,10.9,1.8,14.2c-0.1,0.2-0.2,0.5-0.6,0.6c-2,0.7-4.3,1.2-5.6,1.4
		C79.7,284.7,80.5,277.7,78.6,273.4z M98.5,269c-4.7-4.1-10.4-6.8-15.8-7.8c5.5,2.4,10.9,8.1,13.5,13.6c0.6-0.9,1.7-2.9,2.5-5
		C98.8,269.4,98.6,269.1,98.5,269z M100.8,258.5c0-0.3-0.2-0.4-0.2-0.5c-3.3-1.3-5.4-1.8-5.4-1.8c0.9-0.4,1.5-1.4,1.7-2
		c-2,1.1-4.5,1.4-6.1,1.3c3,1.2,7.1,3.4,9.9,5.7C100.7,260.2,100.8,259.2,100.8,258.5z M83.6,269.9c1.2,0.3,2.8,0.5,3.9,0
		c-5.2-1.3-8.1-8.7-19.9-9.7c-0.6-0.1-1.8,0.1-1-1c0.7-1.1,5.4-4.3,5.4-4.3c-0.9,0-4.9,0.3-6,0.5c-1.2,0.2-1.5-0.2-1.5-1
		c0,0-2.4,2.2-1.3,3.4c0.2,0.2,0.7,0.2,1.3-0.1c0.5-0.2,1.6-0.6,2.1-0.7c0.1,0,0.2,0,0.1,0.1c-0.3,0.4-1,1.5-1.1,2.1
		c-0.2,0.7-0.3,1,0.8,1.4c1.1,0.3,6.5,2,9.8,4.3c3.3,2.3,11.2,8.4,10.8,19.8c1.9-1.3,3.5-2.7,4.5-3.6c0.2-0.2,0.2-0.6,0.1-0.7
		C90.3,276.9,87.1,272.1,83.6,269.9z M95.9,245.9c-0.5,1.7-1.6,2.6-2.3,2.8c-1.1,0.3-2-0.1-2-0.1c-0.3,0.3-0.6,0.6-0.8,0.8
		c-0.4,0.4-0.6,0.1-0.6-0.1c0-0.3,0.1-0.5-0.1-0.8c-0.3-0.5-0.6,0-1.1,0.1c-0.5,0.2-0.6-0.5-0.6-0.5c-2.6-0.5-3.8,0.8-3.8,0.8
		c1.9,0.3,2.7,1.4,2.9,2c0.1,0.5,1.3,0.5,1.8,0.1c0.1-0.1,0.5-0.3,0.4,0.2c0,0.2-0.1,0.4-0.2,0.8c0.9,0.5,1.1,0.6,0.9,1.1
		c-1,1.7-1.9,1.5-2.1,1.4c-3.7-1.3-7.2-1.9-9.3-2c0.3-0.4,1.2-1.2,1.2-1.2c-14.9,0-17.4,1.8-18.2,2.8c-0.5,0.7-0.1,1.7-0.1,1.7
		c-1.8,0.3-6.2,1.1-8.2,2.9c-1.8,1.6-2,5.2-2,6.5c0.8-0.8,1.8-1.5,2.8-1.9c2-1,4.4-0.8,7.4-0.7c1.3,0,1.9,0.5,2.3,1.3
		c0.4,0.8-0.5,0.7-1.1,0.3c-2.6-1.7-3.5,1.4-6.2,0.6c0.9,1.1,2,1,2.7,0.8c2.8-1,3.4,0.1,3.6,0.3c-1.8-0.1-4.6,1-5.9,1.3
		c-1.7,0.4-3.3,0.4-3.3,0.4c1.1,1.3,2.7,1.3,3.9,1.3c1.2,0,5-0.3,7.3-0.1c5.9,0.6,6.2,6,2.8,9.3c2.8-0.8,3.9-3.4,3.9-3.4
		c2,9.1-6.4,14-13.2,12.6c-3.3-0.7-6-2.1-7.8-3.5c-1.5-1.1-2.7-2.2-3-2.5c4.5,1.2,11.3,1.2,16-0.9c-9,0.1-15.1-2.2-19.3-4.5
		c-1.7-0.9-2.1-1.3-2.7-2.3c-1.3-2.4-2.2-4.5-3-7.7c3.5,3,10.9,7.1,14.5,7.4c-9.3-5.4-13.9-13.3-14.4-14.2c-0.4-0.7-1.1-1.5-1-3.2
		c0.1-2.3,0.8-5.7,1.7-8c1.1,3.2,3.9,8.9,7.2,11.6c-3.3-7-3.8-16-3.7-17.6c0-0.7,0.2-1.3,0.8-2.1c0.8-1.2,2.7-3.5,4.7-5.1
		c-0.4,2.5-1.1,7.5-0.1,12.4c1.3-7.6,4.2-13.5,6.2-16c0.4-0.5,0.7-0.9,1.4-1.3c0.9-0.5,3.4-1.6,6.4-2.2c-2.6,1.8-4.7,5.3-5.4,7.1
		c8.8-8.4,17.2-8.4,22.1-10.6c1-0.4,1.5,0.4,1.5,1c-0.1,0.8-0.4,2.1-0.4,2.1c3,0.7,4.3,2.2,4.3,2.2c-0.1-0.4,0-1.1,0-1.1
		c4.1,3.7,5.5,6.5,5.4,8.8c-0.1,2.1,1.5,3.2,2.3,3.7c0.8,0.5,4.2,2.5,4.8,3.1C97.1,244.5,96.4,245.4,95.9,245.9z M77.2,226.9
		c-1.2,0.8-2.5,1.9-3.3,3.8c-0.1,0.3,0.1,0.7,0.6,0.4c1-0.6,2.3-0.9,2.3-0.9c-0.3-1,0.9-2.5,1.4-3.2
		C78.2,226.8,78.1,226.4,77.2,226.9z M87.4,235.8c-0.3,2.2-0.8,2.1-1.3,2c-1-0.3-2.7-0.5-3.3-0.3c1.8,1.6,3,4,3,4
		c0.2-0.8-0.3-2-0.4-2.4c-0.1-0.3,0-0.3,0.4-0.2c0.2,0.1,0.8,0.2,1,0.3c0.7,0.2,0.8-0.1,0.8-0.6C87.7,238,87.8,237.1,87.4,235.8z
		 M65.8,246c0.4-0.2,1.5-0.7,2.3-0.9c0,0-0.6,2.2-0.5,5.9c1.3-0.2,2.6-0.3,4.1-0.4c-2.2-0.8-2.1-5.1-0.6-7.3
		c0.4-0.6-0.1-0.7-0.6-0.5c-0.8,0.2-1.2,0.4-2,0.7c0,0,0.3-5.7,5.3-10.1C69.1,235.3,65.6,242,65.8,246z"/>
	<path class="st0" d="M123.3,292c0.7-1,0.9-1.6,0.9-3.2v-16.5c0-1.6-0.2-2.3-0.9-3.2h16.8l-1.6,3.8c-0.7-0.6-1.5-1-3.2-1h-5.6v6.3
		h2.1c5.4,0,9.4,1.8,9.4,6.9c0,5.2-4,7-9.4,7H123.3z M131.2,289.3c2.8,0,4.8-1.2,4.8-4.2c0-3.1-1.9-4.3-4.7-4.3h-1.6v8.5H131.2z
		 M158.6,287.1h-10l-0.5,1.3c-0.7,1.8-0.8,2.4-0.2,3.6h-5.6c0.9-1,1.6-2,2.2-3.5l7.4-17.2c-0.5-1-0.8-1.3-1.7-2.2h6.6l8.3,19.4
		c0.6,1.5,1.2,2.5,2.3,3.5h-8.1c0.6-1.4,0.4-2-0.2-3.6L158.6,287.1z M149.7,284.2h7.7l-3.8-9.7L149.7,284.2z M186.1,281.7h-9.8v7.1
		c0,1.6,0.2,2.3,0.9,3.2H170c0.7-1,0.9-1.6,0.9-3.2v-16.5c0-1.6-0.2-2.3-0.9-3.2h7.2c-0.7,1-0.9,1.6-0.9,3.2v6.4h9.8v-6.4
		c0-1.6-0.2-2.3-0.9-3.2h7.2c-0.7,1-0.9,1.6-0.9,3.2v16.5c0,1.6,0.2,2.3,0.9,3.2h-7.2c0.7-1,0.9-1.6,0.9-3.2V281.7z M203.5,280.3
		l7.9-8.2c1.4-1.4,1.6-2,1.5-3.1h7c-1.7,1.2-2.8,2.2-4,3.4l-6.8,6.8l7.4,9.1c1.6,2,2.4,2.7,4,3.6h-9c0-1-0.1-1.6-1-2.8l-7.1-8.6v8.2
		c0,1.6,0.2,2.3,0.9,3.2h-7.2c0.7-1,0.9-1.6,0.9-3.2v-16.5c0-1.6-0.2-2.3-0.9-3.2h7.2c-0.7,1-0.9,1.6-0.9,3.2V280.3z"/>
</g>
</svg>
