<svg id="Layer_1" data-name="Layer 1" xmlns="http://www.w3.org/2000/svg" viewBox="0 0 186.2 59.3"><defs><style>.cls-1{fill:#58595b;}.cls-2{fill:#cc2347;}.cls-3{fill:#a7203d;}</style></defs><title>logo-head</title><path class="cls-1" d="M64.9,16.6H62.5v6.2h2.4c2.7,0,3.9-.9,3.9-3.1s-1.2-3.1-3.9-3.1m.4,9.5H62.5v6.7H58.1V13.4h7.3c4.9,0,8,2.2,8,6.3s-3.1,6.4-8.1,6.4m12.9,6.6L80.8,27,74,13.3h4.6l4.2,9.3L87,13.3h4.5L82.7,32.7Zm23.2.4c-6.5,0-10.6-4-10.6-10s4.1-10,10.5-10a14.64,14.64,0,0,1,4.8.8c.3.1.4.1.4.3l-.3,3s-.2.3-.8,0a9,9,0,0,0-3.7-.7c-4.2,0-6.5,2.6-6.5,6.6,0,4.2,2.5,6.6,6.6,6.6a9.09,9.09,0,0,0,3.7-.8c.4-.2.8-.5.8-.1l.2,3.3c0,.2-.1.2-.4.3a13.67,13.67,0,0,1-4.7.7m16.3-16.6c-3,0-4.9,2.4-4.9,6.6s1.9,6.6,4.9,6.6,4.9-2.4,4.9-6.6-1.9-6.6-4.9-6.6m0,16.6c-6,0-9.4-4.3-9.4-10s3.4-10,9.4-10,9.4,4.3,9.4,10-3.4,10-9.4,10m30.5-.3h-5.4l-6.9-8.7h-1.5v8.7H130V13.4h4.4v7.5h1.5l6-7.5H147l-7.3,9.1Zm9.1-16.3c-3,0-4.9,2.4-4.9,6.6s1.9,6.6,4.9,6.6,4.9-2.4,4.9-6.6-1.9-6.6-4.9-6.6m0,16.6c-6,0-9.4-4.3-9.4-10s3.4-10,9.4-10,9.4,4.3,9.4,10-3.4,10-9.4,10m24.5-.4V24.6H174v8.1h-4.4V13.4H174V21h7.8V13.4h4.4V32.8h-4.4Z"/><polygon class="cls-2" points="12.7 49.6 19.1 47.5 15.9 45.1 12.7 46.3 12.7 49.6"/><polygon class="cls-2" points="25.4 52.2 12.7 56 12.7 59.3 28.6 54.6 25.4 52.2"/><polygon class="cls-2" points="12.7 54.5 23.9 51.1 20.7 48.7 12.7 51.2 12.7 54.5"/><polygon class="cls-2" points="29.6 29.2 19.1 32 15.9 29.6 26.5 26.8 29.6 29.2"/><polygon class="cls-3" points="19.1 47.5 19.1 32 15.9 29.6 15.9 45.1 19.1 47.5"/><polygon class="cls-3" points="3.2 52.2 3.2 9.8 0 7.4 0 49.8 3.2 52.2"/><polygon class="cls-2" points="29.7 2.5 3.2 9.8 0 7.4 26.5 0 29.7 2.5"/><polygon class="cls-2" points="34.4 32.7 23.9 35.6 20.7 33.2 31.2 30.3 34.4 32.7"/><polygon class="cls-3" points="23.9 51.1 23.9 35.6 20.7 33.2 20.7 48.7 23.9 51.1"/><polygon class="cls-3" points="8 55.8 7.9 13.3 4.7 10.9 4.8 53.4 8 55.8"/><polygon class="cls-2" points="34.4 6 8 13.3 4.7 10.9 31.2 3.6 34.4 6"/><polygon class="cls-2" points="39.2 36.2 28.6 39.1 25.4 36.7 36 33.8 39.2 36.2"/><polygon class="cls-3" points="28.6 54.6 28.6 39.1 25.4 36.7 25.4 52.2 28.6 54.6"/><polygon class="cls-3" points="12.7 59.3 12.7 16.8 9.5 14.4 9.5 56.9 12.7 59.3"/><polygon class="cls-2" points="39.2 9.5 12.7 16.8 9.5 14.4 36 7.1 39.2 9.5"/><polygon class="cls-3" points="29.7 29.2 29.7 12.1 26.5 13 26.5 26.8 29.7 29.2"/><polygon class="cls-3" points="34.4 32.7 34.4 10.8 31.2 11.6 31.2 30.3 34.4 32.7"/><polygon class="cls-3" points="39.2 36.2 39.2 9.5 36 10.3 36 33.8 39.2 36.2"/><path class="cls-2" d="M64.8,49.3V45H59.3v4.3H58.1V40h1.2v4h5.5V40H66v9.3Z"/><path class="cls-2" d="M72.6,49.3v-.8a2.94,2.94,0,0,1-2.2.9A2.32,2.32,0,0,1,68,47.2,2.2,2.2,0,0,1,70.4,45a2.79,2.79,0,0,1,2.2.9V44.7c0-.9-.7-1.4-1.7-1.4a2.88,2.88,0,0,0-2.1.9l-.5-.7A3.34,3.34,0,0,1,71,42.4c1.4,0,2.6.6,2.6,2.3v4.7h-1Zm0-1.4V46.6a2.13,2.13,0,0,0-1.9-.8,1.51,1.51,0,1,0,0,3A2.85,2.85,0,0,0,72.6,47.9Z"/><path class="cls-2" d="M82,49.3V44l-2.2,5.3h-.4L77.2,44v5.3h-1V42.5h1.4l2.1,5,2-5h1.4v6.8Z"/><path class="cls-2" d="M90.9,49.3V41.5l-1.5,1.6-.7-.7L91,40h1v9.3Z"/><path class="cls-2" d="M94.1,49.3v-.9c3.4-2.6,5.2-4.2,5.2-5.8a1.73,1.73,0,0,0-1.9-1.7,3,3,0,0,0-2.5,1.2l-.7-.7a4.15,4.15,0,0,1,3.3-1.5c1.6,0,3.1.9,3.1,2.7s-1.9,3.6-4.5,5.7h4.6v1Z"/><path class="cls-2" d="M106.1,48.6c.6,0,1-.7,1.3-2.7l.4-3.3h4.7v6.8h-1.1V43.6h-2.7l-.3,2.5c-.3,2.5-1,3.5-2.3,3.5Z"/><path class="cls-2" d="M114.6,45.9a3.31,3.31,0,1,1,6.6.1v.3h-5.5a2.35,2.35,0,0,0,2.4,2.3,2.72,2.72,0,0,0,2.1-.9l.5.7a3.62,3.62,0,0,1-2.7,1A3.23,3.23,0,0,1,114.6,45.9Zm3.3-2.7a2.24,2.24,0,0,0-2.2,2.3h4.4A2.16,2.16,0,0,0,117.9,43.2Z"/><path class="cls-2" d="M124.4,49.3V43.5h-2v-.9h5v.9h-2v5.8Z"/><path class="cls-2" d="M128.9,48.7a.8.8,0,0,1,1.6,0,.86.86,0,0,1-.8.8C129.3,49.4,128.9,49.1,128.9,48.7Zm.3-2L129,40h1.3l-.2,6.7Z"/></svg>