<svg id="Layer_1" data-name="Layer 1" xmlns="http://www.w3.org/2000/svg" height="60px" viewBox="0 0 39.3 59.2"><defs><style>.cls-1{fill:#aba9a9;}.cls-2{fill:gray;}</style></defs><title>rusokon-footer</title><polygon class="cls-1" points="12.7 49.5 19.2 47.5 16 45.1 12.7 46.2 12.7 49.5"/><polygon class="cls-1" points="25.5 52.1 12.7 55.9 12.8 59.2 28.7 54.5 25.5 52.1"/><polygon class="cls-1" points="12.7 54.4 23.9 51 20.8 48.6 12.7 51.1 12.7 54.4"/><polygon class="cls-1" points="29.7 29.1 19.2 32 16 29.6 26.5 26.7 29.7 29.1"/><polygon class="cls-2" points="19.2 47.5 19.2 32 16 29.6 16 45.1 19.2 47.5"/><polygon class="cls-2" points="3.3 52.2 3.3 9.7 0.1 7.3 0.1 49.8 3.3 52.2"/><polygon class="cls-1" points="29.8 2.4 3.3 9.7 0 7.3 26.5 0 29.8 2.4"/><polygon class="cls-1" points="34.5 32.6 23.9 35.5 20.7 33.1 31.3 30.2 34.5 32.6"/><polygon class="cls-2" points="23.9 51 23.9 35.5 20.7 33.1 20.8 48.6 23.9 51"/><polygon class="cls-2" points="8 55.7 8 13.2 4.8 10.8 4.8 53.3 8 55.7"/><polygon class="cls-1" points="34.5 5.9 8 13.2 4.8 10.8 31.3 3.5 34.5 5.9"/><polygon class="cls-1" points="39.2 36.1 28.7 39 25.5 36.6 36.1 33.7 39.2 36.1"/><polygon class="cls-2" points="28.7 54.5 28.7 39 25.5 36.6 25.5 52.1 28.7 54.5"/><polygon class="cls-2" points="12.8 59.2 12.8 16.7 9.6 14.3 9.6 56.8 12.8 59.2"/><polygon class="cls-1" points="39.3 9.4 12.8 16.7 9.6 14.3 36.1 7 39.3 9.4"/><polygon class="cls-2" points="29.7 29.1 29.7 12 26.5 12.9 26.5 26.7 29.7 29.1"/><polygon class="cls-2" points="34.5 32.6 34.5 10.7 31.3 11.6 31.3 30.2 34.5 32.6"/><polygon class="cls-2" points="39.2 36.1 39.3 9.4 36 10.3 36.1 33.7 39.2 36.1"/></svg>
