<svg xmlns="http://www.w3.org/2000/svg" viewBox="0 0 198 60" enable-background="new 0 0 198 60"><style>.st0{fill:#FFFFFF;} .st1{fill:#B5B3B3;} .st2{fill:#868686;}</style><path class="st0" d="M70.8 24h-2.4v6.2h2.4c2.7 0 3.9-.9 3.9-3.1 0-2.3-1.2-3.1-3.9-3.1m.4 9.4h-2.8v6.7h-4.4v-19.4h7.3c4.9 0 8 2.2 8 6.3-.1 4.2-3.1 6.4-8.1 6.4m12.9 6.7l2.6-5.7-6.8-13.7h4.6l4.3 9.3 4.2-9.3h4.5l-8.8 19.4h-4.6zm23.2.4c-6.5 0-10.6-4-10.6-10 0-5.9 4.1-10 10.5-10 1.7 0 3.4.3 4.8.8.3.1.4.1.4.3l-.3 3s-.2.3-.8 0c-1.1-.5-2.4-.7-3.7-.7-4.2 0-6.5 2.6-6.5 6.6 0 4.2 2.5 6.6 6.6 6.6 1.3 0 2.6-.3 3.7-.8.4-.2.8-.5.8-.1l.2 3.3c0 .2-.1.2-.4.3-1.3.4-3 .7-4.7.7m16.3-16.7c-3 0-4.9 2.4-4.9 6.6 0 4.2 1.9 6.6 4.9 6.6 3 0 4.9-2.4 4.9-6.6 0-4.2-1.9-6.6-4.9-6.6m0 16.6c-6 0-9.4-4.3-9.4-10s3.4-10 9.4-10 9.4 4.3 9.4 10-3.4 10-9.4 10m30.5-.3h-5.4l-6.9-8.7h-1.5v8.7h-4.4v-19.4h4.4v7.5h1.5l6-7.5h5.1l-7.3 9.1 8.5 10.3zm9.1-16.3c-3 0-4.9 2.4-4.9 6.6 0 4.2 1.9 6.6 4.9 6.6 3 0 4.9-2.4 4.9-6.6 0-4.2-1.9-6.6-4.9-6.6m0 16.6c-6 0-9.4-4.3-9.4-10s3.4-10 9.4-10 9.4 4.3 9.4 10-3.4 10-9.4 10m24.5-.3v-8.1h-7.8v8.1h-4.4v-19.4h4.4v7.6h7.8v-7.6h4.4v19.4h-4.4z"/><path class="st1" d="M18.6 49.9l6.4-2-3.2-2.4-3.2 1.2zM31.3 52.5l-12.7 3.9v3.2l15.9-4.7zM18.6 54.8l11.2-3.4-3.2-2.4-8 2.5zM35.5 29.5l-10.5 2.9-3.2-2.4 10.6-2.9z"/><path class="st2" d="M25 47.9v-15.5l-3.2-2.4v15.5zM9.1 52.6v-42.5l-3.2-2.4v42.5z"/><path class="st1" d="M35.6 2.8l-26.5 7.3-3.2-2.4 26.5-7.3zM40.3 33l-10.5 2.9-3.2-2.4 10.5-2.9z"/><path class="st2" d="M29.8 51.4v-15.5l-3.2-2.4v15.5zM13.9 56.1l-.1-42.4-3.2-2.4.1 42.4z"/><path class="st1" d="M40.3 6.4l-26.4 7.3-3.3-2.5 26.5-7.3zM45.1 36.6l-10.6 2.8-3.2-2.4 10.6-2.8z"/><path class="st2" d="M34.5 54.9v-15.5l-3.2-2.4v15.5zM18.6 59.6v-42.4l-3.2-2.4v42.4z"/><path class="st1" d="M45.1 9.8l-26.5 7.4-3.2-2.5 26.5-7.3z"/><path class="st2" d="M35.6 29.5v-17l-3.2.8v13.8zM40.3 33v-21.9l-3.2.9v18.6zM45.1 36.6v-26.8l-3.2.9v23.5z"/></svg>
