<svg xmlns="http://www.w3.org/2000/svg" id="Layer_1" viewBox="0 0 60 60">
  <style>
    .st0{fill:#E32649;} .st1{fill:#BF223E;}
  </style>
  <path d="M23.1 49.9l6.4-2-3.2-2.4-3.2 1.2zm12.8 2.6l-12.8 3.9.1 3.2L39 54.9zm-12.8 2.3l11.2-3.4-3.2-2.4-8 2.5zm17-25.3l-10.6 2.9-3.2-2.4 10.6-2.9z" class="st0"/>
  <path d="M29.5 47.9V32.4L26.3 30v15.5zm-15.9 4.7V10.1l-3.2-2.4v42.5z" class="st1"/>
  <path d="M40.1 2.8l-26.5 7.3-3.2-2.4L36.9.4zM44.8 33l-10.5 2.9-3.2-2.4 10.6-2.9z" class="st0"/>
  <path d="M34.3 51.4V35.9l-3.2-2.4V49zm-15.9 4.7V13.7l-3.2-2.4v42.4z" class="st1"/>
  <path d="M44.9 6.4l-26.5 7.3-3.2-2.5 26.5-7.3zm4.7 30.2l-10.5 2.8-3.3-2.4 10.6-2.8z" class="st0"/>
  <path d="M39 54.9V39.4L35.8 37l.1 15.5zm-15.8 4.7l-.1-42.4-3.2-2.4v42.4z" class="st1"/>
  <path d="M49.6 9.8l-26.5 7.4-3.2-2.5 26.5-7.3z" class="st0"/>
  <path d="M40.1 29.5v-17l-3.2.8v13.8zm4.7 3.5V11.1l-3.2.9.1 18.6zm4.8 3.6V9.8l-3.2.9v23.5z" class="st1"/>
</svg>
