<svg xmlns="http://www.w3.org/2000/svg" width="186.2" height="59.3"><path fill="#58595b" d="M64.9 16.6h-2.4v6.2h2.4c2.7 0 3.9-.9 3.9-3.1s-1.2-3.1-3.9-3.1m.4 9.5h-2.8v6.7h-4.4V13.4h7.3c4.9 0 8 2.2 8 6.3s-3.1 6.4-8.1 6.4m12.9 6.6l2.6-5.7L74 13.3h4.6l4.2 9.3 4.2-9.3h4.5l-8.8 19.4zm23.2.4c-6.5 0-10.6-4-10.6-10s4.1-10 10.5-10a14.64 14.64 0 0 1 4.8.8c.3.1.4.1.4.3l-.3 3s-.2.3-.8 0a9 9 0 0 0-3.7-.7c-4.2 0-6.5 2.6-6.5 6.6 0 4.2 2.5 6.6 6.6 6.6a9.09 9.09 0 0 0 3.7-.8c.4-.2.8-.5.8-.1l.2 3.3c0 .2-.1.2-.4.3a13.67 13.67 0 0 1-4.7.7m16.3-16.6c-3 0-4.9 2.4-4.9 6.6s1.9 6.6 4.9 6.6 4.9-2.4 4.9-6.6-1.9-6.6-4.9-6.6m0 16.6c-6 0-9.4-4.3-9.4-10s3.4-10 9.4-10 9.4 4.3 9.4 10-3.4 10-9.4 10m30.5-.3h-5.4l-6.9-8.7h-1.5v8.7H130V13.4h4.4v7.5h1.5l6-7.5h5.1l-7.3 9.1zm9.1-16.3c-3 0-4.9 2.4-4.9 6.6s1.9 6.6 4.9 6.6 4.9-2.4 4.9-6.6-1.9-6.6-4.9-6.6m0 16.6c-6 0-9.4-4.3-9.4-10s3.4-10 9.4-10 9.4 4.3 9.4 10-3.4 10-9.4 10m24.5-.4v-8.1H174v8.1h-4.4V13.4h4.4V21h7.8v-7.6h4.4v19.4h-4.4z"/><path fill="#cc2347" d="M12.7 49.6l6.4-2.1-3.2-2.4-3.2 1.2v3.3m12.7 2.6L12.7 56v3.3l15.9-4.7-3.2-2.4m-12.7 2.3l11.2-3.4-3.2-2.4-8 2.5v3.3m16.9-25.3L19.1 32l-3.2-2.4 10.6-2.8 3.1 2.4"/><path fill="#a7203d" d="M19.1 47.5V32l-3.2-2.4v15.5l3.2 2.4M3.2 52.2V9.8L0 7.4v42.4l3.2 2.4"/><path fill="#cc2347" d="M29.7 2.5L3.2 9.8 0 7.4 26.5 0l3.2 2.5m4.7 30.2l-10.5 2.9-3.2-2.4 10.5-2.9 3.2 2.4"/><path fill="#a7203d" d="M23.9 51.1V35.6l-3.2-2.4v15.5l3.2 2.4M8 55.8l-.1-42.5-3.2-2.4.1 42.5L8 55.8"/><path fill="#cc2347" d="M34.4 6L8 13.3l-3.3-2.4 26.5-7.3L34.4 6m4.8 30.2l-10.6 2.9-3.2-2.4L36 33.8l3.2 2.4"/><path fill="#a7203d" d="M28.6 54.6V39.1l-3.2-2.4v15.5l3.2 2.4m-15.9 4.7V16.8l-3.2-2.4v42.5l3.2 2.4"/><path fill="#cc2347" d="M39.2 9.5l-26.5 7.3-3.2-2.4L36 7.1l3.2 2.4"/><path fill="#a7203d" d="M29.7 29.2V12.1l-3.2.9v13.8l3.2 2.4m4.7 3.5V10.8l-3.2.8v18.7l3.2 2.4m4.8 3.5V9.5l-3.2.8v23.5l3.2 2.4"/><path fill="#cc2347" d="M64.8 49.3V45h-5.5v4.3h-1.2V40h1.2v4h5.5v-4H66v9.3zm7.8 0v-.8a2.94 2.94 0 0 1-2.2.9 2.32 2.32 0 0 1-2.4-2.2 2.2 2.2 0 0 1 2.4-2.2 2.79 2.79 0 0 1 2.2.9v-1.2c0-.9-.7-1.4-1.7-1.4a2.88 2.88 0 0 0-2.1.9l-.5-.7a3.34 3.34 0 0 1 2.7-1.1c1.4 0 2.6.6 2.6 2.3v4.7h-1zm0-1.4v-1.3a2.13 2.13 0 0 0-1.9-.8 1.51 1.51 0 1 0 0 3 2.85 2.85 0 0 0 1.9-.9zm9.4 1.4V44l-2.2 5.3h-.4L77.2 44v5.3h-1v-6.8h1.4l2.1 5 2-5h1.4v6.8zm8.9 0v-7.8l-1.5 1.6-.7-.7L91 40h1v9.3zm3.2 0v-.9c3.4-2.6 5.2-4.2 5.2-5.8a1.73 1.73 0 0 0-1.9-1.7 3 3 0 0 0-2.5 1.2l-.7-.7a4.15 4.15 0 0 1 3.3-1.5c1.6 0 3.1.9 3.1 2.7s-1.9 3.6-4.5 5.7h4.6v1zm12-.7c.6 0 1-.7 1.3-2.7l.4-3.3h4.7v6.8h-1.1v-5.8h-2.7l-.3 2.5c-.3 2.5-1 3.5-2.3 3.5zm8.5-2.7a3.31 3.31 0 1 1 6.6.1v.3h-5.5a2.35 2.35 0 0 0 2.4 2.3 2.72 2.72 0 0 0 2.1-.9l.5.7a3.62 3.62 0 0 1-2.7 1 3.23 3.23 0 0 1-3.4-3.5zm3.3-2.7a2.24 2.24 0 0 0-2.2 2.3h4.4a2.16 2.16 0 0 0-2.2-2.3zm6.5 6.1v-5.8h-2v-.9h5v.9h-2v5.8zm4.5-.6a.8.8 0 0 1 1.6 0 .86.86 0 0 1-.8.8c-.4-.1-.8-.4-.8-.8zm.3-2L129 40h1.3l-.2 6.7z"/></svg>
